<svg width="400" height="49" viewBox="0 0 400 49" fill="none" xmlns="http://www.w3.org/2000/svg">
<g clip-path="url(#clip0_149_363)">
<path fill-rule="evenodd" clip-rule="evenodd" d="M49.6029 24.3119C49.6029 37.5586 38.8656 48.2972 25.6202 48.2972C12.3736 48.2972 1.63623 37.5586 1.63623 24.3119C1.63623 11.0666 12.3736 0.329247 25.6202 0.329247C38.8656 0.329247 49.6029 11.0666 49.6029 24.3119Z" fill="#F4BA80"/>
<path fill-rule="evenodd" clip-rule="evenodd" d="M38.1647 16.8893H13.5647V17.2147C13.5647 20.9267 13.5647 24.6387 13.5634 28.352C13.5634 29.2547 13.4314 30.128 12.9314 30.9107C12.4261 31.7013 11.6794 32.168 10.8167 32.4587C9.80339 32.804 8.75272 32.8987 7.69005 32.8987C7.66872 32.8987 7.64605 32.888 7.61938 32.88V30.728C7.97005 30.7093 8.33005 30.7013 8.68872 30.672C8.96205 30.648 9.23805 30.6147 9.50739 30.5587C10.4447 30.3613 10.9087 29.7067 11.0434 28.8213C11.1527 28.1067 11.2194 27.3773 11.2221 26.6547C11.2394 22.7613 11.2301 18.868 11.2301 14.9733V14.5773H40.4781V32.804H38.1647V16.8893Z" fill="#231F20"/>
<path fill-rule="evenodd" clip-rule="evenodd" d="M14.9973 18.4129H36.7733V32.7889H34.576V20.6076H17.196V32.8009H14.9973V18.4129Z" fill="#231F20"/>
<path fill-rule="evenodd" clip-rule="evenodd" d="M25.9987 32.7644C24.1667 30.547 22.3533 28.3537 20.4933 26.1044V32.7924H18.416V21.9137C18.4707 21.907 18.5307 21.8977 18.5907 21.8964C19.152 21.895 19.7133 21.9017 20.2733 21.8924C20.4307 21.891 20.5307 21.9404 20.6253 22.0697C22.3147 24.3644 24.0093 26.655 25.7027 28.9484C25.7533 29.0164 25.8067 29.0844 25.8787 29.1804C25.9853 29.0377 26.0853 28.9097 26.1813 28.7804C27.8013 26.5524 29.4227 24.3257 31.0387 22.095C31.1413 21.9524 31.2427 21.8884 31.424 21.891C32.032 21.903 32.64 21.895 33.2653 21.895V32.7884H31.2V26.123C31.1813 26.1164 31.164 26.1084 31.1467 26.1004C29.4387 28.3124 27.728 30.5257 25.9987 32.7644Z" fill="#231F20"/>
<path fill-rule="evenodd" clip-rule="evenodd" d="M393.422 10.5567V23.1567H384.987V10.5567H383.102V23.1567H374.671V10.5567H372.783V24.8447H395.309V10.5567H393.422ZM350.598 19.2287L355.006 12.1821L359.41 19.2287H350.598ZM362.922 24.8447H364.946L356.014 10.5567H353.994L345.061 24.8447H347.083L349.566 20.8767H360.443L362.922 24.8447ZM337.226 10.5567H334.845L327.581 23.1567H326.39L319.126 10.5567H316.743V24.8447H318.633V13.3141L325.281 24.8447H328.693L335.338 13.3141V24.8447H337.226V10.5567ZM293.301 17.6207C293.301 15.4767 295.521 13.5141 299.033 13.1954V22.0461C295.521 21.7274 293.301 19.7634 293.301 17.6207V17.6207ZM300.922 22.0461V13.1954C304.511 13.4727 306.794 15.4581 306.794 17.6207C306.794 19.7807 304.511 21.7674 300.922 22.0461ZM308.677 17.6207C308.677 14.5447 305.581 11.8061 300.922 11.4887V10.5567H299.033V11.5087C294.45 11.8647 291.413 14.5621 291.413 17.6207C291.413 20.6754 294.45 23.3727 299.033 23.7314V24.8447H300.922V23.7514C305.581 23.4354 308.677 20.6954 308.677 17.6207ZM271.533 19.2287L275.935 12.1821L280.341 19.2287H271.533ZM283.851 24.8447H285.878L276.946 10.5567H274.922L265.993 24.8447H268.015L270.498 20.8767H281.374L283.851 24.8447ZM256.183 17.0461H249.774V12.2434H256.183C258.467 12.2434 259.698 13.1954 259.698 14.6434C259.698 16.0927 258.467 17.0461 256.183 17.0461ZM256.183 10.5567H247.891V24.8447H249.774V18.7314H256.183C259.399 18.7314 261.542 17.1061 261.542 14.6434C261.542 12.1821 259.399 10.5567 256.183 10.5567V10.5567ZM239.889 10.5567H226.494V24.8447H228.381V12.2434H239.889V10.5567ZM217.251 10.5567H214.571L202.959 23.1154V10.5567H201.074V24.8447H203.754L215.366 12.2807V24.8447H217.251V10.5567ZM191.842 10.5567H184.795L175.866 24.8447H178.009L185.826 12.3434H189.958V24.8447H191.842V10.5567ZM160.69 11.9447C156.287 11.9447 153.17 14.3247 153.17 17.6981C153.17 21.0727 156.287 23.4501 160.69 23.4501C165.098 23.4501 168.213 21.0727 168.213 17.6981C168.213 14.3247 165.098 11.9447 160.69 11.9447ZM160.69 10.2541C166.21 10.2541 170.097 13.3341 170.097 17.6981C170.097 22.0647 166.21 25.1407 160.69 25.1407C155.175 25.1407 151.285 22.0647 151.285 17.6981C151.285 13.3341 155.175 10.2541 160.69 10.2541V10.2541ZM143.015 10.5567H126.346V24.8447H128.23V12.2434H141.13V24.8447H143.015V10.5567ZM115.215 10.5567V16.4501H102.514V10.5567H100.629V24.8447H102.514V18.1354H115.215V24.8447H117.099V10.5567H115.215ZM92.534 12.2434V10.5567H77.75V24.8447H92.534V23.1567H79.634V18.1354H90.746V16.4501H79.634V12.2434H92.534ZM68.5167 10.5567H61.4713L52.542 24.8447H54.6847L62.502 12.3434H66.6313V24.8447H68.5167V10.5567Z" fill="#1B1918"/>
<path d="M75.7964 31.7774H77.0777V39.2521H75.8044V35.8721C75.8044 34.6361 75.8377 33.6947 75.9057 33.0507H75.8591C75.3951 33.5907 74.7684 34.2681 73.9764 35.0841L69.8751 39.2521H68.5938V31.7774H69.8671V35.5534C69.8671 36.5121 69.8324 37.3201 69.7658 37.9787H69.8124C70.2604 37.4574 70.8871 36.7801 71.6951 35.9454L75.7964 31.7774Z" fill="#231F20"/>
<path d="M81.0072 35.0117H86.4832V31.7771H87.7566V39.2531H86.4832V35.8331H81.0072V39.2531H79.7339V31.7771H81.0072V35.0117Z" fill="#231F20"/>
<path d="M91.6869 35.0117H97.1629V31.7771H98.4362V39.2531H97.1629V35.8331H91.6869V39.2531H90.4136V31.7771H91.6869V35.0117Z" fill="#231F20"/>
<path d="M109.171 35.5208C109.171 35.0168 109.079 34.5742 108.895 34.1902C108.71 33.8075 108.457 33.4875 108.134 33.2288C107.81 32.9728 107.427 32.7768 106.987 32.6462C106.547 32.5128 106.075 32.4462 105.57 32.4462C105.065 32.4462 104.591 32.5128 104.151 32.6462C103.713 32.7768 103.33 32.9728 103.007 33.2288C102.683 33.4875 102.429 33.8075 102.245 34.1902C102.061 34.5742 101.969 35.0168 101.969 35.5208C101.969 36.0235 102.062 36.4662 102.25 36.8475C102.435 37.2288 102.691 37.5488 103.015 37.8062C103.339 38.0622 103.721 38.2568 104.159 38.3862C104.599 38.5168 105.075 38.5822 105.586 38.5822C106.091 38.5822 106.561 38.5168 106.995 38.3862C107.43 38.2568 107.81 38.0622 108.134 37.8062C108.457 37.5488 108.71 37.2288 108.895 36.8475C109.079 36.4662 109.171 36.0235 109.171 35.5208ZM110.437 35.5208C110.437 36.0875 110.323 36.6062 110.095 37.0795C109.869 37.5515 109.543 37.9608 109.119 38.3035C108.697 38.6462 108.186 38.9128 107.589 39.1048C106.991 39.2968 106.325 39.3928 105.586 39.3928C104.821 39.3928 104.137 39.2968 103.533 39.1048C102.927 38.9128 102.417 38.6462 101.997 38.3035C101.579 37.9608 101.258 37.5515 101.035 37.0795C100.814 36.6062 100.702 36.0875 100.702 35.5208C100.702 34.9502 100.817 34.4288 101.047 33.9528C101.278 33.4782 101.603 33.0688 102.025 32.7262C102.446 32.3835 102.955 32.1168 103.555 31.9248C104.154 31.7328 104.826 31.6368 105.57 31.6368C106.33 31.6368 107.01 31.7328 107.613 31.9248C108.214 32.1168 108.725 32.3835 109.143 32.7262C109.562 33.0688 109.882 33.4782 110.103 33.9528C110.326 34.4288 110.437 34.9502 110.437 35.5208Z" fill="#231F20"/>
<path d="M114.054 35.8334V38.4321H115.593C115.958 38.4321 116.297 38.4187 116.609 38.3961C116.921 38.3707 117.187 38.3334 117.406 38.2814C117.645 38.2254 117.849 38.1534 118.015 38.0654C118.182 37.9774 118.315 37.8814 118.417 37.7747C118.519 37.6694 118.591 37.5561 118.637 37.4374C118.681 37.3174 118.702 37.1961 118.702 37.0747C118.702 36.9321 118.679 36.8001 118.633 36.6747C118.585 36.5494 118.509 36.4374 118.402 36.3387C118.295 36.2414 118.154 36.1534 117.979 36.0801C117.805 36.0054 117.587 35.9467 117.327 35.9067C117.171 35.8801 116.993 35.8614 116.793 35.8507C116.591 35.8387 116.343 35.8334 116.046 35.8334H114.054ZM115.991 35.0121C116.242 35.0121 116.458 35.0041 116.639 34.9867C116.822 34.9707 116.986 34.9454 117.133 34.9121C117.523 34.8174 117.807 34.6734 117.987 34.4747C118.167 34.2787 118.257 34.0454 118.257 33.7774C118.257 33.5014 118.163 33.2761 117.975 33.1014C117.789 32.9254 117.494 32.7961 117.093 32.7094C116.895 32.6694 116.666 32.6401 116.406 32.6241C116.145 32.6067 115.838 32.5974 115.483 32.5974H114.054V35.0121H115.991ZM117.859 35.3867C118.182 35.4187 118.471 35.4814 118.73 35.5707C118.987 35.6601 119.209 35.7747 119.394 35.9147C119.579 36.0547 119.721 36.2201 119.819 36.4121C119.918 36.6041 119.969 36.8227 119.969 37.0681C119.969 37.2441 119.931 37.4267 119.859 37.6187C119.789 37.8094 119.669 37.9961 119.501 38.1774C119.333 38.3587 119.114 38.5254 118.845 38.6774C118.574 38.8307 118.238 38.9547 117.835 39.0521C117.526 39.1267 117.183 39.1787 116.807 39.2081C116.431 39.2387 115.981 39.2521 115.455 39.2521H112.781V31.7774H115.359C115.597 31.7774 115.811 31.7801 116.005 31.7854C116.198 31.7907 116.375 31.8001 116.538 31.8094C116.699 31.8214 116.851 31.8361 116.99 31.8521C117.13 31.8681 117.259 31.8881 117.383 31.9107C117.707 31.9734 118.003 32.0614 118.267 32.1707C118.533 32.2801 118.758 32.4121 118.943 32.5654C119.13 32.7174 119.271 32.8907 119.373 33.0841C119.473 33.2774 119.523 33.4881 119.523 33.7161C119.523 33.8987 119.493 34.0734 119.433 34.2414C119.373 34.4094 119.277 34.5627 119.143 34.7041C119.011 34.8467 118.839 34.9721 118.629 35.0841C118.417 35.1961 118.161 35.2894 117.859 35.3641V35.3867Z" fill="#231F20"/>
<path d="M126.015 32.9389C125.548 33.8695 125.103 34.7149 124.679 35.4749L124.288 36.1802H127.754L127.358 35.4762C126.928 34.7015 126.491 33.8562 126.046 32.9389H126.015ZM121.218 39.2522L125.476 31.7775H126.578L130.835 39.2522H129.452L128.206 37.0015H123.834L122.586 39.2522H121.218Z" fill="#231F20"/>
<path d="M140.101 39.2526H132.437V31.778H133.71V38.4326H138.828V31.778H140.101V38.4326H141.374V41.7273H140.101V39.2526Z" fill="#231F20"/>
<path d="M151 31.7774H152.281V39.2521H151.008V35.8721C151.008 34.6361 151.041 33.6947 151.109 33.0507H151.062C150.598 33.5907 149.972 34.2681 149.18 35.0841L145.078 39.2521H143.797V31.7774H145.07V35.5534C145.07 36.5121 145.036 37.3201 144.969 37.9787H145.016C145.464 37.4574 146.09 36.7801 146.898 35.9454L151 31.7774Z" fill="#231F20"/>
<path d="M163.015 35.5208C163.015 35.0168 162.923 34.5742 162.739 34.1902C162.554 33.8075 162.3 33.4875 161.978 33.2288C161.654 32.9728 161.271 32.7768 160.831 32.6462C160.391 32.5128 159.919 32.4462 159.414 32.4462C158.908 32.4462 158.435 32.5128 157.995 32.6462C157.556 32.7768 157.174 32.9728 156.851 33.2288C156.527 33.4875 156.272 33.8075 156.088 34.1902C155.904 34.5742 155.812 35.0168 155.812 35.5208C155.812 36.0235 155.906 36.4662 156.094 36.8475C156.279 37.2288 156.535 37.5488 156.859 37.8062C157.183 38.0622 157.564 38.2568 158.003 38.3862C158.443 38.5168 158.919 38.5822 159.43 38.5822C159.935 38.5822 160.404 38.5168 160.839 38.3862C161.274 38.2568 161.654 38.0622 161.978 37.8062C162.3 37.5488 162.554 37.2288 162.739 36.8475C162.923 36.4662 163.015 36.0235 163.015 35.5208ZM164.28 35.5208C164.28 36.0875 164.167 36.6062 163.939 37.0795C163.712 37.5515 163.387 37.9608 162.963 38.3035C162.54 38.6462 162.03 38.9128 161.432 39.1048C160.835 39.2968 160.168 39.3928 159.43 39.3928C158.664 39.3928 157.98 39.2968 157.376 39.1048C156.771 38.9128 156.26 38.6462 155.84 38.3035C155.423 37.9608 155.102 37.5515 154.879 37.0795C154.658 36.6062 154.546 36.0875 154.546 35.5208C154.546 34.9502 154.66 34.4288 154.891 33.9528C155.122 33.4782 155.447 33.0688 155.868 32.7262C156.29 32.3835 156.799 32.1168 157.399 31.9248C157.998 31.7328 158.67 31.6368 159.414 31.6368C160.174 31.6368 160.854 31.7328 161.456 31.9248C162.058 32.1168 162.568 32.3835 162.987 32.7262C163.406 33.0688 163.726 33.4782 163.947 33.9528C164.17 34.4288 164.28 34.9502 164.28 35.5208Z" fill="#231F20"/>
<path d="M167.898 35.0117H173.374V31.7771H174.647V39.2531H173.374V35.8331H167.898V39.2531H166.625V31.7771H167.898V35.0117Z" fill="#231F20"/>
<path d="M178.578 35.0117H184.054V31.7771H185.327V39.2531H184.054V35.8331H178.578V39.2531H177.304V31.7771H178.578V35.0117Z" fill="#231F20"/>
<path d="M196.062 35.5208C196.062 35.0168 195.97 34.5742 195.786 34.1902C195.601 33.8075 195.347 33.4875 195.025 33.2288C194.701 32.9728 194.318 32.7768 193.878 32.6462C193.438 32.5128 192.966 32.4462 192.461 32.4462C191.955 32.4462 191.482 32.5128 191.042 32.6462C190.603 32.7768 190.221 32.9728 189.898 33.2288C189.574 33.4875 189.319 33.8075 189.135 34.1902C188.951 34.5742 188.859 35.0168 188.859 35.5208C188.859 36.0235 188.953 36.4662 189.141 36.8475C189.326 37.2288 189.582 37.5488 189.906 37.8062C190.23 38.0622 190.611 38.2568 191.05 38.3862C191.49 38.5168 191.966 38.5822 192.477 38.5822C192.982 38.5822 193.451 38.5168 193.886 38.3862C194.321 38.2568 194.701 38.0622 195.025 37.8062C195.347 37.5488 195.601 37.2288 195.786 36.8475C195.97 36.4662 196.062 36.0235 196.062 35.5208ZM197.327 35.5208C197.327 36.0875 197.214 36.6062 196.986 37.0795C196.759 37.5515 196.434 37.9608 196.01 38.3035C195.587 38.6462 195.077 38.9128 194.479 39.1048C193.882 39.2968 193.215 39.3928 192.477 39.3928C191.711 39.3928 191.027 39.2968 190.423 39.1048C189.818 38.9128 189.307 38.6462 188.887 38.3035C188.47 37.9608 188.149 37.5515 187.926 37.0795C187.705 36.6062 187.593 36.0875 187.593 35.5208C187.593 34.9502 187.707 34.4288 187.938 33.9528C188.169 33.4782 188.494 33.0688 188.915 32.7262C189.337 32.3835 189.846 32.1168 190.446 31.9248C191.045 31.7328 191.717 31.6368 192.461 31.6368C193.221 31.6368 193.901 31.7328 194.503 31.9248C195.105 32.1168 195.615 32.3835 196.034 32.7262C196.453 33.0688 196.773 33.4782 196.994 33.9528C197.217 34.4288 197.327 34.9502 197.327 35.5208Z" fill="#231F20"/>
<path d="M199.28 36.0627H202.725V36.8721H199.28V36.0627Z" fill="#231F20"/>
<path d="M212.898 31.7774V39.2521H211.625V32.6481H206.265V39.2521H204.992V31.7774H212.898Z" fill="#231F20"/>
<path d="M216.851 35.3476C217.023 35.3623 217.203 35.3743 217.39 35.3796C217.578 35.3876 217.755 35.3916 217.922 35.3916C218.521 35.3916 219.031 35.3583 219.453 35.2916C219.875 35.2236 220.218 35.1263 220.485 34.9969C220.75 34.8703 220.942 34.7129 221.062 34.5289C221.182 34.3436 221.242 34.1343 221.242 33.8996C221.242 33.6089 221.145 33.3716 220.949 33.1849C220.754 32.9983 220.477 32.8569 220.117 32.7609C219.893 32.7009 219.635 32.6583 219.343 32.6343C219.051 32.6103 218.713 32.5969 218.327 32.5969H216.851V35.3476ZM216.851 39.2529H215.578V31.7769H218.474C218.905 31.7769 219.305 31.7956 219.671 31.8316C220.038 31.8703 220.375 31.9276 220.682 32.0049C221.306 32.1649 221.779 32.4049 222.102 32.7236C222.425 33.0423 222.586 33.4343 222.586 33.8996C222.586 34.2796 222.481 34.6143 222.27 34.9036C222.059 35.1916 221.754 35.4316 221.353 35.6263C220.953 35.8196 220.465 35.9663 219.89 36.0649C219.317 36.1636 218.663 36.2129 217.935 36.2129C217.587 36.2129 217.226 36.2023 216.851 36.1796V39.2529Z" fill="#231F20"/>
<path d="M232.781 35.5208C232.781 35.0168 232.689 34.5742 232.505 34.1902C232.32 33.8075 232.067 33.4875 231.744 33.2288C231.42 32.9728 231.037 32.7768 230.597 32.6462C230.157 32.5128 229.685 32.4462 229.18 32.4462C228.675 32.4462 228.201 32.5128 227.761 32.6462C227.323 32.7768 226.94 32.9728 226.617 33.2288C226.293 33.4875 226.039 33.8075 225.855 34.1902C225.671 34.5742 225.579 35.0168 225.579 35.5208C225.579 36.0235 225.672 36.4662 225.86 36.8475C226.045 37.2288 226.301 37.5488 226.625 37.8062C226.949 38.0622 227.331 38.2568 227.769 38.3862C228.209 38.5168 228.685 38.5822 229.196 38.5822C229.701 38.5822 230.171 38.5168 230.605 38.3862C231.04 38.2568 231.42 38.0622 231.744 37.8062C232.067 37.5488 232.32 37.2288 232.505 36.8475C232.689 36.4662 232.781 36.0235 232.781 35.5208ZM234.047 35.5208C234.047 36.0875 233.933 36.6062 233.705 37.0795C233.479 37.5515 233.153 37.9608 232.729 38.3035C232.307 38.6462 231.796 38.9128 231.199 39.1048C230.601 39.2968 229.935 39.3928 229.196 39.3928C228.431 39.3928 227.747 39.2968 227.143 39.1048C226.537 38.9128 226.027 38.6462 225.607 38.3035C225.189 37.9608 224.868 37.5515 224.645 37.0795C224.424 36.6062 224.312 36.0875 224.312 35.5208C224.312 34.9502 224.427 34.4288 224.657 33.9528C224.888 33.4782 225.213 33.0688 225.635 32.7262C226.056 32.3835 226.565 32.1168 227.165 31.9248C227.764 31.7328 228.436 31.6368 229.18 31.6368C229.94 31.6368 230.62 31.7328 231.223 31.9248C231.824 32.1168 232.335 32.3835 232.753 32.7262C233.172 33.0688 233.492 33.4782 233.713 33.9528C233.936 34.4288 234.047 34.9502 234.047 35.5208Z" fill="#231F20"/>
<path d="M241.93 39.2526H241.344L238.711 34.7886C238.346 34.1726 237.982 33.5046 237.618 32.7819H237.555C237.627 33.8219 237.664 34.7739 237.664 35.6379V39.2526H236.391V31.7779H238.227L240.687 36.0059C240.968 36.4912 241.279 37.0739 241.618 37.7552H241.656C242.031 36.9992 242.342 36.4166 242.586 36.0059L245.047 31.7779H246.883V39.2526H245.61V35.6379C245.61 34.7912 245.646 33.8392 245.719 32.7819H245.656C245.271 33.5459 244.906 34.2152 244.563 34.7886L241.93 39.2526Z" fill="#231F20"/>
<path d="M258.101 31.7774H259.375V39.2521H258.101V31.7774ZM250.812 38.4321H252.101C252.591 38.4321 253.023 38.4094 253.395 38.3614C253.767 38.3147 254.079 38.2507 254.328 38.1721C254.579 38.0907 254.777 38.0001 254.925 37.8987C255.075 37.7961 255.188 37.6881 255.265 37.5747C255.344 37.4614 255.396 37.3481 255.421 37.2361C255.448 37.1241 255.461 37.0187 255.461 36.9174C255.461 36.7721 255.432 36.6307 255.375 36.4921C255.317 36.3561 255.224 36.2307 255.093 36.1214C254.964 36.0121 254.796 35.9161 254.589 35.8334C254.384 35.7507 254.136 35.6867 253.844 35.6387C253.62 35.5961 253.368 35.5694 253.089 35.5534C252.811 35.5387 252.508 35.5307 252.18 35.5307C252.065 35.5307 251.944 35.5334 251.816 35.5374C251.689 35.5401 251.561 35.5454 251.433 35.5507C251.305 35.5574 251.099 35.5694 250.812 35.5867V38.4321ZM249.539 31.7774H250.812V34.7654C251.083 34.7507 251.275 34.7427 251.387 34.7387C251.499 34.7347 251.629 34.7307 251.777 34.7267C251.925 34.7227 252.06 34.7214 252.18 34.7214C252.544 34.7214 252.887 34.7294 253.207 34.7467C253.528 34.7627 253.825 34.7921 254.101 34.8334C254.576 34.9041 254.983 35.0014 255.324 35.1267C255.665 35.2507 255.945 35.4027 256.164 35.5801C256.383 35.7561 256.544 35.9561 256.648 36.1774C256.752 36.3987 256.805 36.6387 256.805 36.9014C256.805 37.0934 256.769 37.2947 256.699 37.4987C256.629 37.7027 256.504 37.9054 256.324 38.1041C256.144 38.3054 255.9 38.4841 255.589 38.6467C255.28 38.8081 254.893 38.9414 254.429 39.0467C254.123 39.1134 253.771 39.1641 253.375 39.2001C252.979 39.2361 252.487 39.2521 251.899 39.2521H249.539V31.7774Z" fill="#231F20"/>
<path d="M274.024 39.2526H262.032V31.7779H263.305V38.4326H267.39V31.7779H268.664V38.4326H272.75V31.7779H274.024V39.2526Z" fill="#231F20"/>
<path d="M280.813 32.5976C280.585 33.5816 280.349 34.4323 280.103 35.1483C279.857 35.8656 279.615 36.4736 279.379 36.9723C279.142 37.4723 278.901 37.8763 278.657 38.1856C278.411 38.495 278.153 38.735 277.879 38.903C277.606 39.0723 277.318 39.187 277.015 39.247C276.714 39.307 276.394 39.3376 276.055 39.3376C275.966 39.3376 275.881 39.335 275.797 39.3283C275.714 39.323 275.643 39.315 275.586 39.303V38.415C275.695 38.4256 275.802 38.4323 275.906 38.4323C276.042 38.4323 276.179 38.4243 276.321 38.4083C276.461 38.395 276.606 38.3563 276.754 38.2976C276.902 38.2376 277.055 38.147 277.211 38.0256C277.367 37.9043 277.523 37.7376 277.679 37.523C277.837 37.3096 277.994 37.0403 278.153 36.7163C278.311 36.3923 278.469 35.999 278.625 35.5376C278.782 35.075 278.937 34.5336 279.09 33.9136C279.243 33.2936 279.394 32.5803 279.539 31.7776H284.523V39.2523H283.25V32.5976H280.813Z" fill="#231F20"/>
<path d="M288.453 38.4323H293.813V39.2523H287.18V31.7777H293.524V32.5977H288.453V35.0123H292.961V35.8337H288.453V38.4323Z" fill="#231F20"/>
<path d="M297.273 35.0117H302.749V31.7771H304.023V39.2531H302.749V35.8331H297.273V39.2531H296V31.7771H297.273V35.0117Z" fill="#231F20"/>
<path d="M307.953 35.0117H313.429V31.7771H314.702V39.2531H313.429V35.8331H307.953V39.2531H306.68V31.7771H307.953V35.0117Z" fill="#231F20"/>
<path d="M325.921 31.7774H327.195V39.2521H325.921V31.7774ZM318.633 38.4321H319.921C320.412 38.4321 320.843 38.4094 321.215 38.3614C321.587 38.3147 321.899 38.2507 322.148 38.1721C322.399 38.0907 322.597 38.0001 322.747 37.8987C322.895 37.7961 323.008 37.6881 323.085 37.5747C323.164 37.4614 323.216 37.3481 323.243 37.2361C323.268 37.1241 323.281 37.0187 323.281 36.9174C323.281 36.7721 323.252 36.6307 323.195 36.4921C323.139 36.3561 323.044 36.2307 322.915 36.1214C322.784 36.0121 322.616 35.9161 322.411 35.8334C322.204 35.7507 321.956 35.6867 321.664 35.6387C321.44 35.5961 321.189 35.5694 320.911 35.5534C320.632 35.5387 320.328 35.5307 320 35.5307C319.885 35.5307 319.764 35.5334 319.637 35.5374C319.509 35.5401 319.381 35.5454 319.253 35.5507C319.127 35.5574 318.919 35.5694 318.633 35.5867V38.4321ZM317.36 31.7774H318.633V34.7654C318.904 34.7507 319.095 34.7427 319.207 34.7387C319.319 34.7347 319.449 34.7307 319.597 34.7267C319.747 34.7227 319.88 34.7214 320 34.7214C320.364 34.7214 320.707 34.7294 321.028 34.7467C321.348 34.7627 321.645 34.7921 321.921 34.8334C322.396 34.9041 322.804 35.0014 323.144 35.1267C323.485 35.2507 323.765 35.4027 323.984 35.5801C324.203 35.7561 324.364 35.9561 324.469 36.1774C324.573 36.3987 324.625 36.6387 324.625 36.9014C324.625 37.0934 324.589 37.2947 324.52 37.4987C324.449 37.7027 324.324 37.9054 324.144 38.1041C323.965 38.3054 323.72 38.4841 323.411 38.6467C323.1 38.8081 322.713 38.9414 322.249 39.0467C321.943 39.1134 321.591 39.1641 321.195 39.2001C320.8 39.2361 320.307 39.2521 319.719 39.2521H317.36V31.7774Z" fill="#231F20"/>
<path d="M337.055 31.7774H338.336V39.2521H337.063V35.8721C337.063 34.6361 337.096 33.6947 337.164 33.0507H337.117C336.653 33.5907 336.027 34.2681 335.235 35.0841L331.133 39.2521H329.852V31.7774H331.125V35.5534C331.125 36.5121 331.091 37.3201 331.024 37.9787H331.071C331.519 37.4574 332.145 36.7801 332.953 35.9454L337.055 31.7774Z" fill="#231F20"/>
<path d="M352.101 31.7774V39.2521H350.828V32.6481H345.468V39.2521H344.195V31.7774H352.101Z" fill="#231F20"/>
<path d="M358.523 32.9389C358.057 33.8695 357.611 34.7149 357.187 35.4749L356.797 36.1802H360.262L359.865 35.4762C359.437 34.7015 358.998 33.8562 358.554 32.9389H358.523ZM353.726 39.2522L357.985 31.7775H359.086L363.343 39.2522H361.961L360.713 37.0015H356.342L355.094 39.2522H353.726Z" fill="#231F20"/>
<path d="M366.219 35.3476C366.391 35.3623 366.571 35.3743 366.757 35.3796C366.945 35.3876 367.123 35.3916 367.289 35.3916C367.888 35.3916 368.399 35.3583 368.82 35.2916C369.243 35.2236 369.585 35.1263 369.852 34.9969C370.117 34.8703 370.309 34.7129 370.429 34.5289C370.549 34.3436 370.609 34.1343 370.609 33.8996C370.609 33.6089 370.512 33.3716 370.316 33.1849C370.121 32.9983 369.844 32.8569 369.484 32.7609C369.26 32.7009 369.003 32.6583 368.711 32.6343C368.419 32.6103 368.08 32.5969 367.695 32.5969H366.219V35.3476ZM366.219 39.2529H364.945V31.7769H367.841C368.272 31.7769 368.672 31.7956 369.039 31.8316C369.405 31.8703 369.743 31.9276 370.049 32.0049C370.673 32.1649 371.147 32.4049 371.469 32.7236C371.792 33.0423 371.953 33.4343 371.953 33.8996C371.953 34.2796 371.848 34.6143 371.636 34.9036C371.425 35.1916 371.121 35.4316 370.72 35.6263C370.32 35.8196 369.832 35.9663 369.257 36.0649C368.683 36.1636 368.031 36.2129 367.303 36.2129C366.955 36.2129 366.593 36.2023 366.219 36.1796V39.2529Z" fill="#231F20"/>
<path d="M374.07 39.2526V31.7779H375.344V35.4699H375.36L380.164 31.7779H381.437L376.562 35.4992L381.726 39.2526H380.453L375.36 35.5926H375.344V39.2526H374.07Z" fill="#231F20"/>
<path d="M332.435 29.9062H336.04" stroke="#231F20" stroke-width="0.666667" stroke-miterlimit="10"/>
</g>
<defs>
<clipPath id="clip0_149_363">
<rect width="400" height="48.6933" fill="white"/>
</clipPath>
</defs>
</svg>
