<?xml version="1.0" standalone="no"?>
<!DOCTYPE svg PUBLIC "-//W3C//DTD SVG 20010904//EN"
 "http://www.w3.org/TR/2001/REC-SVG-20010904/DTD/svg10.dtd">
<svg version="1.0" xmlns="http://www.w3.org/2000/svg"
 width="765.000000pt" height="158.000000pt" viewBox="0 0 765.000000 158.000000"
 preserveAspectRatio="xMidYMid meet">

<g transform="translate(0.000000,158.000000) scale(0.100000,-0.100000)"
fill="#000000" stroke="none">
<path d="M785 1379 c-407 -109 -747 -202 -755 -207 -8 -5 -16 -20 -18 -33 -2
-20 43 -69 243 -269 l245 -245 122 122 123 123 -60 60 c-32 33 -57 61 -54 64
8 7 532 177 539 174 7 -3 -156 -536 -166 -547 -3 -3 -33 23 -67 57 l-62 62
-123 -123 -122 -122 248 -248 c136 -136 254 -247 263 -247 9 0 22 6 28 14 14
17 411 1485 411 1519 0 27 -18 47 -39 46 -9 -1 -349 -90 -756 -200z"/>
<path d="M7265 1543 c15 -65 95 -102 178 -84 46 11 97 58 97 91 0 17 -7 20
-45 20 -33 0 -45 -4 -45 -15 0 -38 -83 -41 -95 -4 -5 15 -16 19 -52 19 -44 0
-45 -1 -38 -27z"/>
<path d="M3291 1404 c-38 -19 -62 -40 -82 -72 -83 -131 -53 -349 59 -427 35
-24 55 -30 112 -33 38 -2 84 1 105 8 48 16 101 63 127 114 27 52 37 195 18
262 -41 147 -201 217 -339 148z m167 -97 c33 -27 46 -72 46 -157 0 -94 -12
-131 -56 -163 -23 -17 -34 -19 -64 -11 -59 15 -78 50 -82 152 -4 113 11 161
58 185 35 18 72 16 98 -6z"/>
<path d="M4423 1406 c-97 -46 -140 -142 -131 -292 5 -91 28 -145 82 -191 47
-42 95 -56 176 -51 88 5 141 39 185 118 28 51 30 63 30 156 0 92 -2 105 -30
159 -41 81 -100 118 -194 123 -54 2 -76 -2 -118 -22z m141 -90 c47 -20 66 -66
66 -165 0 -120 -34 -181 -100 -181 -68 0 -104 63 -104 181 0 94 19 143 65 166
30 16 33 16 73 -1z"/>
<path d="M5635 1418 c-49 -18 -83 -47 -112 -96 -24 -41 -28 -59 -31 -150 -5
-121 7 -174 51 -227 42 -51 97 -75 178 -75 118 0 218 74 219 163 0 27 -1 27
-65 27 -56 0 -65 -3 -65 -18 0 -52 -72 -86 -129 -62 -43 17 -56 59 -56 175 0
80 4 107 18 128 25 39 63 51 109 37 39 -11 58 -34 58 -69 0 -19 6 -21 69 -21
l69 0 -9 41 c-6 23 -14 49 -19 59 -17 31 -79 79 -117 89 -48 14 -129 13 -168
-1z"/>
<path d="M6713 1405 c-126 -64 -172 -264 -96 -415 41 -79 94 -113 183 -118 81
-5 129 9 176 51 57 49 77 99 82 202 5 107 -7 159 -51 216 -43 57 -96 83 -177
87 -54 3 -73 -1 -117 -23z m165 -98 c33 -26 46 -73 47 -157 0 -94 -13 -130
-57 -163 -23 -17 -34 -19 -64 -11 -64 16 -79 49 -79 168 0 116 12 151 60 172
31 14 70 10 93 -9z"/>
<path d="M2700 1145 l0 -275 65 0 65 0 0 225 0 225 120 0 120 0 0 50 0 50
-185 0 -185 0 0 -275z"/>
<path d="M3760 1145 l0 -275 65 0 65 0 0 94 0 93 83 5 c97 5 150 27 184 77 61
90 31 206 -66 258 -40 21 -57 23 -188 23 l-143 0 0 -275z m264 154 c20 -16 26
-29 26 -58 0 -53 -26 -74 -100 -79 l-60 -4 0 81 0 81 54 0 c39 0 60 -6 80 -21z"/>
<path d="M4976 1388 c-3 -18 -9 -89 -15 -158 -6 -69 -15 -141 -21 -161 -14
-48 -46 -89 -71 -89 -18 0 -19 -8 -19 -104 0 -57 3 -111 6 -120 5 -12 21 -16
65 -16 l59 0 0 65 0 65 150 0 150 0 0 -65 0 -65 60 0 60 0 0 59 c0 32 3 86 6
120 l7 61 -32 0 -31 0 0 220 0 220 -185 0 -184 0 -5 -32z m244 -238 l0 -170
-89 0 -89 0 20 53 c11 29 25 103 31 170 l11 117 58 0 58 0 0 -170z"/>
<path d="M6050 1145 l0 -275 65 0 65 0 0 110 0 110 33 0 c33 0 36 -4 93 -110
l59 -110 77 0 c43 0 78 2 78 3 0 2 -38 70 -85 151 l-84 146 70 118 c39 64 73
120 76 125 2 4 -32 7 -76 7 l-81 0 -53 -105 c-47 -96 -54 -106 -77 -103 -25 3
-25 4 -28 106 l-3 102 -64 0 -65 0 0 -275z"/>
<path d="M7170 1145 l0 -276 66 3 67 3 96 168 96 168 3 -170 2 -171 65 0 65 0
0 275 0 275 -67 0 -68 0 -95 -167 -95 -168 -3 168 -2 167 -65 0 -65 0 0 -275z"/>
<path d="M2994 635 c-91 -45 -124 -116 -124 -264 0 -75 5 -106 21 -141 42 -94
101 -130 210 -130 120 0 196 52 217 148 l10 42 -69 0 c-59 0 -69 -2 -69 -18 0
-77 -136 -96 -170 -24 -19 40 -24 162 -10 220 17 74 57 100 125 81 36 -10 55
-33 55 -68 0 -19 6 -21 70 -21 l70 0 -7 33 c-26 139 -192 211 -329 142z"/>
<path d="M6772 647 c-53 -20 -103 -66 -128 -121 -20 -43 -24 -67 -24 -152 0
-92 3 -107 28 -155 18 -36 43 -64 72 -84 42 -28 52 -30 135 -30 81 0 94 3 132
27 23 15 54 49 70 75 25 43 28 60 31 154 4 92 1 112 -18 158 -49 113 -181 170
-298 128z m153 -128 c41 -50 47 -197 11 -268 -33 -63 -123 -65 -159 -3 -22 37
-33 130 -23 196 16 105 110 146 171 75z"/>
<path d="M1912 623 c-5 -15 -45 -122 -87 -238 -42 -116 -83 -227 -91 -248
l-13 -38 72 3 72 3 16 50 16 50 89 0 89 0 16 -50 16 -50 71 -3 c40 -2 72 1 72
5 -1 4 -45 127 -99 273 l-98 265 -66 3 c-63 3 -65 2 -75 -25z m102 -217 c14
-46 26 -87 26 -90 0 -3 -25 -6 -56 -6 -49 0 -55 2 -49 18 3 9 16 50 28 90 11
39 22 72 23 72 1 0 13 -38 28 -84z"/>
<path d="M2340 375 l0 -275 65 0 65 0 0 111 0 110 31 -3 c28 -3 36 -13 88
-108 l56 -105 79 -3 c66 -2 78 -1 73 12 -3 8 -40 74 -82 146 -41 73 -75 135
-75 139 0 4 32 60 70 125 39 65 70 120 70 122 0 2 -35 4 -78 4 l-77 0 -53
-105 c-45 -92 -55 -105 -77 -105 l-25 0 0 105 0 105 -65 0 -65 0 0 -275z"/>
<path d="M3430 375 l0 -275 190 0 190 0 0 55 0 55 -120 0 -120 0 0 65 0 65
100 0 100 0 0 45 0 45 -100 0 -100 0 0 60 0 60 120 0 120 0 0 50 0 50 -190 0
-190 0 0 -275z"/>
<path d="M3986 488 c-9 -200 -25 -258 -73 -273 -32 -9 -33 -11 -33 -62 0 -51
1 -53 28 -53 91 1 151 42 177 120 12 37 28 186 35 323 0 4 27 7 60 7 l60 0 0
-225 0 -225 65 0 65 0 0 275 0 275 -189 0 -188 0 -7 -162z"/>
<path d="M4500 375 l0 -275 190 0 190 0 0 55 0 55 -125 0 -126 0 3 63 3 62
103 3 102 3 0 44 0 44 -102 3 -103 3 0 55 0 55 123 3 122 3 0 49 0 50 -190 0
-190 0 0 -275z"/>
<path d="M4980 375 l0 -275 65 0 65 0 0 95 0 95 68 0 c113 0 182 32 217 101
31 59 10 164 -42 211 -42 39 -88 48 -233 48 l-140 0 0 -275z m266 151 c21 -18
28 -32 28 -60 0 -53 -22 -69 -99 -74 l-65 -4 0 81 0 81 54 0 c43 0 61 -5 82
-24z"/>
<path d="M5587 387 c-53 -145 -97 -269 -97 -276 0 -7 24 -11 68 -11 l68 0 18
55 17 56 87 -3 87 -3 19 -52 19 -53 68 0 c38 0 69 3 69 8 0 4 -44 126 -98 272
l-98 265 -66 3 -65 3 -96 -264z m193 5 c12 -41 19 -76 17 -79 -3 -2 -27 -3
-55 -1 l-50 3 26 83 c14 45 29 79 33 75 4 -5 17 -41 29 -81z"/>
<path d="M6070 600 l0 -50 80 0 80 0 0 -225 0 -225 65 0 65 0 2 223 3 222 83
3 82 3 0 49 0 50 -230 0 -230 0 0 -50z"/>
<path d="M7210 375 l0 -275 65 0 65 0 0 95 0 95 68 0 c113 0 182 32 217 101
31 59 10 164 -42 211 -42 39 -88 48 -233 48 l-140 0 0 -275z m266 151 c21 -18
28 -32 28 -60 0 -53 -22 -69 -99 -74 l-65 -4 0 81 0 81 54 0 c43 0 61 -5 82
-24z"/>
</g>
</svg>
