<?xml version="1.0" standalone="no"?>
<svg version="1.0" xmlns="http://www.w3.org/2000/svg"
 width="990.000000pt" height="186.000000pt" viewBox="0 0 990.000000 186.000000"
 preserveAspectRatio="xMidYMid meet">

<g transform="translate(0.000000,186.000000) scale(0.100000,-0.100000)"
fill="#000000" stroke="none">
<path d="M3190 1405 l0 -305 64 0 c35 0 66 4 68 10 2 6 23 3 54 -7 91 -29 168
4 213 92 22 42 26 63 26 135 0 104 -28 171 -85 202 -44 24 -115 20 -158 -10
-16 -12 -33 -22 -36 -22 -3 0 -6 47 -6 105 l0 105 -70 0 -70 0 0 -305z m261
16 c22 -17 24 -27 24 -101 0 -78 -1 -83 -29 -106 -22 -20 -37 -24 -70 -22
l-41 3 -3 110 c-2 95 0 111 15 122 25 19 77 16 104 -6z"/>
<path d="M1230 1608 c-1055 -284 -1175 -317 -1187 -334 -9 -13 -9 -22 -1 -38
6 -11 116 -126 243 -255 l233 -235 125 120 126 119 -57 57 c-36 37 -53 61 -47
67 11 11 438 154 493 166 32 7 33 6 26 -22 -26 -108 -148 -494 -161 -512 -2
-3 -32 23 -66 57 l-62 62 -123 -123 -123 -123 250 -247 c138 -136 257 -247
265 -247 9 0 19 8 24 18 16 29 130 437 291 1042 135 508 136 511 78 509 -18
-1 -165 -37 -327 -81z"/>
<path d="M1916 1535 c-57 -20 -87 -45 -116 -96 -34 -59 -36 -174 -4 -234 46
-88 162 -130 296 -107 102 18 108 22 108 87 0 30 -2 55 -4 55 -2 0 -28 -11
-58 -25 -98 -46 -202 -26 -226 44 l-11 31 150 0 149 0 0 58 c0 62 -24 125 -58
155 -49 44 -152 59 -226 32z m133 -101 c12 -15 21 -35 21 -45 0 -17 -9 -19
-84 -19 l-83 0 5 25 c11 62 103 87 141 39z"/>
<path d="M2367 1539 c-46 -13 -103 -65 -112 -102 -18 -70 25 -138 99 -158 109
-30 121 -35 124 -53 5 -26 -15 -36 -73 -36 -32 0 -69 9 -102 25 l-53 24 0 -59
0 -59 43 -13 c69 -21 194 -16 245 11 74 38 102 114 66 182 -17 34 -73 63 -141
74 -57 9 -82 28 -67 52 15 24 125 24 172 -1 l32 -17 0 56 c0 51 -2 56 -27 66
-41 16 -162 20 -206 8z"/>
<path d="M2877 1526 c-58 -31 -57 -31 -57 -6 0 18 -7 20 -65 20 l-65 0 0 -300
0 -300 65 0 65 0 0 91 c0 83 2 90 18 84 82 -36 144 -30 199 18 54 47 76 106
76 199 -1 173 -109 262 -236 194z m63 -96 c38 -20 52 -121 26 -185 -18 -42
-45 -57 -99 -53 l-42 3 -3 111 c-3 107 -2 111 20 122 29 14 74 15 98 2z"/>
<path d="M4137 1526 c-58 -31 -57 -31 -57 -6 0 18 -7 20 -65 20 l-65 0 0 -300
0 -300 65 0 65 0 0 91 c0 83 2 90 18 84 84 -36 145 -30 202 21 56 51 73 104
68 212 -3 64 -9 98 -23 122 -46 78 -127 99 -208 56z m72 -105 c41 -41 38 -165
-5 -208 -20 -20 -33 -24 -72 -21 l-47 3 -3 113 c-3 109 -2 113 20 122 39 15
87 11 107 -9z"/>
<path d="M4906 1536 c-57 -22 -87 -47 -114 -97 -20 -38 -23 -55 -20 -130 3
-73 7 -91 31 -127 40 -61 95 -87 187 -87 92 0 147 26 187 87 26 38 28 50 28
138 0 88 -2 100 -28 138 -15 24 -45 51 -69 63 -54 28 -149 34 -202 15z m143
-112 c24 -30 36 -99 26 -150 -14 -76 -90 -110 -139 -61 -43 43 -46 159 -4 212
28 36 88 35 117 -1z"/>
<path d="M4450 1320 l0 -220 65 0 65 0 0 154 0 154 36 12 c20 7 56 10 80 7
l44 -5 0 59 c0 56 -1 59 -25 59 -27 0 -99 -33 -110 -50 -12 -20 -25 -10 -25
20 l0 30 -65 0 -65 0 0 -220z"/>
<path d="M3700 1175 l0 -75 70 0 70 0 0 75 0 75 -70 0 -70 0 0 -75z"/>
<path d="M6823 899 c-153 -14 -217 -66 -247 -199 -39 -168 5 -340 97 -383 81
-39 189 -30 255 19 87 67 108 233 40 319 -27 34 -92 65 -138 65 -19 0 -55 -9
-79 -20 -24 -11 -46 -18 -49 -15 -3 2 1 21 9 41 20 52 63 72 177 80 l92 7 0
48 0 49 -37 -1 c-21 -1 -75 -5 -120 -10z m22 -311 c24 -29 27 -38 23 -90 -5
-74 -35 -110 -87 -106 -52 5 -75 42 -79 133 -4 71 -3 75 19 84 13 5 40 10 61
10 29 1 42 -5 63 -31z"/>
<path d="M2383 736 c-119 -39 -175 -151 -143 -286 30 -127 179 -192 329 -143
l51 16 0 59 c0 32 -3 58 -6 58 -3 0 -20 -10 -36 -22 -40 -28 -115 -35 -155
-15 -40 21 -57 64 -51 134 4 48 10 61 37 85 40 36 91 37 155 3 26 -14 49 -25
52 -25 2 0 4 25 4 55 0 51 -2 56 -31 70 -42 22 -154 28 -206 11z"/>
<path d="M7643 739 l-53 -11 0 -53 0 -53 47 14 c87 26 163 14 163 -26 0 -27
-30 -40 -89 -40 l-51 0 0 -45 0 -45 59 0 c41 0 65 -5 75 -16 60 -60 -62 -97
-176 -54 -29 11 -54 20 -56 20 -2 0 -2 -24 0 -52 3 -52 4 -53 43 -67 44 -15
194 -21 237 -8 15 4 43 21 63 38 31 28 35 36 35 81 0 40 -5 53 -26 73 -15 14
-34 25 -42 25 -9 0 1 14 24 34 33 28 39 39 39 74 0 44 -21 74 -69 99 -36 19
-155 25 -223 12z"/>
<path d="M8656 735 c-57 -20 -87 -45 -116 -96 -34 -59 -36 -174 -4 -234 46
-88 162 -130 296 -107 102 18 108 22 108 87 0 30 -2 55 -4 55 -2 0 -28 -11
-58 -25 -98 -46 -202 -26 -226 44 l-11 31 150 0 149 0 0 58 c0 62 -24 125 -58
155 -49 44 -152 59 -226 32z m133 -101 c12 -15 21 -35 21 -45 0 -17 -9 -19
-84 -19 l-83 0 5 25 c11 62 103 87 141 39z"/>
<path d="M9155 741 c-110 -29 -165 -104 -165 -225 0 -77 8 -102 51 -150 58
-67 169 -92 272 -62 l57 17 0 59 c0 33 -2 60 -5 60 -3 0 -20 -10 -36 -22 -41
-31 -136 -32 -168 -4 -50 46 -50 158 1 209 26 27 34 29 82 25 33 -3 65 -13 83
-26 17 -12 34 -22 37 -22 3 0 6 27 6 59 0 58 -1 59 -32 71 -43 15 -145 21
-183 11z"/>
<path d="M9493 738 l-53 -10 0 -54 c0 -30 1 -54 3 -54 1 0 24 7 51 15 83 25
169 16 182 -20 9 -23 6 -24 -79 -35 -133 -17 -187 -60 -187 -152 0 -88 68
-145 158 -135 24 3 57 14 73 26 35 26 39 26 39 1 0 -18 7 -20 66 -20 l65 0 -3
186 -3 186 -31 28 c-52 46 -159 60 -281 38z m187 -272 c0 -35 -5 -48 -22 -60
-46 -32 -118 -12 -118 33 0 39 46 68 113 70 26 1 27 -1 27 -43z"/>
<path d="M1755 723 c4 -10 40 -107 81 -216 l74 -197 -30 -75 c-17 -42 -30 -80
-30 -85 0 -6 31 -10 69 -10 l68 0 93 253 c51 138 101 273 111 300 l19 47 -70
0 -69 0 -42 -135 c-23 -75 -46 -132 -50 -128 -3 5 -25 65 -49 136 l-42 127
-70 0 c-63 0 -69 -2 -63 -17z"/>
<path d="M2740 728 c0 -7 -5 -66 -10 -131 -10 -135 -28 -180 -73 -185 -26 -3
-27 -6 -27 -59 l0 -55 55 4 c109 9 155 78 163 239 l5 99 58 0 59 0 0 -170 0
-170 65 0 65 0 0 220 0 220 -180 0 c-137 0 -180 -3 -180 -12z"/>
<path d="M3160 731 c0 -4 35 -100 77 -212 l76 -204 -25 -70 c-14 -38 -29 -78
-33 -88 -7 -16 -1 -18 65 -15 l73 3 108 290 c60 160 108 293 109 298 0 4 -30
7 -67 7 l-68 0 -40 -131 c-21 -72 -42 -132 -45 -134 -4 -2 -26 57 -50 131
l-44 134 -68 0 c-37 0 -68 -4 -68 -9z"/>
<path d="M3670 520 l0 -220 65 0 65 0 0 170 0 170 105 0 105 0 0 50 0 50 -170
0 -170 0 0 -220z"/>
<path d="M4060 520 l0 -220 58 0 57 0 78 125 c43 68 82 127 88 130 5 4 9 -46
9 -124 l0 -131 65 0 65 0 0 220 0 220 -64 0 -64 0 -73 -115 c-41 -63 -77 -115
-81 -115 -5 0 -8 52 -8 115 l0 115 -65 0 -65 0 0 -220z"/>
<path d="M4862 642 c-15 -127 -47 -233 -73 -239 -17 -5 -19 -15 -19 -109 l0
-104 60 0 60 0 0 55 0 55 130 0 130 0 0 -55 0 -55 55 0 55 0 0 105 c0 98 -1
105 -20 105 -19 0 -20 7 -20 170 l0 170 -173 0 -173 0 -12 -98z m228 -122 l0
-120 -80 0 c-44 0 -80 2 -80 4 0 2 7 21 16 41 12 30 44 168 44 191 0 2 23 4
50 4 l50 0 0 -120z"/>
<path d="M5390 678 c-1 -163 -29 -259 -79 -266 -19 -3 -21 -10 -21 -59 l0 -56
51 5 c110 11 148 72 165 271 l6 67 54 0 54 0 0 -170 0 -170 65 0 65 0 0 220 0
220 -180 0 -180 0 0 -62z"/>
<path d="M5936 730 c-102 -31 -127 -155 -46 -230 l38 -35 -59 -79 c-32 -44
-59 -81 -59 -83 0 -2 33 -3 73 -3 l73 0 52 75 c41 59 57 75 77 75 24 0 25 -2
25 -75 l0 -75 65 0 65 0 0 220 0 220 -137 -1 c-76 0 -151 -5 -167 -9z m174
-135 l0 -55 -49 0 c-58 0 -81 18 -81 60 0 36 21 49 83 50 l47 0 0 -55z"/>
<path d="M7080 520 l0 -220 58 0 57 0 78 125 c43 68 82 127 88 130 5 4 9 -46
9 -124 l0 -131 65 0 65 0 0 220 0 220 -64 0 -64 0 -73 -115 c-41 -63 -77 -115
-81 -115 -5 0 -8 52 -8 115 l0 115 -65 0 -65 0 0 -220z"/>
<path d="M8020 520 l0 -220 70 0 70 0 0 95 0 95 70 0 70 0 0 -95 0 -95 65 0
65 0 0 220 0 220 -65 0 -65 0 0 -75 0 -75 -70 0 -70 0 0 75 0 75 -70 0 -70 0
0 -220z"/>
</g>
</svg>
