<svg width="74" height="69" viewBox="0 0 74 69" fill="none" xmlns="http://www.w3.org/2000/svg">
<path d="M42.2929 52.0302C42.2929 53.9155 42.2156 55.8009 42.3186 57.6604C42.4474 60.708 41.0823 62.8775 38.687 64.5563C35.1842 67.0098 31.192 68.0687 27.0452 68.5853C20.2456 69.4376 13.5232 69.1018 7.08418 66.39C5.69334 65.796 4.32827 64.9953 3.14348 64.0914C1.08299 62.5159 0.0269838 60.4239 0.0269838 57.6863C0.104252 47.7687 0.155764 37.8253 0.001227 27.9077C-0.0502854 24.1111 1.52084 21.5543 4.58583 19.7205C8.91286 17.1637 13.7035 16.1047 18.6229 16.0531C22.9242 16.0273 27.2513 16.4663 31.7328 16.6988C31.7328 15.4591 31.8874 13.832 31.7071 12.2307C31.3207 8.64073 32.8661 6.10968 35.6993 4.19848C39.0733 1.95153 42.8853 0.970105 46.826 0.453564C53.2392 -0.398728 59.601 -0.166285 65.6795 2.15815C67.9203 3.01044 70.0065 4.48258 71.9382 5.98055C73.4321 7.11694 73.973 8.95066 73.973 10.8877C73.9472 21.0635 73.8957 31.2394 73.9987 41.4152C74.0502 44.9019 72.5564 47.3038 69.8005 49.0859C66.5037 51.2295 62.769 52.2626 58.9314 52.7016C56.2012 53.0116 53.3938 53.1149 50.6379 53.0116C47.985 52.8308 45.2806 52.3659 42.2929 52.0302ZM21.2243 21.141C18.7775 21.4251 16.3049 21.5801 13.8838 22.0191C10.9991 22.5357 8.21745 23.3621 6.00242 25.5058C5.28124 26.2289 5.17822 26.9521 5.97666 27.4945C7.34174 28.4501 8.73257 29.509 10.2779 30.0255C17.3866 32.4274 24.5469 32.4016 31.6813 30.1805C32.9691 29.7672 34.2569 29.1474 35.3902 28.3984C37.4249 27.0554 37.4249 26.074 35.4417 24.731C34.566 24.1111 33.5615 23.5946 32.557 23.2072C28.9512 21.7867 25.1135 21.3218 21.2243 21.141ZM52.8787 16.0531C55.3255 15.769 57.7981 15.5624 60.2192 15.1491C62.8463 14.6843 65.4219 13.9094 67.5597 12.179C68.9247 11.0685 69.002 10.2162 67.6112 9.23476C66.3749 8.35664 65.0098 7.60765 63.5932 7.11694C57.7981 5.10243 51.8742 5.05078 45.8987 6.08386C43.0913 6.57457 40.3869 7.34938 38.1204 9.1831C36.7553 10.2678 36.8068 11.0685 38.1461 12.179C38.4037 12.3857 38.7128 12.5664 39.0218 12.7472C43.2716 15.3299 48.0107 15.8206 52.8787 16.0531ZM5.46154 44.6694C5.15246 48.466 5.64183 49.3183 9.01589 50.7905C9.42799 50.9712 9.84009 51.152 10.2522 51.2553C12.9051 51.8235 15.5322 52.5983 18.2108 52.8308C23.7742 53.3215 29.2602 52.805 34.3857 50.2481C36.9356 48.9826 37.5022 47.4071 36.6523 44.7728C26.2983 48.8793 15.9443 48.9051 5.46154 44.6694ZM36.8326 34.1062C26.2983 38.2902 15.8928 38.316 5.48729 34.0804C5.07519 37.5412 5.59032 38.5484 8.68106 39.9948C9.58253 40.408 10.484 40.8729 11.437 41.0537C14.2959 41.5702 17.1806 42.1384 20.0653 42.3192C24.6756 42.5775 29.2602 41.9834 33.5615 40.0981C36.6523 38.7292 37.2704 37.5412 36.8326 34.1062ZM36.8583 55.2844C26.3498 59.4683 15.9185 59.4942 5.51305 55.2585C5.04944 58.6677 5.33276 59.675 8.4235 60.9405C11.0249 62.0252 13.858 62.8258 16.6397 63.2133C22.4349 63.9622 28.2042 63.6007 33.6646 61.1987C36.7553 59.8557 37.2447 58.8743 36.8583 55.2844ZM37.3477 18.2742C37.1931 18.3517 37.0644 18.4292 36.9098 18.5067C37.3219 18.9974 37.7083 19.5139 38.1461 19.9788C39.3051 21.2443 40.4642 22.484 41.6747 23.6979C42.2671 24.2919 42.8853 25.0151 43.6322 25.2217C47.3668 26.3581 51.2045 26.668 55.0679 26.4097C58.8798 26.1515 62.6402 25.5833 66.0658 23.7495C68.6929 22.3291 69.1308 21.1927 68.4354 18.2226C58.0814 22.4065 47.7017 22.4065 37.3477 18.2742ZM68.5642 28.6567C60.0646 32.5307 51.359 32.5307 42.4216 30.697C42.4216 32.0917 42.4732 33.2797 42.3959 34.4678C42.3444 35.3459 42.7307 35.7333 43.5292 35.8624C46.0533 36.2498 48.5774 36.818 51.1272 36.9472C55.8921 37.2054 60.6055 36.8697 65.0613 34.881C68.4096 33.3572 68.8475 32.6082 68.5642 28.6567ZM42.4216 41.2603C42.4216 42.8099 42.3444 44.1012 42.4732 45.3668C42.4989 45.7542 43.0398 46.2965 43.4261 46.3999C45.4094 46.8389 47.3926 47.3296 49.4016 47.5104C54.9391 48.027 60.3737 47.5879 65.5249 45.2893C68.5126 43.9463 69.0793 42.7066 68.5126 39.3491C60.1161 43.0682 51.4621 43.2231 42.4216 41.2603Z" fill="#304FFE"/>
</svg>
