<svg width="78" height="77" viewBox="0 0 78 77" fill="none" xmlns="http://www.w3.org/2000/svg">
<path d="M0.941162 39.3051C0.941162 36.0496 0.941162 32.7655 0.941162 29.5099C0.969719 29.4528 0.998277 29.4243 1.02683 29.3671C1.28385 27.9107 2.51182 26.8541 3.96824 26.8255C6.62408 26.797 9.27991 26.797 11.9643 26.797C12.2213 26.797 12.3641 26.7113 12.4498 26.4828C12.7925 25.7404 13.1637 24.9693 13.5635 24.2554C14.1632 23.2273 14.82 22.2278 15.4483 21.1997C14.1347 18.9151 12.7925 16.602 11.4503 14.2888C10.4222 12.5469 10.8506 10.8048 12.5926 9.77678C17.6187 6.83537 22.6448 3.92252 27.6709 1.00967C29.2701 0.0958355 31.0977 0.58131 32.0116 2.18052C33.3252 4.408 34.6103 6.66403 35.9239 8.89151C36.0667 9.11996 36.2095 9.23419 36.4951 9.17708C36.8949 9.11996 37.3233 9.09141 37.7516 9.09141C39.208 9.11996 40.6359 9.11996 42.0923 9.17708C42.4065 9.17708 42.6064 9.11996 42.7777 8.80583C44.0342 6.5498 45.3193 4.32233 46.6044 2.09485C47.4611 0.581309 49.2317 0.038719 50.7738 0.838325C51.3735 1.15246 51.9446 1.49515 52.5158 1.80928C57.0278 4.37944 61.5399 6.97816 66.0805 9.57688C67.794 10.5478 68.2509 12.3469 67.2799 14.0604C65.9949 16.2879 64.7383 18.5439 63.4247 20.7714C63.2819 21.0284 63.3105 21.1712 63.4818 21.3996C64.5955 22.9132 65.5379 24.5409 66.309 26.2544C66.4518 26.54 66.5946 26.6256 66.9087 26.6256C69.5074 26.5971 72.1347 26.5971 74.7334 26.5971C76.5325 26.5971 77.8747 27.9393 77.8747 29.7384C77.8747 32.3085 77.8747 34.9073 77.9033 37.4774C77.9033 37.6202 77.9318 37.763 77.9604 37.9058C77.9604 41.1899 77.9604 44.5025 77.9604 47.7866C77.9318 47.8438 77.9033 47.8723 77.8747 47.9294C77.532 49.5001 76.3612 50.471 74.762 50.471C72.1918 50.4996 69.6216 50.4996 67.08 50.4996C66.7374 50.4996 66.5375 50.5853 66.3947 50.928C66.1376 51.5277 65.8521 52.1274 65.5379 52.6985C64.8811 53.8408 64.1672 54.9831 63.4532 56.154C64.7954 58.4957 66.1948 60.8374 67.5655 63.2362C68.4508 64.7497 67.9939 66.5488 66.4803 67.4341C64.1101 68.8334 61.7113 70.2042 59.341 71.6035C56.628 73.1741 53.9151 74.8019 51.1736 76.344C49.5458 77.2579 47.8038 76.7438 46.8614 75.1446C45.6049 72.9742 44.3198 70.8324 43.0918 68.6335C42.8348 68.2052 42.5778 68.1195 42.1209 68.148C41.4355 68.2337 40.7501 68.2908 40.0933 68.2908C39.0081 68.2908 37.923 68.2052 36.8378 68.1766C36.6093 68.1766 36.3809 68.0909 36.2095 68.4051C34.9244 70.6897 33.6108 72.9457 32.3257 75.2303C31.4404 76.7724 29.6984 77.315 28.1278 76.5154C27.4424 76.1727 26.757 75.7443 26.1002 75.3731C21.6453 72.8315 17.2189 70.2899 12.7639 67.7197C12.307 67.4627 11.8786 67.0629 11.5931 66.6059C10.8506 65.4351 11.0219 64.2642 11.7073 63.122C12.9924 60.9516 14.2203 58.7527 15.4769 56.5823C15.5911 56.3824 15.6197 56.2682 15.4769 56.0683C14.3346 54.5547 13.3922 52.927 12.6211 51.185C12.4783 50.8708 12.307 50.7566 11.9643 50.7852C9.36559 50.8137 6.73831 50.8137 4.13959 50.8137C2.39759 50.8137 1.05539 49.4715 1.02683 47.7295C1.02683 45.1022 1.02683 42.475 0.998277 39.8763C0.998277 39.5907 0.969719 39.4479 0.941162 39.3051ZM7.22378 32.9939C7.22378 36.8777 7.22378 40.6759 7.22378 44.5025C7.45224 44.5025 7.62359 44.5025 7.79493 44.5025C9.93673 44.5025 12.05 44.474 14.1918 44.474C15.9052 44.474 16.9333 45.1594 17.533 46.7871C18.5039 49.3573 19.8461 51.7276 21.6453 53.8123C22.6162 54.926 22.759 56.3253 22.0165 57.6104C21.3597 58.7812 20.6743 59.9235 20.0175 61.0944C19.5035 62.0082 18.9894 62.8935 18.4754 63.8073C21.8166 65.7207 25.1293 67.6055 28.4419 69.5188C28.9274 68.6621 29.4129 67.8339 29.8698 67.0058C30.6123 65.7207 31.3262 64.4356 32.0687 63.1791C32.5827 62.3223 33.3252 61.7512 34.3247 61.7226C35.0672 61.6941 35.8097 61.8083 36.5522 61.894C38.8939 62.2081 41.2071 62.151 43.5202 61.7226C45.1765 61.4085 46.3474 61.9225 47.2041 63.379C48.2607 65.1495 49.2888 66.9201 50.3169 68.7192C50.4596 68.9477 50.6024 69.1761 50.7452 69.4331C54.0864 67.4912 57.3705 65.5779 60.6546 63.6645C59.4552 61.5799 58.2558 59.5523 57.085 57.5247C56.3425 56.2396 56.3996 54.8974 57.3705 53.7551C59.1982 51.6133 60.569 49.2145 61.5113 46.5587C62.0825 45.0166 63.082 44.3026 64.7669 44.3026C66.9372 44.3026 69.1076 44.3026 71.3065 44.3026C71.4493 44.3026 71.5921 44.3026 71.7349 44.3026C71.7349 40.4474 71.7349 36.6493 71.7349 32.8226C71.535 32.8226 71.3922 32.8226 71.278 32.8226C69.079 32.8226 66.9087 32.8226 64.7098 32.8226C63.082 32.8226 62.0825 32.1372 61.5113 30.5951C60.5404 28.0249 59.1982 25.6547 57.3991 23.57C56.371 22.342 56.1997 21.1141 56.9707 19.7148C57.5419 18.6581 58.1701 17.6301 58.7413 16.602C59.3124 15.5739 59.9121 14.5459 60.5118 13.5178C57.1706 11.6045 53.858 9.71967 50.5453 7.83488C50.4882 7.92055 50.4596 7.97767 50.4311 8.00623C49.2888 10.0052 48.1465 11.9757 47.0042 13.9747C46.3474 15.1456 45.3479 15.7453 43.9771 15.6596C43.2917 15.6025 42.6349 15.4883 41.9496 15.4026C39.7221 15.1456 37.4946 15.2312 35.2957 15.631C33.8678 15.9166 32.6113 15.374 31.8402 14.1175C31.5832 13.6891 31.3548 13.2893 31.0977 12.861C30.1268 11.2047 29.1844 9.57688 28.2135 7.892C24.9008 9.8339 21.5881 11.7472 18.2755 13.6891C18.3326 13.8034 18.3897 13.889 18.4183 13.9462C19.5891 15.9452 20.76 17.9156 21.9023 19.9432C22.6162 21.1712 22.5305 22.4277 21.6167 23.5414C19.7319 25.7975 18.304 28.3391 17.3045 31.1091C16.8762 32.28 15.9338 32.9654 14.7058 33.0225C13.1637 33.0796 11.6216 33.051 10.0795 33.051C9.10857 32.9939 8.16618 32.9939 7.22378 32.9939Z" fill="white"/>
<path d="M39.4363 55.4114C30.355 55.3543 22.7873 48.215 22.6731 38.7625C22.5874 29.3957 30.098 21.9707 39.2935 21.8565C48.5175 21.7423 56.1423 29.1958 56.1994 38.4769C56.2851 47.7581 48.9173 55.3543 39.4363 55.4114ZM39.4648 28.0535C33.839 28.082 28.9557 32.4799 28.87 38.4769C28.7844 44.4168 33.4963 49.1574 39.3506 49.2145C44.9193 49.2716 49.9454 44.8452 50.0025 38.7625C50.0882 32.8511 45.4333 28.1106 39.4648 28.0535Z" fill="white"/>
</svg>
