<svg width="65" height="67" viewBox="0 0 65 67" fill="none" xmlns="http://www.w3.org/2000/svg">
<path d="M51.2868 66.2041C51.2383 66.2041 51.1898 66.1559 51.1898 66.1559C50.1718 65.8667 49.5901 65.1437 49.5901 64.0832C49.5901 61.432 49.5901 58.7809 49.5901 56.0815C49.5901 55.9369 49.5901 55.7923 49.5901 55.6477C49.4446 55.6477 49.2992 55.6477 49.1538 55.6477C46.439 55.6477 43.7242 55.6477 41.0095 55.6477C39.7975 55.6477 38.8764 54.7319 38.9249 53.5268C38.9734 52.5627 39.7006 51.6951 40.6701 51.5505C40.864 51.5023 41.058 51.5023 41.2519 51.5023C43.8697 51.5023 46.4875 51.5023 49.0568 51.5023C49.2022 51.5023 49.3477 51.5023 49.4931 51.5023C49.4931 51.3577 49.4931 51.2131 49.4931 51.0684C49.4931 48.3691 49.4931 45.6697 49.4931 42.9704C49.4931 41.4761 50.9959 40.512 52.3533 41.0905C53.2259 41.4761 53.6137 42.1991 53.6137 43.115C53.6137 45.7661 53.6137 48.3691 53.6137 51.0202C53.6137 51.1649 53.6137 51.3095 53.6137 51.4541C53.7592 51.4541 53.9046 51.4541 54.05 51.4541C56.7163 51.4541 59.3826 51.4541 62.0489 51.4541C63.0669 51.4541 63.8426 51.9361 64.1334 52.8037C64.6182 54.1534 63.6486 55.5513 62.1943 55.5513C59.4795 55.5513 56.8133 55.5513 54.0985 55.5513C53.9531 55.5513 53.8561 55.5513 53.6622 55.5513C53.6622 55.6959 53.6622 55.8405 53.6622 55.9851C53.6622 58.4917 53.6137 60.9982 53.6622 63.5048C53.7107 64.8062 53.2744 65.7221 51.9655 66.1077C51.7716 66.2041 51.5292 66.2041 51.2868 66.2041Z" fill="#304FFE"/>
<path d="M36.5008 34.1493C37.1795 34.3903 37.8097 34.5832 38.4399 34.8242C41.2516 35.8846 43.8209 37.3789 46.1479 39.2106C47.0205 39.9337 47.2144 41.1387 46.5357 42.0064C45.857 42.874 44.5966 43.0668 43.724 42.3438C41.8334 40.8495 39.8458 39.6444 37.6158 38.7286C34.1254 37.3307 30.4895 36.7041 26.7082 37.0415C20.1637 37.5717 14.5403 40.1747 10.0319 44.9468C7.46253 47.6461 5.71733 50.8275 5.08711 54.5873C4.84472 55.937 4.79625 57.2867 5.13559 58.6363C5.47494 60.1788 6.39602 61.0947 7.89883 61.5285C9.01382 61.8177 10.0803 62.0105 11.2438 62.0105C22.3452 62.0105 33.4467 62.0105 44.5481 62.0105C45.6146 62.0105 46.4387 62.6372 46.6327 63.6012C46.8266 64.5171 46.3418 65.4811 45.4692 65.8185C45.1298 65.9632 44.7905 66.0114 44.4512 66.0114C36.7432 66.0114 28.9867 66.0114 21.2787 66.0114C17.9338 66.0114 14.5403 66.0114 11.1953 66.0114C9.40164 66.0114 7.65644 65.7221 6.00819 65.0955C3.39039 64.0832 1.83909 62.1069 1.20888 59.4076C0.627147 56.901 0.918015 54.4909 1.59671 52.0326C2.80865 47.6943 5.18407 44.0791 8.48056 40.9941C11.971 37.7645 15.9946 35.499 20.5516 34.1493C20.6485 34.1493 20.697 34.1011 20.7939 34.0529C14.4918 30.5823 10.9529 25.3282 10.856 18.146C10.759 12.9883 12.7466 8.60186 16.5279 5.08306C24.2359 -2.09915 36.3553 -1.1833 42.8514 7.01117C45.1298 9.85513 46.3903 13.1329 46.6811 16.7481C46.9235 20.4115 46.1479 23.8339 44.3057 26.9671C42.4151 30.1485 39.8458 32.5104 36.5008 34.1493ZM28.7928 31.932C36.5008 31.8838 42.7544 25.6656 42.706 18.0496C42.6575 10.3854 36.4038 4.21541 28.7443 4.21541C21.0363 4.26361 14.7827 10.4818 14.8312 18.0978C14.8796 25.762 21.1333 31.9802 28.7928 31.932Z" fill="#304FFE"/>
</svg>
