<svg width="120" height="112" viewBox="0 0 120 112" fill="none" xmlns="http://www.w3.org/2000/svg">
<path d="M119.639 71.4836V69.9423V57.3285C119.639 41.1861 119.639 26.6661 119.639 12.1055C119.639 9.71249 119.113 7.72511 118.019 6.02164C115.792 2.53358 112.795 0.748996 109.151 0.708437C104.089 0.627319 98.9859 0.627317 94.0048 0.667876H93.9643C91.8585 0.667876 89.7527 0.667876 87.6469 0.667876H76.8747C72.1771 0.667876 67.52 0.667876 62.8223 0.667876C58.5702 0.667876 54.318 0.667876 50.0659 0.667876C38.3218 0.667876 25.7678 0.667876 13.1328 0.667876C11.513 0.667876 9.81209 0.708434 8.27321 1.27626C3.81857 2.93917 0.862305 7.15728 0.862305 11.8215C0.902801 19.1221 0.862305 26.5038 0.862305 33.6422V50.1902C0.862305 58.7886 0.862304 67.7116 0.902801 76.5128C0.902801 77.6485 1.10528 78.8247 1.51025 79.9198C3.13012 84.5029 7.38228 87.4637 12.3634 87.4637H12.4444C18.5189 87.4232 24.7149 87.4232 30.7084 87.4232H30.8704C33.4622 87.4232 36.054 87.4232 38.6458 87.4232H40.3871L37.4309 105.188H36.7424C35.973 105.188 35.1631 105.188 34.3936 105.188C32.3688 105.188 30.3034 105.188 28.2786 105.228C27.6712 105.228 27.0232 105.431 26.4158 105.756C25.2818 106.364 24.7554 107.784 25.0389 109.244C25.2818 110.461 26.4967 111.434 27.7521 111.556C28.3596 111.596 29.0075 111.596 29.615 111.596H29.939C32.3688 111.596 34.8391 111.596 37.2689 111.596H42.5335H55.047H71.0027C74.0804 111.596 77.1582 111.596 80.2359 111.596C81.6533 111.596 83.0707 111.596 84.5286 111.596H87.6469C88.2138 111.596 88.8213 111.596 89.3882 111.596C90.4411 111.596 91.494 111.596 92.5875 111.596C94.3288 111.596 95.6652 110.177 95.6652 108.352C95.6652 107.54 95.3412 106.81 94.7743 106.202C94.1668 105.594 93.3164 105.228 92.466 105.228C91.0891 105.228 89.7527 105.228 88.3758 105.228H83.1517L80.1954 87.5448L81.3294 87.4637C81.4913 87.4637 81.6128 87.4232 81.7748 87.4232H89.8337C94.2073 87.4232 98.581 87.4232 102.914 87.4232C103.481 87.4232 104.048 87.4232 104.655 87.4232H104.817C106.518 87.4637 108.3 87.4637 110.001 87.2609C115.59 86.612 119.761 81.7855 119.68 76.1073C119.639 74.566 119.639 73.0248 119.639 71.4836ZM43.9104 105.147L46.8666 87.4637H73.5945L76.5507 105.147H43.9104ZM113.322 35.1429V60.9383H113.119V67.3466H113.322V71.2808C113.322 72.8625 113.322 74.4444 113.322 76.0261C113.322 78.9869 111.216 81.096 108.219 81.096C105.101 81.096 102.023 81.096 98.9049 81.096C96.5966 81.096 94.2883 81.096 91.98 81.096H83.7997C79.9525 81.096 76.1458 81.096 72.2986 81.096C68.4919 81.096 64.6852 81.096 60.8785 81.096C52.9816 81.096 45.0848 81.096 37.1879 81.096C28.9266 81.096 20.6652 81.096 12.4039 81.096C9.16414 81.096 7.1798 79.0681 7.1393 75.8233C7.1393 75.2555 7.1393 74.6471 7.1393 74.0793V73.9982L7.0988 73.5926V47.6755H7.1393V31.6548V26.0982C7.1393 21.5151 7.1393 16.8914 7.1393 12.3083C7.1393 10.402 7.78725 8.98243 9.12364 8.00902C10.0146 7.36008 10.946 7.03561 11.9989 7.03561C19.8148 7.03561 27.6712 7.03561 35.487 7.03561H39.7392H102.388C104.372 7.03561 106.316 7.03561 108.3 7.03561C111.135 7.03561 113.281 9.18523 113.281 12.0243C113.322 19.6494 113.322 27.3961 113.322 35.1429Z" fill="#304FFE"/>
<path d="M51.8477 43.0923C51.8477 43.8224 51.8477 44.5525 51.8477 45.2825V45.4042C51.8477 47.0265 51.8477 48.73 51.8477 50.3929C51.8477 52.2586 51.8881 54.1243 51.9691 55.9089C52.0096 56.639 52.3336 57.2474 52.9411 57.653C53.3055 57.8963 53.751 58.0585 54.237 58.0585C54.4799 58.0585 54.7634 58.018 55.0064 57.9369C55.3709 57.8152 55.6948 57.6124 55.9783 57.4502L57.2742 56.639C62.3768 53.3537 67.4794 50.109 72.582 46.8238C73.4729 46.2559 74.4043 45.607 75.5382 44.7958C75.9837 44.4713 76.3482 44.0252 76.5102 43.5385C76.7532 42.8084 76.7531 41.7539 75.4573 40.9022L72.825 39.1581C69.5852 37.0491 65.9405 34.6967 62.4173 32.3848C60.6354 31.2492 58.7726 30.073 57.0312 28.9779L55.5329 28.045C54.8849 27.6394 54.075 27.5989 53.427 27.9233C52.7791 28.2478 52.2931 28.8562 52.2121 29.5863C52.0906 30.3569 52.0501 31.0058 52.0501 31.6548C52.0501 34.4533 52.0501 37.2519 52.0501 40.0504V42.1189H52.0096V43.0923H51.8477ZM56.7883 34.6561L69.5042 42.849L56.7883 51.0824V34.6561Z" fill="#304FFE"/>
<path d="M103.319 66.941H98.4191C97.5282 63.7774 94.6124 61.4656 91.1702 61.4656C87.728 61.4656 84.8122 63.7774 83.9212 66.941H15.0363C13.6999 66.941 12.6064 68.0361 12.6064 69.3746C12.6064 70.713 13.6999 71.8081 15.0363 71.8081H84.1642C85.2576 74.6066 87.9709 76.5535 91.1702 76.5535C94.3289 76.5535 97.0422 74.5661 98.1761 71.8081H103.319C104.656 71.8081 105.749 70.713 105.749 69.3746C105.749 68.0361 104.656 66.941 103.319 66.941ZM94.2479 69.0095C94.2479 70.2263 93.519 71.3214 92.4661 71.8081C92.0611 72.0109 91.6156 72.092 91.1702 72.092C90.7247 72.092 90.2792 71.9703 89.8743 71.8081C88.8214 71.3214 88.0924 70.2668 88.0924 69.0095C88.0924 68.1983 88.4164 67.4683 88.9024 66.941C89.4693 66.3326 90.2792 65.927 91.1702 65.927C92.0611 65.927 92.871 66.3326 93.438 66.941C93.9239 67.5088 94.2479 68.2389 94.2479 69.0095Z" fill="#304FFE"/>
<path d="M104.656 14.9041H16.3727C15.0363 14.9041 13.9429 15.9991 13.9429 17.3376C13.9429 18.676 15.0363 19.7711 16.3727 19.7711H104.656C105.992 19.7711 107.085 18.676 107.085 17.3376C107.085 15.9991 105.992 14.9041 104.656 14.9041Z" fill="#304FFE"/>
</svg>
