<svg width="64" height="102" viewBox="0 0 64 102" fill="none" xmlns="http://www.w3.org/2000/svg">
<path d="M25.7997 14.4572C17.8091 16.0607 11.2802 20.2881 6.43229 27.0666C3.1922 31.5856 1.26763 36.7605 0.756041 42.4456C0.220087 48.3252 1.26763 53.986 3.87432 59.2096C5.77452 63.0725 8.55175 66.5225 12.3034 69.7538C14.9588 72.0376 16.7616 74.9773 17.6386 78.4516C17.7117 78.7189 17.6873 78.816 17.5168 78.9618C16.0551 80.3224 15.5435 82.1202 16.0307 84.1125C16.2013 84.7684 16.518 85.3515 16.859 85.9346C16.9808 86.1776 17.127 86.4205 17.2488 86.6392C15.7628 88.3642 15.4461 90.3321 16.3718 92.3243C17.2976 94.3652 19.0516 95.4828 21.3903 95.5314C21.7557 95.5314 22.1211 95.5314 22.5109 95.5314C22.6327 95.5314 22.7302 95.5314 22.852 95.5314C22.9251 95.8229 22.9982 96.1387 23.0469 96.4303C23.2418 97.2563 23.4123 98.0095 23.6072 98.8113C23.9726 100.269 25.1176 101.217 26.628 101.314C27.0178 101.338 27.432 101.338 27.8218 101.338C27.9679 101.338 28.1141 101.338 28.2603 101.338H28.7231H30.7695C33.0351 101.338 35.3495 101.338 37.6395 101.338C39.3691 101.338 40.6603 100.318 41.0744 98.6412C41.1232 98.3982 41.1963 98.131 41.245 97.888C41.2937 97.6451 41.3668 97.3778 41.4155 97.1349C41.4642 96.9648 41.4886 96.7704 41.513 96.6004C41.5617 96.2116 41.6348 95.8229 41.8053 95.6528C41.9758 95.5071 42.4143 95.5314 42.7798 95.5556C42.9503 95.5556 43.1452 95.5799 43.3157 95.5799C46.166 95.4828 48.4804 93.1747 48.5535 90.3321C48.6022 88.9473 48.1149 87.7325 47.1161 86.5906L47.2866 86.3719C49.0894 84.1125 48.9676 81.197 46.9943 79.1076C46.7751 78.8646 46.7263 78.6946 46.7994 78.3787C47.4328 75.9735 48.3829 74.0784 49.6984 72.5721C50.7947 71.3087 52.0615 70.1182 53.2552 68.9521C53.5476 68.6605 53.8399 68.3933 54.1323 68.1017C59.5649 62.8539 62.7562 56.5127 63.5602 49.297C64.4128 41.7411 62.7562 34.6225 58.5904 28.1599C51.4525 17.1054 38.9063 11.8333 25.7997 14.4572ZM37.6882 95.7986C37.542 96.4303 37.4202 97.0377 37.2497 97.6451C37.201 97.6937 37.0304 97.7422 36.933 97.7422C35.4226 97.7422 33.8878 97.7422 32.4017 97.7422H30.0387C29.1373 97.7422 28.1872 97.7422 27.2858 97.7422C27.0178 97.7422 26.9447 97.718 26.9204 97.475C26.8229 96.9405 26.7011 96.4303 26.5793 95.8715C26.5549 95.7257 26.5062 95.5799 26.4819 95.4342H37.7856C37.7369 95.5799 37.7126 95.7014 37.6882 95.7986ZM44.3876 91.231C44.0222 91.5955 43.5106 91.7898 42.9016 91.7898C40.3192 91.7898 37.7369 91.7898 35.1302 91.7898H32.0119C30.8669 91.7898 29.6976 91.7898 28.5526 91.7898C26.0677 91.7898 23.5828 91.7898 21.098 91.7898C20.1966 91.7898 19.417 91.1096 19.3196 90.2349C19.2221 89.3603 19.7581 88.5585 20.6107 88.2913C20.83 88.2184 21.0736 88.2184 21.2685 88.2184C28.4795 88.2184 35.6905 88.2184 42.9016 88.2184C44.0222 88.2184 44.8505 88.9716 44.8505 89.992C44.8992 90.4779 44.7287 90.8909 44.3876 91.231ZM44.412 83.8452C44.0466 84.2339 43.535 84.4283 42.9747 84.4283C40.3436 84.4283 37.7126 84.4283 35.0815 84.4283H32.0363H29.0642C26.4331 84.4283 23.8021 84.4283 21.1467 84.4283C20.294 84.4283 19.5875 83.9181 19.3683 83.1163C19.149 82.3875 19.4657 81.5614 20.0991 81.197C20.4402 81.0026 20.8543 80.8812 21.2198 80.8812C23.8265 80.8569 26.4819 80.8569 29.0886 80.8569C30.2092 80.8569 31.3055 80.8569 32.4017 80.8569H35.5687C36.3239 80.8569 37.0792 80.8569 37.8587 80.8569C39.5884 80.8569 41.3181 80.8569 43.0477 80.8569C44.0466 80.8569 44.8261 81.5614 44.8992 82.509C44.9236 83.0192 44.753 83.4808 44.412 83.8452ZM29.5271 54.9578C29.2591 53.9617 28.4551 53.3543 27.5538 53.4758C27.2127 53.5244 26.9204 53.6459 26.6037 53.7674L26.4575 53.8159C24.2162 54.7149 22.3404 55.055 20.5133 54.9092C17.3463 54.6663 15.0806 52.9899 13.8138 49.9044C13.4728 49.0783 13.2292 48.1065 13.1317 47.0375C12.9612 45.2639 13.619 43.7576 15.105 42.5914C15.6166 42.2027 15.8846 41.6682 15.8846 41.1094C15.8846 40.5749 15.6166 40.0647 15.105 39.676C14.4716 39.19 13.8138 39.1415 13.1804 39.5302C13.0099 39.6274 12.8637 39.7245 12.7176 39.846C12.6689 39.4087 12.7663 38.9714 13.0343 38.5341C13.5702 37.6108 14.7152 36.882 16.0307 36.6147C16.1282 36.7605 16.2013 36.9063 16.2744 37.052C16.518 37.4894 16.7616 37.9267 17.0783 38.3397C18.2964 39.8703 20.026 40.6721 21.5852 41.2552C22.2429 41.4981 22.9494 41.7411 23.6803 41.814C24.6791 41.9111 25.5561 41.0608 25.6779 40.2348C25.7997 39.3844 25.3125 38.7527 24.2893 38.364C23.1443 37.951 22.1455 37.538 21.2441 37.1006C20.7813 36.882 20.3671 36.5175 20.0017 36.2017C19.4657 35.7158 19.3439 35.1327 19.5875 34.4767C20.3427 32.606 21.5852 31.3426 23.2905 30.7352C23.9483 30.4923 24.8009 30.6137 25.2394 30.7109C27.1153 31.1239 28.5526 32.1443 29.5271 33.7964C30.0874 34.744 31.1106 35.1084 31.9876 34.6468C32.962 34.1609 33.3031 33.0919 32.8159 32.0958C32.5723 31.5856 32.2312 31.1482 31.9876 30.8081C31.7683 30.5408 31.5491 30.2979 31.3055 30.0549C31.2811 30.0306 31.2567 30.0063 31.2324 29.9578C34.2776 28.4028 38.7114 28.5486 41.6591 32.4602C41.6348 32.4845 41.6104 32.5088 41.586 32.5331C41.3911 32.6788 41.1963 32.8489 41.0257 33.019C39.564 34.4038 38.5165 36.2017 37.7126 38.6555C37.5664 39.0686 37.6151 39.4816 37.81 39.846C38.0293 40.2591 38.419 40.5506 38.955 40.6964C40.0269 41.0122 40.8796 40.5749 41.1719 39.6031C41.586 38.2425 42.1707 37.1006 42.9259 36.1288C44.0466 34.7197 45.1672 34.5253 46.6045 35.4971C48.5778 36.8334 49.9664 38.607 50.7216 40.745C51.2576 42.2999 50.9165 43.6604 49.6984 44.7537C48.3098 45.9928 46.6045 46.5273 44.9723 46.8917C44.8992 46.8674 44.7774 46.7702 44.7043 46.6731C43.7299 45.1667 42.731 43.709 41.3668 42.5914C38.9794 40.5992 36.1534 40.3076 33.6685 41.7897L33.6442 41.814C32.9377 42.1784 32.4505 42.3971 32.2312 42.3242C32.0363 42.2513 31.8414 41.8626 31.5491 41.2066L31.4516 40.9879C31.0862 40.2105 30.9888 39.3358 31.1106 38.364C31.1836 37.9024 31.1593 37.5137 31.0862 37.1978C30.8913 36.4447 30.1361 35.8373 29.4053 35.8373H29.3809C28.5526 35.8616 27.7487 36.4932 27.5538 37.295C27.1153 39.0686 27.3589 40.8664 28.2115 42.64C28.2846 42.7858 28.3821 42.9559 28.4552 43.1259C28.2359 43.1502 28.0166 43.1988 27.7974 43.2231C27.0665 43.3203 26.3844 43.4175 25.7023 43.4661C24.1919 43.5632 22.4378 43.6361 20.7569 43.1745C19.8312 42.9316 18.8323 43.4904 18.54 44.4136C18.2477 45.3125 18.7836 46.3329 19.6606 46.6245C20.2697 46.8188 20.9031 46.916 21.5365 47.0132L21.8288 47.0618C22.1211 47.1104 22.4135 47.1104 22.7545 47.1347C22.8276 47.1347 22.9251 47.1347 22.9982 47.1347C22.9494 47.3047 22.9251 47.4991 22.8763 47.6692C22.7302 48.2523 22.6084 48.8354 22.4378 49.3699C22.1699 50.2445 22.316 50.9005 22.8763 51.4107C23.3636 51.848 23.997 52.0181 24.5573 51.8723C25.0933 51.7508 25.5318 51.3621 25.751 50.8276C26.0434 50.0987 26.2139 49.297 26.3844 48.5195C26.4088 48.3495 26.4575 48.1794 26.4819 48.0336C26.5549 47.7421 26.5549 47.4262 26.5549 47.1347C26.5549 47.0861 26.5549 47.0132 26.5549 46.9646C26.9691 46.8917 27.3832 46.8431 27.7974 46.7702C28.8937 46.6002 29.9412 46.4544 30.9644 46.2114C32.3043 45.8713 33.7416 45.4097 35.3495 44.7537C37.0061 44.0977 38.0293 44.2678 39.1986 45.3854C41.0744 47.2076 42.39 49.4185 43.0965 51.9695C43.4862 53.3786 42.6092 54.0346 41.7809 54.3747C40.6116 54.8364 39.3204 54.8121 38.1754 54.7878C37.6882 54.7878 37.274 54.8364 36.9573 54.9578C36.1534 55.2737 35.6662 56.0997 35.8367 56.8772C36.0316 57.7518 36.7624 58.3592 37.6638 58.3835C38.1754 58.3835 38.6627 58.3835 39.1986 58.3835C39.3448 58.3835 39.4909 58.3835 39.6371 58.3835C39.6128 58.4807 39.6128 58.5779 39.5884 58.6508L38.346 63.2669C37.1766 67.6401 35.9585 72.1348 34.7648 76.5809C34.643 77.0425 34.5212 77.1396 34.034 77.1154C33.4006 77.0911 32.7428 77.0911 32.085 77.0911C31.5491 77.0911 31.0131 77.0911 30.5015 77.0911C30.1848 77.0911 29.8925 77.0911 29.5758 77.0911C29.3322 77.0911 29.2834 77.0668 29.2347 76.8967C27.9679 72.2805 26.7011 67.6887 25.4343 63.0725L24.0701 58.1405C24.1919 58.1163 24.3137 58.0677 24.4355 58.0191C24.8009 57.8976 25.1907 57.7761 25.5561 57.6546C26.5062 57.3388 27.4563 57.023 28.4064 56.6828C29.3078 56.4885 29.7463 55.7839 29.5271 54.9578ZM50.0151 66.4496C46.7263 69.2679 44.412 72.7665 43.1939 76.8238C43.0965 77.1882 42.9747 77.2368 42.6336 77.2125C41.6104 77.1882 40.5872 77.1882 39.5153 77.1882C39.1986 77.1882 38.8819 77.1882 38.5652 77.1882L40.4654 70.1911C41.586 66.0366 42.731 61.8821 43.8517 57.7275C43.9004 57.5089 43.9978 57.3631 44.0709 57.3145C46.5558 55.954 47.5303 53.0142 46.434 50.0258C46.5802 49.9773 46.7263 49.9287 46.8481 49.8801C47.311 49.71 47.7982 49.5399 48.2611 49.3456C49.9177 48.6896 51.1358 47.9364 52.1346 46.9646C54.3271 44.8266 54.8875 42.2027 53.7912 39.1658C52.7924 36.3961 50.9165 34.0394 48.188 32.1686C47.3597 31.6098 46.4096 31.2697 45.3377 31.1239C45.1916 31.0996 44.9723 30.9296 44.8018 30.7352C43.4132 28.8645 41.9027 27.5039 40.1974 26.5807C36.9817 24.8557 33.4736 24.7828 29.7707 26.3134C29.454 26.4592 29.1373 26.6293 28.8449 26.8236C28.3821 27.0909 27.9679 27.3581 27.5294 27.4067C27.0909 27.4553 26.628 27.3095 26.1164 27.1395C25.7997 27.0423 25.483 26.9208 25.1663 26.8722C22.852 26.4349 20.7569 27.1638 18.54 29.1803C17.5412 30.0792 16.7129 31.1968 16.1038 32.4845C16.0551 32.606 15.8602 32.7517 15.6897 32.8003C14.5203 33.0919 13.1561 33.4806 11.938 34.3066C9.62366 35.8373 8.62483 38.1453 8.94153 41.1337V41.2309C8.96589 41.5467 9.01461 41.8626 9.11206 42.1541C9.55057 43.3932 9.45312 44.6079 9.28259 46.0657C8.62483 51.8723 13.351 57.7761 19.2221 58.4564C19.7337 58.505 20.026 58.5536 20.1479 58.6508C20.2697 58.7479 20.3427 59.0395 20.4889 59.5254L25.1907 77.0182C25.2151 77.1154 25.2394 77.2125 25.2638 77.3097C25.2151 77.3097 25.1663 77.334 25.1176 77.334C24.6547 77.334 24.1919 77.334 23.729 77.334C22.9007 77.334 22.0481 77.334 21.1954 77.334C20.9518 77.334 20.9031 77.3097 20.83 77.0668C19.6363 72.8636 17.3219 69.2922 13.692 66.1581C8.38121 61.5176 5.21421 55.6624 4.26411 48.7382C2.36391 34.0637 12.7176 20.1667 27.4076 17.8343C29.1373 17.567 30.8182 17.4213 32.4505 17.4213C38.1267 17.4213 43.3157 19.0491 47.9444 22.2804C54.8875 27.1395 58.8828 33.8693 59.8329 42.3242C60.9048 51.848 57.5916 59.987 50.0151 66.4496Z" fill="white"/>
<path d="M31.5489 11.4203C31.7438 11.4689 31.9631 11.4931 32.158 11.4931C32.5478 11.4931 32.9132 11.3717 33.2055 11.153C33.644 10.8129 33.912 10.2784 33.912 9.62239C33.9364 8.67486 33.9364 7.72734 33.912 6.80411C33.912 6.43968 33.912 6.09954 33.912 5.73511C33.912 5.46786 33.912 5.17631 33.912 4.90906C33.912 4.1316 33.912 3.32985 33.8877 2.5281C33.8633 1.4105 33.2055 0.730228 32.1336 0.705933C31.5733 0.705933 31.1104 0.851706 30.7937 1.16755C30.4527 1.48339 30.2821 1.9693 30.2578 2.55239C30.2334 3.37844 30.2334 4.22878 30.2578 5.03054C30.2578 5.29779 30.2578 5.58933 30.2578 5.85658V6.09954C30.2578 6.46397 30.2578 6.80411 30.2578 7.16854C30.2578 7.99459 30.2578 8.82064 30.2578 9.67098C30.3065 10.5699 30.745 11.2016 31.5489 11.4203Z" fill="white"/>
<path d="M56.7633 21.7458L56.8364 21.7701L56.9095 21.7215C57.007 21.6729 57.1288 21.6 57.2506 21.5514C57.5185 21.43 57.8109 21.2842 58.0301 21.0898C59.8085 19.3648 61.6113 17.5427 63.1704 15.9878C63.5602 15.599 63.7551 15.1374 63.7551 14.6515C63.7551 14.1899 63.5602 13.7526 63.1948 13.3881C62.464 12.6836 61.4164 12.7079 60.6368 13.461C60.174 13.8983 59.7355 14.36 59.2726 14.8216L57.9571 16.1335C57.1288 16.9596 56.3248 17.7613 55.4965 18.5874C54.9362 19.1462 54.79 19.8264 55.0824 20.531C55.3504 21.1627 55.9594 21.6243 56.7633 21.7458Z" fill="white"/>
<path d="M6.11556 21.0412C6.52971 21.4543 7.01694 21.6486 7.47981 21.6486C7.91832 21.6486 8.35683 21.4786 8.69789 21.1141C9.03895 20.774 9.23385 20.3367 9.25821 19.8751C9.25821 19.3891 9.03895 18.9275 8.67353 18.5388C7.13875 17.0082 5.33599 15.186 3.53324 13.4367C3.31398 13.2181 3.04601 13.0966 2.80239 12.9751C2.70494 12.9265 2.58314 12.8779 2.48569 12.8051L2.4126 12.7565H2.33952C1.55995 12.8537 0.926548 13.3153 0.63421 13.947C0.317509 14.6515 0.463678 15.3561 1.04836 15.9392C2.77803 17.7371 4.5077 19.4377 6.11556 21.0412Z" fill="white"/>
</svg>
