<svg width="76" height="76" viewBox="0 0 76 76" fill="none" xmlns="http://www.w3.org/2000/svg">
<path d="M75.1781 20.673C74.8561 20.0786 74.3112 19.6327 73.6672 19.4345C73.2957 19.3107 72.8746 19.3107 72.503 19.3107C56.1057 19.3107 39.7332 19.3107 23.3359 19.3107H17.3664C17.3417 19.2612 17.3417 19.2116 17.3169 19.1621L13.3538 2.9877C13.007 1.60061 12.0658 0.807995 10.7283 0.783225C8.37517 0.758456 5.79916 0.758456 2.8516 0.783225C1.78652 0.783225 0.944363 1.30338 0.448976 2.26939C0.374668 2.418 0.32513 2.56662 0.275591 2.69046C0.250822 2.74 0.226052 2.81431 0.201283 2.86385L0.176514 2.91339V10.3442L0.201283 10.3937C0.201283 10.4185 0.226052 10.4185 0.226052 10.4433L0.250822 10.468C0.647131 11.8056 1.81129 12.623 3.07453 12.4496C4.48638 12.2762 5.40285 11.2359 5.42762 9.79927C5.45239 9.00665 5.42762 8.21403 5.42762 7.44618C5.42762 7.09941 5.42762 6.75264 5.42762 6.40587V6.00956H7.85501C8.22655 6.00956 8.49902 6.00956 8.57333 6.08387C8.64763 6.15818 8.72194 6.40587 8.82102 6.77741C12.7593 22.7784 16.6977 38.7546 20.636 54.7556C21.0323 56.3161 21.9488 57.0592 23.5588 57.0592C27.7943 57.0592 32.0547 57.0592 36.2902 57.0592C44.7614 57.0592 53.2077 57.0592 61.6788 57.0592C61.9513 57.0592 62.1742 57.0344 62.3971 57.0097C63.0907 56.9106 63.7099 56.5143 64.131 55.9198C64.5521 55.3253 64.7007 54.607 64.5768 53.9135C64.3044 52.6007 63.2393 51.7833 61.8274 51.7833H25.3422L23.3359 43.6838H66.4841C68.0445 43.6838 68.9115 43.0645 69.3573 41.5784C70.1252 39.151 70.893 36.7236 71.6609 34.2714L72.4287 31.8192C73.37 28.7974 74.336 25.7755 75.2772 22.7784C75.5744 22.0601 75.5249 21.317 75.1781 20.673ZM69.2582 24.6113L69.0601 25.2058C68.8372 25.8746 68.639 26.5434 68.4409 27.2121L67.5739 29.9863C66.707 32.7357 65.8401 35.5099 64.9731 38.2593C64.9236 38.4574 64.8988 38.4574 64.6759 38.4574C53.3563 38.4574 42.0367 38.4574 30.7171 38.4574C29.3053 38.4574 27.8687 38.4574 26.4568 38.4574H22.0974L18.6792 24.6113H69.2582Z" fill="white"/>
<path d="M29.2558 60.8984C27.2742 60.8984 25.4165 61.6663 24.0294 63.0781C22.6424 64.4652 21.8745 66.3477 21.8745 68.3045C21.8745 72.3914 25.1936 75.7105 29.2805 75.7105C31.2621 75.7105 33.1198 74.9427 34.5069 73.5308C35.894 72.119 36.6618 70.2613 36.6618 68.3045C36.6618 64.2175 33.3427 60.8984 29.2558 60.8984ZM27.1256 68.3045C27.1256 67.7348 27.3485 67.1899 27.7696 66.7935C28.1659 66.3972 28.7109 66.1743 29.2558 66.1743H29.2805C30.4447 66.1743 31.4107 67.1403 31.4107 68.3045C31.4107 68.8742 31.1878 69.3943 30.7915 69.8154C30.3704 70.2365 29.8502 70.4594 29.2805 70.4594C28.0668 70.4346 27.1256 69.4934 27.1256 68.3045Z" fill="white"/>
<path d="M57.2699 60.8984C55.2884 60.8984 53.4307 61.6663 52.0436 63.0781C50.6565 64.4652 49.8887 66.3477 49.8887 68.3045C49.8887 72.3914 53.2078 75.7105 57.2947 75.7105C61.3569 75.7105 64.676 72.4162 64.7008 68.354C64.7008 66.3725 63.9329 64.49 62.5458 63.0781C61.1092 61.6663 59.2515 60.8984 57.2699 60.8984ZM59.4001 68.3045C59.4001 68.8742 59.1772 69.4191 58.7809 69.8154C58.3598 70.2365 57.8396 70.4594 57.2699 70.4594C56.7002 70.4594 56.1553 70.2365 55.759 69.8154C55.3627 69.3943 55.1398 68.8494 55.1398 68.2797C55.1398 67.1403 56.1306 66.1495 57.2699 66.1495C57.2699 66.1495 57.2699 66.1495 57.2947 66.1495C58.4341 66.1743 59.4001 67.1403 59.4001 68.3045Z" fill="white"/>
</svg>
