<svg width="74" height="66" viewBox="0 0 74 66" fill="none" xmlns="http://www.w3.org/2000/svg">
<path d="M39.236 57.7423C38.935 57.4608 38.5266 57.3093 38.0538 57.3309C36.979 57.3742 36.3342 58.0887 36.3772 59.2146C36.3987 59.8858 36.3987 60.5569 36.3772 61.2065C36.3772 61.4446 36.3772 61.6612 36.3772 61.8993H29.2196C29.2196 61.358 29.2196 60.8168 29.2196 60.2755C29.2196 58.8465 29.2196 57.5042 29.2196 56.1401C29.2411 54.8627 28.6822 54.1049 27.4355 53.6719C25.9524 53.1523 24.0179 52.4594 22.2124 51.5285C20.7937 50.814 19.805 50.9655 18.7303 52.113C17.849 53.0657 16.9033 53.9534 16.0005 54.8194C15.6566 55.1442 15.3342 55.4473 15.0118 55.7721L9.89608 50.6408C10.24 50.316 10.5839 49.9912 10.9493 49.6448C11.9166 48.7138 12.9053 47.7612 13.9155 46.8518C14.9043 45.9641 15.0547 45.0115 14.4099 43.7341C13.5286 41.9803 12.8193 40.2049 12.2605 38.4729C11.8091 37.0439 11.0353 36.481 9.61666 36.5459C8.26251 36.5892 6.92986 36.5892 5.53272 36.5676C4.99536 36.5676 4.47949 36.5676 3.94213 36.5676V29.2928C4.50099 29.2928 5.03835 29.2928 5.57571 29.2928C7.03733 29.2712 8.39148 29.2712 9.78861 29.3145C11.0138 29.3578 11.7446 28.8598 12.196 27.6906C13.0128 25.5688 13.7866 23.7068 14.5389 21.9964C15.0547 20.8489 14.8828 19.9612 13.98 19.1168C12.9698 18.1642 11.981 17.2115 11.0353 16.2805C10.7129 15.9558 10.4119 15.6526 10.0895 15.3712L15.1837 10.11C15.5061 10.4347 15.8285 10.7811 16.1725 11.1059C17.0967 12.0369 18.0425 13.0112 18.9452 13.9855C19.8265 14.9165 20.7723 15.0897 21.9544 14.5701C23.5665 13.8556 25.4365 13.0112 27.3495 12.34C28.7252 11.8421 29.327 10.9544 29.2625 9.46043C29.2196 8.13972 29.2196 6.84065 29.2411 5.47664C29.2411 4.97866 29.2411 4.45904 29.2411 3.93941H36.3987C36.3987 4.13427 36.3987 4.30748 36.3987 4.48069C36.3987 4.97866 36.3987 5.45499 36.3987 5.90966C36.4417 7.10047 37.0435 7.75 38.0967 7.72835C39.1715 7.7067 39.7733 7.05717 39.7948 5.88801C39.8163 4.7838 39.8163 3.6363 39.7948 2.48879C39.7733 0.84331 39.193 0.280382 37.5379 0.258731C35.7324 0.23708 33.8838 0.23708 32.1213 0.258731C31.4765 0.258731 30.8531 0.258731 30.2083 0.258731C29.7999 0.258731 29.413 0.258731 29.0691 0.258731C27.5645 0.23708 26.7262 0.215429 26.2103 0.735055C25.63 1.31963 25.587 2.44549 25.6085 4.91371C25.6515 9.11402 25.6515 9.11402 21.6965 10.6079C21.3311 10.7378 20.6218 10.6079 20.3209 10.3265C19.4611 9.54704 18.6228 8.70265 17.8275 7.87991C17.3546 7.40358 16.8603 6.88396 16.3659 6.40763C15.1622 5.23848 14.3884 5.23848 13.1847 6.40763C11.8521 7.72835 10.4979 9.09237 9.20826 10.3914C8.26251 11.3441 7.29526 12.3184 6.34951 13.271C5.79065 13.8123 5.53272 14.3536 5.53272 14.8948C5.53272 15.4361 5.81215 15.9558 6.34951 16.497L6.58595 16.7352C7.74664 17.861 8.95033 19.0302 10.0465 20.2643C10.4334 20.6973 10.7129 21.3685 10.6054 21.6283C10.0036 23.1439 9.16527 24.5945 8.43446 25.8936C8.34849 25.9152 8.11205 25.8936 7.96159 25.8936C7.83262 25.8936 7.70365 25.8719 7.59618 25.8719C7.03733 25.8719 6.45698 25.8719 5.89812 25.8719C4.8234 25.8719 3.70569 25.8719 2.60948 25.8719C0.739466 25.8936 0.309578 26.3266 0.309578 28.167C0.288083 30.9383 0.288083 33.9261 0.309578 37.6068C0.309578 39.6204 0.825444 40.1183 2.86741 40.14C3.44776 40.14 4.04961 40.1183 4.62995 40.1183C5.79065 40.075 6.97284 40.0534 8.11205 40.2049C9.38022 40.3782 9.61666 41.3092 9.87459 42.3917C10.0251 42.9979 10.154 43.6042 10.5194 44.1021C10.6269 44.2537 10.4764 44.7084 10.3905 45.0548C10.3475 45.228 10.283 45.4012 10.2615 45.5528C10.24 45.5744 10.1755 45.6177 10.154 45.661C10.111 45.7043 10.068 45.726 10.0251 45.7693C9.65965 46.1373 9.29424 46.5054 8.92884 46.8735C8.09055 47.6962 7.23078 48.5623 6.41399 49.4283C5.2318 50.6624 5.2318 51.5068 6.43548 52.7409C8.79987 55.1658 11.0138 57.3742 13.1632 59.5177C14.3669 60.7085 15.2267 60.6869 16.4734 59.4744C16.9892 58.9764 17.4836 58.4568 17.978 57.9805C18.7733 57.1794 19.5901 56.335 20.4498 55.5556C20.7078 55.3174 21.3311 55.1658 21.5675 55.2957C23.0077 55.9669 24.4048 56.768 25.716 57.5258C25.716 57.6124 25.716 57.7856 25.6945 57.8939C25.6945 58.0021 25.673 58.132 25.673 58.2186C25.673 58.7599 25.673 59.2795 25.673 59.8208C25.673 61.0333 25.673 62.289 25.6945 63.5231C25.716 64.0428 25.7375 65.6016 27.4785 65.6233C29.1551 65.6233 30.8316 65.6233 32.5082 65.6233C34.1418 65.6233 35.7754 65.6233 37.4304 65.6233H38.1612C39.2145 65.6233 39.8163 65.0171 39.8163 63.9345C39.8163 62.2674 39.8163 60.7302 39.8163 59.2146C39.7518 58.565 39.5584 58.0671 39.236 57.7423Z" fill="#304FFE"/>
<path d="M68.9627 36.0479C66.1039 35.3117 63.1592 36.6758 61.9555 39.2739C61.5686 40.1183 61.1387 40.3781 60.1715 40.3781H60.15C54.9483 40.3564 49.6392 40.3564 44.5236 40.3564C40.9985 40.3564 37.4519 40.3564 33.9268 40.3564C31.7129 40.3564 29.8214 39.6203 28.4457 38.213C27.0916 36.849 26.3823 34.9653 26.3823 32.8002C26.4038 28.4484 29.499 25.4172 33.9483 25.4172C36.4417 25.4172 38.935 25.4172 41.4284 25.4172C47.4683 25.4172 53.7232 25.4172 59.8706 25.3956C59.8921 25.3956 59.8921 25.3956 59.9135 25.3956C60.9668 25.3956 61.5471 25.5904 62.02 26.6297C63.2237 29.1845 66.1254 30.4836 68.9412 29.7258C71.671 28.9896 73.5195 26.608 73.541 23.7934C73.541 20.8705 71.628 18.294 68.9842 17.6661C66.0395 16.9733 63.1592 18.294 61.977 20.8705C61.5471 21.8231 61.0313 21.9747 60.064 21.9747H60.0425C51.6382 21.953 42.9115 21.953 33.3895 21.953C30.4662 21.953 27.9299 22.9706 26.0384 24.8976C24.0394 26.9111 22.9647 29.8124 22.9862 33.06C23.0077 36.0262 24.1469 38.7976 26.1888 40.8328C28.1663 42.803 30.7886 43.8639 33.5829 43.8639C33.6259 43.8639 33.6474 43.8639 33.6904 43.8639C36.6351 43.8423 39.6228 43.8423 42.5031 43.8423C43.8142 43.8423 45.1254 43.8423 46.4151 43.8423H46.63V43.7557C47.7692 43.7557 48.9084 43.7557 50.0476 43.7557C53.3792 43.7557 56.7969 43.7557 60.193 43.734C60.2145 43.734 60.2145 43.734 60.236 43.734C61.1817 43.734 61.6116 44.0155 61.9985 44.8382C62.9658 46.96 65.1367 48.2374 67.4581 48.2374C67.974 48.2374 68.4898 48.1725 69.0057 48.0426C71.585 47.393 73.5625 44.8382 73.584 42.0669C73.5625 39.2522 71.6925 36.7407 68.9627 36.0479ZM70.0589 42.0452C70.0804 43.5175 68.8767 44.7733 67.4366 44.7949H67.4151C66.0395 44.7949 64.7283 43.5175 64.7068 42.1318C64.6853 40.7678 65.975 39.4254 67.3721 39.4038C67.3936 39.4038 67.4151 39.4038 67.4366 39.4038C68.1029 39.4038 68.7477 39.6636 69.2421 40.1616C69.758 40.6596 70.0589 41.3524 70.0589 42.0452ZM64.6853 23.6851C64.7068 22.2995 66.0395 21.022 67.4151 21.022H67.4366C68.8552 21.0437 70.0804 22.3211 70.0589 23.7717C70.0589 24.4862 69.758 25.1574 69.2421 25.677C68.7263 26.175 68.0599 26.4565 67.3721 26.4348C65.932 26.3699 64.6638 25.0708 64.6853 23.6851Z" fill="#304FFE"/>
<path d="M33.5829 15.6093C33.5185 15.6093 33.454 15.6093 33.368 15.6093C25.4151 16.1073 18.5369 22.7541 17.6771 30.7434C17.2042 35.2901 18.3219 39.5337 20.9227 42.9979C23.2226 46.0507 26.5113 48.2807 30.1868 49.255C31.3475 49.5582 32.6157 49.7314 33.9268 49.7314C34.1418 49.7314 34.3567 49.7314 34.5932 49.7097C35.238 49.6881 36.0548 48.6921 36.1408 48.0209C36.2053 47.5013 35.5174 46.96 34.9156 46.4837L34.7651 46.3755C34.5502 46.2022 34.2708 46.2239 33.9698 46.2455C33.8409 46.2455 33.7334 46.2672 33.6474 46.2455C26.5758 45.7043 21.0302 39.8152 21.0302 32.8219C21.0302 25.5038 26.4253 19.7663 33.8194 19.1817C34.8296 19.0951 35.5389 18.8137 35.9258 18.3373C36.1838 18.0126 36.2697 17.6228 36.2053 17.1465C35.9903 15.6959 34.8081 15.5876 33.5829 15.6093Z" fill="#304FFE"/>
<path d="M39.7092 17.3847C39.8382 17.9044 40.2896 18.3157 40.7195 18.7054C40.8269 18.7921 40.9344 18.9003 41.0204 18.9869C41.2138 19.1601 41.5147 19.1601 41.7727 19.1601H41.8802C42.6325 19.1601 43.3633 19.1601 44.1156 19.1818C44.9753 19.1818 45.8566 19.2034 46.7594 19.2034C48.0705 19.2034 49.3817 19.1818 50.6714 19.1385C51.4882 19.0952 52.4984 18.6838 53.2722 18.0559C54.6048 16.9734 55.8085 15.7609 57.2057 14.267C57.8075 13.6391 58.3449 13.4659 59.1832 13.7041C61.87 14.3969 64.5998 13.1844 65.9754 10.6513C67.3295 8.16138 66.8567 5.17353 64.8362 3.22494C62.7727 1.23304 59.6775 0.886622 57.2917 2.4022C54.8198 3.96107 53.7021 6.97057 54.6693 9.41714C55.1207 10.5863 54.7553 11.1059 54.1105 11.9936L54.0245 12.1235C51.7461 15.3062 49.2527 16.497 46.6304 15.6743H46.5659C45.8566 15.6743 45.2333 15.6743 44.6529 15.6743C43.3633 15.6743 42.353 15.6526 41.3213 15.6959C40.7195 15.7176 40.2036 15.9558 39.9242 16.3238C39.6877 16.562 39.6232 16.9517 39.7092 17.3847ZM57.915 7.55515C57.9365 6.12618 59.0757 4.97867 60.5158 4.97867H60.5373C61.2681 4.97867 61.9344 5.26014 62.4288 5.75811C62.9232 6.25609 63.2026 6.92727 63.2026 7.64175C63.2026 8.35624 62.9232 9.02742 62.4288 9.5254C61.913 10.0234 61.2466 10.3048 60.5373 10.2832C59.828 10.2832 59.1617 10.0017 58.6888 9.50375C58.1729 8.98412 57.915 8.31294 57.915 7.55515Z" fill="#304FFE"/>
<path d="M60.429 51.9398C58.258 52.3945 57.2263 51.4202 56.0226 49.9912C55.8722 49.818 55.7002 49.6664 55.5498 49.4932C55.3133 49.2767 55.0984 49.0602 54.9479 48.822C53.6582 46.8518 51.8527 46.0507 49.0799 46.2672C47.7473 46.3755 46.3716 46.3538 45.039 46.3322C43.9213 46.3105 42.7606 46.3105 41.6429 46.3538C40.998 46.3755 40.1598 46.9384 39.8159 47.5446C39.5364 48.021 39.9878 49.0386 40.4177 49.4283C40.8476 49.818 41.6429 49.8396 42.2232 49.8396C43.3409 49.8613 44.4801 49.8613 45.5764 49.8613C47.0165 49.8613 48.5211 49.8613 49.9827 49.8829C50.4986 49.9046 51.1864 50.0562 51.5303 50.4026C52.519 51.3552 53.4433 52.3295 54.4105 53.3904C54.7545 53.7585 55.0984 54.1266 55.4423 54.4946C55.3993 54.6029 55.3348 54.6895 55.2918 54.7977C55.1629 55.0575 55.0339 55.2957 54.9264 55.5339C53.8087 58.0454 54.475 61.0116 56.5385 62.7437C57.7207 63.7396 59.1608 64.2593 60.6009 64.2593C61.7831 64.2593 62.9653 63.9128 63.9971 63.22C66.3399 61.6395 67.3072 58.8465 66.4474 56.1185C65.6306 53.6502 63.2877 51.3552 60.429 51.9398ZM57.9141 57.9804C57.9141 57.2443 58.2151 56.5731 58.7309 56.0751C59.2253 55.5988 59.8486 55.339 60.515 55.339C60.5365 55.339 60.5579 55.339 60.5794 55.339C62.0411 55.3823 63.2018 56.5948 63.1803 58.067C63.1588 58.7815 62.8579 59.4744 62.3205 59.994C61.8046 60.492 61.1598 60.7518 60.4935 60.7301C59.0748 60.6868 57.9141 59.4527 57.9141 57.9804Z" fill="#304FFE"/>
<path d="M45.8132 30.1589C45.4693 30.8084 45.1469 31.0466 44.5021 31.0466H44.4806C42.1377 31.0249 39.7303 31.0249 37.4304 31.0249C36.5706 31.0249 35.6894 31.0249 34.8296 31.0249H34.6147V31.1548H33.9268C33.2605 31.1548 32.5727 31.1548 31.9064 31.1548C31.0466 31.1548 30.4877 31.328 30.1438 31.6961C29.8644 31.9992 29.7139 32.4322 29.7354 32.9952C29.7999 34.4458 30.8746 34.619 31.9279 34.619C33.9268 34.5973 35.9473 34.5973 37.9248 34.5973C40.0312 34.5973 42.2237 34.5973 44.3731 34.5757C45.0394 34.5757 45.4048 34.6839 45.7273 35.3984C46.8235 37.8017 48.9084 39.1874 51.2728 39.1874C51.7672 39.1874 52.2831 39.1224 52.7989 39.0142C55.4857 38.3646 57.5062 35.7881 57.5277 32.9952C57.5492 30.2022 55.5717 27.5824 52.9064 26.9112C49.9832 26.1101 47.2104 27.4092 45.8132 30.1589ZM54.0026 32.9519C53.9596 34.3375 52.67 35.5716 51.2943 35.5716C51.2728 35.5716 51.2513 35.5716 51.2298 35.5716C50.542 35.55 49.8757 35.2469 49.3813 34.7272C48.8869 34.2076 48.629 33.5148 48.6505 32.8219C48.672 32.1291 48.9944 31.4363 49.5533 30.9167C50.0476 30.4403 50.6925 30.1805 51.2943 30.1805C51.3158 30.1805 51.3588 30.1805 51.3803 30.1805C52.7559 30.2238 54.0456 31.6095 54.0026 32.9519Z" fill="#304FFE"/>
</svg>
