<svg width="106" height="61" viewBox="0 0 106 61" fill="none" xmlns="http://www.w3.org/2000/svg">
<path d="M66.7798 44.7543C67.4782 44.2887 67.8773 43.4574 67.844 42.4597V42.4265C67.844 42.36 67.844 42.2934 67.8108 42.2269C67.7775 42.0274 67.7775 41.7946 67.711 41.5286L67.2787 39.0677C66.7798 36.0747 66.2478 32.982 65.6824 29.9226C65.5827 29.3905 65.6824 29.1244 66.0815 28.7254C67.6445 27.2289 69.1742 25.7324 70.7039 24.2359C72.0674 22.9057 73.3976 21.6088 74.7611 20.3118C75.3597 19.7465 76.0913 18.8154 75.6257 17.5184C75.2266 16.3212 74.1625 16.0219 73.1981 15.8889C71.4688 15.6561 69.7395 15.3901 68.0103 15.124C65.7489 14.7915 63.4211 14.4589 61.1265 14.1264C60.6942 14.0599 60.4946 13.9269 60.2951 13.4613C59.3307 11.4992 58.3663 9.53719 57.4019 7.54188C56.6038 5.91238 55.7724 4.24963 54.9743 2.62013C54.542 1.72224 53.9101 0.791096 52.5467 0.824352C51.2497 0.857607 50.6511 1.72224 50.2188 2.58687C49.5205 4.01684 48.8221 5.44681 48.1237 6.87678C47.0596 9.00511 45.9622 11.2332 44.898 13.428C44.6652 13.8936 44.4324 14.0599 43.9669 14.1264C41.4062 14.4922 38.8123 14.858 36.2849 15.2238C34.8217 15.4233 33.3585 15.6561 31.9285 15.8557C30.4985 16.0552 29.6339 16.7868 29.4676 17.9175C29.3014 19.0149 29.9 19.7465 30.4985 20.3451L32.0283 21.8416C34.3561 24.1029 36.7838 26.464 39.1449 28.8251C39.3776 29.0579 39.5772 29.5567 39.5439 29.8228C38.9121 33.8799 38.2137 37.9038 37.5154 41.7281C37.3158 42.759 37.2826 43.9229 38.38 44.6878C38.8123 44.9871 39.2446 45.1201 39.6769 45.1201C40.2755 45.1201 40.8741 44.8541 41.4062 44.588C42.6367 43.9229 43.9003 43.2911 45.1308 42.626C47.2591 41.4953 49.4872 40.3314 51.6155 39.1675C52.3471 38.7684 52.846 38.7684 53.6108 39.2007C57.1691 41.1628 60.7607 43.0251 64.1194 44.7543C65.1171 45.1866 66.0482 45.1866 66.7798 44.7543ZM61.6586 26.4973C60.927 27.1956 60.6277 28.027 60.7939 28.9914C61.2262 31.4523 61.6253 33.8799 62.0576 36.3408L62.3902 38.3028C62.3902 38.3361 62.3902 38.4026 62.4234 38.4359C61.7583 38.07 61.0932 37.7375 60.4281 37.405C58.3996 36.3408 56.4708 35.3431 54.5752 34.279C53.9101 33.9132 53.3115 33.7469 52.6797 33.7469C52.0478 33.7469 51.416 33.9464 50.7509 34.3122C48.8554 35.3764 46.9598 36.374 44.9313 37.405C44.2994 37.7375 43.6343 38.07 42.9692 38.4359L43.1355 37.5047C43.3018 36.374 43.5013 35.3431 43.6676 34.279C43.9669 32.4832 44.2661 30.7539 44.5654 29.0912C44.765 28.0603 44.4324 27.1956 43.5345 26.3643C42.3706 25.2336 41.2067 24.1362 40.0428 23.0055C39.1449 22.1076 38.2137 21.243 37.3158 20.3451C37.1828 20.2121 37.0165 20.079 36.8503 19.9793L38.1805 19.7798C39.4774 19.5802 40.8076 19.3807 42.1046 19.1812C42.9692 19.0481 43.8006 18.9484 44.6652 18.8154C45.2638 18.7156 45.8291 18.6491 46.4277 18.5493C47.3589 18.4163 48.0572 17.8842 48.5561 16.82C49.587 14.6917 50.6511 12.5301 51.682 10.4683L52.4136 9.0051C52.4802 8.83883 52.5799 8.67255 52.6797 8.50628C53.0122 9.17138 53.3115 9.80323 53.6441 10.4683C54.675 12.5301 55.6394 14.4922 56.6038 16.5208C57.2356 17.8177 58.1003 18.4828 59.4637 18.6491C61.6918 18.9151 63.9532 19.2809 66.148 19.6135C66.8131 19.7132 67.5115 19.813 68.1766 19.9128C67.9438 20.1456 67.711 20.4116 67.4782 20.6444C66.6468 21.5423 65.7822 22.4402 64.9176 23.338C63.8867 24.369 62.8225 25.4331 61.7583 26.4308L61.6586 26.4973Z" fill="white"/>
<path d="M27.8713 48.878C27.7383 48.1796 27.6385 47.5145 27.5055 46.8162C27.173 45.0536 26.8404 43.1914 26.5744 41.3956C26.5079 41.063 26.7074 40.5309 26.9402 40.2649C28.4367 38.7352 30.0329 37.2054 31.5626 35.709L32.4605 34.8443C33.2586 34.0795 33.4914 33.1483 33.1589 32.1839C32.8596 31.3193 32.1612 30.7872 31.1303 30.6209C30.0994 30.4879 29.0685 30.3216 28.0043 30.1554C26.4746 29.9226 24.9116 29.6898 23.3819 29.4903C22.9163 29.4238 22.7168 29.2907 22.5173 28.8584C21.9519 27.6945 21.3866 26.5306 20.8212 25.3999C20.2892 24.3025 19.7571 23.2383 19.225 22.1409C18.8592 21.4093 18.2273 20.4116 16.8971 20.4116H16.8639C15.5337 20.4116 14.9018 21.3428 14.536 22.1741C13.4386 24.4687 12.3412 26.6968 11.2105 28.8917C11.0775 29.1245 10.7117 29.4237 10.4124 29.457C8.18431 29.8228 5.75669 30.2219 2.79698 30.6209C1.5998 30.7872 0.86819 31.3525 0.535639 32.3169C0.136578 33.5141 0.768425 34.3455 1.46678 34.9774C1.99886 35.4762 2.49769 36.0083 3.02977 36.5071C4.09393 37.5712 5.1581 38.6354 6.32202 39.6331C7.12015 40.3314 7.31968 41.0298 7.08689 42.227C6.72109 43.923 6.45504 45.5857 6.189 47.2152C6.08924 47.8471 5.98947 48.4457 5.88971 49.0443V49.1108C5.85645 50.2414 6.28877 51.1393 7.02038 51.6049C7.71874 52.0372 8.61663 52.0372 9.48126 51.5716C11.6096 50.4742 13.9042 49.277 16.3983 47.9468C16.7974 47.7473 17.0634 47.7473 17.4625 47.9468C19.1252 48.8447 20.8545 49.7426 22.5173 50.6072C23.1158 50.9065 23.7144 51.2391 24.313 51.5384C24.7786 51.8044 25.2442 51.9042 25.6765 51.9042C26.1753 51.9042 26.6076 51.7379 27.0399 51.4386C27.7716 50.9065 28.0709 50.0087 27.8713 48.878ZM21.6526 40.797C21.8854 41.8944 22.0517 43.0251 22.2512 44.2223C22.3177 44.5548 22.351 44.8874 22.4175 45.2199L21.9519 44.9871C21.2536 44.6213 20.5885 44.2888 19.9234 43.923L19.6241 43.7567C19.1585 43.5239 18.6929 43.2911 18.2273 43.0251C17.3295 42.5263 16.4316 42.5263 15.5004 43.0251C14.4363 43.5904 13.3388 44.1558 12.2082 44.7543L11.277 45.2532C11.3103 44.9871 11.3768 44.6878 11.4101 44.4218C11.5763 43.3909 11.7093 42.4265 11.9421 41.4621C12.3412 39.7993 11.9754 38.5356 10.7117 37.405C9.94683 36.7399 9.31498 35.975 8.61662 35.1769C8.45035 34.9773 8.28407 34.7778 8.08454 34.5783C8.18431 34.545 8.31733 34.545 8.45035 34.5118C9.18196 34.3788 9.98008 34.2125 10.745 34.2125C13.1393 34.2125 14.7023 33.0818 15.5004 30.7872C15.7665 30.0556 16.1323 29.3572 16.5313 28.6256C16.6311 28.4594 16.7309 28.2598 16.8306 28.0935C16.9637 28.3928 17.1299 28.6921 17.2629 28.9582C17.8283 30.0556 18.3271 31.0865 18.8259 32.1507C19.3248 33.2481 20.1229 33.8134 21.3533 33.9464C22.484 34.0795 23.6479 34.2457 24.7786 34.4453C25.1777 34.5118 25.5767 34.5783 25.9758 34.6448C25.876 34.7446 25.743 34.8443 25.6432 34.9441C25.1777 35.3432 24.7121 35.7755 24.2465 36.1745C23.9472 36.4406 23.6812 36.7399 23.4151 37.0059C23.1158 37.3052 22.8165 37.6045 22.5173 37.8705C21.7191 38.7019 21.4198 39.6331 21.6526 40.797Z" fill="white"/>
<path d="M104.458 34.7777C105.189 34.0461 105.422 33.2147 105.09 32.3168C104.757 31.419 104.092 30.8869 103.094 30.7206L102.163 30.5876C99.9019 30.255 97.574 29.9225 95.2794 29.5234C94.9801 29.4569 94.5811 29.1576 94.448 28.8916C93.2841 26.6302 92.1867 24.3689 91.1558 22.2738C90.7567 21.4424 90.1249 20.478 88.7282 20.478C87.4312 20.5113 86.7994 21.4424 86.4003 22.2738C85.835 23.471 85.2364 24.6682 84.6378 25.8654C84.139 26.8963 83.6401 27.8939 83.1413 28.9248C82.9418 29.3239 82.7755 29.5234 82.2767 29.5899C80.7469 29.7895 79.1839 30.0222 77.6875 30.255C76.6566 30.4213 75.6589 30.5543 74.628 30.7206C73.4641 30.8869 72.7325 31.419 72.4332 32.3834C72.1339 33.381 72.3999 34.2789 73.2645 35.1103C73.7966 35.6091 74.3287 36.1412 74.8275 36.64C75.7587 37.5711 76.7231 38.5355 77.754 39.4002C78.9179 40.3646 79.2172 41.329 78.8182 42.8254C78.4191 44.3884 78.1863 45.9847 77.9535 47.5144C77.8538 48.1463 77.754 48.7781 77.6542 49.41V49.4765C77.6542 50.4409 78.0533 51.2722 78.7849 51.7046C79.4833 52.1369 80.3811 52.1369 81.2125 51.7378C83.2743 50.7069 85.4692 49.543 88.1296 48.0798C88.5619 47.847 88.8612 47.847 89.2935 48.0798C91.2888 49.1439 93.3839 50.2746 96.1108 51.6713C96.5764 51.9041 97.0752 52.0371 97.5075 52.0371C97.7735 52.0371 98.0396 52.0039 98.2724 51.9041C98.8045 51.7046 99.2035 51.3055 99.4363 50.7734C99.7356 50.0418 99.7023 49.1439 99.6026 48.5121C99.2368 46.1177 98.8377 43.7233 98.3721 41.3955C98.2724 40.9299 98.3721 40.7304 98.7047 40.3978C100.5 38.7018 102.296 36.906 104.458 34.7777ZM93.7497 41.6948C93.8162 41.9941 93.8827 42.3599 93.9492 42.7589C94.049 43.3908 94.182 44.0559 94.2818 44.7542L94.3815 45.2863C94.1155 45.1533 93.8495 45.0203 93.6167 44.8873C92.6523 44.3884 91.7211 43.9229 90.8565 43.3908C90.1581 42.9585 89.493 42.7589 88.8279 42.7589C88.1628 42.7589 87.4977 42.9585 86.8326 43.3908C85.968 43.9229 85.0701 44.3884 84.1057 44.854C83.8397 44.987 83.5736 45.1201 83.2743 45.2863C83.3408 44.9538 83.3741 44.6212 83.4406 44.2887C83.6401 43.0915 83.8397 41.9608 84.0392 40.8301C84.272 39.6662 84.0059 38.7683 83.1746 37.937C82.3432 37.1056 81.5451 36.2742 80.7137 35.3763C80.4809 35.1435 80.2481 34.9107 80.0153 34.6447C80.1483 34.6114 80.2814 34.5782 80.4476 34.5449C81.1793 34.4119 81.9109 34.2456 82.6425 34.2456C85.1366 34.2789 86.7329 33.115 87.5642 30.7206C87.797 30.0222 88.1628 29.3571 88.5619 28.6255C88.6617 28.4592 88.7282 28.293 88.8279 28.1267C88.9609 28.426 89.1272 28.692 89.2602 28.9913C89.7923 30.0555 90.3244 31.0864 90.79 32.1173C91.3221 33.2812 92.1867 33.9131 93.4504 34.0461C94.5478 34.1459 95.6452 34.3454 96.8424 34.5117C97.175 34.5782 97.5075 34.6114 97.8401 34.6779C97.7403 34.7777 97.6073 34.8775 97.5075 35.0105C96.9422 35.5426 96.4433 36.0082 95.9778 36.4737C95.745 36.7065 95.5122 36.9393 95.3127 37.1388C93.3174 39.0344 93.2841 39.1674 93.7497 41.6948Z" fill="white"/>
<path d="M56.9696 55.3294C56.8698 55.3294 56.77 55.3294 56.6703 55.3294H38.9785C38.1804 55.3294 37.3491 55.3294 36.5509 55.3294C34.2563 55.3294 31.862 55.2961 29.5341 55.3626C28.8025 55.3959 27.9379 55.7284 27.2728 56.2605C26.5744 56.8258 26.4414 57.7902 26.9402 58.7214C27.4058 59.6193 28.2039 60.0516 29.3346 60.0516C32.7266 60.0516 36.1519 60.0516 39.5439 60.0516H47.0263C48.3232 60.0516 49.5869 60.0516 50.8839 60.0516C52.9124 60.0516 54.941 60.0516 56.9696 60.0516C58.5325 60.0516 59.63 59.1204 59.6965 57.757C59.7297 57.1584 59.4969 56.5931 59.0979 56.1607C58.5658 55.6619 57.8342 55.3626 56.9696 55.3294Z" fill="white"/>
<path d="M76.4238 55.3627C73.5971 55.3295 70.8037 55.3295 68.0768 55.3627C66.6135 55.3627 65.5161 56.3936 65.5161 57.7238C65.5161 59.054 66.6135 60.0517 68.0768 60.0517C68.6088 60.0517 69.1742 60.0517 69.7395 60.0517C70.1718 60.0517 70.5709 60.0517 70.97 60.0517C71.4023 60.0517 71.8346 60.0517 72.2669 60.0517C72.6992 60.0517 73.0983 60.0517 73.5306 60.0517C74.4617 60.0517 75.4261 60.0517 76.3573 60.0517C77.9535 60.0184 79.0177 59.0873 79.0177 57.6906C78.9844 56.3604 77.9203 55.3627 76.4238 55.3627Z" fill="white"/>
</svg>
