<svg width="119" height="109" viewBox="0 0 119 109" fill="none" xmlns="http://www.w3.org/2000/svg">
<path d="M106.868 103.856V47.4975C106.868 38.6602 106.868 29.8229 106.868 20.9522C106.868 18.5178 105.897 17.5173 103.487 17.5173H88.4891C85.6435 17.5173 84.8736 18.2843 84.8736 21.0856V103.823H82.6975V42.2952C82.6975 39.9941 81.7936 39.0937 79.4837 39.0937C75.4664 39.0937 71.4491 39.0937 67.4319 39.0937H64.2515C61.6068 39.0937 60.6694 40.0275 60.6694 42.6953V103.79H58.6943V57.2686C58.6943 57.1685 58.6943 57.0685 58.6943 56.9684C58.6943 56.735 58.6943 56.4682 58.6943 56.2014C58.5604 54.5674 57.5561 53.5669 55.9491 53.5669C50.7936 53.5669 45.3368 53.5669 39.244 53.5669C37.8044 53.5669 36.8001 54.534 36.7332 55.968C36.6997 56.3348 36.6997 56.6683 36.6997 57.0351V103.823H34.4902V73.776C34.4902 71.1415 33.6867 70.3411 31.109 70.3411H16.0107C13.3995 70.3411 12.4956 71.2749 12.4956 73.8761V103.89H0.577637V108.959H118.82V103.823H106.868V103.856ZM17.718 81.0793V75.5768H29.2677V81.0793H17.718ZM17.6846 103.823V86.3817H29.2677V103.823H17.6846ZM53.4383 69.5408V103.823H41.9221V69.5408H53.4383ZM41.8887 64.3051V58.8026H53.4718V64.3051H41.8887ZM77.4416 55.1343V103.856H65.9254V55.1343H77.4416ZM77.4416 44.2961V49.8319H65.8919V44.2961H77.4416ZM101.646 33.5579V103.856H90.096V33.5579H101.646ZM90.0625 28.2222V22.753H101.679V28.2222H90.0625Z" fill="#304FFE"/>
<path d="M69.206 9.6138V17.7842H74.3281V17.6174C74.3281 16.2501 74.3281 14.9162 74.3281 13.5823C74.3281 10.2474 74.3615 6.77919 74.2946 3.37766C74.2611 1.71024 73.2233 0.776489 71.4156 0.776489C68.57 0.776489 65.7244 0.776489 62.9123 0.776489H55.949V5.94548H65.4231L10.8885 60.2366L10.7546 60.37L14.5041 64.0717L69.206 9.6138Z" fill="#304FFE"/>
</svg>
