<svg width="60" height="73" viewBox="0 0 60 73" fill="none" xmlns="http://www.w3.org/2000/svg">
<path d="M60 5.40038C60 4.81376 59.8132 4.29615 59.4397 3.93382C59.0662 3.55424 58.5569 3.36445 57.9796 3.36445C51.4261 3.38171 44.7708 3.38171 38.3362 3.38171H31.6638V0H30.764C30.1698 0 29.5925 0 29.0153 0C28.6078 0 28.4041 -3.08519e-08 28.2852 0.120775C28.1664 0.24155 28.1664 0.448594 28.1664 0.86268V2.57079V3.38171H23.107H21.6638C15.2292 3.38171 8.57385 3.38171 2.02037 3.36445C1.42615 3.36445 0.933786 3.55424 0.560272 3.93382C0.203735 4.29615 0 4.81376 0 5.40038C0.0169779 14.5275 0.016978 23.81 0.016978 32.7818V43.6171C0.016978 46.533 0.016978 49.4661 0.016978 52.3819C0.016978 53.6587 0.713073 54.3661 1.98642 54.3661H13.2088H27.2666L18.1154 73H18.2513C18.5399 73 18.8285 73 19.1002 73C19.8472 73 20.5433 73 21.2394 73H21.2564C21.511 73 21.6638 72.8965 21.7827 72.6549C24.4312 67.2546 27.1307 61.7507 29.7453 56.4365L29.8132 56.2985C29.8302 56.264 29.8642 56.2122 29.8981 56.1777L29.9151 56.2122C29.966 56.2985 30 56.3848 30.0509 56.4711L31.1036 58.6278C33.3956 63.3035 35.7046 67.9792 37.9966 72.6549C38.1155 72.9137 38.2682 73 38.5399 73C39.0153 72.9827 39.4907 72.9827 39.966 73C40.1528 73 40.3565 73 40.5433 73H41.6808L32.5297 54.3661H39.9491C45.9593 54.3661 51.9694 54.3661 57.9796 54.3661C59.253 54.3661 59.9491 53.6587 59.9491 52.3819C59.9491 49.4316 59.9491 46.4812 59.9491 43.5308V32.8509C59.983 23.8617 59.983 14.562 60 5.40038ZM56.4686 6.9532V50.8291H3.54839V6.9532H11.8846C11.9355 6.9532 11.9864 6.97046 12.0543 6.97046C20.3565 6.97046 28.6757 6.9532 36.9779 6.9532H56.4686Z" fill="#304FFE"/>
</svg>
