<svg width="90" height="62" viewBox="0 0 90 62" fill="none" xmlns="http://www.w3.org/2000/svg">
<path d="M37.3607 21.2596C36.8118 20.7107 36.2629 20.1618 35.714 19.6391C35.531 19.4561 35.3219 19.2993 35.0344 19.1425C34.4071 18.7765 33.3094 18.9334 32.7866 19.4822C31.8195 20.5016 31.7411 21.7301 32.5775 22.7756C33.1003 23.429 33.7014 24.0563 34.2764 24.6575C34.5378 24.945 34.7992 25.2064 35.0606 25.4939C35.1128 25.5723 35.1913 25.6246 35.2435 25.7291C35.0867 25.7291 34.9822 25.7552 34.8515 25.7552C33.4662 25.7552 32.107 25.7552 30.7217 25.7552C26.8795 25.7552 22.9066 25.7814 18.986 25.703C17.5746 25.6768 16.9211 26.461 16.4768 27.2451C16.2938 27.5587 16.2415 28.0292 16.32 28.4213C16.5291 29.5452 17.47 30.3293 18.6201 30.3816H18.6985C19.7962 30.4339 20.9463 30.4861 22.0441 30.5123C25.1283 30.5384 28.2387 30.5384 31.3229 30.5384H35.1913H35.2435L35.139 30.643C34.956 30.8259 34.8253 30.9828 34.6946 31.1396C34.4333 31.4271 34.1719 31.6885 33.9367 31.976C33.2832 32.6556 32.6298 33.3874 32.0025 34.1193C31.4536 34.7466 31.4275 35.5046 31.8979 36.2887C32.3423 37.0467 32.9696 37.491 33.623 37.5694C33.7014 37.5694 33.7798 37.5956 33.8582 37.5956C34.4071 37.5956 34.9822 37.3342 35.5049 36.8376C37.7789 34.642 40.1051 32.3158 42.6405 29.702C43.7382 28.5781 43.7382 27.7417 42.6666 26.6178C40.9154 24.7882 39.1119 23.0108 37.3607 21.2596Z" fill="#304FFE"/>
<path d="M89.2961 24.8404C89.2177 24.5007 89.1393 24.187 89.0609 23.8472C88.9041 23.1415 88.7211 22.4096 88.4859 21.6778C86.5778 15.5878 82.5788 11.8239 76.5933 10.4909C75.1818 10.1773 73.692 10.1773 72.2544 10.1511C71.9931 10.1511 71.7317 10.1511 71.4965 10.1511C68.0986 10.0989 64.6484 10.0989 61.3028 10.125C61.0676 10.125 60.9369 10.0989 60.8585 10.0205C60.7801 9.94204 60.7539 9.81135 60.7539 9.57612C60.7801 8.34765 60.7801 7.11919 60.7539 5.943C60.7539 4.92364 60.7539 3.90427 60.7539 2.88491C60.7539 2.44057 60.6232 2.10078 60.2835 1.78713C59.9959 1.49962 59.7346 1.23824 59.447 0.924591L59.3948 0.872314H2.23197L2.17969 0.924591C1.97059 1.15983 1.70922 1.4212 1.44784 1.65644C1.02964 2.0485 0.84668 2.46671 0.84668 3.04173C0.872817 13.7058 0.872817 24.3961 0.898955 35.0602L0.925092 48.9393C0.925092 49.8802 0.95123 50.8212 0.977367 51.736C0.977367 52.128 1.00351 52.5462 1.00351 52.9383C1.02964 53.8008 1.34329 54.1929 2.12742 54.3759C3.04223 54.5588 3.93091 54.6634 4.76731 54.6634C6.88445 54.7156 9.02773 54.6895 11.0926 54.6895H11.4585C11.7983 54.6895 11.929 54.7418 12.0074 55.0816C13.0006 58.6886 15.4314 60.9625 19.2998 61.8251C19.2998 61.8251 19.3259 61.8512 19.3521 61.8512C19.3782 61.8773 19.3782 61.8773 19.4043 61.8773L19.4305 61.9035H21.8874H21.9397C22.1488 61.8251 22.384 61.7728 22.5931 61.6944C23.0636 61.5637 23.5602 61.4069 24.0307 61.2239C26.3569 60.2829 28.0036 58.4272 29.2059 55.3691C29.3366 55.0293 29.4673 54.9247 29.7548 54.9247C30.6696 54.8986 31.5844 54.8725 32.4731 54.8463C34.1459 54.7941 35.871 54.7418 37.5961 54.7418C43.2418 54.7156 48.9659 54.7156 54.5071 54.7156C57.2776 54.7156 60.0221 54.7156 62.7927 54.7156H62.8188C63.1324 54.7156 63.2631 54.7156 63.3677 55.0554C64.0473 57.9306 65.7985 59.9954 68.5691 61.1716C69.0918 61.4069 69.6407 61.5375 70.1634 61.6944C70.3987 61.7728 70.6601 61.8251 70.8953 61.9035H73.2477H73.2738C73.5613 61.7989 73.875 61.6944 74.1625 61.5637C74.8159 61.3284 75.4694 61.0932 76.0967 60.7796C78.1615 59.7602 79.6252 58.009 80.6185 55.2384C80.7492 54.8986 80.8537 54.7941 81.1673 54.7941L82.0038 54.7679C83.1015 54.7418 84.2254 54.7156 85.3232 54.6634C86.1335 54.6372 87.0222 54.585 87.8847 54.4281C88.2245 54.3497 88.512 54.1668 88.8257 53.9838C88.9563 53.9054 89.087 53.827 89.2177 53.7486L89.2961 53.7224V24.8666V24.8404ZM55.6571 49.9063H53.174C45.4373 49.9325 37.4392 49.9848 29.598 50.0109C29.2059 50.0109 29.0229 49.9063 28.8661 49.5666C27.141 46.0903 24.3705 44.3129 20.6328 44.2606C20.5805 44.2606 20.5282 44.2606 20.476 44.2606C17.3395 44.2606 14.9087 45.7505 13.0006 48.8347C12.4517 49.7234 11.9813 50.1154 10.8574 49.9848C10.0471 49.8802 9.21069 49.8802 8.37429 49.8802C8.08678 49.8802 7.8254 49.8802 7.56403 49.8802C7.09355 49.8802 6.62308 49.8802 6.1526 49.8802C5.99578 49.8802 5.81281 49.8802 5.65599 49.8802H5.57757V5.68162H17.3133C24.8671 5.68162 32.4208 5.65549 39.9746 5.65549C42.8758 5.65549 45.8033 5.68162 48.6522 5.68162C50.9785 5.68162 53.3309 5.70776 55.6571 5.70776C56.1014 5.70776 56.206 5.76003 56.206 6.23051C56.2321 18.3583 56.2583 30.6952 56.2844 42.614L56.3105 49.3052C56.3105 49.5927 56.3105 49.8018 56.2583 49.8541C56.1537 49.9063 55.9446 49.9063 55.6571 49.9063ZM20.6067 57.1987H20.5805C19.5612 57.1987 18.5418 56.7544 17.7838 55.9702C16.9997 55.16 16.5292 54.0883 16.5553 53.0167C16.5815 50.7689 18.4372 48.9393 20.7112 48.9393C20.7112 48.9393 20.7112 48.9393 20.7373 48.9393C21.0249 48.9393 21.2862 48.9654 21.5738 49.0177C22.384 49.1745 23.0897 49.5404 23.6386 50.0893C24.2921 50.7427 24.6841 51.6314 24.7625 52.6246C24.7625 52.7553 24.7887 52.9122 24.7887 53.0428C24.7887 53.1997 24.7887 53.3565 24.7625 53.4872C24.5273 55.7089 22.8806 57.1987 20.6067 57.1987ZM80.1218 49.3836C79.0763 47.2142 77.3774 45.6721 75.1296 44.7572C74.3977 44.4697 73.5875 44.3652 72.8033 44.2868C69.5361 43.9731 66.8178 45.2539 64.7268 48.0506C64.387 48.4949 64.1518 48.9915 63.9427 49.4881C63.7859 49.8279 63.6291 49.9325 63.3154 49.9325C62.5836 49.9063 61.9563 49.9063 61.3551 49.9586C61.1199 49.9848 60.9892 49.9586 60.9108 49.8802C60.8323 49.8018 60.8062 49.645 60.8062 49.4097C60.8323 44.9663 60.8323 40.4184 60.8323 36.0534V32.3419V28.2122C60.8323 23.9779 60.8323 19.5868 60.8323 15.2741C60.8323 15.0127 60.8585 14.8559 60.9369 14.8036C61.0153 14.7252 61.146 14.6991 61.3551 14.6991H61.3812C63.3677 14.7252 65.4064 14.7252 67.3667 14.7252C69.0918 14.7252 70.7907 14.7513 72.5158 14.7513C75.0773 14.7775 77.0638 15.248 78.7888 16.215C81.3242 17.6526 83.0754 19.9266 84.147 23.1938C84.513 24.3438 84.7221 25.4939 84.7482 26.5655C84.8527 31.6101 84.905 36.7592 84.9834 41.7253C85.0096 44.3129 85.0618 46.9005 85.088 49.4881C85.088 49.6972 85.0618 49.8279 85.0096 49.9063C84.9573 49.9586 84.8266 49.9848 84.6698 49.9848H84.6436C83.3629 49.9586 82.2129 49.9586 81.1412 49.9848C80.5401 49.9325 80.3309 49.8018 80.1218 49.3836ZM71.9669 57.1987C70.9214 57.1987 69.9021 56.7544 69.1441 55.9702C68.3599 55.16 67.9156 54.0883 67.9156 53.0167C67.9418 50.7166 69.7714 48.9393 72.0453 48.9393H72.0715C74.4239 48.9654 76.0967 50.6905 76.0967 53.0428C76.0967 53.3565 76.0705 53.644 76.0183 53.9315C75.6785 55.8918 74.1102 57.1987 71.9669 57.1987Z" fill="#304FFE"/>
</svg>
