<svg width="77" height="76" viewBox="0 0 77 76" fill="none" xmlns="http://www.w3.org/2000/svg">
<path d="M76.2159 20.195C75.8927 19.5982 75.3456 19.1506 74.6991 18.9517C74.3261 18.8273 73.9034 18.8273 73.5304 18.8273C57.0691 18.8273 40.6328 18.8273 24.1715 18.8273H18.1788C18.154 18.7776 18.154 18.7279 18.1291 18.6782L14.1506 2.4407C13.8024 1.04821 12.8575 0.2525 11.5148 0.227634C9.1525 0.202768 6.56644 0.202768 3.6074 0.227634C2.53816 0.227634 1.69272 0.749818 1.1954 1.71959C1.1208 1.86879 1.07107 2.01798 1.02134 2.14231C0.996473 2.19204 0.971606 2.26664 0.946741 2.31637L0.921875 2.3661V9.82588L0.946741 9.87561C0.946741 9.90048 0.971607 9.90048 0.971607 9.92535L0.996473 9.95021C1.39433 11.293 2.56303 12.1135 3.83119 11.9395C5.24855 11.7654 6.16859 10.7211 6.19345 9.27883C6.21832 8.48312 6.19345 7.68741 6.19345 6.91657C6.19345 6.56845 6.19345 6.22032 6.19345 5.8722V5.47434H8.63031C9.0033 5.47434 9.27683 5.47435 9.35143 5.54894C9.42602 5.62354 9.50062 5.8722 9.60008 6.24519C13.5538 22.3086 17.5075 38.3471 21.4611 54.4105C21.859 55.977 22.779 56.723 24.3953 56.723C28.6474 56.723 32.9243 56.723 37.1764 56.723C45.6806 56.723 54.1598 56.723 62.664 56.723C62.9375 56.723 63.1613 56.6982 63.3851 56.6733C64.0813 56.5738 64.703 56.176 65.1257 55.5792C65.5484 54.9824 65.6976 54.2613 65.5733 53.565C65.2998 52.2472 64.2305 51.4266 62.8132 51.4266H26.1857L24.1715 43.2954H67.488C69.0545 43.2954 69.9248 42.6738 70.3724 41.1818C71.1433 38.745 71.9141 36.3081 72.6849 33.8464L73.4558 31.3846C74.4007 28.351 75.3705 25.3174 76.3154 22.3086C76.6138 21.5875 76.564 20.8415 76.2159 20.195ZM70.273 24.1487L70.074 24.7454C69.8502 25.4168 69.6513 26.0882 69.4524 26.7596L68.5821 29.5446C67.7118 32.3047 66.8415 35.0897 65.9711 37.8498C65.9214 38.0487 65.8966 38.0487 65.6728 38.0487C54.309 38.0487 42.9453 38.0487 31.5816 38.0487C30.1642 38.0487 28.722 38.0487 27.3046 38.0487H22.9282L19.4967 24.1487H70.273Z" fill="#304FFE"/>
<path d="M30.1144 60.5771C28.1251 60.5771 26.2602 61.348 24.8677 62.7653C23.4752 64.1578 22.7043 66.0477 22.7043 68.0121C22.7043 72.1149 26.0364 75.447 30.1393 75.447C32.1285 75.447 33.9935 74.6761 35.386 73.2588C36.7785 71.8414 37.5493 69.9765 37.5493 68.0121C37.5493 63.9092 34.2173 60.5771 30.1144 60.5771ZM27.9759 68.0121C27.9759 67.4401 28.1997 66.8931 28.6224 66.4952C29.0203 66.0974 29.5673 65.8736 30.1144 65.8736H30.1393C31.308 65.8736 32.2777 66.8434 32.2777 68.0121C32.2777 68.584 32.0539 69.1062 31.6561 69.5289C31.2334 69.9516 30.7112 70.1754 30.1393 70.1754C28.9208 70.1505 27.9759 69.2056 27.9759 68.0121Z" fill="#304FFE"/>
<path d="M58.2377 60.5771C56.2484 60.5771 54.3835 61.348 52.991 62.7653C51.5985 64.1578 50.8276 66.0477 50.8276 68.0121C50.8276 72.1149 54.1597 75.447 58.2625 75.447C62.3406 75.447 65.6726 72.1398 65.6975 68.0618C65.6975 66.0725 64.9266 64.1827 63.5341 62.7653C62.0919 61.348 60.227 60.5771 58.2377 60.5771ZM60.3762 68.0121C60.3762 68.584 60.1524 69.131 59.7545 69.5289C59.3318 69.9516 58.8096 70.1754 58.2377 70.1754C57.6658 70.1754 57.1187 69.9516 56.7209 69.5289C56.323 69.1062 56.0992 68.5591 56.0992 67.9872C56.0992 66.8434 57.0939 65.8487 58.2377 65.8487C58.2377 65.8487 58.2377 65.8487 58.2625 65.8487C59.4064 65.8736 60.3762 66.8434 60.3762 68.0121Z" fill="#304FFE"/>
</svg>
