<svg width="97" height="72" viewBox="0 0 97 72" fill="none" xmlns="http://www.w3.org/2000/svg">
<path d="M95.2312 22.7984C93.5788 21.9942 91.9263 21.1613 90.3029 20.357L80.7073 15.5891C70.7059 10.6488 60.3855 5.50753 50.2102 0.452379C48.9926 -0.150793 47.92 -0.150793 46.7024 0.452379C31.3669 8.09255 15.5385 15.9051 1.62342 22.7984C0.521814 23.3442 0 24.091 0 25.0675C0 26.1015 0.550804 26.8483 1.6814 27.4228C3.50775 28.3419 5.36309 29.2323 7.18945 30.1514C10.0884 31.5875 12.9874 33.0236 15.9153 34.4598C16.2922 34.6608 16.3792 34.8044 16.3792 35.2065C16.3502 39.8883 16.3502 44.5701 16.3792 49.1082C16.3792 50.0848 16.4661 51.0039 16.6691 51.8368C17.1909 54.2782 18.6114 56.4612 20.9306 58.5579C23.5686 60.9131 26.7575 62.6652 30.99 64.0726C35.9762 65.7672 41.3103 66.6289 47.2822 66.7151C53.8049 66.83 59.5738 66.0832 64.9079 64.4173C69.6622 62.9524 73.228 61.0855 76.098 58.5292C79.2289 55.7431 80.7363 52.5262 80.6493 48.7061C80.5914 45.3168 80.5914 41.8414 80.6203 38.5096C80.6203 37.4182 80.6203 36.3267 80.6493 35.2353C80.6493 35.0342 80.6783 34.8331 80.7073 34.7757C81.9539 34.1151 83.1714 33.5119 84.476 32.88C84.6789 32.7939 84.8818 32.679 85.0848 32.5928V34.0002C85.0848 37.9065 85.0848 41.9276 85.0558 45.8913C85.0268 45.9775 84.8818 46.1498 84.7659 46.2072C82.3597 47.4136 81.0552 49.3093 80.9102 51.8368C80.7653 54.3644 81.8669 56.4324 84.0701 57.8111C84.331 57.9834 84.331 57.9834 84.2151 58.2707C83.8382 59.1611 83.4903 60.0802 83.1714 60.9706C83.0265 61.344 82.8816 61.7174 82.7656 62.062C82.5047 62.7226 82.2728 63.3833 82.0119 64.0152C81.4321 65.5087 80.8523 67.031 80.3015 68.5533C79.9826 69.4437 80.0406 70.3628 80.5334 71.0234C80.9392 71.6266 81.606 71.9426 82.3887 71.9713C83.9252 72 85.5486 72 87.317 72C88.9694 72 90.7667 72 92.7091 71.9713C93.3758 71.9713 93.9556 71.7128 94.3905 71.2532C94.8253 70.7649 95.0572 70.133 94.9992 69.415C94.9703 68.9554 94.7963 68.5246 94.6514 68.0938C93.6367 65.3938 92.5931 62.6939 91.5495 59.9653L90.7667 57.9547C90.7957 57.926 90.8247 57.926 90.8537 57.8973C93.2309 56.4612 94.3325 54.3931 94.1585 51.7794C93.9846 49.2231 92.6221 47.2987 90.2449 46.2072C90.042 46.1211 89.984 46.0636 89.984 45.6902C89.984 40.8649 90.013 35.7235 89.984 30.611C89.984 30.2376 90.071 30.0939 90.4189 29.9503C91.3755 29.4908 92.3322 29.0312 93.2309 28.5717C93.8976 28.227 94.5934 27.8823 95.2601 27.5664C95.695 27.3653 97.0285 26.7047 96.9995 25.1537C96.9416 23.775 95.9559 23.1431 95.2312 22.7984ZM46.0936 24.8665C46.0067 25.5271 46.1806 26.1302 46.5864 26.6185C47.0213 27.1643 47.746 27.5089 48.5867 27.5951C50.0652 27.7387 51.5727 27.8823 53.0222 27.9972C53.8339 28.0547 54.6746 28.1408 55.4863 28.227C57.7185 28.428 59.9507 28.6291 62.1829 28.8302C65.1978 29.0887 68.2128 29.3759 71.2277 29.6344C72.6772 29.7493 74.0977 29.8929 75.5471 30.0078C76.6198 30.0939 77.6924 30.1801 78.736 30.295C77.8663 30.7258 77.0836 31.128 76.3009 31.5013L70.2131 34.5172C63.3425 37.9352 56.211 41.4393 49.2245 44.9435C48.6737 45.2307 48.2968 45.2307 47.746 44.9435C38.2664 40.2042 28.6128 35.4363 19.2492 30.812L12.8424 27.6525C11.19 26.8196 9.50862 26.0154 7.85621 25.1824L8.66792 24.7803C9.79852 24.2058 10.9001 23.6601 12.0017 23.1144L19.3651 19.4666C28.6998 14.8423 38.3534 10.0744 47.833 5.36392C48.3258 5.10542 48.6737 5.10542 49.1665 5.36392C59.3999 10.4478 69.8072 15.6178 79.8956 20.5868L88.8534 25.0101C88.9404 25.0675 89.0274 25.0962 89.1143 25.1537C87.8678 25.9579 86.4763 26.2164 84.563 26.0154C80.0695 25.5271 75.5182 25.1537 71.1117 24.7516C69.4013 24.608 67.6909 24.4643 65.9806 24.292C60.2986 23.775 54.6456 23.2867 48.9636 22.7697C47.4561 22.6261 46.2386 23.5165 46.0936 24.8665ZM21.1915 40.1181C21.1915 39.1128 21.1915 38.1362 21.1915 37.1309C21.3364 37.1884 21.4524 37.2458 21.5683 37.3033C23.5686 38.3086 25.5979 39.2851 27.5982 40.2904C33.686 43.3063 40.0058 46.4083 46.1806 49.539C47.775 50.3433 49.1665 50.3433 50.761 49.539C56.9358 46.4083 63.2555 43.3063 69.3434 40.2904C71.3437 39.2851 73.3439 38.3086 75.3732 37.3033C75.4892 37.2458 75.6341 37.1884 75.7791 37.1309V37.4182C75.7791 38.5383 75.7791 39.6585 75.7791 40.7787C75.7501 43.335 75.7501 45.9775 75.8081 48.5912C75.866 51.1475 74.8224 53.3017 72.6192 55.1399C68.7346 58.3568 64.0962 59.7642 60.4725 60.6259C55.0804 61.8897 49.2535 62.2631 43.1657 61.6886C36.701 61.0855 31.6278 59.6493 27.2213 57.1218C25.279 56.0303 23.1628 54.5655 22.0032 52.239C21.5393 51.3198 21.2784 50.3146 21.2784 49.4529C21.1625 46.3509 21.1625 43.1914 21.1915 40.1181ZM87.5199 53.9049C87.0851 53.9049 86.6502 53.7325 86.3023 53.3879C85.9545 53.0432 85.7515 52.5836 85.7515 52.1528C85.7515 51.722 85.9255 51.2624 86.2733 50.9177C86.6212 50.5731 87.0561 50.372 87.5199 50.372C88.4476 50.372 89.2883 51.1762 89.2883 52.1241C89.2883 53.0432 88.4476 53.9049 87.5199 53.9049ZM89.0274 67.0885H86.0124L87.5199 63.1535L89.0274 67.0885Z" fill="white"/>
</svg>
