<svg width="117" height="105" viewBox="0 0 117 105" fill="none" xmlns="http://www.w3.org/2000/svg">
<path d="M62.0539 92.0066C61.5744 91.5581 60.9236 91.3166 60.1701 91.3511C58.4575 91.4201 57.43 92.5586 57.4985 94.3526C57.5328 95.4221 57.5328 96.4916 57.4985 97.5266C57.4985 97.9061 57.4985 98.2511 57.4985 98.6306H46.093C46.093 97.7681 46.093 96.9056 46.093 96.0431C46.093 93.7661 46.093 91.6271 46.093 89.4535C46.1273 87.418 45.2367 86.2105 43.2502 85.5205C40.8869 84.6925 37.8043 83.5885 34.9272 82.1049C32.6667 80.9664 31.0912 81.2079 29.3786 83.0365C27.9743 84.5545 26.4673 85.969 25.0288 87.349C24.4808 87.8665 23.967 88.3495 23.4532 88.867L15.3015 80.6904C15.8496 80.1729 16.3976 79.6554 16.9798 79.1034C18.5211 77.6199 20.0967 76.1019 21.7064 74.6528C23.282 73.2383 23.5217 71.7203 22.4942 69.6848C21.0899 66.8903 19.9597 64.0612 19.0691 61.3012C18.3499 59.0242 17.1168 58.1272 14.8563 58.2307C12.6985 58.2997 10.5749 58.2997 8.34863 58.2652C7.49236 58.2652 6.67034 58.2652 5.81407 58.2652V46.673C6.70459 46.673 7.56086 46.673 8.41713 46.673C10.7462 46.6385 12.904 46.6385 15.1303 46.7075C17.0826 46.7765 18.2471 45.983 18.9664 44.12C20.2679 40.7389 21.5009 37.7719 22.6997 35.0464C23.5217 33.2178 23.2477 31.8033 21.8092 30.4578C20.1994 28.9398 18.6239 27.4218 17.1168 25.9383C16.6031 25.4208 16.1236 24.9377 15.6098 24.4892L23.7272 16.1056C24.241 16.6232 24.7548 17.1752 25.3028 17.6927C26.7756 19.1762 28.2826 20.7287 29.7211 22.2812C31.1254 23.7647 32.6324 24.0407 34.5162 23.2127C37.085 22.0742 40.0649 20.7287 43.1132 19.6592C45.3052 18.8657 46.2643 17.4512 46.1615 15.0706C46.093 12.9661 46.093 10.8961 46.1273 8.72256C46.1273 7.92905 46.1273 7.10104 46.1273 6.27303H57.5328C57.5328 6.58353 57.5328 6.85953 57.5328 7.13554C57.5328 7.92905 57.5328 8.68806 57.5328 9.41256C57.6013 11.3101 58.5603 12.3451 60.2386 12.3106C61.9511 12.2761 62.9102 11.2411 62.9444 9.37806C62.9787 7.61854 62.9787 5.79002 62.9444 3.9615C62.9102 1.33947 61.9854 0.442456 59.3481 0.407955C56.471 0.373455 53.5254 0.373455 50.7169 0.407955C49.6893 0.407955 48.6961 0.407955 47.6685 0.407955C47.0178 0.407955 46.4013 0.407955 45.8533 0.407955C43.4557 0.373455 42.1199 0.338955 41.2979 1.16696C40.3731 2.09848 40.3046 3.8925 40.3389 7.82555C40.4074 14.5186 40.4074 14.5186 34.1052 16.8992C33.523 17.1062 32.3927 16.8992 31.9132 16.4506C30.5431 15.2086 29.2074 13.8631 27.9401 12.5521C27.1866 11.7931 26.3988 10.9651 25.611 10.2061C23.693 8.34305 22.46 8.34305 20.5419 10.2061C18.4184 12.3106 16.2606 14.4841 14.2055 16.5542C12.6985 18.0722 11.1572 19.6247 9.65016 21.1427C8.75964 22.0052 8.34863 22.8677 8.34863 23.7302C8.34863 24.5927 8.79389 25.4208 9.65016 26.2833L10.0269 26.6628C11.8765 28.4568 13.7945 30.3198 15.5413 32.2863C16.1578 32.9763 16.6031 34.0459 16.4318 34.4599C15.4728 36.8749 14.137 39.1864 12.9725 41.2564C12.8355 41.291 12.4587 41.2564 12.219 41.2564C12.0135 41.2564 11.808 41.2219 11.6367 41.2219C10.7462 41.2219 9.82141 41.2219 8.93089 41.2219C7.21835 41.2219 5.43731 41.2219 3.69052 41.2219C0.710704 41.2564 0.0256881 41.9465 0.0256881 44.879C-0.0085627 49.295 -0.0085627 54.0561 0.0256881 59.9212C0.0256881 63.1297 0.847707 63.9232 4.10153 63.9577C5.0263 63.9577 5.98533 63.9232 6.9101 63.9232C8.75964 63.8542 10.6434 63.8197 12.4587 64.0612C14.4795 64.3372 14.8563 65.8207 15.2673 67.5458C15.507 68.5118 15.7126 69.4778 16.2948 70.2713C16.4661 70.5128 16.2263 71.2373 16.0893 71.7893C16.0208 72.0653 15.9181 72.3413 15.8838 72.5828C15.8496 72.6173 15.7468 72.6863 15.7126 72.7553C15.6441 72.8243 15.5756 72.8588 15.507 72.9278C14.9248 73.5143 14.3425 74.1008 13.7603 74.6874C12.4245 75.9984 11.0544 77.3784 9.75291 78.7584C7.86912 80.7249 7.86912 82.0704 9.78716 84.037C13.5548 87.901 17.0826 91.4201 20.5077 94.8356C22.4257 96.7331 23.7957 96.6986 25.7823 94.7666C26.6043 93.9731 27.3921 93.1451 28.1798 92.3861C29.4471 91.1096 30.7487 89.764 32.1187 88.522C32.5297 88.1425 33.523 87.901 33.8997 88.108C36.1945 89.1775 38.4208 90.454 40.5101 91.6616C40.5101 91.7996 40.5101 92.0756 40.4759 92.2481C40.4759 92.4206 40.4416 92.6276 40.4416 92.7656C40.4416 93.6281 40.4416 94.4561 40.4416 95.3186C40.4416 97.2506 40.4416 99.2516 40.4759 101.218C40.5101 102.046 40.5444 104.53 43.3187 104.565C45.9903 104.565 48.6618 104.565 51.3334 104.565C53.9364 104.565 56.5395 104.565 59.1768 104.565H60.3413C62.0196 104.565 62.9786 103.599 62.9786 101.874C62.9786 99.2172 62.9786 96.7676 62.9786 94.3526C62.8759 93.3176 62.5676 92.5241 62.0539 92.0066Z" fill="#304FFE"/>
<path d="M109.423 57.4373C104.867 56.2643 100.175 58.4378 98.2569 62.5779C97.6403 63.9234 96.9553 64.3374 95.414 64.3374H95.3798C87.0911 64.3029 78.6312 64.3029 70.4795 64.3029C64.8623 64.3029 59.211 64.3029 53.5938 64.3029C50.066 64.3029 47.0519 63.1299 44.8599 60.8874C42.7021 58.7138 41.5718 55.7123 41.5718 52.2623C41.606 45.3277 46.5382 40.4976 53.6281 40.4976C57.6012 40.4976 61.5743 40.4976 65.5473 40.4976C75.1718 40.4976 85.1388 40.4976 94.9345 40.4631C94.9688 40.4631 94.9688 40.4631 95.003 40.4631C96.6813 40.4631 97.6061 40.7736 98.3596 42.4296C100.278 46.5007 104.902 48.5707 109.388 47.3632C113.738 46.1902 116.684 42.3952 116.718 37.9101C116.718 33.2525 113.67 29.147 109.457 28.1465C104.765 27.0425 100.175 29.147 98.2911 33.2525C97.6061 34.7706 96.7841 35.0121 95.2428 35.0121H95.2085C81.8165 34.9776 67.9107 34.9776 52.7376 34.9776C48.0794 34.9776 44.0379 36.5991 41.0238 39.6696C37.8385 42.8782 36.1259 47.5012 36.1602 52.6763C36.1944 57.4028 38.0097 61.8189 41.2635 65.0619C44.4146 68.2015 48.5932 69.892 53.0458 69.892C53.1143 69.892 53.1486 69.892 53.2171 69.892C57.9094 69.8575 62.6703 69.8575 67.2599 69.8575C69.3492 69.8575 71.4385 69.8575 73.4935 69.8575H73.836V69.7195C75.6513 69.7195 77.4666 69.7195 79.2819 69.7195C84.5908 69.7195 90.0367 69.7195 95.4483 69.685C95.4825 69.685 95.4825 69.685 95.5168 69.685C97.0238 69.685 97.7088 70.1335 98.3254 71.4445C99.8666 74.8255 103.326 76.8611 107.025 76.8611C107.847 76.8611 108.669 76.7576 109.491 76.5506C113.601 75.5155 116.752 71.4445 116.787 67.0284C116.752 62.5434 113.772 58.5413 109.423 57.4373ZM111.169 66.9939C111.204 69.34 109.286 71.341 106.991 71.3755H106.957C104.765 71.3755 102.675 69.34 102.641 67.132C102.607 64.9584 104.662 62.8194 106.888 62.7849C106.922 62.7849 106.957 62.7849 106.991 62.7849C108.053 62.7849 109.08 63.1989 109.868 63.9924C110.69 64.7859 111.169 65.8899 111.169 66.9939ZM102.607 37.7376C102.641 35.5296 104.765 33.494 106.957 33.494H106.991C109.251 33.5285 111.204 35.5641 111.169 37.8756C111.169 39.0141 110.69 40.0836 109.868 40.9116C109.046 41.7051 107.984 42.1536 106.888 42.1191C104.593 42.0156 102.572 39.9456 102.607 37.7376Z" fill="#304FFE"/>
<path d="M53.0459 24.8687C52.9431 24.8687 52.8404 24.8687 52.7034 24.8687C40.0306 25.6622 29.0704 36.2538 27.7003 48.9845C26.9468 56.2296 28.7278 62.9916 32.8722 68.5117C36.537 73.3763 41.7774 76.9298 47.6343 78.4823C49.4838 78.9653 51.5046 79.2413 53.5939 79.2413C53.9364 79.2413 54.2789 79.2413 54.6557 79.2068C55.6832 79.1723 56.9847 77.5853 57.1217 76.5158C57.2245 75.6878 56.1285 74.8253 55.1694 74.0663L54.9297 73.8938C54.5872 73.6178 54.1419 73.6523 53.6624 73.6868C53.4569 73.6868 53.2856 73.7213 53.1486 73.6868C41.8801 72.8242 33.0434 63.4401 33.0434 52.2965C33.0434 40.6354 41.6404 31.4928 53.4227 30.5613C55.0324 30.4233 56.1627 29.9747 56.7792 29.2157C57.1902 28.6982 57.3272 28.0772 57.2245 27.3182C56.882 25.0067 54.9982 24.8342 53.0459 24.8687Z" fill="#304FFE"/>
<path d="M62.8075 27.6978C63.013 28.5258 63.7322 29.1813 64.4172 29.8023C64.5885 29.9403 64.7598 30.1128 64.8968 30.2508C65.205 30.5268 65.6845 30.5268 66.0955 30.5268H66.2668C67.4656 30.5268 68.6301 30.5268 69.8289 30.5613C71.1989 30.5613 72.6032 30.5958 74.0417 30.5958C76.131 30.5958 78.2203 30.5613 80.2754 30.4923C81.5769 30.4233 83.1867 29.7678 84.4197 28.7673C86.5433 27.0423 88.4613 25.1102 90.6876 22.7297C91.6466 21.7292 92.5029 21.4532 93.8387 21.8327C98.12 22.9367 102.47 21.0047 104.662 16.9681C106.82 13.0006 106.066 8.23954 102.847 5.1345C99.5586 1.96047 94.6265 1.40846 90.8246 3.82349C86.8858 6.30752 85.1047 11.1031 86.646 15.0016C87.3653 16.8646 86.783 17.6927 85.7555 19.1072L85.6185 19.3142C81.9879 24.3857 78.0148 26.2833 73.8362 24.9722H73.7335C72.6032 24.9722 71.6099 24.9722 70.6851 24.9722C68.6301 24.9722 67.0203 24.9377 65.3763 25.0067C64.4172 25.0412 63.5952 25.4207 63.15 26.0073C62.7732 26.3868 62.6704 27.0078 62.8075 27.6978ZM91.8179 12.0346C91.8521 9.75756 93.6674 7.92904 95.9622 7.92904H95.9965C97.161 7.92904 98.2228 8.37754 99.0106 9.17105C99.7983 9.96456 100.244 11.0341 100.244 12.1726C100.244 13.3111 99.7983 14.3806 99.0106 15.1741C98.1885 15.9676 97.1268 16.4161 95.9965 16.3816C94.8662 16.3816 93.8044 15.9331 93.0509 15.1396C92.2289 14.3116 91.8179 13.2421 91.8179 12.0346Z" fill="#304FFE"/>
<path d="M95.8254 82.7605C92.3661 83.485 90.722 81.9325 88.804 79.6555C88.5643 79.3795 88.2903 79.138 88.0505 78.862C87.6737 78.5169 87.3312 78.1719 87.0915 77.7924C85.0364 74.6529 82.1594 73.3764 77.741 73.7214C75.6175 73.8939 73.4254 73.8594 71.3019 73.8249C69.5208 73.7904 67.6713 73.7904 65.8902 73.8594C64.8627 73.8939 63.5269 74.7909 62.9789 75.7569C62.5337 76.5159 63.2529 78.1374 63.9379 78.7585C64.623 79.3795 65.8902 79.414 66.815 79.414C68.5961 79.4485 70.4113 79.4485 72.1581 79.4485C74.4529 79.4485 76.8505 79.4485 79.1795 79.483C80.0016 79.5175 81.0976 79.759 81.6456 80.311C83.2211 81.829 84.6939 83.3815 86.2352 85.072C86.7832 85.6585 87.3312 86.245 87.8792 86.8315C87.8107 87.0041 87.708 87.142 87.6395 87.3146C87.434 87.7286 87.2285 88.1081 87.0572 88.4876C85.2762 92.4896 86.338 97.2162 89.626 99.9762C91.5098 101.563 93.8046 102.391 96.0994 102.391C97.9832 102.391 99.867 101.839 101.511 100.735C105.244 98.2167 106.786 93.7661 105.416 89.4191C104.114 85.486 100.381 81.829 95.8254 82.7605ZM91.8181 92.3861C91.8181 91.2131 92.2976 90.1436 93.1196 89.3501C93.9074 88.5911 94.9007 88.1771 95.9624 88.1771C95.9967 88.1771 96.0309 88.1771 96.0652 88.1771C98.3942 88.2461 100.244 90.1781 100.21 92.5241C100.175 93.6626 99.6958 94.7666 98.8395 95.5947C98.0175 96.3882 96.9899 96.8022 95.9282 96.7677C93.6676 96.6987 91.8181 94.7321 91.8181 92.3861Z" fill="#304FFE"/>
<path d="M72.5349 48.053C71.9869 49.088 71.4732 49.4675 70.4456 49.4675H70.4114C66.678 49.433 62.842 49.433 59.1771 49.433C57.8071 49.433 56.4028 49.433 55.0328 49.433H54.6903V49.64H53.5942C52.5325 49.64 51.4364 49.64 50.3747 49.64C49.0046 49.64 48.1141 49.916 47.5661 50.5026C47.1208 50.9856 46.8811 51.6756 46.9153 52.5726C47.0181 54.8841 48.7306 55.1601 50.4089 55.1601C53.5942 55.1256 56.8138 55.1256 59.9649 55.1256C63.3215 55.1256 66.8151 55.1256 70.2401 55.0911C71.3019 55.0911 71.8842 55.2636 72.3979 56.4021C74.1447 60.2317 77.467 62.4397 81.2346 62.4397C82.0224 62.4397 82.8444 62.3362 83.6664 62.1637C87.9478 61.1287 91.1674 57.0231 91.2016 52.5726C91.2359 48.122 88.0848 43.9475 83.8377 42.878C79.1796 41.6014 74.7612 43.6715 72.5349 48.053ZM85.5845 52.5036C85.516 54.7116 83.4609 56.6781 81.2689 56.6781C81.2346 56.6781 81.2004 56.6781 81.1661 56.6781C80.0701 56.6436 79.0083 56.1606 78.2206 55.3326C77.4328 54.5046 77.0218 53.4006 77.056 52.2966C77.0903 51.1926 77.604 50.0885 78.4946 49.2605C79.2823 48.5015 80.3099 48.0875 81.2689 48.0875C81.3031 48.0875 81.3716 48.0875 81.4059 48.0875C83.5979 48.1565 85.653 50.3646 85.5845 52.5036Z" fill="#304FFE"/>
</svg>
