<svg width="75" height="74" viewBox="0 0 75 74" fill="none" xmlns="http://www.w3.org/2000/svg">
<path d="M74.6411 21.3614C73.7285 15.3439 70.8765 10.2825 66.2564 6.2896C59.9821 0.947007 52.624 -1.02132 44.3533 0.497104C36.8812 1.84681 30.6639 6.12089 26.8423 12.4195C22.9636 18.8307 22.1651 26.6477 24.5607 33.7899C25.3022 36.0394 26.386 38.1765 27.869 40.2573L27.6979 40.426C27.2986 40.8197 26.8993 41.2133 26.5 41.607C26.2148 41.4945 25.9867 41.382 25.7015 41.2696L25.1311 40.9884C25.017 40.9321 24.96 40.9321 24.8459 40.8759H24.6748C23.477 40.4822 22.5073 40.7072 21.6517 41.607C19.7124 43.6315 17.716 45.6561 15.7196 47.5682L13.6662 49.5928C9.55939 53.6419 5.28145 57.8597 1.06055 61.9651C-0.0231995 62.9774 -0.251356 64.1021 0.261996 65.5081C0.490153 66.1267 0.71831 66.5766 1.00351 66.9703C2.71468 69.501 4.88217 71.5818 7.33486 73.044C7.84821 73.3251 8.36156 73.6063 8.93196 73.775C9.33123 73.9438 9.73051 74 10.0727 74C10.8143 74 11.4987 73.7188 12.0691 73.044C17.659 67.4764 25.017 60.1092 32.6032 52.6858C33.687 51.6173 33.9151 50.4926 33.3447 49.0866C33.2877 48.9179 33.1736 48.8054 33.1166 48.6367C32.9455 48.3555 32.7743 47.9619 32.8314 47.7932C32.8884 47.5682 33.1166 47.3433 33.4018 47.1745C33.5729 47.0621 33.744 46.8933 33.9151 46.7246C34.0862 46.5559 34.1433 46.4997 34.4285 46.6684C39.9042 50.2676 45.9504 51.6736 52.4529 50.8862C58.499 50.0989 63.6326 47.5682 67.7394 43.3504C73.6715 37.2767 75.953 29.8533 74.6411 21.3614ZM29.8653 48.8054C30.1505 49.1991 30.4357 49.5928 30.6639 49.9302L30.8921 50.2676L29.5802 51.6736L22.6784 44.8688L24.1614 43.5191L24.3896 43.6878C24.7318 43.9127 25.0741 44.1939 25.4733 44.4751C26.5 45.2062 27.0704 45.2062 27.9831 44.3064C28.6105 43.6878 29.1809 43.1254 29.8083 42.5068L30.3787 41.9444C31.5765 40.7634 31.5765 40.3698 30.6069 39.0763C28.5534 36.4331 27.1845 33.4525 26.5571 30.3032C26.3289 29.1222 26.1578 27.8849 26.1008 26.6477H31.6336C32.9455 26.6477 34.3144 26.6477 35.6833 26.6477C36.5389 26.6477 37.1664 26.3103 37.5656 25.5792C38.3072 24.342 39.0487 23.1047 39.7902 21.8113L40.4176 20.6865L40.7598 21.8113C41.1591 23.0485 41.5013 24.2857 41.8436 25.4667C43.1555 29.9095 44.4674 34.3523 45.7793 38.8513C46.0074 39.5824 46.4067 40.3698 47.5475 40.3698C48.6883 40.3698 49.0876 39.4699 49.2587 38.7389C50.3995 34.2398 51.4832 29.7408 52.624 25.2418C53.1373 26.5352 54.3352 26.7039 55.59 26.7039C58.9553 26.6477 64.317 26.6477 68.652 26.6477C69.9639 26.6477 71.2188 26.6477 72.3025 26.6477C71.9032 37.2767 63.5185 46.5559 52.7951 48.2431C46.4067 49.0866 40.5317 47.6244 35.2841 43.6878C34.3144 42.9567 33.687 43.0129 32.8314 43.8003C31.9188 44.7001 30.9491 45.5999 30.0365 46.5559C29.295 47.3433 29.2379 47.9056 29.8653 48.8054ZM68.7661 23.2172C64.6022 23.2172 59.4117 23.2172 56.2745 23.2172C55.7041 23.2172 55.533 23.1047 55.3619 22.5986C55.1337 21.8675 54.9056 21.1364 54.6774 20.4053C54.5063 19.8429 54.2781 19.2243 54.107 18.6619C53.8218 17.6497 53.2514 17.1998 52.3958 17.1998C51.4832 17.1998 50.9128 17.7059 50.6847 18.7182C49.8291 22.1487 48.9735 25.6354 48.1179 29.0659L47.3764 32.0465V32.1028L46.9201 30.7531C46.4067 29.0097 45.8934 27.3788 45.4371 25.6917C44.5244 22.5986 43.6118 19.5055 42.6992 16.4124L42.6421 16.2999C42.414 15.6251 42.0717 14.7815 41.045 14.669C40.988 14.669 40.931 14.669 40.8739 14.669C40.0183 14.669 39.562 15.2877 39.2198 15.85C38.7064 16.7498 38.136 17.6497 37.6227 18.6057C36.8241 19.9554 36.0256 21.3051 35.227 22.7111C34.9989 23.1047 34.7707 23.2734 34.3144 23.2172C32.8314 23.2172 28.4964 23.2172 26.1578 23.2172C26.7852 16.4124 30.5498 10.3387 36.4249 6.57079C43.1555 2.24048 51.0839 1.50939 58.1568 4.54623C65.4008 7.63931 70.5343 14.1629 71.9033 21.8675C71.9603 22.2612 72.0173 22.7111 72.0744 23.2172H68.7661ZM27.3556 54.0356C27.2986 54.0918 27.1845 54.2043 27.1275 54.2605L23.3058 58.0284C18.9138 62.3588 14.5788 66.6328 10.1868 70.9632C9.84458 71.3006 9.67347 71.3006 9.33123 71.0756C6.36519 68.8824 4.42586 66.9703 3.05692 64.7207C2.8858 64.3833 2.8858 64.3271 3.11396 64.1021C7.56302 59.7156 12.0121 55.3853 16.4041 50.9987L20.2257 47.2308C20.2828 47.1745 20.2828 47.1745 20.3398 47.1183L27.3556 54.0356Z" fill="#304FFE"/>
</svg>
