<svg width="90" height="79" viewBox="0 0 90 79" fill="none" xmlns="http://www.w3.org/2000/svg">
<path d="M10.611 52.012C8.80907 51.327 7.09297 50.8988 5.57708 50.0711C2.6597 48.4157 1.17241 45.7613 0.85779 42.4219C0.657578 40.2527 0.457366 38.055 0.142746 35.8858C-0.743908 30.1204 2.80271 24.726 9.83874 24.2123C14.1004 23.8983 18.3621 23.3846 22.5951 22.7852C23.9108 22.6139 25.2265 22.0716 26.3991 21.4152C36.5242 15.8495 46.6206 10.2268 56.717 4.60406C57.6323 4.09031 58.5761 3.63364 59.52 3.20552C61.3505 2.3778 63.1238 3.34822 63.3812 5.31761C64.039 10.3695 64.7255 15.3929 65.2975 20.4447C65.4119 21.5579 65.7552 21.8718 66.8134 21.6435C67.4999 21.5008 68.2435 21.5293 68.9585 21.5293C71.3611 21.5864 73.2202 23.0135 73.5634 25.411C74.0783 28.9217 74.4787 32.4608 74.7361 36C74.9363 38.5402 72.9914 40.5096 70.36 40.8521C69.502 40.9663 68.6439 41.0805 67.6715 41.1946C68.0719 44.848 68.4723 48.3871 68.8441 51.8978C69.0157 53.5818 69.1016 55.2943 69.359 56.9497C69.7594 59.6041 67.6143 61.4022 64.7541 60.5459C53.8568 57.2636 42.9024 54.1811 31.9765 50.9559C30.718 50.5849 30.289 50.7276 30.0602 52.1261C28.8017 59.6326 27.4574 67.082 26.1131 74.5885C25.7699 76.5864 25.1407 77.1858 23.1385 77.4141C18.8483 77.9279 14.5294 78.4131 10.2392 78.9268C7.95102 79.1837 6.49233 77.671 6.86416 75.302C7.95102 68.3379 9.1237 61.3737 10.2392 54.4095C10.3536 53.6388 10.468 52.754 10.611 52.012ZM58.0041 10.8262C57.6323 10.9689 57.3748 10.9974 57.146 11.1401C47.9649 16.2491 38.7837 21.3581 29.6311 26.5527C29.1735 26.8096 28.8017 27.78 28.8589 28.3794C29.3165 33.1744 29.9172 37.9409 30.4034 42.7359C30.5178 44.0203 31.0326 44.5911 32.2911 44.9336C40.557 47.274 48.7943 49.7286 57.0316 52.1261C58.8907 52.6684 60.7498 53.1536 62.8378 53.753C61.2361 39.2538 59.6344 25.0971 58.0041 10.8262ZM22.7095 28.6933C18.1332 29.2642 13.7286 29.7779 9.35251 30.3487C7.12157 30.6342 5.8917 32.0613 6.03471 34.259C6.20632 36.9704 6.49233 39.7104 6.86416 42.4219C7.17878 44.5055 8.92348 45.7042 11.0114 45.5044C13.0707 45.3046 15.1587 45.0763 17.218 44.848C19.5919 44.5625 21.9659 44.2771 24.397 43.9917C23.8536 38.8256 23.3102 33.8879 22.7095 28.6933ZM13.2709 72.7047C15.4161 72.4764 17.361 72.2481 19.3059 72.1054C20.4214 72.0197 20.736 71.4489 20.9076 70.4499C21.6227 65.9689 22.3949 61.5164 23.1385 57.0353C23.5104 54.809 23.825 52.5828 24.1968 50.2138C21.9373 50.4422 19.9066 50.5849 17.933 50.9274C17.4754 51.013 16.8176 51.6695 16.7318 52.1547C15.5305 58.862 14.4436 65.5978 13.2709 72.7047ZM66.1556 27.9512C66.3844 30.0633 66.556 32.1183 66.8706 34.1448C66.9278 34.5729 67.4713 34.944 67.8145 35.3436C68.0719 34.8583 68.5867 34.3731 68.5867 33.8879C68.5009 32.261 68.1577 30.6342 68.0719 29.0073C67.9861 27.7514 67.4426 27.5231 66.1556 27.9512Z" fill="#304FFE"/>
<path d="M89.7234 55.1518C89.6948 58.006 87.3781 59.4046 85.4618 58.1773C82.3728 56.2079 79.3696 54.0958 76.3951 51.9837C75.2224 51.156 75.0222 49.3293 75.7944 48.1591C76.6525 46.8462 78.34 46.4181 79.6842 47.3314C82.6874 49.3293 85.662 51.3843 88.5794 53.4964C89.2086 53.9531 89.5232 54.8379 89.7234 55.1518Z" fill="#304FFE"/>
<path d="M81.1716 0.322998C81.9725 0.893834 83.0307 1.32196 83.374 2.03551C83.7458 2.86322 83.8316 4.31885 83.3167 4.91823C80.857 7.91511 78.197 10.7408 75.5085 13.5378C74.5932 14.4797 72.9057 14.2514 71.9333 13.3095C70.8464 12.2535 70.6176 10.7122 71.59 9.62762C73.964 6.88761 76.3665 4.20468 78.8263 1.57884C79.3411 1.008 80.1992 0.808209 81.1716 0.322998Z" fill="#304FFE"/>
<path d="M80.0273 33.0317C77.5103 33.0602 76.1661 32.0327 76.0803 30.2916C75.9945 28.6933 77.4531 27.3518 79.3981 27.1806C80.914 27.0379 82.4298 26.8381 83.9457 26.6668C85.7762 26.4385 87.1491 27.2377 87.3779 28.6362C87.7498 30.9481 87.0061 32.2039 84.861 32.5464C83.1449 32.8033 81.3716 32.8889 80.0273 33.0317Z" fill="#304FFE"/>
</svg>
