<svg width="91" height="89" viewBox="0 0 91 89" fill="none" xmlns="http://www.w3.org/2000/svg">
<path d="M91 43.9218C91 44.4459 91 44.97 91 45.4941C90.8929 45.9657 90.8126 46.4636 90.7055 46.9353C89.1527 53.2507 81.4422 56.0547 76.0609 52.3074C74.5616 51.2592 73.4372 49.8965 72.7411 48.2456C72.5537 47.8001 72.286 47.6691 71.8041 47.6691C68.8858 47.7215 65.9676 47.7477 63.0762 47.7739C62.7014 47.7739 62.514 47.8787 62.4337 48.2456C62.2195 49.0841 62.0053 49.9489 61.6573 50.7351C61.0683 52.0453 60.3454 53.2769 59.6493 54.6134C59.6761 54.6658 59.8099 54.7968 59.9438 54.9016C62.1124 57.0243 64.3345 59.1469 66.4763 61.3219C66.9314 61.7673 67.2527 61.7936 67.7882 61.5315C74.0797 58.7014 80.4784 63.7065 80.7997 68.6855C80.88 69.8909 81.0138 71.2011 80.639 72.3018C78.8185 77.8572 74.5884 79.744 69.4481 78.9316C65.9141 78.3551 62.9156 75.1319 62.2462 71.699C61.8714 69.7337 62.1124 67.8731 62.9156 66.065C63.103 65.6719 63.0227 65.4361 62.7014 65.1216C60.506 62.999 58.3375 60.8764 56.1689 58.7276C55.8476 58.4131 55.6602 58.4393 55.2854 58.5965C53.679 59.3303 52.0727 60.064 50.4128 60.7192C49.6631 61.0074 48.8332 61.1384 48.0032 61.3219C48.0032 61.5315 48.0032 61.6887 48.0032 61.8722C48.0032 64.3878 48.0836 66.8773 47.9765 69.393C47.9229 70.5198 48.2977 71.0177 49.3419 71.4894C53.331 73.2713 55.446 77.2807 54.6696 81.5259C53.7058 86.8717 48.5119 89.5184 44.3086 88.9157C37.8297 88.0247 33.9744 81.028 37.3745 75.1843C38.499 73.2189 40.1856 71.8825 42.3007 71.0439C42.6487 70.9129 42.7826 70.7295 42.7826 70.3626C42.7558 67.7159 42.7826 65.0954 42.7826 62.4487C42.7826 62.0294 42.7826 61.6363 42.7826 61.217C40.1589 60.6143 37.7226 59.6972 35.554 58.2297C35.5004 58.2821 35.4469 58.3083 35.4201 58.3345C33.0641 60.6405 30.7081 62.9466 28.3522 65.2788C28.2451 65.3836 28.1915 65.6457 28.2718 65.7767C28.9412 67.218 29.075 68.7117 29.075 70.2578C29.0482 72.1445 28.5396 73.8216 27.3616 75.3153C24.952 78.4075 21.7126 79.4819 17.8841 78.9316C15.8761 78.6434 14.2698 77.6476 12.9312 76.2063C10.6823 73.7954 9.77199 71.0177 10.5752 67.7945C11.9406 62.3439 17.9376 59.1993 23.078 61.3219C23.9615 61.6887 24.4701 61.6625 25.1662 60.9288C27.2009 58.8062 29.3427 56.8146 31.431 54.7706C31.6184 54.5872 31.6452 54.43 31.4846 54.2203C31.1097 53.5914 30.7081 52.9887 30.3601 52.3336C29.5569 50.8923 29.0215 49.32 28.727 47.6691C28.5128 47.6691 28.3254 47.6691 28.138 47.6691C25.434 47.6691 22.7567 47.7215 20.0527 47.6429C19.0353 47.6167 18.5534 47.9049 18.0983 48.8221C16.5455 51.9929 13.8147 53.6176 10.3342 53.9845C5.62224 54.4562 1.82054 51.2329 0.588997 47.7215C0.321271 46.9615 0.187408 46.1754 0 45.3892C0 44.8913 0 44.3934 0 43.8956C0.0267726 43.7645 0.0803176 43.6335 0.10709 43.5287C0.374816 41.5109 1.23154 39.7552 2.67726 38.2877C5.72933 35.1955 10.5752 34.4356 14.5375 36.925C16.4116 38.1043 17.6164 39.7552 18.3928 41.7467C18.4999 42.0612 18.6605 42.166 19.0085 42.166C21.9803 42.1398 24.9788 42.166 27.9506 42.166C28.0844 42.166 28.2451 42.1398 28.4057 42.1398C28.8073 39.5979 29.7443 37.2919 31.1365 35.1693C31.4042 34.7762 31.3507 34.5404 31.0294 34.2259C28.8608 32.1295 26.6923 30.0331 24.5505 27.9105C24.1756 27.5436 23.8811 27.4912 23.426 27.6747C21.4181 28.487 19.3298 28.7229 17.2148 28.1464C12.476 26.9147 9.55781 22.3026 10.361 17.6382C11.1374 12.6592 16.3848 8.9119 21.6055 10.1697C26.2104 11.2703 29.2089 15.0701 29.0215 19.6559C28.9679 20.9138 28.5931 22.0668 28.138 23.246C28.0041 23.5605 28.0309 23.7963 28.3254 24.0584C29.664 25.3162 30.9491 26.6265 32.261 27.9105C33.2515 28.9063 34.2689 29.9021 35.2595 30.8979C37.5619 29.2994 40.025 28.356 42.6487 27.7795C42.6487 24.8969 42.5952 22.1192 42.6755 19.3153C42.7023 18.4505 42.4345 18.0312 41.6314 17.6906C37.5084 15.8824 35.3398 11.9517 36.143 7.62786C36.8926 3.56608 40.266 0.395281 44.8441 0.0284108C47.2268 -0.155024 49.3954 0.552511 51.2695 2.0724C55.5263 5.53146 56.0886 11.2441 52.2868 15.4369C51.1892 16.6424 49.8238 17.4023 48.3513 18.0312C48.1103 18.1361 47.9497 18.2409 47.9497 18.5553C47.9765 21.5165 47.9497 24.4515 47.9497 27.4126C47.9497 27.7009 48.03 27.8057 48.3245 27.8581C50.8411 28.3298 53.2239 29.1421 55.3389 30.6096C55.4192 30.662 55.5263 30.7144 55.6334 30.7931C55.8208 30.6358 55.9547 30.5048 56.1153 30.3738C58.15 28.356 60.158 26.312 62.2462 24.3728C62.9156 23.7439 63.0494 23.2984 62.6746 22.4599C62.0053 20.9924 61.8447 19.3939 62.1659 17.8216C63.2101 12.371 68.4307 8.33539 74.9365 10.6414C79.1398 12.1351 81.5225 16.3279 80.7461 20.8614C79.9429 25.421 75.6861 28.6967 70.9741 28.4084C69.689 28.3298 68.4575 27.9629 67.2527 27.5436C67.0921 27.4912 66.7708 27.5174 66.637 27.6485C64.7093 29.509 62.7817 31.3958 60.8808 33.2563C60.4257 33.7018 59.9706 34.1735 59.5154 34.5928C61.095 36.794 62.0588 39.1787 62.5943 41.7205C62.6746 42.1136 62.862 42.1922 63.2368 42.1922C65.8873 42.166 68.5378 42.1136 71.1615 42.2184C72.2057 42.2446 72.634 41.9302 73.0624 41.013C74.642 37.5802 77.4263 35.6934 81.3083 35.5624C85.2974 35.4051 88.8582 37.685 90.3307 41.3275C90.6252 42.1136 90.759 43.0308 91 43.9218ZM45.5669 32.9943C39.1683 32.7584 33.5996 38.2353 33.7067 44.7603C33.787 50.1061 38.3651 56.2381 46.0221 56.0809C51.9656 55.9498 57.4004 50.5778 57.4004 44.4983C57.4004 38.3139 51.6711 32.706 45.5669 32.9943ZM45.5937 83.7009C47.7355 83.7009 49.5293 81.9452 49.5293 79.7702C49.5293 77.6738 47.682 75.8918 45.4598 75.8918C43.3716 75.8918 41.551 77.7 41.551 79.7964C41.551 81.919 43.3716 83.6747 45.5937 83.7009ZM9.47749 48.4552C11.6193 48.4814 13.5202 46.6209 13.5202 44.4721C13.5202 42.1922 11.3783 40.6199 9.47749 40.5675C7.49632 40.5151 5.51515 42.5067 5.48838 44.5507C5.43483 46.5161 7.41601 48.429 9.47749 48.4552ZM77.6405 44.4983C77.6405 46.7257 79.3272 48.4552 81.5493 48.4552C83.7179 48.4552 85.5384 46.7257 85.5384 44.6817C85.5384 42.4281 83.7179 40.5937 81.4422 40.5937C79.3807 40.5675 77.6405 42.3757 77.6405 44.4983ZM49.5025 9.22636C49.5025 7.05135 47.7891 5.40043 45.5134 5.37423C43.5054 5.32182 41.4975 7.20858 41.5243 9.06913C41.5778 11.5324 43.318 13.1047 45.4866 13.1309C47.7355 13.1571 49.5025 11.4276 49.5025 9.22636ZM15.662 19.2105C15.662 21.3855 17.3754 23.0364 19.544 23.0364C21.8197 23.0364 23.5331 21.3855 23.5331 19.2367C23.5331 17.0617 21.7393 15.2011 19.6511 15.2273C17.5093 15.2535 15.662 17.1141 15.662 19.2105ZM71.5096 73.7954C73.7317 73.7954 75.4719 72.1183 75.4719 69.9171C75.4719 68.1352 74.1868 66.065 71.2686 66.065C69.3945 66.065 67.5204 67.9255 67.5204 69.7861C67.5204 72.0397 69.2607 73.7954 71.5096 73.7954ZM23.4796 69.9433C23.5331 67.7945 21.8732 66.0912 19.6778 66.0388C17.5093 66.0126 15.6084 67.7421 15.5816 69.8385C15.5816 71.5156 17.1077 73.7692 19.2495 73.7954C21.7393 73.8216 23.4528 72.3018 23.4796 69.9433ZM67.5204 19.1056C67.3866 21.0186 69.2071 22.9578 71.5631 23.0102C73.5978 23.0626 75.3916 21.202 75.3916 19.0794C75.3916 16.9044 73.7049 15.2535 71.456 15.2273C69.3142 15.2273 67.5204 16.983 67.5204 19.1056Z" fill="#304FFE"/>
</svg>
