<svg width="76" height="71" viewBox="0 0 76 71" fill="none" xmlns="http://www.w3.org/2000/svg">
<path d="M37.5839 53.4343C34.4334 56.6018 31.4668 59.6385 28.4739 62.6228C26.6361 64.4814 24.7984 66.3662 22.8819 68.1463C19.6002 71.1568 14.7695 71.8374 10.779 69.8479C6.60465 67.7537 4.53062 64.2458 4.60938 59.5861C4.66188 56.5233 6.05332 54.0102 8.23237 51.8636C13.8506 46.3138 19.4426 40.7117 25.0609 35.162C25.9535 34.2719 26.9249 33.4604 27.8963 32.5965C24.2996 28.9839 20.9128 25.5808 17.4999 22.23C17.2111 21.942 16.6335 21.8373 16.2135 21.8373C14.0344 21.8111 11.8291 21.785 9.65006 21.8373C8.86246 21.8635 8.38989 21.6279 7.96984 20.9473C5.44949 16.8111 2.9029 12.7012 0.303792 8.61738C-0.168773 7.88439 -0.0900126 7.46554 0.540073 6.88963C2.69287 4.87391 4.79315 2.77967 6.9722 0.659244C11.5666 3.51265 16.0822 6.31371 20.5716 9.16712C20.8866 9.35037 21.0441 9.95246 21.0704 10.3713C21.1229 12.5964 21.0704 14.8216 21.1229 17.0467C21.1491 17.5441 21.3067 18.1986 21.6479 18.5389C24.8246 21.785 28.0801 24.9787 31.283 28.1724C31.4143 28.3033 31.5455 28.3818 31.7293 28.5127C32.3594 27.9106 33.147 27.5965 32.8057 26.3923C30.2066 17.7012 34.8272 7.2823 43.5959 2.67495C50.1068 -0.754374 56.7227 -0.859085 63.3911 2.20375C64.4938 2.72731 65.5702 3.30323 66.6466 3.87915C66.8303 3.98386 67.0141 4.08857 67.3554 4.298C64.9401 6.70638 62.551 9.06241 60.1882 11.4184C57.7991 13.7745 55.41 16.1305 53.0472 18.4603C54.5437 19.9263 55.9351 21.3137 57.4578 22.8059C62.0522 18.1462 66.7778 13.3556 71.556 8.51267C75.8878 15.319 77.4368 22.2562 74.4701 29.7169C71.556 37.0468 65.964 41.4185 58.2717 43.3295C61.2646 46.34 64.1525 49.2458 67.0404 52.1253C68.7206 53.8007 69.8758 55.7641 70.2696 58.1201C71.0572 63.0416 68.8519 67.5181 64.5725 69.7432C60.267 71.9683 55.2 71.2092 51.6295 67.7013C47.3764 63.5128 43.1234 59.272 38.8965 55.0311C38.4765 54.5599 38.1089 54.0625 37.5839 53.4343ZM57.274 6.39224C55.0162 5.18805 52.3384 5.10952 49.0042 6.15664C40.078 8.9577 35.3786 18.3818 38.5815 27.3085C39.0016 28.4604 38.8965 29.141 38.0039 30.0049C34.1972 33.6698 30.4954 37.4394 26.7411 41.1567C21.753 46.1044 16.7648 51.0782 11.8029 56.0521C9.38753 58.4604 9.49254 61.9683 11.9866 64.1411C14.2444 66.1044 17.3424 65.9474 19.6527 63.6699C28.3689 55.0311 37.085 46.3923 45.7487 37.7012C46.6151 36.8373 47.2977 36.6803 48.4528 37.1253C58.0879 40.7117 68.0905 34.6907 70.1383 25.2928C70.6371 22.9891 70.7946 20.7117 69.4032 18.2771C65.3076 22.4394 61.3434 26.4708 57.4053 30.4761C53.3623 26.4185 49.398 22.4394 45.3287 18.3818C49.2405 14.4027 53.2573 10.3975 57.274 6.39224ZM41.3119 49.7955C42.362 50.7903 43.2546 51.6018 44.121 52.4657C47.954 56.2877 51.7871 60.1358 55.6463 63.9055C57.7991 66.0259 61.0808 65.9997 63.2336 63.984C65.4127 61.9159 65.6752 58.5913 63.6012 56.4709C59.3218 52.0468 54.9112 47.7274 50.5006 43.4342C49.8968 42.8583 48.9517 42.2562 48.0853 43.1201C45.88 45.2667 43.7009 47.4657 41.3119 49.7955ZM6.76217 8.56502C8.23237 10.9211 9.70257 13.3294 11.199 15.7116C11.5928 16.3399 14.7958 16.6279 15.2946 16.0781C15.4784 15.8949 15.5309 15.5284 15.5571 15.2404C15.6096 14.7692 15.5046 14.2718 15.5834 13.8006C15.7146 12.7797 15.3471 12.1514 14.402 11.6279C12.4592 10.5546 10.5952 9.35037 8.75744 8.12C7.89107 7.54408 7.28724 7.54408 6.76217 8.56502Z" fill="white"/>
</svg>
