<svg width="87" height="82" viewBox="0 0 87 82" fill="none" xmlns="http://www.w3.org/2000/svg">
<path d="M85.9856 26.8756C85.3879 20.0143 82.607 14.0886 77.7469 9.25453C71.1455 2.7311 63.0886 -0.0238144 53.7843 1.06776C45.3376 2.05537 38.1125 6.39566 33.4083 13.231C28.6522 20.1962 27.1448 28.9288 29.276 37.2195C29.9257 39.7405 30.9393 42.1576 32.3687 44.5746L32.2908 44.6266C31.8749 44.9905 31.4591 45.3543 31.0433 45.7182C30.8093 45.5882 30.5754 45.4583 30.3415 45.3543L29.7178 45.0165C29.6138 44.9645 29.4839 44.9125 29.3799 44.8865L29.276 44.8605C27.8725 44.3147 26.677 44.5226 25.6114 45.5103C23.3243 47.6414 20.9592 49.7206 18.6721 51.7478L16.1771 53.9309C11.395 58.1673 6.43095 62.5336 1.49289 66.7699C0.167414 67.9134 -0.222433 69.2909 0.297362 70.9283C0.53127 71.63 0.765178 72.2018 1.05107 72.6956C2.79238 75.6844 5.0275 78.1534 7.65247 80.0507C8.19825 80.4405 8.79602 80.7524 9.36779 81.0123C9.83561 81.2202 10.2774 81.3502 10.7193 81.3761C10.7972 81.3761 10.8492 81.3761 10.9012 81.3761C11.7069 81.3761 12.4866 81.0643 13.1883 80.4145C19.7377 74.5928 28.4183 66.9258 37.3588 59.1289C38.7362 57.9334 39.1001 56.5819 38.5023 54.8926C38.4503 54.7106 38.3464 54.5287 38.2684 54.3468C38.1645 54.1129 37.9565 53.671 38.0085 53.5411C38.0605 53.3852 38.3724 53.1772 38.5803 52.9953C38.7882 52.8394 38.9961 52.6834 39.1781 52.5015C39.204 52.4755 39.23 52.4495 39.256 52.4235C39.282 52.4495 39.308 52.4495 39.386 52.5015C45.2077 56.9717 51.8611 59.0249 59.1382 58.5831C65.9475 58.1673 71.8472 55.6723 76.6813 51.202C83.7245 44.8085 86.8433 36.5958 85.9856 26.8756ZM30.7574 60.0645L26.2092 64.041C21.1671 68.4592 15.9692 73.0074 10.8752 77.5297C10.5633 77.8155 10.5373 77.7896 10.2774 77.5816C7.21064 74.9567 5.23542 72.6696 3.90994 70.0966C3.80598 69.9146 3.80598 69.8627 3.80598 69.8367C3.80598 69.8367 3.83197 69.7847 3.93593 69.7067C9.23784 65.0806 14.4878 60.4804 19.5818 56.0101L23.974 52.1636L30.8613 60.0126C30.8094 60.0126 30.7834 60.0385 30.7574 60.0645ZM82.2691 32.5154C80.8656 45.3023 70.1059 54.9445 57.215 54.9445C51.939 54.9445 46.897 53.3332 42.6087 50.2664C42.4268 50.1364 42.2448 49.9805 42.0369 49.8506C41.6211 49.5127 41.2053 49.2008 40.8154 48.8629C40.7115 48.785 40.6335 48.707 40.5555 48.655C39.5679 47.9273 38.7622 47.9793 37.7746 48.8369C36.5011 49.9545 35.4615 50.8642 34.4999 51.6958C33.5123 52.5795 33.4083 53.3852 34.1101 54.5027C34.3699 54.9186 34.6298 55.3344 34.8897 55.7502L35.0717 56.0361L33.7982 57.1797L27.0668 49.4867L28.3923 48.3951L28.4443 48.4211C28.7821 48.707 29.172 49.0189 29.5618 49.3567C30.7314 50.3444 31.5111 50.3444 32.6546 49.3567C33.2784 48.811 33.9281 48.2652 34.5519 47.6934L35.4875 46.8617C36.657 45.8221 37.0469 45.1724 36.3452 43.8729C36.2412 43.691 36.1372 43.509 35.9813 43.2751C35.7474 42.9113 35.5135 42.5474 35.2796 42.1576L35.0977 41.8197C35.0717 41.7677 35.0457 41.7417 35.0197 41.6898C33.0445 38.0252 32.0049 33.8928 32.0049 29.7085C32.0049 29.6305 32.0049 29.5525 32.0049 29.4746V29.1887C32.0309 27.9412 32.1348 26.6937 32.3427 25.4721C33.4083 19.1566 36.813 13.5428 41.933 9.64438C42.8426 8.96865 43.7782 8.34489 44.7659 7.79911C45.8834 7.17535 47.053 6.60358 48.2485 6.13576L48.5604 6.0318C51.3153 5.0182 54.2001 4.52439 57.163 4.52439C70.7816 4.52439 81.8533 15.1802 82.3471 28.7988V28.9028C82.3471 29.1887 82.3731 29.4486 82.3731 29.7345C82.425 30.6441 82.373 31.5797 82.2691 32.5154Z" fill="#304FFE"/>
<path d="M64.804 27.1616C64.2322 27.0576 63.6864 27.0056 63.0886 26.9277C63.0367 26.9277 62.9847 26.9277 62.9587 26.9017C65.3498 25.0564 66.8052 22.5354 67.0651 19.7805C67.351 16.9476 66.3634 14.0367 64.4141 12.0095C62.5169 10.0343 59.9699 8.94274 57.2409 8.91675C54.512 8.91675 51.939 9.98233 49.9898 11.9576C48.0406 13.9328 47.053 16.8436 47.3129 19.7285C47.4948 21.7297 48.3784 24.5366 51.4192 26.9017C45.7275 27.0316 41.1793 30.9561 40.3736 36.5179C40.1657 37.8434 40.2176 39.2208 40.2436 40.5723C40.2436 41.1181 40.2696 41.6898 40.2696 42.2356C40.2696 43.1973 40.3476 43.847 40.7634 44.2628C41.1793 44.6787 41.829 44.7566 42.7906 44.7566H67.299C67.7668 44.7566 68.2606 44.7566 68.7284 44.7566C69.1962 44.7566 69.6641 44.7566 70.1579 44.7566C70.7296 44.7566 71.3274 44.7566 71.8992 44.7566C73.2247 44.7306 73.8484 44.1069 73.8484 42.7554C73.8484 41.222 73.8484 39.6886 73.8484 38.1552C73.8484 32.8013 70.1319 28.2531 64.804 27.1616ZM51.0814 30.4103C55.5256 30.2803 59.528 30.2803 63.3225 30.4363C67.1171 30.5922 70.3138 33.8929 70.4437 37.8174C70.4697 38.649 70.4697 39.4807 70.4697 40.3384C70.4697 40.6503 70.4697 40.9621 70.4697 41.3H43.6223C43.6483 40.8582 43.6483 40.4163 43.6483 39.9745C43.6743 38.805 43.7003 37.7134 43.8822 36.6478C44.5579 33.0612 47.4948 30.5142 51.0814 30.4103ZM57.215 25.2643C57.189 25.2643 57.189 25.2643 57.215 25.2643C55.4217 25.2643 53.8103 24.5886 52.5888 23.3671C51.3673 22.1455 50.7175 20.5342 50.7175 18.7929C50.7435 15.2583 53.6284 12.3994 57.189 12.3994C58.9043 12.3994 60.6196 13.1011 61.8671 14.3486C63.0886 15.5701 63.7644 17.1815 63.7384 18.8448C63.7124 22.3794 60.8015 25.2643 57.215 25.2643Z" fill="#304FFE"/>
</svg>
