<svg width="18" height="16" viewBox="0 0 18 16" fill="none" xmlns="http://www.w3.org/2000/svg">
<path d="M17.5004 6.614C17.5656 6.67769 17.6174 6.75381 17.6528 6.83785C17.6881 6.92189 17.7062 7.01216 17.7061 7.10332C17.7059 7.19448 17.6875 7.28468 17.6519 7.36862C17.6164 7.45255 17.5643 7.5285 17.4989 7.592L9.52342 15.365C9.38336 15.5015 9.19551 15.5779 8.99992 15.5779C8.80433 15.5779 8.61648 15.5015 8.47642 15.365L0.500917 7.592C0.435602 7.5284 0.383688 7.45237 0.348242 7.36838C0.312794 7.2844 0.294533 7.19416 0.294533 7.103C0.294533 7.01184 0.312794 6.9216 0.348242 6.83761C0.383688 6.75363 0.435602 6.67759 0.500917 6.614C0.634863 6.48317 0.814676 6.40992 1.00192 6.40992C1.18916 6.40992 1.36897 6.48317 1.50292 6.614L8.99992 13.9235L16.4999 6.614C16.6338 6.48361 16.8133 6.41065 17.0002 6.41065C17.187 6.41065 17.3665 6.48361 17.5004 6.614ZM17.5004 0.613999C17.5656 0.677693 17.6174 0.753807 17.6528 0.837848C17.6881 0.921889 17.7062 1.01215 17.7061 1.10332C17.7059 1.19448 17.6875 1.28468 17.6519 1.36862C17.6164 1.45255 17.5643 1.5285 17.4989 1.592L9.52342 9.365C9.38336 9.50152 9.19551 9.57793 8.99992 9.57793C8.80433 9.57793 8.61648 9.50152 8.47642 9.365L0.500917 1.592C0.435602 1.5284 0.383688 1.45237 0.348242 1.36838C0.312794 1.2844 0.294533 1.19416 0.294533 1.103C0.294533 1.01184 0.312794 0.921601 0.348242 0.837614C0.383688 0.753627 0.435602 0.677593 0.500917 0.613999C0.634863 0.483165 0.814676 0.40992 1.00192 0.40992C1.18916 0.40992 1.36897 0.483165 1.50292 0.613999L8.99992 7.9235L16.4999 0.613999C16.6338 0.483614 16.8133 0.410651 17.0002 0.410651C17.187 0.410651 17.3665 0.483614 17.5004 0.613999Z" fill="black"/>
</svg>
