<svg width="142" height="142" viewBox="0 0 142 142" fill="none" xmlns="http://www.w3.org/2000/svg">
<circle cx="71" cy="71" r="68.5" stroke="#835CFA" stroke-width="5"/>
<path d="M45.36 106V97.648L72.048 72.304C74.288 70.192 75.952 68.336 77.04 66.736C78.128 65.136 78.832 63.664 79.152 62.32C79.536 60.912 79.728 59.6 79.728 58.384C79.728 55.312 78.672 52.944 76.56 51.28C74.448 49.552 71.344 48.688 67.248 48.688C63.984 48.688 61.008 49.264 58.32 50.416C55.696 51.568 53.424 53.328 51.504 55.696L42.768 48.976C45.392 45.456 48.912 42.736 53.328 40.816C57.808 38.832 62.8 37.84 68.304 37.84C73.168 37.84 77.392 38.64 80.976 40.24C84.624 41.776 87.408 43.984 89.328 46.864C91.312 49.744 92.304 53.168 92.304 57.136C92.304 59.312 92.016 61.488 91.44 63.664C90.864 65.776 89.776 68.016 88.176 70.384C86.576 72.752 84.24 75.408 81.168 78.352L58.224 100.144L55.632 95.44H94.896V106H45.36Z" fill="#835CFA"/>
</svg>
