<svg width="142" height="142" viewBox="0 0 142 142" fill="none" xmlns="http://www.w3.org/2000/svg">
<circle cx="71" cy="71" r="68.5" stroke="#835CFA" stroke-width="5"/>
<path d="M67.344 106.96C62.608 106.96 57.968 106.288 53.424 104.944C48.944 103.536 45.168 101.616 42.096 99.184L47.472 89.488C49.904 91.472 52.848 93.072 56.304 94.288C59.76 95.504 63.376 96.112 67.152 96.112C71.632 96.112 75.12 95.216 77.616 93.424C80.112 91.568 81.36 89.072 81.36 85.936C81.36 82.864 80.208 80.432 77.904 78.64C75.6 76.848 71.888 75.952 66.768 75.952H60.624V67.408L79.824 44.56L81.456 49.264H45.36V38.8H91.152V47.152L71.952 70L65.424 66.16H69.168C77.424 66.16 83.6 68.016 87.696 71.728C91.856 75.376 93.936 80.08 93.936 85.84C93.936 89.616 92.976 93.104 91.056 96.304C89.136 99.504 86.192 102.096 82.224 104.08C78.32 106 73.36 106.96 67.344 106.96Z" fill="#835CFA"/>
</svg>
