<svg xmlns="http://www.w3.org/2000/svg" width="7290" height="3821" style="shape-rendering:geometricPrecision;text-rendering:geometricPrecision;image-rendering:optimizeQuality;fill-rule:evenodd;clip-rule:evenodd"><path style="opacity:1" fill="#e9f2f9" d="M6802.5 3799.5c-28.17.33-56.17 0-84-1 10.18-10.17 10.52-20.67 1-31.5-2.63-2.15-5.63-3.48-9-4-439.5-.17-878.83-.67-1318-1.5h1273v-186c15.18.33 30.18 0 45-1 10.23-2.08 15.56-8.41 16-19-.49-10.49-5.83-16.99-16-19.5-206.33-.5-412.67-.67-619-.5 67.37-11.86 110.2-50.86 128.5-117 1.47-7.94 2.47-15.94 3-24 .67-24.67.67-49.33 0-74-1.24-8.93-3.08-17.6-5.5-26-18.18-54.84-55.51-88.18-112-100 127.71.33 255.37 0 383-1 8.59-2.75 14.42-8.42 17.5-17 .67-7.33.67-14.67 0-22-2.95-11.06-10.11-17.4-21.5-19-19.83-1-39.83-1.33-60-1 .45-91 .78-182 1-273 20.17.33 40.17 0 60-1 10.72-1.55 17.55-7.55 20.5-18 .67-7.67.67-15.33 0-23-3.42-9.74-10.25-15.58-20.5-17.5-124.33-.5-248.67-.67-373-.5 17.65-4.09 31.49-13.75 41.5-29 15.09-33.38 23.76-68.38 26-105 2.99-42.9.99-85.57-6-128a966.891 966.891 0 0 0-37.5-154c34.7-.17 69.37-1.33 104-3.5 34.36-2.5 67.69-9.5 100-21 8.84-4.17 17.17-9.17 25-15 12.69-14.71 19.52-31.88 20.5-51.5 2.79-39.97.46-79.64-7-119a1397.933 1397.933 0 0 0-45.5-182c.62.11 1.12.44 1.5 1 40.35-48.74 56.68-104.74 49-168-6.71-41.5-22.38-79.16-47-113-21.72-30.05-47.22-56.55-76.5-79.5a3901.262 3901.262 0 0 1-84-65c-35.02-28.86-56.52-65.69-64.5-110.5-2.43-39.07-11.77-76.41-28-112-20.62-48.78-49.79-91.61-87.5-128.5-23.34-21.67-50.68-36.01-82-43-55.7-3.81-110.03 3.19-163 21-20.77 7.43-38.27 19.6-52.5 36.5-19.57 25.13-35.57 52.46-48 82-39.25 96.18-56.25 196.18-51 300 2.5 44.34 14.17 86.01 35 125 4.04 6.1 8.54 11.77 13.5 17l-58.5 214c-.74 2.69-1.91 5.03-3.5 7-93.66-1.33-187.66-2-282-2-94 .33-188 .67-282 1 .12.61.46.94 1 1 53.96 135.57 108.3 270.9 163 406 1.52 4.72 3.35 9.38 5.5 14 1.7.91 3.53 1.24 5.5 1a1400.931 1400.931 0 0 0-55.5 68 3154.523 3154.523 0 0 0-125 189c-29.11 48.56-57.94 97.23-86.5 146h-208c.24-1.29-.1-2.29-1-3-4.02-16.75-8.35-33.41-13-50a236.334 236.334 0 0 0-9-36v-1c.62-.42.96-1.08 1-2-6.17-23.33-12.33-46.67-18.5-70-183.28-684.3-366.78-1368.3-550.5-2052-154.17-1-308.5-1.333-463-1 56.04-87.399 123.04-165.899 201-235.5 127.39-111.574 271.72-195.24 433-251 139.76-48.018 283.43-77.018 431-87 371.32-21.804 722.32 52.196 1053 222 166.65 87.258 315.81 198.424 447.5 333.5 258.13 273.143 388.63 598.81 391.5 977-.31 124.53-14.15 247.53-41.5 369-10.49 42.96-20.82 85.96-31 129-20.34 94.73-27 190.39-20 287 7.88 88.76 29.22 174.1 64 256 26.88 61.76 57.88 121.09 93 178a8818.533 8818.533 0 0 1 133 214c31.38 54.1 57.38 110.77 78 170 35.83 111.35 41.83 224.35 18 339-18.92 87.09-47.59 170.76-86 251-10.2 20.39-20.36 40.72-30.5 61Z"/><path style="opacity:1" fill="#accbf9" d="M2280.5 220.5c6.63 4.32 13.3 8.653 20 13 119.12 82.482 220.95 182.149 305.5 299a782.155 782.155 0 0 1 35.5 54h-86c-35.19-50.309-74.19-97.642-117-142-10.33-11-21-21.667-32-32-56.47-54.815-118.13-102.815-185-144-61.85-39.315-127.18-71.815-196-97.5 18.81 34.925 31.14 72.092 37 111.5 10.57 74.069 12.73 148.402 6.5 223a1589.472 1589.472 0 0 1-7.5 81h-66a1387.637 1387.637 0 0 0 10.5-208 572.566 572.566 0 0 0-16-122c-6.41-24.805-17.07-47.471-32-68-6.22-6.731-13.38-12.064-21.5-16-7.12-3.698-14.79-5.698-23-6-16.12 1.204-31.45 5.371-46 12.5-26.52 13.855-50.86 30.855-73 51a904.516 904.516 0 0 0-84.5 90.5c-65.79 83.67-124.29 172.337-175.5 266h-75a6161.337 6161.337 0 0 1 51-91 2107.896 2107.896 0 0 1 133.5-198c27-34.012 55.84-66.512 86.5-97.5 29.64-28.991 62.14-54.158 97.5-75.5.33.333.67.667 1 1a77.265 77.265 0 0 1 16.5-8.5c-268.26-52.51-523.93-16.511-767 108a1293.201 1293.201 0 0 0-130 80c11.964 25.442 25.297 49.942 40 73.5 30.35 49.116 66.02 94.783 107 137 0 .667.33 1 1 1a1159.005 1159.005 0 0 0 73 70h-97c-62.83-61.314-115.999-129.981-159.5-206a865.445 865.445 0 0 1-18-35 1512.356 1512.356 0 0 0-84.5 75c-3 2.333-5.667 5-8 8-3 2.333-5.667 5-8 8-45.795 46.448-87.129 96.448-124 150h-46c-2.582-.475-4.582.192-6 2a4365.476 4365.476 0 0 0-50 16.5 4.933 4.933 0 0 0-1 2.5 24438.216 24438.216 0 0 1 32 134 90.741 90.741 0 0 1-12.5-15c-69.975 138.572-109.975 285.24-120 440a1146.096 1146.096 0 0 0 3 184c.308.81.808 1.47 1.5 2a3130.016 3130.016 0 0 0 299 107 4091.649 4091.649 0 0 1 15 61 2618.788 2618.788 0 0 1-55-17 3717.045 3717.045 0 0 1-251-87l-1 2.5c9.725 63.06 24.392 124.9 44 185.5 29.709.46 59.376 1.79 89 4a3062.635 3062.635 0 0 1 200 23 2067.273 2067.273 0 0 1 16 68 2651.19 2651.19 0 0 0-280-29c60.786 150.44 149.12 282.27 265 395.5a1360.541 1360.541 0 0 0 99 86 810.993 810.993 0 0 0 29 20.5 2837.31 2837.31 0 0 1 24 102c-170.647-107.81-306.814-248.81-408.5-423a1483.92 1483.92 0 0 1-60.5-119 33547.79 33547.79 0 0 1-18-42c-38.818-98.6-64.151-200.6-76-306-90.182-35.92-175.515-80.42-256-133.5a682.524 682.524 0 0 1-67-54.5c-5.667-5-11-10.33-16-16-25.38-25.41-44.213-55.07-56.5-89-2.894-9.98-5.06-19.98-6.5-30v-19c3.878-30.42 16.378-56.757 37.5-79 16.099-16.461 34.266-30.127 54.5-41 45.18-21.969 92.514-37.803 142-47.5A1764.39 1764.39 0 0 1 458 847.5c21.611-63.853 48.444-125.353 80.5-184.5-46.737-63.506-84.237-132.339-112.5-206.5-15.721-42.443-24.221-86.61-25.5-132.5 2.225-99.195 48.225-169.195 138-210 61.286-24.326 124.953-35.493 191-33.5 99.772 1.823 197.605 16.49 293.5 44a1056.799 1056.799 0 0 1 61 17C1332.35 25.352 1591.19-6.148 1860.5 47c151.54 31.31 291.54 89.143 420 173.5Zm-770 275a6161.337 6161.337 0 0 0-51 91h-290a1159.005 1159.005 0 0 1-73-70c1.05-.578.88-1.244-.5-2-.4.228-.57.562-.5 1-40.98-42.217-76.65-87.884-107-137-14.703-23.558-28.036-48.058-40-73.5a1293.201 1293.201 0 0 1 130-80c243.07-124.511 498.74-160.51 767-108a77.265 77.265 0 0 0-16.5 8.5c-.33-.333-.67-.667-1-1-35.36 21.342-67.86 46.509-97.5 75.5a1194.392 1194.392 0 0 0-86.5 97.5 2107.896 2107.896 0 0 0-133.5 198Zm-706-168a1338.975 1338.975 0 0 0-107 107 1458.673 1458.673 0 0 0-104 136 591.534 591.534 0 0 0-17.5 28 707.179 707.179 0 0 1-29.5-47c-31.713-50.593-55.213-104.926-70.5-163-8.25-34.081-9.583-68.415-4-103 6.165-30.014 20.331-55.347 42.5-76 22.259-20.14 47.926-34.64 77-43.5 35.535-10.743 71.868-16.743 109-18 100.928-1.401 199.928 11.765 297 39.5-68.805 40.468-133.139 87.134-193 140Zm1132-155c8.12 3.936 15.28 9.269 21.5 16 14.93 20.529 25.59 43.195 32 68a572.566 572.566 0 0 1 16 122 1387.637 1387.637 0 0 1-10.5 208h-461c51.21-93.663 109.71-182.33 175.5-266a904.516 904.516 0 0 1 84.5-90.5c22.14-20.145 46.48-37.145 73-51 14.55-7.129 29.88-11.296 46-12.5 8.21.302 15.88 2.302 23 6Zm285 96c66.87 41.185 128.53 89.185 185 144 11 10.333 21.67 21 32 32 42.81 44.358 81.81 91.691 117 142h-494c3.19-26.925 5.69-53.925 7.5-81 6.23-74.598 4.07-148.931-6.5-223-5.86-39.408-18.19-76.575-37-111.5 68.82 25.685 134.15 58.185 196 97.5Zm-1149 318h-402c36.871-53.552 78.205-103.552 124-150 2.333-3 5-5.667 8-8 2.333-3 5-5.667 8-8a1512.356 1512.356 0 0 1 84.5-75 865.445 865.445 0 0 0 18 35c43.501 76.019 96.67 144.686 159.5 206Zm-636 313c1.788-.285 3.455.048 5 1-39.848 136.63-55.181 275.97-46 418-69.345-29.68-135.678-65.18-199-106.5-33.546-22.05-64.379-47.55-92.5-76.5-15.258-16.18-27.258-34.51-36-55-11.36-30.87-5.86-58.2 16.5-82a205.32 205.32 0 0 1 36-27.5c29.234-15.525 59.901-27.525 92-36a1039.567 1039.567 0 0 1 143-27 4183.817 4183.817 0 0 1 81-8.5Z"/><path style="opacity:1" fill="#cce0fa" d="M3111.5-.5h1a36478.72 36478.72 0 0 0 209.5 289c.59.983.26 1.65-1 2-3-.535-5.83-1.202-8.5-2 3.1.087 3.43-.413 1-1.5a30214.329 30214.329 0 0 1-369-105 18.44 18.44 0 0 0-6-.5 29251.808 29251.808 0 0 0-290-83.5c111.36 4.585 222.69 9.918 334 16a101.22 101.22 0 0 0 17 8.5 7761.403 7761.403 0 0 0 40 21c.68-.363 1.35-.696 2-1-.17 1.322.16 2.489 1 3.5 90.81 46.405 181.48 92.738 272 139-87.83-59.833-175.67-119.667-263.5-179.5-.38.556-.88.889-1.5 1 20.4-35.803 41.07-71.47 62-107Z"/><path style="opacity:1" fill="#9ec3f6" d="M3041.5 142.5a701.149 701.149 0 0 1 8-36c.62-.111 1.12-.444 1.5-1 87.83 59.833 175.67 119.667 263.5 179.5-90.52-46.262-181.19-92.595-272-139-.84-1.011-1.17-2.178-1-3.5Z"/><path style="opacity:.059" fill="#f9fdf1" d="M2999.5 121.5c1.33.667 1.33.667 0 0Z"/><path style="opacity:.031" fill="#fefdf3" d="M1028.5 123.5c1.33.667 1.33.667 0 0Z"/><path style="opacity:.031" fill="#fafcf3" d="M512.5 124.5c1.333.667 1.333.667 0 0Z"/><path style="opacity:1" fill="#9fc3f6" d="M2938.5 181.5a18.44 18.44 0 0 1 6 .5 30214.329 30214.329 0 0 0 369 105c2.43 1.087 2.1 1.587-1 1.5a82048.414 82048.414 0 0 1-399-56.5 3.627 3.627 0 0 1-1-1.5 1567.74 1567.74 0 0 0 22.5-46c.76-1.563 1.93-2.563 3.5-3Z"/><path style="opacity:.031" fill="#fbfff3" d="M2263.5 207.5c1.33.667 1.33.667 0 0Z"/><path style="opacity:.031" fill="#fcfff2" d="M425.5 209.5c1.333.667 1.333.667 0 0Z"/><path style="opacity:.031" fill="#fdfef3" d="M2280.5 219.5c1.33.667 1.33.667 0 0Z"/><path style="opacity:.031" fill="#f9fdf3" d="M2300.5 232.5c1.33.667 1.33.667 0 0Z"/><path style="opacity:.031" fill="#fbfff3" d="M2307.5 235.5c1.33.667 1.33.667 0 0Z"/><path style="opacity:.031" fill="#fcfdf2" d="M3280.5 285.5c1.33.667 1.33.667 0 0Z"/><path style="opacity:.031" fill="#fefef3" d="M2463.5 364.5c1.33.667 1.33.667 0 0Z"/><path style="opacity:1" fill="#fefefe" d="M5088.5 463.5c191.84 1.102 353.84 70.102 486 207a1091.173 1091.173 0 0 1 49.5 60c1.11 1.897 1.28 3.73.5 5.5a3131.637 3131.637 0 0 1-61 44c-1 .667-2 .667-3 0-94.21-126.753-219.55-203.419-376-230-149.75-20.266-286.75 11.734-411 96-33.62 23.951-64.45 51.118-92.5 81.5a4.949 4.949 0 0 0-.5 3c-1.18-.219-2.18.114-3 1-15 17.367-29.5 35.033-43.5 53a1431.362 1431.362 0 0 1-65.5-45.5c94.59-130.191 219.92-215.857 376-257 47.48-11.101 95.48-17.268 144-18.5Z"/><path style="opacity:1" fill="#8b9ec9" d="M624.5 586.5h3044c154.5-.333 308.83 0 463 1-1168.83-.333-2337.5 0-3506 1-.838-.342-1.172-1.008-1-2Z"/><path style="opacity:1" fill="#699dee" d="M4131.5 587.5c183.72 683.7 367.22 1367.7 550.5 2052 6.17 23.33 12.33 46.67 18.5 70-.04.92-.38 1.58-1 2h-2v-4c-1179.37.43-2358.7.76-3538 1l-2-2c-1.01.44-1.01 1.1 0 2-7.61.93-14.95 1.26-22 1a4785986.753 4785986.753 0 0 1-503-2089l-7-32c1168.5-1 2337.17-1.333 3506-1Z"/><path style="opacity:1" fill="#b9b2b2" d="M632.5 620.5a4785986.753 4785986.753 0 0 0 503 2089v2c5.82.83 11.82 1.33 18 1.5a66160.12 66160.12 0 0 1 129 518.5 3172.41 3172.41 0 0 0-75 57c-33.99-141.3-67.99-282.64-102-424-14.49-60.97-28.83-121.97-43-183-32.84-135.7-65.508-271.36-98-407a2837.31 2837.31 0 0 0-24-102 69274.253 69274.253 0 0 0-113-473 2067.273 2067.273 0 0 0-16-68c-8.831-36.99-17.498-73.99-26-111a4091.649 4091.649 0 0 0-15-61c-57.078-239.63-114.078-478.963-171-718a24438.216 24438.216 0 0 0-32-134 4.933 4.933 0 0 1 1-2.5 4365.476 4365.476 0 0 1 50-16.5c2.051-1.538 3.718-1.204 5 1-1.141.925-1.141 1.759 0 2.5-1.561.318-2.728 1.151-3.5 2.5-.5 8.994-.666 17.994-.5 27 2.411.363 3.911-.637 4.5-3l3 4c1.444-1.655 3.278-2.322 5.5-2Z"/><path style="opacity:1" fill="#c6b2a1" d="M624.5 586.5c-.172.992.162 1.658 1 2l7 32c-2.222-.322-4.056.345-5.5 2l-3-4c-.589 2.363-2.089 3.363-4.5 3-.166-9.006 0-18.006.5-27 .772-1.349 1.939-2.182 3.5-2.5-1.141-.741-1.141-1.575 0-2.5-1.282-2.204-2.949-2.538-5-1 1.418-1.808 3.418-2.475 6-2Z"/><path style="opacity:1" fill="#fefefe" d="M5064.5 651.5c163.13-6.813 296.13 51.854 399 176 3.67 5.333 7.33 10.667 11 16-21.29 15.32-42.62 30.653-64 46-71.34-94.03-166.34-146.53-285-157.5-121.69-5.194-224.52 35.64-308.5 122.5a376.546 376.546 0 0 0-29 36c-1.05 1.017-2.22 1.184-3.5.5a4124.614 4124.614 0 0 0-63-44.5c67.32-93.667 156.98-154.5 269-182.5l26-6c16.15-2.11 32.15-4.277 48-6.5Z"/><path style="opacity:1" fill="#aecdfb" d="M774.5 700.5c.111.617.444 1.117 1 1.5l1612.5.5 1612.5-.5c-1074.83-.167-2149.5-.667-3224-1.5h3231c13.33 49.991 26.66 99.991 40 150-1080 .333-2160 0-3240-1-.368-1.987-1.034-2.987-2-3a810.784 810.784 0 0 1-8-30c.624-.417.957-1.084 1-2a4333.97 4333.97 0 0 0-28-109 6.846 6.846 0 0 0-1-4c1.545-.952 3.212-1.285 5-1Z"/><path style="opacity:1" fill="#accef9" d="M774.5 700.5h2c1074.5.833 2149.17 1.333 3224 1.5l-1612.5.5-1612.5-.5c-.556-.383-.889-.883-1-1.5Z"/><path style="opacity:1" fill="#e8f2fd" d="M1069.5 747.5c19.99-2.181 34.15 5.819 42.5 24 4.14 25.852-6.69 36.019-32.5 30.5-20.01-9.176-27.17-24.343-21.5-45.5 3.18-4.038 7.02-7.038 11.5-9ZM967.5 747.5c23.391-1.892 38.22 8.442 44.5 31 .65 16.016-7.02 24.35-23 25-12.777-.723-22.777-6.389-30-17-6.277-10.029-6.943-20.362-2-31 2.94-3.537 6.44-6.203 10.5-8ZM872.5 747.5c18.627-1.936 32.793 5.064 42.5 21 6.713 27.288-3.787 38.455-31.5 33.5-17.801-7.773-25.634-21.273-23.5-40.5 2.268-6.431 6.434-11.097 12.5-14Z"/><path style="opacity:1" fill="#d5e6fb" d="M770.5 705.5a4333.97 4333.97 0 0 1 28 109c-.043.916-.376 1.583-1 2a4442.121 4442.121 0 0 1-27-111Z"/><path style="opacity:1" fill="#fefefe" d="M5072.5 806.5c95.78-5.814 177.45 24.686 245 91.5.95.483 1.95.649 3 .5a4.949 4.949 0 0 0 .5 3 154.897 154.897 0 0 1 26.5 32.5 1474.257 1474.257 0 0 1-64 46.5c-51.29-67.207-119.62-98.374-205-93.5-58.26 6.548-107.43 31.048-147.5 73.5a536.01 536.01 0 0 1-17.5 21 2996.798 2996.798 0 0 1-63-44c-.33-.667-.67-1.333-1-2 40.01-55.835 92.67-94.335 158-115.5 21.49-6.021 43.16-10.521 65-13.5Z"/><path style="opacity:1" fill="#e8f2fc" d="M4047.5 850.5c162.72 589.02 325.39 1178.19 488 1767.5-1.22 2.17-1.22 4.34 0 6.5h-2261c-9.96-75.41-20.3-150.74-31-226 3.28.28 6.44-.05 9.5-1 15.12-93.36 30.29-186.7 45.5-280 10.73-.08 20.23-3.41 28.5-10 1.44-1.77 2.44-3.77 3-6 .28-23.16-2.55-45.83-8.5-68 6.93-13.06 10.77-27.06 11.5-42 .67-9.67.67-19.33 0-29a57.891 57.891 0 0 0-5.5-19c6.12-40.7 12.45-81.36 19-122-23.34-.61-46.67-1.28-70-2a8332.806 8332.806 0 0 0-48.5-195 2116.36 2116.36 0 0 0-19-62c-4.28-11.93-10.61-22.6-19-32-20.5-20.17-43-37.67-67.5-52.5a1238.246 1238.246 0 0 0-145-74.5 284.94 284.94 0 0 0-24-25.5c-4.31-3.48-8.97-6.32-14-8.5-.67-7.33-1.33-14.67-2-22 .29-6.76-.04-13.42-1-20 11.79.58 21.62-3.42 29.5-12 8.19-14.58 13.19-30.25 15-47 4.57-43.99 4.57-87.99 0-132a335.261 335.261 0 0 0-7.5-44c10.32-3.07 18.82-8.73 25.5-17 2.16-3.76 2.82-7.76 2-12a50.286 50.286 0 0 0-6-12 625.737 625.737 0 0 1-31-36c-26.95-27.948-58.45-49.115-94.5-63.5-52.63-12.336-102.63-5.336-150 21-29.67 15.334-51.5 38.17-65.5 68.5-7.62 20.34-10.29 41.34-8 63 8.7 56.47 29.7 107.8 63 154 12.59 16.94 28.43 29.77 47.5 38.5a72.204 72.204 0 0 0 19 2.5c.66 1.63.99 3.47 1 5.5a400.76 400.76 0 0 1-13 60.5c-17.24 8.79-32.91 19.79-47 33-49.12 5.32-95.78 18.82-140 40.5-21.79 11.45-40.95 26.29-57.5 44.5-11.6 17.52-21.93 35.86-31 55-55.51 117.54-95.18 240.2-119 368a612.067 612.067 0 0 0-8 131c1.82 33.97 10.49 65.97 26 96 15.24 24.9 36.74 42.07 64.5 51.5 26.21 9.13 53.21 14.3 81 15.5-1.26 30.66-2.26 61.32-3 92-4.52 108.65-8.52 217.31-12 326-.96 1.76-1.29 3.76-1 6h-265a4291740.504 4291740.504 0 0 1-446-1778c.966.013 1.632 1.013 2 3 1080 1 2160 1.333 3240 1Z"/><path style="opacity:1" fill="#beb5b4" d="M3925.5 895.5c22.01.84 31.51 12.174 28.5 34-8.78 16.372-21.62 20.539-38.5 12.5-14.58-13.999-14.58-27.999 0-42a236.3 236.3 0 0 1 10-4.5Z"/><path style="opacity:.031" fill="#fbfcf3" d="M91.5 922.5c-.667-1.333-.667-1.333 0 0Z"/><path style="opacity:1" fill="#233863" d="M1973.5 1092.5c-9.35 3.59-19.02 6.09-29 7.5-25.04.78-50.04 2.12-75 4-24.34 4.49-38.51 18.99-42.5 43.5-1 12.69-4.33 24.69-10 36-6.35 10.11-15.19 13.95-26.5 11.5-4.5-4-8.5-8.5-12-13.5-6.23-6.8-13.9-9.3-23-7.5-7.35 3.86-10.68 10.03-10 18.5-.07 16.32 5.76 29.99 17.5 41 1 2.33 2 4.67 3 7 .33 12 .67 24 1 36 1.18 8.37 4.01 16.03 8.5 23-6.44.01-12.77-.82-19-2.5-19.07-8.73-34.91-21.56-47.5-38.5-33.3-46.2-54.3-97.53-63-154-2.29-21.66.38-42.66 8-63 14-30.33 35.83-53.166 65.5-68.5 47.37-26.336 97.37-33.336 150-21 36.05 14.385 67.55 35.552 94.5 63.5a625.737 625.737 0 0 0 31 36c2.53 3.72 4.53 7.72 6 12 .82 4.24.16 8.24-2 12-6.68 8.27-15.18 13.93-25.5 17Z"/><path style="opacity:1" fill="#fefefe" d="M5085.5 986.5c48.16-3.242 86.83 14.09 116 52-8.17 6.66-16.5 13.16-25 19.5a6773.245 6773.245 0 0 0-78 54.5c-25.3-17.33-50.3-35.16-75-53.5a111.598 111.598 0 0 1-27-19.5c5.13-7.3 10.8-14.13 17-20.5 20.76-18.02 44.76-28.856 72-32.5ZM3912.5 1022.5h67c31.39 120.01 62.89 240.01 94.5 360 5.06 21.37 10.23 42.7 15.5 64-113.67-.02-227.33.31-341 1-36.81-141.14-73.48-282.47-110-424 91.5.33 182.83 0 274-1ZM2416.5 1195.5c54.67.33 109.34 0 164-1a7459.97 7459.97 0 0 1-43-165c94.83-1.54 189.83-2.37 285-2.5 219.17-.46 438.34-1.3 657.5-2.5 16.83.33 33.67.67 50.5 1 92.7 352.93 184.87 706.26 276.5 1060a6196.39 6196.39 0 0 1 48 184c21.35 78.39 41.85 157.06 61.5 236-397.33 2.17-794.66 3.33-1192 3.5-22.37-83.44-44.53-166.94-66.5-250.5-91.83-353.99-184-707.99-276.5-1062 11.85.33 23.51-.01 35-1Z"/><path style="opacity:1" fill="#accbf9" d="M2537.5 1029.5a7459.97 7459.97 0 0 0 43 165c-54.66 1-109.33 1.33-164 1-11.67.17-23.34 0-35-.5 51.47-55.47 102.97-110.97 154.5-166.5.38.56.88.89 1.5 1Z"/><path style="opacity:1" fill="#accbf8" d="M3750.5 1072.5c47.67-.33 95.34 0 143 1a9.127 9.127 0 0 1 1 5c-47.67.33-95.34 0-143-1a9.127 9.127 0 0 1-1-5Z"/><path style="opacity:1" fill="#b2cef9" d="M3736.5 1089.5h180c.49 2.31.83 4.64 1 7h-180c-.17-2.36-.51-4.69-1-7Z"/><path style="opacity:1" fill="#feb17e" d="M1973.5 1092.5c3.47 14.46 5.97 29.12 7.5 44 4.57 44.01 4.57 88.01 0 132-1.81 16.75-6.81 32.42-15 47-7.88 8.58-17.71 12.58-29.5 12-35.82 4.72-71.48 3.89-107-2.5-19.12-5.08-36.45-12.91-52-23.5 39.85 38.12 87.51 54.28 143 48.5a74.68 74.68 0 0 1 17-2.5c.67 7.33 1.33 14.67 2 22-.13 5.72.37 11.39 1.5 17 2.15 7.94 3.98 15.94 5.5 24 1.79 16.96-3.21 31.46-15 43.5a65.957 65.957 0 0 1-17 8c-38.28 7.55-75.95 5.38-113-6.5a383.03 383.03 0 0 0-30.5-81 95.629 95.629 0 0 0-7.5-9 400.76 400.76 0 0 0 13-60.5c-.01-2.03-.34-3.87-1-5.5-4.49-6.97-7.32-14.63-8.5-23-.33-12-.67-24-1-36-1-2.33-2-4.67-3-7-11.74-11.01-17.57-24.68-17.5-41-.68-8.47 2.65-14.64 10-18.5 9.1-1.8 16.77.7 23 7.5 3.5 5 7.5 9.5 12 13.5 11.31 2.45 20.15-1.39 26.5-11.5 5.67-11.31 9-23.31 10-36 3.99-24.51 18.16-39.01 42.5-43.5 24.96-1.88 49.96-3.22 75-4 9.98-1.41 19.65-3.91 29-7.5Z"/><path style="opacity:1" fill="#233863" d="M6333.5 1993.5c-24.63-83.06-56.79-163.06-96.5-240-13.32-26.48-32.49-47.65-57.5-63.5-31.34-17.78-64.67-30.45-100-38a567.798 567.798 0 0 0-72-10.5c-8.47-8.26-14.97-17.92-19.5-29a497.041 497.041 0 0 1-22.5-95c4.74-15.31 6.24-30.97 4.5-47a829.97 829.97 0 0 1-5.5-40c-18.69.34-37.36-.16-56-1.5-24.95-4.21-48.62-12.21-71-24a681.625 681.625 0 0 1-91.5-57.5c-14.31 16.29-22.98 35.29-26 57-5.27 31.49-4.6 62.83 2 94 9.05 30.1 21.39 58.77 37 86 5.41 8.08 11.58 15.58 18.5 22.5 7.28 6.08 15.62 8.08 25 6 7.69-1.5 15.35-3 23-4.5 2.67 15.67 5.33 31.33 8 47v1c-46.58 8.14-90.92 22.97-133 44.5-18.27 9.61-33.44 22.77-45.5 39.5-3.02 5.04-5.19 10.37-6.5 16-4.96-5.23-9.46-10.9-13.5-17-20.83-38.99-32.5-80.66-35-125-5.25-103.82 11.75-203.82 51-300 12.43-29.54 28.43-56.87 48-82 14.23-16.9 31.73-29.07 52.5-36.5 52.97-17.81 107.3-24.81 163-21 31.32 6.99 58.66 21.33 82 43 37.71 36.89 66.88 79.72 87.5 128.5 16.23 35.59 25.57 72.93 28 112 7.98 44.81 29.48 81.64 64.5 110.5 27.71 22.05 55.71 43.72 84 65 29.28 22.95 54.78 49.45 76.5 79.5 24.62 33.84 40.29 71.5 47 113 7.68 63.26-8.65 119.26-49 168-.38-.56-.88-.89-1.5-1Z"/><path style="opacity:1" fill="#afcdf9" d="M3813.5 1175.5h152c.49 2.31.83 4.64 1 7-77.67.33-155.34 0-233-1a9.127 9.127 0 0 1-1-5c27.17.33 54.17 0 81-1Z"/><path style="opacity:.031" fill="#fefcf2" d="M62.5 1180.5c-.667.67-.667.67 0 0Z"/><path style="opacity:.031" fill="#fefaf2" d="M78.5 1196.5c-.667.67-.667.67 0 0Z"/><path style="opacity:1" fill="#b1cdf9" d="M3737.5 1196.5h234c-.14 1.76.19 3.43 1 5-6.67.33-13.33.67-20 1-71.33.93-142.66 1.26-214 1-.17-2.36-.51-4.69-1-7Z"/><path style="opacity:1" fill="#accbf9" d="M3742.5 1217.5c78-.33 156 0 234 1a9.127 9.127 0 0 1 1 5c-77.67.17-155.33 0-233-.5-1.36-1.58-2.03-3.42-2-5.5Z"/><path style="opacity:1" fill="#aeccf9" d="M2946.5 1228.5c83.67-.33 167.34 0 251 1a87.68 87.68 0 0 1 4 18c-140.33.03-280.67.36-421 1-.92-6.42-2.25-12.76-4-19 56.84.33 113.5 0 170-1Z"/><path style="opacity:1" fill="#adccf9" d="M3880.5 1237.5c33.67-.33 67.34 0 101 1 .67 1.67 1.33 3.33 2 5-78 1-156 1.33-234 1-.33-2-.67-4-1-6 44.17.33 88.17 0 132-1Z"/><path style="opacity:1" fill="#fefdfb" d="M1940.5 1254.5h24c-7.42 19.22-21.42 26.72-42 22.5-7.81-1.24-14.47-4.57-20-10 12.06-6.3 24.73-10.47 38-12.5Z"/><path style="opacity:1" fill="#afccf8" d="M3753.5 1258.5h234c.33 2 .67 4 1 6-78 .24-156 .57-234 1-.17-2.36-.51-4.69-1-7Z"/><path style="opacity:1" fill="#adcbf9" d="M3058.5 1279.5h206a111.76 111.76 0 0 0 5 18c-176.33 1.19-352.66 1.86-529 2-1.54-5.95-2.87-11.95-4-18 107.5-.54 214.83-1.21 322-2Z"/><path style="opacity:1" fill="#b1cdf9" d="M3797.5 1308.5h203c.83 2.25.83 4.42 0 6.5-77.33.67-154.67.67-232 0-.76-1.44-1.43-2.94-2-4.5 10.49-.67 20.83-1.33 31-2Z"/><path style="opacity:.059" fill="#fafdf1" d="M256.5 1320.5c1.333.67 1.333.67 0 0Z"/><path style="opacity:1" fill="#e0925e" d="M1936.5 1327.5c.96 6.58 1.29 13.24 1 20a74.68 74.68 0 0 0-17 2.5c-55.49 5.78-103.15-10.38-143-48.5 15.55 10.59 32.88 18.42 52 23.5 35.52 6.39 71.18 7.22 107 2.5Z"/><path style="opacity:1" fill="#b0cdf9" d="M3772.5 1329.5c77.67-.17 155.33 0 233 .5.91 1.7 1.24 3.53 1 5.5-77.67.59-155.33.92-233 1-.49-2.31-.83-4.64-1-7Z"/><path style="opacity:1" fill="#feb17d" d="M6007.5 1641.5c-28.04 17.85-58.04 31.68-90 41.5-14.72 4.22-29.72 5.88-45 5-19.68-2.48-32.68-12.98-39-31.5v-1c1.19.18 2.36.51 3.5 1 21.94-4.89 41.44-14.39 58.5-28.5 25.03-22.82 42.53-50.32 52.5-82.5-21.72 21.35-46.88 37.52-75.5 48.5a473.246 473.246 0 0 1-40.5 12.5c-1.67 1.01-3.01 2.34-4 4-.42-1.26-1.25-1.92-2.5-2-7.65 1.5-15.31 3-23 4.5-9.38 2.08-17.72.08-25-6a148.975 148.975 0 0 1-18.5-22.5 409.385 409.385 0 0 1-37-86c-6.6-31.17-7.27-62.51-2-94 3.02-21.71 11.69-40.71 26-57a681.625 681.625 0 0 0 91.5 57.5c22.38 11.79 46.05 19.79 71 24 18.64 1.34 37.31 1.84 56 1.5a829.97 829.97 0 0 0 5.5 40c1.74 16.03.24 31.69-4.5 47 4.39 32.44 11.89 64.1 22.5 95 4.53 11.08 11.03 20.74 19.5 29Z"/><path style="opacity:1" fill="#aeccf9" d="M3888.5 1349.5c40.67-.17 81.33 0 122 .5a14.75 14.75 0 0 1 2 6.5h-234c.14-1.76-.19-3.43-1-5 37.16-.67 74.16-1.33 111-2Z"/><path style="opacity:1" fill="#c9ddf9" d="M3932.5 1370.5c-49.84.33-99.51 1.33-149 3-.9-.71-1.24-1.71-1-3h150Z"/><path style="opacity:1" fill="#afcdf9" d="M3932.5 1370.5c28.01-.33 56.01 0 84 1 .85 1.91 1.18 3.91 1 6-77.67.33-155.34 0-233-1-.63-.92-.96-1.92-1-3 49.49-1.67 99.16-2.67 149-3Z"/><path style="opacity:1" fill="#233863" d="M1763.5 1365.5c2.67 2.83 5.17 5.83 7.5 9a383.03 383.03 0 0 1 30.5 81 2343.292 2343.292 0 0 1 46 199 4147.65 4147.65 0 0 0-46.5-79 8.765 8.765 0 0 1-1.5-5h-3c.16-1.37-.01-2.71-.5-4-29.91-51.64-59.74-103.47-89.5-155.5 3.17-4.33 6.5-8.5 10-12.5 14.09-13.21 29.76-24.21 47-33Z"/><path style="opacity:1" fill="#243863" d="M1939.5 1369.5c5.03 2.18 9.69 5.02 14 8.5 8.6 8.09 16.6 16.59 24 25.5.45 2.64 1.62 4.97 3.5 7 6 70.64 11.5 141.31 16.5 212-16.68-70.71-33.68-141.38-51-212-1.52-8.06-3.35-16.06-5.5-24a76.995 76.995 0 0 1-1.5-17Z"/><path style="opacity:1" fill="#afccf9" d="M3788.5 1391.5h234c-.24 1.97.09 3.8 1 5.5-78 .94-156 1.44-234 1.5-.17-2.36-.51-4.69-1-7Z"/><path style="opacity:1" fill="#2b468b" d="M1716.5 1398.5c-3.5 4-6.83 8.17-10 12.5 29.76 52.03 59.59 103.86 89.5 155.5.49 1.29.66 2.63.5 4h3c-.01 1.81.49 3.48 1.5 5a4147.65 4147.65 0 0 1 46.5 79c15.43 53.93 26.76 108.6 34 164a24429.92 24429.92 0 0 0-35 217c-2.15-.13-4.15.37-6 1.5-8.01 9.01-13.18 19.51-15.5 31.5-3.96 15.11-5.3 30.45-4 46 .54 7.29 3.2 13.62 8 19 .49 1.63.66 3.3.5 5-13 79.99-26 159.99-39 240 63.32 3 126.65 5.67 190 8-.32 4.53.02 8.87 1 13 1.21 47.88 3.54 95.55 7 143v82c-156.83 1.23-313.83 1.23-471 0v-6c3.48-108.69 7.48-217.35 12-326 84.46-18.98 165.12-48.15 242-87.5a646.153 646.153 0 0 0 51-30 4075.53 4075.53 0 0 1-102 17c-21.35 2.2-42.68 4.53-64 7a771.043 771.043 0 0 1-124 1.5c-27.79-1.2-54.79-6.37-81-15.5-27.76-9.43-49.26-26.6-64.5-51.5-15.51-30.03-24.18-62.03-26-96-2.03-43.96.64-87.62 8-131 23.82-127.8 63.49-250.46 119-368 9.07-19.14 19.4-37.48 31-55 16.55-18.21 35.71-33.05 57.5-44.5 44.22-21.68 90.88-35.18 140-40.5ZM1977.5 1403.5c50.03 21.68 98.36 46.51 145 74.5 24.5 14.83 47 32.33 67.5 52.5 8.39 9.4 14.72 20.07 19 32 6.64 20.53 12.97 41.2 19 62a8332.806 8332.806 0 0 1 48.5 195c-18.31-1.13-36.65-1.8-55-2 .15-8.02-3.85-12.52-12-13.5-51.64-3.28-103.31-6.11-155-8.5a3753.232 3753.232 0 0 1-57-173c-5-70.69-10.5-141.36-16.5-212-1.88-2.03-3.05-4.36-3.5-7Z"/><path style="opacity:1" fill="#fefefe" d="M1946.5 1410.5c17.32 70.62 34.32 141.29 51 212a3753.232 3753.232 0 0 0 57 173c-8.69 1.02-14.35 5.69-17 14-15.32-.83-30.66-1.67-46-2.5l-2.5-2.5c-4.58 1.3-9.42 1.97-14.5 2-30.32-1.43-60.65-2.43-91-3-.41 5.04-1.07 10.04-2 15-7.24-55.4-18.57-110.07-34-164a2343.292 2343.292 0 0 0-46-199c37.05 11.88 74.72 14.05 113 6.5a65.957 65.957 0 0 0 17-8c11.79-12.04 16.79-26.54 15-43.5Z"/><path style="opacity:.999" fill="#eaf2f9" d="M730.5 1503.5a2618.788 2618.788 0 0 0 55 17c8.502 37.01 17.169 74.01 26 111a3062.635 3062.635 0 0 0-200-23 4.949 4.949 0 0 0 3-.5 2097.651 2097.651 0 0 1 116-102c1.098-.77 1.098-1.6 0-2.5Z"/><path style="opacity:1" fill="#adcbf9" d="M3288.5 1532.5c40.34-.33 80.67 0 121 1 1.51 5.71 3.18 11.38 5 17-183.33 1.65-366.66 2.65-550 3-45.33-.33-90.67-.67-136-1a179.14 179.14 0 0 1-5-18c188.5.3 376.84-.37 565-2Z"/><path style="opacity:1" fill="#fefefe" d="M4088.5 1548.5h29c35.89 141.32 72.56 282.32 110 423-113.33 1.33-226.66 1.83-340 1.5-1.17-.5-2-1.33-2.5-2.5a45736.508 45736.508 0 0 0-90-344c-6.27-25.31-12.44-50.64-18.5-76 104.16-.57 208.16-1.24 312-2Z"/><path style="opacity:1" fill="#e59d6d" d="M5833.5 1655.5c-2.67-15.67-5.33-31.33-8-47 1.25.08 2.08.74 2.5 2 .99-1.66 2.33-2.99 4-4 13.67-3.56 27.17-7.72 40.5-12.5 28.62-10.98 53.78-27.15 75.5-48.5-9.97 32.18-27.47 59.68-52.5 82.5-17.06 14.11-36.56 23.61-58.5 28.5-1.14-.49-2.31-.82-3.5-1Z"/><path style="opacity:1" fill="#adcbf9" d="M3220.5 1593.5c68.34-.33 136.67 0 205 1a134.06 134.06 0 0 0 5 17c-228.67 1.49-457.33 2.32-686 2.5a194 194 0 0 1-5-18.5c160.5-.15 320.83-.81 481-2Z"/><path style="opacity:1" fill="#accbf9" d="M3887.5 1598.5c47.67-.33 95.34 0 143 1a9.127 9.127 0 0 1 1 5h-143c-.02-2.06-.35-4.06-1-6Z"/><path style="opacity:1" fill="#b0cdf9" d="M3891.5 1615.5c54-.17 108 0 162 .5.92 2.04 1.26 4.21 1 6.5h-180v-6c5.86.32 11.52-.01 17-1Z"/><path style="opacity:1" fill="#fefefe" d="M6007.5 1641.5c24.22 1.96 48.22 5.46 72 10.5 35.33 7.55 68.66 20.22 100 38 25.01 15.85 44.18 37.02 57.5 63.5 39.71 76.94 71.87 156.94 96.5 240a1397.933 1397.933 0 0 1 45.5 182c7.46 39.36 9.79 79.03 7 119-.98 19.62-7.81 36.79-20.5 51.5a146.181 146.181 0 0 1-25 15c-32.31 11.5-65.64 18.5-100 21-34.63 2.17-69.3 3.33-104 3.5a6799.66 6799.66 0 0 1-93-4.5c-32.7-2.89-65.37-6.05-98-9.5a391.502 391.502 0 0 0-31-4c-.15-5.73-.81-11.4-2-17-2.15-19.23-1.15-38.23 3-57 2.28-3.7 4.95-7.2 8-10.5 4.67-2.67 9.33-5.33 14-8a286.71 286.71 0 0 0 36-12c63.06-15.35 126.4-29.68 190-43 10.69-2.68 21.36-5.34 32-8 4.82-1.53 9.49-3.37 14-5.5 1.15-2.26 1.31-4.6.5-7-14.01-28.96-30.01-56.63-48-83a20.69 20.69 0 0 0-2 6c-2.75-8.85-6.09-17.52-10-26-15.47-24.24-30.97-48.58-46.5-73-1.27 38.97-6.77 77.31-16.5 115-5.13 17.77-13.46 33.77-25 48a224.56 224.56 0 0 1-42.5 28.5c-14.29 6.93-28.63 13.93-43 21a2652.69 2652.69 0 0 0-109 48c1.24.23 2.24.73 3 1.5-23.1-4.7-46.44-6.86-70-6.5a2038.072 2038.072 0 0 0-77 36.5c-16-39.33-32-78.67-48-118 1.16-14.83 1.33-29.83.5-45l-1-1c-2.66 7.46-5.49 14.79-8.5 22-26.84-65.18-53.51-130.52-80-196 1.59-1.97 2.76-4.31 3.5-7l58.5-214c1.31-5.63 3.48-10.96 6.5-16 12.06-16.73 27.23-29.89 45.5-39.5 42.08-21.53 86.42-36.36 133-44.5 6.32 18.52 19.32 29.02 39 31.5 15.28.88 30.28-.78 45-5 31.96-9.82 61.96-23.65 90-41.5Z"/><path style="opacity:1" fill="#adcbf9" d="M3152.5 1654.5h289c1.54 5.95 2.87 11.95 4 18-228.34 1.03-456.67 1.86-685 2.5-1.74-5.79-3.41-11.62-5-17.5 132.5-1.36 264.83-2.36 397-3Z"/><path style="opacity:1" fill="#eaf2f9" d="M827.5 1699.5a69274.253 69274.253 0 0 1 113 473 810.993 810.993 0 0 1-29-20.5 1360.541 1360.541 0 0 1-99-86c-115.88-113.23-204.214-245.06-265-395.5a2651.19 2651.19 0 0 1 280 29Z"/><path style="opacity:.059" fill="#fdfef1" d="M477.5 1690.5c-.667.67-.667.67 0 0Z"/><path style="opacity:1" fill="#accbf9" d="M4056.5 1701.5c15.34-.17 30.67 0 46 .5.74 1.78 1.41 3.62 2 5.5-78 1-156 1.33-234 1 .14-1.76-.19-3.43-1-5 62.5-.67 124.83-1.33 187-2Z"/><path style="opacity:1" fill="#d0e1fb" d="M3355.5 1715.5c16.83-.67 33.83-1 51-1 17.35 0 34.35.67 51 2-33.93-.99-67.93-1.33-102-1Z"/><path style="opacity:1" fill="#adcbf9" d="M3355.5 1715.5c34.07-.33 68.07.01 102 1 1.49 5.63 2.82 11.29 4 17-228.67.87-457.33 1.54-686 2-1.46-5.97-2.79-11.97-4-18 194.66-1.22 389.33-1.89 584-2Z"/><path style="opacity:1" fill="#caddf9" d="M4032.5 1722.5c-52.51.33-104.84 1.33-157 3-.9-.71-1.24-1.71-1-3h158Z"/><path style="opacity:1" fill="#afccf9" d="M4032.5 1722.5h76c.49 2.31.83 4.64 1 7h-234v-4c52.16-1.67 104.49-2.67 157-3Z"/><path style="opacity:1" fill="#e9f2f9" d="M495.5 1732.5a1483.92 1483.92 0 0 0 60.5 119c101.686 174.19 237.853 315.19 408.5 423 32.492 135.64 65.16 271.3 98 407a410611.822 410611.822 0 0 0-489.5 450c-.667 1-.667 2 0 3 35.892 39.4 72.058 78.73 108.5 118a1372.752 1372.752 0 0 1 30.5 32c3.316 5.65 7.649 10.31 13 14a1783.169 1783.169 0 0 0 58.5 64c.886.82 1.219 1.82 1 3a255.11 255.11 0 0 1 19 19 9278.494 9278.494 0 0 1-151 18.5c-21.948 3.97-39.115 15.14-51.5 33.5-7.413 12.73-10.08 26.4-8 41a2210.05 2210.05 0 0 1 4 31c4.963 21.46 18.463 33.13 40.5 35 59.633-7.43 119.3-14.6 179-21.5 30.578-4.25 44.411-21.75 41.5-52.5-.386-12.01-3.219-23.35-8.5-34-.065-.44.101-.77.5-1 24.242 27.3 49.575 54.97 76 83a19.13 19.13 0 0 1 2.5 5c-72.638 9-145.305 17.83-218 26.5-7.405 1.98-9.572 6.48-6.5 13.5.833.83 1.667 1.67 2.5 2.5 3.667.67 7.333.67 11 0 73.971-9.16 147.971-18 222-26.5 2.357-.16 4.69 0 7 .5 1.393 1.17 2.227 2.67 2.5 4.5a258.882 258.882 0 0 1 26 28c1.011.84 2.178 1.17 3.5 1a4.939 4.939 0 0 0 .5 3 703.806 703.806 0 0 1 45.5 50 85.313 85.313 0 0 1 14.5 16c5.24 3.81 9.58 8.48 13 14 8.57 8.18 16.9 16.52 25 25 2.16 3.49 4.49 6.82 7 10 9.72 10.76 19.88 21.1 30.5 31a34.34 34.34 0 0 1 6.5 9c.7-1.53 1.87-2.53 3.5-3 .89-.82 1.22-1.82 1-3 1.93-.23 3.6-1.06 5-2.5 4.18-4.35 8.51-8.52 13-12.5 2.94-2.29 5.94-4.29 9-6-.22-1.18.11-2.18 1-3a460.726 460.726 0 0 1 33-29.5 325.026 325.026 0 0 1 32-29 140.69 140.69 0 0 1 23-21.5c17.22-16.72 34.55-33.22 52-49.5.95-.48 1.95-.65 3-.5-.17-1.32.16-2.49 1-3.5 3.31-3.09 6.97-5.76 11-8 13.68-13.35 27.35-26.68 41-40 25.7-22.64 51.04-45.47 76-68.5.89-.82 1.22-1.82 1-3 1.18.22 2.18-.11 3-1 3.56-4.07 7.56-7.57 12-10.5.84-1.01 1.17-2.18 1-3.5 1.05.15 2.05-.02 3-.5 15.26-14.32 30.59-28.65 46-43 1.4-1.44 3.07-2.27 5-2.5-.22-1.18.11-2.18 1-3 35.16-31.03 69.5-62.69 103-95h662c-11.31 138.51-22.64 277.01-34 415.5-.63 20.15 2.54 39.65 9.5 58.5 7.3 17.46 19.46 30.13 36.5 38H45.5c143.501-.67 287.167-1.33 431-2-143.342-170.92-252.509-362.25-327.5-574-149.327-442.74-96.327-858.74 159-1248a2469.428 2469.428 0 0 1 187.5-244Z"/><path style="opacity:1" fill="#b0cdf9" d="M3880.5 1743.5h233c-.03 2.08.64 3.92 2 5.5-78 1.01-156 1.51-234 1.5-.17-2.36-.51-4.69-1-7Z"/><path style="opacity:1" fill="#223863" d="M1665.5 1756.5c2.26 47.36 10.1 94.02 23.5 140 10.49 29.45 24.83 56.79 43 82a289.436 289.436 0 0 0 34.5 35.5l20 14c-46.5-4.43-91.83-14.1-136-29a386.543 386.543 0 0 1-31-16c-8.65-5.82-14.48-13.66-17.5-23.5-.32-11.43.68-22.77 3-34 2.74-13.72 5.74-27.38 9-41 13.59-36.86 28.59-73.19 45-109 2.18-6.35 4.35-12.69 6.5-19Z"/><path style="opacity:1" fill="#c8dcfa" d="M3985.5 1764.5c22.16-.67 44.5-1 67-1 22.68 0 45.01.67 67 2-44.59-.99-89.26-1.33-134-1Z"/><path style="opacity:1" fill="#adcbf9" d="M3985.5 1764.5c44.74-.33 89.41.01 134 1 .54 1.62.87 3.28 1 5h-234c.14-1.76-.19-3.43-1-5 33.33-1 66.66-1.33 100-1ZM3288.5 1775.5h185c1.08 6.38 2.41 12.72 4 19-228.67.34-457.33 1.01-686 2-1.48-6.44-3.15-12.78-5-19 167.5-.1 334.83-.77 502-2Z"/><path style="opacity:1" fill="#b1cef9" d="M3891.5 1784.5c77.67-.33 155.34 0 233 1a9.127 9.127 0 0 1 1 5c-77.66.93-155.33 1.27-233 1 .03-2.08-.64-3.92-2-5.5.56-.38.89-.88 1-1.5Z"/><path style="opacity:1" fill="#c55547" d="M2054.5 1795.5c51.69 2.39 103.36 5.22 155 8.5 8.15.98 12.15 5.48 12 13.5-61.35-2.48-122.68-5.15-184-8 2.65-8.31 8.31-12.98 17-14Z"/><path style="opacity:1" fill="#bcb4b4" d="M2037.5 1809.5c61.32 2.85 122.65 5.52 184 8 18.35.2 36.69.87 55 2 23.33.72 46.66 1.39 70 2-6.55 40.64-12.88 81.3-19 122-1.35-2.2-3.35-3.7-6-4.5-24.5-7.47-49.5-12.3-75-14.5-6.76.01-13.09 1.51-19 4.5-4.89 7.79-6.72 16.29-5.5 25.5 3.56 17.45 11.56 32.45 24 45 14.95 15.62 32.11 28.12 51.5 37.5 4.22 1.68 8.55 2.85 13 3.5-3.89 25.68-7.89 51.35-12 77-15.21 93.3-30.38 186.64-45.5 280-3.06.95-6.22 1.28-9.5 1-24.16-1.69-48.5-3.02-73-4v5c-.95-1.42-1.28-3.09-1-5-62.68-2.39-125.35-5.06-188-8v13c-.98-4.13-1.32-8.47-1-13-63.35-2.33-126.68-5-190-8 13-80.01 26-160.01 39-240 38-3.74 70.83-19.41 98.5-47 10.68-12.03 15.01-26.03 13-42-2.69-5.02-6.86-8.19-12.5-9.5a151.175 151.175 0 0 0-32-5c-16.71-.8-33.38-.64-50 .5a24429.92 24429.92 0 0 1 35-217c.93-4.96 1.59-9.96 2-15 30.35.57 60.68 1.57 91 3 5.08-.03 9.92-.7 14.5-2l2.5 2.5c15.34.83 30.68 1.67 46 2.5Z"/><path style="opacity:1" fill="#aeccf9" d="M4041.5 1834.5c32.01-.33 64.01 0 96 1 .67 1.67 1.33 3.33 2 5-78 1-156 1.33-234 1-.33-2-.67-4-1-6 45.84.33 91.5 0 137-1ZM3909.5 1855.5h234c.33 2 .67 4 1 6-78 .3-156 .63-234 1-.17-2.36-.51-4.69-1-7Z"/><path style="opacity:1" fill="#afccf9" d="M4064.5 1875.5h84c.49 2.31.83 4.64 1 7h-234c.14-1.76-.19-3.43-1-5 50.17-.67 100.17-1.33 150-2Z"/><path style="opacity:1" fill="#aeccf9" d="M4154.5 1900.5c-35.82 1.66-71.82 2.66-108 3h-125c-.33-2-.67-4-1-6 77.67-1.15 155.33-1.15 233 0 .63.92.96 1.92 1 3Z"/><path style="opacity:1" fill="#c6dafa" d="M4154.5 1900.5c.9.71 1.24 1.71 1 3h-109c36.18-.34 72.18-1.34 108-3Z"/><path style="opacity:1" fill="#aeccf9" d="M3925.5 1917.5h234c.33 2 .67 4 1 6-78 .13-156 .46-234 1 .05-2.4-.28-4.74-1-7ZM3242.5 1923.5c89.67-.33 179.34 0 269 1 2.28 5.8 3.62 11.8 4 18-228.33.42-456.67.92-685 1.5-1.59-6.19-3.25-12.35-5-18.5 139.17-.31 278.17-.97 417-2Z"/><path style="opacity:1" fill="#feb17d" d="M2327.5 1943.5a57.891 57.891 0 0 1 5.5 19c.67 9.67.67 19.33 0 29-.73 14.94-4.57 28.94-11.5 42-2.47 4.07-6.13 6.41-11 7-4.45-.65-8.78-1.82-13-3.5-19.39-9.38-36.55-21.88-51.5-37.5-12.44-12.55-20.44-27.55-24-45-1.22-9.21.61-17.71 5.5-25.5 5.91-2.99 12.24-4.49 19-4.5 25.5 2.2 50.5 7.03 75 14.5 2.65.8 4.65 2.3 6 4.5Z"/><path style="opacity:1" fill="#f2c4a0" d="M5586.5 1977.5c-187.76-1.33-375.43-1.33-563 0-.54-.06-.88-.39-1-1 94-.33 188-.67 282-1 94.34 0 188.34.67 282 2Z"/><path style="opacity:1" fill="#bcb5b4" d="M5586.5 1977.5c26.49 65.48 53.16 130.82 80 196 2.6 8.14 5.6 16.14 9 24 16 39.33 32 78.67 48 118-.24 1.29.1 2.29 1 3a88.05 88.05 0 0 1 5 14c2.59 4.51 4.59 9.18 6 14 3 6.67 6 13.33 9 20 1.33 4.33 2.67 8.67 4 13-187.33 1.33-374.67 2.67-562 4-54.7-135.1-109.04-270.43-163-406 187.57-1.33 375.24-1.33 563 0Z"/><path style="opacity:1" fill="#accbf9" d="M3512.5 1983.5h15c1.59 6.28 2.92 12.62 4 19-228.67.84-457.33 1.51-686 2a105.18 105.18 0 0 0-4-17c10.5-.33 21-.67 31.5-1 213.33-1.08 426.5-2.08 639.5-3Z"/><path style="opacity:1" fill="#ebf3fd" d="M5915.5 2293.5c-15.01-2.67-30.01-5.33-45-8-.76-.77-1.76-1.27-3-1.5 35.94-16.8 72.27-32.8 109-48 14.37-7.07 28.71-14.07 43-21a224.56 224.56 0 0 0 42.5-28.5c11.54-14.23 19.87-30.23 25-48 9.73-37.69 15.23-76.03 16.5-115 15.53 24.42 31.03 48.76 46.5 73 3.91 8.48 7.25 17.15 10 26a20.69 20.69 0 0 1 2-6c17.99 26.37 33.99 54.04 48 83 .81 2.4.65 4.74-.5 7-4.51 2.13-9.18 3.97-14 5.5-10.64 2.66-21.31 5.32-32 8a6026.556 6026.556 0 0 0-190 43 286.71 286.71 0 0 1-36 12c-4.67 2.67-9.33 5.33-14 8-3.05 3.3-5.72 6.8-8 10.5Z"/><path style="opacity:1" fill="#feb17d" d="M1829.5 2138.5c.16-1.7-.01-3.37-.5-5-4.8-5.38-7.46-11.71-8-19-1.3-15.55.04-30.89 4-46 2.32-11.99 7.49-22.49 15.5-31.5 1.85-1.13 3.85-1.63 6-1.5 16.62-1.14 33.29-1.3 50-.5 10.85.52 21.52 2.19 32 5 5.64 1.31 9.81 4.48 12.5 9.5 2.01 15.97-2.32 29.97-13 42-27.67 27.59-60.5 43.26-98.5 47Z"/><path style="opacity:1" fill="#2d478b" d="M2321.5 2033.5c5.95 22.17 8.78 44.84 8.5 68-.56 2.23-1.56 4.23-3 6-8.27 6.59-17.77 9.92-28.5 10 4.11-25.65 8.11-51.32 12-77 4.87-.59 8.53-2.93 11-7Z"/><path style="opacity:1" fill="#adcbf9" d="M3376.5 2044.5h167c1.33 6.33 2.67 12.67 4 19-228.67.76-457.33 1.43-686 2-1.33-6.33-2.67-12.67-4-19 173.17-.06 346.17-.72 519-2Z"/><path style="opacity:1" fill="#fefefe" d="M4136.5 2078.5h119c36.85 141.22 73.51 282.56 110 424-113.67-.18-227.34.15-341 1a81126.667 81126.667 0 0 1-110-424c74.17.33 148.17 0 222-1Z"/><path style="opacity:1" fill="#adcbf9" d="M3308.5 2105.5h251c.75 6.15 2.08 12.15 4 18-228.67 1.03-457.33 2.03-686 3-1.18-6.37-2.51-12.71-4-19 145.17-.26 290.17-.93 435-2Z"/><path style="opacity:1" fill="#b0cdf9" d="M4080.5 2127.5c29.34-.17 58.67 0 88 .5 1.52 1.9 2.18 4.06 2 6.5h-144v-6c18.17.33 36.17 0 54-1ZM4012.5 2145.5h180v6c-59.66.81-119.33 1.14-179 1-.49-2.31-.83-4.64-1-7Z"/><path style="opacity:1" fill="#fefefd" d="M5345.5 2160.5c20.78-1.7 35.28 6.97 43.5 26 3.24 16.91-3.59 25.91-20.5 27-16.43-1.81-27.6-10.47-33.5-26-1.38-7.4-.38-14.4 3-21 2.74-1.93 5.24-3.93 7.5-6Z"/><path style="opacity:1" fill="#adcbf9" d="M3240.5 2166.5h335c.95 6.11 2.29 12.11 4 18-228.66 1.27-457.33 1.94-686 2-1.55-5.94-2.88-11.94-4-18 117.17-.47 234.17-1.14 351-2Z"/><path style="opacity:1" fill="#233863" d="M1529.5 2292.5c.74-30.68 1.74-61.34 3-92 41.31 2.83 82.65 2.33 124-1.5 21.32-2.47 42.65-4.8 64-7a4075.53 4075.53 0 0 0 102-17 646.153 646.153 0 0 1-51 30c-76.88 39.35-157.54 68.52-242 87.5Z"/><path style="opacity:1" fill="#ecf3f9" d="M5675.5 2197.5c-3.4-7.86-6.4-15.86-9-24 3.01-7.21 5.84-14.54 8.5-22l1 1c.83 15.17.66 30.17-.5 45Z"/><path style="opacity:1" fill="#caddfb" d="M4176.5 2231.5c-56.17.33-112.17 1.33-168 3-.9-.71-1.24-1.71-1-3h169Z"/><path style="opacity:1" fill="#afcdf9" d="M4176.5 2231.5h65c.49 2.31.83 4.64 1 7h-234v-4a6992.81 6992.81 0 0 1 168-3Z"/><path style="opacity:1" fill="#aecbf9" d="M4013.5 2252.5c77.67-.17 155.33 0 233 .5.67 1.67 1.33 3.33 2 5-78 .48-156 .98-234 1.5-.17-2.36-.51-4.69-1-7Z"/><path style="opacity:1" fill="#c8dcfa" d="M4128.5 2273.5c20.5-.67 41.16-1 62-1 21.01 0 41.68.67 62 2-41.26-.99-82.59-1.33-124-1Z"/><path style="opacity:1" fill="#adcbf9" d="M4128.5 2273.5c41.41-.33 82.74.01 124 1 .54 1.62.87 3.28 1 5h-234c-.33-2-.67-4-1-6h110Z"/><path style="opacity:1" fill="#feb27e" d="M5870.5 2285.5c14.99 2.67 29.99 5.33 45 8-4.15 18.77-5.15 37.77-3 57-25.57 1.88-50.57-.95-75-8.5-9.64-3.27-19.31-6.44-29-9.5-10.47-3.8-21.14-4.63-32-2.5l-18 18c-4.59 2.9-9.59 4.4-15 4.5.95-3.8 2.62-7.3 5-10.5-3.71.28-7.38 1.12-11 2.5-1.21.25-1.88.91-2 2-1.41-4.82-3.41-9.49-6-14a82.11 82.11 0 0 0 14-12.5c-6.46 1.1-12.79.6-19-1.5-.9-.71-1.24-1.71-1-3 25.37-12.68 51.03-24.85 77-36.5 23.56-.36 46.9 1.8 70 6.5Z"/><path style="opacity:1" fill="#c8dcfa" d="M4172.5 2293.5c-49.51.33-98.84 1.33-148 3-.9-.71-1.24-1.71-1-3h149Z"/><path style="opacity:1" fill="#adcbf9" d="M4172.5 2293.5c28.34-.33 56.67 0 85 1a9.127 9.127 0 0 1 1 5c-52.17.3-104.33.64-156.5 1-25.5-.33-51-.67-76.5-1-.63-.92-.96-1.92-1-3 49.16-1.67 98.49-2.67 148-3ZM4029.5 2314.5h234c-.14 1.76.19 3.43 1 5-78 .88-156 1.55-234 2-.17-2.36-.51-4.69-1-7Z"/><path style="opacity:1" fill="#fdfaf6" d="M5724.5 2318.5c6.21 2.1 12.54 2.6 19 1.5a82.11 82.11 0 0 1-14 12.5 88.05 88.05 0 0 0-5-14Z"/><path style="opacity:1" fill="#fdfdfd" d="M5808.5 2332.5c-6.84 12.53-11.51 25.86-14 40-16.88-.73-33.55-2.73-50-6-3-6.67-6-13.33-9-20 .12-1.09.79-1.75 2-2 3.62-1.38 7.29-2.22 11-2.5-2.38 3.2-4.05 6.7-5 10.5 5.41-.1 10.41-1.6 15-4.5l18-18c10.86-2.13 21.53-1.3 32 2.5Z"/><path style="opacity:1" fill="#eaf1fc" d="M5808.5 2332.5c9.69 3.06 19.36 6.23 29 9.5 24.43 7.55 49.43 10.38 75 8.5 1.19 5.6 1.85 11.27 2 17 10.52.94 20.86 2.27 31 4-50.47 3.36-100.8 3.7-151 1 2.49-14.14 7.16-27.47 14-40Z"/><path style="opacity:1" fill="#b0cdf9" d="M4042.5 2364.5h234c.33 2 .67 4 1 6-78 .84-156 1.17-234 1-.17-2.36-.51-4.69-1-7Z"/><path style="opacity:1" fill="#2b468a" d="M5744.5 2366.5c16.45 3.27 33.12 5.27 50 6 50.2 2.7 100.53 2.36 151-1 32.63 3.45 65.3 6.61 98 9.5 31.15 1.72 62.15 3.22 93 4.5a966.891 966.891 0 0 1 37.5 154c6.99 42.43 8.99 85.1 6 128-2.24 36.62-10.91 71.62-26 105-10.01 15.25-23.85 24.91-41.5 29-117.31.99-234.64 1.33-352 1-39.46-2.92-78.46-9.42-117-19.5a1176.537 1176.537 0 0 1-138-47c-31.92-14.37-63.92-28.87-96-43.5-4.56-3.42-9.56-6.08-15-8a695.905 695.905 0 0 1-32-15.5c-5.39-1.95-10.89-3.45-16.5-4.5-9.86.87-18.2 4.87-25 12a63277.4 63277.4 0 0 1-18 27 3833.369 3833.369 0 0 0-55.5 132 299.618 299.618 0 0 1-34 51 1827.78 1827.78 0 0 1-52.5 59c-85.31 86.16-173.14 169.16-263.5 249-19.6 15.97-38.6 32.64-57 50a192.049 192.049 0 0 0-22 18.5c-3.32.5-6.65.67-10 .5-20.13.21-40.13-1.29-60-4.5-13.78-3.06-26.45-8.56-38-16.5-4.27-2.6-7.94-5.93-11-10 6.35-12.69 12.68-25.36 19-38 68.07-132.14 138.73-262.8 212-392v-1c28.56-48.77 57.39-97.44 86.5-146 39.43-64.54 81.1-127.54 125-189 17.79-23.25 36.29-45.91 55.5-68h733v-17c-60.88.66-121.55-.01-182-2-1.33-4.33-2.67-8.67-4-13Z"/><path style="opacity:1" fill="#aaa2a3" d="M5748.5 2379.5c60.45 1.99 121.12 2.66 182 2v17h-733c-1.97.24-3.8-.09-5.5-1-2.15-4.62-3.98-9.28-5.5-14 187.33-1.33 374.67-2.67 562-4Z"/><path style="opacity:1" fill="#fefefe" d="M2170.5 2399.5c4.05 34.82 8.05 69.66 12 104.5-.33 1.17-.67 2.33-1 3.5-1.53.49-2.86 1.16-4 2-61.86 17.22-124.86 28.22-189 33-3.46-47.45-5.79-95.12-7-143v-13c62.65 2.94 125.32 5.61 188 8-.28 1.91.05 3.58 1 5Z"/><path style="opacity:1" fill="#adcbf9" d="M4272.5 2384.5h9c.49 2.31.83 4.64 1 7-73.34-.29-146.67.04-220 1-4.33-.33-8.67-.67-13-1-.85-1.91-1.18-3.91-1-6 74.84.33 149.5 0 224-1Z"/><path style="opacity:1" fill="#2b468b" d="M2243.5 2398.5c10.7 75.26 21.04 150.59 31 226h-91c-.64-38.41-2.64-76.74-6-115 1.14-.84 2.47-1.51 4-2 .33-1.17.67-2.33 1-3.5-3.95-34.84-7.95-69.68-12-104.5v-5c24.5.98 48.84 2.31 73 4Z"/><path style="opacity:1" fill="#b0cdf9" d="M4112.5 2405.5c58-.33 116 0 174 1 .67 1.67 1.33 3.33 2 5-78 1-156 1.33-234 1 .14-1.76-.19-3.43-1-5 19.83-.67 39.5-1.33 59-2Z"/><path style="opacity:1" fill="#aeccf8" d="M4058.5 2426.5h234c.33 2 .67 4 1 6-78 .2-156 .53-234 1 .05-2.4-.28-4.74-1-7Z"/><path style="opacity:1" fill="#aeccf9" d="M4202.5 2446.5c31.67-.33 63.34 0 95 1 .85 1.91 1.18 3.91 1 6-77.68-.31-155.35.02-233 1-.49-2.31-.83-4.64-1-7 46.17.33 92.17 0 138-1Z"/><path style="opacity:1" fill="#afcdfb" d="M552.5 2405.5c16.7-1.87 31.2 2.79 43.5 14 42.667 61.33 85.333 122.67 128 184 10.308 23.03 6.142 42.86-12.5 59.5a441.184 441.184 0 0 1-30 19c-20.717 6.53-38.217 1.69-52.5-14.5-36.03-52.02-72.03-104.02-108-156-1.167-6.17 1.333-8.67 7.5-7.5A5954.773 5954.773 0 0 1 634 2655.5c10.435 15.14 24.602 20.64 42.5 16.5a192.136 192.136 0 0 0 35.5-25.5c8.168-12.83 8.501-25.83 1-39a16688.237 16688.237 0 0 0-125-180c-12.211-11.5-26.044-14-41.5-7.5a304.963 304.963 0 0 0-23.5 17.5c-4.193 6.15-4.526 12.48-1 19a7663.034 7663.034 0 0 1 67 97c3.167 4.5 7 8.33 11.5 11.5 5.234.98 10.234.31 15-2 5.59-4.05 11.09-8.21 16.5-12.5 4.237-6.47 4.57-13.13 1-20a1785.586 1785.586 0 0 1-46-66c-3.061-6.24-1.228-9.41 5.5-9.5a7.014 7.014 0 0 1 3.5 2.5 2660.723 2660.723 0 0 1 49 72c4.155 13.89.655 25.39-10.5 34.5a156.414 156.414 0 0 1-18 11c-15.798 4.18-27.965-.65-36.5-14.5-22.333-32.33-44.667-64.67-67-97-7.774-14.65-5.608-27.48 6.5-38.5a435.104 435.104 0 0 0 23-16c3.48-1.1 6.813-2.27 10-3.5Z"/><path style="opacity:1" fill="#233863" d="M2177.5 2509.5c3.36 38.26 5.36 76.59 6 115h-195v-82c64.14-4.78 127.14-15.78 189-33Z"/><path style="opacity:1" fill="#a9c7f6" d="M1517.5 2618.5v6c-88.67 1.33-177.33 1.33-266 0h265c-.29-2.24.04-4.24 1-6Z"/><path style="opacity:1" fill="#7facef" d="M2274.5 2624.5h2261c-2.13.81-4.46 1.31-7 1.5-374.83.17-749.67.33-1124.5.5-374.83-.17-749.67-.33-1124.5-.5-1.88-.2-3.55-.7-5-1.5Z"/><path style="opacity:1" fill="#233863" d="M5394.5 2684.5a750.861 750.861 0 0 1 21 58 342.206 342.206 0 0 0-24.5 43 259.057 259.057 0 0 0-24 41 326.806 326.806 0 0 0-27 47c-9.66 15.6-19.33 31.27-29 47a6239.332 6239.332 0 0 0-50.5 90c-7.79-20.71-15.79-41.38-24-62-7.15-20.95-14.82-41.62-23-62a299.618 299.618 0 0 0 34-51c17.68-44.35 36.18-88.35 55.5-132 6.01-9.01 12.01-18.01 18-27 6.8-7.13 15.14-11.13 25-12 5.61 1.05 11.11 2.55 16.5 4.5 10.6 5.47 21.27 10.64 32 15.5Z"/><path style="opacity:1" fill="#bfd7fa" d="M1062.5 2681.5c14.17 61.03 28.51 122.03 43 183a89401.756 89401.756 0 0 0-401 369.5 6034.94 6034.94 0 0 0-20 18c-.948.48-1.948.65-3 .5-36.442-39.27-72.608-78.6-108.5-118-.667-1-.667-2 0-3a410611.822 410611.822 0 0 1 489.5-450Z"/><path style="opacity:1" fill="#233863" d="M5409.5 2692.5c32.08 14.63 64.08 29.13 96 43.5 45.05 18.53 91.05 34.19 138 47 38.54 10.08 77.54 16.58 117 19.5-80.07.33-160.07 0-240-1-43.89-29.22-80.89-65.55-111-109Z"/><path style="opacity:1" fill="#e9f2f9" d="M5394.5 2684.5c5.44 1.92 10.44 4.58 15 8 30.11 43.45 67.11 79.78 111 109h-88c-5.2-19.8-10.87-39.47-17-59a750.861 750.861 0 0 0-21-58Z"/><path style="opacity:1" fill="#699def" d="M4697.5 2711.5h-3562v-2c7.05.26 14.39-.07 22-1-1.01-.9-1.01-1.56 0-2l2 2c1179.3-.24 2358.63-.57 3538-1v4Z"/><path style="opacity:1" fill="#b0a9a9" d="M1135.5 2711.5h3564v1h-43c-620.67-.17-1241.33 0-1862 .5a1005325.27 1005325.27 0 0 0-1507 517c981.74.83 1963.4.67 2945-.5v2h-2950a66160.12 66160.12 0 0 0-129-518.5c-6.18-.17-12.18-.67-18-1.5Z"/><path style="opacity:1" fill="#bcb4b4" d="M4656.5 2712.5c2.34 6.77 4.17 13.77 5.5 21l1 1c.33-1.33.67-2.67 1-4 .22 3.78.38 7.44.5 11 12.87.16 25.7-.84 38.5-3 1.83.51 1.99 1.34.5 2.5 1.74 1.57 2.74 3.57 3 6 .34 1.03 1 1.53 2 1.5 4.65 16.59 8.98 33.25 13 50 .24 1.29-.1 2.29-1 3-79-.17-158 0-237 .5-62.77 4.95-108.27 35.45-136.5 91.5-7.95 17.85-12.62 36.51-14 56-.67 29-.67 58 0 87 5.61 59.09 33.45 104.26 83.5 135.5 20.73 11.52 42.73 18.69 66 21.5-78.33-.17-156.67 0-235 .5-11.88 4.07-17.21 12.41-16 25 .04 3.58.37 7.08 1 10.5-981.6 1.17-1963.26 1.33-2945 .5a1005325.27 1005325.27 0 0 1 1507-517c620.67-.5 1241.33-.67 1862-.5Z"/><path style="opacity:1" fill="#c5b3a5" d="M4656.5 2712.5h43c3.92 11.67 6.92 23.67 9 36-1 .03-1.66-.47-2-1.5-.26-2.43-1.26-4.43-3-6 1.49-1.16 1.33-1.99-.5-2.5a214.84 214.84 0 0 1-38.5 3c-.12-3.56-.28-7.22-.5-11-.33 1.33-.67 2.67-1 4l-1-1c-1.33-7.23-3.16-14.23-5.5-21Z"/><path style="opacity:1" fill="#2b468a" d="M5415.5 2742.5c6.13 19.53 11.8 39.2 17 59 4.83 19.63 9.49 39.3 14 59a4090.454 4090.454 0 0 1 48 275 770.05 770.05 0 0 0 7 55v4c4.29 33.63 8.29 67.3 12 101 .32 4.02.48 8.02.5 12-5.81 3.82-11.65 7.48-17.5 11-28.97 17.1-60.3 26.1-94 27h-8c-2.11-.97-4.44-1.3-7-1h-4a4444.938 4444.938 0 0 0-37-100 818.6 818.6 0 0 0-19-50c-7.27-21.47-14.94-42.81-23-64-14.87-39.95-29.54-79.95-44-120 16.52-30.02 33.35-60.02 50.5-90 9.67-15.73 19.34-31.4 29-47a326.806 326.806 0 0 1 27-47 259.057 259.057 0 0 1 24-41c7.14-14.94 15.3-29.27 24.5-43Z"/><path style="opacity:1" fill="#d09c9b" d="M4721.5 2798.5c.9.71 1.24 1.71 1 3h208v1c-70.17.33-140.17 0-210-1 .9-.71 1.24-1.71 1-3Z"/><path style="opacity:1" fill="#b5453d" d="M4720.5 2801.5c69.83 1 139.83 1.33 210 1a11085.668 11085.668 0 0 0-212 392c-78.68.31-157.35-.02-236-1-23.27-2.81-45.27-9.98-66-21.5-50.05-31.24-77.89-76.41-83.5-135.5-.67-29-.67-58 0-87 1.38-19.49 6.05-38.15 14-56 28.23-56.05 73.73-86.55 136.5-91.5 79-.5 158-.67 237-.5ZM5432.5 2801.5h88c79.93 1 159.93 1.33 240 1 117.36.33 234.69-.01 352-1 124.33-.17 248.67 0 373 .5 10.25 1.92 17.08 7.76 20.5 17.5.67 7.67.67 15.33 0 23-2.95 10.45-9.78 16.45-20.5 18h-1039c-4.51-19.7-9.17-39.37-14-59Z"/><path style="opacity:1" fill="#fbebdb" d="M5446.5 2860.5h1039c-19.83 1-39.83 1.33-60 1-.22 91-.55 182-1 273 20.17-.33 40.17 0 60 1h-990a4090.454 4090.454 0 0 0-48-275Z"/><path style="opacity:1" fill="#dfeafc" d="M1105.5 2864.5c34.01 141.36 68.01 282.7 102 424h393c-33.5 32.31-67.84 63.97-103 95-.89.82-1.22 1.82-1 3-1.93.23-3.6 1.06-5 2.5-15.41 14.35-30.74 28.68-46 43-.95.48-1.95.65-3 .5.17 1.32-.16 2.49-1 3.5a59.228 59.228 0 0 0-12 10.5c-.82.89-1.82 1.22-3 1 .22 1.18-.11 2.18-1 3-24.96 23.03-50.3 45.86-76 68.5-13.65 13.32-27.32 26.65-41 40a55.717 55.717 0 0 0-11 8c-.84 1.01-1.17 2.18-1 3.5-1.05-.15-2.05.02-3 .5a3599.864 3599.864 0 0 0-52 49.5 140.69 140.69 0 0 0-23 21.5 325.026 325.026 0 0 0-32 29 460.726 460.726 0 0 0-33 29.5c-.89.82-1.22 1.82-1 3a71.105 71.105 0 0 0-9 6 225.22 225.22 0 0 0-13 12.5c-1.4 1.44-3.07 2.27-5 2.5.22 1.18-.11 2.18-1 3-1.63.47-2.8 1.47-3.5 3a34.34 34.34 0 0 0-6.5-9 506.715 506.715 0 0 1-30.5-31 107.01 107.01 0 0 1-7-10c-8.1-8.48-16.43-16.82-25-25a49.188 49.188 0 0 0-13-14 85.313 85.313 0 0 0-14.5-16 703.806 703.806 0 0 0-45.5-50 4.939 4.939 0 0 1-.5-3c-1.322.17-2.489-.16-3.5-1a258.882 258.882 0 0 0-26-28c-.273-1.83-1.107-3.33-2.5-4.5-2.31-.5-4.643-.66-7-.5a1194.23 1194.23 0 0 1 48-6.5c37.51-10.19 55.67-34.69 54.5-73.5a1357.3 1357.3 0 0 0-6-45c-8.1-25.48-25.26-40.98-51.5-46.5a85.76 85.76 0 0 0-15-1.5c-55.361 6-110.694 12.34-166 19a255.11 255.11 0 0 0-19-19c.219-1.18-.114-2.18-1-3a1783.169 1783.169 0 0 1-58.5-64c-5.351-3.69-9.684-8.35-13-14a1372.752 1372.752 0 0 0-30.5-32 4.949 4.949 0 0 0 3-.5 6034.94 6034.94 0 0 1 20-18 89401.756 89401.756 0 0 1 401-369.5Z"/><path style="opacity:1" fill="#9d9696" d="M3026.5 2886.5c49.69-2.41 87.86 17.26 114.5 59 15.43 25.86 18.76 53.19 10 82-11.22 26.38-31.05 41.88-59.5 46.5-49.78 2.69-87.61-17.14-113.5-59.5-13.86-24.23-17.52-49.9-11-77 10.44-27.94 30.27-44.94 59.5-51Z"/><path style="opacity:1" fill="#b5453d" d="M5213.5 2886.5c8.18 20.38 15.85 41.05 23 62-.17 31.34 0 62.67.5 94 4.64 43.12 27.14 72.46 67.5 88 8.06 21.19 15.73 42.53 23 64h-430c90.36-79.84 178.19-162.84 263.5-249a1827.78 1827.78 0 0 0 52.5-59Z"/><path style="opacity:1" fill="#f4d3b9" d="M6226.5 2917.5c-4.5-2.29-9.17-3.95-14-5 70.63-2.62 141.29-3.95 212-4v10c-56-.62-112-1.12-168-1.5-9.53-.2-19.03-.7-28.5-1.5-1.03.34-1.53 1-1.5 2Z"/><path style="opacity:1" fill="#dcae8e" d="M6136.5 2912.5c-19 .67-38 1.33-57 2-.54-.06-.88-.39-1-1 19.32-1 38.66-1.33 58-1Z"/><path style="opacity:1" fill="#aea7a7" d="M6136.5 2912.5h76c4.83 1.05 9.5 2.71 14 5 9.48 7.16 15.82 16.49 19 28-8.47 1.33-17.31 2-26.5 2-36.33-1.12-72.5-1.12-108.5 0-6.52-14.52-16.86-25.52-31-33 19-.67 38-1.33 57-2Z"/><path style="opacity:1" fill="#bcb5b5" d="M6245.5 2945.5c.81 2.13 1.31 4.46 1.5 7 .67 31 .67 62 0 93a2825.453 2825.453 0 0 0-67.5-30c-22.35 9.59-44.52 19.59-66.5 30-.33-29-.67-58-1-87-.55-3.67-1.05-7.34-1.5-11 36-1.12 72.17-1.12 108.5 0 9.19 0 18.03-.67 26.5-2Z"/><path style="opacity:1" fill="#fae9d9" d="M5236.5 2948.5c8.21 20.62 16.21 41.29 24 62 14.46 40.05 29.13 80.05 44 120-40.36-15.54-62.86-44.88-67.5-88-.5-31.33-.67-62.66-.5-94Z"/><path style="opacity:1" fill="#f4d3b9" d="M6400.5 2998.5h24v10c-45.36-.38-90.7-1.71-136-4 37.5-1.78 74.84-3.78 112-6Z"/><path style="opacity:1" fill="#b5443c" d="M5494.5 3135.5h990c11.39 1.6 18.55 7.94 21.5 19 .67 7.33.67 14.67 0 22-3.08 8.58-8.91 14.25-17.5 17-.73-1.55-2.06-2.38-4-2.5 1.44-.22 2.77-.72 4-1.5-.17-.33-.33-.67-.5-1-1.81-.18-3.81-.85-6-2-9.71 1.3-19.54 1.96-29.5 2-62.83-.61-125.66-.94-188.5-1-253.17.65-506.33 1.15-759.5 1.5 194.67.17 389.33.67 584 1.5 2.61.82 5.27 1.32 8 1.5-98.67.17-197.33.33-296 .5-99.77-.01-199.44-.67-299-2a770.05 770.05 0 0 1-7-55Z"/><path style="opacity:1" fill="#b74c42" d="M6488.5 3193.5c-127.63 1-255.29 1.33-383 1h-604v-4c99.56 1.33 199.23 1.99 299 2 98.67-.17 197.33-.33 296-.5-2.73-.18-5.39-.68-8-1.5-194.67-.83-389.33-1.33-584-1.5 253.17-.35 506.33-.85 759.5-1.5 62.84.06 125.67.39 188.5 1 9.96-.04 19.79-.7 29.5-2 2.19 1.15 4.19 1.82 6 2 .17.33.33.67.5 1-1.23.78-2.56 1.28-4 1.5 1.94.12 3.27.95 4 2.5Z"/><path style="opacity:1" fill="#548de1" d="M4482.5 3193.5c78.65.98 157.32 1.31 236 1-6.32 12.64-12.65 25.31-19 38 3.06 4.07 6.73 7.4 11 10-.33 1-1 1.67-2 2-153.67.17-307.33 0-461-.5-6.7-2.21-11.7-6.38-15-12.5v-2c-.63-3.42-.96-6.92-1-10.5-1.21-12.59 4.12-20.93 16-25 78.33-.5 156.67-.67 235-.5ZM4897.5 3194.5h430a818.6 818.6 0 0 1 19 50h-506c18.4-17.36 37.4-34.03 57-50Z"/><path style="opacity:1" fill="#548ee1" d="M5501.5 3194.5h604c56.49 11.82 93.82 45.16 112 100-234.5 1-469.17 1.33-704 1-3.71-33.7-7.71-67.37-12-101Z"/><path style="opacity:1" fill="#9d9696" d="M1282.5 3231.5h2950c3.3 6.12 8.3 10.29 15 12.5 153.67.5 307.33.67 461 .5v1h-426v43h-1265c-.34 9.41-1.34 18.74-3 28-240.11 48.03-480.11 96.36-720 145-6.23 71.3-11.9 142.63-17 214-1.3 24.8 4.87 47.47 18.5 68 12.06 14.61 27.56 22.78 46.5 24.5 35.35-.16 70.35.67 105 2.5v29c-57.5-.33-114.84 0-172 1h-1c-17.04-7.87-29.2-20.54-36.5-38-6.96-18.85-10.13-38.35-9.5-58.5 11.36-138.49 22.69-276.99 34-415.5h-1055a3172.41 3172.41 0 0 1 75-57Z"/><path style="opacity:1" fill="#fbebdb" d="M4840.5 3244.5h506c12.71 33.12 25.04 66.45 37 100h4c1.76.96 3.76 1.29 6 1v60c-1.91 29.75-12.24 56.08-31 79h-1080v-58c95.28.96 190.62.13 286-2.5-95.32-2.52-190.65-4.36-286-5.5v-173h426a273.674 273.674 0 0 1-36 37.5c-19.6 11.94-38.93 24.27-58 37-25.24 16.58-52.91 26.08-83 28.5a461.618 461.618 0 0 0-67 10.5c-7.46 2.89-8.96 7.72-4.5 14.5 11.84 14.14 26.67 23.98 44.5 29.5a328.966 328.966 0 0 0 65 12c26.67.29 53.34.29 80 0a955.426 955.426 0 0 0 71 14c14.11 1.74 27.78.07 41-5 8.35-4.7 13.19-11.87 14.5-21.5.5-10.33.67-20.66.5-31v-2c-2.17-18.57-1-36.91 3.5-55 1.45-4.9 3.45-9.57 6-14 7.75-12.24 15.25-24.57 22.5-37 3.35.17 6.68 0 10-.5 6.91-6.75 14.25-12.92 22-18.5Z"/><path style="opacity:1" fill="#feb17d" d="M4710.5 3242.5c11.55 7.94 24.22 13.44 38 16.5 19.87 3.21 39.87 4.71 60 4.5-7.25 12.43-14.75 24.76-22.5 37-2.55 4.43-4.55 9.1-6 14-4.5 18.09-5.67 36.43-3.5 55-5.53-.32-10.86.01-16 1-29.28 3.82-58.61 7.32-88 10.5-47.7 5.91-92.37-3.09-134-27-2.52-1.7-4.85-3.53-7-5.5 30.09-2.42 57.76-11.92 83-28.5 19.07-12.73 38.4-25.06 58-37a273.674 273.674 0 0 0 36-37.5v-1c1-.33 1.67-1 2-2Z"/><path style="opacity:1" fill="#e9f2f9" d="M4282.5 3288.5v196h1080c-371.83.83-743.83 1.33-1116 1.5-10.8 4.24-15.8 12.24-15 24-1.09 13.22 4.58 21.89 17 26 79.17.17 158.17.67 237 1.5-50.52 9.68-84.68 38.68-102.5 87-14.86 57.78-.36 106.61 43.5 146.5 16.33 13.06 34.66 22.23 55 27.5-422.83 1-845.83 1.33-1269 1v-30c-43.85-.69-87.85-1.35-132-2-3.31-.55-6.64-.88-10-1-19.88-2.46-38.54-8.63-56-18.5-21.44-14.55-32.44-34.88-33-61 3.34-45.53 7-91.03 11-136.5 7.14-77.88 14.47-155.88 22-234 1.66-9.26 2.66-18.59 3-28h1265Z"/><path style="opacity:1" fill="#699ded" d="M6217.5 3294.5c2.42 8.4 4.26 17.07 5.5 26 .67 24.67.67 49.33 0 74-.53 8.06-1.53 16.06-3 24-18.3 66.14-61.13 105.14-128.5 117h-478c.61-.89.94-1.89 1-3 3.35-2.35 6.02-5.35 8-9 3.88-1.22 5.88-3.89 6-8l8.5-17c2.16-10.03.16-19.03-6-27a165.388 165.388 0 0 0-31.5-25.5c-.95-.48-1.95-.65-3-.5-2.6-2.31-5.6-4.14-9-5.5-14.2-3.97-27.87-9.3-41-16-11.13-7.76-19.3-17.93-24.5-30.5a584.166 584.166 0 0 1-25.5-75c5.85-3.52 11.69-7.18 17.5-11-.02-3.98-.18-7.98-.5-12 234.83.33 469.5 0 704-1Z"/><path style="opacity:1" fill="#bcb5b4" d="M3014.5 3316.5c-7.53 78.12-14.86 156.12-22 234 .32-3.07-.02-6.07-1-9-237.88 45.31-475.88 89.98-714 134 5.1-71.37 10.77-142.7 17-214 239.89-48.64 479.89-96.97 720-145Z"/><path style="opacity:1" fill="#feb17e" d="M5496.5 3318.5a584.166 584.166 0 0 0 25.5 75c5.2 12.57 13.37 22.74 24.5 30.5 13.13 6.7 26.8 12.03 41 16 3.4 1.36 6.4 3.19 9 5.5a2062.922 2062.922 0 0 0-52.5 92c-28.49 50.66-69.66 86.99-123.5 109 12.66-18.33 21.83-38.33 27.5-60 .5-3.65.67-7.32.5-11 .31-13.4-.36-26.73-2-40-.96-24.05-4.46-47.71-10.5-71-10.4-39.92-21.56-79.59-33.5-119 33.7-.9 65.03-9.9 94-27Z"/><path style="opacity:1" fill="#ced1d9" d="M5387.5 3344.5c2.56-.3 4.89.03 7 1 .33 20.17 0 40.17-1 60v-60c-2.24.29-4.24-.04-6-1Z"/><path style="opacity:1" fill="#699dee" d="M5394.5 3345.5h8c11.94 39.41 23.1 79.08 33.5 119 6.04 23.29 9.54 46.95 10.5 71-318-.17-636 0-954 .5-2.37.44-4.7.94-7 1.5-78.83-.83-157.83-1.33-237-1.5-12.42-4.11-18.09-12.78-17-26-.8-11.76 4.2-19.76 15-24 372.17-.17 744.17-.67 1116-1.5 18.76-22.92 29.09-49.25 31-79 1-19.83 1.33-39.83 1-60Z"/><path style="opacity:1" fill="#243863" d="M4531.5 3348.5c2.15 1.97 4.48 3.8 7 5.5 41.63 23.91 86.3 32.91 134 27 29.39-3.18 58.72-6.68 88-10.5 5.43-.28 10.76.05 16 1 .17 10.34 0 20.67-.5 31-1.31 9.63-6.15 16.8-14.5 21.5-13.22 5.07-26.89 6.74-41 5a955.426 955.426 0 0 1-71-14c-26.66.29-53.33.29-80 0a328.966 328.966 0 0 1-65-12c-17.83-5.52-32.66-15.36-44.5-29.5-4.46-6.78-2.96-11.61 4.5-14.5 22.06-5.14 44.39-8.64 67-10.5Z"/><path style="opacity:1" fill="#f4d3b9" d="M4283.5 3365.5c43.06 1.25 86.06 3.09 129 5.5-42.99 1.35-85.99 2.19-129 2.5v-8Z"/><path style="opacity:1" fill="#73646c" d="M4760.5 3370.5c5.14-.99 10.47-1.32 16-1v2c-5.24-.95-10.57-1.28-16-1Z"/><path style="opacity:1" fill="#f4d3b9" d="M4282.5 3418.5c95.35 1.14 190.68 2.98 286 5.5-95.38 2.63-190.72 3.46-286 2.5v-8Z"/><path style="opacity:1" fill="#243863" d="M5596.5 3445.5c1.05-.15 2.05.02 3 .5a165.388 165.388 0 0 1 31.5 25.5c6.16 7.97 8.16 16.97 6 27l-8.5 17c-2.48 2.3-4.48 4.97-6 8a22.133 22.133 0 0 1-8 5.5c1.18 1.15 1.18 2.31 0 3.5-5 4.33-9.67 9-14 14a146.18 146.18 0 0 1-10 10.5 489.548 489.548 0 0 0-20 16.5c-1.21.43-2.21 1.1-3 2-6.26 4.76-12.1 10.09-17.5 16-19.38 31.4-42.55 59.9-69.5 85.5-15.42 14.41-32.76 26.08-52 35-11.51 5.11-23.51 6.78-36 5-3.37-.87-5.04-3.04-5-6.5 2.79-10.58 6.96-20.58 12.5-30 6.61-11.56 13.44-22.9 20.5-34 53.84-22.01 95.01-58.34 123.5-109 16.75-31.18 34.25-61.85 52.5-92Z"/><path style="opacity:1" fill="#afcdfb" d="M939.5 3538.5c-74.029 8.5-148.029 17.34-222 26.5a30.35 30.35 0 0 1-11 0c-.833-.83-1.667-1.67-2.5-2.5-3.072-7.02-.905-11.52 6.5-13.5a48062.88 48062.88 0 0 0 218-26.5c18.67-2.06 37.337-4.22 56-6.5 20.65-5.32 34.15-18.15 40.5-38.5a305.2 305.2 0 0 0-5-61c-9.55-23.11-26.882-34.45-52-34a6524.894 6524.894 0 0 0-153.5 18 10920.135 10920.135 0 0 0-163 19.5c-21.252 4.92-35.085 17.75-41.5 38.5-.769 18.98 1.231 37.64 6 56 2.833 2.83 5.667 5.67 8.5 8.5 4.24 2.19 8.74 3.36 13.5 3.5 62.241-6.97 124.407-14.47 186.5-22.5 12.205-4.87 17.871-13.87 17-27a163.246 163.246 0 0 0-3.5-27.5c-7.495-13.63-18.995-18.79-34.5-15.5a2058.96 2058.96 0 0 1-116 13c-4.881-4.38-5.215-9.04-1-14a20.73 20.73 0 0 1 6-2 9456.71 9456.71 0 0 0 116-14c9.897-1.03 19.23.81 28 5.5 4.667 4 9 8.33 13 13 5.281 10.65 8.114 21.99 8.5 34 2.911 30.75-10.922 48.25-41.5 52.5-59.7 6.9-119.367 14.07-179 21.5-22.037-1.87-35.537-13.54-40.5-35a2210.05 2210.05 0 0 0-4-31c-2.08-14.6.587-28.27 8-41 12.385-18.36 29.552-29.53 51.5-33.5a9278.494 9278.494 0 0 0 151-18.5c55.306-6.66 110.639-13 166-19a85.76 85.76 0 0 1 15 1.5c26.24 5.52 43.4 21.02 51.5 46.5a1357.3 1357.3 0 0 1 6 45c1.17 38.81-16.99 63.31-54.5 73.5a1194.23 1194.23 0 0 0-48 6.5Z"/><path style="opacity:1" fill="#e9f2fa" d="M814.5 3400.5c4.009.34 6.842 2.34 8.5 6 5.697 4.42 10.53 9.58 14.5 15.5-.228.4-.562.57-1 .5-8.77-4.69-18.103-6.53-28-5.5a9456.71 9456.71 0 0 1-116 14 20.73 20.73 0 0 0-6 2c-4.215 4.96-3.881 9.62 1 14a2058.96 2058.96 0 0 0 116-13c15.505-3.29 27.005 1.87 34.5 15.5a163.246 163.246 0 0 1 3.5 27.5c.871 13.13-4.795 22.13-17 27a10992.518 10992.518 0 0 1-186.5 22.5c-4.76-.14-9.26-1.31-13.5-3.5-2.833-2.83-5.667-5.67-8.5-8.5-4.769-18.36-6.769-37.02-6-56 6.415-20.75 20.248-33.58 41.5-38.5 54.298-6.91 108.631-13.41 163-19.5Z"/><path style="opacity:1" fill="#dfeafc" d="M928.5 3522.5a19.13 19.13 0 0 0-2.5-5c-26.425-28.03-51.758-55.7-76-83-.399.23-.565.56-.5 1-4-4.67-8.333-9-13-13 .438.07.772-.1 1-.5-3.97-5.92-8.803-11.08-14.5-15.5-1.658-3.66-4.491-5.66-8.5-6a6524.894 6524.894 0 0 1 153.5-18c25.118-.45 42.45 10.89 52 34a305.2 305.2 0 0 1 5 61c-6.35 20.35-19.85 33.18-40.5 38.5-18.663 2.28-37.33 4.44-56 6.5Z"/><path style="opacity:1" fill="#999cc1" d="M5628.5 3515.5c-.12 4.11-2.12 6.78-6 8 1.52-3.03 3.52-5.7 6-8Z"/><path style="opacity:1" fill="#907d89" d="M5622.5 3523.5c-1.98 3.65-4.65 6.65-8 9 1.18-1.19 1.18-2.35 0-3.5 3.08-1.24 5.74-3.08 8-5.5Z"/><path style="opacity:1" fill="#2a468a" d="M5613.5 3535.5h478c206.33-.17 412.67 0 619 .5 10.17 2.51 15.51 9.01 16 19.5-.44 10.59-5.77 16.92-16 19-1.8-.55-3.47-1.38-5-2.5-11-.67-22-.67-33 0 10.67.33 21.33.67 32 1a546.1 546.1 0 0 0-32.5 1.5c-.55-4.57-1.72-4.9-3.5-1-.67-1-1.33-2-2-3-363.63.83-727.29 1.33-1091 1.5-1.65.61-3.32 1.11-5 1.5 6.48-5.64 13.14-11.14 20-16.5 3.59-3.42 6.92-6.92 10-10.5 4.61-3.27 8.94-6.93 13-11Z"/><path style="opacity:1" fill="#2b468b" d="M5446.5 3535.5c1.64 13.27 2.31 26.6 2 40-19-.17-38 0-57 .5-34.51 37.49-45.01 80.99-31.5 130.5 6.27 21.23 17.1 39.56 32.5 55 439.17.83 878.5 1.33 1318 1.5 3.37.52 6.37 1.85 9 4 9.52 10.83 9.18 21.33-1 31.5h-1c-1.31-.98-2.65-1.98-4-3-738.96.83-1477.96 1.33-2217 1.5 739.14 0 1478.14.67 2217 2-741.67.5-1483.33.67-2225 .5-2.4.05-4.74-.28-7-1-20.34-5.27-38.67-14.44-55-27.5-43.86-39.89-58.36-88.72-43.5-146.5 17.82-48.32 51.98-77.32 102.5-87 2.3-.56 4.63-1.06 7-1.5 318-.5 636-.67 954-.5Z"/><path style="opacity:1" fill="#927a83" d="M5614.5 3532.5c-.06 1.11-.39 2.11-1 3a100.25 100.25 0 0 1-13 11c4.33-5 9-9.67 14-14Z"/><path style="opacity:1" fill="#b1a9a9" d="M2992.5 3550.5c-4 45.47-7.66 90.97-11 136.5.56 26.12 11.56 46.45 33 61 17.46 9.87 36.12 16.04 56 18.5-4.67.67-9.33 1.33-14 2-32.17-.33-64.17 0-96 1-171.07-.33-342.07 0-513 1-34.65-1.83-69.65-2.66-105-2.5-18.94-1.72-34.44-9.89-46.5-24.5-13.63-20.53-19.8-43.2-18.5-68 238.12-44.02 476.12-88.69 714-134a21.15 21.15 0 0 1 1 9Z"/><path style="opacity:1" fill="#2a4689" d="M6710.5 3574.5c-14.82 1-29.82 1.33-45 1h-1098c.79-.9 1.79-1.57 3-2 1.68-.39 3.35-.89 5-1.5 363.71-.17 727.37-.67 1091-1.5.67 1 1.33 2 2 3 1.78-3.9 2.95-3.57 3.5 1a546.1 546.1 0 0 1 32.5-1.5c-10.67-.33-21.33-.67-32-1 11-.67 22-.67 33 0 1.53 1.12 3.2 1.95 5 2.5Z"/><path style="opacity:1" fill="#fbebdb" d="M5448.5 3575.5c.17 3.68 0 7.35-.5 11-5.67 21.67-14.84 41.67-27.5 60a843.623 843.623 0 0 0-20.5 34c-5.54 9.42-9.71 19.42-12.5 30-.04 3.46 1.63 5.63 5 6.5 12.49 1.78 24.49.11 36-5 19.24-8.92 36.58-20.59 52-35 26.95-25.6 50.12-54.1 69.5-85.5 5.4-5.91 11.24-11.24 17.5-16h1098v32c-93 .67-186 1.67-279 3-31.67-.33-63.34 0-95 1 .12.61.46.94 1 1 9.81 7.48 16.48 17.15 20 29a27.31 27.31 0 0 1 1.5 5c.17 29.01.67 58.01 1.5 87 15.67-9.33 31.33-18.67 47-28a795.424 795.424 0 0 0 46 27c.06.54.39.88 1 1 1.33-28.83 1.33-57.5 0-86 .3-2.56-.03-4.89-1-7-2.02-10.68-7.02-19.68-15-27 90.67.09 181.33.42 272 1v55c-47.69.25-95.36 1.42-143 3.5 47.53 1.79 95.19 2.96 143 3.5v85h-1273c-15.4-15.44-26.23-33.77-32.5-55-13.51-49.51-3.01-93.01 31.5-130.5 19-.5 38-.67 57-.5Z"/><path style="opacity:1" fill="#f4d3b9" d="M6665.5 3607.5v7c-90.67-.58-181.33-.91-272-1-2.2-1.07-4.53-1.73-7-2v-1c93-1.33 186-2.33 279-3Z"/><path style="opacity:1" fill="#84a6dc" d="M6386.5 3610.5v1c-31.5-.33-62.84 0-94 1-.54-.06-.88-.39-1-1 31.66-1 63.33-1.33 95-1Z"/><path style="opacity:1" fill="#578cdb" d="M6292.5 3612.5c31.16-1 62.5-1.33 94-1 2.47.27 4.8.93 7 2 7.98 7.32 12.98 16.32 15 27-11.98 1.33-24.31 2-37 2-19.67-.2-39.34-.53-59-1-3.52-11.85-10.19-21.52-20-29Z"/><path style="opacity:1" fill="#699eed" d="M6408.5 3640.5c.97 2.11 1.3 4.44 1 7 .33 28.5 0 56.84-1 85a795.424 795.424 0 0 1-46-27c-15.67 9.33-31.33 18.67-47 28-.83-28.99-1.33-57.99-1.5-87a27.31 27.31 0 0 0-1.5-5c19.66.47 39.33.8 59 1 12.69 0 25.02-.67 37-2Z"/><path style="opacity:1" fill="#8eb1e6" d="M6409.5 3647.5c1.33 28.5 1.33 57.17 0 86-.61-.12-.94-.46-1-1 1-28.16 1.33-56.5 1-85Z"/><path style="opacity:1" fill="#f4d3b9" d="M6665.5 3669.5v7c-47.81-.54-95.47-1.71-143-3.5 47.64-2.08 95.31-3.25 143-3.5Z"/><path style="opacity:1" fill="#d2ac8f" d="M3070.5 3766.5c3.36.12 6.69.45 10 1-7.82.99-15.82 1.33-24 1 4.67-.67 9.33-1.33 14-2Z"/><path style="opacity:1" fill="#f1b779" d="M3080.5 3767.5c44.15.65 88.15 1.31 132 2h-252c31.83-1 63.83-1.33 96-1 8.18.33 16.18-.01 24-1Z"/><path style="opacity:1" fill="#c5b1a1" d="M2960.5 3769.5h252v31h-937c57.16-1 114.5-1.33 172-1v-29c170.93-1 341.93-1.33 513-1Z"/><path style="opacity:1" fill="#2b4684" d="M6717.5 3798.5c-.33.67-.67 1.33-1 2h-2228v-1c741.67.17 1483.33 0 2225-.5-738.86-1.33-1477.86-2-2217-2 739.04-.17 1478.04-.67 2217-1.5 1.35 1.02 2.69 2.02 4 3Z"/><path style="opacity:1" fill="#bac2cd" d="M4481.5 3798.5c2.26.72 4.6 1.05 7 1v1h-1276v-1c423.17.33 846.17 0 1269-1Z"/><path style="opacity:.635" fill="#c9cad3" d="M6717.5 3798.5h1c27.83 1 55.83 1.33 84 1 159.83-.33 319.5 0 479 1h-565c.33-.67.67-1.33 1-2Z"/><path style="opacity:1" fill="#353b57" d="M45.5 3800.5h7236c3.7.04 6.37 1.7 8 5v9a25.888 25.888 0 0 1-6 6H44.5c-7.321-4.28-8.821-10.28-4.5-18 1.584-1.36 3.418-2.03 5.5-2Z"/></svg>