<svg width="283" height="274" viewBox="0 0 283 274" fill="none" xmlns="http://www.w3.org/2000/svg">
  <path d="M1 289C1 289 15.7499 240.471 38 219C69.0587 189.028 122.903 222.698 143 184.5C156.456 158.925 131.707 137.101 143 110.5C160.367 69.5909 209.773 84.6216 241.5 53.5C260.207 35.1502 282 0 282 0C282 0 296.878 40.2186 291.5 65.5C282.707 106.839 229.732 101.189 213 140C198.747 173.063 221.218 198.922 207 232C189.758 272.113 125 308 125 308C125 308 225.981 289.567 269 246C278.644 236.233 291.5 219 291.5 219" stroke="#C3C5CB" stroke-width="2"/>
</svg>
