<svg width="560" height="219" viewBox="0 0 560 219" fill="none" xmlns="http://www.w3.org/2000/svg">
<g style="mix-blend-mode:soft-light" opacity="0.25">
<path d="M0.35 219L104.3 -12H146.54L250.82 219H205.94L116.51 10.77H133.67L44.57 219H0.35ZM48.2 165.54L59.75 131.88H184.49L196.04 165.54H48.2ZM280.198 219V-12H375.238C395.698 -12 413.188 -8.70001 427.708 -2.10001C442.448 4.49999 453.778 13.96 461.698 26.28C469.618 38.6 473.578 53.23 473.578 70.17C473.578 87.11 469.618 101.74 461.698 114.06C453.778 126.38 442.448 135.84 427.708 142.44C413.188 149.04 395.698 152.34 375.238 152.34H303.958L323.098 132.21V219H280.198ZM323.098 136.83L303.958 116.04H373.258C392.178 116.04 406.368 112.08 415.828 104.16C425.508 96.02 430.348 84.69 430.348 70.17C430.348 55.43 425.508 44.1 415.828 36.18C406.368 28.26 392.178 24.3 373.258 24.3H303.958L323.098 3.17999V136.83ZM516.418 219V-12H559.318V219H516.418Z" fill="white"/>
</g>
</svg>
