<svg width="147" height="219" viewBox="0 0 147 219" fill="none" xmlns="http://www.w3.org/2000/svg">
<path d="M109.5 85.4708C104.687 85.4708 99.9827 86.8979 95.9811 89.5717C91.9795 92.2455 88.8607 96.0459 87.0189 100.492C85.1772 104.939 84.6953 109.831 85.6342 114.551C86.5731 119.272 88.8907 123.607 92.2938 127.01C95.6968 130.413 100.033 132.731 104.753 133.67C109.473 134.609 114.366 134.127 118.812 132.285C123.258 130.443 127.059 127.325 129.732 123.323C132.406 119.321 133.833 114.617 133.833 109.804C133.833 103.351 131.27 97.1613 126.706 92.5979C122.143 88.0345 115.954 85.4708 109.5 85.4708ZM109.5 124.647C106.588 124.647 103.742 123.784 101.321 122.166C98.9001 120.549 97.0132 118.25 95.899 115.56C94.7847 112.87 94.4932 109.909 95.0612 107.054C95.6293 104.198 97.0314 101.575 99.0902 99.516C101.149 97.4572 103.772 96.0551 106.628 95.487C109.484 94.919 112.444 95.2105 115.134 96.3248C117.824 97.439 120.123 99.3259 121.741 101.747C123.358 104.168 124.222 107.014 124.222 109.926C124.222 111.859 123.841 113.773 123.101 115.56C122.361 117.346 121.277 118.969 119.91 120.336C118.543 121.703 116.92 122.787 115.134 123.527C113.348 124.267 111.433 124.647 109.5 124.647Z" fill="#CC9E00"/>
<path d="M147.399 71.2359C138.758 62.5849 129.464 54.6125 119.598 47.3892C126.346 43.3075 133.428 39.8071 140.768 36.9258C142.715 36.1958 144.54 35.6483 146.365 35.1008C147.846 36.8924 149.753 38.2831 151.912 39.1451C154.07 40.0072 156.411 40.313 158.718 40.0344C161.026 39.7558 163.226 38.9017 165.118 37.5507C167.009 36.1997 168.531 34.395 169.542 32.3025C173.887 32.6958 177.985 34.4891 181.223 37.4125C188.462 44.6517 188.644 59.2517 181.831 77.4409C184.812 81.395 187.549 85.41 190.043 89.6075C191.077 87.1742 192.172 84.8017 193.024 82.4292C201.967 59.0084 200.811 39.8458 189.8 29.0175C184.291 23.8009 177.117 20.6983 169.542 20.2575C168.279 17.6232 166.219 15.4528 163.654 14.0535C161.089 12.6541 158.149 12.0967 155.25 12.4599C152.351 12.8231 149.64 14.0887 147.499 16.0775C145.359 18.0664 143.898 20.6778 143.323 23.5425C141.072 24.2117 138.822 24.8808 136.449 25.7933C126.729 29.6212 117.416 34.4102 108.648 40.0892C99.8625 34.3371 90.53 29.4671 80.7867 25.55C57.3658 16.6683 38.2033 17.7633 27.4358 28.7742C17.3375 38.9333 15.695 55.7842 22.3867 76.5892C20.8594 78.5531 19.8884 80.8917 19.5756 83.3598C19.2627 85.828 19.6195 88.3349 20.6086 90.6177C21.5976 92.9006 23.1825 94.8754 25.1971 96.3352C27.2116 97.795 29.5818 98.6861 32.0592 98.915C34.0058 102.626 36.135 106.337 38.5075 109.987C32.8581 118.774 28.1094 128.108 24.3333 137.848C15.3908 161.208 16.5467 180.432 27.5575 191.199C30.9075 194.33 34.8521 196.757 39.1574 198.334C43.4627 199.912 48.041 200.61 52.6208 200.385C62.3383 200.068 71.9197 198.008 80.9083 194.302C90.6421 190.462 99.9743 185.674 108.77 180.006C117.484 185.804 126.757 190.715 136.449 194.667C143.574 197.47 151.042 199.312 158.653 200.142C159.989 202.983 162.242 205.292 165.05 206.698C167.857 208.104 171.056 208.525 174.131 207.893C177.206 207.261 179.98 205.613 182.005 203.214C184.031 200.815 185.191 197.805 185.298 194.667C186.914 193.668 188.422 192.506 189.8 191.199C200.811 180.188 201.967 161.208 193.024 137.848C182.532 112.757 167.004 90.0855 147.399 71.2359ZM76.4675 183.048C58.2175 190.043 43.3133 189.922 36.0133 182.561C28.7133 175.2 28.5308 160.539 35.5875 142.168C38.4468 134.828 41.9269 127.746 45.99 120.998C53.235 130.827 61.2062 140.099 69.8367 148.738C72.4525 151.353 75.1292 153.908 77.8058 156.342C81.4558 154.476 85.1666 152.347 88.9383 149.954C85.41 146.791 81.8817 143.871 78.475 140.16C64.7832 126.706 53.031 111.412 43.5567 94.7175C45.4593 92.7455 46.7381 90.2562 47.233 87.561C47.728 84.8658 47.4171 82.0845 46.3392 79.5652C45.2613 77.0458 43.4644 74.9003 41.1732 73.3971C38.8821 71.8939 36.1985 71.0998 33.4583 71.1142C28.8958 55.9058 29.6867 43.8 36.0742 37.4125C38.3239 35.4299 40.9452 33.9141 43.7857 32.9533C46.6263 31.9926 49.6295 31.6059 52.6208 31.8158C60.8297 32.09 68.9246 33.8202 76.5283 36.9258C83.8689 39.8071 90.9511 43.3075 97.6983 47.3892C87.8328 54.6125 78.5384 62.5849 69.8975 71.2359C67.2208 73.9125 64.605 76.7109 62.05 79.5092C63.8817 83.3633 65.9122 87.1198 68.1333 90.7634C71.4183 87.0525 74.7642 83.4025 78.3533 79.8134C87.7126 70.4642 97.8923 61.9743 108.77 54.4459C119.532 62.0029 129.608 70.4914 138.882 79.8134C148.233 89.1711 156.723 99.351 164.25 110.23C156.704 121.095 148.216 131.273 138.882 140.647C121.181 158.882 99.9423 173.311 76.4675 183.048ZM181.223 182.5L180.249 183.291C178.652 181.937 176.767 180.964 174.738 180.445C172.709 179.927 170.589 179.877 168.537 180.299C166.486 180.721 164.558 181.604 162.898 182.881C161.238 184.158 159.891 185.796 158.957 187.671C152.704 186.868 146.574 185.294 140.707 182.987C133.356 180.13 126.272 176.628 119.537 172.523C129.403 165.3 138.697 157.328 147.338 148.677C156.003 140.07 163.976 130.795 171.185 120.937C175.266 127.684 178.767 134.766 181.648 142.107C188.583 160.539 188.583 175.261 181.223 182.5Z" fill="#CC9E00"/>
</svg>
