<svg width="289" height="170" viewBox="0 0 289 170" fill="none" xmlns="http://www.w3.org/2000/svg">
  <path d="M4 296.177C14.8401 274.045 25.5326 257.567 46.2889 243.197C65.0857 230.184 89.6883 227.864 108.772 214.807C144.888 190.096 172.918 158.253 172.918 113.005C172.918 88.2829 168.641 64.5583 168.641 39.8308C168.641 30.1883 175.197 21.7448 181.471 15.1227C191.61 4.42037 200.082 -5.93439 211.405 -16" stroke="#FFD957" stroke-width="7" stroke-linecap="round"/>
  <path d="M148 348.828C166.488 345.203 181.897 332.036 195.04 318.893C202.443 311.491 220.703 298.838 224.5 288.483C230.41 272.364 231.39 255.334 231.39 238.354C231.39 220.513 233.528 202.839 233.528 184.899C233.528 160.974 236.817 136.617 250.634 117.427C258.547 106.437 268.906 98.5717 280.568 91.7686C288.904 86.9064 296.316 76.8861 304.089 73" stroke="#FFD957" stroke-width="2" stroke-linecap="round"/>
  <path d="M168 209.755C170.41 187.526 174.454 166.871 181.542 145.609C187.326 128.256 199.359 118.095 211.477 105.339C235.613 79.9326 279.164 69.6898 311.735 61.3875C346.328 52.5696 398.942 46.0139 418.169 10.9022C426.348 -4.03217 434.247 -18.0861 439.551 -34" stroke="#FFD957" stroke-width="3" stroke-linecap="round"/>
  <path d="M87 249.429C89.5492 238.212 93.2458 227.472 95.5528 216.168C98.4027 202.204 96.8615 188.445 98.1662 174.354C100.446 149.735 114.873 112.944 130.714 93.9342C162.642 55.6211 202.185 43.4073 247.84 27.2936C296.058 10.2754 351.06 -2.75217 388.486 -40.1785C402.343 -54.0357 414.7 -72.1067 423.648 -89.4759C432.495 -106.65 435.466 -126.773 444.079 -144" stroke="#FFD957" stroke-width="3" stroke-linecap="round"/>
  <path d="M266 209.986C266 183.994 271.795 163.712 294.272 147.978C301.551 142.883 307.567 134.226 316.248 131.942C323.328 130.079 331.052 127.993 337.511 124.933C363.917 112.425 395.603 132.184 413.536 150.117" stroke="#FFD957" stroke-width="3" stroke-linecap="round"/>
</svg>
