<svg width="24" height="24" viewBox="0 0 24 24" fill="none" xmlns="http://www.w3.org/2000/svg">
    <path d="M2.99997 3.75008V0.750006C2.99997 0.335408 3.33538 0 3.75007 0C4.16457 0 4.49998 0.335408 4.49998 0.750006V3.75008C4.49998 4.16458 4.16457 4.49999 3.75007 4.49999C3.33538 4.50004 2.99997 4.16458 2.99997 3.75008ZM15.7501 4.50004C16.1645 4.50004 16.5001 4.16463 16.5001 3.75013V0.750006C16.5001 0.335408 16.1645 0 15.7501 0C15.3355 0 14.9998 0.335408 14.9998 0.750006V3.75008C14.9998 4.16458 15.3355 4.50004 15.7501 4.50004ZM23.9999 17.9999C23.9999 21.3137 21.3135 24.0001 17.9999 24.0001C14.6866 24.0001 12 21.3137 12 17.9999C12 14.6865 14.6865 12 17.9999 12C21.3135 12 23.9999 14.6865 23.9999 17.9999ZM22.5001 17.9999C22.5001 15.5187 20.4815 13.4999 18 13.4999C15.5186 13.4999 13.5 15.5187 13.5 17.9999C13.5 20.4815 15.5186 22.5 18 22.5C20.4815 22.5 22.5001 20.4815 22.5001 17.9999ZM6.00004 9.00003H2.99997V12H6.00004V9.00003ZM2.99997 16.5H6.00004V13.4999H2.99997V16.5ZM7.49995 12H10.5001V9.00003H7.49995V12ZM7.49995 16.5H10.5001V13.4999H7.49995V16.5ZM1.50006 17.8507V7.49996H18V10.5H19.5V4.64951C19.5 3.73836 18.7733 2.99998 17.8755 2.99998H17.25V3.75013C17.25 4.57621 16.5775 5.25009 15.7501 5.25009C14.9226 5.25009 14.2501 4.57621 14.2501 3.75013V2.99998H5.24993V3.75013C5.24993 4.57621 4.57759 5.25009 3.75012 5.25009C2.92246 5.25009 2.25006 4.57621 2.25006 3.75013V2.99998H1.62525C0.7274 2.99998 0 3.73836 0 4.64951V17.8508C0 18.7589 0.7274 19.5002 1.62525 19.5002H10.5001V17.9999H1.62525C1.55729 17.9999 1.50006 17.9297 1.50006 17.8507ZM14.9998 12V9.00003H12V12H14.9998ZM20.25 17.9999H17.9999V15.7498C17.9999 15.3354 17.6645 15 17.2499 15C16.8353 15 16.5001 15.3354 16.5001 15.7498V18.7501C16.5001 19.1645 16.8353 19.5001 17.2499 19.5001H20.25C20.6646 19.5001 21 19.1645 21 18.7501C21 18.3355 20.6646 17.9999 20.25 17.9999Z" fill="#075055"/>
</svg>
