<svg width="280" height="412" viewBox="0 0 280 412" fill="none" xmlns="http://www.w3.org/2000/svg">
<path d="M70.1166 147.496C54.6647 170.046 81.5195 192.651 70.1166 217.496C56.5108 247.141 -0.927696 233.52 2.11664 265.996C5.63659 303.545 64.9081 237.62 98.1166 255.496C149.697 283.261 43.6045 384.051 98.1166 405.496C145.696 424.213 173.347 371.982 208.117 334.496C230.029 310.87 278.069 287.55 254.117 265.996C232.255 246.323 213.334 288.653 184.617 294.996C166.403 299.018 153.953 308.024 137.117 299.996C108.036 286.128 115.248 241.155 137.117 217.496C156.274 196.77 189.499 225.208 208.117 203.996C228.081 181.248 192.322 152.313 208.117 126.496C222.944 102.261 259.48 116.683 271.617 90.9957C287.993 56.3341 265.214 -6.66705 228.117 2.99566C202.909 9.56146 193.121 33.7911 177.117 58.4957C161.378 82.7903 173.05 107.869 147.617 126.496C122.319 145.023 87.8411 121.629 70.1166 147.496Z" stroke="#CEDDDE" stroke-width="4"/>
</svg>
