<svg width="15" height="15" viewBox="0 0 15 15" fill="none" xmlns="http://www.w3.org/2000/svg">
    <path d="M9.74176 7.49974L14.535 2.70652C15.1543 2.08722 15.1543 1.08377 14.535 0.464471C13.9157 -0.154824 12.9122 -0.154824 12.293 0.464471L7.49974 5.25823L2.70652 0.46501C2.08722 -0.154284 1.08377 -0.154284 0.464471 0.46501C-0.154824 1.0843 -0.154824 2.08776 0.464471 2.70706L5.25769 7.50028L0.464471 12.2935C-0.154824 12.9128 -0.154824 13.9162 0.464471 14.5355C1.08377 15.1548 2.08722 15.1548 2.70652 14.5355L7.49974 9.74232L12.293 14.5355C12.9122 15.1548 13.9157 15.1548 14.535 14.5355C15.1543 13.9162 15.1543 12.9128 14.535 12.2935L9.74176 7.49974Z" fill="#075055"/>
</svg>
