<?xml version="1.0" encoding="utf-8"?>
<!-- Generator: Adobe Illustrator 19.0.1, SVG Export Plug-In . SVG Version: 6.00 Build 0)  -->
<svg version="1.1" id="Слой_1" xmlns="http://www.w3.org/2000/svg" xmlns:xlink="http://www.w3.org/1999/xlink" x="0px" y="0px"
	 viewBox="-1009 899.8948364 2000 430.2103271" style="enable-background:new -1009 899.8948364 2000 430.2103271;"
	 xml:space="preserve">
<g>
	<g>
		<g>
			<path d="M-537.8925171,1154.2242432l-41.6307373,112.7041016h-27.6069946l12.4818726-32.232666l-30.2502441-80.4714355
				h27.0196533l17.3277588,51.6896973l16.2264404-51.6896973H-537.8925171z"/>
			<path d="M-485.7133484,1238.8807373c-6.803833,0-13.0325623-0.8565674-18.6861267-2.5697021
				c-5.6535339-1.7132568-10.5615845-4.3564453-14.7212524-7.9296875
				c-4.1116943-3.5732422-7.3178101-8.0633545-9.6184082-13.4741211
				c-2.3015137-5.4068604-3.4508667-11.7833252-3.4508667-19.1256104c0-7.8807373,1.2481689-14.5866699,3.7445679-20.1179199
				c2.4963379-5.5311279,5.8738403-10.083374,10.1323242-13.6566162c4.1116943-3.4263916,8.9453735-5.9586182,14.5010376-7.6002197
				c5.554718-1.6379395,11.343811-2.4587402,17.364502-2.4587402c4.5522156,0,9.1044312,0.5270996,13.6566467,1.5776367
				c4.5522156,1.0543213,9.1289063,2.7298584,13.730072,5.0303955v22.0268555h-3.3040161
				c-1.0279236-0.9790039-2.2883606-2.0557861-3.7812805-3.2305908c-1.493866-1.1748047-3.1204834-2.2515869-4.8826294-3.2305908
				c-1.8609924-1.0279541-3.9648438-1.895874-6.3143616-2.6055908s-4.9682922-1.0655518-7.8562317-1.0655518
				c-6.5600586,0-11.6375427,2.2893066-15.23526,6.8641357c-3.5977173,4.5784912-5.3965759,10.7329102-5.3965759,18.4667969
				c0,8.2722168,1.9202881,14.4398193,5.7637024,18.5025635c3.8424683,4.0626221,8.945343,6.0939941,15.3086548,6.0939941
				c3.2306213,0,6.0686951-0.3670654,8.5170593-1.1013184c2.4474182-0.7342529,4.5522156-1.6152344,6.3143616-2.6431885
				c1.7131958-1.0279541,3.1816711-2.0916748,4.405365-3.1948242c1.2227783-1.0994873,2.276123-2.0916748,3.157196-2.9726563
				h3.3040161v22.0268555c-1.4684448,0.6362305-3.1694031,1.3704834-5.1028748,2.2026367
				c-1.9344177,0.8321533-3.903656,1.5174561-5.910553,2.0557861c-2.4963684,0.6853027-4.8345947,1.2105713-7.0118713,1.5795898
				C-479.2643738,1238.6962891-482.1410522,1238.8807373-485.7133484,1238.8807373z"/>
			<path d="M-366.1310425,1236.6781006h-25.697998v-64.3184814h-20.1912842
				c-0.1468506,3.524292-0.2569885,6.3634033-0.3304138,8.5170898c-0.0734253,2.1538086-0.1590881,4.5766602-0.2569885,7.2689209
				c-0.3426208,7.8806152-1.003418,14.3061523-1.9823914,19.2724609c-0.9799194,4.9702148-2.2281189,9.0441895-3.7445679,12.2259521
				c-1.4684753,3.1816406-2.9736328,5.666626-4.5155029,7.451416c-1.5419006,1.7885742-3.2193298,3.4641113-5.02948,5.0303955
				c-1.7141418,1.4685059-4.137085,2.6809082-7.2688599,3.6335449c-3.1327209,0.9562988-5.9961853,1.4326172-8.5904846,1.4326172
				c-2.2026672,0-4.3940735-0.0865479-6.5713501-0.2579346c-2.1781921-0.1712646-3.4875793-0.2559814-3.9281006-0.2559814
				v-20.8520508h0.7342224c0.1948547,0,0.5252686,0.0244141,0.9912109,0.0733643
				c0.4649963,0.0489502,0.9177856,0.0734863,1.3583069,0.0734863c1.1747742,0,2.3975525-0.133667,3.6711426-0.4029541
				c1.2726746-0.269165,2.3241272-0.8208008,3.157196-1.6529541c3.3774414-3.4263916,5.5434265-8.0030518,6.4979248-13.7301025
				c0.9544983-5.7269287,1.6030579-12.1391602,1.9457092-19.2366943c0.1948547-3.8669434,0.391571-8.1876221,0.5873718-12.958252
				c0.1948547-4.7744141,0.3417053-9.3623047,0.4405518-13.7677002h68.7237854V1236.6781006z"/>
			<path d="M-267.4017639,1154.2242432l-41.6307678,112.7041016h-27.6069946l12.4818726-32.232666l-30.2502136-80.4714355
				h27.0196228l17.3277893,51.6896973l16.2264404-51.6896973H-267.4017639z"/>
			<path d="M-191.2858124,1172.2862549h-38.6938324v64.3918457h-25.6980133v-82.4538574h64.3918457V1172.2862549z"/>
			<path d="M-100.2659378,1236.6781006h-25.2574615v-50.0743408l-31.5718307,50.0743408h-21.5128937v-82.4538574h25.2574615
				v44.7879639l28.9286041-44.7879639h24.1561203V1236.6781006z"/>
			<path d="M51.8916359,1257.0895996H29.0590096v-20.7052002h-47.7257996v20.7052002h-22.8354511v-38.9140625h5.9472542
				c3.7191486-7.7338867,6.6927738-17.1809082,8.9208755-28.3411865
				c2.2271595-11.1602783,3.3407402-23.0303955,3.3407402-35.6101074h67.0369492v63.9512939h8.148056V1257.0895996z
				 M18.1924267,1218.1755371v-45.815918H0.0550989c-0.8321257,9.1534424-2.2365732,17.6347656-4.2208729,25.4420166
				c-1.9805346,7.807251-4.3686604,14.5980225-7.1587291,20.3739014H18.1924267z"/>
			<path d="M145.7034607,1236.6781006H120.005455v-64.3184814H99.8141708
				c-0.1468506,3.524292-0.2560425,6.3634033-0.3313446,8.5170898c-0.0715408,2.1538086-0.1581421,4.5766602-0.2560425,7.2689209
				c-0.3426361,7.8806152-1.0034409,14.3061523-1.9824142,19.2724609
				c-0.9789734,4.9702148-2.2271576,9.0441895-3.7445679,12.2259521c-1.4684525,3.1816406-2.9745636,5.666626-4.5145645,7.451416
				c-1.5437622,1.7885742-3.2193069,3.4641113-5.0304031,5.0303955c-1.7132034,1.4685059-4.1361542,2.6809082-7.2688675,3.6335449
				c-3.1327057,0.9562988-5.9962006,1.4326172-8.5904694,1.4326172c-2.2026901,0-4.3940773-0.0865479-6.5704079-0.2579346
				c-2.1800919-0.1712646-3.4885254-0.2559814-3.9290619-0.2559814v-20.8520508h0.7342262
				c0.195797,0,0.5252571,0.0244141,0.9921532,0.0733643c0.4631271,0.0489502,0.9168434,0.0734863,1.3573799,0.0734863
				c1.1747665,0,2.3984795-0.133667,3.6711426-0.4029541c1.2726669-0.269165,2.325058-0.8208008,3.1571808-1.6529541
				c3.3774567-3.4263916,5.5424881-8.0030518,6.4988632-13.7301025c0.9526215-5.7269287,1.6021271-12.1391602,1.9447708-19.2366943
				c0.1957932-3.8669434,0.3915863-8.1876221,0.5873795-12.958252c0.1957932-4.7744141,0.3426437-9.3623047,0.4405365-13.7677002
				h68.7238007V1236.6781006z"/>
			<path d="M239.3665466,1236.6781006h-25.6245728v-28.6348877h-7.7828217l-19.7507477,28.6348877h-28.7817688
				l23.6421661-32.3060303c-5.8738403-2.6922607-10.1568298-5.9586182-12.848999-9.8010254
				c-2.6921844-3.8425293-4.038269-8.9708252-4.038269-15.3830566c0-4.5522461,0.8923798-8.3814697,2.6790009-11.4897461
				s4.1982727-5.7401123,7.2330933-7.8939209c2.6921692-1.8599854,5.8606415-3.2550049,9.5073242-4.1850586
				c3.6466675-0.9300537,7.7225647-1.3950195,12.2258453-1.3950195h43.5397491V1236.6781006z M213.7419739,1191.8901367v-20.5583496
				h-11.8210907c-3.6221924,0-6.4499054,0.8208008-8.4812775,2.4587402
				c-2.0313568,1.6416016-3.0461121,4.0268555-3.0461121,7.159668c0,3.8669434,1.0034485,6.6569824,3.0103455,8.3701172
				c2.006897,1.7132568,4.9927521,2.5698242,8.9575806,2.5698242H213.7419739z"/>
			<path d="M378.0133667,1167.293457c3.1327209,3.1816406,5.6046143,7.1107178,7.4157104,11.7834473
				c1.8110962,4.6765137,2.7166443,10.4881592,2.7166443,17.4388428c0,12.8735352-3.8311462,23.2148438-11.4916077,31.0202637
				c-7.6604614,7.8092041-17.9999084,11.7119141-31.0202332,11.7119141c-14.2929688,0-24.9147949-4.6257324-31.865509-13.8769531
				c-6.9506836-9.2512207-10.4260559-23.1037598-10.4260559-41.557373c0-3.524292,0.1713257-7.1087646,0.5139771-10.7573242
				c0.3426208-3.6447754,1.125824-8.0633545,2.3495178-13.2519531c1.0279236-4.3074951,2.5076904-8.6016846,4.4430237-12.8865967
				c1.9316101-4.2811279,4.2453613-7.7941895,6.9375305-10.5352783c3.0348206-3.1326904,7.1709595-5.8361816,12.4084473-8.1141357
				c5.2375183-2.274292,12.5798035-3.8782959,22.0268555-4.8082275c4.4543457-0.4405518,9.7407837-0.8077393,15.8593445-1.1014404
				c6.1185913-0.2935791,10.9889526-0.4893799,14.611145-0.5872803v19.3101807
				c-3.0837402,0.1468506-5.9095764,0.2823486-8.4812622,0.402832c-2.5679321,0.1242676-5.5180054,0.3068848-8.8465271,0.5516357
				c-2.0558472,0.1468506-4.7480164,0.3803711-8.0765076,0.6984863s-6.167511,0.6965332-8.5170593,1.137085
				c-2.8390198,0.5874023-5.4690552,1.4929199-7.8938904,2.7166748c-2.4210815,1.2237549-4.4166565,2.8389893-5.9830322,4.8459473
				c-1.1747437,1.517334-2.1424255,3.5374756-2.8992615,6.0563965c-0.7605896,2.5227051-1.3103027,5.6177979-1.6529541,9.2889404
				c3.6221924-2.5942383,7.4401855-4.6745605,11.4539795-6.2409668c4.0137634-1.5662842,8.3457336-2.3494873,12.9958496-2.3494873
				c4.6011658,0,8.9086304,0.758667,12.9224243,2.276123C371.5276794,1161.9825439,375.0274963,1164.258667,378.0133667,1167.293457
				z M356.5004883,1216.1931152c1.5663452-1.9089355,2.8258362-4.2453613,3.782196-7.0128174
				c0.9526367-2.7636719,1.4308167-6.692749,1.4308167-11.7834473c0-5.9227295-1.517395-10.68396-4.5522156-14.2797852
				c-3.0348206-3.5996094-7.048584-5.397583-12.0413513-5.397583c-2.3005981,0-4.7235413,0.2937012-7.2688599,0.8811035
				s-5.2130127,1.6643066-8.0030823,3.2305908c0,0.489502-0.0131836,1.1879883-0.0376587,2.0916748
				c-0.0244751,0.9073486-0.0357666,1.7263184-0.0357666,2.4605713c0,7.0975342,0.2202454,12.4819336,0.6607971,16.1530762
				c0.4405212,3.6711426,1.4194946,7.072998,2.9369202,10.2056885c1.272644,2.6433105,2.9858398,4.6501465,5.1395874,6.020752
				c2.1537476,1.3704834,4.650116,2.0557861,7.4891357,2.0557861c1.6152954,0,3.4151001-0.3670654,5.3956299-1.1013184
				C353.3809509,1218.9831543,355.0809631,1217.8084717,356.5004883,1216.1931152z"/>
			<path d="M482.2493591,1236.6781006h-25.2574768v-50.0743408l-31.5718079,50.0743408h-21.5129089v-82.4538574h25.2574768
				v44.7879639l28.9285889-44.7879639h24.1561279V1236.6781006z"/>
			<path d="M568.9391479,1213.3295898c0,4.7480469-1.0900269,8.7862549-3.2682495,12.1147461
				c-2.1782227,3.3286133-5.1019287,5.9962158-8.7730713,8.0031738c-3.524292,1.9089355-7.5983276,3.3039551-12.2258911,4.1850586
				c-4.6237183,0.8811035-9.5806885,1.3216553-14.8671875,1.3216553c-6.7548828,0-12.848999-0.6363525-18.2822571-1.9090576
				c-5.4332886-1.272583-10.4994812-2.7655029-15.1985474-4.4787598v-19.8242188h2.7166443
				c3.6711426,2.1538086,7.7451782,3.9893799,12.2258606,5.5067139c4.4768982,1.5174561,9.0423279,2.276123,13.6924133,2.276123
				c1.7131958,0,3.7935181-0.1223145,6.2409668-0.3670654c2.4473877-0.244751,4.3563843-0.6607666,5.7269897-1.2481689
				c2.1047363-0.8321533,3.5977173-1.8469238,4.4787598-3.0461426c0.8811035-1.1992188,1.3215942-2.7298584,1.3215942-4.5898438
				c0-2.0559082-0.4894409-3.6824951-1.4684448-4.8835449c-0.9789429-1.1973877-2.3250732-2.0916748-4.038269-2.6790771
				c-1.7131958-0.5872803-3.6956177-0.9412842-5.9472046-1.0635986c-2.2516479-0.1224365-4.6990967-0.1845703-7.3422852-0.1845703
				h-9.6184082v-16.4466553h7.3422852c1.8600464,0,4.1116943-0.0377197,6.7548828-0.1092529
				c2.6432495-0.0753174,4.7480469-0.3312988,6.3143921-0.7718506c2.006897-0.5384521,3.5732422-1.3084717,4.6990356-2.3118896
				c1.1258545-1.003418,1.6887207-2.6074219,1.6887207-4.8101807c0-1.5662842-0.4763184-2.8502197-1.4326782-3.8537598
				c-0.9526367-1.003418-2.2139893-1.7998047-3.7803345-2.387085c-1.3215942-0.489502-2.8634644-0.8566895-4.6256104-1.1014404
				s-3.6221924-0.3670654-5.5801392-0.3670654c-3.5732422,0-7.3912354,0.5874023-11.4539795,1.762085
				c-4.0627441,1.1748047-7.7583618,2.6433105-11.086853,4.4053955h-2.7166443v-19.5303955
				c2.7900696-0.8811035,7.1088257-1.9466553,12.9581604-3.1929932c5.8493652-1.2501221,11.5405884-1.873291,17.0717773-1.873291
				c4.9437866,0,9.4960327,0.3671875,13.6566772,1.1014404c4.1605835,0.7341309,8.0764771,2.0313721,11.7476196,3.8913574
				c3.4263916,1.762207,6.1920166,4.1116943,8.296814,7.048584s3.1571655,6.534668,3.1571655,10.7932129
				c0,4.3564453-1.3950195,8.2723389-4.1851196,11.7476807c-2.7900391,3.4753418-6.1919556,5.8248291-10.2057495,7.048584v0.6607666
				c5.0906372,1.4195557,9.0310059,3.7822266,11.8210449,7.0843506
				C567.5441284,1204.5565186,568.9391479,1208.581665,568.9391479,1213.3295898z"/>
			<path d="M662.9693604,1236.6781006h-25.697998v-35.3164063h-26.5791016v35.3164063h-25.697998v-82.4538574h25.697998v28.5615234
				h26.5791016v-28.5615234h25.697998V1236.6781006z"/>
			<path d="M726.9696045,1238.8807373c-15.5656128,0-27.4959106-3.7200928-35.7945557-11.1602783
				c-8.2949219-7.4401855-12.4442749-18.0374756-12.4442749-31.7921143c0-13.4608154,3.8669434-24.2049561,11.6008301-32.2325439
				s18.5515137-12.0413818,32.4529419-12.0413818c12.6287231,0,22.1246948,3.4019775,28.4880371,10.2058105
				s9.5449829,16.5445557,9.5449829,29.22229v9.2512207h-56.3153687c0.244751,3.8179932,1.0524292,7.0128174,2.4229736,9.5808105
				c1.3705444,2.5716553,3.1816406,4.6142578,5.4332886,6.1317139c2.2026978,1.5174561,4.772522,2.6074219,7.7094116,3.2663574
				c2.9368896,0.6627197,6.1430664,0.9921875,9.6184082,0.9921875c2.9858398,0,5.9227905-0.3294678,8.81073-0.9921875
				c2.8879395-0.6589355,5.531189-1.5286865,7.9296875-2.6055908c2.1047974-0.9299316,4.0495605-1.9334717,5.8361816-3.0102539
				c1.7866211-1.0769043,3.2437744-2.0313721,4.3695679-2.8635254h2.7166748v21.2192383
				c-2.1047974,0.8320313-4.0269775,1.6040039-5.7646484,2.3137207s-4.1229858,1.4307861-7.1577759,2.1650391
				c-2.7901001,0.7342529-5.666748,1.3084717-8.6262817,1.7244873
				C734.8371582,1238.6717529,731.2281494,1238.8807373,726.9696045,1238.8807373z M735.4866943,1184.8415527
				c-0.1468506-5.4333496-1.4082642-9.569458-3.7822266-12.4084473c-2.3740234-2.8389893-6.0075073-4.2585449-10.9023438-4.2585449
				c-4.9927979,0-8.8973999,1.4929199-11.7119141,4.4787598c-2.8145142,2.9859619-4.3677368,7.048584-4.661438,12.1882324
				H735.4866943z"/>
			<path d="M816.5944824,1238.8807373c-6.803894,0-13.0335083-0.8565674-18.6851807-2.5697021
				c-5.6554565-1.7132568-10.5616455-4.3564453-14.722229-7.9296875c-4.1116943-3.5732422-7.3178101-8.0633545-9.6184082-13.4741211
				c-2.3005981-5.4068604-3.4508667-11.7833252-3.4508667-19.1256104c0-7.8807373,1.2481689-14.5866699,3.7445679-20.1179199
				c2.4963379-5.5311279,5.8738403-10.083374,10.1323242-13.6566162c4.1116943-3.4263916,8.944397-5.9586182,14.5019531-7.6002197
				c5.553772-1.6379395,11.3428955-2.4587402,17.3635864-2.4587402c4.5521851,0,9.1044312,0.5270996,13.6566162,1.5776367
				c4.5522461,1.0543213,9.1289673,2.7298584,13.7301025,5.0303955v22.0268555h-3.3040161
				c-1.0279541-0.9790039-2.2893066-2.0557861-3.7822266-3.2305908s-3.1195068-2.2515869-4.8816528-3.2305908
				c-1.8600464-1.0279541-3.9648438-1.895874-6.3143921-2.6055908s-4.9682617-1.0655518-7.8562622-1.0655518
				c-6.559082,0-11.6384277,2.2893066-15.234314,6.8641357c-3.5995483,4.5784912-5.397522,10.7329102-5.397522,18.4667969
				c0,8.2722168,1.9202881,14.4398193,5.7627563,18.5025635c3.8424683,4.0626221,8.9462891,6.0939941,15.3096313,6.0939941
				c3.2305908,0,6.0696411-0.3670654,8.5170288-1.1013184c2.4474487-0.7342529,4.5522461-1.6152344,6.3143921-2.6431885
				c1.7131958-1.0279541,3.1816406-2.0916748,4.4053955-3.1948242c1.2236938-1.0994873,2.276062-2.0916748,3.1571655-2.9726563
				h3.3040161v22.0268555c-1.4684448,0.6362305-3.1703491,1.3704834-5.1019287,2.2026367
				c-1.9353638,0.8321533-3.9046021,1.5174561-5.911499,2.0557861c-2.4963989,0.6853027-4.8345947,1.2105713-7.0109253,1.5795898
				C823.0424805,1238.6962891,820.1677246,1238.8807373,816.5944824,1238.8807373z"/>
			<path d="M902.9887085,1227.9407959c-1.762207,1.4683838-3.3417358,2.7900391-4.7348633,3.9648438
				c-1.3969116,1.1746826-3.2682495,2.3494873-5.6177979,3.524292c-2.3005981,1.1257324-4.5408936,1.9824219-6.7172241,2.5698242
				c-2.1801147,0.5872803-5.2261963,0.8809814-9.1420898,0.8809814c-7.293335,0-13.3516846-2.4473877-18.1712036-7.3422852
				c-4.8233643-4.8947754-7.2330933-11.0623779-7.2330933-18.5025635c0-6.1185303,1.2236938-11.0623779,3.6711426-14.8314209
				c2.4473877-3.769043,5.9716797-6.7548828,10.572876-8.9575195c4.6500854-2.251709,10.2057495-3.8179932,16.6669922-4.6990967
				c6.4611816-0.8811035,13.4119263-1.5662842,20.8520508-2.0557861v-0.4405518c0-4.5522461-1.6774292-7.6962891-5.0285034-9.435791
				c-3.3548584-1.7358398-8.3833618-2.6055908-15.0893555-2.6055908c-3.03479,0-6.5835571,0.5496826-10.6463013,1.6529541
				c-4.0627441,1.0994873-8.0275269,2.5076904-11.8944702,4.2208252h-2.2026978v-19.897583
				c2.5452881-0.7341309,6.6569824-1.6020508,12.335022-2.6074219c5.6780396-1.0015869,11.4050293-1.5042725,17.1809692-1.5042725
				c14.1950684,0,24.5345459,2.362793,31.0220947,7.0844727c6.4837646,4.7253418,9.7276001,11.9321289,9.7276001,21.6239014
				v56.0950928h-25.5511475V1227.9407959z M902.9887085,1215.1651611v-17.1809082
				c-4.3564453,0.4405518-7.8807373,0.8208008-10.572937,1.1390381c-2.6921387,0.3181152-5.3353882,0.9412842-7.9296265,1.8713379
				c-2.2516479,0.7830811-4.0006104,1.9710693-5.2506714,3.5618896c-1.2463379,1.5908203-1.8713989,3.7069092-1.8713989,6.3500977
				c0,3.8669434,1.0392456,6.5234375,3.12146,7.9654541c2.0784302,1.4459229,5.1508789,2.1669922,9.213623,2.1669922
				c2.2516479,0,4.5521851-0.5140381,6.9017334-1.5418701
				C898.9504395,1218.4692383,901.0797119,1217.0252686,902.9887085,1215.1651611z"/>
		</g>
		<g>
			<path d="M-572.621521,1084.6551514c-15.5656738,0-27.4968872-3.7191162-35.7936401-11.1602783
				c-8.296814-7.4401855-12.4451904-18.0366211-12.4451904-31.7921143c0-13.4608154,3.8660278-24.2041016,11.6008301-32.232666
				c7.7338867-8.0275269,18.5505371-12.0413208,32.4528809-12.0413208c12.6287231,0,22.1247559,3.4028931,28.4880981,10.2057495
				c6.3623657,6.803894,9.5449219,16.5455322,9.5449219,29.22229v9.2513428h-56.3153076
				c0.244751,3.8179932,1.0523682,7.0118408,2.4229736,9.581665c1.3696289,2.5698242,3.1816406,4.6143799,5.4332886,6.1307373
				c2.2026978,1.5174561,4.7724609,2.6065674,7.7094116,3.267334c2.9368896,0.6608887,6.1420898,0.9912109,9.6183472,0.9912109
				c2.9849243,0,5.921875-0.3303223,8.810791-0.9912109c2.8879395-0.6607666,5.531189-1.529541,7.9296265-2.6064453
				c2.1038818-0.9290771,4.0495605-1.9334717,5.8371582-3.010376c1.7866211-1.0759277,3.2418823-2.0303955,4.3686523-2.8635254
				h2.7166138v21.2192383c-2.1047974,0.8331299-4.0269775,1.6040039-5.7636719,2.3128662
				c-1.7376709,0.7097168-4.1239014,1.4317627-7.1587524,2.1658936c-2.7900391,0.7342529-5.6657715,1.3094482-8.6271973,1.7254639
				C-564.7539673,1084.446167-568.3629761,1084.6551514-572.621521,1084.6551514z M-564.1044922,1030.6158447
				c-0.1468506-5.4332275-1.4072876-9.569397-3.78125-12.4083862c-2.374939-2.8380737-6.0093994-4.2585449-10.9033203-4.2585449
				c-4.9927368,0-8.8963623,1.4938965-11.7109375,4.4788208c-2.8154907,2.9858398-4.3686523,7.048584-4.6623535,12.1881104
				H-564.1044922z"/>
			<path d="M-488.2097168,1084.4348145c-8.3702087,0-15.7247314-0.8076172-22.0635681-2.4228516
				c-6.3398132-1.6153564-12.224884-3.6223145-17.6581726-6.020752v-25.9916992h2.4963379
				c5.4813232,4.651123,11.5274048,8.2233887,18.1354675,10.7197266c6.6080322,2.49646,13.0202942,3.7446289,19.2367859,3.7446289
				c1.5663452,0,3.6344299-0.1713867,6.2042236-0.5140381c2.5697937-0.3416748,4.6369324-0.8809814,6.2042236-1.6152344
				c1.9089966-0.8321533,3.524292-1.9937744,4.8459167-3.4875488c1.3215942-1.493042,1.9824219-3.4622803,1.9824219-5.9106445
				c0-2.7410889-1.0768738-4.9672852-3.2306213-6.6813965c-2.1546631-1.7132568-4.7244568-2.9614258-7.7093811-3.7446289
				c-3.7200928-0.9788818-7.6981201-1.9089355-11.9312134-2.7900391c-4.2340698-0.8811035-8.1866455-1.9570313-11.8577881-3.2305908
				c-8.4690857-2.9849854-14.5377502-6.9996338-18.2088928-12.0413818
				c-3.6711426-5.0407715-5.5067139-11.3551025-5.5067139-18.9430542c0-10.2302856,4.3319702-18.513855,12.9958496-24.8536377
				c8.6639099-6.3388672,19.4815369-9.5083008,32.4529114-9.5083008c6.5092163,0,12.9836121,0.6608276,19.4203491,1.9824219
				c6.435791,1.3215942,12.1994934,3.1091919,17.2910767,5.3598633v24.9638062h-2.4229431
				c-4.0636902-3.4753418-9.0197144-6.4122925-14.8681335-8.81073c-5.8493652-2.397583-11.8577881-3.5977783-18.0253296-3.5977783
				c-2.398468,0-4.5522156,0.1723022-6.4612122,0.5139771c-1.9089966,0.3426514-3.9168091,1.003479-6.0206604,1.9824219
				c-1.7141418,0.7832031-3.1939087,1.9457397-4.4420776,3.4876099c-1.2481995,1.5418701-1.8722839,3.2672729-1.8722839,5.1762695
				c0,2.7901001,0.9912109,5.0050049,2.9736328,6.6447754c1.9823914,1.6407471,5.811676,3.1204834,11.4906616,4.4420776
				c3.6711426,0.8330688,7.2067261,1.6407471,10.6096191,2.4229736c3.4019165,0.7832031,7.0363464,1.8609619,10.9032898,3.2305908
				c7.5870056,2.7420654,13.2273865,6.4245605,16.9239502,11.0501709
				c3.6956177,4.6256104,5.5434265,10.7319336,5.5434265,18.3189697c0,10.8665771-4.270752,19.6038818-12.8122864,26.2120361
				C-462.1333008,1081.1308594-473.6719971,1084.4348145-488.2097168,1084.4348145z"/>
			<path d="M-340.5064697,1007.6345215c0,5.0916138-0.8076477,9.9375-2.4229431,14.5377808
				c-1.6153259,4.6011353-3.9403687,8.4435425-6.9751892,11.5274048c-1.8609924,1.9089355-3.9036255,3.6711426-6.1307983,5.286377
				c-2.2280884,1.6153564-4.6877747,2.9858398-7.3789978,4.1116943c-2.6921692,1.126709-5.6168518,2.0078125-8.7740173,2.6431885
				c-3.157196,0.6363525-6.6937256,0.9545898-10.6096191,0.9545898h-14.3908691v35.7568359h-27.460144V973.1257935h42.438385
				c6.3143921,0,11.7589722,0.5761108,16.3366089,1.7254639c4.5766907,1.1502686,8.7250671,2.9736328,12.4451599,5.4699707
				c4.1116943,2.7420654,7.293335,6.4000244,9.5449829,10.9767456
				C-341.6332397,995.8756104-340.5064697,1001.3201904-340.5064697,1007.6345215z M-368.7008362,1008.2953491
				c0-3.0837402-0.7342224-5.7382813-2.2026978-7.9663696c-1.4684448-2.2271729-3.2305908-3.7558594-5.286438-4.5889282
				c-2.5952148-1.1257935-5.0784302-1.7734375-7.4524231-1.9457397c-2.374939-0.1712646-5.5923767-0.256958-9.6551208-0.256958
				h-3.8913879v32.746582h1.9089966c2.5942688,0,5.040741-0.0244141,7.3422852-0.0733643
				c2.3005676-0.0480957,4.3065186-0.2203369,6.0206604-0.5140381c1.4684753-0.244751,3.021637-0.7219238,4.6623535-1.4317627
				c1.6397705-0.7087402,2.9002075-1.505127,3.7812805-2.3861694c1.8600464-1.8101807,3.1204834-3.6956177,3.7812805-5.6535645
				C-369.03125,1014.2680054-368.7008362,1011.6248169-368.7008362,1008.2953491z"/>
			<path d="M-236.2704773,1048.9715576c0,5.4333496-1.0279236,10.2058105-3.0837708,14.3175049
				c-2.0558319,4.1116943-4.8214264,7.5145264-8.2967834,10.2058105c-4.1116791,3.2305908-8.6271667,5.5321045-13.5465088,6.9017334
				c-4.919342,1.3706055-11.1725159,2.0557861-18.759552,2.0557861h-43.7600098V973.1257935h38.6204224
				c8.0275574,0,14.10849,0.3059692,18.245575,0.9177856c4.1361694,0.612793,8.0143738,1.8977051,11.6375275,3.8547363
				c3.9158783,2.1047363,6.8396149,4.9193115,8.7740326,8.4436035c1.9334564,3.524292,2.9001923,7.5879517,2.9001923,12.1881714
				c0,5.3353882-1.333847,10.0843506-4.0015411,14.2440796c-2.6686401,4.1605835-6.3510742,7.2208252-11.0501404,9.1778564
				v0.5873413c6.7548981,1.4204712,12.1627808,4.3206177,16.2264557,8.7006226
				C-238.3018494,1035.6208496-236.2704773,1041.5314941-236.2704773,1048.9715576z M-271.440033,1004.0368042
				c0-1.762146-0.4527893-3.5722656-1.3583374-5.4332886c-0.9064636-1.8600464-2.3128052-3.2051392-4.2218018-4.038208
				c-1.8110962-0.7822876-3.9535217-1.2114868-6.4244995-1.2849121c-2.4718933-0.0734253-6.1562195-0.1101685-11.0501404-0.1101685
				h-1.9089966v23.1282349h3.4508667c4.6990662,0,7.9908752-0.0480347,9.8753967-0.1468506
				c1.8835754-0.0979004,3.8292847-0.6118774,5.8370972-1.5418701c2.2026978-1.0279541,3.7191467-2.4474487,4.5522156-4.2585449
				C-271.8561096,1008.5410156-271.440033,1006.4353027-271.440033,1004.0368042z M-264.5382996,1048.4576416
				c0-3.3774414-0.6862183-6.0206299-2.0558167-7.9296875c-1.370575-1.9089355-3.4264221-3.3520508-6.1675415-4.3319092
				c-1.6642456-0.635376-3.9535217-0.9912109-6.8650208-1.0646973c-2.9124451-0.0733643-6.8170471-0.1101074-11.7109375-0.1101074
				h-5.0661926v27.3867188h1.4684753c7.1464844,0,12.0893555-0.0479736,14.8313904-0.1468506
				c2.7411194-0.0979004,5.531189-0.758667,8.3702087-1.9824219c2.4963989-1.0759277,4.3197327-2.6544189,5.4700012-4.7357178
				C-265.1143799,1053.4626465-264.5382996,1051.1008301-264.5382996,1048.4576416z"/>
			<path d="M-193.268219,1082.4523926h-25.9916992V1053.59729h25.9916992V1082.4523926z"/>
			<path d="M-85.2142563,1007.6345215c0,5.0916138-0.8076477,9.9375-2.4229507,14.5377808
				c-1.615303,4.6011353-3.940361,8.4435425-6.975174,11.5274048c-1.8609848,1.9089355-3.9036484,3.6711426-6.130806,5.286377
				c-2.2281036,1.6153564-4.687767,2.9858398-7.3789978,4.1116943c-2.6921692,1.126709-5.6168518,2.0078125-8.7740326,2.6431885
				c-3.1571808,0.6363525-6.693718,0.9545898-10.6096039,0.9545898h-14.3908768v35.7568359h-27.460144V973.1257935h42.4384079
				c6.3143616,0,11.7589493,0.5761108,16.336586,1.7254639c4.5766907,1.1502686,8.7250824,2.9736328,12.4451752,5.4699707
				c4.1116791,2.7420654,7.293335,6.4000244,9.5449677,10.9767456
				C-86.341011,995.8756104-85.2142563,1001.3201904-85.2142563,1007.6345215z M-113.4086304,1008.2953491
				c0-3.0837402-0.73423-5.7382813-2.2026825-7.9663696c-1.4684601-2.2271729-3.2306061-3.7558594-5.2864456-4.5889282
				c-2.5952148-1.1257935-5.0784149-1.7734375-7.4524155-1.9457397c-2.3749542-0.1712646-5.5923767-0.256958-9.6551056-0.256958
				h-3.8914185v32.746582h1.9089966c2.5942688,0,5.0407562-0.0244141,7.3422852-0.0733643
				c2.3005829-0.0480957,4.3065338-0.2203369,6.0206757-0.5140381c1.4684525-0.244751,3.0216293-0.7219238,4.6623459-1.4317627
				c1.6397781-0.7087402,2.9002075-1.505127,3.7812805-2.3861694c1.8600464-1.8101807,3.1204681-3.6956177,3.7812729-5.6535645
				C-113.7390366,1014.2680054-113.4086304,1011.6248169-113.4086304,1008.2953491z"/>
			<path d="M32.6793213,1082.4523926H-0.8015011l-30.4714279-40.0888672h-9.8386631v40.0888672h-27.3133049V973.1257935h43.9802933
				c6.0677414,0,11.3560696,0.3793335,15.8593378,1.1380615c4.50421,0.7596436,8.6648388,2.3382568,12.4828272,4.7357788
				c3.9158857,2.4963989,7.0241194,5.6657715,9.3247023,9.5082397c2.3005829,3.8434448,3.4508753,8.7260742,3.4508753,14.6478882
				c0,8.3701782-1.8845205,15.1618042-5.6535606,20.3748169c-3.7690401,5.2130737-8.8107433,9.3613892-15.1251087,12.4452515
				L32.6793213,1082.4523926z M-11.5221796,1006.6066284c0-2.7411499-0.5271387-5.1029053-1.5795326-7.0853271
				s-2.8013639-3.5120239-5.2487936-4.5889282c-1.7141399-0.7341919-3.6231346-1.1992188-5.7269821-1.3950195
				c-2.1047878-0.1948242-4.7244778-0.2937012-7.856245-0.2937012h-9.1778584v29.4425659h7.8562469
				c3.8179874,0,7.0598888-0.2315674,9.7285271-0.6975098c2.6676979-0.4650269,4.9315701-1.4562378,6.7916145-2.9736328
				c1.7621489-1.3696289,3.0705824-3.0103149,3.9271822-4.9193115S-11.5221796,1009.6903687-11.5221796,1006.6066284z"/>
			<path d="M142.4220123,1027.8258057c0,17.6704102-4.723526,31.5718994-14.1706085,41.7042236
				s-22.3939667,15.1984863-38.8406906,15.1984863c-16.4956665,0-29.4425621-5.1273193-38.8406906-15.3820801
				c-9.3981247-10.2537842-14.097187-24.0939941-14.097187-41.5206299c0-17.5725098,4.6990623-31.4616699,14.097187-41.6674194
				c9.3981285-10.2058105,22.3450241-15.3087158,38.8406906-15.3087158c16.4467239,0,29.3936157,5.0784302,38.8406906,15.2352905
				C137.6984863,996.2427368,142.4220123,1010.156311,142.4220123,1027.8258057z M114.0807953,1027.7524414
				c0-6.5092773-0.6739807-12.0526733-2.0181885-16.6303101c-1.3479691-4.5766602-3.1458893-8.3334961-5.397522-11.2703857
				c-2.3495331-2.9849243-5.005928-5.1273804-7.9654388-6.4244995c-2.9632721-1.2962036-6.0338516-1.9457397-9.2155075-1.9457397
				c-3.377449,0-6.4367371,0.5996094-9.1778564,1.7988892c-2.7411194,1.2001953-5.384346,3.3406982-7.9296722,6.4244995
				c-2.2516327,2.8389893-4.074028,6.6080322-5.4709396,11.3071289c-1.3931503,4.6990356-2.0916138,10.3045654-2.0916138,16.8137817
				c0,6.7069092,0.6608047,12.2739258,1.9824219,16.7037354c1.3216095,4.4307861,3.1327057,8.1386719,5.4332886,11.1235352
				c2.3495331,3.0357666,5.0172272,5.2017822,8.0030899,6.4979248c2.9858627,1.2971191,6.0696259,1.9456787,9.2512817,1.9456787
				c3.2306061,0,6.3633118-0.6975098,9.3981247-2.0925293s5.6535645-3.5610352,7.8562469-6.4979248
				c2.3495331-3.1816406,4.1606293-6.8895264,5.4332886-11.1235352
				C113.4444656,1040.1495361,114.0807953,1034.6062012,114.0807953,1027.7524414z"/>
		</g>
		<path d="M-657.9086914,963.2794189l-284.2459717,76.1634521c-4.3956909,1.1777344-5.8679199,6.6724854-2.6500854,9.8902588
			l91.6828613,91.6828613l46.8818359-46.8818359l-24.7605591-24.760498c-0.5571899-0.557251-0.3023071-1.508667,0.4588623-1.7126465
			l101.4109497-27.1729736c0.7611694-0.2039795,1.4576416,0.4925537,1.2536621,1.2537842l-27.1729736,101.4107666
			c-0.2038574,0.7611084-1.1553345,1.0161133-1.7126465,0.4588623l-25.2764282-25.2766113l-46.881897,46.881958
			l92.1987305,92.1987305c3.2178955,3.2178955,8.7125244,1.7456055,9.8903198-2.6500244l76.1634521-284.2458496
			C-649.4907227,966.1238403-653.5130005,962.1015625-657.9086914,963.2794189z"/>
	</g>
</g>
</svg>
