<?xml version="1.0" encoding="utf-8"?>
<!-- Generator: Adobe Illustrator 19.0.1, SVG Export Plug-In . SVG Version: 6.00 Build 0)  -->
<svg version="1.1" id="Слой_1" xmlns="http://www.w3.org/2000/svg" xmlns:xlink="http://www.w3.org/1999/xlink" x="0px" y="0px"
	 viewBox="-1009 859.8049927 2000 510.3900452" style="enable-background:new -1009 859.8049927 2000 510.3900452;"
	 xml:space="preserve">
<g>
	<g>
		<path d="M-412.2328491,1270.3209229h-33.886322v-84.7158203h-34.4671936v84.7158203h-33.8862915v-108.7266846h102.2398071
			V1270.3209229z"/>
		<path d="M-276.9136047,1214.4569092c0,17.3626709-4.4052124,31.3690186-13.2156372,42.019043
			c-8.8104553,10.6499023-19.6701965,15.9749756-32.5792542,15.9749756c-5.421814,0-10.133606-0.6132813-14.135437-1.8395996
			c-4.0030518-1.2263184-8.263031-3.1304932-12.7799683-5.7122803v45.310791h-33.8862915v-148.6156006h33.8862915v11.3277588
			c4.9700012-4.2600098,10.035553-7.7131348,15.2004395-10.3594971c5.1636047-2.6463623,11.1340637-3.9696045,17.9113159-3.9696045
			c12.5863342,0,22.3314514,5.0023193,29.2390442,15.0068359
			C-280.3667603,1183.604248-276.9136047,1197.2232666-276.9136047,1214.4569092z M-311.5744324,1215.1346436
			c0-10.5854492-1.631012-18.2663574-4.8893127-23.0427246c-3.2595215-4.7763672-8.3424683-7.1645508-15.2488403-7.1645508
			c-3.0348511,0-6.0511169,0.4841309-9.0524597,1.4522705c-3.0013733,0.9682617-5.9543152,2.4205322-8.8588562,4.3568115v54.7022705
			c1.8060303,0.7745361,3.790802,1.3231201,5.9543152,1.645874c2.162262,0.3227539,4.7279358,0.4840088,7.6970215,0.4840088
			c8.2618103,0,14.3923645-2.6934814,18.3954163-8.0854492
			C-313.5753479,1234.0960693-311.5744324,1225.9782715-311.5744324,1215.1346436z"/>
		<path d="M-151.5653381,1216.0059814c0,17.8790283-4.8892975,31.9672852-14.667923,42.2597656
			c-9.7786102,10.2974854-23.6086884,15.4437256-41.486496,15.4437256c-17.7512054,0-31.5477753-5.1462402-41.3896942-15.4437256
			c-9.8431549-10.2924805-14.7647552-24.3807373-14.7647552-42.2597656c0-18.0726318,4.9216003-32.2230225,14.7647552-42.4534912
			c9.8419189-10.2303467,23.6384888-15.3468018,41.3896942-15.3468018c17.8144989,0,31.6259613,5.1486816,41.4380951,15.4411621
			C-156.4707794,1183.9443359-151.5653381,1198.0623779-151.5653381,1216.0059814z M-186.3229828,1216.199585
			c0-6.4544678-0.5325012-11.8266602-1.5975037-16.1188965s-2.5334015-7.7305908-4.4052124-10.3123779
			c-2.0009155-2.7109375-4.2599945-4.5976563-6.7772675-5.6650391c-2.5172577-1.0625-5.3895264-1.5963135-8.6167908-1.5963135
			c-3.0348816,0-5.7768097,0.4692383-8.229538,1.4025879c-2.4539642,0.9384766-4.7118073,2.7282715-6.7772522,5.3746338
			c-1.9363708,2.517334-3.4854584,5.970459-4.6472626,10.3596191c-1.1618195,4.3890381-1.7427216,9.9077148-1.7427216,16.5557861
			c0,6.6481934,0.5473938,12.0228271,1.6459045,16.1190186c1.0972595,4.1010742,2.5172577,7.3754883,4.2599792,9.8282471
			c1.8060303,2.5172119,4.0663605,4.3568115,6.7772675,5.5186768c2.710907,1.1617432,5.712265,1.7426758,9.0040741,1.7426758
			c2.710907,0,5.4702148-0.5809326,8.2779388-1.7426758c2.8077087-1.1618652,5.0494232-2.904541,6.7288513-5.2282715
			c1.9996643-2.7753906,3.5177155-6.1143799,4.5504456-10.0194092
			C-186.8405914,1228.5129395-186.3229828,1223.105957-186.3229828,1216.199585z"/>
		<path d="M-27.4769478,1270.3209229h-33.3053856v-66.0299072l-41.6317368,66.0299072h-28.3676682v-108.7266846h33.3053894v59.05896
			l38.1462822-59.05896h31.8531189V1270.3209229z"/>
		<path d="M86.8340607,1239.5327148c0,6.2609863-1.4373779,11.5859375-4.308403,15.9749756
			c-2.872261,4.3891602-6.7288437,7.9068604-11.5697479,10.5532227c-4.6472626,2.5172119-10.0206604,4.3568115-16.1201935,5.5185547
			c-6.0995331,1.1618652-12.6347466,1.7427979-19.6056404,1.7427979c-8.9072552,0-16.9431477-0.8391113-24.1076794-2.517334
			c-7.1645308-1.6781006-13.8449717-3.6467285-20.0413227-5.9058838v-26.1408691h3.5822649
			c4.8408995,2.8400879,10.2142982,5.260498,16.1201935,7.2613525c5.9058971,2.0009766,11.9235077,3.0013428,18.0565548,3.0013428
			c2.2590866,0,5.0010223-0.1612549,8.2295303-0.4840088c3.2272644-0.3227539,5.7445335-0.8713379,7.5517998-1.645874
			c2.7742081-1.09729,4.7440834-2.4354248,5.905899-4.0167236c1.1618156-1.5814209,1.7427216-3.5997314,1.7427216-6.0523682
			c0-2.7109375-0.6454506-4.855835-1.9363594-6.4396973c-1.2921448-1.5788574-3.0659027-2.7580566-5.3249893-3.5325928
			c-2.2603264-0.7745361-4.8744125-1.2412109-7.8422546-1.4025879c-2.9690857-0.161377-6.196352-0.2432861-9.6817989-0.2432861
			h-12.683157v-21.6872559h9.6817989c2.4527225,0,5.4218063-0.0496826,8.9072552-0.144043
			c3.4854469-0.0992432,6.259655-0.4368896,8.3263474-1.0178223c2.6463585-0.7099609,4.7105675-1.7253418,6.1963501-3.0484619
			c1.4845428-1.3232422,2.2268143-3.4383545,2.2268143-6.3428955c0-2.0654297-0.6293182-3.7584229-1.8879509-5.081665
			c-1.2586327-1.3231201-2.9206772-2.373291-4.9861259-3.1478271c-1.7427254-0.6453857-3.7759018-1.1295166-6.0995331-1.4522705
			s-4.7775955-0.4840088-7.3581676-0.4840088c-4.7118092,0-9.7463436,0.7745361-15.1036062,2.3236084
			c-5.3585024,1.5490723-10.2304335,3.4853516-14.6195154,5.809082h-3.5822654v-25.7536621
			c3.6790833-1.1617432,9.3752079-2.5668945,17.0883751-4.2103271c7.7119255-1.6483154,15.2153187-2.4700928,22.5101814-2.4700928
			c6.5190773,0,12.5217934,0.4841309,18.0081444,1.4522705c5.4851112,0.9681396,10.6499786,2.6785889,15.4908752,5.1313477
			c4.5169373,2.3236084,8.1649857,5.421875,10.9404373,9.2945557c2.7742081,3.8726807,4.1631699,8.6168213,4.1631699,14.2321777
			c0,5.7446289-1.8395386,10.9082031-5.5186234,15.4909668c-3.6790848,4.5826416-8.1662216,7.6809082-13.4577026,9.2945557
			v0.8713379c6.7127151,1.8718262,11.9086151,4.9873047,15.5876999,9.3416748
			C84.9945221,1227.9642334,86.8340607,1233.2718506,86.8340607,1239.5327148z"/>
		<path d="M210.2447205,1237.4996338c0,5.2281494-1.0327301,9.8753662-3.098175,13.9417725
			c-2.0666962,4.0662842-4.8408966,7.4549561-8.326355,10.1658936c-4.3903198,3.4208984-9.0202026,5.7296143-13.8933716,6.9212646
			c-4.8744202,1.1965332-10.6661224,1.7923584-17.37883,1.7923584h-59.5430603v-108.7266846h56.7353363
			c7.9390717,0,13.780426,0.2581787,17.5240631,0.7745361c3.7423859,0.5164795,7.421463,1.7750244,11.0372467,3.776001
			c3.8081665,2.0654297,6.6469269,4.8085938,8.5199738,8.2294922c1.8718262,3.4208984,2.807724,7.4873047,2.807724,12.1990967
			c0,5.4217529-1.4522705,10.1335449-4.3568115,14.135376s-6.5513458,7.067749-10.9404297,9.1977539v1.0649414
			c6.0027161,1.4846191,10.9888458,4.4710693,14.9583893,8.9544678
			C208.2599487,1224.4143066,210.2447205,1230.2705078,210.2447205,1237.4996338z M170.839798,1194.4155273
			c0-4.1954346-1.2102203-7.0999756-3.6306763-8.713501c-2.4204407-1.6136475-6.2782745-2.4205322-11.5697479-2.4205322H141.600769
			v21.6872559h14.6195221c4.710556,0,8.3263397-0.9359131,10.8436127-2.8077393
			C169.5811615,1200.2891846,170.839798,1197.7073975,170.839798,1194.4155273z M175.6806946,1236.4345703
			c0-4.711792-1.3231812-8.0185547-3.9695282-9.9250488c-2.6475983-1.9016113-6.5836334-2.8548584-11.8117981-2.8548584H141.600769
			v24.8822021h18.8795013c4.7763519,0,8.5038452-1.0799561,11.1824799-3.2446289
			C174.3401489,1243.1324463,175.6806946,1240.1782227,175.6806946,1236.4345703z"/>
		<path d="M335.6885681,1216.0059814c0,17.8790283-4.890564,31.9672852-14.666687,42.2597656
			c-9.7810974,10.2974854-23.6087036,15.4437256-41.4877625,15.4437256c-17.7511902,0-31.54776-5.1462402-41.389679-15.4437256
			c-9.8431702-10.2924805-14.76474-24.3807373-14.76474-42.2597656c0-18.0726318,4.9215698-32.2230225,14.76474-42.4534912
			c9.8419189-10.2303467,23.6384888-15.3468018,41.389679-15.3468018c17.8145142,0,31.6272278,5.1486816,41.4381104,15.4411621
			C330.7831116,1183.9443359,335.6885681,1198.0623779,335.6885681,1216.0059814z M300.9309082,1216.199585
			c0-6.4544678-0.5337524-11.8266602-1.5962524-16.1188965c-1.0675049-4.2922363-2.534668-7.7305908-4.4064636-10.3123779
			c-2.0009155-2.7109375-4.2600098-4.5976563-6.7772522-5.6650391c-2.5172729-1.0625-5.3895569-1.5963135-8.6168213-1.5963135
			c-3.0336304,0-5.7767944,0.4692383-8.2295227,1.4025879c-2.453949,0.9384766-4.7118225,2.7282715-6.7772522,5.3746338
			c-1.9363708,2.517334-3.4854431,5.970459-4.6472778,10.3596191c-1.1618042,4.3890381-1.7427063,9.9077148-1.7427063,16.5557861
			c0,6.6481934,0.5473938,12.0228271,1.6459045,16.1190186c1.0972595,4.1010742,2.5172729,7.3754883,4.2599792,9.8282471
			c1.8060303,2.5172119,4.0663452,4.3568115,6.7772522,5.5186768c2.710907,1.1617432,5.7122803,1.7426758,9.0040894,1.7426758
			c2.710907,0,5.4689636-0.5809326,8.2791748-1.7426758c2.8052368-1.1618652,5.0494385-2.904541,6.7276001-5.2282715
			c2.0009155-2.7753906,3.5177307-6.1143799,4.5504456-10.0194092
			C300.4145508,1228.5129395,300.9309082,1223.105957,300.9309082,1216.199585z"/>
		<path d="M467.5223694,1297.2363281h-30.1103821v-27.3027344h-62.9317017v27.3027344h-30.1103821v-51.3135986h7.8422546
			c4.9054565-10.1981201,8.8253174-22.6553955,11.762146-37.3717041
			c2.9367981-14.7163086,4.4064636-30.3685303,4.4064636-46.9567871h88.3948059v84.3284912h10.7467957V1297.2363281z
			 M423.0829163,1245.9227295v-60.4144287h-23.914032c-1.0972595,12.0699463-2.9517212,23.2537842-5.5682678,33.5487061
			c-2.6116028,10.2949219-5.7594299,19.2493896-9.4385376,26.8657227H423.0829163z"/>
		<path d="M540.8806152,1273.2254639c-8.9718018,0-17.1864014-1.1296387-24.638916-3.3886719
			c-7.457489-2.2590332-13.9269104-5.7445068-19.413269-10.4562988c-5.421814-4.711792-9.6495056-10.6326904-12.683136-17.767334
			c-3.0336304-7.1298828-4.5504456-15.5380859-4.5504456-25.2198486c0-10.3918457,1.6459045-19.2344971,4.9377136-26.5281982
			c3.2918091-7.2935791,7.7454224-13.2962646,13.3608704-18.0080566c5.421814-4.5181885,11.7944336-7.8571777,19.1228027-10.0219727
			c7.3234253-2.15979,14.9571533-3.2421875,22.8961792-3.2421875c6.0027466,0,12.0054321,0.6951904,18.0081787,2.0803223
			c6.0026855,1.3902588,12.0377197,3.5997314,18.1049805,6.6333008v29.0454102h-4.3568115
			c-1.3554688-1.2908936-3.0187378-2.7109375-4.9873657-4.2600098s-4.1135254-2.9689941-6.4371948-4.2600098
			c-2.4526978-1.3553467-5.2281494-2.4998779-8.326355-3.435791c-3.0981445-0.9359131-6.5513306-1.4050293-10.3594971-1.4050293
			c-8.6490479,0-15.3469238,3.0186768-20.088501,9.0512695c-4.746582,6.0374756-7.1173706,14.15271-7.1173706,24.3509521
			c0,10.9080811,2.5321655,19.0407715,7.598999,24.3980713c5.0667725,5.3572998,11.796875,8.0358887,20.1878052,8.0358887
			c4.2599487,0,8.0036011-0.4840088,11.230835-1.4522705c3.2272949-0.9681396,6.0027466-2.1300049,8.326355-3.4854736
			c2.2590942-1.3553467,4.1954346-2.7580566,5.809082-4.2127686c1.6136475-1.4498291,3.0013428-2.7580566,4.163208-3.9199219
			h4.3568115v29.0454102c-1.9364014,0.8391113-4.180603,1.807251-6.7276611,2.904541
			c-2.552002,1.09729-5.1486816,2.0009766-7.7950439,2.7109375c-3.2918091,0.9035645-6.3751221,1.5961914-9.244873,2.0827637
			C549.3832397,1272.9821777,545.5924072,1273.2254639,540.8806152,1273.2254639z"/>
		<path d="M684.1389771,1185.2178955h-33.692688v85.1030273h-33.8862915v-85.1030273h-33.692627v-23.6236572h101.2716064
			V1185.2178955z"/>
		<path d="M803.0960083,1237.4996338c0,5.2281494-1.0327148,9.8753662-3.0982056,13.9417725
			c-2.0654297,4.0662842-4.8408813,7.4549561-8.326355,10.1658936c-4.3890381,3.4208984-9.0214233,5.7296143-13.8920898,6.9212646
			c-4.8756714,1.1965332-10.6673584,1.7923584-17.3800659,1.7923584h-59.5430908v-108.7266846h56.7353516
			c7.9390869,0,13.7803955,0.2581787,17.5240479,0.7745361c3.7436523,0.5164795,7.4227295,1.7750244,11.0372314,3.776001
			c3.8081665,2.0654297,6.6481934,4.8085938,8.5200195,8.2294922s2.8076782,7.4873047,2.8076782,12.1990967
			c0,5.4217529-1.4522705,10.1335449-4.3568115,14.135376s-6.5513306,7.067749-10.9404297,9.1977539v1.0649414
			c6.0027466,1.4846191,10.9876099,4.4710693,14.9596558,8.9544678
			C801.1099854,1224.4143066,803.0960083,1230.2705078,803.0960083,1237.4996338z M763.6911011,1194.4155273
			c0-4.1954346-1.2089844-7.0999756-3.631958-8.713501c-2.4179688-1.6136475-6.2757568-2.4205322-11.5684814-2.4205322h-14.0386353
			v21.6872559h14.6195068c4.711853,0,8.326355-0.9359131,10.8436279-2.8077393S763.6911011,1197.7073975,763.6911011,1194.4155273z
			 M768.5319824,1236.4345703c0-4.711792-1.3231812-8.0185547-3.9695435-9.9250488
			c-2.6463623-1.9016113-6.5836182-2.8548584-11.8117676-2.8548584h-18.298645v24.8822021h18.8795166
			c4.7763672,0,8.5026245-1.0799561,11.1812744-3.2446289
			C767.1914063,1243.1324463,768.5319824,1240.1782227,768.5319824,1236.4345703z"/>
		<path d="M928.539856,1216.0059814c0,17.8790283-4.890564,31.9672852-14.666687,42.2597656
			c-9.7811279,10.2974854-23.6087036,15.4437256-41.487793,15.4437256c-17.749939,0-31.5477295-5.1462402-41.3884277-15.4437256
			c-9.8456421-10.2924805-14.7659912-24.3807373-14.7659912-42.2597656c0-18.0726318,4.9203491-32.2230225,14.7659912-42.4534912
			c9.8406982-10.2303467,23.6384888-15.3468018,41.3884277-15.3468018c17.8145142,0,31.6272583,5.1486816,41.4381104,15.4411621
			C923.6343994,1183.9443359,928.539856,1198.0623779,928.539856,1216.0059814z M893.7821655,1216.199585
			c0-6.4544678-0.5337524-11.8266602-1.5962524-16.1188965c-1.0674438-4.2922363-2.5346069-7.7305908-4.4064331-10.3123779
			c-2.0009155-2.7109375-4.2600098-4.5976563-6.7772827-5.6650391c-2.5172729-1.0625-5.3895264-1.5963135-8.6168213-1.5963135
			c-3.0336304,0-5.7767944,0.4692383-8.2294922,1.4025879c-2.4527588,0.9384766-4.711792,2.7282715-6.7772827,5.3746338
			c-1.9363403,2.517334-3.4854126,5.970459-4.6472778,10.3596191c-1.1618042,4.3890381-1.7426758,9.9077148-1.7426758,16.5557861
			c0,6.6481934,0.548645,12.0228271,1.645874,16.1190186c1.09729,4.1010742,2.5172729,7.3754883,4.2600098,9.8282471
			c1.807251,2.5172119,4.0663452,4.3568115,6.7772827,5.5186768c2.7108765,1.1617432,5.7122192,1.7426758,9.0040283,1.7426758
			c2.7109375,0,5.4689941-0.5809326,8.2791748-1.7426758c2.8052368-1.1618652,5.0494385-2.904541,6.7276001-5.2282715
			c2.0009155-2.7753906,3.5177612-6.1143799,4.5504761-10.0194092
			C893.2658081,1228.5129395,893.7821655,1223.105957,893.7821655,1216.199585z"/>
	</g>
	<g>
		<path d="M-458.8023071,1069.8580322c-20.5254211,0-36.2583313-4.9055176-47.198761-14.7163086
			c-10.9404602-9.8109131-16.410675-23.7850342-16.410675-41.9222412c0-17.749939,5.0978394-31.9176636,15.2972412-42.5031128
			c10.1981812-10.5853882,24.4614563-15.8781128,42.7935486-15.8781128c16.65271,0,29.1744995,4.4859009,37.5653992,13.4577026
			c8.3896484,8.9718018,12.5863342,21.8162842,12.5863342,38.5335083v12.1990967h-74.2593994
			c0.3227234,5.0345459,1.3877258,9.244873,3.1950073,12.6335449c1.8060303,3.3885498,4.1954346,6.0845947,7.1645203,8.0854492
			c2.904541,2.0009766,6.2931824,3.435791,10.1658936,4.307251c3.8727112,0.8713379,8.0991821,1.3082275,12.683136,1.3082275
			c3.9360352,0,7.8087463-0.4368896,11.6181641-1.3082275c3.808197-0.87146,7.2936401-2.0158691,10.4563599-3.435791
			c2.7742004-1.2264404,5.3398743-2.5495605,7.6970215-3.9696045c2.355896-1.4199219,4.2748718-2.6785889,5.7606812-3.7758789
			h3.5822449v27.9803467c-2.7754517,1.09729-5.3100891,2.1151123-7.6001892,3.048584
			c-2.2913818,0.9359131-5.4379578,1.8891602-9.4397583,2.8574219c-3.6791077,0.9681396-7.4711304,1.7253418-11.3761292,2.2739258
			C-448.427887,1069.5823975-453.1868591,1069.8580322-458.8023071,1069.8580322z M-447.5714417,998.5999756
			c-0.193634-7.1645508-1.8556519-12.6185913-4.9861145-16.3622437c-3.1316833-3.7436523-7.9241638-5.6154175-14.3774719-5.6154175
			c-6.5836182,0-11.7311096,1.9686279-15.4424744,5.9058838c-3.7125854,3.9372559-5.7606506,9.2944946-6.1479187,16.0717773
			H-447.5714417z"/>
		<path d="M-347.4938965,1069.5675049c-11.037262,0-20.735199-1.0649414-29.093811-3.1949463
			c-8.3598633-2.1300049-16.1202087-4.7763672-23.284729-7.9390869v-34.2735596h3.2918091
			c7.2278442,6.1318359,15.2004395,10.8436279,23.9140625,14.135376c8.7135925,3.2918701,17.1690369,4.9377441,25.3663025,4.9377441
			c2.0654602,0,4.7924805-0.2258301,8.1811218-0.6777344c3.3886108-0.4517822,6.1144104-1.1617432,8.1811218-2.1300049
			c2.5172729-1.097168,4.6472473-2.6289063,6.3899841-4.6000977c1.7427063-1.9686279,2.6140747-4.5653076,2.6140747-7.7926025
			c0-3.614502-1.4199829-6.5513306-4.2599792-8.8103638c-2.8412476-2.2590942-6.2298584-3.9050293-10.1658936-4.9377441
			c-4.9054565-1.2908936-10.151001-2.5172729-15.7329102-3.6790771c-5.5831909-1.1618042-10.7952271-2.5818481-15.6361084-4.2600098
			c-11.1676025-3.9372559-19.1699829-9.2299805-24.0108643-15.8781128
			c-4.8409119-6.6481934-7.2613525-14.9745483-7.2613525-24.9790649c0-13.4899902,5.7122498-24.4130249,17.1367798-32.7741089
			c11.42453-8.3586426,25.6890259-12.5366821,42.7935486-12.5366821c8.5832825,0,17.120636,0.8713379,25.6083679,2.6140747
			c8.4864502,1.7426758,16.0866699,4.0986328,22.8006287,7.067688v32.9181519h-3.1950073
			c-5.35849-4.5827637-11.8937073-8.4554443-19.6056213-11.6181641c-7.7131653-3.1627197-15.6361084-4.7440796-23.7688293-4.7440796
			c-3.1627197,0-6.0027161,0.2258911-8.519989,0.6776733c-2.5172424,0.4518433-5.164856,1.3231812-7.9390564,2.6141357
			c-2.2603455,1.0327148-4.2115784,2.5643921-5.8574829,4.5975952c-1.6459045,2.0331421-2.4688721,4.3096313-2.4688721,6.8269043
			c0,3.6790771,1.3070374,6.5985107,3.9211426,8.7608032c2.6140747,2.1647339,7.6635132,4.1159668,15.1520081,5.8587036
			c4.8408813,1.09729,9.5030518,2.1622925,13.9902039,3.1950073c4.4859009,1.0327148,9.2783813,2.4526978,14.3774719,4.2600098
			c10.0045166,3.614502,17.4421082,8.4703369,22.3165283,14.5698242c4.8731689,6.0995483,7.3097534,14.152832,7.3097534,24.1573486
			c0,14.3291016-5.6315613,25.8503418-16.8947449,34.5639648
			C-313.1086121,1065.2106934-328.3239441,1069.5675049-347.4938965,1069.5675049z"/>
		<path d="M-152.7271423,968.2959595c0,6.7127075-1.0650024,13.1026611-3.1950073,19.1699219
			c-2.1299896,6.0672607-5.1958923,11.1340942-9.1977081,15.2004395c-2.453949,2.5172729-5.1474762,4.8408813-8.0842896,6.9708862
			c-2.9380646,2.1300049-6.1814575,3.9372559-9.7302094,5.421814c-3.5500031,1.4845581-7.4065857,2.6463623-11.5697479,3.4854736
			c-4.1631775,0.8390503-8.8265839,1.258606-13.9902039,1.258606h-18.9763184v47.1503906h-36.2099457V922.7915039h55.9608154
			c8.3263397,0,15.5057678,0.7596436,21.5419922,2.2739868c6.0349884,1.5167847,11.5052032,3.9223633,16.4106445,7.2141724
			c5.421814,3.614502,9.6172638,8.4380493,12.5863495,14.4730225
			C-154.2129364,952.7901611-152.7271423,959.9696045-152.7271423,968.2959595z M-189.9052582,969.1672974
			c0-4.0663452-0.9681702-7.5667114-2.904541-10.5059814c-1.9363556-2.9368286-4.2599792-4.9526367-6.9708862-6.0498657
			c-3.4221497-1.4845581-6.696579-2.338562-9.8270264-2.5669556c-3.1316986-0.2258911-7.3743134-0.3375854-12.7315674-0.3375854
			h-5.1313477v43.1807861h2.5172577c3.4208984,0,6.6469269-0.0322876,9.6818085-0.0968018
			c3.0336304-0.0645752,5.6787415-0.2904663,7.9390717-0.6777344c1.9363556-0.3226929,3.984436-0.9533081,6.147934-1.8891602
			c2.1622772-0.9334717,3.8243103-1.9835815,4.9861298-3.1453857c2.4527283-2.3881836,4.1147614-4.8731689,4.9861298-7.4549561
			C-190.3409424,977.0418091-189.9052582,973.5563965-189.9052582,969.1672974z"/>
		<path d="M-15.2778826,1022.8044434c0,7.1645508-1.3554506,13.4577637-4.0663557,18.8795166
			c-2.7109032,5.421875-6.3577137,9.9077148-10.9404316,13.4577637c-5.4218082,4.2598877-11.376112,7.2935791-17.8629169,9.1008301
			s-14.7324715,2.7109375-24.7369957,2.7109375h-57.7035217V922.7915039h50.9262619
			c10.585434,0,18.6039467,0.4021606,24.059269,1.2089844c5.4540787,0.8092651,10.5680542,2.5023804,15.3456497,5.0841675
			c5.1636276,2.7754517,9.0189686,6.4868164,11.5697498,11.1340942c2.5495415,4.6472168,3.8243103,10.0045166,3.8243103,16.0717773
			c0,7.0354004-1.7588596,13.2963257-5.2765789,18.7826538c-3.5189629,5.4863892-8.3747559,9.5204468-14.571106,12.1022949
			v0.7745361c8.9072533,1.8717651,16.038271,5.6973267,21.3967743,11.4716797
			C-17.9565125,1005.1984863-15.2778826,1012.9935913-15.2778826,1022.8044434z M-61.653698,963.5518799
			c0-2.3236694-0.5970421-4.711853-1.7911301-7.1645508c-1.1953316-2.4526978-3.0497704-4.2277222-5.5670357-5.3250122
			c-2.388176-1.0327148-5.2132797-1.5986938-8.4715729-1.6955566c-3.2595367-0.0968018-8.1178131-0.1439819-14.571106-0.1439819
			h-2.5172729v30.4976807h4.5504456c6.1963577,0,10.5370255-0.0645142,13.0220184-0.1936035
			c2.483757-0.1291504,5.0494308-0.8068237,7.6970367-2.0332031c2.9045334-1.3554688,4.9041977-3.2272949,6.0027122-5.6154175
			C-62.2023315,969.4900513-61.653698,966.7145996-61.653698,963.5518799z M-52.5528069,1022.126709
			c0-4.4536133-0.9048767-7.9390259-2.7109032-10.4562988c-1.8072701-2.5172729-4.5181732-4.4213867-8.1327095-5.7122803
			c-2.1945457-0.8391113-5.2132759-1.3082886-9.0524864-1.4050903c-3.8404465-0.0968018-8.9891739-0.1439819-15.4424667-0.1439819
			h-6.6804428v36.1131592h1.9363632c9.4236145,0,15.941452-0.0645752,19.5572357-0.1937256
			c3.6145325-0.1290283,7.2936172-1.0003662,11.0372467-2.6140137c3.2918129-1.4200439,5.696125-3.5003662,7.2129402-6.2460938
			C-53.3124542,1028.7252197-52.5528069,1025.6121826-52.5528069,1022.126709z"/>
		<path d="M41.4264259,1066.9534912H7.1528587v-38.0494385h34.2735672V1066.9534912z"/>
		<path d="M183.9102325,968.2959595c0,6.7127075-1.0650024,13.1026611-3.1949921,19.1699219
			c-2.1300049,6.0672607-5.1959076,11.1340942-9.1977081,15.2004395c-2.4539642,2.5172729-5.1474915,4.8408813-8.0843048,6.9708862
			c-2.9380646,2.1300049-6.1814575,3.9372559-9.7302094,5.421814c-3.5499878,1.4845581-7.4065857,2.6463623-11.5697479,3.4854736
			c-4.1631775,0.8390503-8.8265839,1.258606-13.9902039,1.258606h-18.976326v47.1503906H72.9568176V922.7915039h55.9608002
			c8.3263397,0,15.5057678,0.7596436,21.5419922,2.2739868c6.0349884,1.5167847,11.5052032,3.9223633,16.4106445,7.2141724
			c5.421814,3.614502,9.6172638,8.4380493,12.5863495,14.4730225
			C182.4244385,952.7901611,183.9102325,959.9696045,183.9102325,968.2959595z M146.7321167,969.1672974
			c0-4.0663452-0.9681702-7.5667114-2.904541-10.5059814c-1.9363556-2.9368286-4.2599792-4.9526367-6.9708862-6.0498657
			c-3.4221497-1.4845581-6.696579-2.338562-9.8270264-2.5669556c-3.131691-0.2258911-7.3743057-0.3375854-12.7315674-0.3375854
			h-5.1313553v43.1807861h2.5172729c3.4208984,0,6.6469269-0.0322876,9.6817932-0.0968018
			c3.0336304-0.0645752,5.6787491-0.2904663,7.9390793-0.6777344c1.9363556-0.3226929,3.984436-0.9533081,6.147934-1.8891602
			c2.1622772-0.9334717,3.8243103-1.9835815,4.9861298-3.1453857c2.4527283-2.3881836,4.1147614-4.8731689,4.9861298-7.4549561
			C146.2964325,977.0418091,146.7321167,973.5563965,146.7321167,969.1672974z"/>
		<path d="M339.3676453,1066.9534912h-44.1490173l-40.1794586-52.8626709H242.065567v52.8626709h-36.0162964V922.7915039h57.9939728
			c8.0011292,0,14.9745178,0.4989624,20.9126892,1.4993896c5.9381714,1.0029907,11.42453,3.083313,16.4590454,6.2460327
			c5.1636353,3.2918091,9.2622681,7.4698486,12.2958984,12.5366821c3.0336304,5.0692749,4.5504456,11.5064697,4.5504456,19.3164063
			c0,11.0372925-2.4849854,19.9916992-7.4549866,26.8657837s-11.6181641,12.34552-19.944519,16.4118652L339.3676453,1066.9534912z
			 M281.0832214,966.9404907c0-3.614563-0.6950989-6.7301025-2.0828247-9.3441772s-3.6940002-4.6298828-6.9212646-6.0498657
			c-2.2603149-0.9682007-4.7775879-1.5813599-7.5517883-1.8395386c-2.7754517-0.2581787-6.2298584-0.3872681-10.3595276-0.3872681
			H242.065567v38.8239746h10.3595276c5.0345306,0,9.3094025-0.3053589,12.8283844-0.9210205
			c3.5177002-0.6131592,6.5029297-1.9189453,8.955658-3.9198608c2.3236389-1.807251,4.0489807-3.9695435,5.1785278-6.4868164
			S281.0832214,971.0068359,281.0832214,966.9404907z"/>
		<path d="M484.0782471,994.9208984c0,23.3008423-6.2286072,41.6317139-18.6858521,54.9925537
			c-12.4572449,13.3609619-29.5295105,20.0413818-51.2167358,20.0413818c-21.75177,0-38.8240051-6.7623291-51.2167053-20.284668
			c-12.3927002-13.5196533-18.5890503-31.7711182-18.5890503-54.7492676c0-23.171814,6.1963501-41.4877319,18.5890503-54.9454346
			s29.4649353-20.1853638,51.2167053-20.1853638c21.6872253,0,38.759491,6.6953735,51.2167358,20.088501
			C477.8496399,953.274231,484.0782471,971.6199951,484.0782471,994.9208984z M446.7065125,994.8240967
			c0-8.5845337-0.8887329-15.8930664-2.6612549-21.930542c-1.7774658-6.0349731-4.1482849-10.9876099-7.1173706-14.8603516
			c-3.098175-3.9372559-6.6009827-6.7623291-10.5035095-8.4727783c-3.9074707-1.7079468-7.9564514-2.5644531-12.151886-2.5644531
			c-4.4536438,0-8.4877014,0.7894287-12.1022644,2.3707886c-3.6145325,1.5838623-7.0999756,4.4064941-10.4563293,8.4728394
			c-2.9690857,3.7436523-5.3721619,8.713623-7.2141724,14.9099731c-1.8370667,6.1963501-2.7580872,13.586792-2.7580872,22.1713257
			c0,8.8427124,0.8713684,16.1834717,2.6141052,22.0248413c1.7427063,5.843811,4.1308899,10.7318726,7.1645203,14.6691284
			c3.098175,4.0018311,6.6159058,6.8592529,10.5531616,8.5671387c3.9372559,1.7104492,8.0036011,2.5670166,12.1990662,2.5670166
			c4.2599792,0,8.3908997-0.9210205,12.3927002-2.7606201c4.0018005-1.8394775,7.4549866-4.694458,10.3595276-8.5671387
			c3.098175-4.1954346,5.4863586-9.0859985,7.1645203-14.6691895
			C445.8674316,1011.1713867,446.7065125,1003.8604126,446.7065125,994.8240967z"/>
	</g>
	<path d="M-565.9400635,920.0635376l-374.8173218,100.4319458c-5.7962646,1.5531006-7.7376709,8.798584-3.4944458,13.041748
		l120.8963623,120.8963623l61.8201904-61.8201904l-32.6502075-32.6501465
		c-0.7347412-0.7347412-0.3986206-1.9893799,0.6050415-2.2583008l133.7242432-35.8312988
		c1.0037231-0.2689819,1.9221191,0.6495361,1.6531372,1.6532593l-35.8312988,133.7240601
		c-0.2688599,1.0036621-1.5234985,1.3399658-2.2583618,0.6051025l-33.3304443-33.3306885l-61.8201904,61.8201904
		l121.5766602,121.5767822c4.2432251,4.2432861,11.4886475,2.3018799,13.041748-3.4943848l100.4320068-374.8171997
		C-554.8398438,923.8143311-560.1437988,918.510437-565.9400635,920.0635376z"/>
</g>
</svg>
