<svg width="41" height="34" viewBox="0 0 41 34" fill="none" xmlns="http://www.w3.org/2000/svg">
<rect width="41" height="34" rx="7" fill="url(#paint0_linear_64_110)"/>
<path d="M26.7778 22.7778H15.2223C15.1044 22.7778 14.9914 22.8246 14.908 22.9079C14.8247 22.9913 14.7778 23.1043 14.7778 23.2222C14.7778 23.3401 14.8247 23.4531 14.908 23.5365C14.9914 23.6198 15.1044 23.6666 15.2223 23.6666H26.7778C26.8957 23.6666 27.0088 23.6198 27.0921 23.5365C27.1755 23.4531 27.2223 23.3401 27.2223 23.2222C27.2223 23.1043 27.1755 22.9913 27.0921 22.9079C27.0088 22.8246 26.8957 22.7778 26.7778 22.7778ZM16.9156 15.6666L20.5556 12.0355V21.2133C20.5556 21.3312 20.6024 21.4442 20.6858 21.5276C20.7691 21.6109 20.8822 21.6578 21.0001 21.6578C21.1179 21.6578 21.231 21.6109 21.3143 21.5276C21.3977 21.4442 21.4445 21.3312 21.4445 21.2133V12.0355L25.0845 15.6666C25.1695 15.7395 25.2789 15.7775 25.3907 15.7732C25.5026 15.7689 25.6087 15.7225 25.6879 15.6433C25.767 15.5642 25.8134 15.4581 25.8177 15.3462C25.822 15.2344 25.784 15.125 25.7112 15.04L21.0001 10.3333L16.2845 15.0489C16.2359 15.0884 16.1962 15.1377 16.168 15.1936C16.1398 15.2495 16.1237 15.3107 16.1208 15.3733C16.1179 15.4358 16.1283 15.4983 16.1512 15.5566C16.1741 15.6148 16.2091 15.6676 16.2539 15.7114C16.2986 15.7552 16.3521 15.7891 16.4109 15.8107C16.4696 15.8324 16.5323 15.8415 16.5948 15.8372C16.6572 15.833 16.7181 15.8156 16.7734 15.7862C16.8287 15.7568 16.8772 15.7161 16.9156 15.6666Z" fill="white"/>
<defs>
<linearGradient id="paint0_linear_64_110" x1="1.29074" y1="-1.32113e-05" x2="42.4823" y2="1.90231" gradientUnits="userSpaceOnUse">
<stop stop-color="#075055"/>
<stop offset="1" stop-color="#4AA695"/>
</linearGradient>
</defs>
</svg>
