<svg width="80" height="49" viewBox="0 0 80 49" fill="none" xmlns="http://www.w3.org/2000/svg">
<path d="M54.3375 0H43.6C42.6 0 41.6375 0.375 40.9 1.05L28.6125 12.3C28.6 12.3125 28.5875 12.3375 28.575 12.35C26.5 14.3 26.5375 17.4125 28.3125 19.35C29.9 21.0875 33.2375 21.55 35.325 19.6875C35.3375 19.675 35.3625 19.675 35.375 19.6625L45.3625 10.5125C46.175 9.775 47.45 9.825 48.1875 10.6375C48.9375 11.45 48.875 12.7125 48.0625 13.4625L44.8 16.45L63 31.225C63.3625 31.525 63.6875 31.85 63.9875 32.1875V8L57.1625 1.175C56.425 0.425 55.4 0 54.3375 0ZM68 8.025V36.0125C68 38.225 69.7875 40.0125 72 40.0125H80V8.025H68ZM74 36.0125C72.9 36.0125 72 35.1125 72 34.0125C72 32.9125 72.9 32.0125 74 32.0125C75.1 32.0125 76 32.9125 76 34.0125C76 35.1125 75.1 36.0125 74 36.0125ZM0 40H8C10.2125 40 12 38.2125 12 36V8.025H0V40ZM6 32.0125C7.1 32.0125 8 32.9125 8 34.0125C8 35.1125 7.1 36.0125 6 36.0125C4.9 36.0125 4 35.1125 4 34.0125C4 32.9 4.9 32.0125 6 32.0125ZM60.4875 34.3375L41.825 19.1875L38.075 22.625C34.3625 26.0125 28.675 25.6875 25.3625 22.075C22 18.4 22.2625 12.7125 25.9125 9.3625L36.1375 0H25.6625C24.6 0 23.5875 0.425 22.8375 1.175L16 8V35.9875H18.2875L29.6 46.225C33.025 49.0125 38.0625 48.4875 40.85 45.0625L40.875 45.0375L43.1125 46.975C45.1 48.6 48.0375 48.2875 49.65 46.3L53.575 41.475L54.25 42.025C55.9625 43.4125 58.4875 43.1625 59.875 41.4375L61.0625 39.975C62.4625 38.25 62.2 35.7375 60.4875 34.3375Z" fill="#075055"/>
</svg>
