<svg width="72" height="58" viewBox="0 0 72 58" fill="none" xmlns="http://www.w3.org/2000/svg">
<path d="M71.5556 4.55553V53.4444C71.5556 54.6232 71.0873 55.7536 70.2538 56.5871C69.4203 57.4206 68.2899 57.8889 67.1111 57.8889H4.88889C3.71015 57.8889 2.57969 57.4206 1.74619 56.5871C0.912696 55.7536 0.444443 54.6232 0.444443 53.4444V4.55553C0.444443 3.37679 0.912696 2.24633 1.74619 1.41283C2.57969 0.579336 3.71015 0.111084 4.88889 0.111084H67.1111C68.2899 0.111084 69.4203 0.579336 70.2538 1.41283C71.0873 2.24633 71.5556 3.37679 71.5556 4.55553ZM11.5556 46.7778H33.7778V15.6666H11.5556V46.7778ZM16 31.2222H29.3333V42.3333H16V31.2222ZM29.3333 26.7778H16V20.1111H29.3333V26.7778ZM38.2222 42.3333H60.4444V11.2222H38.2222V42.3333ZM42.6667 15.6666H56V26.7778H42.6667V15.6666ZM56 37.8889H42.6667V31.2222H56V37.8889Z" fill="#075055"/>
</svg>
