<svg width="102" height="98" viewBox="0 0 102 98" fill="none" xmlns="http://www.w3.org/2000/svg">
<path d="M92.7173 42.2289C89.9499 39.2305 86.5916 36.8377 82.854 35.2011C79.1163 33.5645 75.0803 32.7195 71 32.7195C66.9198 32.7195 62.8837 33.5645 59.1461 35.2011C55.4084 36.8377 52.0501 39.2305 49.2828 42.2289C48.8555 42.7013 48.6165 43.3141 48.6111 43.9511V54.2844C48.6202 54.9636 48.8963 55.6119 49.3798 56.0889C49.8633 56.5659 50.5152 56.8334 51.1944 56.8333H90.8056C91.4907 56.8333 92.1478 56.5612 92.6323 56.0767C93.1168 55.5922 93.3889 54.9351 93.3889 54.25V43.9167C93.3752 43.2916 93.1367 42.6924 92.7173 42.2289Z" fill="#FEC608"/>
<path d="M71 29.2778C77.6581 29.2778 83.0555 23.8804 83.0555 17.2223C83.0555 10.5641 77.6581 5.16669 71 5.16669C64.3419 5.16669 58.9445 10.5641 58.9445 17.2223C58.9445 23.8804 64.3419 29.2778 71 29.2778Z" fill="#FEC608"/>
<path d="M27.3333 52.7633H25.3517C22.6474 52.6656 19.9519 53.1247 17.4324 54.1121C14.9129 55.0995 12.6233 56.5941 10.7055 58.5033L10.1589 59.1411V78.0011H19.4522V67.2955L20.705 65.8833L21.2744 65.2228C24.2399 62.1762 27.9319 59.9344 32.0028 58.7083C29.9646 57.1574 28.3571 55.1109 27.3333 52.7633Z" fill="#075055"/>
<path d="M71.3856 58.435C69.4678 56.5258 67.1782 55.0312 64.6587 54.0438C62.1392 53.0564 59.4437 52.5973 56.7394 52.695C55.91 52.6974 55.0813 52.743 54.2567 52.8317C53.2136 55.0341 51.6501 56.9494 49.7011 58.4122C54.0471 59.6146 57.984 61.9767 61.09 65.2456L61.6594 65.8833L62.8894 67.2956V78.0239H71.8639V59.0728L71.3856 58.435Z" fill="#075055"/>
<path d="M25.2833 48.3217H25.9894C25.6614 45.5046 26.1556 42.6528 27.4127 40.1105C28.6697 37.5682 30.6357 35.444 33.0733 33.9945C32.1897 32.6445 30.9706 31.5472 29.5355 30.81C28.1004 30.0728 26.4984 29.7209 24.8864 29.7888C23.2744 29.8568 21.7077 30.3422 20.3397 31.1975C18.9717 32.0529 17.8492 33.2489 17.0823 34.6683C16.3154 36.0878 15.9303 37.6822 15.9646 39.2952C15.999 40.9083 16.4517 42.4847 17.2784 43.8702C18.1051 45.2558 19.2775 46.4028 20.6807 47.1991C22.0839 47.9954 23.6699 48.4136 25.2833 48.4128V48.3217Z" fill="#075055"/>
<path d="M55.6461 46.6133C55.6738 47.1368 55.6738 47.6615 55.6461 48.185C56.0832 48.2543 56.5247 48.2923 56.9672 48.2989H57.4C59.0063 48.2132 60.5631 47.7131 61.9188 46.8472C63.2744 45.9813 64.3828 44.7791 65.1359 43.3577C65.8891 41.9363 66.2613 40.3441 66.2164 38.7362C66.1716 37.1282 65.7111 35.5592 64.8799 34.182C64.0487 32.8048 62.875 31.6663 61.4732 30.8774C60.0714 30.0884 58.4891 29.6759 56.8805 29.6799C55.2719 29.6839 53.6918 30.1044 52.2939 30.9004C50.8961 31.6965 49.7282 32.8408 48.9039 34.2222C50.9655 35.5682 52.6607 37.405 53.8374 39.5676C55.0142 41.7303 55.6357 44.1512 55.6461 46.6133Z" fill="#075055"/>
<path d="M40.7039 56.8178C46.3271 56.8178 50.8856 52.2593 50.8856 46.6361C50.8856 41.013 46.3271 36.4545 40.7039 36.4545C35.0807 36.4545 30.5222 41.013 30.5222 46.6361C30.5222 52.2593 35.0807 56.8178 40.7039 56.8178Z" fill="#075055"/>
<path d="M41.2506 62.2389C38.2759 62.1188 35.3077 62.6017 32.5245 63.6586C29.7413 64.7155 27.2007 66.3245 25.0556 68.3889L24.4861 69.0266V83.445C24.495 83.9146 24.5963 84.3779 24.7843 84.8084C24.9723 85.2389 25.2432 85.6281 25.5817 85.9538C25.9201 86.2796 26.3194 86.5354 26.7567 86.7068C27.1941 86.8782 27.6609 86.9618 28.1306 86.9527H54.3022C54.7719 86.9618 55.2387 86.8782 55.676 86.7068C56.1134 86.5354 56.5127 86.2796 56.8511 85.9538C57.1895 85.6281 57.4605 85.2389 57.6485 84.8084C57.8364 84.3779 57.9378 83.9146 57.9467 83.445V69.0722L57.4 68.3889C55.2687 66.3182 52.737 64.7046 49.96 63.6471C47.183 62.5896 44.2193 62.1104 41.2506 62.2389Z" fill="#075055"/>
</svg>
