<svg width="80" height="80" viewBox="0 0 80 80" fill="none" xmlns="http://www.w3.org/2000/svg">
<path d="M39.9778 38.1556C48.3357 38.1556 55.1111 31.3801 55.1111 23.0222C55.1111 14.6643 48.3357 7.88892 39.9778 7.88892C31.6199 7.88892 24.8445 14.6643 24.8445 23.0222C24.8445 31.3801 31.6199 38.1556 39.9778 38.1556Z" fill="#075055"/>
<path d="M26.6667 59.2222C26.7128 57.9927 27.1225 56.8044 27.8439 55.8077C28.5653 54.8109 29.566 54.0504 30.7195 53.6223C31.873 53.1942 33.1276 53.1177 34.3246 53.4025C35.5216 53.6872 36.6073 54.3205 37.4444 55.2222L46.0222 64.4444L61.2222 47.4889C54.9434 43.3046 47.5446 41.1199 40 41.2222C34.7664 41.0899 29.5673 42.1056 24.7683 44.198C19.9693 46.2903 15.6869 49.4085 12.2222 53.3333C11.9291 53.724 11.7729 54.2005 11.7778 54.6889V66.6666C11.7772 67.8226 12.2271 68.9333 13.032 69.7631C13.8369 70.5929 14.9334 71.0764 16.0889 71.1111H35.1333L28.3111 63.7778C27.7474 63.1662 27.3116 62.4482 27.0292 61.6659C26.7468 60.8836 26.6236 60.0528 26.6667 59.2222Z" fill="#075055"/>
<path d="M63.9111 71.1111C65.0666 71.0764 66.1631 70.5929 66.9679 69.7631C67.7728 68.9334 68.2227 67.8227 68.2222 66.6667V58.3111L56.8222 71.1111H63.9111Z" fill="#075055"/>
<path d="M75.0444 41.3778C74.8263 41.1807 74.5713 41.0288 74.2941 40.931C74.0169 40.8332 73.723 40.7913 73.4296 40.8078C73.1361 40.8244 72.8488 40.899 72.5843 41.0273C72.3199 41.1557 72.0835 41.3352 71.8889 41.5555L46.0667 70.4444L34.5111 58.0222C34.3214 57.8004 34.0899 57.6181 33.8298 57.4858C33.5697 57.3535 33.286 57.2737 32.9951 57.251C32.7041 57.2283 32.4115 57.2631 32.134 57.3535C31.8565 57.4439 31.5996 57.5881 31.3778 57.7778C31.1695 57.9844 31.0042 58.2301 30.8914 58.5009C30.7785 58.7717 30.7205 59.0622 30.7205 59.3555C30.7205 59.6489 30.7785 59.9394 30.8914 60.2102C31.0042 60.481 31.1695 60.7267 31.3778 60.9333L46.2222 76.9333L75.2 44.4444C75.5737 44.0115 75.766 43.4511 75.7371 42.8799C75.7081 42.3087 75.46 41.7707 75.0444 41.3778Z" fill="#075055"/>
</svg>
