<svg width="92" height="79" viewBox="0 0 92 79" fill="none" xmlns="http://www.w3.org/2000/svg">
<path d="M68.5056 17.8178L46.4445 32.3V20.0767C46.4458 19.6772 46.3338 19.2855 46.1214 18.9471C45.909 18.6088 45.605 18.3376 45.2446 18.1652C44.8843 17.9927 44.4824 17.9261 44.0856 17.973C43.6889 18.0198 43.3136 18.1783 43.0034 18.43L29.7034 29.5556H21.1111V8.57113L8.44445 5.72113V29.5556H4.22223V65.4444C4.22223 66.0043 4.44465 66.5413 4.84056 66.9372C5.23647 67.3331 5.77344 67.5555 6.33334 67.5555H69.6667C70.2266 67.5555 70.7636 67.3331 71.1595 66.9372C71.5554 66.5413 71.7778 66.0043 71.7778 65.4444V19.57C71.7759 19.1898 71.6713 18.8172 71.4751 18.4916C71.2789 18.1659 70.9985 17.8993 70.6633 17.7198C70.3282 17.5403 69.9508 17.4547 69.571 17.472C69.1912 17.4892 68.8231 17.6087 68.5056 17.8178ZM29.5556 61.2222H12.6667V57H29.5556V61.2222ZM29.5556 52.7778H12.6667V48.5555H29.5556V52.7778ZM29.5556 44.3333H12.6667V40.1111H29.5556V44.3333ZM46.4445 61.2222H42.2222V54.8889H46.4445V61.2222ZM46.4445 48.5555H42.2222V42.2222H46.4445V48.5555ZM54.8889 61.2222H50.6667V54.8889H54.8889V61.2222ZM54.8889 48.5555H50.6667V42.2222H54.8889V48.5555ZM63.3334 61.2222H59.1111V54.8889H63.3334V61.2222ZM63.3334 48.5555H59.1111V42.2222H63.3334V48.5555Z" fill="#075056"/>
<path d="M70.7169 52.333L71.1899 51.8999H68.617H63.5105C62.7242 51.8999 61.9775 52.2146 61.4268 52.765C61.4268 52.765 61.4267 52.765 61.4267 52.7651C61.4265 52.7653 61.4264 52.7654 61.4262 52.7656L58.0935 56.0922L57.85 56.3352V55.8121H56.85H51H50V56.8121V72.3999V73.3999H51H54.9C56.3448 73.3999 57.545 72.3646 57.8 70.9944V71.4438H58.8H59.5298L64.759 76.1761L64.7784 76.1937L64.7988 76.2102C66.6292 77.7 69.2092 77.6452 70.9712 76.2171L71.3627 76.5562L71.3734 76.5655L71.3844 76.5744C72.7846 77.7193 74.8476 77.4974 75.9804 76.1019L75.9801 76.1022L75.2044 75.4712L75.9809 76.1012L70.7169 52.333ZM70.7169 52.333C71.1766 52.0519 71.7081 51.8999 72.255 51.8999H77.4895C78.2697 51.8999 79.0261 52.2104 79.5765 52.7682M70.7169 52.333L70.3004 52.7144L70.3003 52.7145L69.2923 53.6374L64.3104 58.1991L77.2982 74.4819M77.2982 74.4819C78.5146 75.1248 80.0629 74.8512 80.9668 73.7293L80.9654 73.731L80.1891 73.1007M77.2982 74.4819C77.1308 74.3934 76.9697 74.2875 76.8174 74.1641L76.8152 74.1623L76.4868 73.8947L64.3081 58.2012C64.2986 58.2099 64.2892 58.2187 64.2799 58.2274C64.2797 58.2276 64.2796 58.2277 64.2794 58.2279L64.9303 58.9205M77.2982 74.4819L77.8936 73.75L77.4729 73.4079C78.3072 74.0609 79.5197 73.9329 80.1891 73.1007M80.1891 73.1007L80.9683 73.7275L81.5443 73.0181L81.5444 73.0179C82.3488 72.0268 82.4072 70.6802 81.7942 69.6469M80.1891 73.1007L80.768 72.3877C81.4505 71.5468 81.3225 70.322 80.4877 69.6395L71.3897 62.2538L69.5616 63.9296M81.7942 69.6469L83.1939 71.2215V70.9666C83.4353 72.3536 84.6433 73.406 86.1 73.406H90H91V72.406V56.8121V55.8121H90H84.15H83.15V56.3418L82.901 56.0928L79.5765 52.7682M81.7942 69.6469L81.4465 69.2557C81.3309 69.1256 81.2133 69.0085 81.0888 68.9041C81.088 68.9034 81.0872 68.9027 81.0863 68.902C81.0836 68.8997 81.081 68.8975 81.0783 68.8953L72.2097 61.6957L71.9886 61.5161L71.3497 60.9975L70.7455 61.5511L68.9242 63.2197C68.9223 63.2214 68.9204 63.2231 68.9185 63.2249L69.5616 63.9296M81.7942 69.6469C81.7056 69.4975 81.6029 69.3546 81.4864 69.2202C81.3766 69.0937 81.2547 68.9748 81.1206 68.8652L81.1179 68.8631L81.1137 68.8597L81.3316 68.5913H82.1939L82.9413 67.927C82.7687 67.7328 82.5739 67.5369 82.3501 67.3517L82.3501 67.3517L82.3428 67.3457L82.1939 67.2249V56.7999L78.8667 53.4727M79.5765 52.7682C79.5776 52.7694 79.5786 52.7705 79.5797 52.7716L78.8667 53.4727M79.5765 52.7682L79.5738 52.7656L78.8667 53.4727M69.5616 63.9296L68.9169 63.2263C68.8776 63.262 68.8392 63.2913 68.804 63.3151C68.0883 63.9116 67.205 64.1252 66.395 64.0741M78.8667 53.4727C78.5072 53.1071 78.0075 52.8999 77.4895 52.8999H72.255C71.7675 52.8999 71.2983 53.0827 70.9388 53.4118L64.9486 58.8962C64.9455 58.8992 64.9425 58.9038 64.9395 58.9083C64.9364 58.9129 64.9334 58.9175 64.9303 58.9205M64.9303 58.9205L64.258 58.2482C62.935 59.5123 62.8519 61.6122 64.0953 62.9791L64.8023 62.333M64.9303 58.9205C63.9188 59.8712 63.937 61.3885 64.8023 62.333M64.8023 62.333L64.0961 62.98C64.098 62.9821 64.0999 62.9841 64.1017 62.9861C64.6398 63.5727 65.3448 63.9288 66.0849 64.0413M64.8023 62.333C65.5763 63.1801 67.2033 63.4055 68.2209 62.4976C68.224 62.4945 68.2286 62.493 68.2331 62.4915C68.2377 62.49 68.2423 62.4884 68.2453 62.4854L68.6455 62.9222L68.8898 63.1888L68.8875 63.1909C68.8872 63.1912 68.8868 63.1916 68.8865 63.1919C68.878 63.1996 68.8695 63.2073 68.861 63.2149C68.7812 63.2862 68.699 63.3531 68.6148 63.4155C68.6089 63.4179 68.6035 63.4201 68.5985 63.4221C68.587 63.4267 68.5771 63.4304 68.5698 63.433L68.5536 63.4387L68.557 63.4376L68.5767 63.4307C68.5851 63.4276 68.596 63.4236 68.6087 63.4185C68.6101 63.418 68.6115 63.4174 68.613 63.4168C67.9521 63.9057 67.1647 64.12 66.395 64.0741M66.395 64.0741C66.3777 64.073 66.3604 64.0718 66.3432 64.0705C66.257 64.0638 66.1708 64.0541 66.0849 64.0413M66.395 64.0741C66.2912 64.0679 66.1877 64.057 66.0849 64.0413M66.0849 64.0413C65.3314 63.9296 64.5945 63.5842 64.0709 63.0149" fill="#FEC608" stroke="#F8F9FA" stroke-width="2"/>
</svg>
