<?xml version="1.0" standalone="no"?>
<!DOCTYPE svg PUBLIC "-//W3C//DTD SVG 20010904//EN"
 "http://www.w3.org/TR/2001/REC-SVG-20010904/DTD/svg10.dtd">
<svg version="1.0" xmlns="http://www.w3.org/2000/svg"
 width="5790.000000pt" height="5640.000000pt" viewBox="0 0 5790.000000 5640.000000"
 preserveAspectRatio="xMidYMid meet">

<g transform="translate(0.000000,5640.000000) scale(0.100000,-0.100000)"
fill="#000000" stroke="none">
<path d="M17505 41818 c-9 -13 -29 -44 -45 -70 -26 -43 -34 -48 -65 -48 -35 0
-42 5 -89 64 -32 41 -63 31 -110 -38 -50 -73 -165 -182 -261 -246 -105 -71
-315 -171 -460 -219 -155 -51 -273 -80 -523 -131 -537 -107 -940 -248 -1235
-431 -43 -27 -80 -49 -83 -49 -2 0 -14 -9 -26 -19 -67 -56 -139 -111 -145
-112 -5 0 -46 -43 -93 -96 -47 -52 -93 -103 -102 -114 -10 -10 -18 -21 -18
-24 0 -2 -17 -31 -37 -62 -85 -133 -144 -314 -163 -498 -8 -82 -14 -103 -31
-117 -28 -24 -47 -23 -111 7 -95 44 -202 27 -310 -51 -27 -19 -51 -34 -56 -34
-13 -1 -82 -94 -107 -145 -44 -90 -58 -168 -52 -290 16 -342 245 -720 649
-1072 20 -18 39 -42 43 -53 7 -22 -11 -80 -25 -80 -17 0 -102 -86 -120 -121
-25 -48 -25 -109 -1 -157 82 -160 453 -360 831 -448 135 -31 158 -35 260 -38
117 -4 235 8 256 25 19 16 17 67 -9 184 l-22 100 -65 39 c-200 120 -412 363
-501 574 -83 199 -73 358 31 462 96 96 234 123 338 65 29 -16 83 -61 120 -100
90 -95 130 -168 255 -457 l12 -28 52 24 c57 27 83 64 83 119 0 21 -23 83 -60
160 -185 389 -221 690 -98 816 60 62 117 83 678 250 548 164 889 282 1144 398
67 30 133 59 149 65 15 5 27 14 27 19 0 5 24 21 53 35 166 84 358 222 447 321
221 247 292 656 174 1008 -32 96 -92 218 -147 300 -81 120 -231 257 -344 314
-53 27 -68 26 -88 -1z"/>
<path d="M36455 41631 c-208 -57 -345 -141 -511 -313 -140 -145 -246 -315
-314 -503 -28 -76 -33 -104 -33 -180 -1 -106 20 -173 83 -270 46 -70 170 -195
245 -245 28 -18 64 -46 81 -60 39 -34 211 -118 324 -159 115 -41 255 -77 374
-96 164 -26 268 -80 383 -197 85 -87 162 -199 221 -320 83 -170 96 -250 55
-334 -10 -22 -204 -348 -431 -726 -445 -741 -441 -735 -574 -814 -97 -56 -171
-77 -258 -72 -138 8 -204 59 -359 273 -318 439 -543 639 -697 620 -36 -4 -72
-11 -84 -15 -3 -1 -8 -2 -12 -1 -5 0 -8 -4 -8 -11 0 -6 -3 -9 -6 -5 -3 3 -12
0 -20 -6 -49 -41 -75 -67 -68 -67 5 0 4 -4 -2 -8 -16 -10 -124 -228 -117 -236
4 -3 1 -6 -6 -6 -7 0 -9 -4 -6 -10 3 -5 1 -10 -5 -10 -6 0 -8 -4 -5 -10 3 -5
1 -10 -5 -10 -6 0 -8 -4 -5 -10 3 -5 1 -10 -4 -10 -6 0 -10 -3 -9 -7 1 -5 -10
-32 -25 -60 -15 -29 -24 -53 -20 -53 5 0 3 -4 -2 -8 -32 -23 -240 -516 -308
-727 -78 -245 -81 -271 -40 -372 41 -98 56 -107 373 -223 504 -186 1061 -337
1312 -357 128 -10 193 26 285 155 72 102 556 748 682 911 79 103 126 175 165
255 106 216 226 394 346 515 87 88 136 123 217 157 184 75 481 -42 579 -231
26 -49 33 -55 60 -55 49 0 111 26 178 74 270 192 345 434 222 711 -17 39 -44
91 -59 116 -61 103 -51 223 25 310 13 15 58 52 100 84 259 190 325 450 189
741 -52 110 -112 194 -193 269 -165 153 -365 215 -645 200 -165 -9 -213 4
-285 76 -26 26 -48 55 -48 64 0 8 -5 15 -11 15 -5 0 -7 5 -4 10 3 6 -1 13 -9
16 -9 3 -14 10 -11 14 7 12 -72 56 -115 65 -42 9 -110 44 -110 57 0 5 -4 7 -8
4 -7 -4 -67 80 -67 94 0 3 -3 10 -7 16 -4 6 -5 51 -2 100 8 127 8 285 2 314
-3 14 -14 45 -23 70 -9 25 -19 55 -22 68 -3 12 -9 22 -14 22 -5 0 -9 6 -9 14
0 7 -7 19 -15 26 -9 7 -13 15 -11 17 2 3 -3 13 -12 22 -9 10 -35 37 -57 61
-55 60 -124 113 -203 157 -37 20 -70 41 -73 46 -3 5 -10 8 -15 8 -5 0 -52 14
-104 31 -84 27 -111 32 -230 35 -110 2 -148 -1 -205 -16z"/>
<path d="M13795 35704 c-837 -718 -1538 -1641 -2101 -2765 -112 -225 -136
-276 -219 -459 -660 -1471 -1110 -3254 -1334 -5295 -84 -758 -142 -1646 -156
-2365 -3 -157 -7 -391 -10 -520 -6 -258 9 -1165 25 -1539 23 -526 62 -1103 99
-1477 22 -210 35 -249 111 -325 50 -50 51 -51 45 -102 -2 -29 -7 -61 -9 -72
-2 -11 -7 -49 -11 -85 -4 -36 -8 -72 -10 -80 -1 -8 -6 -40 -9 -71 -4 -31 -8
-65 -10 -75 -2 -11 -7 -46 -10 -79 -4 -33 -9 -73 -11 -90 -7 -49 -24 -186 -30
-245 -4 -30 -8 -66 -10 -80 -2 -14 -7 -56 -11 -95 -4 -38 -8 -81 -9 -95 -2
-14 -7 -61 -12 -105 -16 -156 -9 -1545 12 -2220 13 -421 17 -558 20 -620 2
-38 7 -146 11 -240 4 -93 8 -190 9 -215 1 -25 5 -124 10 -220 4 -96 8 -195 10
-220 1 -25 6 -112 10 -195 4 -82 8 -168 10 -190 1 -22 5 -105 9 -185 9 -206
17 -370 21 -405 2 -16 6 -88 10 -160 3 -71 8 -146 10 -165 2 -19 6 -89 10
-155 3 -66 8 -136 10 -155 2 -19 7 -82 10 -140 3 -58 8 -125 10 -150 2 -25 7
-88 10 -140 3 -52 8 -115 10 -140 2 -25 7 -88 10 -140 3 -52 8 -115 10 -140 2
-25 7 -83 10 -130 3 -47 8 -107 10 -135 2 -27 7 -84 10 -125 15 -195 17 -222
30 -375 2 -33 14 -170 25 -305 11 -135 22 -270 25 -300 3 -30 7 -84 10 -120 3
-36 8 -87 10 -115 4 -42 40 -442 60 -660 6 -74 13 -144 19 -210 3 -27 24 -239
46 -470 179 -1858 396 -3732 696 -6015 76 -579 146 -1055 161 -1084 43 -85
106 -136 195 -155 152 -34 705 -34 833 0 54 15 118 82 133 140 7 31 8 101 2
234 -20 411 -25 805 -25 1910 0 1009 8 1892 20 2125 2 41 7 197 10 345 3 149
8 315 10 370 2 55 7 192 10 305 3 113 8 252 10 310 2 58 7 179 10 270 3 91 7
217 10 280 3 63 7 180 10 260 3 80 8 192 10 250 3 58 7 161 10 230 5 118 8
191 20 450 3 60 7 159 10 220 3 60 7 161 10 222 3 62 7 156 10 208 3 52 7 147
10 210 3 63 7 153 10 200 3 47 7 135 10 195 3 61 7 148 10 195 9 170 15 267
20 370 3 58 7 143 10 190 3 47 7 132 10 190 3 58 7 137 10 175 2 39 7 117 10
175 3 58 7 137 10 175 2 39 7 117 10 175 3 58 8 134 10 170 3 36 7 112 10 170
3 58 8 130 10 160 2 30 7 107 10 170 3 63 8 135 10 160 2 25 7 97 10 160 3 63
8 135 10 160 2 25 7 95 10 155 3 61 8 117 10 125 2 8 7 82 10 165 4 82 8 156
10 165 1 8 6 74 10 145 4 72 8 144 10 160 2 17 6 82 10 145 3 63 8 131 10 150
2 19 7 78 11 130 6 96 9 108 20 97 4 -3 42 -145 85 -314 655 -2562 2408
-10324 2744 -12155 19 -106 41 -209 47 -228 28 -88 114 -175 207 -211 94 -36
375 -28 696 22 239 37 389 70 452 99 77 35 147 104 180 177 37 79 36 82 -47
993 -28 304 -78 845 -91 975 -5 61 -19 200 -29 310 -248 2621 -600 5890 -940
8715 -21 179 -42 352 -45 385 -11 94 -33 268 -38 290 -3 11 -8 52 -12 90 -4
39 -9 78 -11 88 -2 10 -6 45 -9 78 -4 33 -8 69 -10 79 -2 10 -6 45 -9 77 -4
32 -9 75 -12 96 -8 54 -12 84 -19 157 -3 36 -8 72 -10 80 -2 8 -7 47 -10 85
-4 39 -8 77 -10 85 -3 8 -7 40 -11 70 -3 30 -7 66 -9 80 -2 14 -6 54 -10 90
-4 36 -8 72 -10 80 -3 8 -7 40 -10 70 -3 30 -10 89 -16 130 -6 41 -13 93 -15
115 -4 35 -49 391 -59 470 -3 17 -7 48 -9 70 -14 106 -46 364 -51 400 -31 229
-97 739 -100 770 -3 23 -14 108 -25 190 -12 83 -23 166 -25 185 -9 83 -161
1208 -225 1669 -22 156 -40 294 -40 305 0 12 13 29 30 41 44 28 87 98 100 160
9 42 8 67 -5 126 -75 339 -98 494 -114 749 -8 137 -7 547 3 630 3 25 8 83 11
130 18 260 68 611 141 985 117 598 241 1089 659 2605 177 640 375 1407 449
1735 20 88 40 167 45 176 8 13 -2 22 -52 45 -33 16 -64 28 -69 26 -4 -1 -8 2
-8 7 0 10 -30 23 -41 18 -3 -1 -13 6 -23 16 -10 9 -23 17 -31 17 -7 0 -15 5
-17 10 -2 6 -13 12 -25 13 -12 0 -19 5 -17 9 5 7 -1 9 -21 8 -3 -1 -13 6 -22
15 -8 9 -23 13 -31 10 -9 -3 -13 -3 -9 1 10 10 -72 56 -86 47 -5 -3 -7 -1 -4
4 7 11 -50 40 -66 35 -5 -1 -6 1 -3 6 3 5 -10 16 -29 25 -127 61 -667 402
-910 575 -150 107 -325 242 -325 252 0 9 129 196 203 295 150 198 324 403 551
650 135 146 639 649 797 795 56 52 119 110 138 128 20 19 55 50 78 69 24 19
40 39 37 44 -3 5 -1 8 4 7 10 -3 147 113 259 220 13 12 28 22 34 22 10 0 41
-30 98 -96 19 -21 39 -38 44 -36 5 1 6 -2 3 -7 -4 -5 2 -16 12 -23 9 -7 42
-41 72 -75 29 -34 57 -60 62 -57 5 3 7 1 6 -4 -4 -12 462 -478 474 -474 5 1 7
-1 4 -6 -6 -10 44 -58 56 -54 5 1 7 -2 5 -7 -1 -5 12 -21 28 -35 101 -90 173
-156 205 -188 20 -21 40 -38 45 -38 4 0 25 -19 46 -42 22 -24 39 -40 39 -36 0
4 13 -6 29 -22 15 -17 31 -30 35 -30 4 0 20 -12 35 -28 15 -15 45 -41 66 -57
20 -17 50 -41 65 -55 50 -45 80 -70 86 -70 2 0 15 -10 28 -22 48 -47 100 -82
125 -85 14 -2 73 -10 131 -18 377 -53 795 -74 1133 -57 133 7 296 19 362 26
66 8 145 18 176 22 80 9 83 13 63 65 -10 24 -24 50 -30 57 -7 6 -16 21 -19 32
-3 11 -11 20 -16 20 -5 0 -9 8 -9 17 0 23 -22 83 -31 83 -4 0 -12 14 -19 30
-7 17 -16 30 -21 30 -5 0 -9 8 -9 17 0 23 -22 83 -31 83 -4 0 -12 14 -19 30
-7 17 -16 30 -21 30 -5 0 -9 8 -9 17 0 23 -22 83 -31 83 -4 0 -12 14 -19 30
-7 17 -16 30 -21 30 -5 0 -9 8 -9 17 0 23 -22 83 -31 83 -4 0 -12 14 -19 30
-7 17 -16 30 -21 30 -5 0 -9 8 -9 17 0 23 -22 83 -31 83 -4 0 -12 14 -19 30
-7 17 -16 30 -21 30 -5 0 -9 8 -9 17 0 23 -22 83 -31 83 -4 0 -12 14 -19 30
-7 17 -16 30 -21 30 -5 0 -9 8 -9 18 0 20 -59 135 -72 140 -4 2 -8 11 -8 21 0
19 -59 134 -72 139 -4 2 -8 11 -8 21 0 19 -59 134 -72 139 -4 2 -8 11 -8 21 0
19 -59 134 -72 139 -4 2 -8 11 -8 21 0 19 -59 134 -72 139 -4 2 -8 12 -8 21 0
10 -13 42 -30 72 -34 62 -36 69 -15 69 8 0 15 -9 15 -20 0 -11 7 -20 15 -20 8
0 15 8 15 19 0 13 9 20 30 25 47 9 36 20 -42 40 -40 10 -152 44 -248 76 -661
219 -1266 602 -1833 1160 -172 169 -194 194 -244 284 -142 253 -298 453 -547
701 -188 187 -321 301 -613 523 -153 116 -173 129 -185 114 -11 -13 -11 -15 2
-7 8 4 4 -4 -10 -20 -14 -16 -18 -24 -10 -20 11 6 10 3 -3 -12 -9 -11 -14 -23
-10 -26 3 -4 1 -7 -6 -7 -7 0 -9 -4 -6 -10 3 -5 1 -10 -5 -10 -6 0 -8 -4 -5
-10 3 -5 1 -10 -4 -10 -6 0 -11 -3 -10 -7 2 -16 -14 -53 -23 -53 -5 0 -6 -4
-3 -10 3 -5 1 -10 -4 -10 -6 0 -11 -3 -10 -7 2 -16 -14 -53 -23 -53 -5 0 -7
-4 -3 -9 3 -5 -1 -15 -8 -23 -7 -7 -14 -17 -14 -21 0 -5 -12 -34 -26 -65 -22
-47 -32 -58 -52 -60 -15 -1 -24 2 -21 7 4 5 -4 7 -16 3 -14 -3 -19 -1 -14 6 5
8 2 10 -8 6 -9 -3 -16 -2 -16 4 0 5 -6 9 -12 9 -29 -2 -107 26 -101 36 3 6 1
7 -6 3 -6 -4 -19 -2 -28 6 -9 7 -17 12 -17 10 -2 -7 -56 10 -56 18 0 4 -6 8
-12 7 -35 -1 -49 4 -42 15 4 7 3 8 -4 4 -6 -4 -19 -2 -29 3 -10 5 -43 19 -73
32 -30 12 -68 28 -85 35 -16 6 -34 13 -40 15 -5 1 -31 13 -56 26 -26 13 -52
23 -59 23 -6 0 -42 18 -80 40 -37 22 -110 60 -162 84 -178 86 -424 242 -599
382 -150 119 -325 298 -375 383 -10 17 -21 31 -24 31 -3 0 -50 -39 -105 -86z"/>
<path d="M38870 35716 c0 -2 14 -30 30 -61 33 -62 36 -96 18 -159 -17 -56 -67
-102 -181 -165 -252 -139 -556 -230 -922 -278 -195 -25 -769 -25 -995 0 -296
33 -408 55 -487 93 -111 54 -158 115 -233 302 -18 45 -36 84 -40 87 -4 2 -88
-11 -186 -29 -338 -64 -671 -142 -929 -218 -77 -22 -148 -43 -157 -45 -9 -3
-65 -64 -125 -136 -102 -125 -400 -471 -469 -547 -18 -19 -41 -45 -52 -57 -32
-37 -192 -212 -272 -297 -41 -44 -111 -119 -155 -166 -44 -47 -219 -226 -390
-398 -1380 -1395 -2773 -2510 -4118 -3297 -126 -74 -173 -106 -175 -122 -10
-67 179 -752 308 -1118 84 -239 283 -721 308 -747 13 -13 575 97 908 177 1527
368 2873 1010 3989 1900 77 61 164 133 194 158 48 41 81 58 81 42 0 -16 146
-460 230 -700 118 -337 118 -336 510 -1390 172 -462 323 -869 335 -905 13 -36
53 -146 90 -245 926 -2499 1378 -3888 1694 -5200 67 -278 141 -602 141 -616 0
-5 -9 -9 -19 -9 -18 0 -17 -5 9 -111 20 -77 25 -111 17 -114 -7 -2 -82 -12
-167 -24 -614 -81 -734 -101 -797 -132 -133 -64 -208 -179 -223 -341 -27 -274
6 -902 81 -1528 62 -522 186 -1304 221 -1399 22 -59 106 -152 164 -182 21 -11
34 -27 38 -45 3 -16 89 -549 191 -1184 102 -635 195 -1209 206 -1275 11 -66
23 -136 25 -155 9 -72 29 -158 56 -240 24 -77 117 -270 129 -270 5 0 8 -3 7
-7 -4 -13 52 -82 133 -165 42 -43 75 -79 73 -81 -3 -3 205 -142 214 -142 4 0
31 -13 60 -27 28 -15 52 -25 52 -21 0 3 11 -2 24 -10 13 -9 35 -18 48 -21 12
-2 45 -11 73 -20 27 -8 51 -13 54 -11 2 3 10 0 18 -7 25 -21 385 -15 505 8 28
5 42 7 145 19 57 6 61 5 57 -12 -4 -14 40 -379 81 -678 2 -16 9 -70 15 -120 6
-49 13 -103 15 -120 5 -30 130 -1094 140 -1190 19 -170 45 -419 50 -470 3 -33
8 -71 10 -85 2 -14 7 -56 10 -95 3 -38 8 -86 10 -105 5 -35 40 -393 50 -505 3
-33 8 -76 10 -95 2 -19 7 -69 10 -110 4 -41 8 -86 10 -100 2 -14 6 -63 10
-110 4 -47 8 -96 10 -110 2 -14 6 -63 10 -110 4 -47 8 -96 10 -110 2 -14 6
-63 10 -110 3 -47 8 -101 10 -120 2 -19 7 -69 10 -110 3 -41 8 -95 10 -120 2
-25 7 -79 10 -120 3 -41 8 -95 10 -120 2 -25 7 -79 10 -120 3 -41 8 -100 10
-130 10 -124 15 -179 20 -255 3 -44 8 -105 10 -135 3 -30 7 -95 10 -145 4 -49
8 -106 10 -125 2 -19 7 -84 10 -145 4 -60 8 -121 10 -135 2 -14 7 -83 10 -155
4 -71 9 -137 10 -145 2 -8 6 -78 10 -155 4 -77 9 -147 10 -155 2 -8 6 -82 10
-165 3 -82 8 -161 10 -175 2 -14 7 -90 10 -170 4 -80 8 -161 10 -180 2 -19 6
-105 10 -190 4 -85 8 -171 10 -190 2 -19 6 -114 10 -210 4 -96 8 -191 10 -210
2 -19 6 -120 10 -225 3 -104 8 -210 10 -235 2 -25 7 -146 11 -270 3 -124 8
-245 9 -270 1 -25 6 -173 10 -330 4 -157 9 -312 10 -345 5 -98 18 -913 19
-1138 l1 -207 45 -15 c81 -26 287 -73 412 -94 331 -55 640 -55 918 0 121 24
329 92 341 111 5 7 9 47 9 88 1 41 3 98 5 125 2 28 6 122 10 210 3 88 8 201
10 250 6 128 14 344 20 535 3 91 7 210 10 265 2 55 7 186 10 290 3 105 8 226
10 270 2 44 7 184 10 310 3 127 8 262 10 300 2 39 7 192 11 340 3 149 7 297 9
330 1 33 6 206 10 385 4 179 8 352 10 385 1 33 6 236 10 450 4 215 9 410 11
435 17 264 27 4579 12 5095 -4 132 -12 398 -18 590 -6 193 -15 451 -20 575 -4
124 -5 228 -2 231 4 4 57 12 117 18 106 11 157 16 220 25 17 3 59 8 94 11 35
4 129 15 210 25 80 11 173 22 206 25 33 3 159 18 281 33 140 18 221 24 221 17
0 -5 51 -113 113 -240 62 -126 137 -282 167 -345 215 -447 321 -670 443 -930
37 -80 91 -194 120 -255 29 -60 92 -195 140 -300 48 -104 105 -226 125 -270
321 -687 1049 -2302 1414 -3135 40 -91 97 -219 126 -285 179 -404 938 -2157
1000 -2310 18 -44 96 -231 175 -415 223 -524 624 -1474 817 -1938 l176 -422
56 5 c31 2 124 9 206 15 470 34 923 128 1185 247 91 41 200 113 200 131 0 33
-575 2013 -800 2757 -43 143 -145 478 -225 745 -224 743 -472 1552 -645 2105
-45 143 -101 325 -126 405 -55 176 -84 267 -162 515 -184 578 -275 865 -317
995 -26 80 -69 213 -95 295 -224 697 -777 2358 -959 2877 l-48 138 31 5 c25 4
222 29 486 61 25 3 79 9 120 15 41 5 101 12 132 15 68 7 299 39 348 49 19 4
64 18 100 31 246 93 436 307 512 579 22 79 23 90 22 610 -1 931 -62 1767 -182
2512 l-28 173 28 27 c37 35 75 114 87 178 25 133 -100 886 -245 1485 -136 555
-392 1378 -465 1491 -40 64 -111 120 -186 150 -54 22 -70 23 -253 21 -342 -4
-873 -39 -1610 -107 -206 -19 -382 -35 -391 -35 -16 0 -39 64 -56 153 -10 54
-137 98 -340 117 -59 5 -118 10 -130 10 -24 0 -29 12 -38 85 -4 28 -8 61 -10
75 -2 14 -7 52 -11 85 -3 33 -8 67 -9 75 -2 8 -6 44 -10 80 -4 36 -9 74 -11
85 -2 11 -7 43 -10 70 -3 28 -7 61 -9 75 -2 14 -6 52 -10 85 -4 33 -8 63 -8
67 -1 3 23 19 53 35 40 21 63 42 85 78 l30 49 -1 190 c-1 352 -64 567 -202
700 -38 36 -40 37 -47 17 -3 -11 -3 -26 1 -32 4 -7 3 -9 -3 -6 -5 3 -25 -29
-43 -71 -113 -262 -321 -664 -473 -917 -47 -77 -84 -141 -83 -141 0 -1 55 7
120 18 65 10 122 15 126 11 4 -4 19 -109 35 -233 15 -124 29 -234 31 -245 1
-11 5 -42 9 -70 3 -27 10 -79 15 -115 16 -113 26 -102 -112 -134 -234 -54
-288 -79 -324 -147 -13 -26 -44 -41 -44 -21 0 4 -48 90 -106 192 -59 102 -116
202 -128 222 -11 21 -23 38 -26 38 -3 0 -43 -32 -90 -71 -274 -227 -596 -376
-903 -418 -175 -24 -416 -8 -601 39 -220 57 -575 214 -696 308 -63 49 -110
111 -110 146 0 9 -6 16 -12 16 -22 1 54 38 117 59 222 71 429 168 553 261 134
99 251 239 252 301 0 30 -59 105 -117 148 -32 24 -111 74 -175 112 -64 38
-152 97 -195 130 -83 66 -268 247 -260 256 3 3 -19 43 -50 89 -33 51 -57 100
-60 123 -7 49 17 95 60 117 56 29 91 20 197 -50 137 -91 288 -168 322 -163 15
2 25 0 23 -3 -4 -6 92 -41 125 -45 8 -1 22 -5 30 -8 42 -18 159 -25 282 -16
73 5 180 11 238 15 58 3 155 9 215 15 61 5 138 11 172 13 67 4 179 48 168 66
-3 5 0 7 8 4 17 -6 101 82 92 96 -4 6 -1 9 5 8 6 -2 20 20 31 47 11 28 24 59
29 70 21 41 28 253 25 665 -2 234 -6 441 -9 460 -2 19 -8 89 -11 155 -4 66 -8
127 -10 135 -1 8 -6 56 -9 105 -4 50 -9 104 -11 120 -5 32 -10 83 -20 180 -27
262 -142 942 -191 1130 -3 13 -2 16 3 8 7 -10 18 -10 44 -2 83 25 301 70 432
90 191 30 594 33 762 6 318 -50 558 -140 800 -302 61 -40 145 -105 187 -144
90 -84 79 -97 103 129 34 330 39 456 39 865 0 450 -11 642 -60 1025 -126 999
-427 1993 -913 3012 -23 48 -73 181 -111 296 -283 858 -677 1568 -1189 2142
-296 333 -665 638 -974 805 -161 87 -791 241 -1387 340 -361 59 -860 115
-1160 130 -69 3 -140 8 -157 11 -18 3 -33 3 -33 0z m3510 -11420 c0 -2 -7 -7
-16 -10 -8 -3 -12 -2 -9 4 6 10 25 14 25 6z m-1623 -472 c20 -20 24 -32 19
-56 -8 -42 -27 -53 -110 -68 -148 -26 -392 -95 -606 -171 -145 -52 -400 -154
-464 -186 -80 -41 -144 -120 -161 -199 -12 -54 -13 -189 -3 -259 16 -114 15
-135 -11 -156 -57 -47 -103 -7 -119 104 -15 95 -15 256 -2 326 21 110 95 220
190 281 101 65 592 252 865 329 110 31 324 79 358 80 10 1 29 -11 44 -25z
m-1540 -861 c-2 -16 -4 -3 -4 27 0 30 2 43 4 28 2 -16 2 -40 0 -55z m7753
-995 c11 -24 20 -53 20 -65 0 -48 -43 -38 -60 13 -11 32 -14 34 -60 34 -51 0
-75 16 -64 44 5 13 21 16 76 16 l69 0 19 -42z m-564 7 c12 -31 -18 -42 -122
-48 -108 -5 -128 -1 -122 29 3 20 34 26 176 32 50 2 63 0 68 -13z m-652 -38
c18 -13 13 -47 -8 -47 -6 0 -53 -5 -104 -10 -104 -10 -122 -7 -122 20 0 26 5
28 106 36 49 3 91 8 93 10 7 7 17 4 35 -9z m-635 -60 c24 -29 -9 -45 -114 -55
-112 -10 -125 -8 -125 19 0 24 7 27 100 38 111 13 126 12 139 -2z m-635 -72
c2 -7 -1 -19 -9 -25 -15 -13 -198 -35 -220 -26 -12 4 -22 43 -12 47 12 5 215
24 224 21 6 -2 14 -10 17 -17z m-648 -59 c35 -27 0 -44 -114 -57 -112 -13
-138 -6 -116 29 8 13 35 20 105 28 52 6 97 12 100 13 3 0 14 -5 25 -13z m-630
-81 c2 -5 0 -16 -4 -22 -9 -14 -120 -32 -194 -33 -42 0 -48 3 -48 20 0 11 7
23 15 26 50 20 226 26 231 9z m-646 -70 c23 -28 -5 -42 -116 -55 -114 -13
-140 -7 -118 28 8 12 35 20 95 28 118 16 125 16 139 -1z m-3405 -65 c-3 -5
-12 -10 -18 -10 -7 0 -6 4 3 10 19 12 23 12 15 0z m2772 -16 c10 -28 -20 -41
-121 -53 -87 -10 -102 -10 -115 4 -25 25 5 43 89 53 117 15 140 14 147 -4z
m5200 -26 c17 -22 66 -196 60 -212 -4 -9 -15 -16 -25 -16 -15 0 -25 21 -51
106 -18 58 -30 112 -27 120 7 17 30 18 43 2z m-5840 -54 c10 -28 -20 -41 -121
-53 -87 -10 -102 -10 -115 4 -24 24 0 39 87 51 114 17 142 16 149 -2z m-639
-91 c4 -26 -3 -28 -127 -43 -77 -10 -96 -10 -107 2 -25 25 1 41 88 54 115 17
142 14 146 -13z m-643 -83 c0 -28 -21 -34 -147 -46 -68 -6 -78 -4 -84 10 -11
28 9 37 108 51 117 16 123 15 123 -15z m-632 -73 c3 -8 2 -19 -3 -26 -8 -13
-205 -45 -227 -37 -22 9 -15 45 10 51 105 25 213 30 220 12z m-643 -82 c25
-30 4 -41 -104 -56 -61 -9 -112 -12 -121 -7 -19 12 -19 37 0 45 13 4 157 28
201 32 6 1 17 -6 24 -14z m-632 -102 c4 -25 1 -26 -115 -43 -95 -13 -120 -13
-126 3 -10 28 13 41 95 53 116 17 142 14 146 -13z m-640 -90 c4 -25 2 -26
-130 -43 -48 -7 -92 -9 -97 -5 -9 5 -16 43 -8 46 26 8 171 27 197 26 28 -2 36
-6 38 -24z m9849 -45 c15 -20 56 -196 49 -213 -3 -8 -14 -15 -24 -15 -16 0
-24 19 -46 105 -15 58 -25 112 -22 120 7 18 30 19 43 3z m-10283 -216 c2 -4 6
-56 7 -115 3 -110 -4 -136 -35 -124 -13 5 -16 26 -16 120 0 63 3 117 7 120 9
9 31 9 37 -1z m10440 -419 c16 -55 38 -194 33 -207 -9 -23 -36 -19 -47 7 -15
36 -42 187 -36 203 8 20 44 18 50 -3z m-10416 -226 c6 -7 14 -60 18 -119 6
-96 5 -108 -10 -114 -10 -4 -22 -2 -28 4 -17 17 -32 211 -17 228 14 17 23 18
37 1z m10539 -467 c21 -136 14 -185 -25 -161 -13 8 -46 217 -36 232 3 6 16 9
27 7 19 -3 24 -13 34 -78z m-10480 -168 c12 -7 43 -208 35 -230 -5 -15 -38
-16 -47 -2 -14 22 -33 215 -23 228 12 14 18 15 35 4z m10190 -178 c9 -24 -15
-39 -108 -68 -110 -33 -131 -34 -127 -3 2 18 19 27 98 54 110 36 128 39 137
17z m-612 -209 c0 -16 -17 -26 -90 -52 -112 -40 -145 -42 -145 -10 0 20 12 27
93 54 105 36 142 38 142 8z m-612 -188 c9 -25 -7 -35 -104 -66 -117 -38 -129
-38 -129 -7 0 22 9 28 88 54 98 33 137 38 145 19z m-8875 -69 c5 -7 17 -58 26
-113 13 -82 13 -102 3 -113 -30 -29 -44 -3 -62 108 -9 60 -14 114 -10 120 9
14 30 13 43 -2z m10483 -180 c16 -107 12 -138 -16 -138 -21 0 -26 14 -40 122
-15 112 -12 130 19 126 19 -3 23 -14 37 -110z m-2221 38 c0 -19 -14 -26 -98
-54 -54 -18 -105 -32 -114 -32 -18 0 -33 29 -20 42 14 14 206 75 220 70 6 -2
12 -14 12 -26z m-3420 -111 c17 11 0 -38 -20 -61 -15 -15 -18 -24 -10 -29 8
-5 9 -10 1 -18 -7 -7 -7 -14 0 -24 7 -7 8 -13 4 -13 -4 0 -2 -6 4 -14 9 -10 8
-16 -4 -26 -12 -10 -13 -16 -3 -28 7 -9 8 -13 2 -9 -7 4 -11 -6 -11 -29 0 -20
-8 -43 -19 -57 -21 -23 -27 -69 -9 -64 5 1 8 9 6 17 -1 8 1 12 5 7 4 -4 9 -22
10 -40 1 -17 3 -36 3 -41 1 -5 4 -6 8 -2 11 10 12 87 2 80 -5 -3 -8 0 -7 8 2
7 -4 12 -12 10 -10 -3 -8 4 8 20 12 14 19 28 15 33 -5 4 -2 5 5 1 7 -4 10 -11
7 -16 -3 -5 -1 -11 4 -15 5 -3 7 -15 4 -28 -9 -40 -8 -97 2 -97 6 0 11 18 11
40 1 22 3 42 4 45 7 13 5 31 -3 43 -5 6 -6 12 -2 12 4 0 1 7 -6 16 -17 20 -20
42 -8 50 6 4 6 11 -1 19 -8 10 -8 15 1 21 7 4 9 3 5 -4 -3 -6 -2 -14 4 -17 7
-4 8 -11 1 -18 -13 -17 -12 -29 6 -49 9 -10 13 -18 8 -18 -4 0 -3 -6 2 -12 8
-12 10 -30 3 -43 -7 -14 -5 -92 2 -102 5 -6 4 -14 -2 -18 -8 -5 -8 -11 1 -21
10 -13 16 -11 38 8 l26 23 -24 -27 c-14 -16 -21 -28 -16 -28 5 0 4 -5 -3 -12
-8 -8 -8 -15 -1 -24 7 -8 6 -14 -2 -20 -7 -4 -9 -3 -5 4 3 6 2 14 -4 17 -8 5
-8 11 -1 19 8 9 3 20 -18 40 -23 22 -30 25 -40 13 -9 -11 -8 -17 4 -27 11 -9
12 -16 5 -25 -7 -9 -7 -15 -1 -19 5 -4 8 -15 6 -26 -2 -11 0 -22 6 -25 5 -4
10 -1 10 4 1 6 2 17 3 24 1 6 -2 17 -6 24 -5 6 -4 14 2 18 8 5 6 14 -7 28
l-18 22 22 -19 c17 -14 20 -22 12 -32 -6 -8 -7 -14 0 -18 5 -4 8 -16 5 -29 -3
-12 -6 -28 -8 -35 -1 -7 -8 -18 -16 -25 -12 -10 -12 -9 -2 4 10 13 9 19 -1 28
-14 11 -27 6 -27 -11 0 -5 4 -7 9 -4 4 3 6 -6 3 -21 -4 -20 -2 -24 9 -18 8 5
11 5 7 0 -4 -4 -3 -17 3 -28 8 -14 8 -18 0 -13 -6 4 -11 3 -11 -3 0 -17 17
-21 29 -7 8 10 9 16 2 21 -12 7 -10 32 5 59 10 16 12 16 17 2 4 -9 2 -15 -2
-13 -5 1 -9 -2 -10 -8 -1 -5 3 -10 8 -10 5 0 13 -3 17 -8 12 -12 45 24 34 38
-7 8 -3 18 13 31 l22 19 -18 -22 c-13 -15 -15 -23 -7 -28 8 -5 5 -14 -10 -30
-12 -13 -17 -25 -12 -29 13 -8 10 -30 -7 -50 -7 -9 -10 -16 -5 -16 4 0 3 -5
-4 -12 -9 -9 -9 -15 0 -25 9 -11 8 -13 -1 -11 -8 2 -15 -8 -17 -22 -4 -24 -3
-24 11 -6 8 11 15 15 15 9 0 -7 -5 -15 -11 -18 -7 -5 -4 -14 7 -26 9 -10 14
-19 10 -19 -4 0 -4 -6 1 -12 10 -17 11 -70 1 -84 -5 -7 -2 -17 7 -24 10 -9 12
-17 5 -30 -5 -9 -6 -21 -2 -25 4 -5 2 -5 -4 -2 -6 4 -19 -2 -28 -12 -15 -16
-15 -20 -1 -31 8 -7 13 -16 10 -20 -3 -4 2 -13 10 -20 13 -11 15 -9 12 8 -2
11 -9 27 -16 36 -7 9 -12 16 -10 17 31 6 40 5 50 -7 6 -8 8 -14 4 -14 -4 0 -3
-6 2 -12 8 -12 10 -30 3 -43 -7 -14 -5 -31 4 -44 6 -8 11 -21 11 -30 0 -23 15
-42 26 -35 5 3 6 11 2 17 -11 18 -12 36 -3 42 5 3 7 14 5 25 -2 12 0 18 5 15
7 -4 7 -34 0 -42 -6 -8 -5 -29 2 -39 5 -6 0 -18 -12 -29 -11 -10 -17 -22 -14
-26 9 -15 -3 -10 -16 7 -8 8 -9 14 -3 12 6 -2 11 2 11 7 0 6 -3 9 -7 8 -5 -1
-7 10 -6 25 1 15 -4 34 -11 42 -14 17 -16 30 -5 45 10 14 8 35 -4 35 -5 0 -10
-6 -11 -13 0 -6 -2 -15 -4 -19 -7 -20 -5 -34 5 -48 7 -8 11 -32 10 -53 -1 -21
4 -42 12 -48 8 -7 10 -17 5 -28 -11 -23 -9 -81 3 -81 6 0 10 18 10 39 0 22 2
42 6 45 8 9 4 -78 -5 -92 -12 -20 -33 3 -31 35 1 16 -5 36 -13 46 -8 9 -12 17
-7 17 4 0 1 7 -6 17 -8 9 -14 23 -14 32 0 9 -4 21 -8 27 -4 7 -1 17 7 23 10 9
13 3 11 -29 -1 -23 4 -45 11 -51 8 -6 12 -15 9 -19 -3 -5 -1 -11 4 -14 14 -9
21 21 7 33 -7 6 -12 28 -11 51 2 49 -15 68 -38 42 -18 -20 -17 -73 2 -96 7 -9
10 -16 6 -16 -4 0 -1 -7 6 -17 8 -9 14 -28 14 -43 0 -16 9 -37 19 -49 l19 -21
26 22 c24 22 24 21 -2 -8 -15 -17 -24 -34 -20 -39 5 -4 2 -5 -5 -1 -7 4 -10
11 -7 15 2 5 -4 16 -14 25 -15 14 -20 14 -29 3 -7 -8 -8 -18 -4 -22 4 -5 0 -4
-8 1 -8 5 -19 9 -25 9 -5 0 -11 7 -11 15 -4 39 -7 43 -14 20 l-8 -25 -1 25
c-1 16 -4 21 -9 13 -6 -9 -13 -4 -26 17 -9 17 -21 30 -26 30 -5 0 -6 7 -3 17
4 9 2 14 -3 10 -6 -3 -11 2 -12 11 -3 31 -7 47 -15 60 -5 6 -6 16 -2 21 3 5 1
12 -4 16 -6 3 -7 13 -4 22 4 10 2 14 -4 10 -10 -6 -13 6 -14 55 -1 15 -5 25
-10 23 -4 -3 -6 4 -4 15 2 11 -1 20 -6 20 -6 0 -7 5 -4 10 3 6 3 16 -2 23 -8
13 -11 27 -15 65 -1 12 -6 22 -11 22 -4 0 -5 5 -2 10 3 6 3 16 -2 23 -4 6 -9
21 -11 32 -1 11 -8 38 -14 60 -7 22 -12 48 -11 58 0 9 -3 17 -8 17 -4 0 -6 12
-3 26 3 15 1 23 -5 20 -6 -4 -8 4 -5 20 3 16 1 23 -6 19 -6 -4 -8 6 -4 27 4
26 3 30 -5 18 -9 -12 -11 -9 -7 13 3 15 1 27 -3 27 -4 0 -8 6 -9 13 -2 23 -8
46 -14 53 -4 3 -4 17 -2 31 3 13 1 22 -4 19 -4 -2 -9 3 -10 12 -3 29 -7 47
-13 57 -4 6 -5 18 -4 28 2 9 0 17 -4 17 -4 0 -8 6 -8 13 -1 6 -4 36 -8 66 -5
35 -3 68 6 95 15 49 77 138 90 130 5 -3 9 1 9 8 0 11 2 10 9 0 6 -10 10 -8 14
8 3 12 10 19 16 16 5 -4 12 -2 16 4 4 6 11 8 16 5 5 -4 9 -1 9 6 0 7 3 9 6 6
4 -4 3 -12 -3 -19 -5 -7 -6 -26 -2 -43 6 -25 7 -26 9 -7 1 12 4 27 5 32 1 6 3
18 4 28 2 14 4 13 11 -5 5 -13 12 -23 15 -23 4 0 4 10 0 23 -5 19 -5 20 5 4 7
-11 8 -23 3 -30 -5 -7 -8 -18 -7 -24 1 -7 2 -18 3 -24 0 -5 5 -8 10 -5 5 4 8
14 6 24 -1 9 2 25 6 34 6 10 5 19 -1 23 -5 3 -10 12 -9 18 0 8 2 8 6 -1 4 -10
8 -10 19 -2 16 14 30 7 45 -23 7 -12 8 -19 4 -15 -12 11 -35 -11 -28 -28 3 -7
9 -11 14 -8 5 3 6 10 3 16 -4 7 -2 8 4 4 6 -3 16 2 21 13 8 14 7 22 -4 31 -8
7 -15 18 -15 24 0 6 5 3 11 -7 6 -9 14 -15 19 -12z m37 5 c-2 -11 -6 -22 -9
-26 -4 -3 -5 2 -3 13 2 10 4 21 4 26 1 4 3 7 6 7 3 0 4 -9 2 -20z m48 -30 c-8
-9 -12 -20 -8 -25 5 -4 2 -5 -5 -1 -11 7 -10 11 2 25 13 14 13 20 3 31 -10 12
-9 12 6 1 16 -13 16 -16 2 -31z m-30 0 c-12 -13 -13 -20 -5 -25 8 -5 6 -14 -8
-29 -11 -12 -18 -33 -17 -49 1 -15 -2 -30 -7 -33 -4 -3 -5 -11 -1 -17 11 -18
12 -38 2 -31 -5 3 -7 9 -4 14 3 5 1 12 -5 15 -7 4 -7 11 -2 18 5 7 8 29 7 49
-1 20 2 35 6 33 4 -3 12 2 18 9 9 10 9 16 1 21 -8 5 -7 12 4 24 9 10 13 21 9
26 -5 4 -2 5 5 1 11 -6 10 -12 -3 -26z m82 3 c0 -9 -4 -10 -14 -2 -7 6 -13 12
-13 14 0 1 6 2 13 2 8 0 14 -6 14 -14z m-31 -18 c-1 -8 -5 -17 -8 -21 -5 -4
-4 16 1 34 3 9 9 -1 7 -13z m51 -2 c-4 -3 -1 -13 6 -22 11 -14 10 -14 -5 -2
-16 12 -16 31 -1 31 4 0 3 -3 0 -7z m-156 -26 c-6 -8 -7 -18 -3 -22 4 -5 1 -5
-6 -1 -10 6 -10 11 -1 22 6 8 14 14 16 14 3 0 0 -6 -6 -13z m2797 4 c8 -5 12
-17 10 -27 -2 -14 -28 -27 -98 -51 -110 -37 -126 -39 -134 -16 -10 25 6 35
107 69 110 38 99 36 115 25z m-2718 -4 c0 -2 -10 -12 -22 -23 l-23 -19 19 23
c18 21 26 27 26 19z m25 -16 c3 -5 2 -12 -3 -15 -5 -3 -9 1 -9 9 0 17 3 19 12
6z m30 -10 c3 -5 2 -12 -3 -15 -5 -3 -9 1 -9 9 0 17 3 19 12 6z m-138 -26 c0
-8 -4 -12 -9 -9 -5 3 -6 10 -3 15 9 13 12 11 12 -6z m59 -20 c1 -8 -5 -20 -14
-27 -15 -11 -15 -11 -6 2 6 8 10 23 8 33 -1 11 0 16 4 13 3 -4 7 -13 8 -21z
m30 10 c-1 -8 -5 -17 -8 -21 -5 -4 -4 16 1 34 3 9 9 -1 7 -13z m41 -30 c0 -8
-4 -12 -9 -9 -5 3 -6 10 -3 15 9 13 12 11 12 -6z m-32 -4 c-3 -5 0 -13 5 -16
8 -5 7 -12 -3 -23 -8 -10 -13 -29 -12 -44 1 -15 -1 -25 -5 -23 -11 7 -6 51 8
68 9 10 10 17 2 22 -10 6 -5 25 6 25 3 0 3 -4 -1 -9z m-25 -5 c0 -2 -8 -10
-17 -17 -16 -13 -17 -12 -4 4 13 16 21 21 21 13z m-16 -73 c-1 -15 -3 -29 -4
-30 -7 -8 -5 -29 2 -40 6 -7 4 -14 -4 -19 -7 -4 -10 -4 -6 1 4 4 3 14 -3 22
-6 7 -8 13 -4 13 4 0 1 7 -6 16 -16 19 -20 42 -9 49 4 2 7 -3 6 -13 0 -9 4
-18 9 -19 6 -2 10 10 9 27 0 16 2 27 6 25 4 -2 6 -17 4 -32z m62 22 c-1 -8 -5
-17 -8 -21 -5 -4 -4 16 1 34 3 9 9 -1 7 -13z m2072 -44 c8 -5 12 -16 10 -26
-2 -13 -32 -28 -106 -53 -107 -35 -132 -36 -132 -2 0 11 1 20 3 20 1 0 47 16
102 34 117 40 107 38 123 27z m-2112 -37 c1 -9 0 -13 -4 -10 -3 4 -7 14 -8 22
-1 9 0 13 4 10 3 -4 7 -14 8 -22z m29 -18 c0 -25 -3 -47 -6 -50 -4 -4 -4 82 0
92 5 10 7 -5 6 -42z m-29 -31 c-1 -13 -4 -27 -7 -30 -5 -4 -4 41 0 53 4 10 8
-2 7 -23z m-31 -42 c-1 -27 2 -53 7 -59 5 -7 1 -17 -9 -25 -16 -13 -17 -12 -5
3 7 9 9 19 4 21 -9 6 -9 107 1 107 2 0 2 -21 2 -47z m-4607 1 c23 -5 31 -37
11 -49 -6 -4 -60 -4 -120 0 -104 7 -109 8 -109 29 0 13 3 26 7 30 7 7 165 0
211 -10z m4638 -40 c0 -13 -2 -22 -5 -19 -3 3 -6 17 -7 31 0 13 2 22 5 19 3
-3 6 -17 7 -31z m49 2 c0 -19 -3 -37 -6 -40 -4 -5 -4 62 0 72 4 10 7 -4 6 -32z
m71 19 c-1 -8 -5 -17 -8 -21 -5 -4 -4 16 1 34 3 9 9 -1 7 -13z m-4106 -30 c14
-9 12 -45 -2 -46 -32 -3 -128 0 -175 6 -54 7 -77 30 -50 50 15 11 207 2 227
-10z m4065 -4 c3 -5 2 -12 -3 -15 -5 -3 -9 1 -9 9 0 17 3 19 12 6z m51 -6 c-1
-8 -5 -17 -8 -21 -5 -4 -4 16 1 34 3 9 9 -1 7 -13z m5493 -28 c5 -13 11 -68
13 -123 3 -96 2 -99 -19 -102 -13 -2 -23 -2 -24 0 -1 2 -6 56 -13 120 -8 81
-9 119 -1 122 23 10 36 5 44 -17z m-8966 -7 c5 -4 7 -16 5 -26 -3 -17 -13 -19
-88 -17 -47 1 -99 2 -116 2 -34 1 -51 30 -30 51 12 13 214 4 229 -10z m3405
-2 c2 -23 7 -43 17 -58 8 -13 7 -13 -8 -1 -10 8 -15 16 -13 19 3 2 1 12 -4 22
-5 10 -6 20 -3 24 9 8 10 8 11 -6z m-58 -13 c-7 -8 -9 -15 -4 -15 4 0 3 -5 -4
-12 -8 -8 -8 -15 -2 -23 7 -9 5 -17 -7 -26 -16 -13 -17 -12 -5 3 9 11 10 18 2
23 -8 5 -8 11 1 21 6 8 8 14 4 14 -4 0 -2 7 5 15 7 8 15 15 17 15 3 0 0 -7 -7
-15z m125 6 c3 -5 2 -12 -3 -15 -5 -3 -9 1 -9 9 0 17 3 19 12 6z m-2868 -27
c42 -5 57 -21 44 -43 -8 -12 -23 -12 -194 -7 -31 1 -39 5 -44 25 -3 13 -1 26
7 31 12 7 101 5 187 -6z m2840 1 c0 -8 -4 -12 -9 -9 -5 3 -6 10 -3 15 9 13 12
11 12 -6z m28 -49 c-1 -51 -11 -52 -11 -1 0 24 3 42 6 40 4 -2 6 -20 5 -39z
m-98 9 c0 -8 -4 -12 -9 -9 -5 3 -6 10 -3 15 9 13 12 11 12 -6z m29 -10 c1 -8
-1 -17 -5 -19 -4 -3 -7 6 -7 19 0 25 8 25 12 0z m-2117 -10 c12 -12 12 -17 1
-30 -10 -13 -29 -14 -109 -10 -53 4 -104 8 -113 11 -18 5 -24 34 -10 48 12 14
215 -3 231 -19z m2053 -18 c-16 -17 -19 -26 -11 -34 8 -8 8 -13 0 -18 -6 -3
-11 -3 -10 2 1 4 0 11 -1 16 -1 4 -3 13 -4 20 -1 6 -8 11 -15 9 -7 -1 -10 2
-6 8 5 8 11 8 20 0 9 -7 16 -6 25 5 7 8 15 15 18 15 3 0 -4 -10 -16 -23z m81
1 c-4 -7 -8 -29 -8 -49 0 -20 -6 -43 -14 -52 -7 -10 -10 -17 -6 -17 4 0 2 -6
-4 -14 -9 -10 -8 -16 4 -26 13 -11 14 -15 1 -29 -7 -9 -12 -24 -11 -33 2 -10
-1 -21 -6 -24 -6 -3 -5 -11 2 -20 6 -8 8 -14 4 -14 -4 0 -1 -7 6 -16 14 -18
20 -62 9 -69 -4 -2 -6 8 -5 23 1 15 -5 35 -13 45 -8 9 -11 17 -7 17 4 0 0 9
-11 21 -10 12 -19 29 -19 38 0 9 -4 21 -8 28 -4 6 -3 15 3 18 6 4 10 3 9 -2
-1 -4 0 -11 1 -15 1 -5 3 -17 4 -28 1 -25 21 -27 21 -2 0 11 6 26 13 34 10 13
9 18 -3 28 -12 10 -13 16 -4 26 6 8 8 14 4 14 -4 0 -1 7 6 17 8 9 14 32 14 52
0 34 10 61 21 61 3 0 2 -6 -3 -12z m-1515 -14 c23 -4 32 -10 32 -24 0 -33 -24
-37 -160 -26 -84 7 -112 23 -85 50 14 14 31 15 98 11 45 -3 97 -8 115 -11z
m1479 -9 c0 -8 -4 -12 -9 -9 -5 3 -6 10 -3 15 9 13 12 11 12 -6z m-862 -33
c41 -6 51 -11 53 -28 4 -30 -13 -34 -128 -25 -103 8 -127 18 -117 45 7 17 94
21 192 8z m865 5 c0 -2 -10 -12 -22 -23 l-23 -19 19 23 c18 21 26 27 26 19z
m55 -16 c3 -5 2 -12 -3 -15 -5 -3 -9 1 -9 9 0 17 3 19 12 6z m-55 -15 c0 -2
-8 -10 -17 -17 -16 -13 -17 -12 -4 4 13 16 21 21 21 13z m35 -33 c-2 -10 -4
-20 -5 -23 -1 -3 -2 -9 -1 -13 1 -5 -3 -6 -9 -2 -6 3 -7 12 -3 18 4 7 8 15 9
20 3 14 4 17 8 17 2 0 3 -8 1 -17z m42 -28 c0 -8 -4 -12 -9 -9 -5 3 -6 10 -3
15 9 13 12 11 12 -6z m-92 -24 c3 -5 2 -12 -3 -15 -5 -3 -9 1 -9 9 0 17 3 19
12 6z m76 -14 c-6 -8 -8 -16 -5 -19 3 -3 1 -9 -4 -12 -6 -3 -9 0 -8 6 2 16 15
38 23 38 3 0 0 -6 -6 -13z m33 4 c3 -5 -2 -15 -12 -22 -15 -12 -16 -12 -5 2 7
9 10 19 6 22 -3 4 -4 7 0 7 3 0 8 -4 11 -9z m-68 -26 c-1 -8 -5 -17 -8 -21 -5
-4 -4 16 1 34 3 9 9 -1 7 -13z m75 -8 c-6 -8 -8 -16 -5 -19 3 -3 1 -9 -4 -12
-6 -3 -9 0 -8 6 2 16 15 38 23 38 3 0 0 -6 -6 -13z m-35 -19 c-1 -7 -4 -17 -7
-23 -4 -5 -5 -18 -3 -28 1 -11 -1 -16 -4 -12 -4 4 -7 10 -7 13 0 4 -4 13 -8
20 -6 8 -4 11 4 10 7 -2 14 3 15 10 2 19 4 22 8 22 2 0 3 -6 2 -12z m-49 -15
c-4 -3 -2 -12 4 -20 6 -7 8 -13 4 -13 -4 0 -1 -8 6 -17 13 -16 12 -17 -3 -4
-10 7 -16 17 -13 21 3 5 1 11 -5 15 -10 6 -5 25 7 25 4 0 3 -3 0 -7z m94 -6
c-6 -8 -7 -18 -3 -22 4 -5 1 -5 -6 -1 -10 6 -10 11 -1 22 6 8 14 14 16 14 3 0
0 -6 -6 -13z m-150 -14 c13 -16 12 -17 -3 -4 -17 13 -22 21 -14 21 2 0 10 -8
17 -17z m124 -22 c3 -5 2 -12 -3 -15 -5 -3 -9 1 -9 9 0 17 3 19 12 6z m-100
-55 c0 -19 -4 -38 -8 -42 -4 -4 -1 -14 6 -23 11 -14 10 -14 -5 -2 -10 7 -15
18 -11 25 12 17 10 69 -1 86 -9 13 -8 13 5 3 9 -7 15 -27 14 -47z m129 45 c3
-5 -2 -15 -12 -22 -15 -12 -16 -12 -5 2 7 9 10 19 6 22 -3 4 -4 7 0 7 3 0 8
-4 11 -9z m-69 -49 c-2 -9 -4 -18 -5 -19 -6 -7 -6 -29 -1 -38 9 -16 8 -29 -2
-42 -5 -7 -6 -13 -2 -13 5 0 1 -8 -7 -17 -15 -19 -17 -31 -5 -50 4 -6 2 -15
-5 -19 -7 -4 -10 -4 -6 1 4 4 3 14 -3 22 -6 7 -8 13 -4 13 5 0 0 9 -10 20 -21
24 -27 47 -15 55 5 3 7 -3 5 -14 -5 -28 19 -46 35 -26 7 8 9 15 5 15 -4 0 -3
6 2 13 8 10 10 32 3 40 -7 8 -7 38 0 42 5 3 7 14 5 25 -2 12 0 18 5 15 4 -3 7
-13 5 -23z m76 15 c-6 -8 -7 -18 -3 -22 4 -5 1 -5 -6 -1 -10 6 -10 11 -1 22 6
8 14 14 16 14 3 0 0 -6 -6 -13z m24 -16 c3 -5 2 -12 -3 -15 -5 -3 -9 1 -9 9 0
17 3 19 12 6z m-80 -30 c3 -5 2 -12 -3 -15 -5 -3 -9 1 -9 9 0 17 3 19 12 6z
m-56 -8 c-1 -5 0 -10 1 -13 7 -19 7 -41 0 -45 -5 -3 -7 3 -5 15 2 11 -1 22 -6
25 -5 4 -7 11 -4 16 7 11 15 12 14 2z m67 -28 c-1 -8 -5 -17 -8 -21 -5 -4 -4
16 1 34 3 9 9 -1 7 -13z m44 10 c0 -2 -6 -8 -13 -14 -10 -8 -14 -7 -14 2 0 8
6 14 14 14 7 0 13 -1 13 -2z m10 -19 c0 -2 -8 -10 -17 -17 -16 -13 -17 -12 -4
4 13 16 21 21 21 13z m-40 -19 c0 -2 -15 -16 -32 -33 -18 -16 -25 -20 -15 -8
9 11 14 24 10 29 -5 4 -3 5 4 1 6 -3 14 -2 18 4 6 9 15 14 15 7z m41 -10 c-6
-8 -7 -18 -3 -22 4 -5 1 -5 -6 -1 -10 6 -10 11 -1 22 6 8 14 14 16 14 3 0 0
-6 -6 -13z m-49 -30 c-12 -13 -19 -27 -15 -32 5 -4 2 -5 -5 -1 -11 6 -8 13 9
32 12 13 25 24 27 24 3 0 -4 -10 -16 -23z m73 14 c3 -5 2 -12 -3 -15 -5 -3 -9
1 -9 9 0 17 3 19 12 6z m-45 -15 c0 -2 -8 -10 -17 -17 -16 -13 -17 -12 -4 4
13 16 21 21 21 13z m17 -13 c-4 -3 -2 -12 3 -18 7 -9 5 -17 -7 -26 -16 -13
-17 -12 -5 3 9 11 10 18 2 23 -10 6 -5 25 7 25 4 0 3 -3 0 -7z m5490 -11 c9
-5 13 -45 15 -122 l3 -115 -25 0 c-25 0 -25 1 -32 105 -9 135 -2 158 39 132z
m-5518 -29 c-6 -7 -8 -13 -4 -13 5 0 1 -8 -7 -17 -9 -10 -14 -26 -13 -36 2 -9
0 -15 -5 -12 -10 6 -7 29 7 46 6 8 9 21 8 30 -2 9 3 16 11 16 10 0 11 -4 3
-14z m46 -20 c-2 -10 -4 -20 -5 -23 -1 -3 -2 -9 -1 -13 1 -5 -3 -6 -9 -2 -6 3
-7 12 -3 18 4 7 8 15 9 20 3 14 4 17 8 17 2 0 3 -8 1 -17z m-129 -27 c0 -14
-3 -23 -7 -20 -6 3 -6 22 0 42 3 10 7 -2 7 -22z m97 12 c-4 -7 -8 -21 -9 -30
-1 -10 -3 -20 -4 -23 -1 -3 -3 -18 -4 -34 0 -16 -4 -32 -7 -35 -5 -5 -4 66 1
72 1 1 3 10 4 20 1 18 14 42 22 42 3 0 2 -6 -3 -12z m-4764 -60 c22 -131 24
-175 9 -181 -8 -3 -21 -2 -28 3 -14 8 -51 206 -43 227 3 7 15 13 28 13 20 0
24 -7 34 -62z m4807 17 c-1 -8 -5 -17 -8 -21 -5 -4 -4 16 1 34 3 9 9 -1 7 -13z
m-90 -31 c1 -9 0 -13 -4 -10 -3 4 -7 14 -8 22 -1 9 0 13 4 10 3 -4 7 -14 8
-22z m-8 -41 c-9 -11 -14 -36 -13 -66 0 -27 -2 -50 -5 -52 -3 -2 -6 20 -5 49
0 46 16 86 33 86 3 0 -2 -8 -10 -17z m83 -7 c-6 -7 -7 -17 -3 -21 4 -5 1 -5
-6 -1 -9 6 -10 11 -3 20 6 7 7 17 3 21 -4 5 -1 5 6 1 9 -6 10 -11 3 -20z m-65
-40 c-2 -38 -12 -39 -12 -1 0 18 3 32 7 30 3 -3 5 -15 5 -29z m89 25 c3 -5 2
-12 -3 -15 -5 -3 -9 1 -9 9 0 17 3 19 12 6z m-60 -30 c3 -5 2 -12 -3 -15 -5
-3 -9 1 -9 9 0 17 3 19 12 6z m32 -6 c0 -8 -4 -12 -9 -9 -5 3 -6 10 -3 15 9
13 12 11 12 -6z m-65 -58 c-5 -7 -8 -20 -7 -29 2 -10 0 -16 -5 -15 -4 1 -8 -2
-8 -8 0 -5 5 -9 11 -7 6 2 5 -4 -3 -12 -14 -18 -21 -21 -17 -7 1 5 -2 8 -8 8
-5 -1 -9 -6 -7 -10 1 -5 -2 -5 -9 -2 -7 5 -1 17 17 36 15 16 24 29 20 29 -5 0
-3 6 3 13 6 8 7 18 3 22 -4 5 -1 5 6 1 8 -5 10 -12 4 -19z m74 -11 c0 -14 -3
-23 -7 -20 -6 3 -6 22 0 42 3 10 7 -2 7 -22z m-50 -11 c-1 -8 -5 -17 -8 -21
-5 -4 -4 16 1 34 3 9 9 -1 7 -13z m79 -24 c3 -5 2 -12 -3 -15 -5 -3 -9 1 -9 9
0 17 3 19 12 6z m-210 -10 c3 -5 2 -12 -3 -15 -5 -3 -9 1 -9 9 0 17 3 19 12 6z
m150 0 c3 -5 2 -12 -3 -15 -5 -3 -9 1 -9 9 0 17 3 19 12 6z m32 -6 c0 -8 -4
-12 -9 -9 -5 3 -6 10 -3 15 9 13 12 11 12 -6z m5505 -393 c3 -118 2 -128 -16
-135 -28 -11 -34 11 -37 121 -3 88 0 115 10 122 32 19 40 0 43 -108z m-10218
42 c9 -8 16 -27 17 -42 0 -15 2 -36 5 -47 2 -11 7 -46 10 -77 6 -49 4 -59 -10
-64 -28 -11 -37 8 -53 113 -20 123 -11 159 31 117z m10218 -611 c4 -54 -20
-185 -37 -202 -13 -14 -17 -14 -30 0 -13 13 -14 24 -6 60 6 24 11 67 11 96 0
67 7 83 35 83 20 0 24 -6 27 -37z m-10107 -35 c14 -66 32 -194 28 -204 -6 -16
-27 -24 -41 -15 -13 8 -46 206 -38 227 9 23 45 17 51 -8z m9855 -529 c0 -22
-34 -55 -118 -111 -54 -36 -76 -39 -85 -14 -7 17 1 26 53 61 25 17 59 42 75
57 37 34 75 37 75 7z m-9762 -91 c5 -7 17 -60 27 -116 18 -108 14 -127 -21
-120 -15 3 -22 23 -37 117 -16 95 -17 115 -6 122 19 12 25 11 37 -3z m9178
-131 c3 -11 2 -23 -3 -28 -12 -12 -205 -34 -226 -26 -26 10 -20 36 9 47 14 6
58 13 97 16 40 3 74 7 75 9 11 10 43 -2 48 -18z m-637 -76 c16 -28 -2 -37 -98
-50 -115 -15 -140 -14 -148 6 -10 27 29 45 109 50 40 2 75 6 77 9 12 11 51 2
60 -15z m-641 -88 c4 -26 -3 -28 -126 -43 -72 -9 -96 -9 -107 0 -30 25 -1 44
87 56 116 16 142 14 146 -13z m-638 -78 c0 -28 -4 -30 -135 -45 -81 -9 -91 -8
-103 7 -10 14 -10 20 1 30 12 13 115 29 195 32 38 1 42 -1 42 -24z m-637 -68
c3 -8 2 -19 -2 -25 -7 -12 -219 -44 -233 -36 -14 9 -9 44 7 50 24 9 115 21
171 23 35 1 54 -3 57 -12z m-643 -73 c19 -18 0 -41 -38 -47 -20 -4 -74 -9
-119 -13 l-83 -7 0 25 c0 29 20 38 82 38 20 0 39 3 41 8 8 11 105 8 117 -4z
m-636 -80 c4 -9 2 -22 -4 -29 -12 -14 -201 -41 -225 -31 -12 4 -22 43 -12 47
8 3 187 27 208 28 16 1 29 -5 33 -15z m-5119 -47 c16 -23 44 -58 61 -77 42
-48 48 -67 23 -80 -16 -9 -24 -6 -50 22 -63 70 -115 144 -111 161 7 32 45 19
77 -26z m4482 -33 c11 -28 -20 -41 -126 -53 -109 -13 -128 -9 -117 27 5 16 21
21 89 29 127 15 147 15 154 -3z m-639 -91 c4 -24 4 -24 -142 -43 -85 -11 -114
-2 -101 32 7 18 115 37 195 34 38 -1 45 -4 48 -23z m-638 -73 c0 -27 -11 -31
-122 -44 -83 -10 -103 -10 -114 1 -21 22 -5 42 39 48 94 14 173 21 185 17 6
-2 12 -12 12 -22z m-640 -79 c-7 -29 -30 -36 -157 -47 l-83 -7 0 26 c0 28 0
28 130 46 36 5 77 8 91 8 23 -1 25 -4 19 -26z m-640 -67 c22 -26 -7 -41 -106
-53 -130 -16 -134 -15 -134 14 0 27 5 30 110 44 98 13 116 12 130 -5z m-1373
-50 c94 -28 116 -45 89 -72 -13 -13 -27 -11 -116 17 -56 18 -104 39 -107 47
-9 23 5 47 25 41 9 -4 58 -18 109 -33z m738 -32 c10 -28 -18 -39 -124 -51
-108 -12 -126 -8 -119 25 2 15 16 21 63 27 33 4 78 11 100 15 49 10 72 5 80
-16z"/>
<path d="M41969 18478 c-1 -6 -9 -39 -13 -55 -4 -21 12 -45 25 -37 5 3 8 1 7
-4 -3 -9 2 -12 18 -12 3 0 -4 12 -15 27 -20 24 -20 27 -5 44 16 17 12 39 -7
39 -5 0 -9 -1 -10 -2z"/>
<path d="M41857 18453 c-3 -5 -3 -19 -2 -33 1 -14 -3 -31 -9 -39 -9 -12 -8
-13 3 -6 10 6 12 4 6 -6 -7 -12 -6 -12 7 -1 12 10 14 21 8 47 -4 19 -5 36 -2
39 3 4 3 6 -1 6 -3 0 -8 -3 -10 -7z"/>
<path d="M41827 18432 c-3 -15 -11 -20 -25 -17 -14 2 -26 -5 -38 -23 -10 -15
-17 -29 -15 -30 1 -2 -5 -9 -15 -16 -9 -7 -14 -18 -10 -24 3 -6 2 -14 -4 -17
-8 -5 -8 -11 0 -20 7 -8 7 -15 1 -19 -5 -3 -11 -1 -13 6 -3 7 -5 -5 -5 -27 -1
-31 1 -35 6 -15 4 14 10 20 13 14 4 -6 1 -22 -6 -36 -10 -20 -11 -33 -2 -59 6
-19 11 -41 11 -49 -1 -8 3 -21 8 -27 5 -7 6 -13 2 -13 -4 0 -2 -7 5 -15 7 -8
9 -15 5 -15 -4 0 -2 -7 5 -15 6 -8 8 -20 4 -26 -4 -8 -3 -9 4 -5 7 4 12 1 12
-6 0 -9 3 -9 10 2 8 13 10 13 10 -1 0 -24 -11 -30 -29 -16 -14 11 -14 10 -2
-5 7 -10 11 -18 7 -18 -4 0 0 -13 9 -30 9 -16 13 -30 9 -30 -4 0 -2 -6 4 -13
6 -7 13 -28 15 -47 2 -19 7 -42 11 -51 4 -9 8 -32 9 -52 1 -19 6 -33 11 -29 5
3 6 -2 3 -12 -4 -9 -3 -15 1 -12 5 3 9 -12 10 -32 2 -45 5 -63 15 -78 4 -7 10
-29 13 -50 8 -49 9 -55 18 -76 4 -9 8 -22 10 -30 1 -7 5 -18 8 -24 4 -5 5 -19
4 -30 -2 -10 3 -29 11 -42 7 -12 11 -27 8 -32 -3 -5 -1 -11 4 -15 6 -3 8 -12
5 -19 -3 -8 0 -17 5 -21 6 -3 9 -9 7 -13 -2 -4 8 -32 23 -62 21 -42 33 -55 50
-55 24 0 42 -21 34 -41 -5 -13 13 -14 33 -2 14 9 11 84 -3 81 -6 -1 -10 5 -8
15 1 9 -2 23 -8 30 -22 27 -17 76 10 104 28 29 28 35 6 61 -9 9 -12 17 -8 17
5 0 -2 11 -15 25 -24 26 -40 25 -40 -3 0 -15 2 -15 10 -2 7 11 10 11 10 2 0
-8 5 -10 13 -6 6 4 9 4 5 -1 -4 -4 -2 -17 4 -29 17 -30 16 -37 -7 -71 -21 -30
-25 -66 -11 -97 8 -18 14 -43 16 -73 l1 -20 8 20 c7 15 9 11 9 -19 l0 -39 -13
29 c-7 16 -16 38 -20 49 -6 20 -7 19 -25 -3 l-18 -22 0 32 c0 51 -1 60 -11 54
-4 -3 -7 -18 -5 -33 4 -26 2 -24 -13 17 -11 28 -10 49 1 43 6 -4 5 1 -2 10 -8
9 -10 22 -6 28 4 7 3 9 -3 6 -6 -4 -8 4 -5 21 4 26 4 27 -13 7 -12 -15 -12
-11 3 15 19 34 21 65 6 78 -4 4 -4 -2 0 -13 4 -11 3 -16 -1 -11 -4 4 -9 17 -9
29 -1 12 -2 31 -3 42 l-2 20 -8 -20 c-5 -12 -8 27 -7 92 1 84 -1 109 -10 102
-9 -7 -11 0 -8 28 2 27 1 33 -6 23 -6 -10 -8 7 -6 50 3 43 2 55 -3 35 -6 -20
-8 -1 -7 58 1 49 -2 94 -6 100 -6 9 -8 8 -8 -2 0 -11 -4 -9 -15 5 -15 19 -15
19 -9 -1 l7 -20 -17 20 -16 20 7 -20 c3 -11 3 -17 -1 -13 -15 13 -12 56 6 79
16 21 17 21 12 4 l-6 -20 13 20 c16 24 19 75 6 92 -5 7 -5 18 -1 24 4 7 3 9
-3 6 -7 -4 -10 20 -8 68 1 55 -1 72 -9 66 -8 -7 -11 5 -11 44 0 29 3 51 7 49
4 -3 5 3 2 13 -4 13 -3 15 4 5 7 -11 11 -10 16 4 3 9 10 14 13 10 4 -4 13 4
20 16 l14 23 -7 -25 c-6 -22 -5 -23 9 -11 11 9 14 18 8 30 -5 9 -7 24 -6 33 2
10 0 20 -4 22 -4 3 -8 -7 -9 -22 -3 -36 -41 -75 -59 -61 -7 6 -10 16 -6 23 11
17 13 38 4 54 -6 11 -9 10 -14 -6z m9 -29 c-2 -9 -8 -19 -14 -21 -16 -5 -15
-23 1 -19 6 1 10 -5 8 -13 -4 -16 -5 -109 -1 -150 l2 -25 7 25 c5 16 7 1 6
-40 -2 -36 2 -74 8 -85 13 -23 17 -86 6 -79 -10 6 -44 -44 -44 -65 -1 -32 14
-49 42 -46 l28 2 -2 -81 c-1 -44 2 -85 6 -91 4 -5 6 -21 5 -35 -1 -14 1 -29 4
-35 4 -5 7 -19 7 -30 1 -11 5 -19 10 -18 6 1 10 -41 10 -100 0 -73 3 -101 12
-100 7 2 10 -6 7 -21 -2 -13 3 -29 11 -36 11 -9 12 -17 3 -33 -10 -19 -11 -20
-24 -3 -7 10 -11 27 -9 38 3 12 1 26 -3 32 -3 6 -7 17 -8 24 -2 8 -6 21 -10
30 -9 22 -13 40 -17 77 -2 17 -7 37 -12 45 -11 18 -14 31 -18 86 -2 22 -8 47
-13 55 -4 8 -10 25 -12 39 -1 14 -5 32 -9 40 -3 8 -8 31 -10 50 -2 19 -9 40
-15 47 -6 7 -8 13 -4 13 4 0 0 13 -8 29 -14 26 -14 30 0 42 9 7 13 21 10 33
-3 11 0 27 7 36 7 9 2 6 -10 -7 -22 -22 -27 -19 -38 20 -2 4 -4 9 -5 12 -1 3
-4 10 -5 15 -1 6 -4 11 -5 13 -1 1 -3 13 -5 27 -2 14 -7 38 -12 55 -7 20 -5
37 3 54 9 17 10 29 3 37 -7 8 -6 14 1 19 8 5 8 10 0 20 -7 9 -8 15 -1 19 6 4
8 13 5 20 -3 7 3 16 12 20 22 9 31 -1 14 -17 -10 -9 -11 -9 -6 1 8 13 0 17 -8
3 -3 -4 4 -17 16 -27 12 -11 18 -14 15 -8 -4 7 0 17 8 24 8 7 15 17 15 22 0 6
-9 0 -21 -13 l-20 -24 18 30 c10 16 12 26 6 22 -9 -6 -11 -3 -7 10 5 15 4 15
-5 3 -5 -8 -12 -12 -15 -10 -2 3 4 16 15 29 11 14 19 18 19 10 0 -11 2 -11 10
1 6 10 10 11 10 3 0 -7 5 -13 10 -13 6 0 9 3 9 8 -2 11 1 22 5 22 2 0 3 -8 2
-17z m128 -1179 c3 -8 2 -12 -4 -9 -6 3 -10 10 -10 16 0 14 7 11 14 -7z"/>
<path d="M41796 18362 c14 -21 14 -25 0 -40 -14 -16 -16 -22 -16 -39 0 -3 -8
1 -18 10 -21 19 -38 11 -21 -9 7 -8 7 -14 -1 -19 -7 -5 -8 -11 -1 -19 7 -8 6
-21 -4 -39 -9 -17 -10 -29 -4 -33 6 -3 8 -12 5 -20 -3 -7 -1 -16 5 -19 5 -4 7
-17 5 -30 -2 -13 -1 -26 2 -30 4 -4 8 -11 8 -16 1 -5 3 -11 4 -14 3 -5 6 -19
9 -32 0 -3 12 4 25 16 13 12 27 18 30 13 3 -5 -1 -15 -9 -22 -11 -9 -12 -16
-5 -25 7 -9 4 -20 -12 -41 -13 -15 -17 -25 -11 -21 7 5 12 1 12 -10 0 -19 4
-39 14 -63 4 -8 9 -28 11 -45 2 -16 6 -37 9 -45 4 -8 8 -28 10 -45 3 -16 9
-29 15 -28 7 2 10 -13 8 -37 -2 -23 0 -43 5 -45 4 -3 6 -16 4 -30 -1 -14 3
-30 10 -35 7 -6 13 -25 14 -43 1 -37 5 -65 12 -71 8 -9 2 141 -7 155 -5 8 -9
21 -9 29 0 8 -3 20 -7 25 -4 6 -5 23 -4 38 2 15 0 30 -5 32 -4 3 -7 40 -6 83
1 74 0 77 -22 77 -27 0 -48 26 -46 55 1 11 12 35 26 53 25 34 31 64 16 84 -5
7 -11 25 -12 40 -1 16 -6 48 -11 73 -11 62 -12 141 -2 163 6 12 5 17 -4 15 -7
-2 -12 4 -12 13 1 9 -5 16 -12 16 -11 0 -11 -5 2 -25z m9 -89 c-1 -27 2 -61 7
-78 4 -16 9 -49 12 -72 2 -22 7 -47 12 -55 13 -21 12 -57 -2 -69 -7 -6 -15 -6
-18 -1 -3 6 1 15 9 22 12 10 13 16 4 27 -10 11 -16 10 -37 -9 -14 -13 -22 -18
-18 -11 3 6 2 14 -4 18 -6 4 -8 10 -5 15 3 5 1 11 -4 14 -5 4 -8 17 -5 31 2
13 0 26 -5 30 -6 3 -8 12 -5 19 3 8 1 17 -5 20 -6 4 -5 16 4 33 10 18 11 31 4
39 -7 8 -6 14 1 19 8 5 7 12 -2 23 -10 13 -8 13 9 -1 20 -18 34 -12 39 16 6
33 10 20 9 -30z m45 -408 c12 2 15 -10 13 -69 -1 -39 3 -76 8 -82 5 -7 4 -11
-4 -11 -7 0 -14 14 -15 30 -2 16 -6 35 -9 41 -4 5 -8 26 -10 45 -2 19 -9 42
-16 51 -10 12 -10 13 3 4 8 -6 22 -10 30 -9z m36 -241 c1 -9 0 -13 -4 -10 -3
4 -7 14 -8 22 -1 9 0 13 4 10 3 -4 7 -14 8 -22z m19 -64 c3 -18 2 -21 -7 -12
-6 6 -12 21 -13 32 -2 27 14 11 20 -20z"/>
<path d="M41786 18273 c-4 -5 -12 -9 -17 -9 -20 -3 -21 -4 -11 -17 8 -9 7 -20
-2 -39 -8 -14 -10 -30 -5 -35 4 -4 11 -26 14 -48 3 -22 7 -49 9 -60 3 -11 5
-22 5 -24 1 -2 9 3 19 12 15 13 21 14 32 4 12 -10 12 -9 1 5 -7 10 -15 35 -17
57 -2 21 -8 50 -12 63 -5 12 -8 40 -7 61 2 41 2 40 -9 30z m-1 -42 c-1 -14 4
-45 11 -69 8 -23 9 -40 4 -37 -6 4 -10 1 -10 -4 0 -6 6 -11 13 -12 10 0 10 -2
0 -6 -7 -2 -13 -12 -13 -21 0 -15 2 -15 10 -2 5 8 10 10 10 4 0 -17 -26 -37
-27 -21 -3 41 -15 103 -22 110 -5 5 -3 21 5 35 8 17 10 30 4 37 -6 8 -5 12 4
12 7 0 12 -11 11 -26z"/>
<path d="M41765 18191 c-3 -5 -1 -12 5 -16 5 -3 10 -16 11 -28 0 -12 3 -16 6
-9 3 7 1 20 -3 30 -4 9 -6 20 -6 25 3 10 -6 9 -13 -2z"/>
<path d="M41842 17835 c0 -16 2 -22 5 -12 2 9 2 23 0 30 -3 6 -5 -1 -5 -18z"/>
<path d="M41845 17791 c-3 -5 -2 -12 3 -15 5 -3 9 1 9 9 0 17 -3 19 -12 6z"/>
<path d="M41935 17330 c6 -29 11 -34 18 -16 3 8 0 20 -8 26 -12 10 -13 8 -10
-10z"/>
<path d="M41931 18366 c-12 -13 -30 -23 -39 -21 -9 1 -24 -7 -32 -19 -17 -24
-21 -86 -6 -83 7 1 11 -23 12 -63 0 -36 2 -69 4 -75 1 -5 2 -14 1 -19 -1 -4 2
-13 7 -20 19 -26 -5 -125 -28 -111 -14 8 -20 -9 -8 -25 8 -12 9 -11 4 5 l-6
20 15 -20 c9 -11 20 -20 26 -20 18 0 24 -22 23 -77 -1 -29 2 -58 8 -65 5 -7 7
-30 4 -52 -3 -22 -1 -43 4 -46 6 -4 8 -17 6 -30 -3 -15 0 -24 7 -22 7 1 11
-27 12 -88 0 -49 4 -98 9 -107 4 -9 9 -22 10 -30 1 -7 7 -22 13 -33 6 -11 8
-29 6 -40 -5 -23 -5 -27 -2 -73 1 -18 6 -35 11 -38 4 -3 3 -15 -3 -27 -9 -20
-9 -21 5 -4 14 18 15 17 22 -5 4 -13 7 -32 5 -43 -2 -15 0 -17 11 -7 8 6 18 9
22 5 7 -8 -2 24 -13 42 -12 21 -6 61 14 90 12 17 21 35 20 40 -2 21 -26 55
-36 50 -15 -10 -22 24 -9 40 9 11 16 12 25 5 9 -8 20 -2 39 21 l27 32 -23 24
c-26 27 -32 87 -11 105 11 9 10 15 -6 32 -16 17 -21 50 -11 64 2 1 4 7 5 12 1
6 4 12 5 15 1 3 3 8 4 13 1 4 6 14 11 22 15 24 14 38 -2 52 -20 16 -45 19 -40
5 2 -7 10 -12 18 -12 19 0 19 -26 1 -47 -8 -10 -12 -18 -7 -18 4 0 1 -7 -6
-16 -12 -15 -23 -102 -11 -90 3 3 11 1 19 -5 10 -9 11 -15 1 -26 -19 -23 -16
-76 6 -101 23 -26 30 -52 13 -49 -7 1 -11 -3 -10 -9 1 -6 -4 -11 -12 -11 -8 0
-12 4 -9 8 2 4 0 10 -5 13 -5 3 -11 -4 -14 -16 -5 -17 -9 -19 -20 -10 -11 9
-13 4 -12 -33 0 -24 4 -47 9 -52 5 -4 7 2 3 15 -3 12 -1 20 4 16 5 -3 8 -21 6
-40 -3 -19 0 -37 4 -40 9 -5 12 4 11 46 l-1 25 8 -25 c6 -18 3 -34 -11 -57
-11 -18 -17 -36 -14 -41 3 -5 -1 -9 -8 -9 -8 0 -12 7 -9 16 4 14 3 14 -5 1 -8
-10 -10 12 -8 78 3 75 1 90 -10 81 -10 -8 -12 -2 -9 31 4 34 2 40 -9 31 -11
-9 -13 0 -13 49 0 40 4 57 11 53 7 -4 7 -1 -1 8 -11 14 -11 68 1 87 3 6 2 13
-4 17 -9 6 -14 -8 -11 -28 1 -5 -2 -6 -7 -3 -10 6 -9 42 1 52 4 4 7 12 7 18 0
6 -7 3 -15 -8 -13 -18 -14 -18 -12 2 0 11 4 19 7 17 3 -2 5 12 6 30 0 19 -3
32 -7 29 -4 -2 -5 8 -2 23 3 16 5 34 4 41 -3 35 -5 41 -12 37 -4 -3 -6 6 -5
20 2 15 -1 22 -8 18 -7 -4 -7 -1 1 7 6 7 9 20 5 29 -5 13 -8 11 -14 -9 l-8
-25 4 25 c2 14 7 35 10 48 3 12 2 20 -3 18 -4 -3 -7 6 -7 19 0 13 3 22 7 19 4
-2 6 4 4 13 -2 10 -4 23 -4 28 -1 6 -6 3 -11 -5 -8 -11 -9 -8 -6 13 3 15 1 25
-4 22 -4 -3 -7 33 -5 80 2 51 0 83 -6 79 -5 -3 -6 -11 -3 -17 4 -7 3 -8 -1 -4
-12 10 -16 39 -5 32 5 -3 7 4 5 16 -2 12 -2 19 2 16 3 -4 12 1 20 11 12 16 13
15 6 -3 -6 -18 -4 -18 20 4 15 14 28 21 28 18 1 -4 3 -11 4 -17 1 -5 3 -13 4
-17 1 -5 6 -1 11 7 6 10 4 20 -6 31 -12 14 -12 16 0 16 8 0 14 -5 13 -11 -1
-6 4 -10 11 -8 8 1 11 -2 8 -7 -4 -5 -2 -12 3 -15 23 -15 18 14 -8 38 l-27 26
-23 -24z m-45 -412 c-6 -19 -12 -28 -14 -20 -3 13 14 56 22 56 2 0 -2 -16 -8
-36z m31 -141 c-3 -10 -5 -2 -5 17 0 19 2 27 5 18 2 -10 2 -26 0 -35z"/>
<path d="M41917 18322 c-19 -20 -23 -47 -7 -37 6 4 8 10 5 15 -3 5 0 12 6 16
7 4 9 3 5 -4 -3 -6 -2 -13 3 -16 5 -4 12 -2 15 3 4 5 2 12 -4 16 -6 4 -8 11
-5 16 10 15 -1 10 -18 -9z"/>
<path d="M41960 18307 c-41 -63 -50 -95 -15 -57 10 11 14 20 10 20 -5 0 2 11
14 24 12 13 19 26 14 29 -5 3 -15 -4 -23 -16z"/>
<path d="M41982 18297 c-18 -19 -19 -26 -9 -36 10 -10 9 -12 -3 -9 -8 2 -14
-3 -12 -9 1 -7 -2 -12 -7 -10 -5 1 -9 -2 -9 -8 0 -5 4 -9 8 -8 4 1 6 -14 4
-34 l-3 -37 21 21 c14 15 21 35 22 66 1 24 7 51 14 60 21 25 -3 28 -26 4z m1
-72 c4 -8 3 -16 -1 -19 -4 -3 -9 4 -9 15 -2 23 3 25 10 4z"/>
<path d="M41876 18302 c-3 -6 -2 -13 3 -17 6 -3 9 -37 6 -77 -2 -43 0 -77 7
-85 6 -7 8 -13 4 -13 -4 0 0 -10 9 -23 8 -13 13 -26 10 -29 -3 -3 1 -11 10
-18 12 -10 15 -10 15 4 0 10 -4 15 -9 12 -9 -6 -7 37 3 52 3 5 -1 16 -10 23
-13 11 -14 9 -9 -17 l6 -29 -15 32 c-12 27 -14 51 -6 73 1 3 2 14 2 25 -1 17
0 17 4 2 3 -10 11 -14 17 -11 7 4 9 4 5 -1 -4 -4 -3 -14 3 -21 7 -8 7 -14 -1
-19 -5 -3 -10 -11 -10 -16 0 -6 5 -7 12 -3 6 4 8 3 4 -4 -3 -6 -2 -13 4 -17 6
-4 8 -11 4 -16 -3 -6 5 -22 17 -36 13 -13 23 -26 22 -29 -7 -11 -2 -24 7 -19
6 4 7 13 1 23 -4 9 -6 23 -3 31 3 8 0 11 -6 7 -12 -7 -27 11 -27 34 0 8 -3 20
-7 26 -4 5 -5 19 -4 30 2 10 -6 29 -17 42 -16 17 -18 25 -9 34 15 15 16 42 2
33 -6 -4 -8 -10 -5 -15 3 -5 1 -12 -5 -15 -6 -4 -10 -3 -9 2 4 16 -18 56 -25
45z"/>
<path d="M41909 18188 c-4 -19 -9 -51 -6 -47 1 2 8 11 15 21 9 11 10 18 2 23
-5 3 -10 5 -11 3z"/>
<path d="M42006 18162 c-3 -5 1 -15 8 -21 11 -10 14 -9 12 3 -3 21 -13 29 -20
18z"/>
<path d="M41939 18072 c16 -30 7 -59 -13 -43 -15 13 -29 3 -19 -13 4 -6 9 -24
10 -41 2 -16 4 -42 5 -57 2 -14 7 -30 12 -35 5 -5 7 -1 3 9 -3 10 -2 20 4 24
6 4 6 11 -2 20 -6 8 -8 14 -4 14 4 0 1 8 -6 17 -8 9 -9 14 -3 10 7 -4 15 0 18
9 9 24 7 28 -7 15 -10 -8 -14 -7 -14 4 0 8 3 13 5 10 3 -3 12 1 20 8 9 7 13 7
9 1 -3 -6 0 -19 7 -29 8 -12 11 -29 7 -44 -7 -24 -7 -48 -1 -53 4 -5 11 -51
12 -80 0 -15 4 -25 8 -23 5 3 12 0 16 -6 4 -8 3 -9 -4 -5 -7 4 -12 3 -12 -3 0
-5 4 -12 9 -15 13 -8 23 24 13 38 -16 20 -21 60 -10 74 18 21 18 40 2 53 -13
10 -14 7 -9 -22 3 -18 3 -30 -1 -26 -11 11 -13 76 -3 83 5 3 8 2 7 -3 -2 -4 0
-9 5 -10 19 -7 19 -1 -3 22 -22 24 -29 40 -32 72 -1 7 -10 21 -21 30 -19 18
-20 17 -8 -5z"/>
<path d="M41996 18021 c-10 -11 -13 -22 -8 -25 5 -3 15 1 22 9 9 11 16 12 25
5 9 -8 15 -8 20 0 3 5 4 11 1 11 -3 1 -9 2 -13 3 -5 1 -13 5 -19 8 -6 4 -19
-1 -28 -11z"/>
<path d="M41949 17983 c0 -4 -2 -16 -4 -25 -2 -10 0 -20 5 -23 4 -3 10 7 13
20 2 14 0 28 -4 31 -5 3 -9 2 -10 -3z"/>
<path d="M41949 17913 c-1 -5 -1 -12 0 -17 1 -4 -3 -13 -8 -20 -6 -7 -6 -18
-1 -26 4 -7 4 -24 0 -36 -6 -14 -5 -26 0 -29 6 -4 7 -17 4 -31 -4 -14 -1 -31
6 -39 10 -12 10 -19 -1 -32 -7 -10 -9 -15 -5 -11 12 10 38 -11 30 -24 -11 -18
-13 -72 -3 -85 6 -7 6 -13 1 -17 -5 -3 -10 -24 -10 -47 -1 -47 12 -43 15 4 0
18 5 43 9 56 5 16 4 22 -3 18 -7 -4 -9 5 -6 26 3 17 5 39 4 47 -3 51 -10 75
-19 73 -6 -2 -8 10 -5 30 6 39 13 49 13 18 0 -13 4 -19 10 -16 6 4 9 1 8 -6
-2 -7 5 -13 15 -14 9 0 17 5 16 10 -1 6 -5 9 -9 8 -22 -6 -39 44 -41 119 0 10
-5 20 -10 23 -5 4 -7 11 -4 16 4 5 4 9 1 9 -3 0 -7 -3 -7 -7z m16 -81 c2 -12
-4 -27 -13 -34 -15 -11 -15 -11 -6 2 6 8 10 26 8 39 -5 30 5 23 11 -7z"/>
<path d="M42046 17751 c-30 -31 -44 -33 -72 -11 -18 14 -18 14 -5 -3 16 -20
24 -63 22 -122 0 -11 0 -31 0 -45 0 -14 -2 -58 -4 -99 -3 -55 -1 -69 7 -55 13
24 14 35 4 55 -5 11 -2 21 7 29 11 9 12 17 5 30 -7 13 -7 21 0 25 8 5 8 11 0
19 -14 18 -9 63 7 63 10 0 10 -4 3 -11 -13 -13 -13 -49 0 -41 6 4 8 11 5 16
-10 15 1 10 15 -7 8 -8 9 -14 4 -12 -8 3 -16 -6 -13 -14 6 -21 5 -37 -2 -32
-5 3 -7 -5 -5 -18 3 -13 5 -27 5 -31 1 -5 7 -5 14 -1 9 6 9 4 -1 -8 -8 -10 -9
-19 -3 -22 5 -3 11 -3 14 1 2 5 2 3 1 -4 -5 -18 12 -25 25 -10 8 11 5 19 -12
35 -26 24 -30 80 -7 107 12 15 11 16 -12 19 -18 2 -17 77 1 99 8 9 11 17 6 17
-4 0 -1 7 6 16 11 14 22 44 15 44 -1 0 -15 -13 -30 -29z m-9 -35 c0 -8 -3 -15
-6 -14 -19 2 -22 -4 -10 -19 12 -16 12 -17 -2 -6 -9 7 -18 11 -21 8 -2 -3 -5
2 -5 10 0 8 4 12 8 10 3 -3 12 2 19 10 15 19 17 19 17 1z"/>
<path d="M42088 17573 c-8 -16 -3 -73 7 -70 11 2 15 66 4 73 -4 2 -9 1 -11 -3z"/>
<path d="M42007 17494 c-3 -4 -3 -14 2 -23 5 -9 7 -24 6 -33 -4 -25 12 -32 18
-8 3 11 1 23 -4 26 -5 3 -7 9 -5 13 6 10 -9 33 -17 25z"/>
<path d="M42111 17374 c6 -7 16 -11 21 -8 11 7 3 17 -18 20 -12 2 -13 -1 -3
-12z"/>
<path d="M42002 17285 c-1 -36 12 -55 22 -30 3 8 1 17 -4 20 -5 3 -7 12 -4 19
3 8 1 17 -4 20 -5 3 -9 -10 -10 -29z"/>
<path d="M48413 3545 c0 -8 4 -12 9 -9 5 3 6 10 3 15 -9 13 -12 11 -12 -6z"/>
<path d="M49626 3228 c24 -110 -10 -230 -85 -307 -68 -70 -250 -156 -426 -201
-103 -27 -274 -37 -343 -20 -104 24 -174 100 -218 233 -14 45 -30 86 -34 90
-11 12 -67 -111 -85 -184 -36 -156 -15 -331 91 -739 162 -626 359 -1105 612
-1490 74 -112 195 -250 220 -250 6 0 12 -4 12 -10 0 -5 7 -10 15 -10 8 0 15
-4 15 -10 0 -5 6 -10 14 -10 7 0 25 -11 40 -25 15 -14 38 -25 52 -25 13 0 24
-4 24 -10 0 -5 10 -10 23 -10 13 0 27 -4 32 -9 33 -29 95 -35 370 -33 154 1
298 4 320 7 91 10 335 73 335 87 0 4 11 8 25 8 14 0 25 4 25 9 0 5 20 17 45
28 25 10 45 21 45 26 0 4 7 7 15 7 8 0 15 5 15 10 0 6 8 13 18 17 25 9 62 44
62 60 0 8 7 16 15 19 8 4 15 10 15 15 0 5 9 18 20 29 11 11 20 30 20 43 0 12
7 35 15 51 23 43 19 148 -11 261 -218 851 -526 1577 -843 1990 -127 166 -318
327 -444 374 -28 11 -29 11 -21 -21z"/>
<path d="M40405 2830 c-4 -6 -11 -7 -17 -4 -7 4 -8 2 -4 -5 6 -8 12 -9 20 -2
7 6 17 7 21 3 5 -4 5 -1 1 6 -9 15 -13 15 -21 2z"/>
<path d="M40435 2809 c-3 -4 2 -6 10 -5 21 3 28 13 10 13 -9 0 -18 -4 -20 -8z"/>
<path d="M40410 2803 c0 -6 8 -17 18 -24 16 -13 16 -13 2 6 -8 11 -16 22 -17
24 -2 2 -3 0 -3 -6z"/>
<path d="M40403 2715 c0 -8 4 -12 9 -9 5 3 6 10 3 15 -9 13 -12 11 -12 -6z"/>
<path d="M40415 2689 c-3 -4 2 -6 10 -5 21 3 28 13 10 13 -9 0 -18 -4 -20 -8z"/>
<path d="M12565 2623 c3 -16 9 -55 15 -87 22 -133 5 -215 -61 -290 -52 -59
-105 -83 -214 -94 -107 -12 -349 -7 -403 7 -21 6 -57 27 -79 46 -49 42 -72 97
-98 235 -10 52 -21 101 -25 108 -7 15 -59 -152 -109 -353 -152 -610 -199
-1175 -135 -1620 8 -55 19 -101 24 -103 6 -2 10 -15 10 -28 0 -13 5 -24 10
-24 6 0 10 -8 10 -17 1 -18 33 -63 45 -63 4 0 19 -13 33 -28 18 -19 42 -31 71
-36 24 -4 49 -10 55 -13 5 -4 19 -8 30 -9 12 -1 35 -5 51 -8 192 -36 226 -37
875 -37 355 0 664 2 685 5 22 2 81 7 130 11 50 3 101 8 115 10 14 2 61 7 105
10 44 3 91 8 105 10 14 2 52 6 85 10 172 17 320 39 323 46 2 5 12 9 23 9 10 0
19 5 19 10 0 6 7 10 15 10 8 0 15 5 15 10 0 6 6 10 14 10 16 0 46 42 46 64 0
8 4 16 10 18 18 6 29 100 18 157 -43 234 -253 646 -469 921 -217 275 -524 567
-849 807 -150 110 -476 323 -495 323 -3 0 -2 -12 0 -27z"/>
<path d="M16277 2463 c-168 -362 -278 -816 -328 -1358 -18 -190 -20 -652 -4
-698 36 -103 12 -101 881 -93 401 3 1231 8 1844 12 1313 7 1420 8 1429 22 3 5
15 11 25 13 10 2 24 13 30 24 6 11 17 24 24 28 6 4 12 19 12 32 0 13 5 27 10
30 6 3 10 21 10 40 0 19 -4 37 -10 40 -5 3 -10 16 -10 29 0 55 -282 391 -513
613 -589 563 -1350 990 -2205 1238 -90 26 -165 45 -167 43 -2 -2 -17 -28 -32
-58 -51 -98 -127 -135 -323 -160 -107 -13 -436 -13 -463 1 -66 34 -105 99
-122 204 -10 63 -15 75 -34 75 -12 0 -29 -23 -54 -77z"/>
<path d="M40475 2441 c-3 -5 -2 -12 3 -15 5 -3 9 1 9 9 0 17 -3 19 -12 6z"/>
<path d="M40460 2097 c-19 -6 -168 -54 -330 -107 -1028 -339 -1808 -718 -2269
-1103 -149 -125 -321 -309 -321 -344 0 -7 -4 -13 -10 -13 -5 0 -10 -7 -10 -15
0 -8 -4 -15 -10 -15 -5 0 -10 -6 -10 -14 0 -8 -7 -22 -16 -31 -20 -19 -23
-107 -5 -113 6 -2 11 -10 11 -18 0 -8 5 -14 10 -14 6 0 10 -7 10 -15 0 -8 7
-15 15 -15 8 0 15 -4 15 -10 0 -5 8 -10 18 -10 10 0 22 -4 28 -9 5 -6 63 -12
129 -15 242 -10 453 -23 497 -29 15 -2 25 0 22 4 -3 5 2 9 10 9 9 0 16 -3 16
-8 0 -13 2976 -2 3090 12 19 3 109 8 200 11 91 4 176 8 190 10 40 4 120 28
120 37 0 4 6 8 13 8 18 0 67 53 67 72 0 9 6 18 13 20 20 7 22 313 2 471 -38
318 -121 602 -261 895 -61 129 -184 346 -191 338 -2 -2 -6 -25 -9 -52 -13
-120 -82 -216 -183 -255 -78 -30 -280 -38 -406 -16 -257 45 -348 116 -402 313
-8 29 -9 30 -43 21z"/>
</g>
</svg>
