<svg width="157" height="220" viewBox="0 0 157 220" fill="none" xmlns="http://www.w3.org/2000/svg">
<path d="M82.7569 299.787C82.7569 299.787 85.2346 247.101 98.304 216.851C110.167 189.394 124.255 178.019 142.15 154.052C163.793 125.064 189.643 116.557 200.388 82.0128C218.594 23.4774 198.729 -89.4623 142.935 -64.0673C94.0221 -41.8045 133.982 19.419 132.311 73.1338C131.541 97.8831 142.238 114.135 131.687 136.536C124.366 152.081 112.064 155.127 102.219 169.21C90.2478 186.335 86.1066 197.707 78.4949 217.165C67.038 246.453 59.162 295.34 59.162 295.34C59.162 295.34 38.3015 235.24 46.3306 197.583C53.2738 165.019 74.8717 153.721 87.4384 122.888C101.81 87.6258 120.221 65.6848 111.954 28.5148C107.087 6.6284 84.9139 -22.1317 84.9139 -22.1317C84.9139 -22.1317 45.1746 64.1308 36.4851 123.392C33.0116 147.08 40.5078 162.202 31.85 184.523C24.5279 203.401 1.04545 206.552 1.81398 226.785C2.37886 241.657 20.1757 260.178 20.1757 260.178" stroke="#FF0000" stroke-width="2"/>
</svg>
