<svg width="335" height="349" viewBox="0 0 335 349" fill="none" xmlns="http://www.w3.org/2000/svg">
<path d="M132.052 394.755C134.462 372.526 138.506 351.871 145.594 330.609C151.378 313.256 163.41 303.095 175.528 290.339C199.665 264.933 243.216 254.69 275.786 246.387C310.38 237.57 362.993 231.014 382.221 195.902C390.4 180.968 398.299 166.914 403.603 151" stroke="#FEC608" stroke-width="3" stroke-linecap="round"/>
<path d="M1.62158 395.429C4.17083 384.212 7.86742 373.472 10.1744 362.168C13.0242 348.204 11.483 334.445 12.7877 320.354C15.0673 295.735 29.4943 258.944 45.3359 239.934C77.2634 201.621 116.806 189.407 162.462 173.294C210.68 156.275 265.681 143.248 303.108 105.822C316.965 91.9643 329.322 73.8933 338.269 56.5241C347.116 39.3504 350.087 19.2275 358.701 2" stroke="#FEC608" stroke-width="3" stroke-linecap="round"/>
<path d="M230.409 394.986C230.409 368.994 236.204 348.712 258.681 332.978C265.96 327.883 271.976 319.226 280.657 316.942C287.737 315.079 295.461 312.993 301.92 309.933C328.327 297.425 360.012 317.184 377.945 335.117" stroke="#FEC608" stroke-width="3" stroke-linecap="round"/>
</svg>
