<svg width="208" height="292" viewBox="0 0 208 292" fill="none" xmlns="http://www.w3.org/2000/svg">
<path d="M-1 290.416C9.84012 268.284 20.5326 251.805 41.2889 237.436C60.0857 224.422 84.6883 222.102 103.772 209.045C139.888 184.334 167.918 152.491 167.918 107.243C167.918 82.5211 163.641 58.7966 163.641 34.0691C163.641 24.4266 170.197 15.9831 176.471 9.36098C186.61 -1.34135 195.082 -11.6961 206.405 -21.7617" stroke="#CD7D04" stroke-width="3" stroke-linecap="round"/>
<path d="M-33 247.651C-14.5116 244.026 0.896972 230.86 14.0404 217.716C21.4426 210.314 39.7031 197.662 43.5001 187.306C49.4105 171.187 50.3898 154.157 50.3898 137.177C50.3898 119.337 52.528 101.662 52.528 83.7224C52.528 59.7974 55.8167 35.4405 69.6336 16.2503C77.5466 5.26 87.9061 -2.60509 99.5684 -9.40811C107.904 -14.2704 115.316 -24.2907 123.089 -28.1768" stroke="#CD7D04" stroke-width="3" stroke-linecap="round"/>
</svg>
