<svg width="375" height="221" viewBox="0 0 375 221" fill="none" xmlns="http://www.w3.org/2000/svg">
<path d="M120.643 348.414C119.418 337.067 119.239 325.901 117.797 314.528C116.015 300.479 110.815 287.677 107.773 273.876C102.459 249.764 103.243 211.093 110.29 189.106C124.492 144.792 152.273 123.64 183.766 97.2924C217.027 69.466 256.814 43.8368 275.627 -0.94383C282.593 -17.524 287.152 -37.7789 289.214 -56.5465C291.253 -75.1028 287.786 -95.0766 289.625 -113.629" stroke="#835CFA" stroke-width="2" stroke-linecap="round"/>
<path d="M236 262C236 262 256.962 186.824 301.69 169.089C335.115 155.836 362.454 182.37 395.864 169.089C410.226 163.38 429 149 429 149" stroke="#835CFA" stroke-width="2"/>
<path d="M115.213 242.644C129.76 222.753 143.173 208.401 166.125 197.888C186.91 188.367 211.539 190.39 232.614 180.876C272.498 162.871 305.671 136.428 313.594 91.879C317.923 67.539 317.866 43.4322 322.196 19.0867C323.885 9.59313 331.817 2.42795 339.154 -2.99336C351.01 -11.755 361.164 -20.4664 374.075 -28.3937" stroke="#835CFA" stroke-width="2" stroke-linecap="round"/>
</svg>
