<svg xmlns="http://www.w3.org/2000/svg" version="1.0" width="2893" height="825" preserveAspectRatio="xMidYMid meet"><rect id="backgroundrect" width="100%" height="100%" x="0" y="0" fill="none" stroke="none"/>


<g class="currentLayer" style=""><title>Layer 1</title>




























<path d="M456.0000067651272,253.49999148398638 c-52.00000077486038,13.90000020712614 -131.20000195503235,35.00000052154064 -176.00000262260437,46.90000069886446 c-90.30000134557486,24.00000035762787 -86.00000128149986,22.500000335276127 -86.00000128149986,30.90000046044588 l0,4.200000062584877 l57.20000085234642,57.20000085234642 l57.300000853836536,57.300000853836536 l28.500000424683094,-28.500000424683094 l28.500000424683094,-28.500000424683094 l-14.200000211596489,-14.200000211596489 c-7.900000117719173,-7.800000116229057 -13.90000020712614,-14.600000217556953 -13.500000201165676,-15.000000223517418 c0.4000000059604646,-0.30000000447034836 27.3000004068017,-9.300000138580799 59.70000088959932,-19.900000296533108 c32.50000048428774,-10.600000157952309 59.20000088214874,-19.500000290572643 59.50000088661909,-19.80000029504299 c0.30000000447034836,-0.30000000447034836 1.0000000149011612,-0.6000000089406967 1.5000000223517418,-0.6000000089406967 c0.6000000089406967,0 2.7000000402331352,-0.6000000089406967 4.800000071525574,-1.4000000208616257 c2.1000000312924385,-0.700000010430813 4.000000059604645,-1.1000000163912773 4.300000064074993,-0.800000011920929 c0.30000000447034836,0.20000000298023224 -0.20000000298023224,2.400000035762787 -1.0000000149011612,4.800000071525574 c-0.800000011920929,2.3000000342726707 -1.3000000193715096,4.6000000685453415 -1.0000000149011612,5.000000074505806 c0.20000000298023224,0.4000000059604646 0.10000000149011612,0.9000000134110452 -0.4000000059604646,1.1000000163912773 c-0.700000010430813,0.30000000447034836 -5.900000087916851,15.70000023394823 -10.200000151991844,30.300000451505184 c-1.0000000149011612,3.300000049173832 -7.700000114738941,24.900000371038914 -15.000000223517418,48.00000071525574 c-11.400000169873238,36.200000539422035 -13.100000195205212,42.200000628829 -12.000000178813934,44.00000065565109 c1.600000023841858,2.600000038743019 2.7000000402331352,3.6000000536441807 -16.00000023841858,-15.000000223517418 l-16.00000023841858,-16.00000023841858 l-28.500000424683094,28.500000424683094 l-28.500000424683094,28.500000424683094 l56.90000084787607,56.90000084787607 c31.20000046491623,31.300000466406345 57.600000858306885,57.300000853836536 58.50000087171793,57.80000086128712 c2.7000000402331352,1.5000000223517418 8.300000123679638,0 10.400000154972076,-2.7000000402331352 c1.0000000149011612,-1.3000000193715096 3.1000000461935997,-7.000000104308128 4.6000000685453415,-12.700000189244747 c1.5000000223517418,-5.700000084936619 8.100000120699406,-30.100000448524952 14.600000217556953,-54.30000080913305 c6.500000096857548,-24.2000003606081 15.000000223517418,-55.70000082999468 18.900000281631947,-70.00000104308128 c3.8000000566244125,-14.300000213086605 9.500000141561031,-35.50000052899122 12.600000187754631,-47.000000700354576 c3.1000000461935997,-11.60000017285347 8.50000012665987,-31.600000470876694 12.000000178813934,-44.50000066310167 c3.500000052154064,-12.90000019222498 9.80000014603138,-36.30000054091215 14.000000208616257,-52.00000077486038 c4.200000062584877,-15.70000023394823 10.30000015348196,-38.40000057220459 13.600000202655792,-50.50000075250864 c3.200000047683716,-12.10000018030405 5.900000087916851,-22.70000033825636 5.900000087916851,-23.70000035315752 c0,-3.300000049173832 -2.3000000342726707,-6.70000009983778 -5.500000081956387,-8.300000123679638 c-1.8000000268220901,-0.800000011920929 -3.7000000551342964,-1.5000000223517418 -4.200000062584877,-1.4000000208616257 c-0.4000000059604646,0 -43.30000064522028,11.400000169873238 -95.30000142008066,25.400000378489494 z" id="svg_2" class="selected" fill-opacity="1" fill="#ee412e"/><path d="M2350.0000349879265,232.29999116808176 c0,8.00000011920929 7.200000107288361,18.0000002682209 15.800000235438347,22.000000327825546 c3.9000000581145287,1.8000000268220901 6.600000098347664,2.2000000327825546 16.20000024139881,2.2000000327825546 c10.000000149011612,0 12.200000181794167,-0.30000000447034836 16.700000248849392,-2.400000035762787 c8.800000131130219,-3.9000000581145287 15.300000227987766,-12.700000189244747 15.300000227987766,-20.60000030696392 l0,-3.6000000536441807 l-10.200000151991844,0.30000000447034836 l-10.200000151991844,0.30000000447034836 l-0.800000011920929,3.200000047683716 c-1.2000000178813934,4.500000067055225 -4.200000062584877,6.3000000938773155 -10.600000157952309,6.3000000938773155 c-4.6000000685453415,0 -5.800000086426735,-0.4000000059604646 -8.300000123679638,-2.9000000432133675 c-1.600000023841858,-1.600000023841858 -2.9000000432133675,-3.9000000581145287 -2.9000000432133675,-5.000000074505806 c0,-2.0000000298023224 -0.5000000074505807,-2.1000000312924385 -10.500000156462193,-2.1000000312924385 c-10.30000015348196,0 -10.500000156462193,0 -10.500000156462193,2.3000000342726707 z" id="svg_3" class="selected"/><path d="M2502.900037266314,261.99999161064625 c-21.200000315904617,3.300000049173832 -36.500000543892384,18.500000275671482 -42.00000062584877,41.80000062286854 c-1.8000000268220901,7.600000113248825 -2.0000000298023224,10.900000162422657 -1.700000025331974,26.200000390410423 c0.4000000059604646,14.500000216066837 0.9000000134110452,18.700000278651714 2.7000000402331352,24.50000036507845 c5.700000084936619,17.600000262260437 16.400000244379044,28.700000427663326 32.50000048428774,33.70000050216913 c9.200000137090683,2.9000000432133675 26.00000038743019,3.1000000461935997 35.10000052303076,0.4000000059604646 c19.000000283122063,-5.600000083446503 32.70000048726797,-20.700000308454037 34.20000050961971,-37.60000056028366 l0.6000000089406967,-6.100000090897083 l-15.300000227987766,0.30000000447034836 l-15.400000229477882,0.30000000447034836 l-1.2000000178813934,5.300000078976154 c-2.3000000342726707,10.400000154972076 -8.200000122189522,14.70000021904707 -19.900000296533108,14.600000217556953 c-10.400000154972076,0 -15.100000225007534,-3.1000000461935997 -18.700000278651714,-12.300000183284283 c-1.8000000268220901,-4.800000071525574 -2.2000000327825546,-8.100000120699406 -2.600000038743019,-23.100000344216824 c-0.700000010430813,-33.00000049173832 4.300000064074993,-43.30000064522028 21.300000317394733,-43.400000646710396 c11.60000017285347,0 18.600000277161598,5.900000087916851 20.10000029951334,16.800000250339508 l0.700000010430813,4.6000000685453415 l14.600000217556953,0 c8.00000011920929,0 15.100000225007534,-0.4000000059604646 15.800000235438347,-0.800000011920929 c0.9000000134110452,-0.6000000089406967 0.9000000134110452,-2.3000000342726707 -0.20000000298023224,-7.700000114738941 c-3.8000000566244125,-18.100000269711018 -16.300000242888927,-31.40000046789646 -33.900000505149364,-35.90000053495169 c-7.300000108778477,-1.9000000283122063 -19.80000029504299,-2.7000000402331352 -26.700000397861004,-1.600000023841858 z" id="svg_4" class="selected"/><path d="M1180.7000175639987,263.5999916344881 c-0.4000000059604646,0.4000000059604646 -0.700000010430813,28.800000429153442 -0.700000010430813,63.10000094026327 l0,62.30000092834234 l16.00000023841858,0 l16.00000023841858,0 l0,-14.400000214576721 c0,-12.200000181794167 -1.2000000178813934,-43.200000643730164 -2.3000000342726707,-61.4000009149313 c-0.20000000298023224,-3.0000000447034836 -0.10000000149011612,-4.800000071525574 0.30000000447034836,-4.000000059604645 c0.4000000059604646,0.700000010430813 6.70000009983778,19.000000283122063 14.100000210106373,40.50000060349703 l13.300000198185444,39.300000585615635 l10.600000157952309,0 l10.700000159442425,0 l13.90000020712614,-40.90000060945749 c7.600000113248825,-22.500000335276127 14.000000208616257,-40.90000060945749 14.100000210106373,-40.70000060647726 c0.20000000298023224,0.10000000149011612 -0.4000000059604646,13.000000193715096 -1.2000000178813934,28.700000427663326 c-0.800000011920929,15.600000232458115 -1.5000000223517418,33.900000505149364 -1.5000000223517418,40.600000604987144 l0,12.300000183284283 l16.00000023841858,0 l16.00000023841858,0 l0,-63.000000938773155 l0,-63.000000938773155 l-19.900000296533108,0 c-14.70000021904707,0 -20.10000029951334,0.30000000447034836 -20.800000309944153,1.2000000178813934 c-0.5000000074505807,0.700000010430813 -6.800000101327896,19.60000029206276 -13.90000020712614,42.00000062584877 c-7.1000001057982445,22.300000332295895 -13.100000195205212,40.40000060200691 -13.300000198185444,40.20000059902668 c-0.20000000298023224,-0.20000000298023224 -6.3000000938773155,-18.900000281631947 -13.600000202655792,-41.600000619888306 l-13.200000196695328,-41.30000061541796 l-20.000000298023224,-0.30000000447034836 c-10.900000162422657,-0.10000000149011612 -20.200000301003456,0.10000000149011612 -20.60000030696392,0.4000000059604646 z" id="svg_5" class="selected"/><path d="M1381.2000205516815,265.69999166578054 c-0.5000000074505807,1.600000023841858 -9.400000140070915,25.700000382959843 -19.700000293552876,53.80000080168247 c-10.30000015348196,28.000000417232513 -20.200000301003456,55.2000008225441 -22.100000329315662,60.200000897049904 l-3.300000049173832,9.300000138580799 l16.700000248849392,0 l16.800000250339508,0 l3.400000050663948,-11.500000171363354 l3.500000052154064,-11.500000171363354 l20.200000301003456,0 l20.10000029951334,0 l3.6000000536441807,11.500000171363354 l3.7000000551342964,11.500000171363354 l16.400000244379044,0 c12.600000187754631,0 16.50000024586916,-0.30000000447034836 16.50000024586916,-1.3000000193715096 c0,-0.6000000089406967 -10.30000015348196,-28.90000043064356 -22.800000339746475,-62.70000093430281 l-22.800000339746475,-61.50000091642141 l-14.600000217556953,-0.30000000447034836 l-14.600000217556953,-0.30000000447034836 l-1.0000000149011612,2.8000000417232513 zm21.800000324845314,55.70000082999468 c2.8000000417232513,9.200000137090683 5.4000000804662704,17.400000259280205 5.700000084936619,18.200000271201134 c0.4000000059604646,1.2000000178813934 -1.700000025331974,1.4000000208616257 -11.900000177323818,1.4000000208616257 l-12.500000186264515,0 l6.100000090897083,-19.500000290572643 c3.300000049173832,-10.700000159442425 6.3000000938773155,-19.000000283122063 6.70000009983778,-18.30000027269125 c0.4000000059604646,0.700000010430813 3.0000000447034836,8.900000132620335 5.900000087916851,18.200000271201134 z" id="svg_6" class="selected"/><path d="M1476.0000219643116,325.99999256432056 l0,63.000000938773155 l15.500000230967999,0 l15.500000230967999,0 l0,-20.90000031143427 l0,-20.800000309944153 l15.800000235438347,-0.6000000089406967 c8.700000129640102,-0.30000000447034836 17.900000266730785,-1.2000000178813934 20.700000308454037,-2.0000000298023224 c13.300000198185444,-3.8000000566244125 22.500000335276127,-10.900000162422657 27.700000412762165,-21.500000320374966 c3.1000000461935997,-6.3000000938773155 3.300000049173832,-7.300000108778477 3.300000049173832,-17.200000256299973 c0,-10.200000151991844 -0.10000000149011612,-10.900000162422657 -3.8000000566244125,-18.200000271201134 c-4.300000064074993,-8.800000131130219 -10.800000160932541,-15.300000227987766 -19.30000028759241,-19.30000028759241 c-10.000000149011612,-4.700000070035458 -16.400000244379044,-5.500000081956387 -47.10000070184469,-5.500000081956387 l-28.300000421702862,0 l0,63.000000938773155 zm59.60000088810921,-35.400000527501106 c5.700000084936619,4.200000062584877 6.900000102818012,6.900000102818012 6.900000102818012,15.400000229477882 c0,7.000000104308128 -0.30000000447034836,8.100000120699406 -2.500000037252903,10.500000156462193 c-4.200000062584877,4.6000000685453415 -7.800000116229057,5.500000081956387 -21.000000312924385,5.500000081956387 l-12.000000178813934,0 l0,-17.100000254809856 l0,-17.100000254809856 l12.90000019222498,0.4000000059604646 c11.200000166893005,0.30000000447034836 13.300000198185444,0.6000000089406967 15.70000023394823,2.400000035762787 z" id="svg_7" class="selected"/><path d="M1600.0000238120556,325.99999256432056 l0,63.000000938773155 l15.500000230967999,0 l15.500000230967999,0 l0,-24.50000036507845 l0,-24.50000036507845 l6.800000101327896,0 l6.70000009983778,0.10000000149011612 l13.000000193715096,24.400000363588333 l13.000000193715096,24.50000036507845 l18.30000027269125,0 c17.100000254809856,0 18.400000274181366,-0.10000000149011612 17.700000263750553,-1.8000000268220901 c-0.30000000447034836,-0.9000000134110452 -8.900000132620335,-16.20000024139881 -19.10000028461218,-33.900000505149364 l-18.500000275671482,-32.100000478327274 l17.100000254809856,-28.60000042617321 c9.300000138580799,-15.800000235438347 17.00000025331974,-28.90000043064356 17.00000025331974,-29.200000435113907 c0,-0.20000000298023224 -8.400000125169754,-0.30000000447034836 -18.700000278651714,-0.20000000298023224 l-18.80000028014183,0.30000000447034836 l-11.700000174343586,23.70000035315752 l-11.800000175833702,23.800000354647636 l-5.500000081956387,0 l-5.500000081956387,0 l0,-24.00000035762787 l0,-24.00000035762787 l-15.500000230967999,0 l-15.500000230967999,0 l0,63.000000938773155 z" id="svg_8" class="selected"/><path d="M1724.0000256597996,325.99999256432056 l0,63.000000938773155 l43.50000064820051,0 l43.60000064969063,0 l-0.30000000447034836,-12.300000183284283 l-0.30000000447034836,-12.200000181794167 l-27.700000412762165,-0.30000000447034836 l-27.80000041425228,-0.20000000298023224 l0,-14.000000208616257 l0,-14.000000208616257 l23.500000350177288,0 l23.500000350177288,0 l0,-11.500000171363354 l0,-11.500000171363354 l-21.90000032633543,0 c-12.10000018030405,0 -22.600000336766243,-0.30000000447034836 -23.500000350177288,-0.6000000089406967 c-1.3000000193715096,-0.5000000074505807 -1.600000023841858,-2.600000038743019 -1.600000023841858,-12.500000186264515 l0,-11.900000177323818 l28.000000417232513,0 l28.000000417232513,0 l0,-12.500000186264515 l0,-12.500000186264515 l-43.50000064820051,0 l-43.50000064820051,0 l0,63.000000938773155 z" id="svg_9" class="selected"/><path d="M1828.0000272095203,275.4999918118119 l0,12.500000186264515 l18.0000002682209,0 l18.0000002682209,0 l0,50.50000075250864 l0,50.600000753998756 l15.800000235438347,-0.30000000447034836 l15.70000023394823,-0.30000000447034836 l0.30000000447034836,-50.30000074952841 l0.20000000298023224,-50.20000074803829 l18.500000275671482,0 l18.500000275671482,0 l0,-12.500000186264515 l0,-12.500000186264515 l-52.50000078231096,0 l-52.50000078231096,0 l0,12.500000186264515 z" id="svg_10" class="selected"/><path d="M1955.0000291019678,325.99999256432056 l0,63.000000938773155 l15.500000230967999,0 l15.500000230967999,0 l0,-50.50000075250864 l0,-50.50000075250864 l21.500000320374966,0 l21.500000320374966,0 l0,50.50000075250864 l0,50.600000753998756 l15.800000235438347,-0.30000000447034836 l15.70000023394823,-0.30000000447034836 l0.30000000447034836,-62.80000093579292 l0.20000000298023224,-62.70000093430281 l-53.00000078976154,0 l-53.00000078976154,0 l0,63.000000938773155 z" id="svg_11" class="selected"/><path d="M2106.5000313594937,264.1999916434288 c-0.20000000298023224,0.700000010430813 -0.9000000134110452,15.500000230967999 -1.5000000223517418,32.80000048875809 c-1.2000000178813934,34.20000050961971 -2.0000000298023224,43.00000064074993 -5.000000074505806,53.00000078976154 c-2.400000035762787,8.200000122189522 -6.70000009983778,12.700000189244747 -13.100000195205212,13.800000205636024 l-4.400000065565109,0.800000011920929 l-0.30000000447034836,12.200000181794167 l-0.30000000447034836,12.200000181794167 l7.300000108778477,0 c24.2000003606081,-0.10000000149011612 36.90000054985285,-11.200000166893005 42.200000628829,-37.10000055283308 c1.9000000283122063,-9.200000137090683 3.200000047683716,-24.50000036507845 4.200000062584877,-47.20000070333481 l0.700000010430813,-16.700000248849392 l13.300000198185444,0 l13.40000019967556,0 l0,50.50000075250864 l0,50.50000075250864 l15.500000230967999,0 l15.500000230967999,0 l0,-63.000000938773155 l0,-63.000000938773155 l-43.50000064820051,0 c-34.00000050663948,0 -43.60000064969063,0.30000000447034836 -44.00000065565109,1.2000000178813934 z" id="svg_12" class="selected"/><path d="M2222.7000330910087,263.6999916359782 c-0.4000000059604646,0.30000000447034836 -0.700000010430813,28.700000427663326 -0.700000010430813,63.000000938773155 l0,62.30000092834234 l43.50000064820051,0 l43.50000064820051,0 l0,-12.500000186264515 l0,-12.500000186264515 l-27.500000409781933,0 l-27.500000409781933,0 l0,-14.000000208616257 l0,-14.000000208616257 l23.500000350177288,0 l23.500000350177288,0 l0,-11.500000171363354 l0,-11.500000171363354 l-22.70000033825636,-0.10000000149011612 c-12.600000187754631,-0.10000000149011612 -23.100000344216824,-0.10000000149011612 -23.500000350177288,0 c-0.5000000074505807,0 -0.800000011920929,-5.500000081956387 -0.800000011920929,-12.400000184774399 l0,-12.500000186264515 l27.500000409781933,0 l27.500000409781933,0 l0,-12.500000186264515 l0,-12.500000186264515 l-42.8000006377697,0 c-23.600000351667404,0 -43.200000643730164,0.30000000447034836 -43.50000064820051,0.700000010430813 z" id="svg_13" class="selected"/><path d="M2329.000034675002,325.99999256432056 l0,63.10000094026327 l15.70000023394823,-0.30000000447034836 l15.70000023394823,-0.30000000447034836 l21.600000321865082,-37.90000056475401 l21.500000320374966,-37.80000056326389 l0.30000000447034836,38.10000056773424 l0.20000000298023224,38.10000056773424 l15.500000230967999,0 l15.500000230967999,0 l0,-63.000000938773155 l0,-63.000000938773155 l-15.400000229477882,0 l-15.500000230967999,0 l-21.800000324845314,38.20000056922436 l-21.800000324845314,38.300000570714474 l-0.30000000447034836,-38.300000570714474 l-0.20000000298023224,-38.20000056922436 l-15.500000230967999,0 l-15.500000230967999,0 l0,63.000000938773155 z" id="svg_14" class="selected"/><path d="M771.6000114679337,447.49999437481165 c-8.900000132620335,2.3000000342726707 -17.00000025331974,7.1000001057982445 -23.400000348687172,13.90000020712614 c-6.500000096857548,7.000000104308128 -10.200000151991844,13.90000020712614 -13.300000198185444,25.200000375509262 c-3.200000047683716,11.10000016540289 -3.200000047683716,37.10000055283308 -0.10000000149011612,48.600000724196434 c6.800000101327896,25.100000374019146 22.600000336766243,38.20000056922436 47.70000071078539,39.50000058859587 c28.800000429153442,1.4000000208616257 49.900000743567944,-13.000000193715096 54.40000081062317,-37.200000554323196 c0.6000000089406967,-3.200000047683716 1.1000000163912773,-6.200000092387199 1.1000000163912773,-6.70000009983778 c0,-0.4000000059604646 -6.900000102818012,-0.800000011920929 -15.400000229477882,-0.800000011920929 l-15.500000230967999,0 l-1.1000000163912773,5.4000000804662704 c-2.0000000298023224,9.900000147521496 -8.300000123679638,14.500000216066837 -19.80000029504299,14.600000217556953 c-15.70000023394823,0 -20.800000309944153,-7.700000114738941 -21.90000032633543,-33.00000049173832 c-1.4000000208616257,-32.40000048279762 4.90000007301569,-45.9000006839633 21.1000003144145,-46.000000685453415 c12.500000186264515,0 18.600000277161598,4.300000064074993 20.800000309944153,15.000000223517418 l1.2000000178813934,6.000000089406967 l15.400000229477882,0 l15.500000230967999,0 l-0.700000010430813,-4.300000064074993 c-3.0000000447034836,-19.10000028461218 -14.70000021904707,-33.20000049471855 -32.50000048428774,-38.800000578165054 c-8.700000129640102,-2.8000000417232513 -25.300000376999378,-3.400000050663948 -33.5000004991889,-1.4000000208616257 z" id="svg_15" class="selected"/><path d="M2001.1000297889113,447.49999437481165 c-15.20000022649765,3.400000050663948 -27.000000402331352,12.200000181794167 -31.000000461935997,23.000000342726707 c-1.2000000178813934,3.1000000461935997 -2.1000000312924385,7.1000001057982445 -2.1000000312924385,9.00000013411045 l0,3.500000052154064 l15.400000229477882,0 l15.400000229477882,0 l0.700000010430813,-2.9000000432133675 c1.9000000283122063,-8.800000131130219 16.900000251829624,-12.600000187754631 26.00000038743019,-6.70000009983778 c6.000000089406967,3.9000000581145287 6.70000009983778,14.100000210106373 1.5000000223517418,19.900000296533108 c-3.0000000447034836,3.400000050663948 -8.00000011920929,4.500000067055225 -20.200000301003456,4.6000000685453415 l-7.800000116229057,0.10000000149011612 l0,11.500000171363354 l0,11.500000171363354 l10.800000160932541,0.10000000149011612 c12.700000189244747,0 16.800000250339508,1.2000000178813934 19.900000296533108,5.800000086426735 c3.400000050663948,5.000000074505806 3.200000047683716,13.800000205636024 -0.30000000447034836,18.0000002682209 c-2.500000037252903,3.0000000447034836 -10.100000150501728,6.100000090897083 -14.800000220537186,6.100000090897083 c-7.200000107288361,0 -16.600000247359276,-6.100000090897083 -16.600000247359276,-10.600000157952309 l0,-2.400000035762787 l-16.100000239908695,0 l-16.20000024139881,0 l0.700000010430813,5.100000075995922 c3.1000000461935997,23.000000342726707 31.20000046491623,36.500000543892384 63.300000943243504,30.4000004529953 c14.600000217556953,-2.8000000417232513 25.400000378489494,-10.000000149011612 31.000000461935997,-20.700000308454037 c2.500000037252903,-4.700000070035458 2.8000000417232513,-6.3000000938773155 2.8000000417232513,-14.800000220537186 c0,-8.400000125169754 -0.30000000447034836,-10.100000150501728 -2.7000000402331352,-14.600000217556953 c-2.8000000417232513,-5.300000078976154 -7.700000114738941,-10.30000015348196 -12.90000019222498,-12.90000019222498 l-3.0000000447034836,-1.600000023841858 l3.9000000581145287,-2.8000000417232513 c9.700000144541264,-7.1000001057982445 13.800000205636024,-15.900000236928463 12.90000019222498,-27.400000408291817 c-1.3000000193715096,-15.500000230967999 -10.700000159442425,-25.600000381469727 -28.000000417232513,-30.300000451505184 c-8.00000011920929,-2.2000000327825546 -25.00000037252903,-2.7000000402331352 -32.600000485777855,-0.9000000134110452 z" id="svg_16" class="selected"/><path d="M2368.8000352680683,447.49999437481165 c-27.3000004068017,6.900000102818012 -41.900000624358654,33.400000497698784 -39.300000585615635,71.00000105798244 c2.500000037252903,35.50000052899122 19.400000289082527,54.6000008136034 50.00000074505806,56.20000083744526 c28.60000042617321,1.5000000223517418 50.00000074505806,-13.100000195205212 54.40000081062317,-37.10000055283308 c0.6000000089406967,-3.300000049173832 1.1000000163912773,-6.3000000938773155 1.1000000163912773,-6.800000101327896 c0,-0.4000000059604646 -6.900000102818012,-0.800000011920929 -15.400000229477882,-0.800000011920929 l-15.500000230967999,0 l-1.1000000163912773,5.4000000804662704 c-2.0000000298023224,9.900000147521496 -8.300000123679638,14.500000216066837 -19.80000029504299,14.600000217556953 c-15.70000023394823,0 -20.800000309944153,-7.700000114738941 -21.90000032633543,-33.00000049173832 c-1.4000000208616257,-32.40000048279762 4.90000007301569,-45.9000006839633 21.1000003144145,-46.000000685453415 c12.500000186264515,0 18.600000277161598,4.300000064074993 20.800000309944153,15.000000223517418 l1.2000000178813934,6.000000089406967 l15.400000229477882,0 l15.400000229477882,0 l-0.700000010430813,-4.300000064074993 c-3.0000000447034836,-19.200000286102295 -14.500000216066837,-33.100000493228436 -32.40000048279762,-38.800000578165054 c-8.600000128149986,-2.8000000417232513 -25.200000375509262,-3.500000052154064 -33.30000049620867,-1.4000000208616257 z" id="svg_17" class="selected"/><path d="M622.6000092476606,478.6999948397279 c8.600000128149986,17.00000025331974 18.80000028014183,36.700000546872616 22.500000335276127,43.900000654160976 l6.900000102818012,13.100000195205212 l-1.5000000223517418,4.400000065565109 c-2.8000000417232513,7.800000116229057 -7.500000111758709,10.900000162422657 -16.50000024586916,10.900000162422657 l-5.000000074505806,0 l0,12.10000018030405 l0,12.10000018030405 l10.30000015348196,-0.4000000059604646 c8.400000125169754,-0.30000000447034836 11.200000166893005,-0.800000011920929 15.900000236928463,-3.0000000447034836 c7.200000107288361,-3.400000050663948 13.500000201165676,-9.700000144541264 18.0000002682209,-18.500000275671482 c3.300000049173832,-6.200000092387199 43.30000064522028,-99.40000148117542 44.50000066310167,-103.6000015437603 c0.5000000074505807,-1.600000023841858 -0.6000000089406967,-1.700000025331974 -16.20000024139881,-1.5000000223517418 l-16.700000248849392,0.30000000447034836 l-9.600000143051147,25.200000375509262 c-5.300000078976154,13.90000020712614 -9.80000014603138,25.300000376999378 -10.100000150501728,25.300000376999378 c-0.4000000059604646,0 -6.000000089406967,-11.500000171363354 -12.500000186264515,-25.50000037997961 l-12.000000178813934,-25.50000037997961 l-16.900000251829624,0 l-16.800000250339508,0 l15.70000023394823,30.70000045746565 z" id="svg_18" class="selected"/><path d="M878.6000130623579,467.1999946683645 c-2.500000037252903,69.00000102818012 -4.90000007301569,79.00000117719173 -19.80000029504299,81.40000121295452 l-3.8000000566244125,0.700000010430813 l0,11.900000177323818 l0,12.000000178813934 l10.800000160932541,-0.30000000447034836 c9.80000014603138,-0.4000000059604646 11.400000169873238,-0.700000010430813 17.50000026077032,-3.7000000551342964 c7.500000111758709,-3.7000000551342964 12.200000181794167,-8.800000131130219 16.20000024139881,-17.400000259280205 c5.100000075995922,-11.200000166893005 6.900000102818012,-24.50000036507845 9.100000135600567,-66.60000099241734 l0.6000000089406967,-13.200000196695328 l13.40000019967556,0 l13.40000019967556,0 l0,50.50000075250864 l0,50.50000075250864 l15.500000230967999,0 l15.500000230967999,0 l0,-62.500000931322575 l0,-62.500000931322575 l-43.900000654160976,0 l-43.80000065267086,0 l-0.700000010430813,19.200000286102295 z" id="svg_19" class="selected"/><path d="M986.0000146627426,448.2999943867326 c0,0.20000000298023224 10.100000150501728,20.10000029951334 22.500000335276127,44.200000658631325 l22.40000033378601,43.900000654160976 l-2.3000000342726707,5.200000077486038 c-3.1000000461935997,6.70000009983778 -6.200000092387199,8.700000129640102 -14.200000211596489,9.200000137090683 l-6.400000095367432,0.4000000059604646 l0,12.000000178813934 l0,12.000000178813934 l10.30000015348196,-0.4000000059604646 c12.500000186264515,-0.5000000074505807 19.30000028759241,-3.300000049173832 26.00000038743019,-10.700000159442425 c6.000000089406967,-6.800000101327896 8.600000128149986,-12.000000178813934 24.70000036805868,-50.100000746548176 c7.800000116229057,-18.400000274181366 17.30000025779009,-40.70000060647726 21.000000312924385,-49.50000073760748 l6.800000101327896,-16.00000023841858 l-16.00000023841858,-0.30000000447034836 c-8.900000132620335,-0.10000000149011612 -16.50000024586916,0.10000000149011612 -16.800000250339508,0.5000000074505807 c-0.4000000059604646,0.5000000074505807 -4.90000007301569,11.800000175833702 -10.000000149011612,25.300000376999378 c-5.100000075995922,13.500000201165676 -9.500000141561031,24.800000369548798 -9.900000147521496,25.200000375509262 c-0.30000000447034836,0.4000000059604646 -6.100000090897083,-10.800000160932541 -12.700000189244747,-25.00000037252903 l-12.000000178813934,-25.700000382959843 l-16.700000248849392,-0.30000000447034836 c-9.200000137090683,-0.10000000149011612 -16.700000248849392,-0.10000000149011612 -16.700000248849392,0.10000000149011612 z" id="svg_20" class="selected"/><path d="M1116.0000165998936,510.4999953135848 l0,62.500000931322575 l15.500000230967999,0 l15.500000230967999,0 l0,-50.50000075250864 l0,-50.50000075250864 l27.000000402331352,0 l27.000000402331352,0 l0,-12.000000178813934 l0,-12.000000178813934 l-42.50000063329935,0 l-42.50000063329935,0 l0,62.500000931322575 z" id="svg_21" class="selected"/><path d="M1299.6000193357468,451.19999442994595 c-0.30000000447034836,1.8000000268220901 -1.2000000178813934,13.90000020712614 -2.1000000312924385,26.80000039935112 c-3.0000000447034836,44.50000066310167 -5.800000086426735,57.50000085681677 -14.500000216066837,67.30000100284815 c-2.9000000432133675,3.300000049173832 -3.7000000551342964,3.7000000551342964 -8.200000122189522,3.7000000551342964 l-5.100000075995922,0 l0.700000010430813,15.20000022649765 c0.30000000447034836,8.400000125169754 0.9000000134110452,20.800000309944153 1.2000000178813934,27.500000409781933 l0.6000000089406967,12.300000183284283 l14.400000214576721,0 l14.300000213086605,0 l0.30000000447034836,-15.300000227987766 l0.30000000447034836,-15.20000022649765 l33.00000049173832,0 l33.00000049173832,0 l0.30000000447034836,15.20000022649765 l0.30000000447034836,15.300000227987766 l13.90000020712614,0 c12.700000189244747,0 14.000000208616257,-0.20000000298023224 14.000000208616257,-1.8000000268220901 c0,-0.9000000134110452 0.700000010430813,-11.800000175833702 1.5000000223517418,-24.2000003606081 c0.800000011920929,-12.400000184774399 1.5000000223517418,-24.00000035762787 1.5000000223517418,-25.80000038444996 l0,-3.200000047683716 l-6.500000096857548,0 l-6.500000096857548,0 l0,-50.50000075250864 l0,-50.50000075250864 l-43.00000064074993,0 l-42.900000639259815,0 l-0.5000000074505807,3.200000047683716 zm54.40000081062317,59.30000088363886 l0,38.500000573694706 l-19.400000289082527,0 l-19.500000290572643,0 l2.400000035762787,-5.300000078976154 c6.100000090897083,-13.90000020712614 8.800000131130219,-27.500000409781933 10.600000157952309,-53.60000079870224 l1.2000000178813934,-18.100000269711018 l12.400000184774399,0 l12.300000183284283,0 l0,38.500000573694706 z" id="svg_22" class="selected"/><path d="M1437.600021392107,466.69999466091394 c-2.500000037252903,69.70000103861094 -4.90000007301569,79.50000118464231 -19.80000029504299,81.9000012204051 l-3.8000000566244125,0.700000010430813 l0,12.000000178813934 l0,12.000000178813934 l10.900000162422657,-0.5000000074505807 c9.80000014603138,-0.4000000059604646 11.60000017285347,-0.800000011920929 17.50000026077032,-3.7000000551342964 c7.400000110268593,-3.6000000536441807 11.300000168383121,-7.800000116229057 15.70000023394823,-16.600000247359276 c5.4000000804662704,-11.000000163912773 7.000000104308128,-22.500000335276127 9.500000141561031,-68.30000101774931 l0.6000000089406967,-12.200000181794167 l13.40000019967556,0 l13.40000019967556,0 l0,50.50000075250864 l0,50.50000075250864 l15.500000230967999,0 l15.500000230967999,0 l0,-62.500000931322575 l0,-62.500000931322575 l-43.900000654160976,0 l-43.900000654160976,0 l-0.6000000089406967,18.700000278651714 z" id="svg_23" class="selected"/><path d="M1576.4000234603882,449.499994404614 c-12.700000189244747,2.7000000402331352 -21.700000323355198,9.200000137090683 -26.600000396370888,19.30000028759241 c-3.200000047683716,6.400000095367432 -3.300000049173832,7.200000107288361 -3.300000049173832,18.200000271201134 c0,10.400000154972076 0.30000000447034836,12.000000178813934 2.7000000402331352,17.30000025779009 c1.5000000223517418,3.200000047683716 4.90000007301569,7.800000116229057 7.700000114738941,10.500000156462193 l4.90000007301569,4.700000070035458 l-12.400000184774399,26.30000039190054 c-6.800000101327896,14.400000214576721 -12.400000184774399,26.400000393390656 -12.400000184774399,26.700000397861004 c0,0.30000000447034836 7.600000113248825,0.5000000074505807 16.800000250339508,0.5000000074505807 l16.800000250339508,0 l10.30000015348196,-21.500000320374966 l10.400000154972076,-21.500000320374966 l8.300000123679638,0 l8.400000125169754,0 l0,21.500000320374966 l0,21.500000320374966 l15.500000230967999,0 l15.500000230967999,0 l0,-62.500000931322575 l0,-62.500000931322575 l-28.200000420212746,0.10000000149011612 c-19.500000290572643,0 -30.200000450015068,0.5000000074505807 -34.400000512599945,1.4000000208616257 zm31.600000470876694,40.00000059604645 l0,17.50000026077032 l-10.200000151991844,0 c-16.900000251829624,0 -21.200000315904617,-3.8000000566244125 -20.60000030696392,-18.200000271201134 c0.5000000074505807,-13.100000195205212 5.100000075995922,-16.800000250339508 21.1000003144145,-16.800000250339508 l9.700000144541264,0 l0,17.50000026077032 z" id="svg_24" class="selected"/><path d="M1718.0000255703926,510.5999953150749 l0,62.60000093281269 l31.300000466406345,-0.4000000059604646 c29.10000043362379,-0.4000000059604646 31.600000470876694,-0.6000000089406967 37.10000055283308,-2.600000038743019 c12.200000181794167,-4.500000067055225 20.700000308454037,-11.900000177323818 25.50000037997961,-22.100000329315662 c2.3000000342726707,-5.000000074505806 2.600000038743019,-6.800000101327896 2.600000038743019,-16.600000247359276 c0,-10.000000149011612 -0.30000000447034836,-11.500000171363354 -2.7000000402331352,-16.600000247359276 c-4.800000071525574,-9.600000143051147 -13.300000198185444,-16.700000248849392 -25.50000037997961,-21.1000003144145 c-4.500000067055225,-1.700000025331974 -9.100000135600567,-2.3000000342726707 -20.800000309944153,-2.7000000402331352 l-15.000000223517418,-0.6000000089406967 l-0.30000000447034836,-9.300000138580799 l-0.30000000447034836,-9.200000137090683 l27.10000040382147,0 l27.000000402331352,0 l0,-12.000000178813934 l0,-12.000000178813934 l-43.00000064074993,0 l-43.00000064074993,0 l0,62.60000093281269 zm54.20000080764294,5.4000000804662704 c2.1000000312924385,0.6000000089406967 5.100000075995922,2.7000000402331352 7.200000107288361,5.000000074505806 c3.200000047683716,3.6000000536441807 3.6000000536441807,4.6000000685453415 3.6000000536441807,9.600000143051147 c0,7.200000107288361 -2.3000000342726707,11.900000177323818 -7.300000108778477,15.20000022649765 c-3.6000000536441807,2.400000035762787 -5.100000075995922,2.7000000402331352 -14.900000222027302,3.1000000461935997 l-10.800000160932541,0.30000000447034836 l0,-17.100000254809856 l0,-17.100000254809856 l9.300000138580799,0 c5.000000074505806,0 10.800000160932541,0.5000000074505807 12.90000019222498,1.0000000149011612 z" id="svg_25" class="selected"/><path d="M1836.0000273287296,510.4999953135848 l0,62.500000931322575 l16.20000024139881,-0.20000000298023224 l16.100000239908695,-0.30000000447034836 l21.40000031888485,-37.500000558793545 l21.300000317394733,-37.40000055730343 l0,37.70000056177378 l0,37.70000056177378 l16.00000023841858,0 l16.00000023841858,0 l0,-62.500000931322575 l0,-62.500000931322575 l-15.900000236928463,0 l-16.00000023841858,0 l-21.300000317394733,37.40000055730343 l-21.300000317394733,37.40000055730343 l-0.30000000447034836,-37.40000055730343 l-0.20000000298023224,-37.40000055730343 l-16.00000023841858,0 l-16.00000023841858,0 l0,62.500000931322575 z" id="svg_26" class="selected"/><path d="M2091.0000311285257,510.4999953135848 l0,62.500000931322575 l15.500000230967999,0 l15.500000230967999,0 l0,-26.00000038743019 l0,-26.00000038743019 l21.500000320374966,0 l21.500000320374966,0 l0,26.00000038743019 l0,26.00000038743019 l15.500000230967999,0 l15.500000230967999,0 l0,-62.500000931322575 l0,-62.500000931322575 l-15.500000230967999,0 l-15.500000230967999,0 l0,24.50000036507845 l0,24.50000036507845 l-21.500000320374966,0 l-21.500000320374966,0 l0,-24.50000036507845 l0,-24.50000036507845 l-15.500000230967999,0 l-15.500000230967999,0 l0,62.500000931322575 z" id="svg_27" class="selected"/><path d="M2224.00003311038,510.4999953135848 l0,62.500000931322575 l43.50000064820051,0 l43.50000064820051,0 l0,-12.000000178813934 l0,-12.000000178813934 l-27.500000409781933,0 l-27.500000409781933,0 l0,-14.000000208616257 l0,-14.000000208616257 l23.300000347197056,-0.20000000298023224 l23.20000034570694,-0.30000000447034836 l0.30000000447034836,-11.800000175833702 l0.30000000447034836,-11.700000174343586 l-23.600000351667404,0 l-23.500000350177288,0 l0,-12.500000186264515 l0,-12.500000186264515 l28.10000041872263,0 l28.000000417232513,0 l-0.20000000298023224,-12.000000178813934 l-0.20000000298023224,-12.000000178813934 l-43.900000654160976,0 l-43.80000065267086,0 l0,62.500000931322575 z" id="svg_28" class="selected"/><path d="M2494.0000371336937,448.19999438524246 c-0.10000000149011612,0.20000000298023224 -10.30000015348196,28.200000420212746 -22.90000034123659,62.30000092834234 l-22.70000033825636,62.000000923871994 l16.400000244379044,0.30000000447034836 c9.100000135600567,0.10000000149011612 16.600000247359276,0.10000000149011612 16.800000250339508,-0.10000000149011612 c0.20000000298023224,-0.20000000298023224 1.9000000283122063,-5.300000078976154 3.7000000551342964,-11.300000168383121 l3.400000050663948,-10.900000162422657 l20.000000298023224,-0.30000000447034836 l20.10000029951334,-0.20000000298023224 l3.200000047683716,10.200000151991844 c1.700000025331974,5.700000084936619 3.300000049173832,10.900000162422657 3.500000052154064,11.500000171363354 c0.5000000074505807,1.600000023841858 33.5000004991889,1.9000000283122063 33.5000004991889,0.4000000059604646 c0,-0.5000000074505807 -9.700000144541264,-27.200000405311584 -21.600000321865082,-59.30000088363886 c-11.900000177323818,-32.100000478327274 -22.100000329315662,-59.80000089108944 -22.70000033825636,-61.60000091791153 l-1.0000000149011612,-3.200000047683716 l-14.900000222027302,0 c-8.100000120699406,0 -14.800000220537186,0.10000000149011612 -14.800000220537186,0.20000000298023224 zm21.40000031888485,58.50000087171793 c3.1000000461935997,9.900000147521496 5.600000083446503,18.400000274181366 5.600000083446503,18.700000278651714 c0,0.30000000447034836 -5.4000000804662704,0.6000000089406967 -12.000000178813934,0.6000000089406967 c-8.300000123679638,0 -12.000000178813934,-0.4000000059604646 -12.000000178813934,-1.1000000163912773 c0,-2.7000000402331352 11.400000169873238,-37.90000056475401 12.10000018030405,-37.200000554323196 c0.30000000447034836,0.5000000074505807 3.200000047683716,9.00000013411045 6.3000000938773155,19.000000283122063 z" id="svg_29" class="selected"/></g></svg>
