<?xml version="1.0" encoding="UTF-8"?><svg id="a" xmlns="http://www.w3.org/2000/svg" viewBox="0 0 604 176"><defs><style>.b{fill:none;stroke:#000;stroke-miterlimit:10;}.c{fill:#5f5c5a;}.d{fill:#12100b;}</style></defs><g><g><path class="d" d="M457.26,67.8v-19.19h5.76l5.76,6.53,5.33-6.53h5.59v19.19h-6.4v-9.43l-4.65,5.33h-.13l-4.86-5.33v9.43h-6.4Z"/><path class="d" d="M482.38,58.21c0-2.94,.98-5.33,2.9-7.25,1.96-1.92,4.56-2.86,7.76-2.86s5.8,.94,7.72,2.86c1.96,1.92,2.94,4.31,2.94,7.25s-.98,5.33-2.94,7.25c-1.92,1.92-4.52,2.86-7.72,2.86s-5.8-.94-7.76-2.86c-1.92-1.92-2.9-4.31-2.9-7.25Zm10.66,4.14c2.22,0,3.84-1.58,3.84-4.14s-1.66-4.14-3.84-4.14-3.84,1.62-3.84,4.14,1.62,4.14,3.84,4.14Z"/><path class="d" d="M512.79,67.8h-6.4v-19.19h6.4v10.02l6.82-10.02h6.4v19.19h-6.4v-10.02l-6.82,10.02Zm1.79-28.58c0,1.66,.6,2.47,1.79,2.47,1.07,0,1.62-.81,1.62-2.47h5.54c0,4.22-2.56,7.25-7.17,7.25-4.99,0-7.34-2.94-7.34-7.25h5.54Z"/><path class="d" d="M423.52,65.8c-.68,.94-1.49,1.58-2.47,1.92-.98,.34-2.18,.64-3.58,.85-1.41,.21-2.64,.6-3.71,1.07-2.9,1.32-4.52,4.39-4.86,9.26h.09c1.24-2.69,4.35-4.48,7.59-4.48,5.46,0,8.91,3.75,8.91,9.55,0,2.73-.94,5.08-2.77,6.99-1.83,1.92-4.22,2.86-7.08,2.86-3.11,0-5.59-1.07-7.42-3.2-1.83-2.13-2.73-5.03-2.73-8.74,0-8.32,2.39-13.48,7.12-15.48,1.15-.51,2.43-.85,3.75-1.07,2.69-.47,4.18-.73,5.33-2.22l1.83,2.69Zm-7.98,24.82c1.83,0,3.37-.64,4.52-1.88,1.19-1.24,1.79-2.77,1.79-4.61,0-3.88-2.26-6.53-6.14-6.53-1.71,0-3.16,.47-4.35,1.45-1.19,.98-1.96,2.13-2.26,3.45,0,4.9,2.64,8.1,6.44,8.1Z"/><path class="d" d="M431.97,93.39h-3.41v-19.19h3.41v14.29l11.09-14.29h3.41v19.19h-3.41v-14.29l-11.09,14.29Z"/><path class="d" d="M452.57,93.09c-1.58-.51-2.69-1.15-3.33-1.88l1.75-2.56c1.54,1.24,3.92,2.09,5.67,2.09,2.94,0,5.03-1.28,5.03-3.16,0-1.58-1.41-2.47-3.75-2.47h-3.24v-2.77h3.03c1.92,0,3.33-1.19,3.33-2.73,0-1.71-1.58-2.77-4.09-2.77-2.05,0-3.97,.72-5.76,2.13l-1.32-2.64c1.54-1.58,4.52-2.56,7.59-2.56,4.61,0,7.21,1.96,7.21,5.16,0,2.22-1.11,3.71-3.37,4.52v.09c2.56,.3,4.01,2.18,4.01,4.52,0,3.54-3.33,5.76-8.15,5.76-1.49,0-3.03-.26-4.61-.73Z"/><path class="d" d="M482.76,93.39v-8.1h-10.66v8.1h-3.41v-19.19h3.41v7.89h10.66v-7.89h3.41v19.19h-3.41Z"/><path class="d" d="M506.73,91.3c-1.83,1.66-4.27,2.52-7.21,2.52-3.11,0-5.59-.9-7.46-2.73-1.88-1.83-2.81-4.27-2.81-7.29s.9-5.29,2.64-7.17c1.75-1.92,4.18-2.86,7.25-2.86,2.52,0,4.65,.81,6.36,2.47,1.71,1.62,2.56,3.71,2.56,6.31,0,.9-.09,1.66-.21,2.3h-14.76c.3,3.58,2.9,5.76,6.7,5.76,2.52,0,4.48-.68,5.89-2l1.07,2.69Zm-13.86-9.21h11.64c-.17-3.2-2.26-5.12-5.54-5.12s-5.72,2.09-6.1,5.12Z"/><path class="d" d="M526.99,90.62c-1.58,2.05-4.35,3.2-7.38,3.2s-5.54-.9-7.46-2.73c-1.88-1.83-2.81-4.27-2.81-7.29,0-2.81,.94-5.2,2.77-7.12,1.83-1.92,4.18-2.9,6.95-2.9,3.37,0,5.89,.85,7.55,2.52l-1.58,2.69c-1.45-1.32-3.28-2-5.5-2-1.79,0-3.33,.64-4.65,1.96-1.28,1.28-1.92,2.9-1.92,4.86s.64,3.71,1.96,4.95c1.32,1.24,2.99,1.88,4.95,1.88,2.22,0,4.05-.81,5.5-2.47l1.62,2.47Z"/></g><g><polygon class="d" points="566.8 99.46 560.39 93.06 553.98 99.46 560.39 112.84 566.8 99.46"/><g><path class="d" d="M560.36,56.25c-2.46,0-4.45,1.99-4.45,4.45s1.99,4.45,4.45,4.45,4.45-1.99,4.45-4.45-1.99-4.45-4.45-4.45"/><path class="d" d="M560.39,36.26c-1.36,.7-19.08,10.06-19.08,25.03,0,12.8,10.43,32.22,10.43,32.22l8.65-8.67,8.65,8.67s10.44-19.42,10.44-32.22c0-14.97-17.73-24.34-19.09-25.03m5.71,42.74l-5.71-5.72-5.71,5.72c-.29-.79-4.12-11.15-4.12-17.91,0-9.12,9.14-14.22,9.83-14.6,.69,.37,9.83,5.48,9.83,14.6,0,6.76-3.83,17.12-4.12,17.91"/><rect class="d" x="574.86" y="31.65" width="9.22" height="9.22" transform="translate(144.08 420.37) rotate(-45)"/></g></g><g><path class="d" d="M402.7,108.73h-2.9v3.74h-1.21v-8.39h1.21v3.56h2.9v-3.56h1.21v8.39h-1.21v-3.74Z"/><path class="d" d="M405.71,104.59c.32-.2,.72-.36,1.18-.47,.46-.11,.95-.17,1.47-.17,.47,0,.85,.07,1.13,.21,.29,.14,.51,.33,.67,.57,.16,.24,.27,.51,.32,.82,.05,.31,.08,.63,.08,.96,0,.67-.01,1.33-.04,1.96-.03,.64-.04,1.24-.04,1.81,0,.43,.01,.82,.04,1.18,.03,.36,.08,.71,.16,1.03h-.95l-.29-.99h-.07c-.17,.29-.41,.54-.73,.76-.32,.21-.76,.32-1.3,.32-.6,0-1.09-.21-1.47-.63-.38-.42-.57-1-.57-1.74,0-.48,.08-.88,.24-1.21,.16-.32,.39-.59,.68-.79,.29-.2,.64-.34,1.05-.43,.4-.08,.86-.13,1.36-.13h.33c.11,0,.23,0,.35,.02,.03-.35,.05-.65,.05-.92,0-.64-.09-1.08-.28-1.34-.19-.26-.53-.39-1.03-.39-.31,0-.65,.05-1.01,.14-.37,.09-.67,.22-.91,.36l-.4-.96Zm3.61,4.06c-.11-.01-.22-.02-.33-.03-.11,0-.22,0-.33,0-.27,0-.53,.02-.78,.07-.25,.04-.48,.12-.68,.23s-.36,.26-.47,.45c-.12,.19-.17,.43-.17,.72,0,.45,.11,.79,.32,1.04,.22,.25,.49,.37,.84,.37,.46,0,.82-.11,1.08-.34,.26-.22,.43-.47,.53-.74v-1.78Z"/><path class="d" d="M418.58,114.61h-.84l-.2-2.13h-5.12v-8.39h1.21v7.3h2.77v-7.3h1.21v7.3h.97v3.22Z"/><path class="d" d="M423.93,107.64l.1-1.28h-.07l-.59,1.41-2.84,4.7h-.79v-8.39h1.21v4.98l-.1,1.23h.07l.55-1.38,2.87-4.83h.79v8.39h-1.21v-4.83Z"/><path class="d" d="M426.67,108.28c0-1.51,.26-2.62,.78-3.33,.52-.71,1.26-1.07,2.22-1.07,1.03,0,1.79,.36,2.27,1.09,.49,.73,.73,1.83,.73,3.31s-.26,2.63-.79,3.34c-.53,.7-1.26,1.06-2.21,1.06-1.03,0-1.79-.36-2.27-1.09-.49-.73-.73-1.83-.73-3.31Zm1.26,0c0,.49,.03,.94,.09,1.34,.06,.4,.16,.75,.3,1.04,.14,.29,.32,.52,.55,.68,.22,.16,.49,.24,.81,.24,.58,0,1.02-.26,1.31-.78,.29-.52,.44-1.36,.44-2.53,0-.48-.03-.93-.09-1.33-.06-.41-.16-.76-.3-1.05-.14-.29-.32-.52-.55-.68-.22-.16-.49-.24-.81-.24-.57,0-1,.26-1.3,.79-.3,.53-.44,1.36-.44,2.52Z"/><path class="d" d="M438.31,108.73h-2.9v3.74h-1.21v-8.39h1.21v3.56h2.9v-3.56h1.21v8.39h-1.21v-3.74Z"/><path class="d" d="M441.31,104.59c.32-.2,.72-.36,1.18-.47,.46-.11,.95-.17,1.47-.17,.47,0,.85,.07,1.13,.21,.29,.14,.51,.33,.67,.57,.16,.24,.27,.51,.32,.82,.05,.31,.08,.63,.08,.96,0,.67-.01,1.33-.04,1.96-.03,.64-.04,1.24-.04,1.81,0,.43,.01,.82,.04,1.18,.03,.36,.08,.71,.16,1.03h-.95l-.29-.99h-.07c-.17,.29-.41,.54-.73,.76-.32,.21-.76,.32-1.3,.32-.6,0-1.09-.21-1.47-.63-.38-.42-.57-1-.57-1.74,0-.48,.08-.88,.24-1.21,.16-.32,.39-.59,.68-.79,.29-.2,.64-.34,1.05-.43,.4-.08,.86-.13,1.36-.13h.33c.11,0,.23,0,.35,.02,.03-.35,.05-.65,.05-.92,0-.64-.1-1.08-.28-1.34-.19-.26-.53-.39-1.03-.39-.31,0-.65,.05-1.01,.14-.37,.09-.67,.22-.91,.36l-.4-.96Zm3.61,4.06c-.11-.01-.22-.02-.33-.03-.11,0-.22,0-.33,0-.27,0-.53,.02-.78,.07-.25,.04-.48,.12-.68,.23-.2,.11-.36,.26-.47,.45-.12,.19-.17,.43-.17,.72,0,.45,.11,.79,.32,1.04,.22,.25,.49,.37,.84,.37,.46,0,.82-.11,1.08-.34,.26-.22,.43-.47,.53-.74v-1.78Z"/><path class="d" d="M451.67,105.17h-1.83c-.03,.95-.08,1.87-.13,2.76-.06,.89-.15,1.68-.29,2.36-.14,.68-.34,1.23-.6,1.64-.26,.41-.6,.61-1.02,.61-.19,0-.35-.01-.49-.03-.13-.02-.26-.06-.37-.12l.18-1.04c.23,.07,.44,.05,.63-.04,.18-.09,.34-.39,.48-.87,.13-.49,.24-1.23,.33-2.24,.08-1,.14-2.37,.18-4.11h4.14v8.39h-1.21v-7.3Z"/><path class="d" d="M455.98,107.29c.22-.04,.44-.08,.64-.09,.2-.02,.39-.03,.57-.03,.47,0,.87,.06,1.19,.19,.32,.13,.59,.31,.79,.53,.2,.22,.35,.49,.44,.8,.09,.31,.13,.63,.13,.98,0,1.02-.25,1.76-.74,2.21-.49,.46-1.26,.69-2.32,.69-.66,0-1.3-.03-1.91-.1v-8.39h1.21v3.21Zm0,4.09c.34,.07,.64,.1,.92,.1,1.05,0,1.58-.55,1.58-1.66,0-.5-.12-.9-.37-1.18-.25-.29-.64-.43-1.17-.43-.15,0-.3,0-.47,.02-.17,.02-.33,.05-.49,.09v3.05Z"/><path class="d" d="M465.13,108.73h-2.9v3.74h-1.21v-8.39h1.21v3.56h2.9v-3.56h1.21v8.39h-1.21v-3.74Z"/><path class="d" d="M469.42,107.29c.22-.04,.44-.08,.64-.09,.2-.02,.39-.03,.57-.03,.46,0,.84,.06,1.16,.19,.31,.13,.56,.31,.75,.53,.18,.22,.32,.49,.39,.8,.08,.31,.12,.63,.12,.98,0,1.02-.23,1.76-.68,2.21-.45,.46-1.21,.69-2.26,.69-.65,0-1.28-.03-1.9-.1v-8.39h1.21v3.21Zm0,4.09c.34,.07,.64,.1,.92,.1,.54,0,.91-.14,1.12-.43,.21-.29,.32-.7,.32-1.23,0-.5-.1-.9-.31-1.18-.21-.29-.57-.43-1.1-.43-.15,0-.3,0-.47,.02-.17,.02-.33,.05-.49,.09v3.05Zm4.63-7.3h1.21v8.39h-1.21v-8.39Z"/><path class="d" d="M481.34,107.64l.1-1.28h-.07l-.59,1.41-2.84,4.7h-.79v-8.39h1.21v4.98l-.1,1.23h.07l.55-1.38,2.87-4.83h.79v8.39h-1.21v-4.83Zm-2.53-6.95c.06,.51,.19,.88,.41,1.1,.22,.22,.47,.33,.76,.33s.55-.12,.76-.35c.22-.23,.36-.59,.41-1.06l.92,.27c-.09,.67-.33,1.18-.73,1.54-.4,.35-.86,.53-1.4,.53-.26,0-.51-.04-.75-.11-.24-.07-.46-.19-.65-.35-.2-.16-.36-.37-.5-.63-.13-.26-.22-.57-.27-.94l1.02-.32Z"/><path class="d" d="M491.94,105.17h-2.82v7.3h-1.21v-8.39h5.24v8.39h-1.21v-7.3Z"/><path class="d" d="M495.05,104.08h.86l.18,.91h.07c.41-.74,1.06-1.11,1.95-1.11s1.55,.33,1.99,.99c.44,.66,.66,1.74,.66,3.24,0,.7-.07,1.34-.22,1.9-.15,.57-.35,1.05-.62,1.44-.27,.4-.6,.7-.98,.91-.39,.21-.81,.31-1.28,.31-.33,0-.58-.02-.77-.06-.19-.04-.4-.12-.62-.24v3.46h-1.21v-11.75Zm1.21,7.06c.16,.13,.33,.24,.53,.32,.2,.08,.46,.12,.78,.12,.59,0,1.06-.3,1.41-.91,.35-.6,.52-1.47,.52-2.58,0-.47-.03-.89-.09-1.28-.06-.38-.16-.71-.29-.98-.13-.27-.31-.49-.51-.64-.21-.15-.46-.23-.76-.23-.82,0-1.34,.5-1.58,1.49v4.68Z"/><path class="d" d="M501.89,108.28c0-1.51,.26-2.62,.78-3.33,.52-.71,1.26-1.07,2.22-1.07,1.03,0,1.79,.36,2.27,1.09,.49,.73,.73,1.83,.73,3.31s-.26,2.63-.79,3.34c-.53,.7-1.26,1.06-2.21,1.06-1.03,0-1.79-.36-2.27-1.09-.49-.73-.73-1.83-.73-3.31Zm1.26,0c0,.49,.03,.94,.09,1.34,.06,.4,.16,.75,.3,1.04,.14,.29,.32,.52,.55,.68,.22,.16,.49,.24,.81,.24,.58,0,1.02-.26,1.31-.78,.29-.52,.44-1.36,.44-2.53,0-.48-.03-.93-.09-1.33-.06-.41-.16-.76-.3-1.05-.14-.29-.32-.52-.55-.68-.22-.16-.49-.24-.81-.24-.57,0-1,.26-1.3,.79-.3,.53-.45,1.36-.45,2.52Z"/><path class="d" d="M514.45,111.9c-.27,.25-.61,.44-1.02,.57-.41,.13-.85,.2-1.31,.2-.53,0-.98-.1-1.37-.31-.39-.21-.71-.5-.96-.89-.25-.39-.44-.85-.55-1.38-.12-.54-.18-1.14-.18-1.81,0-1.43,.26-2.52,.79-3.27,.53-.75,1.27-1.12,2.23-1.12,.31,0,.62,.04,.93,.12,.31,.08,.58,.23,.83,.47,.25,.23,.44,.56,.6,.99,.15,.43,.23,.98,.23,1.66,0,.19,0,.39-.02,.61-.02,.22-.04,.44-.06,.68h-4.26c0,.48,.04,.92,.12,1.31,.08,.39,.2,.72,.37,1,.17,.27,.38,.49,.65,.64,.26,.15,.59,.23,.98,.23,.3,0,.6-.06,.9-.17,.3-.11,.52-.25,.68-.4l.44,.89Zm-.94-4.5c.02-.84-.1-1.45-.35-1.85-.26-.39-.61-.59-1.06-.59-.51,0-.92,.2-1.22,.59-.3,.39-.48,1.01-.54,1.85h3.17Z"/><path class="d" d="M518.11,108.7h-.62v3.78h-1.21v-8.39h1.21v3.79l.57-.23,2.05-3.56h1.29l-2,3.37-.59,.55,.72,.67,2.15,3.79h-1.44l-2.13-3.78Z"/><path class="d" d="M527.05,105.17h-2.06v7.3h-1.21v-7.3h-2.06v-1.09h5.34v1.09Z"/><path class="d" d="M404.38,120.39h-2.82v7.3h-1.21v-8.39h5.24v8.39h-1.21v-7.3Z"/><path class="d" d="M407.12,123.49c0-1.51,.26-2.62,.78-3.33,.52-.71,1.26-1.07,2.22-1.07,1.03,0,1.79,.36,2.27,1.09,.49,.73,.73,1.83,.73,3.31s-.26,2.63-.79,3.34c-.53,.7-1.26,1.06-2.21,1.06-1.03,0-1.79-.36-2.27-1.09-.49-.73-.73-1.83-.73-3.31Zm1.26,0c0,.49,.03,.94,.09,1.34,.06,.4,.16,.75,.3,1.04,.14,.29,.32,.52,.55,.68,.22,.16,.49,.24,.81,.24,.58,0,1.02-.26,1.31-.78,.29-.52,.44-1.36,.44-2.53,0-.48-.03-.93-.09-1.33-.06-.41-.16-.76-.3-1.05-.14-.29-.32-.52-.55-.68-.22-.16-.49-.24-.81-.24-.57,0-1,.26-1.3,.79-.3,.53-.45,1.36-.45,2.52Z"/><path class="d" d="M422.15,120.39h-2.82v7.3h-1.21v-8.39h5.24v8.39h-1.21v-7.3Z"/><path class="d" d="M424.89,123.49c0-1.51,.26-2.62,.78-3.33,.52-.71,1.26-1.07,2.22-1.07,1.03,0,1.79,.36,2.27,1.09,.49,.73,.73,1.83,.73,3.31s-.26,2.63-.79,3.34c-.53,.7-1.26,1.06-2.21,1.06-1.03,0-1.79-.36-2.27-1.09-.49-.73-.73-1.83-.73-3.31Zm1.26,0c0,.49,.03,.94,.09,1.34,.06,.4,.16,.75,.3,1.04,.14,.29,.32,.52,.55,.68,.22,.16,.49,.24,.81,.24,.58,0,1.02-.26,1.31-.78,.29-.52,.44-1.36,.44-2.53,0-.48-.03-.93-.09-1.33-.06-.41-.16-.76-.3-1.05-.14-.29-.32-.52-.55-.68-.22-.16-.49-.24-.81-.24-.57,0-1,.26-1.3,.79-.3,.53-.45,1.36-.45,2.52Z"/><path class="d" d="M438.53,129.82h-.84l-.2-2.13h-4.97l-.22,2.13h-.82v-3.22h.79c.07-.12,.16-.35,.28-.68,.12-.33,.23-.79,.34-1.38,.11-.59,.21-1.31,.29-2.17,.08-.86,.13-1.88,.14-3.07h4.21v7.3h.99v3.22Zm-2.2-3.22v-6.21h-1.9c-.02,.48-.05,1.01-.09,1.58-.04,.57-.1,1.14-.18,1.7-.08,.56-.17,1.1-.29,1.62-.11,.51-.24,.95-.39,1.31h2.84Z"/><path class="d" d="M445.81,129.82h-.84l-.2-2.13h-4.97l-.22,2.13h-.82v-3.22h.79c.07-.12,.16-.35,.28-.68,.12-.33,.23-.79,.34-1.38,.11-.59,.21-1.31,.29-2.17,.08-.86,.13-1.88,.14-3.07h4.21v7.3h.99v3.22Zm-2.2-3.22v-6.21h-1.9c-.02,.48-.05,1.01-.09,1.58-.04,.57-.1,1.14-.18,1.7-.08,.56-.17,1.1-.29,1.62-.11,.51-.24,.95-.39,1.31h2.84Z"/><path class="d" d="M452.01,127.12c-.27,.25-.61,.44-1.02,.57-.41,.13-.85,.2-1.31,.2-.53,0-.98-.1-1.37-.31-.39-.21-.71-.5-.96-.89-.25-.39-.44-.85-.55-1.38-.12-.54-.18-1.14-.18-1.81,0-1.43,.26-2.52,.79-3.27,.53-.75,1.27-1.12,2.23-1.12,.31,0,.62,.04,.93,.12,.31,.08,.58,.23,.83,.47,.25,.23,.44,.56,.6,.99,.15,.43,.23,.98,.23,1.66,0,.19,0,.39-.02,.61-.02,.22-.04,.44-.06,.68h-4.26c0,.48,.04,.92,.12,1.31,.08,.39,.2,.72,.37,1,.17,.27,.38,.49,.65,.64,.26,.15,.59,.23,.98,.23,.3,0,.6-.06,.9-.17,.3-.11,.52-.25,.68-.4l.44,.89Zm-.94-4.5c.02-.84-.1-1.45-.35-1.85-.26-.39-.61-.59-1.06-.59-.51,0-.92,.2-1.22,.59-.3,.39-.48,1.01-.54,1.85h3.17Z"/><path class="d" d="M453.83,119.3h.86l.18,.91h.07c.41-.74,1.06-1.11,1.95-1.11s1.55,.33,1.99,.99c.44,.66,.66,1.74,.66,3.24,0,.7-.07,1.34-.22,1.9-.15,.57-.35,1.05-.62,1.44-.27,.4-.6,.7-.98,.91-.39,.21-.81,.31-1.28,.31-.33,0-.58-.02-.77-.06-.19-.04-.4-.12-.62-.24v3.46h-1.21v-11.75Zm1.21,7.06c.16,.13,.33,.24,.53,.32,.2,.08,.46,.12,.78,.12,.59,0,1.06-.3,1.41-.91,.35-.6,.52-1.47,.52-2.58,0-.47-.03-.89-.09-1.28-.06-.38-.16-.71-.29-.98-.13-.27-.31-.49-.51-.64-.21-.15-.46-.23-.76-.23-.82,0-1.34,.5-1.58,1.49v4.68Z"/><path class="d" d="M463.22,123.98l-1.88,3.71h-1.36l2.06-3.84,.45-.5-.69-.64-1.68-3.41h1.28l1.74,3.63h.69v-3.63h1.21v3.79l.62-.23,1.75-3.56h1.26l-1.76,3.41-.54,.54,.69,.67,1.93,3.78h-1.39l-1.88-3.78h-.67v3.78h-1.21v-3.94l-.62,.23Z"/><path class="d" d="M471.72,123.91h-.62v3.78h-1.21v-8.39h1.21v3.79l.57-.23,2.05-3.56h1.29l-2,3.37-.59,.55,.72,.67,2.15,3.79h-1.44l-2.13-3.78Z"/><path class="d" d="M481.19,127.12c-.27,.25-.61,.44-1.02,.57-.41,.13-.85,.2-1.31,.2-.53,0-.98-.1-1.37-.31-.39-.21-.71-.5-.96-.89-.25-.39-.44-.85-.55-1.38-.12-.54-.18-1.14-.18-1.81,0-1.43,.26-2.52,.79-3.27,.53-.75,1.27-1.12,2.23-1.12,.31,0,.62,.04,.93,.12,.31,.08,.58,.23,.83,.47,.25,.23,.44,.56,.6,.99,.15,.43,.23,.98,.23,1.66,0,.19,0,.39-.02,.61-.02,.22-.04,.44-.06,.68h-4.26c0,.48,.04,.92,.12,1.31,.08,.39,.2,.72,.37,1,.17,.27,.38,.49,.65,.64,.26,.15,.59,.23,.98,.23,.3,0,.6-.06,.9-.17,.3-.11,.52-.25,.68-.4l.44,.89Zm-.94-4.5c.02-.84-.1-1.45-.35-1.85-.26-.39-.61-.59-1.06-.59-.51,0-.92,.2-1.22,.59-.3,.39-.48,1.01-.54,1.85h3.17Z"/><path class="d" d="M492.06,122.71l.12-1.59h-.07l-.5,1.43-1.56,3.22h-.44l-1.63-3.22-.45-1.43h-.08l.13,1.58v5h-1.09v-8.39h1.21l1.83,3.64,.37,1.09h.03l.4-1.12,1.7-3.61h1.24v8.39h-1.21v-4.98Z"/><path class="d" d="M495.08,119.8c.32-.2,.72-.36,1.18-.47,.46-.11,.95-.17,1.47-.17,.47,0,.85,.07,1.13,.21,.29,.14,.51,.33,.67,.57,.16,.24,.27,.51,.32,.82,.05,.31,.08,.63,.08,.96,0,.67-.01,1.33-.04,1.96-.03,.64-.04,1.24-.04,1.81,0,.43,.01,.82,.04,1.18,.03,.36,.08,.71,.16,1.03h-.95l-.29-.99h-.07c-.17,.29-.41,.54-.73,.76-.32,.21-.76,.32-1.3,.32-.6,0-1.09-.21-1.47-.63-.38-.42-.57-1-.57-1.74,0-.48,.08-.88,.24-1.21,.16-.32,.39-.59,.68-.79,.29-.2,.64-.34,1.05-.43,.4-.08,.86-.13,1.36-.13h.33c.11,0,.23,0,.35,.02,.03-.35,.05-.65,.05-.92,0-.64-.09-1.08-.28-1.34-.19-.26-.53-.39-1.03-.39-.31,0-.65,.05-1.01,.14-.37,.09-.67,.22-.91,.36l-.4-.96Zm3.61,4.06c-.11-.01-.22-.02-.33-.03-.11,0-.22,0-.33,0-.27,0-.53,.02-.78,.07-.25,.04-.48,.12-.68,.23-.2,.11-.36,.26-.47,.45-.12,.19-.17,.43-.17,.72,0,.45,.11,.79,.32,1.04,.22,.25,.49,.37,.84,.37,.46,0,.82-.11,1.08-.34,.26-.22,.43-.47,.53-.74v-1.78Z"/><path class="d" d="M505.44,120.39h-1.83c-.03,.95-.08,1.87-.13,2.76-.06,.89-.15,1.68-.29,2.36-.14,.68-.34,1.23-.6,1.64-.26,.41-.6,.61-1.02,.61-.19,0-.35-.01-.49-.03-.13-.02-.26-.06-.37-.12l.18-1.04c.23,.07,.44,.05,.63-.04,.18-.09,.34-.39,.48-.87,.13-.49,.24-1.23,.33-2.24,.08-1,.14-2.37,.18-4.11h4.14v8.39h-1.21v-7.3Z"/><path class="d" d="M508.17,123.49c0-1.51,.26-2.62,.78-3.33,.52-.71,1.26-1.07,2.22-1.07,1.03,0,1.79,.36,2.27,1.09,.49,.73,.73,1.83,.73,3.31s-.26,2.63-.79,3.34c-.53,.7-1.26,1.06-2.21,1.06-1.03,0-1.79-.36-2.27-1.09-.49-.73-.73-1.83-.73-3.31Zm1.26,0c0,.49,.03,.94,.09,1.34,.06,.4,.16,.75,.3,1.04,.14,.29,.32,.52,.55,.68,.22,.16,.49,.24,.81,.24,.58,0,1.02-.26,1.31-.78,.29-.52,.44-1.36,.44-2.53,0-.48-.03-.93-.09-1.33-.06-.41-.16-.76-.3-1.05-.14-.29-.32-.52-.55-.68-.22-.16-.49-.24-.81-.24-.57,0-1,.26-1.3,.79-.3,.53-.44,1.36-.44,2.52Z"/><path class="d" d="M519.7,120.39h-2.79v7.3h-1.21v-8.39h3.99v1.09Z"/><path class="d" d="M520.02,123.49c0-1.51,.26-2.62,.78-3.33,.52-.71,1.26-1.07,2.22-1.07,1.03,0,1.79,.36,2.27,1.09,.49,.73,.73,1.83,.73,3.31s-.26,2.63-.79,3.34c-.53,.7-1.26,1.06-2.21,1.06-1.03,0-1.79-.36-2.27-1.09-.49-.73-.73-1.83-.73-3.31Zm1.26,0c0,.49,.03,.94,.09,1.34,.06,.4,.16,.75,.3,1.04,.14,.29,.32,.52,.55,.68,.22,.16,.49,.24,.81,.24,.58,0,1.02-.26,1.31-.78,.29-.52,.44-1.36,.44-2.53,0-.48-.03-.93-.09-1.33-.06-.41-.16-.76-.3-1.05-.14-.29-.32-.52-.55-.68-.22-.16-.49-.24-.81-.24-.57,0-1,.26-1.3,.79-.3,.53-.44,1.36-.44,2.52Z"/><path class="d" d="M417.96,138.07l.1-1.28h-.07l-.59,1.41-2.84,4.7h-.79v-8.39h1.21v4.98l-.1,1.23h.07l.55-1.38,2.87-4.83h.79v8.39h-1.21v-4.83Z"/><path class="d" d="M429.17,142.48c-.28,.21-.6,.37-.96,.47-.36,.1-.73,.15-1.12,.15-.54,0-.99-.1-1.36-.31-.37-.21-.67-.5-.9-.89-.23-.39-.4-.85-.5-1.39-.11-.54-.16-1.14-.16-1.8,0-1.43,.25-2.52,.76-3.27,.51-.75,1.24-1.12,2.19-1.12,.44,0,.81,.04,1.12,.12,.31,.08,.58,.18,.81,.3l-.34,1.06c-.45-.26-.93-.39-1.46-.39-.6,0-1.06,.27-1.37,.8-.31,.53-.46,1.37-.46,2.51,0,.46,.03,.89,.1,1.29,.07,.4,.18,.75,.34,1.05,.16,.3,.36,.53,.6,.7,.25,.17,.55,.26,.92,.26,.29,0,.56-.05,.81-.15,.25-.1,.46-.22,.61-.35l.35,.97Z"/><path class="d" d="M430.42,134.51h.86l.18,.91h.07c.41-.74,1.06-1.11,1.95-1.11s1.55,.33,1.99,.99c.44,.66,.66,1.74,.66,3.24,0,.7-.07,1.34-.22,1.9-.15,.57-.35,1.05-.62,1.44-.27,.4-.6,.7-.98,.91-.39,.21-.81,.31-1.28,.31-.33,0-.58-.02-.77-.06-.19-.04-.4-.12-.62-.24v3.46h-1.21v-11.75Zm1.21,7.06c.16,.13,.33,.24,.53,.32,.2,.08,.46,.12,.78,.12,.59,0,1.06-.3,1.41-.91,.35-.6,.52-1.47,.52-2.58,0-.47-.03-.89-.09-1.28-.06-.38-.16-.71-.29-.98-.13-.27-.31-.49-.51-.64-.21-.15-.46-.23-.76-.23-.82,0-1.34,.5-1.58,1.49v4.68Z"/><path class="d" d="M442.66,142.33c-.27,.25-.61,.44-1.02,.57-.41,.13-.85,.2-1.31,.2-.53,0-.98-.1-1.37-.31-.39-.21-.71-.5-.96-.89-.25-.39-.44-.85-.55-1.38-.12-.54-.18-1.14-.18-1.81,0-1.43,.26-2.52,.79-3.27,.53-.75,1.27-1.12,2.23-1.12,.31,0,.62,.04,.93,.12,.31,.08,.58,.23,.83,.47,.25,.23,.44,.56,.6,.99,.15,.43,.23,.98,.23,1.66,0,.19,0,.39-.02,.61-.02,.22-.04,.44-.06,.68h-4.26c0,.48,.04,.92,.12,1.31,.08,.39,.2,.72,.37,1,.17,.27,.38,.49,.65,.64,.26,.15,.59,.23,.98,.23,.3,0,.6-.06,.9-.17,.3-.11,.52-.25,.68-.4l.44,.89Zm-.94-4.5c.02-.84-.1-1.45-.35-1.85-.26-.39-.61-.59-1.06-.59-.51,0-.92,.2-1.22,.59-.3,.39-.48,1.01-.54,1.85h3.17Z"/><path class="d" d="M450.33,145.04h-.84l-.2-2.13h-4.97l-.22,2.13h-.82v-3.22h.79c.07-.12,.16-.35,.28-.68,.12-.33,.23-.79,.34-1.38,.11-.59,.21-1.31,.29-2.17,.08-.86,.13-1.88,.14-3.07h4.21v7.3h.99v3.22Zm-2.2-3.22v-6.21h-1.9c-.02,.48-.05,1.01-.09,1.58-.04,.57-.1,1.14-.18,1.7-.08,.56-.17,1.1-.29,1.62-.11,.51-.24,.95-.39,1.31h2.84Z"/><path class="d" d="M455.61,139.16h-2.9v3.74h-1.21v-8.39h1.21v3.56h2.9v-3.56h1.21v8.39h-1.21v-3.74Z"/><path class="d" d="M463.72,142.33c-.27,.25-.61,.44-1.02,.57-.41,.13-.85,.2-1.31,.2-.53,0-.98-.1-1.37-.31-.39-.21-.71-.5-.96-.89-.25-.39-.44-.85-.55-1.38-.12-.54-.18-1.14-.18-1.81,0-1.43,.26-2.52,.79-3.27,.53-.75,1.27-1.12,2.23-1.12,.31,0,.62,.04,.93,.12,.31,.08,.58,.23,.83,.47,.25,.23,.44,.56,.6,.99,.15,.43,.23,.98,.23,1.66,0,.19,0,.39-.02,.61-.02,.22-.04,.44-.06,.68h-4.26c0,.48,.04,.92,.12,1.31,.08,.39,.2,.72,.37,1,.17,.27,.38,.49,.65,.64,.26,.15,.59,.23,.98,.23,.3,0,.6-.06,.9-.17,.3-.11,.52-.25,.68-.4l.44,.89Zm-.94-4.5c.02-.84-.1-1.45-.35-1.85-.26-.39-.61-.59-1.06-.59-.51,0-.92,.2-1.22,.59-.3,.39-.48,1.01-.54,1.85h3.17Z"/><path class="d" d="M469.54,135.6h-2.79v7.3h-1.21v-8.39h3.99v1.09Z"/><path class="d" d="M469.86,138.71c0-1.51,.26-2.62,.78-3.33,.52-.71,1.26-1.07,2.22-1.07,1.03,0,1.79,.36,2.27,1.09,.49,.73,.73,1.83,.73,3.31s-.26,2.63-.79,3.34c-.53,.7-1.26,1.06-2.21,1.06-1.03,0-1.79-.36-2.27-1.09-.49-.73-.73-1.83-.73-3.31Zm1.26,0c0,.49,.03,.94,.09,1.34,.06,.4,.16,.75,.3,1.04,.14,.29,.32,.52,.55,.68,.22,.16,.49,.24,.81,.24,.58,0,1.02-.26,1.31-.78,.29-.52,.44-1.36,.44-2.53,0-.48-.03-.93-.09-1.33-.06-.41-.16-.76-.3-1.05-.14-.29-.32-.52-.55-.68-.22-.16-.49-.24-.81-.24-.57,0-1,.26-1.3,.79-.3,.53-.44,1.36-.44,2.52Z"/><path class="d" d="M481.59,135.94c.29-.53,.62-.89,.97-1.09,.36-.2,.81-.3,1.34-.3,.83,0,1.47,.32,1.92,.97,.45,.65,.68,1.65,.68,3,0,1.56-.26,2.71-.79,3.46-.53,.75-1.26,1.12-2.2,1.12-.5,0-.94-.1-1.32-.29-.37-.2-.69-.5-.94-.92-.25-.42-.44-.96-.57-1.64-.13-.67-.19-1.48-.19-2.43s.04-1.78,.13-2.47c.08-.68,.2-1.26,.35-1.73,.15-.47,.33-.84,.55-1.12,.21-.28,.45-.5,.72-.66,.27-.16,.56-.28,.88-.34,.32-.07,.66-.12,1.02-.17,.47-.06,.84-.12,1.12-.2,.28-.08,.5-.21,.67-.4l.08,1.16c-.09,.1-.19,.18-.3,.24-.11,.07-.25,.12-.4,.17-.16,.05-.34,.09-.55,.12-.21,.03-.45,.06-.73,.08-.38,.03-.71,.11-1,.22-.29,.11-.53,.29-.74,.55-.21,.25-.37,.6-.5,1.03-.12,.44-.21,.99-.25,1.66h.03Zm.17,2.79c0,.46,.03,.89,.1,1.28,.07,.4,.17,.74,.32,1.04,.15,.3,.33,.53,.55,.7,.22,.17,.48,.26,.78,.26,.58,0,1.02-.27,1.31-.82,.29-.55,.44-1.4,.44-2.55,0-.92-.12-1.65-.37-2.19-.25-.54-.65-.81-1.21-.81-.66,0-1.14,.27-1.45,.81-.31,.54-.46,1.3-.46,2.28Z"/><path class="d" d="M492.21,138.07l.1-1.28h-.07l-.59,1.41-2.84,4.7h-.79v-8.39h1.21v4.98l-.1,1.23h.07l.55-1.38,2.87-4.83h.79v8.39h-1.21v-4.83Z"/><path class="d" d="M495.95,139.11v-1.01h.92c.16,0,.31-.04,.46-.11,.15-.07,.29-.17,.4-.29,.12-.12,.21-.27,.29-.43,.07-.16,.11-.33,.11-.51,0-.44-.11-.76-.34-.96-.23-.2-.58-.3-1.05-.3-.35,0-.66,.05-.95,.15-.28,.1-.51,.21-.66,.32l-.35-.96c.28-.18,.61-.32,.98-.44,.37-.11,.8-.17,1.28-.17,.74,0,1.31,.17,1.7,.51,.4,.34,.6,.85,.6,1.53,0,.42-.11,.81-.32,1.17-.21,.36-.5,.61-.87,.77v.07c.51,.12,.88,.36,1.11,.71,.22,.35,.34,.81,.34,1.38,0,.71-.23,1.3-.7,1.77-.47,.48-1.19,.71-2.17,.71-.45,0-.83-.04-1.13-.13-.31-.08-.58-.19-.83-.33l.32-1.04c.21,.13,.46,.23,.76,.3,.29,.07,.59,.1,.91,.1,.55,0,.96-.13,1.23-.39,.27-.26,.41-.63,.41-1.12,0-.41-.13-.73-.39-.97-.26-.24-.69-.36-1.29-.36h-.75Z"/><path class="d" d="M505.24,139.16h-2.9v3.74h-1.21v-8.39h1.21v3.56h2.9v-3.56h1.21v8.39h-1.21v-3.74Z"/><path class="d" d="M513.34,142.33c-.27,.25-.61,.44-1.02,.57-.41,.13-.85,.2-1.31,.2-.53,0-.98-.1-1.37-.31-.39-.21-.71-.5-.96-.89-.25-.39-.44-.85-.55-1.38-.12-.54-.18-1.14-.18-1.81,0-1.43,.26-2.52,.79-3.27,.53-.75,1.27-1.12,2.23-1.12,.31,0,.62,.04,.93,.12,.31,.08,.58,.23,.83,.47,.25,.23,.44,.56,.6,.99,.15,.43,.23,.98,.23,1.66,0,.19,0,.39-.02,.61-.02,.22-.04,.44-.06,.68h-4.26c0,.48,.04,.92,.12,1.31,.08,.39,.2,.72,.37,1,.17,.27,.38,.49,.65,.64,.26,.15,.59,.23,.98,.23,.3,0,.6-.06,.9-.17,.3-.11,.52-.25,.68-.4l.44,.89Zm-.94-4.5c.02-.84-.1-1.45-.35-1.85-.26-.39-.61-.59-1.06-.59-.51,0-.92,.2-1.22,.59-.3,.39-.48,1.01-.54,1.85h3.17Z"/><path class="d" d="M519.67,142.48c-.28,.21-.6,.37-.96,.47-.36,.1-.73,.15-1.12,.15-.54,0-.99-.1-1.36-.31-.37-.21-.67-.5-.9-.89-.23-.39-.4-.85-.5-1.39-.11-.54-.16-1.14-.16-1.8,0-1.43,.25-2.52,.76-3.27,.51-.75,1.24-1.12,2.19-1.12,.44,0,.81,.04,1.12,.12,.31,.08,.58,.18,.81,.3l-.34,1.06c-.45-.26-.93-.39-1.46-.39-.6,0-1.06,.27-1.37,.8-.31,.53-.46,1.37-.46,2.51,0,.46,.03,.89,.1,1.29,.07,.4,.18,.75,.34,1.05,.16,.3,.36,.53,.6,.7,.25,.17,.55,.26,.92,.26,.29,0,.56-.05,.81-.15,.25-.1,.46-.22,.61-.35l.35,.97Z"/><path class="d" d="M520.84,135.02c.32-.2,.72-.36,1.18-.47,.46-.11,.95-.17,1.47-.17,.47,0,.85,.07,1.13,.21,.29,.14,.51,.33,.67,.57,.16,.24,.27,.51,.32,.82,.05,.31,.08,.63,.08,.96,0,.67-.01,1.33-.04,1.96-.03,.64-.04,1.24-.04,1.81,0,.43,.01,.82,.04,1.18,.03,.36,.08,.71,.16,1.03h-.95l-.29-.99h-.07c-.17,.29-.41,.54-.73,.76-.32,.21-.76,.32-1.3,.32-.6,0-1.09-.21-1.47-.63-.38-.42-.57-1-.57-1.74,0-.48,.08-.88,.24-1.21,.16-.32,.39-.59,.68-.79,.29-.2,.64-.34,1.05-.43,.4-.08,.86-.13,1.36-.13h.33c.11,0,.23,0,.35,.02,.03-.35,.05-.65,.05-.92,0-.64-.1-1.08-.28-1.34-.19-.26-.53-.39-1.03-.39-.31,0-.65,.05-1.01,.14-.37,.09-.67,.22-.91,.36l-.4-.96Zm3.61,4.06c-.11-.01-.22-.02-.33-.03-.11,0-.22,0-.33,0-.27,0-.53,.02-.78,.07-.25,.04-.48,.12-.68,.23-.2,.11-.36,.26-.47,.45-.12,.19-.17,.43-.17,.72,0,.45,.11,.79,.32,1.04,.22,.25,.49,.37,.84,.37,.46,0,.82-.11,1.08-.34,.26-.22,.43-.47,.53-.74v-1.78Z"/></g></g><g><path class="d" d="M64.95,130.44c2.37-.15,4.73-.46,7.06-.94,4.63-.95,9.12-2.56,13.31-4.76,1.65-.86,3.24-1.82,4.78-2.86,4.05-2.73,7.69-6.03,10.81-9.79,1.85-2.23,3.5-4.61,4.93-7.1-3.93,4.65-9.77,7-15.66,8.19-1,.2-1.99,.37-2.98,.51-3.48,.5-7.01,.71-10.53,.68-2.53,.02-5.07-.09-7.58-.33h0c-3.27-.22-6.46-.75-9.53-1.55-2.23-.44-4.34-.98-6.35-1.62-5.24-1.68-9.71-4.04-13.67-7.22-.39-.31-.71-.57-1.01-.83-.56-.47-1.11-.95-1.64-1.44-.49-.45-.99-.92-1.46-1.39-1.43-1.41-2.8-2.92-4.07-4.49-.13-.17-.28-.34-.46-.55l-.02-.02c-2.2-2.59-4.03-5.46-5.44-8.52-2.29-4.96-3.45-10.25-3.45-15.73,0-3.05,.37-6.08,1.09-9.01,1.53-6.23,4.6-12.12,8.87-17.04,.7-.81,1.42-1.58,2.17-2.31-.6,.41-1.2,.85-1.78,1.3-5.83,4.55-9.48,10.57-11.64,17.22-1.99,6.13-2.72,12.8-2.7,19.32,0,.42,.01,.84,.02,1.25,0,.57,.01,1.15,.04,1.72,.01,.26,.03,.52,.04,.78,.03,.59,.05,1.19,.08,1.78,.64,10.42,2.9,21.54,8.96,30.27,.41,.59,.83,1.16,1.27,1.72,2.54,3.24,5.64,5.83,9.06,7.9,.84,.4,1.75,.79,2.73,1.19,4.01,1.61,10.27,3.54,17.28,3.58,2.51,.01,4.97,.23,7.48,.07"/><path class="d" d="M124.83,120.12c.16-.48,.34-.96,.53-1.43,.16-.38,.33-.75,.51-1.11,.29-.83,.53-1.39,.57-1.5,1.76-4.42,2.58-9.79,2.58-16.91s-1.91-14.04-5.67-21.05c-.42-.77-.85-1.53-1.28-2.24-3.14-5.13-7.22-9.52-12.11-13.05-1.64-1.18-3.36-2.16-5.1-2.97,6.07,5.4,7.82,13.66,7.81,21.59,0,.26,0,.51-.01,.77,0,.35,0,.7-.02,1.05,0,.16-.01,.32-.02,.48-.02,.36-.03,.73-.05,1.09-.12,2.02-.35,4.09-.72,6.14-.12,1.78-.42,3.69-.71,5.55-.18,1.14-.34,2.21-.46,3.19-.03,.24-.06,.48-.09,.72h0c-.09,.67-.18,1.33-.28,1.98-.32,2.2-.62,4.28-.61,6.4,.04,4.93,1.19,10.17,3.23,14.75,1.18,2.64,2.67,5.15,4.44,7.45,.05,.07,.11,.13,.16,.2,.05,.06,.1,.12,.14,.18,1.97,2.51,4.27,4.76,6.82,6.68,.32,.24,1.28,.92,2.26,1.6,.33-.98-.75-2.42-1.35-3.79-1.56-3.58-2.03-7.61-1.54-11.47,.18-1.46,.51-2.9,.97-4.3"/><path class="d" d="M63.17,113.17c-.4-.08-.79-.17-1.19-.26-.82-.13-1.63-.27-2.42-.43,3.07,.8,6.26,1.32,9.53,1.55-.98-.1-1.96-.21-2.94-.35-.99-.14-1.99-.31-2.98-.51"/><path class="d" d="M134.97,72.14c-1.12-10.77-4.84-21.18-13.57-28.2-.13-.1-.25-.21-.38-.31-9.54-7.44-22.15-9.51-33.9-10.27-.63-.04-1.27-.08-1.9-.11-1.04-.06-2.08-.11-3.12-.14-1.26-.05-2.52-.06-3.78-.08-.53,0-1.07-.03-1.6-.03h-.09c-.53,0-1.07,.02-1.6,.03-1.26,.02-2.52,.03-3.78,.08-1.68,.06-3.35,.15-5.02,.25-3.26,.21-6.6,.53-9.91,1.03-3.25,.49-6.6,1.05-9.68,2.21h-.02c-4.83,1.96-9.3,5.21-13.01,9.49-4.04,4.66-6.94,10.23-8.39,16.13-.68,2.76-1.02,5.61-1.02,8.48,0,5.15,1.09,10.13,3.25,14.8,1.33,2.87,3.04,5.57,5.11,8,.2,.23,.37,.42,.52,.62,1.21,1.5,2.53,2.95,3.9,4.3,.46,.45,.93,.9,1.4,1.33,.51,.47,1.04,.93,1.57,1.38,.29,.24,.6,.49,.97,.79,2.66,2.13,5.57,3.87,8.81,5.28-.73-.62-1.41-1.3-2.05-2.03-.2-.23-.41-.47-.6-.72-.27-.35-.53-.7-.78-1.06-3.71-5.35-5.1-12.17-5.49-18.56-.02-.36-.04-.73-.05-1.09,0-.16-.02-.32-.02-.48,0-.19,0-.39-.01-.58,0-.16,0-.32,0-.47,0-.26-.01-.51-.01-.77-.02-8.34,1.92-17.05,8.79-22.41,5.85-4.56,13.58-5.83,20.79-6.3,1.02-.07,2.05-.12,3.08-.16,.77-.03,1.54-.04,2.32-.05,.34,0,.67-.02,1.01-.02s.67,.01,1.01,.02c.77,0,1.55,.02,2.32,.05,1.03,.04,2.06,.09,3.08,.16,7.92,.52,15.9,1.84,23.11,5.31,.92,.44,1.82,.92,2.69,1.44,.81,.48,1.6,1,2.36,1.55,5.13,3.7,9.41,8.31,12.7,13.69,.46,.75,.91,1.54,1.35,2.35,3.93,7.34,5.93,14.77,5.93,22.1,0,3.01-.14,5.73-.44,8.2,.64-1.6,1.19-3.24,1.67-4.9,1.58-5.45,2.38-11.11,2.72-16.77,.04-.59,.06-1.18,.08-1.78,.01-.26,.03-.52,.04-.79,.02-.57,.03-1.14,.04-1.72,0-.42,.02-.83,.02-1.25v-.36c0-2.55-.13-5.12-.39-7.67"/><path class="d" d="M115.94,132.77c-.04-.05-.08-.1-.12-.15-.07-.08-.13-.16-.2-.25-1.87-2.44-3.45-5.1-4.7-7.9-2.2-4.92-3.38-10.32-3.43-15.63,0-.82,.03-1.63,.1-2.44-1.46,2.49-3.12,4.86-4.97,7.1-3.26,3.93-7.05,7.37-11.28,10.22-8.77,5.91-19.02,9.03-29.64,9.03-.77,0-1.52-.05-2.25-.09-.35-.02-.69-.04-1.03-.06,.36,.06,.73,.11,1.09,.16,5.67,.81,11.43,1.16,17.16,1.11,5.74,.04,11.49-.3,17.16-1.11,.43-.06,.85-.12,1.25-.19,4.69-.73,7.22-.4,8.83,.02,2.76,.72,5.28,1.97,7.82,3.29,2.02,1.05,4.05,2.14,6.23,3.05,1.54,.64,4.38,1.8,6.45,1.81-.57-.4-1.04-.74-1.27-.91-2.7-2.04-5.13-4.42-7.22-7.08"/><path class="d" d="M154.18,55.47v-18.4h1.93v16.27h7.21v5.86h-1.8v-3.73h-7.34Zm6.17-2.13v-16.27h1.91v15.41l-1.91,.87Z"/><path class="d" d="M167.29,49.71l-.79-2v3.87c0,.53,.16,.97,.47,1.33,.31,.36,.79,.54,1.44,.54h3.28v2.02h-3.28c-.61,0-1.15-.1-1.6-.3-.46-.2-.84-.48-1.15-.83-.31-.35-.54-.76-.7-1.24-.16-.47-.24-.98-.24-1.52v-5.6c0-.53,.08-1.02,.24-1.47,.16-.46,.39-.85,.7-1.2,.31-.34,.69-.61,1.15-.81,.46-.2,.99-.3,1.6-.3s1.1,.09,1.55,.28c.45,.18,.82,.44,1.12,.76,.3,.32,.53,.7,.69,1.13,.16,.43,.24,.89,.24,1.38v3.97h-4.72Zm-.79-2h3.73v-1.97c0-.42-.15-.78-.46-1.08-.31-.3-.76-.45-1.36-.45-.64,0-1.12,.18-1.44,.53-.31,.35-.47,.76-.47,1.24v1.74Z"/><polygon class="d" points="176.16 47.87 176.16 55.47 174.41 55.47 174.41 42.32 176.16 42.32 176.16 47.87 179.91 47.87 179.91 42.32 181.68 42.32 181.68 55.47 179.91 55.47 179.91 49.89 176.94 49.89 176.16 47.87"/><path class="d" d="M183.43,42.32h6.76v2.13h-6.76v-2.13Zm4.27,2.13v11.02h-1.77v-10.2l1.77-.81Z"/><path class="d" d="M193.71,53.44v8.6h-1.77v-19.72h3.79c.61,0,1.15,.1,1.6,.3,.46,.2,.84,.48,1.15,.84,.31,.36,.54,.78,.7,1.25,.16,.47,.24,.97,.24,1.5v5.36c0,.53-.08,1.03-.24,1.5-.16,.47-.39,.89-.7,1.25-.31,.36-.69,.64-1.15,.84-.46,.2-.99,.3-1.6,.3h-1.21l-.81-2.02Zm0,0h2.02c.64,0,1.12-.18,1.44-.55,.31-.37,.47-.81,.47-1.31v-5.36c0-.51-.16-.95-.47-1.31-.31-.37-.79-.55-1.44-.55h-2.02v9.1Z"/><path class="d" d="M208.15,53.44v8.6h-1.77v-19.72h3.79c.61,0,1.15,.1,1.61,.3,.46,.2,.84,.48,1.15,.84,.31,.36,.54,.78,.7,1.25,.16,.47,.24,.97,.24,1.5v5.36c0,.53-.08,1.03-.24,1.5-.16,.47-.39,.89-.7,1.25-.31,.36-.69,.64-1.15,.84-.46,.2-.99,.3-1.61,.3h-1.21l-.81-2.02Zm0,0h2.02c.64,0,1.12-.18,1.44-.55,.31-.37,.47-.81,.47-1.31v-5.36c0-.51-.16-.95-.47-1.31-.31-.37-.79-.55-1.44-.55h-2.02v9.1Z"/><path class="d" d="M215.9,51.81c0-.65,.1-1.21,.29-1.68,.19-.47,.45-.87,.77-1.2,.32-.32,.69-.58,1.11-.78,.42-.19,.85-.33,1.3-.42l1.32-.24,.72,1.89-1.77,.37c-.52,.11-.98,.31-1.38,.62s-.6,.79-.6,1.46c0,.25,.02,.47,.06,.67,.04,.2,.12,.38,.25,.53,.13,.15,.3,.27,.53,.35,.22,.09,.52,.13,.9,.13,.67,0,1.18-.21,1.52-.63,.34-.42,.5-.94,.5-1.55v-5.13c0-.51-.15-.95-.45-1.31-.3-.37-.72-.55-1.26-.55h-3.08v-2.02h3.08c.55,0,1.05,.1,1.48,.3,.43,.2,.8,.48,1.09,.84,.29,.36,.51,.78,.66,1.25,.15,.47,.22,.97,.22,1.5v9.25h-1.21l-.2-.89c-.58,.68-1.4,1.03-2.45,1.03-.66,0-1.2-.09-1.64-.28-.43-.18-.78-.44-1.04-.78-.26-.33-.45-.73-.56-1.2-.11-.46-.17-.98-.17-1.54"/><path class="d" d="M229.44,52.93c.33-.34,.49-.82,.49-1.43,0-.58-.15-1-.46-1.26-.31-.26-.78-.39-1.43-.39h-1.39l-.76-2.02h2.16c.58,0,1.04-.15,1.38-.45,.34-.3,.51-.74,.51-1.31s-.17-.99-.52-1.28c-.34-.29-.78-.43-1.3-.43h-3.05v-2.02h3.05c1.12,0,2,.34,2.64,1.03,.64,.68,.95,1.58,.95,2.68,0,.67-.15,1.22-.44,1.67-.29,.45-.67,.81-1.13,1.09,.48,.3,.86,.67,1.14,1.12,.28,.45,.43,1,.43,1.67,0,.58-.09,1.11-.26,1.59-.17,.48-.41,.89-.73,1.24-.31,.34-.7,.6-1.14,.79-.45,.18-.95,.28-1.5,.28h-3.05v-2.02h3.08c.57,0,1.02-.17,1.35-.51"/><path class="d" d="M233.81,55.47v-13.15h3.68c1.08,0,1.91,.31,2.49,.92,.58,.61,.88,1.41,.88,2.39v.97c0,.47-.11,.89-.34,1.25-.22,.36-.53,.65-.92,.88,.46,.25,.83,.56,1.09,.95,.26,.39,.39,.86,.39,1.42v.97c0,1.09-.32,1.92-.97,2.51-.64,.59-1.52,.88-2.63,.88h-3.68Zm3.64-7.65c.52,0,.93-.09,1.22-.26,.29-.18,.44-.48,.44-.92v-.97c0-.4-.13-.72-.38-.96-.26-.24-.67-.35-1.23-.35h-1.93v3.47h1.89Zm-1.08,2.02l-.81-2.02v5.63h1.98c.66,0,1.12-.11,1.38-.33,.26-.22,.39-.56,.39-1.01v-.97c0-.49-.15-.83-.45-1.01-.3-.18-.77-.28-1.41-.28h-1.08Z"/><path class="d" d="M248.72,47.75c0-.32,0-.65,.02-.99l-3.86,8.7h-1.66v-13.15h1.75v7.73c0,.33,0,.67-.02,1l3.88-8.73h1.66v13.15h-1.77v-7.72Z"/><path class="d" d="M252.25,42.32h6.76v2.13h-6.76v-2.13Zm4.27,2.13v11.02h-1.77v-10.2l1.77-.81Z"/><path class="d" d="M266.26,47.75c0-.32,0-.65,.02-.99l-3.86,8.7h-1.66v-13.15h1.75v7.73c0,.33,0,.67-.02,1l3.88-8.73h1.66v13.15h-1.77v-7.72Z"/><path class="d" d="M275.22,49.05l.81,2.02h-1.75c-.34,.7-.71,1.44-1.1,2.22-.39,.78-.75,1.5-1.08,2.17h-1.93l2.31-4.76c-.57-.28-1.01-.71-1.31-1.27-.31-.57-.46-1.34-.46-2.3v-.97c0-1.19,.32-2.13,.97-2.81,.64-.68,1.52-1.03,2.63-1.03h3.48v13.15h-1.75v-11.12h-1.73c-.55,0-1,.16-1.33,.49-.33,.32-.49,.77-.49,1.33v.97c0,.7,.18,1.2,.53,1.49,.35,.29,.8,.43,1.34,.43h.88Z"/><path class="d" d="M159.59,73.67c0-.32,0-.65,.02-.99l-3.86,8.7h-1.66v-13.15h1.75v7.73c0,.33,0,.67-.02,1l3.88-8.73h1.66v13.15h-1.77v-7.72Z"/><polygon class="d" points="170.25 70.26 170.25 81.38 168.5 81.38 168.5 71.08 170.25 70.26 168.5 70.26 168.5 68.24 175.78 68.24 175.78 81.38 174 81.38 174 70.26 170.25 70.26"/><path class="d" d="M181.97,79.49c.64,0,1.13-.19,1.47-.57,.34-.38,.51-.82,.51-1.33v-4.63l1.77-.92v5.55c0,.53-.08,1.03-.25,1.51-.16,.48-.4,.9-.72,1.25-.31,.35-.71,.63-1.18,.84-.47,.21-1.01,.32-1.61,.32s-1.15-.11-1.62-.32c-.46-.21-.85-.49-1.17-.84-.31-.35-.55-.77-.72-1.25-.16-.48-.25-.99-.25-1.51v-5.57c0-.53,.08-1.03,.25-1.51,.16-.48,.4-.9,.72-1.25,.31-.35,.7-.63,1.17-.84,.46-.21,1-.32,1.62-.32s1.13,.11,1.61,.32c.47,.21,.86,.49,1.18,.84,.31,.35,.55,.77,.72,1.25,.16,.48,.25,.99,.25,1.51h-1.77c0-.51-.16-.95-.49-1.33-.33-.38-.82-.57-1.48-.57s-1.15,.19-1.48,.57c-.33,.38-.49,.82-.49,1.33v5.57c0,.51,.16,.95,.49,1.33,.33,.38,.82,.57,1.48,.57"/><path class="d" d="M189.29,71.05l1.8-.79h-1.75c.02-.32,.03-.64,.03-.97,0-.33,.03-.68,.06-1.05h5.39v10.33l-1.77,.79v-9.1h-1.95c-.09,2.21-.24,4.06-.45,5.56-.21,1.5-.49,2.68-.83,3.54h6.02v4.71h-1.73v-2.68h-5.3v2.68h-1.73l.07-4.71c.33,0,.61-.14,.84-.43,.23-.29,.43-.76,.61-1.42,.17-.66,.31-1.52,.42-2.58,.1-1.06,.2-2.35,.29-3.88"/><path class="d" d="M198.5,71.05l1.8-.79h-1.75c.02-.32,.03-.64,.03-.97,0-.33,.03-.68,.06-1.05h5.39v10.33l-1.77,.79v-9.1h-1.95c-.09,2.21-.24,4.06-.45,5.56-.21,1.5-.49,2.68-.83,3.54h6.02v4.71h-1.73v-2.68h-5.3v2.68h-1.73l.07-4.71c.33,0,.61-.14,.84-.43,.23-.29,.43-.76,.61-1.42,.17-.66,.31-1.52,.42-2.58,.1-1.06,.2-2.35,.29-3.88"/><path class="d" d="M208.96,75.63l-.79-2v3.86c0,.53,.16,.97,.47,1.33,.31,.36,.79,.54,1.44,.54h3.28v2.02h-3.28c-.61,0-1.15-.1-1.6-.3-.46-.2-.84-.48-1.15-.83-.31-.35-.54-.76-.7-1.24-.16-.47-.24-.98-.24-1.52v-5.6c0-.53,.08-1.02,.24-1.47,.16-.46,.39-.85,.7-1.2,.31-.34,.69-.61,1.15-.81,.46-.2,.99-.3,1.6-.3s1.1,.09,1.55,.28c.45,.18,.82,.44,1.12,.76,.3,.32,.53,.7,.68,1.13,.16,.43,.24,.89,.24,1.38v3.97h-4.72Zm-.79-2h3.73v-1.97c0-.42-.15-.78-.46-1.08-.31-.3-.76-.45-1.36-.45-.64,0-1.12,.18-1.44,.53-.31,.35-.47,.76-.47,1.24v1.74Z"/><path class="d" d="M217.85,79.36v8.6h-1.77v-19.72h3.79c.61,0,1.15,.1,1.6,.3,.46,.2,.84,.48,1.15,.84,.31,.36,.54,.78,.7,1.25,.16,.47,.24,.97,.24,1.5v5.36c0,.53-.08,1.03-.24,1.5-.16,.47-.39,.89-.7,1.25-.31,.36-.69,.64-1.15,.84-.46,.2-.99,.3-1.6,.3h-1.21l-.81-2.02Zm0,0h2.02c.64,0,1.12-.18,1.44-.55,.31-.37,.47-.81,.47-1.31v-5.36c0-.51-.16-.95-.47-1.31-.31-.37-.79-.55-1.44-.55h-2.02v9.1Z"/><path class="d" d="M230.81,68.24h1.75v5.39h.43c.52-.88,1.05-1.78,1.58-2.71,.53-.93,1.06-1.82,1.58-2.68h2.04l-3.75,6.41c.28,.51,.59,1.05,.91,1.63,.32,.58,.65,1.17,.98,1.76,.33,.6,.65,1.18,.97,1.75,.31,.57,.61,1.1,.9,1.59h-2.07l-3.57-6.41v6.41h-1.75v-5.76h-.38l-3.19,5.76h-2.09l3.77-6.73c-.28-.49-.59-1.01-.91-1.55-.32-.54-.64-1.1-.97-1.66-.32-.56-.64-1.12-.97-1.67-.32-.55-.63-1.06-.91-1.54h2.07l3.57,6.15v-6.15Z"/><path class="d" d="M239.97,68.24h1.75v5.39h.43c.52-.88,1.05-1.78,1.58-2.71,.53-.93,1.06-1.82,1.58-2.68h2.04l-3.75,6.41c.28,.51,.59,1.05,.91,1.63,.32,.58,.65,1.17,.98,1.76,.33,.6,.65,1.18,.97,1.75,.31,.57,.61,1.1,.9,1.59h-2.07l-3.57-6.41v6.41h-1.75v-13.15Z"/><path class="d" d="M254.88,73.67c0-.32,0-.65,.02-.99l-3.86,8.7h-1.66v-13.15h1.75v7.73c0,.33,0,.67-.02,1l3.88-8.73h1.66v13.15h-1.77v-7.72Z"/><polygon class="d" points="155.84 96.18 155.84 107.3 154.09 107.3 154.09 97 155.84 96.18 154.09 96.18 154.09 94.16 161.36 94.16 161.36 107.3 159.59 107.3 159.59 96.18 155.84 96.18"/><path class="d" d="M165.78,105.28v8.6h-1.77v-19.72h3.79c.61,0,1.15,.1,1.61,.3,.46,.2,.84,.48,1.15,.84,.31,.36,.54,.78,.7,1.25,.16,.47,.24,.97,.24,1.5v5.36c0,.53-.08,1.03-.24,1.5-.16,.47-.39,.89-.7,1.25-.31,.36-.69,.64-1.15,.84-.46,.2-.99,.3-1.61,.3h-1.21l-.81-2.02Zm0,0h2.02c.64,0,1.12-.18,1.44-.55,.31-.37,.47-.81,.47-1.31v-5.36c0-.51-.16-.95-.47-1.31-.31-.37-.79-.55-1.44-.55h-2.02v9.1Z"/><path class="d" d="M176.31,101.54l-.79-2v3.86c0,.53,.16,.97,.47,1.33,.31,.36,.79,.54,1.44,.54h3.28v2.02h-3.28c-.61,0-1.15-.1-1.6-.3-.46-.2-.84-.48-1.15-.83-.31-.35-.54-.76-.7-1.24-.16-.47-.24-.98-.24-1.52v-5.6c0-.53,.08-1.02,.24-1.47,.16-.46,.39-.85,.7-1.2,.31-.34,.69-.61,1.15-.81,.46-.2,.99-.3,1.6-.3s1.1,.09,1.55,.28c.45,.18,.82,.44,1.12,.76,.3,.32,.53,.7,.69,1.13,.16,.43,.24,.89,.24,1.38v3.97h-4.72Zm-.79-2h3.73v-1.97c0-.42-.15-.78-.46-1.08-.31-.3-.76-.45-1.36-.45-.64,0-1.12,.18-1.44,.53-.31,.35-.47,.76-.47,1.24v1.74Z"/><path class="d" d="M184.53,96.97l1.8-.79h-1.75c.01-.32,.03-.64,.03-.97,0-.33,.03-.68,.06-1.05h5.39v10.33l-1.77,.79v-9.1h-1.95c-.09,2.21-.24,4.06-.45,5.56-.21,1.5-.49,2.68-.83,3.54h6.02v4.71h-1.73v-2.68h-5.3v2.68h-1.73l.07-4.71c.33,0,.61-.14,.84-.43,.23-.29,.43-.76,.61-1.42,.17-.66,.31-1.52,.42-2.58,.1-1.06,.2-2.35,.29-3.88"/><polygon class="d" points="194.39 96.18 194.39 107.3 192.64 107.3 192.64 97 194.39 96.18 192.64 96.18 192.64 94.16 199.91 94.16 199.91 107.3 198.14 107.3 198.14 96.18 194.39 96.18"/><path class="d" d="M204.33,105.28v8.6h-1.77v-19.72h3.79c.61,0,1.15,.1,1.6,.3,.46,.2,.84,.48,1.15,.84,.31,.36,.54,.78,.7,1.25,.16,.47,.24,.97,.24,1.5v5.36c0,.53-.08,1.03-.24,1.5-.16,.47-.39,.89-.7,1.25-.31,.36-.69,.64-1.15,.84-.46,.2-.99,.3-1.6,.3h-1.21l-.81-2.02Zm0,0h2.02c.64,0,1.12-.18,1.44-.55,.31-.37,.47-.81,.47-1.31v-5.36c0-.51-.16-.95-.47-1.31-.31-.37-.79-.55-1.44-.55h-2.02v9.1Z"/><path class="d" d="M218.01,99.59c0-.32,0-.65,.02-.99l-3.86,8.7h-1.66v-13.15h1.75v7.73c0,.33,0,.67-.02,1l3.88-8.73h1.66v13.15h-1.77v-7.72Z"/><polygon class="d" points="224.18 99.7 224.18 107.3 222.43 107.3 222.43 94.16 224.18 94.16 224.18 99.7 227.93 99.7 227.93 94.16 229.71 94.16 229.71 107.3 227.93 107.3 227.93 101.73 224.97 101.73 224.18 99.7"/><path class="d" d="M237.86,99.59c0-.32,0-.65,.02-.99l-3.86,8.7h-1.66v-13.15h1.75v7.73c0,.33,0,.67-.02,1l3.88-8.73h1.66v13.15h-1.77v-7.72Z"/><path class="d" d="M249.31,94.16h2.09v13.15h-1.77v-6.66c0-.61,0-1.21,.02-1.83-.08,.28-.16,.56-.26,.83-.1,.27-.19,.55-.28,.83l.02-.03c-.24,.7-.5,1.45-.79,2.23-.28,.79-.55,1.53-.79,2.23h-1.42l-1.59-4.47,.02,.03c-.1-.28-.2-.56-.29-.83-.09-.27-.18-.55-.27-.83,.01,.61,.03,1.22,.03,1.83,0,.6,.01,1.21,.01,1.83v4.84h-1.77v-13.15h2.09l1.98,6.07,.49,1.66c.07-.28,.15-.56,.24-.83,.08-.27,.17-.55,.26-.83l1.98-6.07Z"/><path class="d" d="M253.62,103.65c0-.65,.1-1.21,.29-1.68,.19-.47,.45-.87,.77-1.2,.32-.32,.69-.58,1.11-.78,.42-.19,.85-.33,1.3-.42l1.32-.24,.72,1.89-1.77,.37c-.52,.1-.98,.31-1.38,.62-.4,.31-.6,.79-.6,1.46,0,.25,.02,.47,.06,.67,.04,.2,.12,.38,.25,.53,.13,.15,.3,.27,.53,.35,.22,.09,.52,.13,.9,.13,.67,0,1.18-.21,1.52-.63,.34-.42,.5-.94,.5-1.55v-5.13c0-.51-.15-.95-.45-1.31-.3-.37-.72-.55-1.26-.55h-3.08v-2.02h3.08c.55,0,1.05,.1,1.48,.3,.43,.2,.8,.48,1.09,.84,.29,.36,.51,.78,.66,1.25,.15,.47,.22,.97,.22,1.5v9.25h-1.21l-.2-.89c-.58,.68-1.4,1.03-2.45,1.03-.66,0-1.2-.09-1.64-.28-.43-.18-.78-.44-1.04-.78-.26-.33-.45-.73-.56-1.2-.11-.46-.17-.98-.17-1.54"/><path class="d" d="M262.55,94.16h6.76v2.13h-6.76v-2.13Zm4.27,2.13v11.02h-1.77v-10.2l1.77-.81Z"/><path class="d" d="M273.42,101.54l-.79-2v3.86c0,.53,.16,.97,.47,1.33,.31,.36,.79,.54,1.44,.54h3.28v2.02h-3.28c-.61,0-1.15-.1-1.6-.3-.46-.2-.84-.48-1.15-.83-.31-.35-.54-.76-.7-1.24-.16-.47-.24-.98-.24-1.52v-5.6c0-.53,.08-1.02,.24-1.47,.16-.46,.39-.85,.7-1.2,.31-.34,.69-.61,1.15-.81,.46-.2,.99-.3,1.6-.3s1.1,.09,1.55,.28c.45,.18,.82,.44,1.12,.76,.3,.32,.53,.7,.69,1.13,.16,.43,.24,.89,.24,1.38v3.97h-4.72Zm-.79-2h3.73v-1.97c0-.42-.15-.78-.46-1.08-.31-.3-.76-.45-1.36-.45-.64,0-1.12,.18-1.44,.53-.31,.35-.47,.76-.47,1.24v1.74Z"/><path class="d" d="M283.52,96.18c-.06,1.95-.16,3.61-.29,5.01-.13,1.39-.32,2.55-.56,3.46-.24,.91-.54,1.58-.9,2.01-.36,.43-.8,.64-1.33,.64h-1.03v-2.02h.99c.19,0,.36-.15,.5-.45,.14-.3,.27-.78,.37-1.43,.11-.66,.2-1.52,.27-2.58,.07-1.06,.15-2.35,.23-3.88l1.75-.76h-1.73l.09-2.02h5.39v13.15h-1.77v-11.12h-1.98Z"/><path class="d" d="M291.7,98.55h1.66c.54,0,1.03,.07,1.47,.21,.44,.14,.82,.37,1.15,.68,.32,.32,.57,.72,.75,1.22,.18,.5,.27,1.11,.27,1.83v.97c0,1.19-.32,2.13-.97,2.81-.64,.68-1.51,1.03-2.6,1.03h-3.5v-13.15h1.77v4.39Zm0,0v6.73h1.73c.55,0,1-.16,1.32-.49,.33-.32,.49-.77,.49-1.33v-.97c0-.7-.18-1.2-.54-1.49-.36-.29-.81-.43-1.35-.43h-.85l-.81-2.02Z"/><path class="d" d="M298.93,97.94c.03-.53,.13-1.02,.3-1.47,.17-.46,.41-.85,.72-1.2,.31-.34,.68-.61,1.12-.81,.44-.2,.95-.3,1.54-.3h2.67v2.02h-2.67c-.57,0-1.01,.17-1.32,.5-.31,.33-.5,.75-.56,1.26h-1.8Zm1.8,.03c-.02,.07-.02,.18-.02,.32v4.89c0,.58,.16,1.07,.48,1.49,.32,.41,.8,.62,1.43,.62h2.67v2.02h-2.67c-.61,0-1.15-.11-1.6-.33-.46-.22-.84-.52-1.15-.89-.31-.38-.54-.82-.7-1.31-.16-.5-.24-1.03-.24-1.59v-4.29l1.8-.92Z"/><path class="d" d="M307.53,94.16h6.76v2.13h-6.76v-2.13Zm4.27,2.13v11.02h-1.77v-10.2l1.77-.81Z"/><path class="d" d="M316.03,107.3v-13.15h3.68c1.08,0,1.91,.31,2.49,.92,.58,.61,.88,1.41,.88,2.39v.97c0,.47-.11,.89-.34,1.25-.22,.36-.53,.65-.92,.88,.46,.25,.83,.56,1.09,.95,.26,.39,.39,.86,.39,1.42v.97c0,1.09-.32,1.92-.97,2.51-.64,.59-1.52,.88-2.63,.88h-3.68Zm3.64-7.65c.52,0,.93-.09,1.22-.26s.44-.48,.44-.92v-.97c0-.4-.13-.72-.38-.96-.26-.24-.67-.35-1.23-.35h-1.93v3.47h1.89Zm-1.08,2.02l-.81-2.02v5.63h1.98c.66,0,1.12-.11,1.38-.33,.26-.22,.39-.56,.39-1.01v-.97c0-.49-.15-.83-.45-1.01-.3-.18-.77-.28-1.41-.28h-1.08Z"/><path class="d" d="M325.02,103.65c0-.65,.1-1.21,.29-1.68,.19-.47,.45-.87,.78-1.2,.32-.32,.69-.58,1.11-.78,.42-.19,.85-.33,1.3-.42l1.32-.24,.72,1.89-1.77,.37c-.52,.1-.98,.31-1.38,.62-.4,.31-.6,.79-.6,1.46,0,.25,.02,.47,.06,.67,.04,.2,.12,.38,.25,.53,.13,.15,.3,.27,.53,.35,.22,.09,.52,.13,.9,.13,.67,0,1.18-.21,1.52-.63,.34-.42,.5-.94,.5-1.55v-5.13c0-.51-.15-.95-.45-1.31-.3-.37-.72-.55-1.26-.55h-3.08v-2.02h3.08c.55,0,1.05,.1,1.48,.3,.43,.2,.8,.48,1.09,.84,.29,.36,.51,.78,.66,1.25,.15,.47,.23,.97,.23,1.5v9.25h-1.21l-.2-.89c-.58,.68-1.4,1.03-2.45,1.03-.66,0-1.2-.09-1.64-.28-.43-.18-.78-.44-1.04-.78s-.45-.73-.56-1.2c-.11-.46-.17-.98-.17-1.54"/><path class="c" d="M154.2,122.73c0-1.51,.32-2.67,.97-3.48,.64-.81,1.59-1.22,2.83-1.22h3.39v1.21h-3.37c-.88,0-1.55,.29-2.01,.85-.46,.57-.68,1.45-.68,2.64h-1.12Zm0,.66l1.12-.53v8.86c0,1.19,.23,2.07,.68,2.64,.46,.57,1.13,.85,2.01,.85h3.37v1.21h-3.39c-1.24,0-2.19-.41-2.83-1.22-.64-.81-.97-1.98-.97-3.48v-8.33Z"/><path class="c" d="M163.96,123.28h2.87c.52,0,.99,.1,1.4,.29,.41,.19,.76,.46,1.03,.79,.28,.33,.49,.72,.64,1.17,.15,.45,.22,.92,.22,1.43v9.46h-.52l-.4-1.6c-.25,.53-.61,.95-1.07,1.26-.46,.32-1.04,.47-1.74,.47-.63,0-1.15-.09-1.56-.26-.41-.17-.74-.42-.99-.72-.25-.31-.42-.68-.53-1.12-.11-.44-.16-.92-.16-1.45,0-.63,.09-1.17,.27-1.62,.18-.45,.42-.82,.73-1.13,.31-.31,.66-.55,1.07-.74,.4-.18,.84-.32,1.3-.41l2.11-.42,.4,1.08-2.36,.5c-.33,.07-.65,.17-.95,.29-.31,.12-.58,.29-.81,.51-.23,.22-.42,.49-.55,.8-.13,.32-.2,.7-.2,1.16,0,.35,.03,.67,.08,.95,.05,.28,.16,.53,.33,.74,.16,.21,.4,.37,.71,.49,.31,.11,.71,.17,1.2,.17,.9,0,1.56-.28,1.99-.84,.43-.56,.64-1.24,.64-2.05v-5.52c0-.7-.2-1.3-.6-1.8-.4-.5-.96-.75-1.7-.75h-2.87v-1.13Z"/><path class="c" d="M174.16,136.42h-1.01v-13.15h1.01v13.15Zm.11-7.15h4.83v-5.99h1.01v13.15h-1.01v-6.02h-4.38l-.45-1.13Z"/><path class="c" d="M183.21,123.28h1.01v13.15h-1.01v-13.15Zm2.94,6.41l3.77,6.73h-1.17l-3.46-6.2h-.49l-.45-1.13h.97l3.43-5.81h1.17l-3.77,6.41Z"/><path class="c" d="M191.27,123.28h6.4v1.26h-6.4v-1.26Zm3.71,1.39v11.75h-1.01v-11.23l1.01-.53Z"/><rect class="c" x="198.77" y="129.27" width="4.15" height="1.13"/><path class="c" d="M213.83,118.02v18.4h-1.12v-17.19h-6.51v-1.21h7.63Zm-6.51,1.34v17.06h-1.12v-16.54l1.12-.53Z"/><path class="c" d="M220.34,136.42c-.58,0-1.1-.1-1.54-.29-.44-.19-.81-.46-1.1-.79-.29-.33-.51-.72-.66-1.17-.15-.45-.22-.92-.22-1.43v-6.05c0-.49,.07-.95,.22-1.38,.15-.43,.37-.81,.66-1.13,.29-.32,.66-.58,1.1-.76,.44-.18,.95-.28,1.54-.28,.55,0,1.04,.09,1.47,.26s.79,.41,1.08,.71,.51,.65,.66,1.05c.15,.4,.23,.82,.23,1.26v3.79h-5.39l-.45-1.13h4.83v-2.66c0-.6-.21-1.1-.62-1.52-.41-.42-1.01-.63-1.81-.63-.84,0-1.47,.24-1.89,.71-.42,.47-.63,1.04-.63,1.71v6.05c0,.72,.21,1.32,.63,1.81,.42,.49,1.05,.74,1.89,.74h3.1v1.13h-3.1Z"/><path class="c" d="M225.51,123.28h6.4v1.26h-6.4v-1.26Zm3.7,1.39v11.75h-1.01v-11.23l1.01-.53Z"/><path class="c" d="M237.21,136.42c-.58,0-1.1-.1-1.54-.29-.44-.19-.81-.46-1.1-.79-.29-.33-.51-.72-.66-1.17-.15-.45-.22-.92-.22-1.43v-6.05c0-.49,.07-.95,.22-1.38,.15-.43,.37-.81,.66-1.13,.29-.32,.66-.58,1.1-.76,.44-.18,.95-.28,1.54-.28,.55,0,1.04,.09,1.47,.26s.79,.41,1.08,.71c.29,.3,.51,.65,.66,1.05,.15,.4,.23,.82,.23,1.26v3.79h-5.39l-.45-1.13h4.83v-2.66c0-.6-.21-1.1-.62-1.52-.41-.42-1.01-.63-1.81-.63-.84,0-1.47,.24-1.89,.71-.42,.47-.63,1.04-.63,1.71v6.05c0,.72,.21,1.32,.63,1.81,.42,.49,1.05,.74,1.89,.74h3.1v1.13h-3.1Z"/><path class="c" d="M247.15,135.29c.84,0,1.47-.25,1.89-.75,.42-.5,.63-1.1,.63-1.8v-5.78c0-.7-.21-1.3-.63-1.8-.42-.5-1.05-.75-1.89-.75h-2.65v18.59h-1.01v-19.72h3.66c.58,0,1.1,.1,1.54,.29,.44,.19,.81,.46,1.1,.79,.29,.33,.51,.72,.66,1.17,.15,.45,.22,.92,.22,1.43v5.78c0,.51-.08,.99-.22,1.43-.15,.45-.37,.84-.66,1.17-.29,.33-.66,.6-1.1,.79-.44,.19-.95,.29-1.54,.29h-2.09l-.45-1.13h2.54Z"/><path class="c" d="M258.55,123.57c.44,.19,.81,.45,1.11,.78,.3,.32,.53,.7,.69,1.13,.16,.43,.24,.88,.24,1.35v6.05c0,.51-.08,.98-.24,1.42-.16,.44-.39,.83-.69,1.17-.3,.34-.67,.61-1.12,.8-.45,.19-.97,.29-1.55,.29s-1.1-.1-1.55-.29c-.45-.19-.82-.46-1.12-.8-.3-.34-.53-.73-.68-1.17-.16-.44-.24-.91-.24-1.42v-10.44c0-.88,.13-1.59,.38-2.16,.25-.56,.56-1.01,.92-1.35,.36-.34,.73-.6,1.11-.76,.38-.17,.7-.28,.95-.35l3.14-.89,.25,1.08-3.12,.92c-.21,.05-.46,.14-.76,.28-.3,.13-.59,.33-.86,.61-.28,.27-.51,.62-.71,1.05-.19,.43-.29,.98-.29,1.64v10.38c0,.7,.22,1.3,.65,1.8,.43,.5,1.08,.75,1.93,.75s1.5-.25,1.93-.75c.43-.5,.65-1.1,.65-1.8v-6.05c0-.67-.22-1.24-.65-1.74-.43-.49-1.06-.74-1.86-.74h-2.09l-.45-1.08h2.54c.55,0,1.05,.1,1.49,.29"/><path class="c" d="M265.54,131.74c.21,.82,.39,1.64,.53,2.46,.14,.81,.3,1.64,.46,2.48h.04c.16-.84,.32-1.67,.46-2.48,.14-.81,.31-1.63,.51-2.46l1.98-8.47h.99l-4.6,19.72h-.99l1.14-4.86-3.64-14.85h1.03l2.09,8.47Z"/><path class="c" d="M276.47,135.29c.84,0,1.47-.25,1.89-.75,.42-.5,.63-1.1,.63-1.8v-5.78c0-.7-.21-1.3-.63-1.8-.42-.5-1.05-.75-1.89-.75h-2.65v18.59h-1.01v-19.72h3.66c.58,0,1.1,.1,1.54,.29,.44,.19,.81,.46,1.1,.79,.29,.33,.51,.72,.66,1.17,.15,.45,.22,.92,.22,1.43v5.78c0,.51-.08,.99-.22,1.43-.15,.45-.37,.84-.66,1.17-.29,.33-.66,.6-1.1,.79-.44,.19-.95,.29-1.54,.29h-2.09l-.45-1.13h2.54Z"/><polygon class="c" points="282.92 123.28 287.97 123.28 287.97 124.41 283.93 124.41 283.93 136.42 282.92 136.42 282.92 123.28"/></g><line class="b" x1="355.67" y1="18" x2="355.67" y2="158"/></svg>