<svg width="270" height="200" viewBox="0 0 270 200" fill="none" xmlns="http://www.w3.org/2000/svg">
<g clip-path="url(#clip0_4_435)">
<path d="M136.535 190.078C136.269 190.09 136.005 190.02 135.78 189.878C135.555 189.736 135.38 189.529 135.277 189.284C135.174 189.039 135.149 188.768 135.206 188.509C135.263 188.25 135.398 188.014 135.593 187.834C135.626 187.704 135.65 187.611 135.682 187.481C135.428 186.836 134.986 186.282 134.413 185.889C133.841 185.496 133.163 185.283 132.468 185.276C131.773 185.27 131.092 185.47 130.512 185.852C129.932 186.234 129.48 186.78 129.213 187.42C127.674 191.012 125.682 194.731 126.673 198.687C120.128 184.859 122.354 167.658 132.025 155.833C134.699 154.365 136.866 151.756 137.43 148.727C136.107 149.174 134.457 148.101 135.452 146.712C135.883 146.181 136.318 145.654 136.749 145.123C131.724 139.787 125.735 148.173 131.267 155.376C129.458 157.638 127.89 160.082 126.59 162.67C126.891 159.922 126.532 157.144 125.545 154.561C124.545 152.155 122.669 150.128 121.018 148.048C119.01 145.513 114.877 146.683 114.607 149.899C116.46 150.507 116.701 153.175 114.581 153.541C115.136 159.525 119.058 165.024 124.458 167.648C122.464 173.228 121.685 179.167 122.174 185.07C121.221 178.171 113.793 176.497 108.601 173.755C108.271 173.544 107.886 173.433 107.493 173.436C107.101 173.439 106.718 173.556 106.391 173.772C106.064 173.989 105.807 174.296 105.652 174.655C105.497 175.015 105.45 175.411 105.517 175.797C106.234 176.087 106.919 176.448 107.564 176.874C107.867 177.076 108.099 177.367 108.229 177.707C108.359 178.046 108.38 178.417 108.29 178.769C108.2 179.12 108.004 179.436 107.727 179.672C107.45 179.908 107.107 180.053 106.744 180.087C109.361 186.544 116.127 190.88 123.076 190.856C123.744 193.749 124.711 196.565 125.963 199.259H136.276C136.313 199.144 136.347 199.026 136.38 198.912C135.425 198.972 134.467 198.915 133.526 198.743C136.052 195.761 138.005 194.24 136.535 190.078L136.535 190.078Z" fill="#F2F2F2"/>
<path d="M190.839 5.78825H101.77C101 5.78825 100.262 5.48334 99.7172 4.94058C99.1728 4.39783 98.8669 3.66169 98.8669 2.89412C98.8669 2.12655 99.1728 1.39042 99.7172 0.847669C100.262 0.304915 101 0 101.77 0H190.839C191.609 0 192.348 0.304915 192.892 0.847669C193.436 1.39042 193.742 2.12655 193.742 2.89412C193.742 3.66169 193.436 4.39783 192.892 4.94058C192.348 5.48334 191.609 5.78825 190.839 5.78825Z" fill="#E6E6E6"/>
<path d="M190.839 21.1984H101.77C101 21.1984 100.262 20.8935 99.7172 20.3507C99.1728 19.808 98.8669 19.0719 98.8669 18.3043C98.8669 17.5367 99.1728 16.8006 99.7172 16.2578C100.262 15.7151 101 15.4102 101.77 15.4102H190.839C191.609 15.4102 192.348 15.7151 192.892 16.2578C193.436 16.8006 193.742 17.5367 193.742 18.3043C193.742 19.0719 193.436 19.808 192.892 20.3507C192.348 20.8935 191.609 21.1984 190.839 21.1984Z" fill="#E6E6E6"/>
<path d="M194.731 114.297L155.903 115.296C155.093 115.316 154.309 115.015 153.721 114.458C153.134 113.902 152.792 113.137 152.77 112.329L152.271 93.0623C152.251 92.2549 152.553 91.4726 153.111 90.8869C153.669 90.3013 154.437 89.9602 155.247 89.9385L194.074 88.9392C194.884 88.9193 195.668 89.2204 196.256 89.7766C196.843 90.3327 197.185 91.0985 197.207 91.9058L197.706 111.173C197.726 111.98 197.424 112.762 196.866 113.348C196.308 113.934 195.54 114.275 194.731 114.297Z" fill="white"/>
<path d="M194.74 114.655L155.913 115.654C155.008 115.676 154.131 115.34 153.474 114.718C152.818 114.097 152.435 113.241 152.411 112.338L151.912 93.0715C151.89 92.1691 152.227 91.2948 152.851 90.6403C153.474 89.9858 154.332 89.6045 155.238 89.5802L194.065 88.5809C194.97 88.5587 195.847 88.8952 196.503 89.5168C197.16 90.1384 197.542 90.9942 197.567 91.8965L198.065 111.163C198.088 112.066 197.75 112.94 197.127 113.595C196.503 114.249 195.645 114.63 194.74 114.655ZM155.256 90.2967C154.542 90.3159 153.864 90.6168 153.372 91.1336C152.879 91.6503 152.613 92.3406 152.631 93.053L153.129 112.32C153.149 113.032 153.451 113.708 153.969 114.199C154.487 114.689 155.179 114.955 155.894 114.937L194.721 113.938C195.436 113.919 196.114 113.618 196.606 113.101C197.098 112.585 197.364 111.894 197.347 111.182L196.848 91.915C196.829 91.2027 196.527 90.527 196.009 90.0363C195.49 89.5456 194.798 89.2798 194.083 89.2975L155.256 90.2967Z" fill="#CCCCCC"/>
<path d="M170.991 109.081C170.771 109.087 170.552 109.036 170.357 108.934C170.148 108.829 169.972 108.668 169.847 108.47C169.723 108.272 169.655 108.044 169.651 107.811L169.372 97.0582C169.366 96.825 169.423 96.5945 169.537 96.3908C169.651 96.1871 169.817 96.0176 170.019 95.9C170.221 95.7825 170.451 95.7212 170.685 95.7226C170.919 95.7239 171.149 95.7879 171.349 95.9079L181.719 101.021C181.908 101.134 182.065 101.292 182.176 101.481C182.286 101.671 182.347 101.885 182.353 102.104C182.359 102.323 182.309 102.54 182.208 102.735C182.107 102.93 181.959 103.096 181.776 103.218L171.685 108.858C171.48 108.997 171.239 109.074 170.991 109.081Z" fill="#6C63FF"/>
<path d="M146.305 69.1684C155.635 69.1684 163.199 61.6273 163.199 52.3248C163.199 43.0223 155.635 35.4811 146.305 35.4811C136.974 35.4811 129.41 43.0223 129.41 52.3248C129.41 61.6273 136.974 69.1684 146.305 69.1684Z" fill="#E6E6E6"/>
<path d="M146.304 61.3858C146.114 61.3858 145.931 61.3102 145.796 61.1758C145.661 61.0414 145.586 60.8591 145.586 60.669V44.0821C145.586 43.892 145.661 43.7097 145.796 43.5753C145.931 43.4409 146.114 43.3654 146.304 43.3654C146.495 43.3654 146.678 43.4409 146.813 43.5753C146.948 43.7097 147.023 43.892 147.023 44.0821V60.669C147.023 60.8591 146.948 61.0414 146.813 61.1758C146.678 61.3102 146.495 61.3858 146.304 61.3858Z" fill="#6C63FF"/>
<path d="M154.623 53.0923H137.986C137.795 53.0923 137.613 53.0167 137.478 52.8823C137.343 52.7479 137.267 52.5656 137.267 52.3755C137.267 52.1854 137.343 52.0031 137.478 51.8687C137.613 51.7343 137.795 51.6588 137.986 51.6588H154.623C154.814 51.6588 154.997 51.7343 155.131 51.8687C155.266 52.0031 155.342 52.1854 155.342 52.3755C155.342 52.5656 155.266 52.7479 155.131 52.8823C154.997 53.0167 154.814 53.0923 154.623 53.0923Z" fill="#6C63FF"/>
<path d="M84.1183 106.798H55.3617V74.544H84.1183C80.9777 78.7539 82.5318 92.742 84.1183 106.798Z" fill="#FFB6B6"/>
<path d="M84.2849 189.1H89.4611L91.9237 169.194L84.2838 169.194L84.2849 189.1Z" fill="#FFB6B6"/>
<path d="M91.1837 189.565V186.066L89.8229 186.149L84.2835 186.476L83.0015 186.555L82.0214 198.272L81.9689 198.9H85.6443L85.7625 198.276L86.2963 195.441L87.6746 198.276L87.9765 198.9H97.7208C98.3006 198.896 98.8556 198.665 99.2652 198.256C99.6749 197.846 99.906 197.293 99.9085 196.714C100.32 194.799 92.2163 190.659 91.1837 189.565Z" fill="#2F2E41"/>
<path d="M23.6418 183.483L28.1441 186.029L40.1388 169.928L33.4942 166.169L23.6418 183.483Z" fill="#FFB6B6"/>
<path d="M29.4144 187.279L31.1427 184.238L29.9263 183.641L24.9426 181.202L23.7874 180.635L18.1124 188.919L16.7778 190.865L18.2874 191.72L19.972 192.675L22.256 189.988L22.0022 193.822L29.9613 198.329H29.9657L30.4776 198.616C30.9831 198.901 31.5813 198.974 32.1408 198.82C32.7002 198.665 33.1753 198.296 33.4617 197.792C34.7656 196.326 29.7688 188.744 29.4144 187.279Z" fill="#2F2E41"/>
<path d="M54.2834 91.3876C47.3469 95.9703 44.7938 139.998 46.5959 139.279L30.2466 169.657L53.5175 180.056L68.8185 127.088L71.3686 146.58L67.9684 177.514L83.0103 181.141L93.4145 180.4C90.711 143.527 88.2745 104.639 82.6805 89.5958L54.2834 91.3876Z" fill="#2F2E41"/>
<path d="M75.833 39.1223C75.833 39.1223 68.1322 38.1292 65.786 39.0649C64.9512 39.3978 64.1164 42.4548 62.5509 43.3654C59.7164 45.014 57.4033 44.7362 57.4033 44.7362C58.5105 58.7912 58.4503 69.6943 51.8263 90.054C51.8201 90.5692 51.9467 91.0774 52.1939 91.5299C52.4411 91.9823 52.8007 92.3639 53.2383 92.6382C53.6758 92.9124 54.1766 93.07 54.6928 93.0959C55.2089 93.1219 55.7231 93.0153 56.1861 92.7864L83.3994 90.6709L86.6256 73.7416L90.8487 64.8528L85.3772 53.6249L84.908 47.0753L78.0076 43.7237L75.833 39.1223Z" fill="#6C63FF"/>
<path d="M79.2326 36.0152L79.2409 36.0159C79.6837 36.054 80.1235 35.9153 80.4636 35.6301C80.8037 35.3449 81.0162 34.9368 81.0544 34.4954L81.8649 25.208C82.0117 23.5442 81.8215 21.8679 81.3055 20.2789C80.2942 17.1776 78.1216 14.585 75.2403 13.0414C73.7526 12.2465 72.1188 11.7602 70.4375 11.6117C63.559 11.0042 61.0564 12.4482 56.8797 22.9288C52.7029 33.4094 56.068 32.2304 56.068 32.2304C56.0482 32.4542 56.0739 32.6797 56.1434 32.8934C56.2798 33.3104 56.5726 33.6588 56.9605 33.8657C57.1596 33.9716 57.378 34.0365 57.6027 34.0566C65.7431 36.0624 73.9576 38.176 79.234 36.0153L79.2326 36.0152Z" fill="#2F2E41"/>
<path d="M64.0026 20.4493C62.9925 21.9609 62.4543 23.737 62.4561 25.5533C62.4578 27.3696 62.9994 29.1447 64.0124 30.6543C65.0254 32.164 66.4645 33.3404 68.1477 34.0351C69.831 34.7299 71.683 34.9117 73.4699 34.5577C74.6528 34.3271 75.778 33.8649 76.7804 33.1977C77.7828 32.5305 78.6424 31.6716 79.3095 30.6708C80.3175 29.1598 80.8541 27.385 80.8518 25.5703C80.8495 23.7556 80.3083 21.9822 79.2965 20.4737C78.2847 18.9652 76.8476 17.7892 75.1663 17.0938C73.485 16.3985 71.6349 16.2151 69.8492 16.5666C68.6653 16.7958 67.5389 17.2571 66.5353 17.9236C65.5317 18.5902 64.6708 19.4488 64.0025 20.4497L64.0026 20.4493Z" fill="#FFB6B6"/>
<path d="M84.7536 26.2201C84.8696 24.9042 84.7191 23.5785 84.3111 22.3218C84.1979 19.2417 83.2828 16.4572 79.5148 16.5992C78.3456 15.9751 77.0624 15.5918 75.7415 15.4722L73.8779 15.3011C73.857 15.2992 73.836 15.2973 73.8151 15.2955C71.2075 15.0709 68.6173 15.8883 66.6142 17.5678C64.6111 19.2472 63.3593 21.6512 63.134 24.2509L63.1178 24.437L67.0607 24.795L68.7324 21.1656L68.6739 24.9422L70.7103 25.1279L71.5534 23.2968L71.5243 25.2009C74.5636 27.8342 79.1466 27.943 84.7356 26.4063L84.7536 26.2201Z" fill="#2F2E41"/>
<path d="M72.2081 35.111C72.2437 35.4166 72.1925 35.726 72.0604 36.0041C71.9939 36.1465 71.9077 36.2789 71.8043 36.3974C71.7158 36.4984 71.6157 36.5886 71.506 36.6661C71.1811 36.8948 70.785 37.0006 70.3889 36.9646C70.3642 36.9622 70.3396 36.9594 70.315 36.9561C70.2904 36.9528 70.2659 36.9489 70.2414 36.9445C70.2166 36.9402 70.1921 36.9353 70.1677 36.9297C70.1433 36.9241 70.1188 36.9181 70.0943 36.9115L68.7165 36.5364L67.1467 32.2622L66.8185 36.0241L60.5535 34.3296L61.9465 18.3657L72.6121 19.3423L72.3216 19.6249C71.3566 20.5738 70.6729 21.7697 70.3458 23.0811C70.0213 24.4099 69.9275 25.7844 70.0686 27.1448C70.2011 28.5204 70.4658 29.8802 70.859 31.2054C71.2014 32.3789 71.6114 33.5317 72.0868 34.6582C72.1483 34.8027 72.1891 34.9552 72.2081 35.111Z" fill="#2F2E41"/>
<path d="M54.0159 144.187L46.1818 97.2173C46.0244 96.2665 46.2516 95.2922 46.8137 94.5082C47.3759 93.7242 48.227 93.1945 49.1804 93.0354L84.7601 87.1367C85.7138 86.9797 86.6911 87.2063 87.4775 87.7667C88.2638 88.3272 88.7951 89.1757 88.9547 90.1262L96.7888 137.096C96.9463 138.047 96.719 139.021 96.1569 139.805C95.5948 140.589 94.7437 141.119 93.7903 141.278L58.2106 147.177C57.2568 147.334 56.2796 147.107 55.4932 146.547C54.7068 145.986 54.1755 145.138 54.0159 144.187Z" fill="#E6E6E6"/>
<path d="M54.3789 129.548L49.3424 99.3514C49.1949 98.4609 49.4078 97.5484 49.9342 96.8142C50.4607 96.0799 51.2578 95.5839 52.1506 95.4348L82.7285 90.3655C83.6217 90.2184 84.5369 90.4305 85.2734 90.9554C86.0099 91.4803 86.5075 92.275 86.6571 93.1652L93.6283 134.962C93.7758 135.852 93.5629 136.765 93.0364 137.499C92.5099 138.233 91.7128 138.729 90.8199 138.878L71.8776 142.019C67.899 142.674 63.8223 141.729 60.5418 139.391C57.2612 137.053 55.0449 133.513 54.3789 129.548Z" fill="white"/>
<path d="M55.6986 106.956C55.5544 106.086 55.7624 105.194 56.2769 104.477C56.7913 103.759 57.5702 103.274 58.4428 103.129L79.6545 99.6121C80.5271 99.4683 81.4212 99.6758 82.1404 100.189C82.8596 100.702 83.345 101.479 83.4901 102.349C83.6352 103.218 83.4279 104.11 82.914 104.827C82.4001 105.545 81.6214 106.03 80.7492 106.175L59.5374 109.692C58.6646 109.836 57.7702 109.628 57.0505 109.115C56.3309 108.602 55.8447 107.826 55.6986 106.956Z" fill="#6C63FF"/>
<path d="M57.4014 117.165C57.2572 116.295 57.4652 115.403 57.9796 114.686C58.4941 113.968 59.273 113.484 60.1455 113.338L81.3573 109.821C82.2299 109.678 83.124 109.885 83.8433 110.398C84.5626 110.911 85.0481 111.688 85.1931 112.558C85.3382 113.428 85.131 114.319 84.617 115.037C84.103 115.754 83.3243 116.239 82.4519 116.385L61.2402 119.901C60.3674 120.045 59.473 119.838 58.7533 119.325C58.0336 118.812 57.5474 118.035 57.4014 117.165Z" fill="#6C63FF"/>
<path d="M59.1042 127.375C58.9601 126.504 59.168 125.613 59.6825 124.895C60.197 124.178 60.9759 123.693 61.8484 123.547L83.0602 120.031C83.9327 119.887 84.8268 120.094 85.546 120.608C86.2652 121.121 86.7507 121.897 86.8957 122.767C87.0408 123.637 86.8336 124.529 86.3197 125.246C85.8057 125.964 85.0271 126.448 84.1548 126.594L62.9431 130.11C62.0702 130.254 61.1759 130.047 60.4562 129.534C59.7365 129.021 59.2503 128.245 59.1042 127.375Z" fill="#6C63FF"/>
<path d="M49.7845 102.12C50.1638 101.724 50.4523 101.251 50.6301 100.732C50.8078 100.214 50.8706 99.6641 50.8141 99.1194C50.7575 98.5748 50.583 98.049 50.3026 97.5782C50.0221 97.1075 49.6424 96.703 49.1898 96.393L52.9237 77.9218L48.0531 75.636L43.7792 97.6068C43.3123 98.4052 43.1555 99.3466 43.3383 100.253C43.5211 101.159 44.031 101.966 44.7712 102.523C45.5114 103.079 46.4306 103.345 47.3546 103.271C48.2786 103.197 49.1431 102.787 49.7845 102.12V102.12Z" fill="#FFB6B6"/>
<path d="M57.5184 44.7989C57.5184 44.7989 48.957 48.011 48.4877 52.6893C48.0185 57.3676 46.9401 61.5374 47.4093 63.4087C47.8786 65.28 45.7962 67.4065 46.7347 68.81C47.6732 70.2135 45.4226 70.6751 46.3611 73.0142C47.2995 75.3533 47.7688 75.8212 47.2996 76.289C46.8303 76.7568 45.2969 86.3704 45.2969 86.3704L51.9618 87.8453L60.6578 68.1276L57.5184 44.7989Z" fill="#6C63FF"/>
<path d="M88.6172 102.12C88.2379 101.724 87.9494 101.251 87.7716 100.732C87.5938 100.214 87.5311 99.6641 87.5876 99.1194C87.6442 98.5748 87.8187 98.049 88.0991 97.5782C88.3796 97.1074 88.7593 96.703 89.2119 96.393L85.478 77.9218L90.3486 75.636L94.6225 97.6068C95.0893 98.4052 95.2462 99.3466 95.0634 100.253C94.8806 101.159 94.3707 101.966 93.6305 102.523C92.8903 103.079 91.9711 103.345 91.0471 103.271C90.1231 103.197 89.2586 102.787 88.6172 102.12V102.12Z" fill="#FFB6B6"/>
<path d="M83.031 46.6075C83.9221 46.6571 84.7837 46.9435 85.5263 47.4371C86.269 47.9307 86.8655 48.6134 87.2542 49.4144C88.6619 52.2214 93.9335 69.9151 93.4643 71.3186C92.995 72.7221 95.1215 77.2546 94.183 78.1903C93.2445 79.1259 92.3859 84.5785 92.3859 84.5785L85.5472 86.1434L83.3409 65.3206L83.031 46.6075Z" fill="#6C63FF"/>
<path d="M244.6 110.682C244.464 110.225 244.431 109.743 244.502 109.272C244.573 108.801 244.747 108.35 245.011 107.953C245.275 107.556 245.624 107.221 246.032 106.973C246.44 106.725 246.898 106.568 247.373 106.515L249.94 95.2136L254.124 99.5572L251.044 109.624C251.081 110.425 250.821 111.213 250.314 111.836C249.807 112.46 249.088 112.876 248.294 113.006C247.499 113.137 246.685 112.972 246.004 112.544C245.323 112.115 244.824 111.453 244.6 110.682H244.6Z" fill="#A0616A"/>
<path d="M250.769 41.0543L250.974 42.0257L261.69 74.71L254.482 103.836L248.582 101.086L249.973 75.2625C239.384 61.1671 236.27 56.0653 237.193 41.395L250.769 41.0543Z" fill="#6C63FF"/>
<path d="M241.636 194.073L236.365 194.073L233.857 173.801L241.638 173.801L241.636 194.073Z" fill="#A0616A"/>
<path d="M241.822 199.556L225.611 199.555V199.351C225.611 197.683 226.276 196.083 227.46 194.903C228.643 193.723 230.248 193.061 231.921 193.06H231.921L234.883 190.821L240.407 193.061L241.822 193.061L241.822 199.556Z" fill="#2F2E41"/>
<path d="M212.666 194.073L207.395 194.073L204.887 173.801L212.667 173.801L212.666 194.073Z" fill="#A0616A"/>
<path d="M212.852 199.556L196.641 199.555V199.351C196.641 197.683 197.306 196.083 198.489 194.903C199.673 193.723 201.278 193.061 202.951 193.06H202.951L205.912 190.821L211.437 193.061L212.852 193.061L212.852 199.556Z" fill="#2F2E41"/>
<path d="M248.047 101.085C248.047 101.085 250.127 106.008 248.047 114.042C245.968 122.076 245.448 142.289 245.448 142.289L242.115 187.68H233.298L232.972 154.987L228.553 119.743L219.715 153.173C219.715 153.173 216.336 178.051 215.036 179.088C213.737 180.124 213.145 187.366 213.145 187.366C210.473 187.765 206.41 186.723 204.013 185.482C205.001 185.056 209.188 102.31 209.318 101.085C209.825 96.2909 248.047 101.085 248.047 101.085Z" fill="#2F2E41"/>
<path d="M175.813 92.3807C176.29 92.4201 176.769 92.3548 177.217 92.1895C177.666 92.0242 178.073 91.7629 178.409 91.424C178.745 91.085 179.003 90.6767 179.163 90.2277C179.324 89.7788 179.384 89.3002 179.34 88.8255L189.915 84.018L184.798 80.8193L175.54 85.875C174.745 86.0029 174.025 86.4169 173.516 87.0388C173.007 87.6606 172.744 88.4469 172.778 89.2489C172.812 90.0508 173.139 90.8125 173.699 91.3897C174.258 91.9669 175.01 92.3195 175.813 92.3806L175.813 92.3807Z" fill="#A0616A"/>
<path d="M216.986 52.284L220.577 53.6675L210.514 73.6184L184.161 88.0988L182.185 81.9114L202.158 65.4109C209.144 45.148 213.342 36.0945 218.383 36.2185L216.986 52.284Z" fill="#6C63FF"/>
<path d="M213.78 40.8346C214.238 39.2092 215.24 37.7894 216.621 36.8116C218.001 35.8339 219.676 35.3575 221.366 35.4618C221.392 35.4637 221.419 35.4656 221.446 35.4676C223.691 35.6377 226.565 30.206 229.542 30.4371C231.636 30.5997 233.781 30.7682 235.793 30.9296C237.587 31.0734 239.275 36.8626 240.729 36.9859C243.474 37.2189 244.122 37.399 244.319 37.4642C245.098 37.7234 248.098 37.928 249.987 40.1256C250.833 41.1094 254.196 50.4215 252.116 60.2691C250.037 70.1166 247.658 82.873 247.658 82.873C247.658 82.873 249.737 89.0343 248.697 91.6258C247.658 94.2173 249.737 96.0313 249.737 97.0679C249.737 98.1044 249.217 103.287 249.217 103.287C249.217 103.287 212.189 107.205 208.928 103.287C208.821 103.159 213.254 81.6795 211.419 64.4122C210.411 54.9334 212.289 46.0537 213.78 40.8346Z" fill="#6C63FF"/>
<path d="M232.508 29.3092C238.416 29.3092 243.205 24.5343 243.205 18.6441C243.205 12.7539 238.416 7.979 232.508 7.979C226.6 7.979 221.81 12.7539 221.81 18.6441C221.81 24.5343 226.6 29.3092 232.508 29.3092Z" fill="#A0616A"/>
<path d="M225.172 6.33046C225.939 6.30775 225.676 4.86697 226.293 4.40736C226.296 4.4213 226.3 4.43522 226.303 4.44911C226.384 4.76033 226.563 5.03741 226.814 5.23953C227.064 5.44166 227.374 5.55815 227.696 5.57185C228.018 5.58556 228.336 5.49575 228.603 5.31566C228.871 5.13557 229.073 4.8747 229.18 4.57149C229.282 4.22073 229.468 3.89964 229.721 3.63521C229.973 3.37078 230.286 3.17074 230.633 3.05194C230.671 4.38736 231.684 5.54638 232.893 6.12317C234.102 6.69996 235.48 6.79594 236.82 6.8157C238.16 6.83543 239.519 6.79071 240.818 7.11761C242.118 7.44449 243.381 8.21306 243.937 9.42902C244.492 10.645 244.096 12.3191 242.882 12.885C243.822 12.89 244.62 13.6637 244.945 14.5434C245.27 15.4231 245.221 16.391 245.149 17.3259C244.885 20.7746 244.24 24.4875 241.722 26.8659C239.802 28.6785 237.054 29.4088 234.41 29.3982C231.766 29.3876 232.231 29.1454 229.675 28.4726C229.675 28.4726 227.244 21.5259 227.856 20.8426C228.468 20.1592 228.977 19.2848 228.866 18.3753C228.755 17.4659 227.775 16.6512 226.924 16.9974C227.067 16.6328 227.175 16.5633 227.242 16.5818C227.199 16.4782 227.162 16.3724 227.13 16.2649C226.97 15.717 226.681 15.2148 226.289 14.7996C225.896 14.3843 225.41 14.068 224.871 13.8765C224.326 13.7002 223.74 13.6944 223.192 13.8598C222.644 14.0252 222.16 14.3538 221.804 14.8016C219.005 12.1842 220.742 6.46163 225.172 6.33046Z" fill="#2F2E41"/>
<path d="M269.572 199.89L0.427984 200C0.314686 200 0.206143 199.955 0.126145 199.875C0.0461466 199.795 0.0012207 199.686 0.0012207 199.573C0.0012207 199.46 0.0461466 199.352 0.126145 199.272C0.206143 199.192 0.314686 199.147 0.427984 199.147L269.572 199.036C269.686 199.036 269.794 199.081 269.875 199.161C269.955 199.241 270 199.35 270 199.463C270 199.576 269.955 199.685 269.875 199.765C269.794 199.845 269.686 199.89 269.572 199.89Z" fill="#CACACA"/>
</g>
<defs>
<clipPath id="clip0_4_435">
<rect width="270" height="200" fill="white"/>
</clipPath>
</defs>
</svg>
