<svg width="417" height="245" viewBox="0 0 417 245" fill="none" xmlns="http://www.w3.org/2000/svg">
<path d="M403.714 207.516C399.72 221.359 388.059 231.049 375.896 239.281C374.197 240.431 372.499 241.554 370.799 242.65C370.788 242.655 370.776 242.666 370.764 242.671C370.682 242.724 370.6 242.776 370.524 242.829C370.174 243.055 369.823 243.281 369.475 243.504L369.666 243.59C369.666 243.59 369.854 243.69 369.648 243.606C369.587 243.581 369.523 243.558 369.462 243.532C362.396 240.684 355.204 237.627 349.789 232.292C344.172 226.753 340.889 218.064 343.93 210.787C344.33 209.833 344.835 208.928 345.436 208.086C345.683 207.734 345.949 207.396 346.225 207.064C347.903 205.018 350.096 203.456 352.579 202.537C355.062 201.618 357.744 201.377 360.351 201.838C362.958 202.299 365.395 203.445 367.412 205.159C369.428 206.873 370.952 209.093 371.825 211.59C372.719 203.276 365.858 196.313 359.256 191.174C352.65 186.038 345.145 180.445 343.868 172.178C343.155 167.578 344.756 163.12 347.672 159.542C347.762 159.433 347.852 159.324 347.945 159.219C351.495 155.051 356.488 152.374 361.926 151.724C372.055 150.672 381.893 156.029 389.251 163.066C401.094 174.387 408.253 191.776 403.714 207.516Z" fill="#F2F2F2"/>
<path d="M384.676 189.409C386.62 192.431 388.112 195.72 389.106 199.172C389.946 202.258 390.32 205.452 390.216 208.648C389.945 215.225 388.097 221.64 384.828 227.355C382.365 231.69 379.364 235.697 375.896 239.281C374.197 240.431 372.499 241.554 370.799 242.65C370.788 242.655 370.776 242.666 370.764 242.671C370.682 242.724 370.6 242.776 370.524 242.829C370.174 243.055 369.823 243.281 369.475 243.504C369.475 243.504 369.854 243.69 369.648 243.606C369.587 243.581 369.523 243.558 369.462 243.532C370.096 238.344 369.475 233.079 367.653 228.18C365.831 223.281 362.86 218.889 358.989 215.374C355.109 211.911 350.465 209.414 345.436 208.086C345.683 207.734 345.949 207.396 346.225 207.064C348.168 207.609 350.058 208.324 351.875 209.2C358.368 212.316 363.684 217.438 367.037 223.807C370.046 229.591 371.341 236.113 370.77 242.606C371.061 242.344 371.351 242.075 371.633 241.809C377.003 236.807 381.772 231.065 385 224.439C387.8 218.827 389.176 212.614 389.007 206.346C388.744 199.511 386.018 193.18 382.072 187.669C377.748 181.789 372.639 176.528 366.887 172.032C361.091 167.393 354.748 163.48 348.001 160.381C347.849 160.31 347.73 160.183 347.669 160.027C347.607 159.871 347.608 159.697 347.672 159.542C347.717 159.402 347.815 159.286 347.945 159.219C348.012 159.19 348.085 159.176 348.158 159.18C348.231 159.183 348.302 159.202 348.366 159.237C349.199 159.62 350.026 160.008 350.847 160.413C357.682 163.789 364.072 168 369.868 172.95C375.466 177.72 380.737 183.169 384.676 189.409Z" fill="white"/>
<path d="M241.84 125.435C242.667 125.136 243.417 124.659 244.04 124.038C244.662 123.417 245.14 122.668 245.441 121.842C245.742 121.017 245.858 120.136 245.781 119.261C245.704 118.386 245.436 117.538 244.996 116.778L258.965 100.617L247.953 99.1852L236.376 114.751C235.146 115.574 234.262 116.82 233.89 118.251C233.518 119.683 233.685 121.201 234.358 122.518C235.032 123.835 236.166 124.859 237.545 125.397C238.923 125.935 240.452 125.948 241.84 125.435H241.84Z" fill="#FFB8B8"/>
<path d="M320.58 128.85C321.16 128.189 321.588 127.41 321.833 126.566C322.079 125.723 322.136 124.836 322.001 123.968C321.867 123.1 321.543 122.272 321.053 121.542C320.564 120.812 319.92 120.199 319.167 119.745L323.608 98.857L313.269 102.908L310.637 122.122C309.958 123.436 309.784 124.953 310.149 126.386C310.514 127.82 311.392 129.07 312.618 129.899C313.844 130.728 315.331 131.079 316.799 130.886C318.266 130.693 319.612 129.968 320.58 128.85Z" fill="#FFB8B8"/>
<path d="M270.546 237.709L263.214 237.709L259.726 209.451L270.547 209.452L270.546 237.709Z" fill="#FFB8B8"/>
<path d="M272.416 244.81L248.775 244.81V244.511C248.775 243.303 249.013 242.108 249.475 240.992C249.938 239.877 250.616 238.863 251.47 238.009C252.324 237.156 253.339 236.478 254.455 236.016C255.572 235.554 256.768 235.316 257.977 235.317H257.977L272.416 235.317L272.416 244.81Z" fill="#2F2E41"/>
<path d="M306.428 237.709L299.096 237.709L295.609 209.451L306.43 209.452L306.428 237.709Z" fill="#FFB8B8"/>
<path d="M308.298 244.81L284.657 244.81V244.511C284.657 243.303 284.895 242.108 285.358 240.992C285.82 239.877 286.498 238.863 287.352 238.009C288.207 237.156 289.221 236.478 290.338 236.016C291.454 235.554 292.651 235.316 293.859 235.317H293.86L308.298 235.317L308.298 244.81Z" fill="#2F2E41"/>
<path d="M271.31 222.954L260.931 222.539C260.223 222.508 259.555 222.201 259.072 221.683C258.589 221.165 258.329 220.478 258.349 219.77L261.273 123.934L261.464 123.865C279.654 117.29 294.702 117.787 307.469 125.383L307.611 125.468L309.363 218.808C309.37 219.166 309.305 219.521 309.173 219.853C309.041 220.185 308.844 220.487 308.593 220.742C308.343 220.998 308.044 221.2 307.714 221.339C307.384 221.477 307.03 221.548 306.672 221.548H297.921C297.297 221.547 296.693 221.33 296.212 220.934C295.731 220.539 295.401 219.989 295.28 219.378L283.358 158.78C283.317 158.57 283.202 158.382 283.035 158.25C282.867 158.117 282.658 158.049 282.445 158.057C282.231 158.064 282.027 158.148 281.87 158.293C281.713 158.437 281.613 158.633 281.587 158.845L274.089 220.591C274.006 221.242 273.69 221.841 273.198 222.276C272.706 222.711 272.073 222.953 271.416 222.956C271.381 222.956 271.345 222.955 271.31 222.954Z" fill="#2F2E41"/>
<path d="M281.407 39.8883C289.519 39.8883 296.095 33.3173 296.095 25.2116C296.095 17.1059 289.519 10.5349 281.407 10.5349C273.295 10.5349 266.718 17.1059 266.718 25.2116C266.718 33.3173 273.295 39.8883 281.407 39.8883Z" fill="#FFB8B8"/>
<path d="M246.804 113.77C246.295 113.569 245.858 113.217 245.554 112.762L242.716 108.519C242.409 108.058 242.252 107.515 242.265 106.963C242.277 106.411 242.46 105.875 242.787 105.43L254.228 89.9123L261.396 55.546C261.809 54.4847 262.426 53.5149 263.214 52.6921C264.001 51.8694 264.943 51.2098 265.986 50.7512C267.029 50.2925 268.152 50.0437 269.291 50.019C270.43 49.9944 271.563 50.1943 272.625 50.6074C273.686 51.0204 274.656 51.6386 275.478 52.4265C276.301 53.2143 276.96 54.1564 277.418 55.1989C277.875 56.2415 278.123 57.3639 278.146 58.5021C278.17 59.6403 277.968 60.772 277.554 61.8324L274.166 83.704C273.139 90.3423 269.733 96.3818 264.583 100.699L249.521 113.328C249.232 113.571 248.894 113.75 248.531 113.854C248.167 113.957 247.786 113.983 247.411 113.93C247.203 113.901 246.999 113.847 246.804 113.77Z" fill="#6C63FF"/>
<path d="M319.953 115.327C319.438 115.512 318.878 115.536 318.349 115.396L313.412 114.084C312.878 113.941 312.401 113.637 312.045 113.214C311.689 112.791 311.472 112.269 311.423 111.719L309.751 92.5172L292.406 61.9885C292.014 60.9198 291.837 59.7843 291.884 58.647C291.931 57.5098 292.203 56.3929 292.682 55.3604C293.162 54.3279 293.84 53.3999 294.679 52.6296C295.517 51.8592 296.5 51.2616 297.57 50.8708C298.639 50.48 299.776 50.3037 300.914 50.352C302.052 50.4004 303.17 50.6723 304.203 51.1524C305.236 51.6325 306.164 52.3113 306.934 53.15C307.704 53.9887 308.301 54.9708 308.691 56.0402L320.611 74.6944C324.229 80.3555 325.667 87.1372 324.656 93.778L321.701 113.201C321.644 113.575 321.509 113.932 321.305 114.25C321.1 114.568 320.832 114.839 320.515 115.046C320.34 115.162 320.151 115.256 319.953 115.327Z" fill="#6C63FF"/>
<path d="M265.341 51.2756C267.864 48.511 270.976 46.3478 274.447 44.9454C277.918 43.543 281.66 42.9373 285.397 43.1729C285.643 43.1881 285.887 43.2052 286.131 43.2243H286.131C289.673 43.5041 293.114 44.5362 296.225 46.2516C299.335 47.9671 302.043 50.3263 304.168 53.1716C306.328 56.0566 307.847 59.3691 308.623 62.8877C309.399 66.4064 309.414 70.05 308.668 73.575C305.82 87.0464 306.541 101.027 310.759 114.135L314.7 126.361C314.826 126.752 314.861 127.168 314.801 127.575C314.741 127.982 314.589 128.37 314.355 128.709C314.122 129.048 313.813 129.329 313.454 129.53C313.094 129.732 312.694 129.848 312.282 129.869L292.137 130.952L286.982 122.054V131.229L262.498 132.544C262.449 132.547 262.401 132.548 262.353 132.548C261.981 132.548 261.614 132.471 261.273 132.322C260.933 132.173 260.627 131.955 260.375 131.682C260.123 131.409 259.931 131.087 259.81 130.736C259.688 130.385 259.641 130.013 259.671 129.643L262.438 95.3539L258.967 72.0653C258.405 68.3443 258.686 64.5448 259.789 60.9467C260.892 57.3486 262.789 54.0437 265.341 51.2756Z" fill="#6C63FF"/>
<path d="M291.615 39.2226C290.255 40.0045 284.88 40.5229 284.497 39.0026L284.489 38.9692C284.222 37.8552 284.443 36.692 284.52 35.5493C284.597 34.4065 284.485 33.1511 283.706 32.3109C282.254 30.7446 279.67 31.5749 277.571 31.1789C276.341 30.9046 275.253 30.1919 274.511 29.1741C273.769 28.1564 273.424 26.9034 273.54 25.6497C273.57 25.4121 273.617 25.1743 273.669 24.9367C273.801 24.3346 273.79 23.7102 273.64 23.1126C273.489 22.5151 273.201 21.9606 272.8 21.4927C272.399 21.0248 271.894 20.6562 271.326 20.4159C270.758 20.1756 270.142 20.07 269.527 20.1076C267.405 20.2289 265.114 20.8712 263.359 19.3008C262.001 18.0865 261.67 14.9253 262.267 13.2049C263.269 10.3137 269.69 8.80015 272.494 7.9681C275.962 6.967 279.609 6.75057 283.171 7.33454C286.732 7.91851 290.119 9.2882 293.085 11.344C294.856 12.5913 296.509 14.1585 297.264 16.1877C298.019 18.217 297.655 20.7772 295.953 22.1168C297.272 23.5125 298.201 25.2301 298.647 27.0976C299.093 28.9651 299.039 30.9168 298.492 32.7572C297.652 35.4638 293.64 38.0588 291.615 39.2226Z" fill="#2F2E41"/>
<path d="M219.078 160.463H86.9117C86.7531 160.463 86.601 160.4 86.4889 160.288C86.3767 160.176 86.3137 160.024 86.3137 159.866C86.3137 159.707 86.3767 159.555 86.4889 159.443C86.601 159.331 86.7531 159.268 86.9117 159.268H219.078C219.237 159.268 219.389 159.331 219.501 159.443C219.613 159.555 219.676 159.707 219.676 159.866C219.676 160.024 219.613 160.176 219.501 160.288C219.389 160.4 219.237 160.463 219.078 160.463Z" fill="#E6E6E6"/>
<path d="M190.132 160.463H115.02C114.861 160.463 114.709 160.4 114.597 160.288C114.485 160.176 114.422 160.024 114.422 159.866C114.422 159.707 114.485 159.555 114.597 159.443C114.709 159.331 114.861 159.268 115.02 159.268H190.132C190.291 159.268 190.443 159.331 190.555 159.443C190.667 159.555 190.73 159.707 190.73 159.866C190.73 160.024 190.667 160.176 190.555 160.288C190.443 160.4 190.291 160.463 190.132 160.463Z" fill="#3F3D56"/>
<path d="M153.294 160.463C153.135 160.463 152.983 160.4 152.871 160.288C152.759 160.176 152.696 160.024 152.696 159.866V122.22C152.696 122.061 152.759 121.909 152.871 121.797C152.983 121.685 153.135 121.622 153.294 121.622C153.453 121.622 153.605 121.685 153.717 121.797C153.829 121.909 153.892 122.061 153.892 122.22V159.866C153.892 160.024 153.829 160.176 153.717 160.288C153.605 160.4 153.453 160.463 153.294 160.463Z" fill="#3F3D56"/>
<path d="M190.97 160.463C190.812 160.463 190.66 160.4 190.548 160.288C190.435 160.176 190.372 160.024 190.372 159.866V84.5732C190.372 84.4147 190.435 84.2627 190.548 84.1506C190.66 84.0386 190.812 83.9756 190.97 83.9756C191.129 83.9756 191.281 84.0386 191.393 84.1506C191.505 84.2627 191.568 84.4147 191.568 84.5732V159.866C191.568 160.024 191.505 160.176 191.393 160.288C191.281 160.4 191.129 160.463 190.97 160.463Z" fill="#3F3D56"/>
<path d="M66.5784 91.1463C70.2116 91.1463 73.1568 88.2034 73.1568 84.5732C73.1568 80.9429 70.2116 78 66.5784 78C62.9453 78 60 80.9429 60 84.5732C60 88.2034 62.9453 91.1463 66.5784 91.1463Z" fill="#E6E6E6"/>
<path d="M66.5784 128.793C70.2116 128.793 73.1568 125.85 73.1568 122.22C73.1568 118.589 70.2116 115.646 66.5784 115.646C62.9453 115.646 60 118.589 60 122.22C60 125.85 62.9453 128.793 66.5784 128.793Z" fill="#E6E6E6"/>
<path d="M66.5784 166.439C70.2116 166.439 73.1568 163.496 73.1568 159.866C73.1568 156.236 70.2116 153.293 66.5784 153.293C62.9453 153.293 60 156.236 60 159.866C60 163.496 62.9453 166.439 66.5784 166.439Z" fill="#E6E6E6"/>
<path d="M219.078 85.1707H86.9117C86.7531 85.1707 86.601 85.1078 86.4889 84.9957C86.3767 84.8836 86.3137 84.7317 86.3137 84.5732C86.3137 84.4147 86.3767 84.2627 86.4889 84.1506C86.601 84.0386 86.7531 83.9756 86.9117 83.9756H219.078C219.237 83.9756 219.389 84.0386 219.501 84.1506C219.613 84.2627 219.676 84.4147 219.676 84.5732C219.676 84.7317 219.613 84.8836 219.501 84.9957C219.389 85.1078 219.237 85.1707 219.078 85.1707Z" fill="#E6E6E6"/>
<path d="M219.078 122.817H86.9117C86.7531 122.817 86.601 122.754 86.4889 122.642C86.3767 122.53 86.3137 122.378 86.3137 122.22C86.3137 122.061 86.3767 121.909 86.4889 121.797C86.601 121.685 86.7531 121.622 86.9117 121.622H219.078C219.237 121.622 219.389 121.685 219.501 121.797C219.613 121.909 219.676 122.061 219.676 122.22C219.676 122.378 219.613 122.53 219.501 122.642C219.389 122.754 219.237 122.817 219.078 122.817Z" fill="#E6E6E6"/>
<path d="M115.319 166.439C118.952 166.439 121.897 163.496 121.897 159.866C121.897 156.236 118.952 153.293 115.319 153.293C111.685 153.293 108.74 156.236 108.74 159.866C108.74 163.496 111.685 166.439 115.319 166.439Z" fill="#6C63FF"/>
<path d="M153.294 128.793C156.927 128.793 159.872 125.85 159.872 122.22C159.872 118.589 156.927 115.646 153.294 115.646C149.661 115.646 146.716 118.589 146.716 122.22C146.716 125.85 149.661 128.793 153.294 128.793Z" fill="#6C63FF"/>
<path d="M153.294 166.439C156.927 166.439 159.872 163.496 159.872 159.866C159.872 156.236 156.927 153.293 153.294 153.293C149.661 153.293 146.716 156.236 146.716 159.866C146.716 163.496 149.661 166.439 153.294 166.439Z" fill="#6C63FF"/>
<path d="M190.97 91.1463C194.604 91.1463 197.549 88.2034 197.549 84.5732C197.549 80.9429 194.604 78 190.97 78C187.337 78 184.392 80.9429 184.392 84.5732C184.392 88.2034 187.337 91.1463 190.97 91.1463Z" fill="#6C63FF"/>
<path d="M190.97 128.793C194.604 128.793 197.549 125.85 197.549 122.22C197.549 118.589 194.604 115.646 190.97 115.646C187.337 115.646 184.392 118.589 184.392 122.22C184.392 125.85 187.337 128.793 190.97 128.793Z" fill="#6C63FF"/>
<path d="M190.97 166.439C194.604 166.439 197.549 163.496 197.549 159.866C197.549 156.236 194.604 153.293 190.97 153.293C187.337 153.293 184.392 156.236 184.392 159.866C184.392 163.496 187.337 166.439 190.97 166.439Z" fill="#6C63FF"/>
<path d="M416.402 245H153.863C153.704 245 153.552 244.937 153.44 244.825C153.328 244.713 153.265 244.561 153.265 244.402C153.265 244.244 153.328 244.092 153.44 243.98C153.552 243.868 153.704 243.805 153.863 243.805H416.402C416.561 243.805 416.713 243.868 416.825 243.98C416.937 244.092 417 244.244 417 244.402C417 244.561 416.937 244.713 416.825 244.825C416.713 244.937 416.561 245 416.402 245Z" fill="#3F3D56"/>
<path d="M194.363 191.849C193.966 191.828 193.568 191.818 193.166 191.817C187.139 191.817 181.359 194.209 177.097 198.468C172.835 202.726 170.441 208.502 170.441 214.524H194.363V191.849Z" fill="#6C63FF"/>
<path d="M199.147 245C192.963 244.993 187.035 242.535 182.662 238.166C178.29 233.797 175.83 227.874 175.823 221.695C175.823 221.537 175.886 221.385 175.998 221.273C176.111 221.16 176.263 221.098 176.421 221.098H199.745V199.019C199.745 198.938 199.761 198.858 199.793 198.783C199.825 198.709 199.872 198.642 199.931 198.586C199.99 198.53 200.059 198.486 200.135 198.458C200.212 198.43 200.293 198.418 200.374 198.423C206.445 198.742 212.151 201.418 216.277 205.879C220.403 210.341 222.622 216.236 222.462 222.308C222.302 228.381 219.776 234.151 215.421 238.39C211.066 242.628 205.226 245 199.147 245ZM177.027 222.293C177.143 226.562 178.494 230.707 180.916 234.226C183.339 237.744 186.73 240.487 190.679 242.121C194.628 243.756 198.966 244.212 203.17 243.436C207.373 242.659 211.261 240.683 214.364 237.746C217.467 234.808 219.653 231.036 220.656 226.884C221.659 222.732 221.438 218.379 220.018 214.351C218.598 210.322 216.041 206.791 212.656 204.183C209.27 201.576 205.201 200.004 200.941 199.657V221.695C200.941 221.854 200.878 222.006 200.766 222.118C200.654 222.23 200.501 222.293 200.343 222.293H177.027Z" fill="#3F3D56"/>
</svg>
