<svg width="167" height="274" viewBox="0 0 167 274" fill="none" xmlns="http://www.w3.org/2000/svg">
<path d="M40.357 -28C40.357 -28 72.556 46.4503 68.857 96C64.3316 156.619 -7.60661 176.453 1.85701 236.5C7.72398 273.726 49.357 320.5 49.357 320.5C49.357 320.5 96.0241 285.538 101.857 252.5C106.093 228.506 87.6772 215.085 91.357 191C95.7066 162.531 124.549 155.976 128.857 127.5C134.715 88.7805 87.1213 73.4304 91.357 34.5C95.4167 -2.8118 143.857 -46 143.857 -46C143.857 -46 178.928 9.62415 165.357 42.5C159.918 55.677 149.147 58.7623 143.857 72C127.947 111.816 217.155 154.879 192.357 170.5C167.559 186.121 153.655 194.879 128.857 210.5C104.059 226.121 165.357 294.5 165.357 294.5" stroke="#304fff" stroke-width="2"/>
</svg>
