<svg width="517" height="235" viewBox="0 0 517 235" fill="none" xmlns="http://www.w3.org/2000/svg">
<g clip-path="url(#clip0_4_397)">
<path d="M475.308 132.81C488.109 132.81 498.486 122.46 498.486 109.692C498.486 96.9249 488.109 86.5749 475.308 86.5749C462.507 86.5749 452.13 96.9249 452.13 109.692C452.13 122.46 462.507 132.81 475.308 132.81Z" fill="#F2F2F2"/>
<path d="M475.308 115.776C478.677 115.776 481.408 113.052 481.408 109.692C481.408 106.332 478.677 103.609 475.308 103.609C471.94 103.609 469.209 106.332 469.209 109.692C469.209 113.052 471.94 115.776 475.308 115.776Z" fill="#E6E6E6"/>
<path d="M474.194 109.822C476.763 111.913 477.546 115.208 477.068 118.389C476.481 121.879 474.665 125.046 471.948 127.32C468.893 130.029 465.166 131.859 461.57 133.733C458.266 135.415 455.091 137.338 452.07 139.485C440.505 147.869 431.768 159.806 426.768 173.127C421.776 186.426 420.436 201.52 424.23 215.303C426.106 222.122 429.903 229.479 436.976 232.045C442.614 234.091 450.312 232.773 453.183 226.977C456.267 220.752 451.964 213.753 446.422 210.663C439.238 206.656 430.657 209.584 424.195 213.639C417.081 218.104 411.363 224.511 403.936 228.513C400.593 230.371 396.872 231.453 393.052 231.679C389.544 231.817 386.042 231.277 382.738 230.09C375.885 227.6 369.985 223.032 365.866 217.028C361.149 210.188 359.037 201.804 358.652 193.591C357.791 175.215 365.069 158.024 370.908 140.982C374.047 132.108 376.398 122.976 377.934 113.692C379.396 104.36 379.916 94.9059 379.487 85.471C379.1 77.1282 378.275 68.4042 374.583 60.7846C371.337 54.0846 365.404 48.601 357.904 47.2185C354.523 46.5567 351.019 46.9581 347.876 48.3673C346.807 48.8541 347.735 50.4276 348.8 49.9432C355.438 46.923 363.284 49.8616 368.186 54.7382C373.912 60.4327 376.014 68.8421 376.948 76.6016C379.045 94.991 377.392 113.614 372.087 131.349C366.996 148.597 358.988 165.126 357.14 183.197C356.297 191.443 356.73 199.967 359.373 207.874C361.64 214.918 365.892 221.162 371.62 225.861C377.013 230.21 383.648 233.172 390.632 233.503C398.473 233.873 405.348 230.387 411.431 225.749C417.946 220.782 423.94 214.654 431.832 211.869C435.43 210.599 439.527 210.007 443.221 211.229C446.39 212.309 449.079 214.464 450.817 217.319C452.421 219.98 453.013 223.307 451.549 226.166C450.172 228.853 447.485 230.408 444.577 230.94C441.497 231.483 438.323 230.945 435.596 229.418C432.41 227.603 430.078 224.556 428.445 221.338C425.187 214.92 424.093 207.28 423.927 200.157C423.781 193.199 424.675 186.258 426.579 179.562C430.367 166.018 438.014 153.861 448.591 144.564C451.256 142.249 454.107 140.156 457.115 138.305C460.396 136.288 463.899 134.676 467.244 132.772C470.536 130.899 473.78 128.662 476.047 125.58C477.979 122.938 479.023 119.754 479.028 116.484C479.062 114.98 478.763 113.487 478.151 112.113C477.539 110.738 476.629 109.515 475.488 108.532C474.583 107.795 473.281 109.079 474.194 109.822V109.822Z" fill="#CCCCCC"/>
<path d="M257.815 216.154C265.919 221.379 275.294 224.31 284.939 224.635C284.767 225.042 284.573 225.44 284.359 225.827C283.237 227.894 281.65 229.674 279.724 231.029C277.443 232.63 274.765 233.575 271.982 233.762C269.199 233.949 266.418 233.37 263.942 232.089C261.466 230.807 259.391 228.872 257.943 226.494C256.495 224.117 255.729 221.388 255.729 218.606V216.154H257.815Z" fill="#3F3D56"/>
<path d="M314.704 216.872V218.606C314.705 221.981 313.579 225.261 311.503 227.927C309.427 230.593 306.519 232.492 303.24 233.326C299.961 234.16 296.496 233.88 293.394 232.531C290.292 231.182 287.729 228.84 286.11 225.876C285.887 225.479 285.685 225.071 285.506 224.653C285.951 224.665 286.391 224.671 286.836 224.671C296.668 224.683 306.313 221.984 314.704 216.872Z" fill="#3F3D56"/>
<path d="M335.223 33.5263C334.765 33.4594 334.301 33.4168 333.838 33.3864C339.106 45.4944 339.471 59.1659 334.857 71.5363C335.32 71.4816 335.778 71.4086 336.235 71.3234C340.702 70.4601 344.717 68.0439 347.565 64.5048C350.413 60.9656 351.909 56.5334 351.788 51.9969C351.666 47.4604 349.935 43.1141 346.901 39.7318C343.868 36.3494 339.729 34.1505 335.223 33.5263Z" fill="#3F3D56"/>
<path d="M239.834 33.3865C239.37 33.4169 238.906 33.4595 238.449 33.5264C233.942 34.1505 229.804 36.3494 226.77 39.7318C223.737 43.1142 222.005 47.4604 221.884 51.9969C221.762 56.5334 223.259 60.9657 226.107 64.5048C228.955 68.0439 232.969 70.4602 237.436 71.3234C237.894 71.4086 238.351 71.4816 238.815 71.5364C234.201 59.1659 234.566 45.4945 239.834 33.3865Z" fill="#3F3D56"/>
<path d="M335.223 33.5263C330.198 21.5538 320.89 11.8717 309.108 6.36103C297.327 0.85032 283.911 -0.0955292 271.469 3.70724C259.028 7.51001 248.447 15.7899 241.783 26.9383C235.12 38.0866 232.849 51.3075 235.412 64.0324C237.975 76.7573 245.189 88.0776 255.653 95.7942C266.116 103.511 279.082 107.072 292.031 105.787C304.98 104.502 316.988 98.4622 325.722 88.8406C334.456 79.219 339.292 66.7029 339.291 53.7237C339.288 46.789 337.906 39.9239 335.223 33.5263ZM334.857 71.5363C330.395 83.4989 321.605 93.3626 310.218 99.1859C298.83 105.009 285.67 106.37 273.327 103.001C260.984 99.6325 250.352 91.7775 243.524 80.9826C236.696 70.1876 234.167 57.2346 236.434 44.6729C238.701 32.1111 245.6 20.8507 255.773 13.1077C265.946 5.36473 278.656 1.70015 291.403 2.8352C304.149 3.97025 316.007 9.82272 324.644 19.2407C333.281 28.6588 338.071 40.9601 338.071 53.7237C338.069 59.8046 336.981 65.8364 334.857 71.5363V71.5363Z" fill="#3F3D56"/>
<path d="M313.673 41.8608H259.998C257.167 41.8608 254.452 42.9825 252.451 44.979C250.449 46.9756 249.324 49.6835 249.324 52.507C249.324 55.3306 250.449 58.0385 252.451 60.035C254.452 62.0316 257.167 63.1532 259.998 63.1532H313.673C316.504 63.1532 319.219 62.0316 321.221 60.035C323.223 58.0385 324.347 55.3306 324.347 52.507C324.347 49.6835 323.223 46.9756 321.221 44.979C319.219 42.9825 316.504 41.8608 313.673 41.8608Z" fill="#3F3D56"/>
<path d="M286.836 116.384C272.496 116.391 258.728 121.994 248.477 131.994C238.226 141.995 232.305 155.6 231.982 169.899C231.658 184.198 236.957 198.055 246.746 208.507C256.534 218.959 270.035 225.175 284.359 225.827C284.939 225.858 285.524 225.876 286.11 225.876C286.354 225.888 286.592 225.888 286.836 225.888C301.395 225.888 315.358 220.12 325.652 209.852C335.947 199.584 341.731 185.657 341.731 171.136C341.731 156.615 335.947 142.689 325.652 132.421C315.358 122.153 301.395 116.384 286.836 116.384ZM314.704 216.872C306.313 221.984 296.668 224.683 286.836 224.671C286.391 224.671 285.951 224.665 285.506 224.653C285.317 224.653 285.128 224.647 284.939 224.635C272.05 224.188 259.752 219.13 250.294 210.385C240.836 201.64 234.848 189.793 233.426 177.008C232.004 164.223 235.242 151.355 242.548 140.755C249.854 130.155 260.741 122.531 273.218 119.277C285.696 116.023 298.931 117.356 310.504 123.032C322.077 128.708 331.216 138.349 336.25 150.192C341.285 162.035 341.878 175.289 337.922 187.532C333.966 199.775 325.724 210.19 314.704 216.872Z" fill="#3F3D56"/>
<path d="M325.364 157.651H301.373C299.701 157.651 298.098 156.989 296.916 155.81C295.734 154.631 295.07 153.032 295.07 151.365C295.07 149.697 295.734 148.098 296.916 146.919C298.098 145.741 299.701 145.078 301.373 145.078H325.364C327.036 145.078 328.639 145.741 329.821 146.919C331.003 148.098 331.667 149.697 331.667 151.365C331.667 153.032 331.003 154.631 329.821 155.81C328.639 156.989 327.036 157.651 325.364 157.651Z" fill="#3F3D56"/>
<path d="M302.972 154.555C304.739 154.555 306.171 153.127 306.171 151.365C306.171 149.603 304.739 148.174 302.972 148.174C301.206 148.174 299.773 149.603 299.773 151.365C299.773 153.127 301.206 154.555 302.972 154.555Z" fill="#F2F2F2"/>
<path d="M313.368 154.555C315.135 154.555 316.567 153.127 316.567 151.365C316.567 149.603 315.135 148.174 313.368 148.174C311.602 148.174 310.169 149.603 310.169 151.365C310.169 153.127 311.602 154.555 313.368 154.555Z" fill="#F2F2F2"/>
<path d="M323.764 154.555C325.531 154.555 326.963 153.127 326.963 151.365C326.963 149.603 325.531 148.174 323.764 148.174C321.998 148.174 320.566 149.603 320.566 151.365C320.566 153.127 321.998 154.555 323.764 154.555Z" fill="#6C63FF"/>
<path d="M100.412 232.207C105.897 227.585 109.229 220.282 108.355 213.173C107.481 206.064 102.07 199.529 95.0501 198.019C88.0306 196.51 80.0287 200.689 77.8966 207.528C76.7232 194.342 75.3711 180.604 68.3424 169.375C61.9781 159.207 50.9549 151.932 39.0084 150.631C27.0618 149.329 14.4836 154.245 7.03292 163.65C-0.417717 173.054 -2.24198 186.727 2.97626 197.524C6.82035 205.478 13.9025 211.398 21.3229 216.214C44.9964 231.578 74.3633 236.769 102.306 232.667L100.412 232.207Z" fill="#F2F2F2"/>
<path d="M18.8467 154.517C28.7041 162.525 37.7472 171.482 45.8453 181.257C53.9446 191.022 61.0752 201.548 67.1369 212.686C70.5251 218.934 73.5688 225.362 76.2544 231.941C76.802 233.28 74.6231 233.862 74.0816 232.539C69.3248 220.94 63.4396 209.834 56.5105 199.38C49.6151 188.964 41.7229 179.24 32.9449 170.344C27.9799 165.315 22.7415 160.562 17.2534 156.106C16.1284 155.193 17.731 153.611 18.8467 154.517Z" fill="white"/>
<path d="M98.5525 40.1514C108.995 40.1514 117.461 31.7079 117.461 21.2924C117.461 10.8769 108.995 2.43341 98.5525 2.43341C88.1098 2.43341 79.6443 10.8769 79.6443 21.2924C79.6443 31.7079 88.1098 40.1514 98.5525 40.1514Z" fill="#2F2E41"/>
<path d="M169.072 90.3475C168.71 90.891 168.268 91.3775 167.762 91.7909C167.032 92.3907 166.184 92.8301 165.272 93.0802C164.361 93.3303 163.406 93.3854 162.472 93.2419C161.537 93.0984 160.644 92.7597 159.85 92.2478C159.056 91.7358 158.379 91.0624 157.864 90.2714C157.745 90.0872 157.636 89.8967 157.537 89.7009L127.741 86.8337C125.389 86.5985 123.177 85.6132 121.431 84.0242C119.685 82.4351 118.5 80.327 118.051 78.0128L116.36 69.1204L127.988 67.3161L130.075 74.439L159.125 81.5562C159.35 81.3593 159.588 81.1784 159.839 81.0148C161.135 80.176 162.681 79.8088 164.217 79.9752C165.753 80.1416 167.184 80.8313 168.269 81.928C169.354 83.0248 170.026 84.4613 170.173 85.9951C170.319 87.529 169.931 89.0663 169.072 90.3475L169.072 90.3475Z" fill="#FFB8B8"/>
<path d="M130.789 73.3639L117.799 76.8636C117.097 77.0521 116.348 76.9549 115.717 76.5933C115.086 76.2317 114.624 75.6352 114.434 74.9347L109.884 58.1369C109.397 56.3376 109.595 54.4221 110.44 52.7596C111.284 51.0972 112.716 49.8055 114.46 49.1338C116.203 48.4621 118.133 48.4579 119.879 49.1219C121.625 49.786 123.063 51.0713 123.915 52.73L132.516 69.4727C132.702 69.8357 132.805 70.2356 132.817 70.6434C132.828 71.0511 132.749 71.4562 132.583 71.8292C132.417 72.2022 132.17 72.5336 131.86 72.7991C131.55 73.0646 131.184 73.2576 130.789 73.3639Z" fill="#2F2E41"/>
<path d="M123.265 227.605H130.742L134.3 198.838L123.263 198.838L123.265 227.605Z" fill="#FFB8B8"/>
<path d="M145.164 234.53L121.662 234.531L121.662 225.475L136.083 225.474C138.492 225.474 140.801 226.428 142.504 228.126C144.207 229.825 145.164 232.128 145.164 234.53Z" fill="#2F2E41"/>
<path d="M56.6161 220.337L63.6122 222.971L77.1298 197.312L66.8046 193.424L56.6161 220.337Z" fill="#FFB8B8"/>
<path d="M74.651 234.531L52.6645 226.251L55.8719 217.779L69.3636 222.86C71.6166 223.708 73.4393 225.414 74.4309 227.603C75.4225 229.792 75.5017 232.284 74.651 234.531L74.651 234.531Z" fill="#2F2E41"/>
<path d="M123.028 220.924C122.449 220.923 121.884 220.74 121.416 220.399C120.947 220.059 120.599 219.579 120.42 219.029L101.348 160.284C101.292 160.109 101.184 159.956 101.039 159.844C100.894 159.732 100.719 159.665 100.536 159.654C100.353 159.642 100.17 159.686 100.012 159.779C99.8542 159.872 99.728 160.01 99.6498 160.176L73.2182 216.267C72.9319 216.873 72.4327 217.354 71.8151 217.618C71.1974 217.882 70.5041 217.911 69.8664 217.7L59.4566 214.239C58.7954 214.018 58.2431 213.554 57.9116 212.942C57.5801 212.33 57.494 211.616 57.6708 210.943L73.8614 149.775C75.5556 143.295 76.7793 136.702 77.5231 130.048C78.6586 119.089 83.8098 108.934 91.989 101.53C95.5604 98.2663 97.8819 93.8651 98.5556 89.0811L98.5992 88.7751L122.31 92.509L137.329 214.745C137.407 215.399 137.246 216.059 136.877 216.605C136.508 217.151 135.955 217.547 135.318 217.721L123.745 220.828C123.511 220.892 123.27 220.924 123.028 220.924Z" fill="#2F2E41"/>
<path d="M106.064 40.0616C114.338 40.0616 121.045 33.3719 121.045 25.1198C121.045 16.8677 114.338 10.178 106.064 10.178C97.7902 10.178 91.0831 16.8677 91.0831 25.1198C91.0831 33.3719 97.7902 40.0616 106.064 40.0616Z" fill="#FFB8B8"/>
<path d="M120.837 95.1154C120.79 95.1154 120.743 95.1142 120.695 95.1118L97.1907 93.9397C96.5346 93.9101 95.9112 93.6457 95.4349 93.1948C94.9585 92.7439 94.6611 92.1368 94.5972 91.4849L91.3862 60.2592C91.1511 57.9725 91.4803 55.6631 92.345 53.5324C93.2097 51.4016 94.5837 49.5141 96.3473 48.0342C98.1109 46.5544 100.211 45.5272 102.463 45.0421C104.716 44.557 107.054 44.6288 109.272 45.2511H109.272C111.111 45.7532 112.823 46.6321 114.302 47.8316C130.836 61.3749 125.505 85.9134 123.477 93.1115C123.318 93.6881 122.974 94.1965 122.496 94.5586C122.019 94.9207 121.436 95.1163 120.837 95.1154Z" fill="#6C63FF"/>
<path d="M100.388 116.083C99.7338 116.083 99.0831 115.986 98.4575 115.794C97.5526 115.521 96.7159 115.06 96.0022 114.441C95.2885 113.823 94.7139 113.061 94.316 112.205C93.9181 111.35 93.7059 110.42 93.6934 109.477C93.6809 108.534 93.8683 107.599 94.2433 106.734C94.3311 106.532 94.4294 106.336 94.538 106.145L80.4268 79.815C79.3205 77.732 78.9172 75.3487 79.2767 73.0189C79.6362 70.6891 80.7393 68.5371 82.4223 66.8822L88.9083 60.5521L96.8556 69.2086L92.0657 74.887L102.216 102.953C102.505 103.03 102.789 103.128 103.064 103.246C104.482 103.857 105.645 104.938 106.357 106.305C107.069 107.673 107.286 109.243 106.971 110.752C106.657 112.26 105.83 113.614 104.631 114.586C103.432 115.557 101.933 116.086 100.388 116.083L100.388 116.083Z" fill="#FFB8B8"/>
<path d="M93.3589 74.8846L83.2424 66.0369C82.6957 65.5578 82.362 64.8819 82.3144 64.1577C82.2667 63.4334 82.5091 62.7199 82.9882 62.1737L94.4899 49.091C95.7219 47.6896 97.4304 46.7928 99.2861 46.5735C101.142 46.3542 103.013 46.8279 104.539 47.9032C106.066 48.9786 107.139 50.5795 107.552 52.3973C107.964 54.215 107.688 56.1208 106.775 57.7473L97.5637 74.1633C97.364 74.5192 97.0871 74.8262 96.7532 75.0617C96.4193 75.2972 96.0368 75.4553 95.6338 75.5244C95.2308 75.5936 94.8173 75.572 94.4237 75.4613C94.0301 75.3506 93.6663 75.1535 93.3589 74.8846V74.8846Z" fill="#2F2E41"/>
<path d="M96.4237 39.6338C97.7906 40.1172 99.4663 40.5434 100.542 39.5409C101.592 38.5621 101.401 36.7722 100.782 35.4536C100.163 34.135 99.2041 32.9616 98.91 31.5264C98.4884 29.4695 99.5783 27.3326 101.134 25.9915C102.69 24.6505 104.649 23.9461 106.561 23.2682L117.047 19.5501C119.643 18.6297 122.44 17.5486 123.893 15.1266C125.995 11.6221 124.073 6.61264 120.626 4.5677C117.178 2.52276 112.823 2.90372 109.103 4.34162C107.046 5.1369 105.089 6.23279 102.961 6.79262C98.7624 7.89749 93.988 6.90631 90.2981 9.2677C87.086 11.3233 85.5962 15.5176 85.7043 19.442C85.8125 23.3665 87.2613 27.1039 88.7894 30.6931C89.6985 32.8283 90.6697 34.9882 92.2096 36.6865C93.7494 38.3848 95.9747 39.5729 98.1975 39.2604L96.4237 39.6338Z" fill="#2F2E41"/>
<path d="M82.694 24.3342C89.4312 24.3342 94.8929 18.8868 94.8929 12.1671C94.8929 5.44739 89.4312 0 82.694 0C75.9567 0 70.4951 5.44739 70.4951 12.1671C70.4951 18.8868 75.9567 24.3342 82.694 24.3342Z" fill="#2F2E41"/>
<path d="M181.634 82.4018L181.417 82.3722L182.233 76.4573C182.358 75.5493 182.116 74.629 181.561 73.8987C181.006 73.1684 180.182 72.688 179.272 72.5632L166.708 70.8406C165.797 70.7157 164.874 70.9567 164.142 71.5105C163.41 72.0643 162.928 72.8855 162.803 73.7934L158.331 106.243C158.206 107.151 158.447 108.072 159.003 108.802C159.558 109.532 160.381 110.013 161.291 110.137L173.856 111.86C174.766 111.985 175.689 111.744 176.421 111.19C177.154 110.636 177.635 109.815 177.76 108.907L180.837 86.5825L181.054 86.6122L181.634 82.4018Z" fill="#3F3D56"/>
<path d="M178.877 74.2985L177.313 74.084C177.361 74.2698 177.362 74.4645 177.316 74.6508C177.271 74.8372 177.18 75.0095 177.052 75.1526C176.924 75.2957 176.763 75.4053 176.582 75.4715C176.402 75.5378 176.208 75.5588 176.017 75.5327L169.152 74.5913C168.961 74.5652 168.78 74.4928 168.624 74.3804C168.468 74.268 168.343 74.1191 168.258 73.9468C168.174 73.7746 168.133 73.5843 168.139 73.3926C168.146 73.2009 168.2 73.0138 168.296 72.8478L166.835 72.6474C166.514 72.6034 166.187 72.6229 165.874 72.7048C165.56 72.7867 165.266 72.9293 165.008 73.1247C164.749 73.32 164.532 73.5641 164.369 73.8431C164.205 74.1221 164.098 74.4306 164.054 74.7508L159.794 105.658C159.705 106.305 159.877 106.96 160.273 107.48C160.668 108.001 161.254 108.343 161.903 108.432L173.945 110.083C174.594 110.172 175.251 110 175.773 109.605C176.294 109.211 176.637 108.626 176.726 107.979L180.986 77.0723C181.075 76.4255 180.903 75.7699 180.508 75.2498C180.112 74.7296 179.526 74.3874 178.877 74.2985V74.2985Z" fill="white"/>
<path d="M170.337 99.9587C174.042 99.9587 177.046 96.9626 177.046 93.2668C177.046 89.571 174.042 86.5749 170.337 86.5749C166.631 86.5749 163.627 89.571 163.627 93.2668C163.627 96.9626 166.631 99.9587 170.337 99.9587Z" fill="#6C63FF"/>
<path d="M169.672 95.8196C169.521 95.8199 169.374 95.7712 169.253 95.6809L169.245 95.6753L167.669 94.4712C167.595 94.4155 167.533 94.346 167.487 94.2665C167.441 94.187 167.41 94.0991 167.398 94.008C167.386 93.9168 167.392 93.8241 167.415 93.7352C167.439 93.6463 167.48 93.563 167.536 93.4899C167.592 93.4169 167.662 93.3557 167.742 93.3097C167.822 93.2637 167.91 93.2339 168.002 93.2221C168.093 93.2102 168.186 93.2164 168.275 93.2404C168.364 93.2644 168.448 93.3057 168.521 93.362L169.542 94.1431L171.955 91.0037C172.011 90.9309 172.081 90.8698 172.161 90.8239C172.241 90.778 172.329 90.7482 172.42 90.7362C172.511 90.7242 172.604 90.7302 172.692 90.7539C172.781 90.7776 172.865 90.8186 172.938 90.8744L172.923 90.8947L172.938 90.8747C173.085 90.9876 173.182 91.1541 173.206 91.3378C173.23 91.5214 173.181 91.7072 173.068 91.8543L170.229 95.5469C170.163 95.632 170.079 95.7009 169.982 95.7481C169.885 95.7954 169.779 95.8199 169.672 95.8196Z" fill="white"/>
<path d="M516.274 235H4.35196C4.15971 234.999 3.97553 234.923 3.83978 234.787C3.70404 234.651 3.62781 234.467 3.62781 234.276C3.62781 234.084 3.70404 233.9 3.83978 233.764C3.97553 233.628 4.15971 233.552 4.35196 233.551H516.274C516.466 233.551 516.651 233.628 516.787 233.763C516.923 233.899 517 234.084 517 234.276C517 234.468 516.923 234.652 516.787 234.788C516.651 234.924 516.466 235 516.274 235Z" fill="#CCCCCC"/>
</g>
<defs>
<clipPath id="clip0_4_397">
<rect width="517" height="235" fill="white"/>
</clipPath>
</defs>
</svg>
