<svg width="445" height="343" viewBox="0 0 445 343" fill="none" xmlns="http://www.w3.org/2000/svg">
<g clip-path="url(#clip0_48_450)">
<path d="M298.215 96.5795C307.761 70.8605 330.316 48.6375 357.573 45.9941C341.186 70.9104 334.122 100.832 337.632 130.464C339.027 141.887 341.765 154.447 335.62 164.169C331.796 170.219 325.057 173.943 318.111 175.624C311.164 177.305 303.926 177.174 296.781 177.034L295.181 177.826C290.156 150.852 288.668 122.299 298.215 96.5795Z" fill="#F0F0F0"/>
<path d="M357.705 46.5545C339.123 59.5621 325.105 78.1058 317.64 99.5515C316.068 104.156 314.874 108.963 314.805 113.853C314.775 118.619 316.018 123.306 318.407 127.428C320.557 131.316 323.206 135.043 324.376 139.387C325.609 143.966 324.604 148.598 322.085 152.554C319.004 157.394 314.371 160.836 309.723 164.044C304.563 167.606 299.147 171.224 295.989 176.82C295.607 177.498 294.579 176.864 294.961 176.187C300.454 166.451 311.983 162.914 319.036 154.644C322.327 150.785 324.478 145.909 323.46 140.771C322.57 136.277 319.842 132.431 317.631 128.514C315.309 124.4 313.792 120.131 313.616 115.371C313.435 110.503 314.444 105.638 315.891 101.014C319.25 90.5524 324.23 80.685 330.648 71.7735C337.917 61.5621 346.876 52.6719 357.136 45.4876C357.771 45.0432 358.336 46.113 357.705 46.5545V46.5545Z" fill="#3F3D56"/>
<path d="M319.638 92.5043C316.217 90.7608 313.526 87.8557 312.045 84.3077C310.565 80.7597 310.391 76.7999 311.555 73.1355C311.794 72.3948 312.953 72.7307 312.715 73.4724C311.625 76.8827 311.787 80.5713 313.172 83.8723C314.558 87.1734 317.075 89.8695 320.27 91.474C320.964 91.8235 320.328 92.8518 319.638 92.5043Z" fill="#3F3D56"/>
<path d="M317.058 125.6C324.539 123.233 330.855 118.127 334.746 111.3C335.131 110.624 336.158 111.258 335.774 111.934C331.712 119.03 325.128 124.33 317.338 126.777C316.595 127.009 316.319 125.832 317.058 125.6V125.6Z" fill="#3F3D56"/>
<path d="M338.743 62.9354C339.927 63.8863 341.327 64.5279 342.819 64.8025C344.311 65.077 345.848 64.976 347.291 64.5084C348.03 64.2664 348.306 65.4444 347.571 65.6848C345.974 66.194 344.277 66.3035 342.628 66.0038C340.979 65.7041 339.428 65.0044 338.111 63.9657C337.979 63.8782 337.885 63.7435 337.848 63.589C337.811 63.4345 337.835 63.2717 337.913 63.1338C337.998 62.9978 338.132 62.9007 338.288 62.8636C338.443 62.8264 338.607 62.8522 338.743 62.9354V62.9354Z" fill="#3F3D56"/>
<path d="M423.272 111.552C422.815 111.716 422.357 111.881 421.897 112.055C415.759 114.295 409.813 117.032 404.117 120.237C403.673 120.478 403.226 120.728 402.79 120.982C389.149 128.851 377.086 139.189 367.212 151.47C363.287 156.361 359.74 161.544 356.6 166.974C352.264 174.474 348.159 182.951 341.791 188.416C341.133 188.994 340.44 189.53 339.716 190.022L296.269 179.72C296.182 179.647 296.092 179.584 296.004 179.51L294.251 179.179C294.393 178.887 294.547 178.588 294.69 178.297C294.772 178.127 294.863 177.96 294.945 177.791C295.003 177.679 295.061 177.567 295.107 177.462C295.126 177.425 295.145 177.387 295.162 177.36C295.208 177.255 295.261 177.163 295.304 177.068C296.16 175.394 297.03 173.722 297.912 172.054C297.914 172.044 297.914 172.044 297.926 172.037C304.682 159.342 312.555 147.101 322.032 136.447C322.318 136.126 322.605 135.796 322.91 135.48C327.208 130.701 331.889 126.283 336.906 122.268C339.66 120.079 342.523 118.03 345.484 116.131C353.143 111.238 361.523 107.583 370.316 105.3C387.846 100.75 406.633 101.869 422.097 110.854C422.493 111.084 422.879 111.312 423.272 111.552Z" fill="#F0F0F0"/>
<path d="M423.044 112.082C400.392 111.257 378.057 117.606 359.211 130.226C355.19 132.954 351.348 136.072 348.355 139.934C345.467 143.721 343.643 148.214 343.074 152.946C342.455 157.348 342.33 161.922 340.654 166.096C338.887 170.496 335.302 173.588 330.914 175.227C325.546 177.233 319.778 177.186 314.14 176.944C307.879 176.675 301.381 176.296 295.497 178.859C294.784 179.17 294.345 178.043 295.057 177.733C305.293 173.273 316.623 177.405 327.223 175.057C332.17 173.961 336.816 171.365 339.091 166.648C341.081 162.524 341.214 157.807 341.802 153.345C342.42 148.66 343.774 144.336 346.492 140.43C349.273 136.433 353.002 133.158 356.936 130.338C365.904 124.012 375.809 119.138 386.288 115.895C398.227 112.127 410.722 110.433 423.231 110.887C424.005 110.915 423.813 112.11 423.044 112.082L423.044 112.082Z" fill="#3F3D56"/>
<path d="M365.04 125.804C363.357 122.348 362.954 118.405 363.903 114.679C364.853 110.953 367.094 107.687 370.225 105.463C370.86 105.016 371.584 105.984 370.948 106.432C368.029 108.497 365.942 111.54 365.065 115.012C364.187 118.483 364.577 122.154 366.164 125.363C366.508 126.061 365.383 126.498 365.04 125.804V125.804Z" fill="#3F3D56"/>
<path d="M343.095 150.673C350.491 153.296 358.601 153.029 365.81 149.926C366.524 149.618 366.963 150.745 366.25 151.052C358.743 154.268 350.302 154.528 342.612 151.781C341.879 151.519 342.366 150.412 343.095 150.673Z" fill="#3F3D56"/>
<path d="M398.062 113.722C398.435 115.195 399.168 116.552 400.194 117.671C401.221 118.79 402.508 119.637 403.941 120.134C404.677 120.387 404.189 121.493 403.458 121.242C401.877 120.685 400.456 119.749 399.32 118.515C398.183 117.281 397.365 115.787 396.938 114.163C396.885 114.013 396.891 113.849 396.954 113.703C397.018 113.558 397.134 113.442 397.28 113.379C397.429 113.321 397.595 113.325 397.741 113.389C397.888 113.453 398.003 113.573 398.062 113.722V113.722Z" fill="#3F3D56"/>
<path d="M46.4769 332.325C21.6042 320.844 1.19279 296.63 0.620605 269.196C24.178 287.451 53.4201 296.769 83.1732 295.5C94.6459 294.968 107.351 293.181 116.562 300.055C122.293 304.332 125.491 311.347 126.638 318.414C127.786 325.482 127.11 332.705 126.431 339.833L127.098 341.491C99.8759 344.475 71.3496 343.806 46.4769 332.325Z" fill="#F0F0F0"/>
<path d="M1.18825 269.107C12.7293 288.655 30.1238 304.062 50.9013 313.141C55.3644 315.058 60.0585 316.614 64.9186 317.053C69.6592 317.443 74.4177 316.554 78.6997 314.479C82.731 312.624 86.6402 310.259 91.0513 309.418C95.7008 308.532 100.234 309.886 103.981 312.701C108.565 316.145 111.64 321.035 114.482 325.921C117.637 331.346 120.828 337.031 126.159 340.608C126.804 341.042 126.095 342.02 125.451 341.588C116.177 335.363 113.528 323.577 105.831 315.906C102.239 312.326 97.5495 309.809 92.3592 310.438C87.8206 310.987 83.7873 313.423 79.7217 315.336C75.4527 317.345 71.0899 318.539 66.3403 318.356C61.4817 318.169 56.7171 316.793 52.2246 314.998C42.0676 310.852 32.6245 305.131 24.2411 298.045C14.6284 290.011 6.45802 280.389 0.0835223 269.594C-0.310768 268.926 0.796508 268.443 1.18819 269.107H1.18825Z" fill="#3F3D56"/>
<path d="M44.0393 310.612C42.046 313.898 38.9519 316.368 35.3094 317.579C31.6669 318.79 27.7133 318.665 24.1546 317.225C23.4355 316.931 23.8574 315.798 24.5774 316.092C27.8888 317.439 31.5716 317.555 34.9612 316.42C38.3508 315.285 41.2238 312.974 43.0618 309.903C43.462 309.236 44.4372 309.949 44.0393 310.612Z" fill="#3F3D56"/>
<path d="M76.7792 315.689C74.9881 308.035 70.3839 301.339 63.8846 296.936C63.2403 296.5 63.9491 295.522 64.5926 295.957C71.3474 300.551 76.1246 307.529 77.9711 315.498C78.1465 316.258 76.9538 316.445 76.7792 315.689Z" fill="#3F3D56"/>
<path d="M16.0574 289.289C17.0931 288.179 17.8372 286.828 18.2231 285.358C18.609 283.888 18.6245 282.345 18.2682 280.868C18.0832 280.111 19.2762 279.925 19.46 280.677C19.8461 282.311 19.8269 284.015 19.4041 285.64C18.9814 287.265 18.1679 288.761 17.0349 289.999C16.9378 290.124 16.7967 290.208 16.6401 290.233C16.4836 290.258 16.3234 290.223 16.1921 290.134C16.0632 290.039 15.9767 289.897 15.9515 289.739C15.9262 289.581 15.9643 289.419 16.0574 289.289Z" fill="#3F3D56"/>
<path d="M70.8203 208.502C70.9493 208.972 71.0782 209.441 71.2167 209.914C72.9827 216.216 75.2567 222.364 78.0162 228.297C78.2223 228.759 78.4381 229.224 78.657 229.68C85.4576 243.903 94.8343 256.737 106.311 267.53C110.881 271.821 115.771 275.757 120.937 279.304C128.073 284.202 136.199 288.945 141.156 295.72C141.682 296.421 142.163 297.154 142.598 297.914L129.065 340.548C128.986 340.629 128.916 340.714 128.837 340.796L128.374 342.523C128.095 342.359 127.809 342.182 127.53 342.018C127.367 341.923 127.208 341.819 127.045 341.724C126.938 341.658 126.831 341.592 126.73 341.538C126.695 341.516 126.659 341.494 126.633 341.475C126.532 341.422 126.444 341.361 126.354 341.311C124.752 340.329 123.154 339.335 121.561 338.327C121.551 338.324 121.551 338.324 121.544 338.311C109.422 330.602 97.8352 321.811 87.9485 311.538C87.6511 311.228 87.3439 310.917 87.0527 310.588C82.6219 305.932 78.5782 300.922 74.9621 295.606C72.9913 292.689 71.1692 289.674 69.5027 286.572C65.2122 278.549 62.2078 269.9 60.5995 260.942C57.3961 243.083 59.9283 224.396 70.037 209.623C70.2958 209.246 70.5518 208.877 70.8203 208.502Z" fill="#F0F0F0"/>
<path d="M71.3299 208.77C68.7992 231.341 73.4303 254.137 84.5652 273.92C86.9765 278.144 89.7894 282.218 93.4068 285.5C96.9573 288.672 101.291 290.833 105.957 291.759C110.29 292.71 114.832 293.18 118.859 295.17C123.104 297.268 125.91 301.084 127.21 305.592C128.801 311.107 128.319 316.866 127.652 322.482C126.911 328.717 126.044 335.182 128.15 341.254C128.405 341.989 127.251 342.343 126.996 341.609C123.332 331.044 128.299 320.036 126.762 309.267C126.045 304.242 123.813 299.403 119.291 296.774C115.337 294.474 110.653 293.986 106.257 293.061C101.642 292.089 97.4413 290.41 93.7589 287.399C89.9919 284.318 87.0141 280.346 84.5056 276.202C78.8872 266.764 74.7849 256.499 72.3487 245.784C69.5006 233.57 68.7587 220.958 70.1549 208.493C70.2416 207.722 71.4161 208.004 71.3299 208.77V208.77Z" fill="#3F3D56"/>
<path d="M80.6056 267.762C77.0395 269.183 73.0853 269.288 69.4491 268.058C65.813 266.827 62.7316 264.342 60.7554 261.045C60.3578 260.377 61.3757 259.727 61.7738 260.396C63.6084 263.469 66.479 265.784 69.8673 266.923C73.2556 268.061 76.9386 267.949 80.2514 266.606C80.9717 266.314 81.3218 267.472 80.6056 267.762Z" fill="#3F3D56"/>
<path d="M103.696 291.567C106.865 284.375 107.212 276.251 104.668 268.815C104.416 268.078 105.57 267.724 105.822 268.46C108.455 276.204 108.076 284.657 104.762 292.134C104.446 292.846 103.382 292.276 103.696 291.567Z" fill="#3F3D56"/>
<path d="M71.0754 233.855C72.5696 233.594 73.9754 232.964 75.1667 232.023C76.358 231.082 77.2975 229.86 77.9007 228.465C78.2079 227.749 79.2722 228.32 78.967 229.032C78.2934 230.569 77.2543 231.918 75.9404 232.961C74.6264 234.003 73.0777 234.707 71.4296 235.012C71.2767 235.053 71.1136 235.035 70.9735 234.961C70.8335 234.886 70.727 234.761 70.6756 234.611C70.6295 234.458 70.6456 234.292 70.7204 234.151C70.7953 234.009 70.9229 233.903 71.0754 233.855Z" fill="#3F3D56"/>
<path d="M103.747 180.718C81.7683 159.038 72.4857 136.42 77.608 117.032C84.1816 92.1507 113.385 74.9477 157.73 69.8336L157.893 71.2608C114.166 76.3034 85.4082 93.1203 78.9939 117.399C74.0087 136.268 83.1566 158.391 104.752 179.694L103.747 180.718Z" fill="#F0F0F0"/>
<path d="M315.801 257.675C288.37 257.675 258.562 253.59 228.955 245.736C192.341 236.023 158.77 221.363 131.871 203.34L132.667 202.146C159.437 220.082 192.859 234.676 229.321 244.348C262.272 253.089 295.469 257.139 325.313 256.07L325.365 257.505C322.213 257.619 319.025 257.676 315.801 257.675Z" fill="#F0F0F0"/>
<path d="M378.729 248.643L378.27 247.282C402.803 238.97 418.147 225.582 422.644 208.562C428.36 186.925 415.942 161.817 387.676 137.863C359.265 113.788 318.297 93.8108 272.316 81.6135L272.683 80.2249C318.865 92.4758 360.032 112.556 388.601 136.767C417.313 161.099 429.896 186.727 424.03 208.929C419.404 226.437 403.739 240.17 378.729 248.643Z" fill="#F0F0F0"/>
<path d="M153.462 258.275C99.563 234.322 58.0297 203.246 36.5137 170.77L37.7077 169.975C59.0751 202.226 100.39 233.119 154.043 256.963L153.462 258.275Z" fill="#F0F0F0"/>
<path d="M342.966 299.773C337.407 299.773 331.753 299.648 326.003 299.4L326.065 297.965C368.97 299.826 406.826 294.681 435.548 283.083L436.084 284.416C411.029 294.532 379.095 299.773 342.966 299.773Z" fill="#F0F0F0"/>
<path d="M311.694 71.1215C302.785 68.2152 293.622 65.5091 284.459 63.0783C231.727 49.0902 179.892 44.1237 134.554 48.7185L134.41 47.2891C179.917 42.6793 231.93 47.6577 284.825 61.6896C294.014 64.1275 303.204 66.8413 312.137 69.756L311.694 71.1215Z" fill="#F0F0F0"/>
<path d="M70.0612 182.872C48.0829 161.192 38.8003 138.574 43.9226 119.186C50.4962 94.3052 79.6994 77.1022 124.044 71.988L124.208 73.4152C80.4805 78.4578 51.7228 95.2748 45.3085 119.554C40.3233 138.422 49.4712 160.546 71.067 181.849L70.0612 182.872Z" fill="#F0F0F0"/>
<path d="M282.115 259.83C254.685 259.83 224.877 255.745 195.269 247.891C158.655 238.178 125.084 223.518 98.1854 205.494L98.982 204.3C125.751 222.237 159.174 236.83 195.636 246.502C228.586 255.244 261.784 259.294 291.628 258.225L291.679 259.66C288.528 259.773 285.34 259.83 282.115 259.83Z" fill="#F0F0F0"/>
<path d="M345.044 250.797L344.585 249.437C369.117 241.125 384.461 227.736 388.958 210.716C394.675 189.08 382.256 163.972 353.99 140.018C325.58 115.942 284.612 95.9653 238.631 83.768L238.998 82.3794C285.179 94.6303 326.347 114.711 354.915 138.921C383.628 163.253 396.21 188.881 390.344 211.084C385.718 228.592 370.054 242.324 345.044 250.797Z" fill="#F0F0F0"/>
<path d="M119.776 260.43C65.8775 236.477 24.3442 205.4 2.82819 172.924L4.02224 172.13C25.3896 204.381 66.7048 235.273 120.357 259.117L119.776 260.43Z" fill="#F0F0F0"/>
<path d="M309.281 301.927C303.721 301.927 298.067 301.803 292.318 301.554L292.379 300.119C335.285 301.981 373.141 296.836 401.863 285.238L402.399 286.57C377.344 296.686 345.41 301.927 309.281 301.927Z" fill="#F0F0F0"/>
<path d="M278.008 73.276C269.1 70.3697 259.936 67.6636 250.773 65.2328C198.042 51.2446 146.207 46.2782 100.869 50.8729L100.725 49.4436C146.231 44.8338 198.244 49.8122 251.14 63.8441C260.329 66.282 269.518 68.9958 278.452 71.9105L278.008 73.276Z" fill="#F0F0F0"/>
<path d="M135.607 179.927C132.661 179.93 129.838 181.104 127.755 183.191C125.672 185.278 124.501 188.107 124.498 191.059C120.274 222.22 118.863 253.7 120.283 285.115C120.367 287.121 120.461 288.955 120.569 290.725C120.727 293.649 120.927 296.734 121.164 299.899C121.3 301.766 121.443 303.638 121.601 305.505C121.864 308.544 122.153 311.633 122.46 314.684C122.654 316.549 122.854 318.422 123.069 320.287C123.481 323.952 123.947 327.708 124.494 331.771C124.489 334.73 125.656 337.57 127.74 339.666C129.824 341.763 132.654 342.944 135.607 342.951H321.952C324.897 342.948 327.721 341.774 329.803 339.687C331.886 337.6 333.057 334.771 333.061 331.819L333.069 331.742C333.899 327.953 334.672 324.091 335.367 320.264C335.739 318.246 336.06 316.414 336.348 314.662C336.871 311.472 337.336 308.385 337.73 305.486C337.999 303.54 338.242 301.656 338.453 299.883C338.8 296.981 339.114 293.982 339.412 290.714C339.576 288.938 339.725 287.103 339.871 285.106V285.105C342.149 253.617 339.858 221.965 333.069 191.136L333.061 191.059C333.057 188.107 331.886 185.278 329.803 183.191C327.721 181.104 324.897 179.93 321.952 179.927L135.607 179.927Z" fill="#3F3D56"/>
<path d="M236.014 227.582C195.637 227.582 152.853 223.906 96.8576 216.551H96.8517C93.9488 216.547 91.1495 215.469 88.9905 213.525C86.8315 211.58 85.4648 208.906 85.1522 206.014C85.1013 205.579 85.0766 205.142 85.0784 204.704V170.95C85.0771 170.878 85.0804 170.806 85.0882 170.734C85.1512 167.633 86.4227 164.679 88.6309 162.505C90.839 160.331 93.8085 159.109 96.9042 159.1C194.324 145.828 253.503 145.829 360.698 159.103H360.703C363.797 159.124 366.76 160.356 368.96 162.536C371.159 164.717 372.42 167.673 372.473 170.773C372.479 170.832 372.482 170.891 372.48 170.95V204.704C372.482 205.143 372.457 205.582 372.406 206.018C372.089 208.917 370.713 211.596 368.544 213.541C366.375 215.486 363.565 216.559 360.654 216.554C314.341 223.905 276.381 227.582 236.014 227.582Z" fill="#F3E563"/>
<path d="M242.491 251.026H217.992C214.874 251.022 211.885 249.779 209.68 247.57C207.476 245.361 206.235 242.365 206.232 239.241V150.058C206.235 146.934 207.476 143.938 209.68 141.729C211.885 139.52 214.874 138.277 217.992 138.273H242.491C245.609 138.277 248.598 139.52 250.803 141.729C253.008 143.938 254.248 146.934 254.252 150.058V239.241C254.248 242.366 253.008 245.361 250.803 247.57C248.598 249.779 245.609 251.022 242.491 251.026Z" fill="#3F3D56"/>
<path d="M298.11 121.208C297.932 119.536 297.62 117.882 297.176 116.26C296.696 114.636 296.089 113.052 295.36 111.523C292.747 105.904 288.339 101.318 282.833 98.4895C276 95.1188 268.183 94.8429 260.836 96.4669C254.66 97.8531 248.86 100.574 243.842 104.439C241.241 106.403 238.864 108.649 236.755 111.137C234.578 113.754 230.528 120.945 230.236 121.611C227.947 116.402 224.662 111.693 220.566 107.75C215.806 103.222 210.123 99.7807 203.909 97.6626C200.606 96.5473 197.176 95.8488 193.7 95.5832C190.022 95.2768 186.319 95.6005 182.749 96.5406C176.337 98.34 170.791 102.402 167.134 107.978C163.649 113.161 161.938 119.337 162.257 125.577C162.433 128.728 163.111 131.831 164.265 134.767C164.884 136.356 165.618 137.899 166.46 139.381C167.333 140.845 168.308 142.245 169.378 143.57C173.58 148.737 179.24 152.513 185.617 154.406C192.426 156.514 199.648 156.583 206.65 155.593C213.84 154.577 220.76 152.244 227.532 149.69C228.435 149.35 229.335 148.999 230.236 148.652C236.256 150.972 242.327 153.211 248.629 154.631C255.718 156.347 263.076 156.642 270.28 155.501C276.994 154.397 283.237 151.341 288.234 146.713C292.857 142.353 296.093 136.723 297.535 130.528C298.247 127.476 298.441 124.325 298.11 121.208ZM204.78 148.655C200.894 149.154 196.962 149.177 193.07 148.724C190.281 148.319 187.549 147.59 184.928 146.552C178.75 143.974 173.825 139.075 171.208 132.903C170.426 130.957 169.869 128.928 169.548 126.855C169.342 125.011 169.341 123.15 169.546 121.305C169.851 119.365 170.373 117.466 171.103 115.643C171.892 113.87 172.873 112.188 174.026 110.628C175.145 109.232 176.409 107.96 177.797 106.833C179.112 105.858 180.528 105.027 182.02 104.353C183.801 103.656 185.654 103.16 187.544 102.873C190.105 102.589 192.69 102.609 195.246 102.933C198.287 103.403 201.264 104.226 204.116 105.383C207.15 106.702 210.017 108.377 212.658 110.373C215.101 112.313 217.316 114.525 219.259 116.967C221.182 119.531 222.796 122.315 224.065 125.26C225.298 128.333 226.164 131.541 226.645 134.817L226.651 134.865C226.463 136.511 226.369 138.167 226.37 139.824C226.371 140.462 226.399 141.1 226.431 141.737C226.128 142.029 225.876 142.369 225.684 142.744C220.692 144.706 215.574 146.333 210.365 147.612C208.519 148.039 206.657 148.387 204.78 148.655ZM290.94 126.855C290.618 128.928 290.061 130.957 289.279 132.903C286.675 139.084 281.746 143.987 275.559 146.552C272.938 147.59 270.206 148.319 267.417 148.724C263.518 149.178 259.579 149.154 255.686 148.653C248.771 147.662 242.101 145.475 235.576 143.034C235.308 142.934 235.041 142.828 234.773 142.726C234.591 142.357 234.35 142.021 234.059 141.73C234.173 139.418 234.102 137.1 233.844 134.799C234.326 131.529 235.192 128.327 236.423 125.26C237.691 122.315 239.305 119.531 241.228 116.967C243.171 114.525 245.386 112.313 247.829 110.373C250.47 108.377 253.337 106.702 256.371 105.383C259.223 104.226 262.2 103.403 265.241 102.933C267.797 102.609 270.382 102.589 272.943 102.873C274.833 103.16 276.686 103.656 278.467 104.353C279.959 105.027 281.375 105.858 282.691 106.833C284.079 107.96 285.343 109.233 286.461 110.628C287.615 112.188 288.595 113.87 289.384 115.643C290.114 117.466 290.636 119.365 290.941 121.305C291.146 123.15 291.145 125.011 290.94 126.855Z" fill="#3F3D56"/>
<path d="M155.675 254.976C158.05 254.976 159.975 253.046 159.975 250.667C159.975 248.287 158.05 246.358 155.675 246.358C153.3 246.358 151.374 248.287 151.374 250.667C151.374 253.046 153.3 254.976 155.675 254.976Z" fill="#F3E563"/>
<path d="M186.493 244.203C188.868 244.203 190.793 242.274 190.793 239.894C190.793 237.514 188.868 235.585 186.493 235.585C184.118 235.585 182.193 237.514 182.193 239.894C182.193 242.274 184.118 244.203 186.493 244.203Z" fill="#F3E563"/>
<path d="M172.876 277.957C175.251 277.957 177.176 276.028 177.176 273.648C177.176 271.268 175.251 269.339 172.876 269.339C170.501 269.339 168.575 271.268 168.575 273.648C168.575 276.028 170.501 277.957 172.876 277.957Z" fill="#F3E563"/>
<path d="M300.45 254.976C302.825 254.976 304.751 253.046 304.751 250.667C304.751 248.287 302.825 246.358 300.45 246.358C298.075 246.358 296.15 248.287 296.15 250.667C296.15 253.046 298.075 254.976 300.45 254.976Z" fill="#F3E563"/>
<path d="M269.632 244.203C272.007 244.203 273.932 242.274 273.932 239.894C273.932 237.514 272.007 235.585 269.632 235.585C267.257 235.585 265.331 237.514 265.331 239.894C265.331 242.274 267.257 244.203 269.632 244.203Z" fill="#F3E563"/>
<path d="M283.249 277.957C285.624 277.957 287.55 276.028 287.55 273.648C287.55 271.268 285.624 269.339 283.249 269.339C280.874 269.339 278.949 271.268 278.949 273.648C278.949 276.028 280.874 277.957 283.249 277.957Z" fill="#F3E563"/>
<path d="M304.034 330.383C306.409 330.383 308.334 328.454 308.334 326.074C308.334 323.694 306.409 321.765 304.034 321.765C301.659 321.765 299.734 323.694 299.734 326.074C299.734 328.454 301.659 330.383 304.034 330.383Z" fill="#F3E563"/>
<path d="M314.785 299.502C317.16 299.502 319.085 297.573 319.085 295.193C319.085 292.813 317.16 290.884 314.785 290.884C312.41 290.884 310.484 292.813 310.484 295.193C310.484 297.573 312.41 299.502 314.785 299.502Z" fill="#F3E563"/>
<path d="M281.099 313.147C283.474 313.147 285.399 311.218 285.399 308.838C285.399 306.458 283.474 304.529 281.099 304.529C278.724 304.529 276.799 306.458 276.799 308.838C276.799 311.218 278.724 313.147 281.099 313.147Z" fill="#F3E563"/>
<path d="M180.76 330.383C183.134 330.383 185.06 328.454 185.06 326.074C185.06 323.694 183.134 321.765 180.76 321.765C178.385 321.765 176.459 323.694 176.459 326.074C176.459 328.454 178.385 330.383 180.76 330.383Z" fill="#F3E563"/>
<path d="M191.51 299.502C193.885 299.502 195.81 297.573 195.81 295.193C195.81 292.813 193.885 290.884 191.51 290.884C189.135 290.884 187.21 292.813 187.21 295.193C187.21 297.573 189.135 299.502 191.51 299.502Z" fill="#F3E563"/>
<path d="M157.825 313.147C160.2 313.147 162.125 311.218 162.125 308.838C162.125 306.458 160.2 304.529 157.825 304.529C155.45 304.529 153.524 306.458 153.524 308.838C153.524 311.218 155.45 313.147 157.825 313.147Z" fill="#F3E563"/>
<path d="M281.381 26.0526C283.01 26.7337 284.786 26.9832 286.538 26.7769C288.291 26.5706 289.96 25.9155 291.387 24.8748C295.024 22.1569 296.387 17.4127 297.529 13.0138L300.902 0L295.205 3.46606C291.108 5.95818 286.916 8.53286 283.959 12.3163C281.001 16.0998 279.505 21.4016 281.454 25.7921" fill="#F3E563"/>
<path d="M129.003 137.216C130.103 135.834 130.829 134.19 131.111 132.445C131.393 130.7 131.221 128.911 130.613 127.251C129.001 123.002 124.82 120.389 120.911 118.083L109.344 111.268L111.11 117.708C112.38 122.339 113.704 127.084 116.525 130.97C119.346 134.857 124.025 137.751 128.773 137.075" fill="#F3E563"/>
<path d="M400.637 337.585C401.737 336.202 402.463 334.559 402.745 332.813C403.027 331.068 402.855 329.279 402.247 327.62C400.634 323.37 396.454 320.757 392.545 318.452L380.978 311.637L382.744 318.077C384.014 322.708 385.337 327.452 388.159 331.339C390.98 335.225 395.659 338.119 400.407 337.443" fill="#F3E563"/>
<path d="M182.193 83.3338C185.36 83.3338 187.927 80.7615 187.927 77.5885C187.927 74.4154 185.36 71.8431 182.193 71.8431C179.026 71.8431 176.459 74.4154 176.459 77.5885C176.459 80.7615 179.026 83.3338 182.193 83.3338Z" fill="#FD6584"/>
<path d="M29.5333 252.821C32.6999 252.821 35.267 250.249 35.267 247.076C35.267 243.903 32.6999 241.33 29.5333 241.33C26.3666 241.33 23.7996 243.903 23.7996 247.076C23.7996 250.249 26.3666 252.821 29.5333 252.821Z" fill="#FD6584"/>
<path d="M423.725 206.14C426.891 206.14 429.458 203.568 429.458 200.395C429.458 197.222 426.891 194.65 423.725 194.65C420.558 194.65 417.991 197.222 417.991 200.395C417.991 203.568 420.558 206.14 423.725 206.14Z" fill="#FD6584"/>
<path d="M23.7995 108.47C26.9661 108.47 29.5332 105.897 29.5332 102.724C29.5332 99.5512 26.9661 96.9789 23.7995 96.9789C20.6329 96.9789 18.0658 99.5512 18.0658 102.724C18.0658 105.897 20.6329 108.47 23.7995 108.47Z" fill="#E6E6E6"/>
<path d="M378.572 272.212C381.739 272.212 384.306 269.639 384.306 266.466C384.306 263.293 381.739 260.721 378.572 260.721C375.405 260.721 372.838 263.293 372.838 266.466C372.838 269.639 375.405 272.212 378.572 272.212Z" fill="#E6E6E6"/>
<path d="M390.039 97.6971C393.206 97.6971 395.773 95.1248 395.773 91.9518C395.773 88.7787 393.206 86.2065 390.039 86.2065C386.873 86.2065 384.306 88.7787 384.306 91.9518C384.306 95.1248 386.873 97.6971 390.039 97.6971Z" fill="#E6E6E6"/>
<path d="M138.636 189.074C138.141 189.86 136.939 189.745 136.264 189.254C135.327 188.572 135.63 187.259 136.276 186.483C138.326 184.017 141.717 186.621 142.174 189.07C142.344 190.264 142.161 191.482 141.646 192.573C141.132 193.663 140.309 194.579 139.281 195.205C136.941 196.594 133.903 195.898 131.892 194.235C127.696 190.768 128.839 183.824 133.499 181.315C136.473 179.714 140.233 180.417 143.162 181.758C146.46 183.268 149.296 185.582 152.346 187.511C159.037 191.708 166.607 194.298 174.463 195.079C175.838 195.219 175.829 193.064 174.463 192.924C170.11 192.473 165.836 191.442 161.754 189.858C157.717 188.218 153.884 186.11 150.335 183.577C146.744 181.111 142.992 178.715 138.549 178.308C136.755 178.098 134.938 178.367 133.283 179.089C131.627 179.811 130.192 180.959 129.123 182.417C128.172 183.722 127.535 185.229 127.263 186.822C126.991 188.414 127.09 190.048 127.554 191.595C128.112 193.213 129.088 194.654 130.383 195.771C131.678 196.889 133.245 197.642 134.925 197.955C136.542 198.261 138.214 198.054 139.708 197.362C141.202 196.67 142.444 195.529 143.259 194.096C144.895 191.262 144.842 187.454 142.371 185.104C141.663 184.383 140.776 183.863 139.802 183.597C138.828 183.332 137.8 183.33 136.825 183.593C135.927 183.897 135.136 184.457 134.55 185.204C133.964 185.951 133.608 186.853 133.526 187.8C133.288 191.479 138.5 193.32 140.493 190.161C141.234 188.986 139.374 187.904 138.636 189.074L138.636 189.074Z" fill="#3F3D56"/>
<path d="M322.506 189.074C323.001 189.859 324.203 189.745 324.878 189.254C325.815 188.572 325.511 187.259 324.866 186.483C322.816 184.017 319.425 186.621 318.968 189.07C318.798 190.264 318.981 191.482 319.496 192.573C320.01 193.663 320.832 194.579 321.861 195.205C324.2 196.594 327.239 195.898 329.25 194.235C333.445 190.768 332.303 183.824 327.643 181.315C324.669 179.714 320.909 180.417 317.98 181.758C314.682 183.268 311.846 185.582 308.796 187.511C302.104 191.708 294.535 194.298 286.679 195.079C285.303 195.219 285.313 193.064 286.679 192.924C291.032 192.473 295.306 191.442 299.387 189.858C303.425 188.218 307.258 186.11 310.807 183.577C314.398 181.111 318.149 178.715 322.593 178.308C324.387 178.098 326.203 178.367 327.859 179.089C329.514 179.811 330.95 180.959 332.019 182.417C332.97 183.722 333.606 185.229 333.879 186.822C334.151 188.414 334.051 190.048 333.588 191.595C333.03 193.213 332.053 194.654 330.759 195.771C329.464 196.888 327.897 197.642 326.217 197.955C324.6 198.261 322.927 198.054 321.433 197.362C319.939 196.67 318.698 195.529 317.883 194.096C316.247 191.262 316.3 187.454 318.771 185.104C319.479 184.383 320.365 183.863 321.34 183.597C322.314 183.332 323.341 183.33 324.317 183.593C325.215 183.897 326.006 184.457 326.592 185.204C327.177 185.951 327.533 186.853 327.616 187.8C327.854 191.479 322.642 193.319 320.649 190.161C319.908 188.986 321.767 187.904 322.506 189.074L322.506 189.074Z" fill="#3F3D56"/>
<path d="M63.8121 26.1145L60.9719 29.6849L50.9277 23.7313L53.7673 20.1609L63.8121 26.1145Z" fill="#F3E563"/>
<path d="M74.2924 41.4547L76.8006 45.2057L66.2488 50.4647L63.7406 46.7144L74.2924 41.4547Z" fill="#F3E563"/>
<path d="M85.2152 25.1477L90.2277 25.3257L89.7287 35.8351L84.7156 35.6578L85.2152 25.1477Z" fill="#F3E563"/>
<path d="M418.584 245.873L415.744 249.444L405.7 243.49L408.54 239.92L418.584 245.873Z" fill="#F3E563"/>
<path d="M429.065 261.214L431.573 264.965L421.021 270.224L418.513 266.473L429.065 261.214Z" fill="#F3E563"/>
<path d="M439.987 244.907L445 245.085L444.501 255.594L439.488 255.417L439.987 244.907Z" fill="#F3E563"/>
</g>
<defs>
<clipPath id="clip0_48_450">
<rect width="445" height="343" fill="white"/>
</clipPath>
</defs>
</svg>
