<svg width="469" height="320" viewBox="0 0 469 320" fill="none" xmlns="http://www.w3.org/2000/svg">
<g clip-path="url(#clip0_4_314)">
<path d="M183.954 179.403C183.154 179.403 182.387 179.722 181.822 180.289C181.256 180.856 180.938 181.626 180.938 182.428V211.687H123.078C122.278 211.687 121.511 212.005 120.945 212.573C120.379 213.14 120.061 213.909 120.061 214.711C120.061 215.513 120.379 216.283 120.945 216.85C121.511 217.417 122.278 217.736 123.078 217.736H180.938V318.92H186.971V182.428C186.971 181.626 186.653 180.856 186.087 180.289C185.522 179.722 184.754 179.403 183.954 179.403Z" fill="#E6E6E6"/>
<path d="M344.972 318.233L355.849 318.534C357.501 318.62 359.136 318.16 360.503 317.226C361.684 316.345 362.226 315.154 361.989 313.958L359.848 303.173C359.445 301.138 356.958 299.6 353.936 299.516L347.929 299.35C344.907 299.266 342.34 300.665 341.825 302.674L339.094 313.325C338.791 314.506 339.267 315.725 340.398 316.67C341.711 317.678 343.318 318.227 344.972 318.233Z" fill="#3F3D56"/>
<path d="M278.814 317.925L289.691 318.226C291.343 318.311 292.978 317.852 294.345 316.918C295.526 316.037 296.068 314.846 295.83 313.65L293.69 302.865C293.287 300.83 290.8 299.292 287.778 299.208L281.771 299.042C278.749 298.958 276.181 300.356 275.667 302.366L272.936 313.016C272.633 314.197 273.109 315.416 274.239 316.361C275.553 317.369 277.16 317.919 278.814 317.925Z" fill="#3F3D56"/>
<path d="M382.741 226.362C383.238 226.147 383.647 225.768 383.9 225.289C384.153 224.81 384.236 224.258 384.134 223.725C384.032 223.192 383.751 222.71 383.339 222.359C382.926 222.008 382.407 221.808 381.866 221.793L258.211 218.369C257.899 218.361 257.589 218.414 257.298 218.525C257.006 218.637 256.74 218.805 256.513 219.02C256.287 219.235 256.104 219.492 255.977 219.778C255.85 220.063 255.78 220.371 255.771 220.683V220.684C255.754 221.315 255.988 221.927 256.421 222.385C256.854 222.844 257.45 223.112 258.08 223.13L258.08 223.13L381.735 226.553C382.08 226.564 382.423 226.499 382.741 226.362Z" fill="#3F3D56"/>
<path d="M337.106 185.315L372.452 186.294L369.157 305.954L333.81 304.976L337.106 185.315Z" fill="#E6E6E6"/>
<path d="M336.209 183.166L343.004 201.725L342.998 286.279L334.718 288.66L336.209 183.166Z" fill="#CCCCCC"/>
<path d="M354.963 154.044C361.576 154.232 366.621 165.707 366.5 170.185L366.277 178.291L342.332 177.628L342.556 169.522C342.681 165.044 348.35 153.866 354.963 154.044Z" fill="#3F3D56"/>
<path d="M371.993 235.848C373.229 235.881 374.427 235.421 375.325 234.57C376.222 233.718 376.747 232.544 376.782 231.305L377.145 218.112C377.18 216.873 376.721 215.671 375.872 214.77C375.022 213.87 373.85 213.345 372.614 213.31C371.378 213.276 370.179 213.736 369.281 214.588C368.383 215.44 367.86 216.615 367.826 217.854L367.462 231.047C367.43 232.286 367.888 233.487 368.738 234.387C369.587 235.287 370.758 235.813 371.993 235.848Z" fill="#3F3D56"/>
<path d="M363.024 186.578L363.191 177.859L360.911 177.802L360.743 186.493L358.676 313.164L360.957 313.227" fill="#3F3D56"/>
<path d="M333.053 206.967L374.042 208.102C377.957 203.315 378.313 182.92 370.142 179.038L366.938 173.583L342.235 172.374L339.348 178.118C335.284 181.585 333.188 201.853 333.053 206.967Z" fill="#E6E6E6"/>
<path d="M348.48 197.185L358.846 197.472C360.846 197.528 362.547 194.926 362.636 191.673C362.726 188.42 361.171 185.728 359.171 185.672L348.805 185.385C346.805 185.33 345.104 187.932 345.015 191.185C344.925 194.438 346.48 197.13 348.48 197.185Z" fill="#6C63FF"/>
<path d="M368.553 256.023L389.92 271.157L393.652 305.279L368.727 296.929L368.553 256.023Z" fill="#E6E6E6"/>
<path d="M268.874 183.85L304.221 184.829L300.925 304.489L265.579 303.51L268.874 183.85Z" fill="#E6E6E6"/>
<path d="M303.374 183.565L296.101 201.941L293.919 286.468L302.134 289.063L303.374 183.565Z" fill="#CCCCCC"/>
<path d="M251.198 150.628C248.639 150.628 246.565 147.839 246.565 144.399C246.565 140.959 248.639 138.17 251.198 138.17C253.756 138.17 255.831 140.959 255.831 144.399C255.831 147.839 253.756 150.628 251.198 150.628Z" fill="#E6E6E6"/>
<path d="M287.422 152.597C294.034 152.786 299.08 164.26 298.958 168.738L298.735 176.845L274.791 176.182L275.014 168.075C275.139 163.598 280.809 152.419 287.422 152.597Z" fill="#3F3D56"/>
<path d="M280.575 189.307L280.742 180.588L278.462 180.531L278.295 189.222L276.228 315.893L278.508 315.957" fill="#3F3D56"/>
<path d="M265.511 205.521L306.501 206.656C307.215 202.324 306.291 182.111 302.601 177.592L299.397 172.137L274.693 170.927L271.806 176.671C264.513 177.267 261.962 197.13 265.511 205.521Z" fill="#E6E6E6"/>
<path d="M280.889 197.56L291.254 197.847C293.254 197.902 294.966 194.892 295.07 191.137C295.173 187.382 293.63 184.281 291.629 184.226L281.264 183.939C279.264 183.883 277.552 186.894 277.448 190.649C277.345 194.404 278.889 197.504 280.889 197.56Z" fill="#6C63FF"/>
<path d="M267.128 247.276L246.472 263.371L244.297 297.63L268.815 288.147L267.128 247.276Z" fill="#E6E6E6"/>
<path d="M272.896 88.6029C295.06 88.6029 320.532 63.9413 343.068 75.6587C411.302 111.136 401.909 51.7703 421.512 29.6918L420.869 28.3975C406.028 85.1588 392.601 175.606 342.772 74.1531C330.29 48.7394 289.324 88.022 265.21 86.8631L265.168 88.4189C267.715 88.5421 270.291 88.6034 272.896 88.6029Z" fill="#F2F2F2"/>
<path d="M219.699 92.0928C237.368 105.511 272.523 101.272 283.432 124.256C316.463 193.845 344.722 140.835 373.643 135.102L373.91 133.681C344.958 136.088 313.903 132.352 284.103 122.876C257.172 114.313 233.145 101.575 214.62 86.0527L213.65 87.2676C215.606 88.9075 217.622 90.5159 219.699 92.0928Z" fill="#F2F2F2"/>
<path d="M411.89 89.0375C409.331 89.0375 407.257 86.2487 407.257 82.8084C407.257 79.3681 409.331 76.5792 411.89 76.5792C414.449 76.5792 416.523 79.3681 416.523 82.8084C416.523 86.2487 414.449 89.0375 411.89 89.0375Z" fill="#E6E6E6"/>
<path d="M268.199 38.4452C265.641 38.4452 263.567 35.6563 263.567 32.2161C263.567 28.7758 265.641 25.9869 268.199 25.9869C270.758 25.9869 272.832 28.7758 272.832 32.2161C272.832 35.6563 270.758 38.4452 268.199 38.4452Z" fill="#E6E6E6"/>
<path d="M369.475 114.179C371.593 115.594 373.761 112.226 371.602 110.874C369.484 109.459 367.316 112.827 369.475 114.179Z" fill="#E6E6E6"/>
<path d="M291.048 3.6455C293.166 5.06053 295.334 1.69261 293.175 0.340401C291.057 -1.07456 288.889 2.29337 291.048 3.6455Z" fill="#E6E6E6"/>
<path d="M244.827 69.18L246.174 68.8836L245.879 67.5319L246.777 67.3345L247.073 68.6862L248.421 68.3903L248.617 69.2911L247.27 69.5875L247.565 70.9387L246.667 71.1361L246.371 69.7844L245.024 70.0808L244.827 69.18Z" fill="#E6E6E6"/>
<path d="M368.343 23.8881C365.101 23.8881 362.473 21.2531 362.473 18.0027C362.473 14.7523 365.101 12.1173 368.343 12.1173C371.584 12.1173 374.212 14.7523 374.212 18.0027C374.212 21.2531 371.584 23.8881 368.343 23.8881Z" fill="#FF6584"/>
<path d="M325.41 10.5532C332.023 10.7415 337.069 22.2164 336.947 26.6942L336.724 34.8009L312.78 34.1379L313.003 26.0313C313.128 21.5535 318.797 10.3753 325.41 10.5532Z" fill="#3F3D56"/>
<path d="M311.153 317.527L322.029 317.828C323.682 317.913 325.316 317.454 326.683 316.52C327.865 315.639 328.406 314.448 328.169 313.252L326.028 302.466C325.625 300.432 323.138 298.893 320.116 298.81L314.11 298.643C311.087 298.56 308.52 299.958 308.005 301.967L305.275 312.618C304.972 313.799 305.447 315.018 306.578 315.963C307.892 316.971 309.498 317.52 311.153 317.527Z" fill="#3F3D56"/>
<path d="M306.303 62.1604L341.649 63.139L334.988 305.019L299.641 304.04L306.303 62.1604Z" fill="#E6E6E6"/>
<path d="M320.446 179.245L320.613 170.526L318.333 170.469L318.165 179.16L316.098 305.831L318.379 305.894" fill="#3F3D56"/>
<path d="M299.343 84.2975L347.236 85.6236C348.071 80.5625 346.991 56.9455 342.68 51.665L341.498 45.3619L308.429 44.4463L306.699 50.5894C301.95 54.6412 299.502 78.3223 299.343 84.2975Z" fill="#E6E6E6"/>
<path d="M307.384 45.1901L341.509 46.1349C342.769 46.1698 343.809 45.5067 343.832 44.6538C343.835 44.5309 343.817 44.4084 343.779 44.2917L338.478 27.9178C338.252 27.2167 337.348 26.7017 336.293 26.6725L313.662 26.046C312.608 26.0168 311.677 26.4809 311.412 27.1684L305.218 43.224C304.902 44.0452 305.633 44.8998 306.853 45.1327C307.028 45.166 307.206 45.1852 307.384 45.1901Z" fill="#E6E6E6"/>
<path d="M338.143 178.132C338.451 178 338.742 177.831 339.01 177.629C339.394 177.359 339.711 177.005 339.937 176.593C340.163 176.181 340.292 175.722 340.315 175.253L341.554 130.227C341.606 128.363 339.786 126.795 337.497 126.732L306.948 125.886C304.659 125.822 302.756 127.287 302.704 129.151L301.464 174.177C301.461 174.647 301.564 175.112 301.768 175.536C301.971 175.96 302.268 176.331 302.636 176.622C303.452 177.289 304.469 177.659 305.522 177.672L336.071 178.518C336.781 178.542 337.488 178.41 338.143 178.132Z" fill="#3F3D56"/>
<path d="M318.59 42.2923L328.955 42.5793C330.955 42.6347 332.647 40.3687 332.725 37.5288C332.803 34.6888 331.239 32.3327 329.239 32.2773L318.873 31.9903C316.873 31.9349 315.182 34.2009 315.104 37.0409C315.025 39.8808 316.589 42.2369 318.59 42.2923Z" fill="#6C63FF"/>
<path d="M73.5718 309.343H85.6375V221.424C75.545 220.699 67.9599 217.6 67.9599 213.887C67.9599 209.635 77.9044 206.188 90.1716 206.188C102.439 206.188 112.383 209.635 112.383 213.887C112.383 217.636 104.65 220.757 94.4125 221.443V309.343H106.478C107.642 309.343 108.758 309.807 109.581 310.632C110.403 311.457 110.866 312.576 110.866 313.743C110.866 314.91 110.403 316.029 109.581 316.854C108.758 317.679 107.642 318.142 106.478 318.142H73.5718C72.4082 318.142 71.2923 317.679 70.4694 316.854C69.6466 316.029 69.1843 314.91 69.1843 313.743C69.1843 312.576 69.6466 311.457 70.4694 310.632C71.2923 309.807 72.4082 309.343 73.5718 309.343Z" fill="#E6E6E6"/>
<path d="M97.7917 264.709L101.755 269.04L120.3 255.773L114.451 249.381L97.7917 264.709Z" fill="#A0616A"/>
<path d="M107.926 276.139C107.887 277.108 107.657 278.059 107.249 278.937C106.841 279.816 106.263 280.605 105.548 281.258L105.374 281.42L100.176 275.741L92.5961 267.457L98.1917 262.306L99.2021 263.413L99.3076 263.527L104.343 265.915L105.41 266.423L105.593 266.509L105.995 270.834V270.838C106.651 271.549 107.16 272.384 107.492 273.294C107.823 274.204 107.971 275.171 107.926 276.139Z" fill="#2F2E41"/>
<path d="M77.2583 307.911L82.8671 309.62L92.1083 288.741L83.8302 286.219L77.2583 307.911Z" fill="#A0616A"/>
<path d="M92.3324 318.205L92.2634 318.437L74.1783 312.928L76.3856 305.641L77.8139 306.076L77.9641 306.121L84.6877 305.503L84.8865 305.486L87.4307 309.006C89.2972 309.574 90.8621 310.863 91.7813 312.588C92.7005 314.313 92.8988 316.333 92.3324 318.205H92.3324Z" fill="#2F2E41"/>
<path d="M123.508 198.59C123.508 198.59 159.318 233.258 136.679 243.989H129.682C128.161 239.032 125.824 234.365 122.766 230.182C122.105 229.314 119.628 229.491 118.94 228.645C114.741 223.483 110.188 219.05 107.044 219.226L107.796 243.179L109.014 251.723C109.653 256.14 91.6132 294.706 91.6132 294.706L80.2747 290.238C80.2747 290.238 92.088 258.473 92.2264 253.894L82.7595 203.543L123.508 198.59Z" fill="#2F2E41"/>
<path d="M126.494 200.3C126.312 200.561 126.073 200.778 125.796 200.935C125.34 201.193 124.845 201.377 124.331 201.48C116.269 203.315 89.9303 207.119 83.093 205.304C82.2531 205.085 81.7053 204.775 81.5268 204.369C80.9546 203.083 81.0277 197.651 81.3644 191.093C81.4253 189.864 82.7765 188.533 82.8577 187.248C82.9145 186.284 81.7012 185.376 81.7661 184.396C82.2125 177.764 82.7887 171.006 83.1742 166.734C83.4176 163.987 83.584 162.27 83.584 162.27L79.4249 135.975L79.6196 135.653L79.8387 135.544L93.2494 128.887L93.9798 127.016C94.1915 126.477 94.5594 126.014 95.036 125.687C95.5127 125.36 96.0762 125.183 96.6538 125.181L105.487 125.144C105.946 125.142 106.398 125.249 106.807 125.457C107.215 125.665 107.568 125.968 107.837 126.34L110.231 129.664L126.056 139.836L125.995 140.023L118.569 162.681L118.533 164.447V164.451L118.257 178.651L119.024 180.575L118.16 183.732C118.16 183.732 118.557 187.423 120.688 190.165C122.619 192.655 125.078 195.251 126.19 197.358V197.362C126.807 198.526 127.014 199.535 126.494 200.3Z" fill="#03175E"/>
<path d="M138.399 241.929L136.485 244.355C136.485 244.355 118.881 256.704 118.277 257.858L115.495 260.497L108.763 253.282L112.264 248.883C115.065 245.362 118.685 242.583 122.805 240.79L128.17 236.018L138.399 241.929Z" fill="#2F2E41"/>
<path d="M74.9888 208.49L78.1945 177.377L79.0406 164.572L70.068 162.945C70.068 162.945 70.4235 172.102 69.2481 177.267C68.0881 182.365 69.0942 207.807 69.1659 208.488C68.507 209.078 68.0424 209.856 67.8337 210.717C67.6251 211.579 67.6821 212.483 67.9973 213.311C68.3125 214.139 68.8709 214.852 69.5988 215.355C70.3267 215.858 71.1897 216.127 72.0737 216.128C72.9577 216.128 73.821 215.859 74.5493 215.357C75.2777 214.855 75.8369 214.143 76.1529 213.315C76.4688 212.487 76.5267 211.583 76.3188 210.721C76.111 209.86 75.6472 209.082 74.9888 208.49V208.49Z" fill="#A0616A"/>
<path d="M85.6737 161.371L83.1742 166.734L82.3017 168.601L79.9524 180.937L78.7797 182.186L77.7693 186.218L77.2946 186.121L68.7328 184.343L66.2373 183.826C65.6749 182.886 65.4533 181.781 65.6101 180.696C65.7668 179.612 66.2922 178.615 67.0976 177.874C67.268 177.719 67.41 177.569 67.406 177.426C67.2639 168.845 67.7874 153.177 72.5146 146.728C74.0159 144.682 74.9167 142.643 76.2274 141.219C76.2315 141.215 76.2315 141.211 76.2355 141.211L79.4249 135.975L79.6196 135.653L79.8387 135.544L85.6737 161.371Z" fill="#03175E"/>
<path d="M100.38 122.94C93.8886 122.94 88.6265 117.664 88.6265 111.155C88.6265 104.646 93.8886 99.3701 100.38 99.3701C106.871 99.3701 112.133 104.646 112.133 111.155C112.133 117.664 106.871 122.94 100.38 122.94Z" fill="#A0616A"/>
<path d="M86.4235 108.619C86.0793 106.639 85.811 104.072 86.7971 101.789C87.6304 99.8684 89.7149 98.0676 92.0319 98.3105C91.922 97.8769 91.9342 97.4213 92.0671 96.9942C92.2 96.5672 92.4484 96.1854 92.7847 95.8914C93.5392 95.2975 94.4184 94.883 95.3559 94.6793C97.5337 94.0374 99.7897 93.372 102.119 93.3597C104.733 93.3454 107.05 94.2434 108.47 95.8267L108.505 95.8779L108.931 96.8973C108.988 97.034 109.073 97.1568 109.182 97.2571C109.291 97.3575 109.42 97.4331 109.561 97.4787C109.701 97.5253 109.851 97.5401 109.998 97.522C110.146 97.5039 110.287 97.4534 110.413 97.3741C110.55 97.2891 110.708 97.2416 110.869 97.2364C111.031 97.2311 111.191 97.2683 111.334 97.3441C111.477 97.42 111.598 97.5319 111.685 97.6689C111.771 97.8059 111.821 97.9631 111.828 98.1251L111.851 98.5601L112.46 98.3163C112.613 98.2544 112.78 98.2345 112.943 98.2587C113.107 98.2829 113.26 98.3503 113.389 98.4541C113.517 98.5578 113.616 98.694 113.674 98.8487C113.733 99.0034 113.749 99.1709 113.721 99.334L113.64 99.8514C113.771 99.8276 113.906 99.8304 114.036 99.8598C114.166 99.8892 114.289 99.9445 114.397 100.023C114.552 100.137 114.667 100.297 114.725 100.481C114.783 100.665 114.781 100.863 114.72 101.045C114.247 102.399 113.438 103.61 112.371 104.565C111.891 104.999 111.355 105.365 110.776 105.652C110.655 105.713 110.53 105.771 110.4 105.825C105.716 107.839 100.704 108.977 95.6122 109.184C96.0938 110.105 96.4049 111.106 96.5305 112.138C96.6001 112.724 96.5083 113.317 96.2653 113.855C96.0222 114.392 95.6371 114.852 95.1518 115.185C94.9411 115.306 94.7201 115.407 94.4914 115.489C94.2729 115.569 94.0611 115.668 93.8582 115.783C93.5608 115.963 93.3162 116.219 93.1491 116.524C92.982 116.83 92.8984 117.174 92.9066 117.523C92.9149 117.871 93.0147 118.211 93.1961 118.508C93.3775 118.806 93.6339 119.05 93.9395 119.216C93.9395 119.216 93.0648 120.286 92.9248 120.268C92.3677 120.141 91.8642 119.843 91.4852 119.414C88.9398 116.936 87.2368 113.306 86.4235 108.619Z" fill="#2F2E41"/>
<path d="M34.9677 290.792L34.4569 279.275C29.1317 276.421 23.1921 274.913 17.1539 274.883C25.4642 281.696 24.4257 294.828 30.0599 303.989C31.839 306.833 34.2335 309.239 37.066 311.029C39.8985 312.819 43.0964 313.946 46.4227 314.329L53.3771 318.598C54.3313 313.264 54.1209 307.786 52.7604 302.541C51.3999 297.296 48.9215 292.409 45.4961 288.217C43.5512 285.885 41.3211 283.807 38.8585 282.033C37.1929 286.437 34.9677 290.792 34.9677 290.792Z" fill="#F2F2F2"/>
<path d="M-6.10352e-05 319.146C-0.000396729 319.258 0.0214539 319.369 0.0641479 319.473C0.106842 319.577 0.169556 319.671 0.248718 319.751C0.327881 319.83 0.421967 319.893 0.525482 319.936C0.628998 319.978 0.739899 320 0.851868 320H468.148C468.374 320 468.591 319.91 468.751 319.75C468.91 319.59 469 319.372 469 319.146C469 318.919 468.91 318.702 468.751 318.542C468.591 318.382 468.374 318.292 468.148 318.292H0.851868C0.739899 318.291 0.628998 318.313 0.525482 318.356C0.421997 318.399 0.327881 318.462 0.248718 318.541C0.169556 318.621 0.106842 318.715 0.0641479 318.819C0.0214539 318.922 -0.000396729 319.034 -6.10352e-05 319.146Z" fill="#CCCCCC"/>
<path d="M267.999 232.926C269.234 232.959 270.432 232.499 271.33 231.647C272.228 230.795 272.752 229.621 272.787 228.382L273.151 215.189C273.183 213.951 272.724 212.751 271.875 211.851C271.025 210.952 269.854 210.428 268.619 210.394C267.384 210.36 266.186 210.818 265.289 211.669C264.391 212.52 263.867 213.693 263.831 214.931L263.468 228.124C263.435 229.363 263.894 230.564 264.743 231.465C265.592 232.365 266.763 232.89 267.999 232.926Z" fill="#3F3D56"/>
<path d="M62.4133 281.144C69.4948 281.144 77.2564 280.875 85.6981 280.339C129.361 277.558 185.918 267.892 244.951 253.122C303.984 238.352 358.439 220.24 398.286 202.126C417.697 193.301 432.595 184.949 442.565 177.299C453.12 169.2 457.738 162.141 456.289 156.318C453.465 144.974 428.466 142.492 407.991 142.407L407.984 144.057C436.101 144.173 452.689 148.669 454.692 156.717C457.243 166.968 436.437 182.971 397.607 200.623C357.848 218.698 303.492 236.774 244.553 251.522C185.614 266.268 129.161 275.918 85.5937 278.692C43.0466 281.402 17.1798 277.077 14.6288 266.826C12.5109 258.315 26.4741 245.778 53.946 231.522L53.1898 230.057C33.2283 240.415 10.0576 255.272 13.0323 267.225C14.4815 273.048 21.8651 277.105 34.978 279.281C42.4529 280.522 51.6342 281.144 62.4133 281.144Z" fill="#CCCCCC"/>
<path d="M438.255 270.336C443.875 270.336 447.528 268.936 449.145 266.153C452.333 260.664 446.993 251.034 433.273 237.529L432.12 238.706C444.865 251.251 450.406 260.703 447.723 265.322C446.026 268.244 440.973 269.291 433.108 268.349C425.301 267.415 414.955 264.629 402.357 260.07C376.42 250.685 343.881 234.853 310.732 215.492C277.584 196.131 247.798 175.559 226.861 157.566C222.84 154.11 219.19 150.784 216.013 147.684C211.844 143.712 207.997 139.413 204.51 134.828C199.813 128.434 198.228 123.51 199.926 120.588C202.761 115.708 214.672 116.167 233.466 121.882L233.943 120.303C213.779 114.172 201.856 113.988 198.504 119.758C196.421 123.342 197.996 128.742 203.185 135.806C206.725 140.464 210.631 144.831 214.866 148.866C218.067 151.991 221.743 155.339 225.79 158.819C246.801 176.874 276.673 197.508 309.904 216.917C343.136 236.327 375.771 252.204 401.798 261.622C414.513 266.224 424.982 269.038 432.913 269.987C434.686 270.209 436.469 270.325 438.255 270.336Z" fill="#CCCCCC"/>
<path d="M137.962 202.602C142.028 202.52 163.87 201.892 167.452 202.046C167.655 201.335 174.444 210.06 174.61 210.114C174.72 210.231 174.8 210.372 174.844 210.526C174.887 210.681 174.893 210.843 174.861 211.001C174.828 211.158 174.758 211.304 174.656 211.429C174.555 211.553 174.425 211.65 174.278 211.713C173.879 211.956 138.667 211.303 138.24 211.388C138.056 211.385 137.876 211.33 137.721 211.229C137.566 211.128 137.443 210.985 137.366 210.817L137.131 210.289C137.106 209.384 136.811 204.763 137.076 203.973C137.011 203.825 136.984 203.663 136.997 203.501C137.01 203.34 137.063 203.184 137.15 203.048C137.238 202.912 137.358 202.8 137.5 202.722C137.642 202.644 137.801 202.603 137.962 202.602Z" fill="#E6E6E6"/>
<path opacity="0.17" d="M137.131 210.288C137.338 210.786 137.602 211.411 138.24 211.388L173.906 211.79C174.075 211.788 174.24 211.743 174.386 211.658C174.532 211.574 174.655 211.453 174.741 211.307C174.827 211.162 174.874 210.997 174.879 210.828C174.883 210.659 174.844 210.491 174.765 210.342L137.131 210.288Z" fill="black"/>
<path d="M167.285 201.939C167.669 201.274 177.204 153.966 178 153.57L184.51 145.585L185.092 145.146C185.901 144.7 187.842 145.002 187.668 146.241C186.138 153.593 176.301 195.468 176.085 201.997L174.901 210.314C174.88 210.456 174.83 210.591 174.753 210.712C174.676 210.833 174.575 210.936 174.457 211.015C174.338 211.094 174.204 211.148 174.063 211.172C173.922 211.196 173.778 211.19 173.64 211.155C173.3 211.119 172.976 210.994 172.7 210.793C172.423 210.593 172.203 210.324 172.062 210.012C171.973 209.718 166.84 202.11 167.285 201.939Z" fill="#E6E6E6"/>
<path opacity="0.17" d="M184.512 145.585L172.061 210.014C172.477 211.07 174.425 211.811 174.879 210.425C174.887 210.423 187.653 146.28 187.666 146.242C187.802 144.698 185.258 144.649 184.512 145.585Z" fill="black"/>
<path d="M184.137 148.219L177.813 157.058L170.715 190.858L174.015 193.744L184.137 148.219Z" fill="#6C63FF"/>
<path d="M142.044 207.159L140.295 207.231C140.267 206.717 140.183 206.208 140.042 205.713C139.779 204.459 139.543 202.969 140.635 202.974C141.375 202.903 141.627 203.843 141.759 204.866C141.793 205.637 141.888 206.404 142.044 207.159Z" fill="#2F2E41"/>
<path d="M152.081 204.8L150.901 204.844L150.331 204.866C150.342 204.239 150.051 202.947 150.759 202.628C150.871 202.579 150.993 202.555 151.115 202.556C151.779 202.518 151.976 203.024 152.037 203.607C152.075 203.959 152.059 204.333 152.07 204.624C152.07 204.685 152.075 204.745 152.081 204.8Z" fill="#2F2E41"/>
<path d="M155.574 204.657L154.389 204.707L153.825 204.728C153.836 204.008 153.457 202.435 154.609 202.413C155.673 202.353 155.536 203.711 155.563 204.481C155.563 204.542 155.569 204.602 155.574 204.657Z" fill="#2F2E41"/>
<path d="M159.068 204.52L157.889 204.564L157.318 204.586C157.329 203.871 156.951 202.298 158.102 202.276C159.166 202.21 159.029 203.568 159.057 204.344C159.057 204.404 159.062 204.465 159.068 204.52Z" fill="#2F2E41"/>
<path d="M162.561 204.377L161.377 204.426L160.812 204.448C160.823 203.728 160.444 202.16 161.596 202.133C162.66 202.072 162.523 203.431 162.55 204.201C162.55 204.261 162.556 204.322 162.561 204.377Z" fill="#2F2E41"/>
<path d="M166.055 204.239L164.876 204.283L164.305 204.305C164.316 203.645 163.998 202.265 164.843 202.028H164.848C164.927 202.005 165.008 201.994 165.09 201.995C165.189 201.987 165.289 201.996 165.386 202.023H165.391C166.126 202.215 166.022 203.37 166.044 204.063C166.044 204.124 166.049 204.184 166.055 204.239Z" fill="#2F2E41"/>
<path d="M145.571 203.865L143.821 203.937C143.821 203.871 143.821 203.799 143.816 203.717C143.772 203.298 143.765 202.877 143.794 202.457C143.854 201.995 144.051 201.632 144.605 201.621C145.17 201.588 145.395 201.951 145.483 202.419C145.503 202.498 145.518 202.579 145.527 202.661V202.666C145.571 203.095 145.543 203.557 145.571 203.865Z" fill="#2F2E41"/>
<path d="M149.064 203.722L147.315 203.794C147.278 203.322 147.267 202.848 147.282 202.375C147.331 201.891 147.523 201.495 148.099 201.484C148.68 201.445 148.905 201.841 148.993 202.331C149.075 202.804 149.031 203.37 149.064 203.722Z" fill="#2F2E41"/>
<path d="M152.558 203.585L152.037 203.607L150.808 203.656C150.814 203.392 150.764 203.007 150.759 202.628C150.754 202.514 150.758 202.4 150.77 202.287C150.814 201.775 150.995 201.352 151.593 201.341C152.201 201.308 152.415 201.731 152.492 202.248C152.569 202.71 152.525 203.244 152.558 203.585Z" fill="#2F2E41"/>
<path d="M145.538 207.022L143.788 207.088C143.794 206.373 143.421 204.8 144.572 204.778C145.724 204.706 145.472 206.301 145.538 207.022Z" fill="#2F2E41"/>
<path d="M149.031 206.879L147.282 206.95C147.287 206.23 146.914 204.657 148.066 204.635C149.218 204.569 148.965 206.164 149.031 206.879Z" fill="#2F2E41"/>
<path d="M152.525 206.741L150.775 206.807C150.781 206.296 150.589 205.35 150.901 204.844C150.97 204.732 151.067 204.641 151.183 204.58C151.299 204.519 151.429 204.49 151.56 204.498C151.739 204.478 151.92 204.523 152.07 204.624C152.629 204.992 152.47 206.158 152.525 206.741Z" fill="#2F2E41"/>
<path d="M156.018 206.598L154.269 206.67C154.274 206.158 154.088 205.218 154.389 204.706C154.458 204.593 154.555 204.5 154.672 204.438C154.789 204.376 154.921 204.347 155.053 204.355C155.233 204.335 155.413 204.38 155.563 204.481C156.123 204.86 155.963 206.021 156.018 206.598Z" fill="#2F2E41"/>
<path d="M159.512 206.461L157.762 206.527C157.768 206.015 157.576 205.069 157.889 204.564C157.957 204.451 158.054 204.36 158.17 204.299C158.286 204.238 158.416 204.21 158.547 204.217C158.726 204.198 158.907 204.243 159.057 204.344C159.616 204.712 159.457 205.878 159.512 206.461Z" fill="#2F2E41"/>
<path d="M163.005 206.318L161.256 206.389C161.261 205.878 161.075 204.937 161.377 204.426C161.444 204.312 161.542 204.219 161.659 204.156C161.776 204.094 161.908 204.066 162.04 204.074C162.22 204.054 162.401 204.099 162.55 204.201C163.11 204.58 162.951 205.74 163.005 206.318Z" fill="#2F2E41"/>
<path d="M166.499 206.18L164.749 206.246C164.755 205.735 164.568 204.794 164.876 204.283C164.943 204.171 165.04 204.079 165.156 204.018C165.272 203.957 165.403 203.929 165.534 203.937C165.713 203.918 165.894 203.962 166.044 204.063C166.603 204.437 166.444 205.597 166.499 206.18Z" fill="#2F2E41"/>
<path d="M146.741 201.097L133.407 172.82L128.365 161.024L136.289 156.5C136.289 156.5 138.988 165.255 141.808 169.735C144.592 174.157 152.074 198.489 152.232 199.154C153.049 199.492 153.745 200.07 154.227 200.813C154.71 201.556 154.956 202.428 154.933 203.314C154.91 204.2 154.619 205.059 154.099 205.775C153.58 206.492 152.855 207.034 152.021 207.329C151.188 207.624 150.284 207.658 149.431 207.427C148.578 207.196 147.814 206.711 147.242 206.035C146.67 205.36 146.315 204.526 146.226 203.644C146.136 202.762 146.316 201.874 146.741 201.097H146.741Z" fill="#A0616A"/>
<path d="M146.822 174.917L136.738 181.017L134.451 177.551L132.927 176.763L126.624 165.909L121.05 160.216L113.686 136.614L123.267 138.055L123.28 138.059C124.987 138.967 126.514 140.59 128.607 142.02C135.202 146.527 140.889 161.131 143.598 169.273C143.643 169.407 143.825 169.5 144.037 169.591C145.042 170.021 145.868 170.786 146.375 171.757C146.882 172.727 147.04 173.843 146.822 174.917L146.822 174.917Z" fill="#03175E"/>
</g>
<defs>
<clipPath id="clip0_4_314">
<rect width="469" height="320" fill="white" transform="matrix(-1 0 0 1 469 0)"/>
</clipPath>
</defs>
</svg>
