<svg width="26" height="24" viewBox="0 0 26 24" fill="none" xmlns="http://www.w3.org/2000/svg">
    <path d="M19.5 16.875C19.3102 16.8754 19.1262 16.8093 18.98 16.6881L15.3075 13.625H13.8125C12.0886 13.625 10.4353 12.9402 9.21631 11.7212C7.99732 10.5022 7.3125 8.84891 7.3125 7.125C7.3125 5.40109 7.99732 3.74779 9.21631 2.52881C10.4353 1.30982 12.0886 0.625 13.8125 0.625H18.6875C20.2663 0.629508 21.7895 1.20849 22.9727 2.25384C24.1558 3.29918 24.9181 4.73943 25.1171 6.30564C25.3161 7.87185 24.9383 9.45696 24.0541 10.765C23.17 12.073 21.84 13.0145 20.3125 13.4137V16.0625C20.3129 16.2179 20.2687 16.3702 20.1852 16.5012C20.1016 16.6323 19.9823 16.7366 19.8413 16.8019C19.7341 16.8507 19.6177 16.8756 19.5 16.875ZM13.8125 2.25C12.5196 2.25 11.2796 2.76361 10.3654 3.67785C9.45111 4.59209 8.9375 5.83207 8.9375 7.125C8.9375 8.41793 9.45111 9.6579 10.3654 10.5721C11.2796 11.4864 12.5196 12 13.8125 12H15.6C15.7898 11.9996 15.9738 12.0657 16.12 12.1869L18.6875 14.3237V12.7475C18.6856 12.5503 18.7554 12.3592 18.8839 12.2097C19.0125 12.0602 19.191 11.9626 19.3863 11.935C20.587 11.7382 21.6707 11.0996 22.4245 10.1445C23.1783 9.18939 23.5478 7.98694 23.4602 6.77337C23.3726 5.55979 22.8344 4.42283 21.9513 3.58585C21.0682 2.74886 19.904 2.27238 18.6875 2.25H13.8125Z" fill="#075055"/>
    <path d="M6.50048 23.375C6.38278 23.3756 6.26634 23.3507 6.15923 23.3019C6.0182 23.2366 5.89884 23.1323 5.81532 23.0012C5.73179 22.8702 5.6876 22.7179 5.68798 22.5625V19.9138C4.39519 19.5693 3.24017 18.8344 2.38056 17.8092C1.52095 16.784 0.998623 15.5186 0.88487 14.1855C0.771118 12.8525 1.07148 11.5168 1.74496 10.3608C2.41845 9.20478 3.43224 8.28475 4.64798 7.72627C4.74611 7.67456 4.85379 7.64349 4.96438 7.63497C5.07497 7.62645 5.18613 7.64066 5.29102 7.67674C5.3959 7.71281 5.4923 7.76998 5.57425 7.84471C5.65621 7.91945 5.722 8.01018 5.76756 8.11131C5.81312 8.21244 5.8375 8.32182 5.83918 8.43273C5.84087 8.54363 5.81982 8.65371 5.77735 8.75617C5.73488 8.85864 5.67189 8.95132 5.59224 9.02851C5.51259 9.10571 5.41798 9.16578 5.31423 9.20502C4.35542 9.63975 3.56311 10.3732 3.05577 11.2956C2.54843 12.2181 2.35333 13.28 2.49965 14.3225C2.64598 15.3651 3.12585 16.3322 3.86752 17.0794C4.60919 17.8265 5.5728 18.3135 6.61423 18.4675C6.80946 18.4951 6.98799 18.5928 7.11655 18.7422C7.24511 18.8917 7.31492 19.0829 7.31298 19.28V20.8563L9.88048 18.7194C10.022 18.5865 10.2065 18.5087 10.4005 18.5H12.188C12.8387 18.5012 13.4829 18.3709 14.0819 18.1167C14.6809 17.8626 15.2223 17.49 15.6736 17.0213C15.8245 16.8661 16.0307 16.7772 16.2471 16.7742C16.3543 16.7727 16.4606 16.7923 16.5602 16.8319C16.6598 16.8715 16.7505 16.9303 16.8274 17.005C16.9042 17.0797 16.9655 17.1688 17.0079 17.2672C17.0503 17.3656 17.0729 17.4714 17.0744 17.5785C17.0759 17.6857 17.0563 17.792 17.0167 17.8916C16.9771 17.9912 16.9183 18.0819 16.8436 18.1588C16.2382 18.7808 15.5143 19.2752 14.7147 19.6129C13.9151 19.9506 13.056 20.1247 12.188 20.125H10.693L7.02048 23.1881C6.87431 23.3093 6.69033 23.3754 6.50048 23.375Z" fill="#075055"/>
</svg>
