<svg width="155" height="220" viewBox="0 0 155 220" fill="none" xmlns="http://www.w3.org/2000/svg">
<path d="M1 -49.5C1 -49.5 34.4457 -8.71655 45 22.5C54.5801 50.8351 51.7368 68.7171 54.5 98.5C57.8421 134.522 44.3431 158.152 59.5 191C85.1837 246.662 175.576 317.226 200 261C221.412 211.709 150.734 193.008 116 152C99.9962 133.105 81.1682 128.201 74 104.5C69.0256 88.0527 76.1213 77.5516 74 60.5C71.4206 39.7659 66.8795 28.5474 59.5 9C48.3927 -20.4219 21.5 -62 21.5 -62C21.5 -62 77.2418 -31.3416 96.5 2C113.153 30.8321 104.682 53.6867 116 85C128.944 120.811 129.967 149.434 161 171.5C179.273 184.493 215 191 215 191C215 191 186.737 100.327 153.5 50.5C140.214 30.5828 124.52 24.3743 116 2C108.794 -16.9224 124.122 -34.9895 110 -49.5C99.6205 -60.1652 74 -62 74 -62" stroke="#C3C5CB" stroke-width="2"/>
</svg>
