<svg width="22" height="20" viewBox="0 0 22 20" fill="none" xmlns="http://www.w3.org/2000/svg">
<path d="M4.61351 19.7333C3.51098 19.7334 2.45261 19.3 1.66684 18.5267L1.58017 18.44C1.18538 18.0548 0.871683 17.5944 0.657577 17.086C0.44347 16.5777 0.333283 16.0316 0.333508 15.48C0.332113 14.8828 0.449247 14.2913 0.678121 13.7397C0.906996 13.1881 1.24306 12.6874 1.66684 12.2667L12.0002 2.04666C13.0501 0.9535 14.4874 0.31649 16.0024 0.272846C17.5175 0.229202 18.9891 0.782418 20.1002 1.81332C20.6013 2.31319 20.9979 2.90779 21.2669 3.56249C21.5358 4.21719 21.6718 4.91888 21.6668 5.62666C21.6609 6.41713 21.4988 7.19863 21.1899 7.92627C20.881 8.65391 20.4314 9.31333 19.8668 9.86666L10.5802 19.0667C10.5224 19.1443 10.4485 19.2085 10.3635 19.2547C10.2785 19.3009 10.1844 19.328 10.0879 19.3342C9.9913 19.3404 9.89454 19.3255 9.80432 19.2906C9.71409 19.2556 9.63256 19.2014 9.56537 19.1318C9.49819 19.0622 9.44697 18.9787 9.41527 18.8873C9.38357 18.7959 9.37215 18.6987 9.38181 18.6024C9.39146 18.5061 9.42196 18.4131 9.47118 18.3298C9.5204 18.2465 9.58717 18.1749 9.66684 18.12L18.9268 8.91999C19.3666 8.49071 19.7173 7.97879 19.9587 7.41362C20.2001 6.84846 20.3274 6.24118 20.3335 5.62666C20.3383 5.09482 20.2371 4.56736 20.0356 4.07514C19.8341 3.58292 19.5365 3.13581 19.1602 2.75999C18.2987 1.97523 17.1636 1.56 15.9991 1.60364C14.8346 1.64728 13.7338 2.14629 12.9335 2.99332L2.63351 13.2133C2.32998 13.5081 2.08818 13.8603 1.92221 14.2494C1.75625 14.6386 1.66944 15.0569 1.66684 15.48C1.66542 15.8515 1.73775 16.2196 1.87966 16.5629C2.02156 16.9062 2.23021 17.2179 2.49351 17.48L2.58017 17.5667C3.17668 18.1159 3.96501 18.409 4.77547 18.3829C5.58593 18.3567 6.35371 18.0133 6.91351 17.4267L15.8135 8.62666C15.9818 8.45648 16.1145 8.25444 16.2038 8.03237C16.2931 7.8103 16.3372 7.57264 16.3335 7.33332C16.335 7.12545 16.2951 6.91937 16.2161 6.72709C16.1371 6.5348 16.0207 6.36015 15.8735 6.21332C15.5368 5.9046 15.0923 5.74064 14.6358 5.75686C14.1792 5.77307 13.7474 5.96815 13.4335 6.29999L7.30017 12.38C7.17464 12.5046 7.00473 12.5743 6.82782 12.5737C6.65091 12.5731 6.48149 12.5022 6.35684 12.3767C6.23219 12.2511 6.16251 12.0812 6.16314 11.9043C6.16376 11.7274 6.23464 11.558 6.36017 11.4333L12.5202 5.33332C13.0848 4.75487 13.8542 4.42158 14.6624 4.40537C15.4706 4.38916 16.2528 4.69132 16.8402 5.24665C17.1103 5.52165 17.3226 5.84797 17.4646 6.20636C17.6066 6.56474 17.6754 6.94793 17.6668 7.33332C17.6661 7.74833 17.5826 8.15903 17.4212 8.54138C17.2598 8.92372 17.0237 9.27001 16.7268 9.55999L7.85351 18.3867C6.99344 19.2454 5.82887 19.7294 4.61351 19.7333Z" fill="#075055" fill-opacity="0.3"/>
</svg>
