<svg width="438" height="315" viewBox="0 0 438 315" fill="none" xmlns="http://www.w3.org/2000/svg">
<rect x="125" y="114" width="108" height="72" rx="2" fill="#D3EBEC"/>
<mask id="path-2-inside-1_191_498" fill="white">
<rect x="155" y="101" width="47" height="16" rx="2"/>
</mask>
<rect x="155" y="101" width="47" height="16" rx="2" stroke="#D3EBEC" stroke-width="8" mask="url(#path-2-inside-1_191_498)"/>
<path d="M2 313H387H412.5M436 313H420" stroke="black" stroke-width="4" stroke-linecap="round"/>
<mask id="path-4-inside-2_191_498" fill="white">
<rect x="85.125" y="204.806" width="20.7639" height="12.6778" rx="2"/>
</mask>
<rect x="85.125" y="204.806" width="20.7639" height="12.6778" rx="2" fill="white" stroke="black" stroke-width="8" mask="url(#path-4-inside-2_191_498)"/>
<mask id="path-5-inside-3_191_498" fill="white">
<rect x="85" y="304" width="21" height="10" rx="2"/>
</mask>
<rect x="85" y="304" width="21" height="10" rx="2" fill="white" stroke="black" stroke-width="8" mask="url(#path-5-inside-3_191_498)"/>
<path d="M116.917 257.282L117.405 264.135M116.209 238.896L116.091 236.977C115.385 225.461 105.839 216.483 94.3016 216.483V216.483C82.6904 216.483 73.1108 225.572 72.5012 237.168L69.9818 285.083C69.3802 296.526 78.4959 306.133 89.9542 306.133H99.0689C110.596 306.133 119.737 296.414 119.031 284.909L118.334 273.533" stroke="black" stroke-width="4" stroke-linecap="round"/>
<path d="M25.305 191.041C25.9746 178.293 36.5064 168.3 49.272 168.3H67.6021C80.2868 168.3 90.7813 178.171 91.5571 190.832L97.3661 285.627C98.0711 297.132 88.9303 306.85 77.4035 306.85H40.3003C28.8424 306.85 19.7268 297.243 20.3278 285.801L25.305 191.041Z" fill="#D3EBEC"/>
<mask id="path-8-inside-4_191_498" fill="white">
<rect x="33.6667" y="152" width="33.4028" height="19.0167" rx="2"/>
</mask>
<rect x="33.6667" y="152" width="33.4028" height="19.0167" rx="2" fill="white" stroke="black" stroke-width="8" mask="url(#path-8-inside-4_191_498)"/>
<mask id="path-9-inside-5_191_498" fill="white">
<rect x="35.4722" y="305.039" width="33.4028" height="9.96111" rx="2"/>
</mask>
<rect x="35.4722" y="305.039" width="33.4028" height="9.96111" rx="2" fill="white" stroke="black" stroke-width="8" mask="url(#path-9-inside-5_191_498)"/>
<path d="M20.5764 185.958C28.7014 194.863 51.9028 213.034 83.3195 214.483" stroke="white" stroke-width="4" stroke-linecap="round"/>
<path d="M20.5764 199.994C28.7014 208.899 52.8056 227.071 84.2223 228.519" stroke="white" stroke-width="4" stroke-linecap="round"/>
<path d="M18.771 214.483C26.896 223.388 53.7085 241.559 85.1252 243.008" stroke="white" stroke-width="4" stroke-linecap="round"/>
<path d="M18.771 228.067C26.896 236.971 54.6113 255.143 86.0279 256.592" stroke="white" stroke-width="4" stroke-linecap="round"/>
<path d="M17.4167 242.556C25.8144 251.319 54.4597 269.202 86.9306 270.628" stroke="white" stroke-width="4" stroke-linecap="round"/>
<path d="M41.7917 201.806C52.6251 194.712 74.6529 179.71 76.0973 176.45" stroke="white" stroke-width="4" stroke-linecap="round"/>
<path d="M26.4446 303.228C37.8481 295.121 62.8408 271.637 64.3612 267.911" stroke="white" stroke-width="4" stroke-linecap="round"/>
<path d="M41.7917 305.039C52.9237 297.14 77.3214 274.258 78.8056 270.628" stroke="white" stroke-width="4" stroke-linecap="round"/>
<path d="M17.4167 296.889C28.5487 289.406 52.9464 267.728 54.4306 264.289" stroke="white" stroke-width="4" stroke-linecap="round"/>
<path d="M32.7639 196.372C43.6244 190.552 67.427 173.691 68.875 171.017" stroke="white" stroke-width="4" stroke-linecap="round"/>
<path d="M52.625 207.239C63.4583 200.145 80.5208 188.313 81.9653 185.053" stroke="white" stroke-width="4" stroke-linecap="round"/>
<path d="M20.0801 192.146C20.6939 180.46 30.348 171.3 42.0498 171.3H60.3799C72.0076 171.3 81.6275 180.348 82.3387 191.954L88.1476 286.749C88.7822 297.104 80.5555 305.85 70.1813 305.85H33.0781C22.766 305.85 14.562 297.204 15.1029 286.906L20.0801 192.146Z" stroke="black" stroke-width="4"/>
<path d="M210.942 21.1997H192" stroke="black" stroke-width="4" stroke-linecap="round" stroke-linejoin="round"/>
<path d="M201.471 11L201.471 29.9422" stroke="black" stroke-width="4" stroke-linecap="round" stroke-linejoin="round"/>
<path d="M274.561 8.05413L293.607 0.190085C294.53 -0.191244 295.59 0.0161046 296.339 0.678144C312.987 15.3943 336.379 12.8412 346.619 1.11306C347.386 0.235385 348.614 -0.126332 349.691 0.31547L368.599 8.06973C375.721 10.9907 380.374 17.9345 380.374 25.6431V160.34C380.374 161.738 379.242 162.872 377.846 162.872H265.355C263.959 162.872 262.828 161.738 262.828 160.34V25.6103C262.828 17.9181 267.461 10.9858 274.561 8.05413Z" fill="#FEEEB5"/>
<path d="M229.053 48.8764L266.344 14.1277C267.666 12.8964 269.813 13.9088 269.704 15.7117L266.319 71.6487C266.227 73.1629 264.549 74.0279 263.263 73.2239L229.356 52.0357C228.241 51.3386 228.091 49.7731 229.053 48.8764Z" fill="#FEEEB5"/>
<path d="M414.807 48.4453L375.443 12.9296C374.112 11.7288 371.995 12.7503 372.107 14.5393L375.681 71.7109C375.774 73.2106 377.427 74.0752 378.712 73.2973L414.503 51.6414C415.65 50.9473 415.803 49.3434 414.807 48.4453Z" fill="#FEEEB5"/>
<path d="M352.405 130.772H366.925" stroke="black" stroke-width="4" stroke-linecap="round"/>
<path d="M359.665 123.512V138.032" stroke="black" stroke-width="4" stroke-linecap="round"/>
<mask id="path-29-inside-6_191_498" fill="white">
<rect x="280" y="262" width="19" height="10" rx="2"/>
</mask>
<rect x="280" y="262" width="19" height="10" rx="2" fill="white" stroke="black" stroke-width="8" mask="url(#path-29-inside-6_191_498)"/>
<path d="M290 272V284" stroke="black" stroke-width="4" stroke-linecap="round"/>
<path d="M343 284V159" stroke="black" stroke-width="4" stroke-linecap="round"/>
<path d="M144 209C144 204.029 148.029 200 153 200V294H144V209Z" fill="#D9D9D9"/>
<rect x="144" y="304" width="238" height="11" fill="#EAEAEA"/>
<path d="M134 208V310H195.957V252.304C195.957 242.363 204.015 234.304 213.957 234.304H261.195C261.903 234.304 262.559 234.679 262.919 235.29L276.51 258.386C276.869 258.996 277.525 259.371 278.234 259.371H306.401C307.074 259.371 307.701 259.033 308.071 258.472L323.67 234.805C323.885 234.479 324 234.096 324 233.705V192C324 190.895 323.105 190 322 190H152C142.059 190 134 198.059 134 208Z" fill="#EAEAEA"/>
<rect x="144" y="297" width="236" height="16" stroke="black" stroke-width="4"/>
<circle cx="171.5" cy="264.5" r="16.5" fill="#CDCDCD"/>
<circle cx="170.5" cy="263.5" r="13.5" fill="#075056" stroke="black" stroke-width="4"/>
<path d="M167 224V208.5" stroke="white" stroke-width="4" stroke-linecap="round"/>
<path d="M199 209.5H308" stroke="white" stroke-width="4" stroke-linecap="round"/>
<mask id="path-40-inside-7_191_498" fill="white">
<rect x="134" y="112" width="108" height="72" rx="2"/>
</mask>
<rect x="134" y="112" width="108" height="72" rx="2" stroke="black" stroke-width="8" mask="url(#path-40-inside-7_191_498)"/>
<path d="M136 144H240" stroke="black" stroke-width="4"/>
<path d="M155 154V145H169V154C169 157.866 165.866 161 162 161C158.134 161 155 157.866 155 154Z" fill="white" stroke="black" stroke-width="4"/>
<path d="M207 154V145H221V154C221 157.866 217.866 161 214 161C210.134 161 207 157.866 207 154Z" fill="white" stroke="black" stroke-width="4"/>
<mask id="path-44-inside-8_191_498" fill="white">
<rect x="164" y="99" width="47" height="16" rx="2"/>
</mask>
<rect x="164" y="99" width="47" height="16" rx="2" stroke="black" stroke-width="8" mask="url(#path-44-inside-8_191_498)"/>
<path d="M144 142C144 143.105 144.895 144 146 144C147.105 144 148 143.105 148 142L144 142ZM228 142C228 143.105 228.895 144 230 144C231.105 144 232 143.105 232 142L228 142ZM148 137.75C148 136.645 147.105 135.75 146 135.75C144.895 135.75 144 136.645 144 137.75L148 137.75ZM144 129.25C144 130.355 144.895 131.25 146 131.25C147.105 131.25 148 130.355 148 129.25L144 129.25ZM147.999 125.001C148.422 123.98 147.938 122.81 146.918 122.387C145.898 121.964 144.727 122.448 144.304 123.468L147.999 125.001ZM146.468 121.304C145.448 121.727 144.964 122.898 145.387 123.918C145.81 124.938 146.98 125.422 148.001 124.999L146.468 121.304ZM153 125C154.105 125 155 124.105 155 123C155 121.895 154.105 121 153 121L153 125ZM163 121C161.895 121 161 121.895 161 123C161 124.105 161.895 125 163 125L163 121ZM173 125C174.105 125 175 124.105 175 123C175 121.895 174.105 121 173 121L173 125ZM183 121C181.895 121 181 121.895 181 123C181 124.105 181.895 125 183 125L183 121ZM193 125C194.105 125 195 124.105 195 123C195 121.895 194.105 121 193 121L193 125ZM203 121C201.895 121 201 121.895 201 123C201 124.105 201.895 125 203 125L203 121ZM213 125C214.105 125 215 124.105 215 123C215 121.895 214.105 121 213 121L213 125ZM223 121C221.895 121 221 121.895 221 123C221 124.105 221.895 125 223 125L223 121ZM227.999 124.999C229.02 125.422 230.19 124.938 230.613 123.918C231.036 122.898 230.552 121.727 229.532 121.304L227.999 124.999ZM231.696 123.468C231.273 122.448 230.102 121.964 229.082 122.387C228.062 122.81 227.578 123.98 228.001 125.001L231.696 123.468ZM228 129.25C228 130.355 228.895 131.25 230 131.25C231.105 131.25 232 130.355 232 129.25L228 129.25ZM232 137.75C232 136.645 231.105 135.75 230 135.75C228.895 135.75 228 136.645 228 137.75L232 137.75ZM148 142L148 137.75L144 137.75L144 142L148 142ZM148 129.25L148 125L144 125L144 129.25L148 129.25ZM148 125L147.999 125.001L144.304 123.468C144.108 123.943 144 124.461 144 125L148 125ZM148.001 124.999L148 125L148 121C147.461 121 146.943 121.108 146.468 121.304L148.001 124.999ZM148 125L153 125L153 121L148 121L148 125ZM163 125L173 125L173 121L163 121L163 125ZM183 125L193 125L193 121L183 121L183 125ZM203 125L213 125L213 121L203 121L203 125ZM223 125L228 125L228 121L223 121L223 125ZM228 125L227.999 124.999L229.532 121.304C229.057 121.108 228.539 121 228 121L228 125ZM228.001 125.001L228 125L232 125C232 124.461 231.892 123.943 231.696 123.468L228.001 125.001ZM228 125L228 129.25L232 129.25L232 125L228 125ZM228 137.75L228 142L232 142L232 137.75L228 137.75Z" fill="black"/>
<rect x="317" y="283" width="51" height="14" fill="#D8AB0F" stroke="black" stroke-width="4"/>
<rect x="319" y="285" width="32" height="10" fill="#FDC609"/>
<path d="M307 67V147.5" stroke="black" stroke-width="4" stroke-linecap="round" stroke-dasharray="9 9"/>
<path d="M301.308 27.9067L318.28 20.946C319.008 20.6473 319.844 20.8102 320.434 21.3312C334.645 33.8783 354.678 31.6801 363.363 21.6751C363.964 20.982 364.933 20.6981 365.783 21.0444L382.659 27.9191C388.307 30.22 392 35.7117 392 41.8107V156.455C392 157.56 391.105 158.455 390 158.455H294C292.895 158.455 292 157.56 292 156.455V41.7848C292 35.6989 295.677 30.2161 301.308 27.9067Z" stroke="black" stroke-width="4" stroke-linecap="round"/>
<path d="M295 31.4552L254.998 67.5463C254.003 68.4444 254.156 70.0483 255.303 70.7424L291.187 92.4552" stroke="black" stroke-width="4" stroke-linecap="round"/>
<path d="M386 30.4552L426.069 67.8493C427.038 68.7537 426.876 70.3335 425.742 71.0212L392 91.5" stroke="black" stroke-width="4" stroke-linecap="round"/>
<path d="M317.906 22.3409C317.128 24.7319 317 25.5156 317 28.1702C317 41.5824 327.745 52.4552 341 52.4552C354.255 52.4552 365 41.5824 365 28.1702C365 25.5156 364.419 23.8462 363.642 21.4552" stroke="black" stroke-width="4"/>
<path d="M144 211V295H201.065V250.799C201.065 245.277 205.542 240.799 211.065 240.799H261.077C261.778 240.799 262.428 241.166 262.79 241.766L275.21 262.351C275.572 262.951 276.222 263.318 276.923 263.318H302.72C303.385 263.318 304.005 262.988 304.377 262.437L318.657 241.307C318.881 240.976 319 240.586 319 240.187V203C319 201.895 318.105 201 317 201H154C148.477 201 144 205.477 144 211Z" stroke="black" stroke-width="4" stroke-linecap="round"/>
<path d="M164.192 267C163.501 263.537 164.296 256.691 173 257.011" stroke="#D3EBEC" stroke-width="4" stroke-linecap="round"/>
<path d="M160 224V202H182V224C182 227.314 179.314 230 176 230H166C162.686 230 160 227.314 160 224Z" fill="#075056" stroke="black" stroke-width="4"/>
<path d="M165 224.5V207" stroke="#D3EBEC" stroke-width="4" stroke-linecap="round"/>
</svg>
