<svg width="438" height="336" viewBox="0 0 438 336" fill="none" xmlns="http://www.w3.org/2000/svg">
<mask id="mask0_191_412" style="mask-type:alpha" maskUnits="userSpaceOnUse" x="265" y="159" width="122" height="170">
<path fill-rule="evenodd" clip-rule="evenodd" d="M274.382 159.058C269.593 159.588 265.868 163.648 265.868 168.579C265.868 173.509 269.593 177.569 274.382 178.099V233.558C269.593 234.088 265.868 238.148 265.868 243.078C265.868 248.009 269.593 252.069 274.382 252.599V309.123C269.593 309.652 265.868 313.712 265.868 318.643C265.868 323.573 269.593 327.633 274.382 328.163V328.221H377.618V328.163C382.407 327.633 386.132 323.573 386.132 318.643C386.132 313.712 382.407 309.652 377.618 309.123V252.599C382.407 252.069 386.132 248.009 386.132 243.078C386.132 238.148 382.407 234.088 377.618 233.558V178.099C382.407 177.569 386.132 173.509 386.132 168.579C386.132 163.648 382.407 159.588 377.618 159.058V159H376.554H275.446H274.382V159.058Z" fill="#EAEAEA"/>
</mask>
<g mask="url(#mask0_191_412)">
<path fill-rule="evenodd" clip-rule="evenodd" d="M274.382 159.058C269.593 159.588 265.868 163.648 265.868 168.579C265.868 173.509 269.593 177.569 274.382 178.099V233.558C269.593 234.088 265.868 238.148 265.868 243.078C265.868 248.009 269.593 252.069 274.382 252.599V309.123C269.593 309.652 265.868 313.712 265.868 318.643C265.868 323.573 269.593 327.633 274.382 328.163V328.221H377.618V328.163C382.407 327.633 386.132 323.573 386.132 318.643C386.132 313.712 382.407 309.652 377.618 309.123V252.599C382.407 252.069 386.132 248.009 386.132 243.078C386.132 238.148 382.407 234.088 377.618 233.558V178.099C382.407 177.569 386.132 173.509 386.132 168.579C386.132 163.648 382.407 159.588 377.618 159.058V159H376.554H275.446H274.382V159.058Z" fill="#EAEAEA"/>
</g>
<path fill-rule="evenodd" clip-rule="evenodd" d="M79.5826 237H41.6609V249.383H47.0783V262.234C38.7598 266.956 33.1479 275.895 33.1479 286.143V324.47C33.1479 325.315 33.8331 326 34.6782 326H86.5655C87.4107 326 88.0958 325.315 88.0958 324.47V286.143C88.0958 275.895 82.4839 266.956 74.1653 262.234V249.383L79.5826 249.383V237Z" fill="#D3EBEC"/>
<path d="M2 326H81M436 326H420M412.5 326H273.5" stroke="black" stroke-width="4" stroke-linecap="round"/>
<mask id="path-5-inside-1_191_412" fill="white">
<path fill-rule="evenodd" clip-rule="evenodd" d="M49.8957 235C48.7911 235 47.8957 235.895 47.8957 237V245.939C47.8957 247.044 48.7911 247.939 49.8957 247.939H53.5565V261.368C44.8641 266.303 39 275.643 39 286.352V326.401C39 327.284 39.7159 328 40.599 328H94.8184C95.7015 328 96.4174 327.284 96.4174 326.401V286.352C96.4174 275.643 90.5533 266.303 81.8609 261.368V247.939H87.5217V235H49.8957Z"/>
</mask>
<path d="M53.5565 247.939H57.5565V243.939H53.5565V247.939ZM53.5565 261.368L55.5312 264.847L57.5565 263.697V261.368H53.5565ZM81.8609 261.368H77.8609V263.697L79.8862 264.847L81.8609 261.368ZM81.8609 247.939V243.939H77.8609V247.939H81.8609ZM87.5217 247.939V251.939H91.5217V247.939H87.5217ZM87.5217 235H91.5217V231H87.5217V235ZM51.8957 237C51.8957 238.105 51.0002 239 49.8957 239V231C46.5819 231 43.8957 233.686 43.8957 237H51.8957ZM51.8957 245.939V237H43.8957V245.939H51.8957ZM49.8957 243.939C51.0002 243.939 51.8957 244.835 51.8957 245.939H43.8957C43.8957 249.253 46.5819 251.939 49.8957 251.939V243.939ZM53.5565 243.939H49.8957V251.939H53.5565V243.939ZM49.5565 247.939V261.368H57.5565V247.939H49.5565ZM51.5818 257.89C41.6887 263.506 35 274.145 35 286.352H43C43 277.14 48.0395 269.1 55.5312 264.847L51.5818 257.89ZM35 286.352V326.401H43V286.352H35ZM35 326.401C35 329.493 37.5068 332 40.599 332V324C41.9251 324 43 325.075 43 326.401H35ZM40.599 332H94.8184V324H40.599V332ZM94.8184 332C97.9106 332 100.417 329.493 100.417 326.401H92.4174C92.4174 325.075 93.4923 324 94.8184 324V332ZM100.417 326.401V286.352H92.4174V326.401H100.417ZM100.417 286.352C100.417 274.145 93.7287 263.506 83.8356 257.89L79.8862 264.847C87.3779 269.1 92.4174 277.14 92.4174 286.352H100.417ZM85.8609 261.368V247.939H77.8609V261.368H85.8609ZM87.5217 243.939H81.8609V251.939H87.5217V243.939ZM83.5217 235V247.939H91.5217V235H83.5217ZM49.8957 239H87.5217V231H49.8957V239Z" fill="black" mask="url(#path-5-inside-1_191_412)"/>
<circle cx="57" cy="178" r="13.1361" transform="rotate(-17.5753 57 178)" fill="#D3EBEC" stroke="black" stroke-width="4"/>
<path d="M69.2177 173.475L44.4054 181.335C43.082 174.211 46.8324 167.441 53.0334 165.477C59.2345 163.513 66.1983 166.889 69.2177 173.475Z" fill="#F8FEFF" stroke="black" stroke-width="4"/>
<path d="M134 309.8V231.252C134 219.52 124.668 209.916 112.941 209.579C112.689 209.572 112.488 209.366 112.488 209.113V189C112.488 187.895 111.593 187 110.488 187H93.5952C92.4907 187 91.5952 187.895 91.5952 189V209.091C91.5952 209.355 91.3843 209.572 91.1195 209.579C78.8066 209.916 69 219.995 69 232.312V308.495C69 322.2 82.2157 332.028 95.3415 328.083L95.7908 327.948C100.115 326.649 104.731 326.686 109.033 328.055C121.389 331.987 134 322.766 134 309.8Z" fill="#FEEEB5"/>
<rect x="82" y="239" width="62" height="31" fill="#D8AB0F"/>
<rect x="78" y="239" width="53" height="31" fill="#FDC609"/>
<path d="M81 270H144" stroke="black" stroke-width="4" stroke-linecap="round"/>
<path d="M145 223.949V307.186C145 319.599 132.929 328.428 121.099 324.668C116.15 323.095 110.842 323.052 105.869 324.545L105.392 324.688C92.7377 328.487 80 319.012 80 305.8V225.075C80 213.082 89.5477 203.27 101.535 202.943C102.899 202.905 103.986 201.789 103.986 200.424L103.986 179L122.164 179V200.449C122.164 201.799 123.238 202.904 124.588 202.942C135.955 203.269 145 212.578 145 223.949Z" stroke="black" stroke-width="4"/>
<mask id="mask1_191_412" style="mask-type:alpha" maskUnits="userSpaceOnUse" x="258" y="164" width="116" height="164">
<mask id="path-14-inside-2_191_412" fill="white">
<path fill-rule="evenodd" clip-rule="evenodd" d="M365.788 164.779H266.212V164.835C261.593 165.346 258 169.262 258 174.018C258 178.773 261.593 182.69 266.212 183.2V236.694C261.593 237.204 258 241.121 258 245.876C258 250.632 261.593 254.548 266.212 255.059V309.579C261.593 310.089 258 314.006 258 318.761C258 323.517 261.593 327.433 266.212 327.944V328L267.239 328H364.761L365.788 328V327.944C370.407 327.433 374 323.517 374 318.761C374 314.006 370.407 310.089 365.788 309.579V255.059C370.407 254.548 374 250.632 374 245.876C374 241.121 370.407 237.204 365.788 236.694V183.2C370.407 182.69 374 178.773 374 174.018C374 169.262 370.407 165.346 365.788 164.835V164.779Z"/>
</mask>
<path fill-rule="evenodd" clip-rule="evenodd" d="M365.788 164.779H266.212V164.835C261.593 165.346 258 169.262 258 174.018C258 178.773 261.593 182.69 266.212 183.2V236.694C261.593 237.204 258 241.121 258 245.876C258 250.632 261.593 254.548 266.212 255.059V309.579C261.593 310.089 258 314.006 258 318.761C258 323.517 261.593 327.433 266.212 327.944V328L267.239 328H364.761L365.788 328V327.944C370.407 327.433 374 323.517 374 318.761C374 314.006 370.407 310.089 365.788 309.579V255.059C370.407 254.548 374 250.632 374 245.876C374 241.121 370.407 237.204 365.788 236.694V183.2C370.407 182.69 374 178.773 374 174.018C374 169.262 370.407 165.346 365.788 164.835V164.779Z" fill="#EAEAEA"/>
<path d="M266.212 164.779V160.779H262.212V164.779H266.212ZM365.788 164.779H369.788V160.779H365.788V164.779ZM266.212 164.835L266.652 168.811L270.212 168.417V164.835H266.212ZM266.212 183.2H270.212V179.618L266.652 179.225L266.212 183.2ZM266.212 236.694L266.652 240.669L270.212 240.276V236.694H266.212ZM266.212 255.059H270.212V251.476L266.652 251.083L266.212 255.059ZM266.212 309.579L266.652 313.554L270.212 313.161V309.579H266.212ZM266.212 327.944H270.212V324.361L266.652 323.968L266.212 327.944ZM266.212 328H262.212V332L266.212 332L266.212 328ZM267.239 328V324H267.239L267.239 328ZM364.761 328L364.761 324H364.761V328ZM365.788 328L365.788 332L369.788 332V328H365.788ZM365.788 327.944L365.348 323.968L361.788 324.361V327.944H365.788ZM365.788 309.579H361.788V313.161L365.348 313.554L365.788 309.579ZM365.788 255.059L365.348 251.083L361.788 251.476V255.059H365.788ZM365.788 236.694H361.788V240.276L365.348 240.669L365.788 236.694ZM365.788 183.2L365.348 179.225L361.788 179.618V183.2H365.788ZM365.788 164.835H361.788V168.417L365.348 168.811L365.788 164.835ZM266.212 168.779H365.788V160.779H266.212V168.779ZM270.212 164.835V164.779H262.212V164.835H270.212ZM262 174.018C262 171.324 264.037 169.1 266.652 168.811L265.773 160.859C259.149 161.592 254 167.201 254 174.018H262ZM266.652 179.225C264.037 178.935 262 176.712 262 174.018H254C254 180.835 259.149 186.444 265.773 187.176L266.652 179.225ZM270.212 236.694V183.2H262.212V236.694H270.212ZM262 245.876C262 243.182 264.037 240.958 266.652 240.669L265.773 232.718C259.149 233.45 254 239.059 254 245.876H262ZM266.652 251.083C264.037 250.794 262 248.57 262 245.876H254C254 252.693 259.149 258.302 265.773 259.034L266.652 251.083ZM270.212 309.579V255.059H262.212V309.579H270.212ZM262 318.761C262 316.067 264.037 313.843 266.652 313.554L265.773 305.603C259.149 306.335 254 311.944 254 318.761H262ZM266.652 323.968C264.037 323.679 262 321.455 262 318.761H254C254 325.578 259.149 331.187 265.773 331.919L266.652 323.968ZM270.212 328V327.944H262.212V328H270.212ZM267.239 324L266.212 324L266.212 332L267.239 332L267.239 324ZM364.761 324H267.239V332H364.761V324ZM365.788 324L364.761 324L364.761 332L365.788 332L365.788 324ZM361.788 327.944V328H369.788V327.944H361.788ZM370 318.761C370 321.455 367.963 323.679 365.348 323.968L366.227 331.919C372.851 331.187 378 325.578 378 318.761H370ZM365.348 313.554C367.963 313.843 370 316.067 370 318.761H378C378 311.944 372.851 306.335 366.227 305.603L365.348 313.554ZM361.788 255.059V309.579H369.788V255.059H361.788ZM370 245.876C370 248.57 367.963 250.794 365.348 251.083L366.227 259.034C372.851 258.302 378 252.693 378 245.876H370ZM365.348 240.669C367.963 240.958 370 243.182 370 245.876H378C378 239.059 372.851 233.45 366.227 232.718L365.348 240.669ZM361.788 183.2V236.694H369.788V183.2H361.788ZM370 174.018C370 176.712 367.963 178.935 365.348 179.225L366.227 187.176C372.851 186.444 378 180.835 378 174.018H370ZM365.348 168.811C367.963 169.1 370 171.324 370 174.018H378C378 167.201 372.851 161.592 366.227 160.859L365.348 168.811ZM361.788 164.779V164.835H369.788V164.779H361.788Z" fill="black" mask="url(#path-14-inside-2_191_412)"/>
</mask>
<g mask="url(#mask1_191_412)">
<mask id="path-16-inside-3_191_412" fill="white">
<path fill-rule="evenodd" clip-rule="evenodd" d="M365.788 164.779H266.212V164.835C261.593 165.346 258 169.262 258 174.018C258 178.773 261.593 182.69 266.212 183.2V236.694C261.593 237.204 258 241.121 258 245.876C258 250.632 261.593 254.548 266.212 255.059V309.579C261.593 310.089 258 314.006 258 318.761C258 323.517 261.593 327.433 266.212 327.944V328L267.239 328H364.761L365.788 328V327.944C370.407 327.433 374 323.517 374 318.761C374 314.006 370.407 310.089 365.788 309.579V255.059C370.407 254.548 374 250.632 374 245.876C374 241.121 370.407 237.204 365.788 236.694V183.2C370.407 182.69 374 178.773 374 174.018C374 169.262 370.407 165.346 365.788 164.835V164.779Z"/>
</mask>
<path fill-rule="evenodd" clip-rule="evenodd" d="M365.788 164.779H266.212V164.835C261.593 165.346 258 169.262 258 174.018C258 178.773 261.593 182.69 266.212 183.2V236.694C261.593 237.204 258 241.121 258 245.876C258 250.632 261.593 254.548 266.212 255.059V309.579C261.593 310.089 258 314.006 258 318.761C258 323.517 261.593 327.433 266.212 327.944V328L267.239 328H364.761L365.788 328V327.944C370.407 327.433 374 323.517 374 318.761C374 314.006 370.407 310.089 365.788 309.579V255.059C370.407 254.548 374 250.632 374 245.876C374 241.121 370.407 237.204 365.788 236.694V183.2C370.407 182.69 374 178.773 374 174.018C374 169.262 370.407 165.346 365.788 164.835V164.779Z" fill="#EAEAEA"/>
<path d="M266.212 164.779V160.779H262.212V164.779H266.212ZM365.788 164.779H369.788V160.779H365.788V164.779ZM266.212 164.835L266.652 168.811L270.212 168.417V164.835H266.212ZM266.212 183.2H270.212V179.618L266.652 179.225L266.212 183.2ZM266.212 236.694L266.652 240.669L270.212 240.276V236.694H266.212ZM266.212 255.059H270.212V251.476L266.652 251.083L266.212 255.059ZM266.212 309.579L266.652 313.554L270.212 313.161V309.579H266.212ZM266.212 327.944H270.212V324.361L266.652 323.968L266.212 327.944ZM266.212 328H262.212V332L266.212 332L266.212 328ZM267.239 328V324H267.239L267.239 328ZM364.761 328L364.761 324H364.761V328ZM365.788 328L365.788 332L369.788 332V328H365.788ZM365.788 327.944L365.348 323.968L361.788 324.361V327.944H365.788ZM365.788 309.579H361.788V313.161L365.348 313.554L365.788 309.579ZM365.788 255.059L365.348 251.083L361.788 251.476V255.059H365.788ZM365.788 236.694H361.788V240.276L365.348 240.669L365.788 236.694ZM365.788 183.2L365.348 179.225L361.788 179.618V183.2H365.788ZM365.788 164.835H361.788V168.417L365.348 168.811L365.788 164.835ZM266.212 168.779H365.788V160.779H266.212V168.779ZM270.212 164.835V164.779H262.212V164.835H270.212ZM262 174.018C262 171.324 264.037 169.1 266.652 168.811L265.773 160.859C259.149 161.592 254 167.201 254 174.018H262ZM266.652 179.225C264.037 178.935 262 176.712 262 174.018H254C254 180.835 259.149 186.444 265.773 187.176L266.652 179.225ZM270.212 236.694V183.2H262.212V236.694H270.212ZM262 245.876C262 243.182 264.037 240.958 266.652 240.669L265.773 232.718C259.149 233.45 254 239.059 254 245.876H262ZM266.652 251.083C264.037 250.794 262 248.57 262 245.876H254C254 252.693 259.149 258.302 265.773 259.034L266.652 251.083ZM270.212 309.579V255.059H262.212V309.579H270.212ZM262 318.761C262 316.067 264.037 313.843 266.652 313.554L265.773 305.603C259.149 306.335 254 311.944 254 318.761H262ZM266.652 323.968C264.037 323.679 262 321.455 262 318.761H254C254 325.578 259.149 331.187 265.773 331.919L266.652 323.968ZM270.212 328V327.944H262.212V328H270.212ZM267.239 324L266.212 324L266.212 332L267.239 332L267.239 324ZM364.761 324H267.239V332H364.761V324ZM365.788 324L364.761 324L364.761 332L365.788 332L365.788 324ZM361.788 327.944V328H369.788V327.944H361.788ZM370 318.761C370 321.455 367.963 323.679 365.348 323.968L366.227 331.919C372.851 331.187 378 325.578 378 318.761H370ZM365.348 313.554C367.963 313.843 370 316.067 370 318.761H378C378 311.944 372.851 306.335 366.227 305.603L365.348 313.554ZM361.788 255.059V309.579H369.788V255.059H361.788ZM370 245.876C370 248.57 367.963 250.794 365.348 251.083L366.227 259.034C372.851 258.302 378 252.693 378 245.876H370ZM365.348 240.669C367.963 240.958 370 243.182 370 245.876H378C378 239.059 372.851 233.45 366.227 232.718L365.348 240.669ZM361.788 183.2V236.694H369.788V183.2H361.788ZM370 174.018C370 176.712 367.963 178.935 365.348 179.225L366.227 187.176C372.851 186.444 378 180.835 378 174.018H370ZM365.348 168.811C367.963 169.1 370 171.324 370 174.018H378C378 167.201 372.851 161.592 366.227 160.859L365.348 168.811ZM361.788 164.779V164.835H369.788V164.779H361.788Z" fill="black" mask="url(#path-16-inside-3_191_412)"/>
<path d="M316.513 233.473L328.445 254.285C331.26 259.195 329.93 265.437 325.357 268.773C320.087 272.617 312.939 272.617 307.67 268.773C303.097 265.437 301.766 259.195 304.581 254.285L316.513 233.473Z" fill="#075056" stroke="black" stroke-width="4"/>
<path d="M337.044 168.885H361.681V323.894H337.044V168.885Z" fill="#CDCDCD"/>
<rect x="337" y="168" width="33" height="12" rx="5" fill="#CDCDCD"/>
<rect x="337" y="238" width="33" height="15" rx="5" fill="#CDCDCD"/>
<rect x="337" y="311" width="33" height="13" rx="5" fill="#CDCDCD"/>
<path d="M282 240.5C283.933 240.5 285.5 238.933 285.5 237C285.5 235.067 283.933 233.5 282 233.5V240.5ZM263 240.5H282V233.5H263V240.5Z" fill="#CDCDCD"/>
<path d="M296 186.5C297.933 186.5 299.5 184.933 299.5 183C299.5 181.067 297.933 179.5 296 179.5V186.5ZM263 186.5H296V179.5H263V186.5Z" fill="#CDCDCD"/>
<path d="M302 313.5C303.933 313.5 305.5 311.933 305.5 310C305.5 308.067 303.933 306.5 302 306.5V313.5ZM263 313.5H302V306.5H263V313.5Z" fill="#CDCDCD"/>
<path d="M278 192L278 227" stroke="white" stroke-width="5" stroke-linecap="round"/>
<path d="M277.504 264.354V277.699" stroke="white" stroke-width="5" stroke-linecap="round"/>
<path d="M270 174H275" stroke="white" stroke-width="5" stroke-linecap="round"/>
<path d="M270.319 318.761H277.504" stroke="white" stroke-width="4" stroke-linecap="round"/>
<path d="M285 174.018H312.717" stroke="white" stroke-width="5" stroke-linecap="round"/>
<path d="M312.407 252.035C309.841 254.089 305.735 261.274 312.407 265.381" stroke="#D3EBEC" stroke-width="4" stroke-linecap="round"/>
</g>
<mask id="path-32-inside-4_191_412" fill="white">
<path fill-rule="evenodd" clip-rule="evenodd" d="M365.788 164.779H266.212V164.835C261.593 165.346 258 169.262 258 174.018C258 178.773 261.593 182.69 266.212 183.2V236.694C261.593 237.204 258 241.121 258 245.876C258 250.632 261.593 254.548 266.212 255.059V309.579C261.593 310.089 258 314.006 258 318.761C258 323.517 261.593 327.433 266.212 327.944V328L267.239 328H364.761L365.788 328V327.944C370.407 327.433 374 323.517 374 318.761C374 314.006 370.407 310.089 365.788 309.579V255.059C370.407 254.548 374 250.632 374 245.876C374 241.121 370.407 237.204 365.788 236.694V183.2C370.407 182.69 374 178.773 374 174.018C374 169.262 370.407 165.346 365.788 164.835V164.779Z"/>
</mask>
<path d="M266.212 164.779V160.779H262.212V164.779H266.212ZM365.788 164.779H369.788V160.779H365.788V164.779ZM266.212 164.835L266.652 168.811L270.212 168.417V164.835H266.212ZM266.212 183.2H270.212V179.618L266.652 179.225L266.212 183.2ZM266.212 236.694L266.652 240.669L270.212 240.276V236.694H266.212ZM266.212 255.059H270.212V251.476L266.652 251.083L266.212 255.059ZM266.212 309.579L266.652 313.554L270.212 313.161V309.579H266.212ZM266.212 327.944H270.212V324.361L266.652 323.968L266.212 327.944ZM266.212 328H262.212V332L266.212 332L266.212 328ZM267.239 328V324H267.239L267.239 328ZM364.761 328L364.761 324H364.761V328ZM365.788 328L365.788 332L369.788 332V328H365.788ZM365.788 327.944L365.348 323.968L361.788 324.361V327.944H365.788ZM365.788 309.579H361.788V313.161L365.348 313.554L365.788 309.579ZM365.788 255.059L365.348 251.083L361.788 251.476V255.059H365.788ZM365.788 236.694H361.788V240.276L365.348 240.669L365.788 236.694ZM365.788 183.2L365.348 179.225L361.788 179.618V183.2H365.788ZM365.788 164.835H361.788V168.417L365.348 168.811L365.788 164.835ZM266.212 168.779H365.788V160.779H266.212V168.779ZM270.212 164.835V164.779H262.212V164.835H270.212ZM262 174.018C262 171.324 264.037 169.1 266.652 168.811L265.773 160.859C259.149 161.592 254 167.201 254 174.018H262ZM266.652 179.225C264.037 178.935 262 176.712 262 174.018H254C254 180.835 259.149 186.444 265.773 187.176L266.652 179.225ZM270.212 236.694V183.2H262.212V236.694H270.212ZM262 245.876C262 243.182 264.037 240.958 266.652 240.669L265.773 232.718C259.149 233.45 254 239.059 254 245.876H262ZM266.652 251.083C264.037 250.794 262 248.57 262 245.876H254C254 252.693 259.149 258.302 265.773 259.034L266.652 251.083ZM270.212 309.579V255.059H262.212V309.579H270.212ZM262 318.761C262 316.067 264.037 313.843 266.652 313.554L265.773 305.603C259.149 306.335 254 311.944 254 318.761H262ZM266.652 323.968C264.037 323.679 262 321.455 262 318.761H254C254 325.578 259.149 331.187 265.773 331.919L266.652 323.968ZM270.212 328V327.944H262.212V328H270.212ZM267.239 324L266.212 324L266.212 332L267.239 332L267.239 324ZM364.761 324H267.239V332H364.761V324ZM365.788 324L364.761 324L364.761 332L365.788 332L365.788 324ZM361.788 327.944V328H369.788V327.944H361.788ZM370 318.761C370 321.455 367.963 323.679 365.348 323.968L366.227 331.919C372.851 331.187 378 325.578 378 318.761H370ZM365.348 313.554C367.963 313.843 370 316.067 370 318.761H378C378 311.944 372.851 306.335 366.227 305.603L365.348 313.554ZM361.788 255.059V309.579H369.788V255.059H361.788ZM370 245.876C370 248.57 367.963 250.794 365.348 251.083L366.227 259.034C372.851 258.302 378 252.693 378 245.876H370ZM365.348 240.669C367.963 240.958 370 243.182 370 245.876H378C378 239.059 372.851 233.45 366.227 232.718L365.348 240.669ZM361.788 183.2V236.694H369.788V183.2H361.788ZM370 174.018C370 176.712 367.963 178.935 365.348 179.225L366.227 187.176C372.851 186.444 378 180.835 378 174.018H370ZM365.348 168.811C367.963 169.1 370 171.324 370 174.018H378C378 167.201 372.851 161.592 366.227 160.859L365.348 168.811ZM361.788 164.779V164.835H369.788V164.779H361.788Z" fill="black" mask="url(#path-32-inside-4_191_412)"/>
<path d="M201 89.3928V64.622C201 57.4423 206.82 51.622 214 51.622H320C328.284 51.622 335 44.9062 335 36.622V26.3928" stroke="#FEEEB5" stroke-width="12" stroke-linecap="round"/>
<path d="M197 86V61.2291C197 54.0494 202.82 48.2291 210 48.2291H316C324.284 48.2291 331 41.5134 331 33.2291V23" stroke="black" stroke-width="4" stroke-linecap="round"/>
<path d="M277.664 310.384L234.844 224.936C231.792 218.846 225.564 215 218.752 215H184.248C177.436 215 171.208 218.846 168.156 224.936L125.336 310.384C119.671 321.688 127.89 335 140.534 335H262.466C275.11 335 283.329 321.688 277.664 310.384Z" fill="#D3EBEC"/>
<path d="M183.353 125.561L181.428 216.256C181.37 219.008 180.681 221.711 179.415 224.155L140.859 298.572C134.997 309.888 143.209 323.393 155.954 323.393H257.046C269.791 323.393 278.003 309.888 272.141 298.572L233.585 224.155C232.319 221.711 231.63 219.008 231.571 216.256L229.647 125.561M183.353 125.561C183.353 125.561 177.314 123.542 177.314 116.477C177.314 111.669 180.11 109.198 181.897 108.11C182.817 107.549 183.902 107.393 184.98 107.393H227.281C228.837 107.393 230.398 107.731 231.608 108.71C233.371 110.138 235.686 112.727 235.686 116.477C235.686 122.533 229.647 125.561 229.647 125.561M183.353 125.561H229.647" stroke="black" stroke-width="4"/>
<path d="M210 163.393H230" stroke="black" stroke-width="4" stroke-linecap="round"/>
<path d="M210 182.393H230" stroke="black" stroke-width="4" stroke-linecap="round"/>
<path d="M210 202.393H230" stroke="black" stroke-width="4" stroke-linecap="round"/>
<path d="M143.929 77.4288H165.48" stroke="black" stroke-width="4" stroke-linecap="round"/>
<path d="M154.705 66.6533V88.2044" stroke="black" stroke-width="4" stroke-linecap="round"/>
<path d="M47 291.776H62.5511" stroke="black" stroke-width="4" stroke-linecap="round"/>
<path d="M54.7756 284V299.551" stroke="black" stroke-width="4" stroke-linecap="round"/>
<path d="M359 8.82654H346.322" stroke="black" stroke-width="4" stroke-linecap="round" stroke-linejoin="round"/>
<path d="M352.661 2L352.661 14.6778" stroke="black" stroke-width="4" stroke-linecap="round" stroke-linejoin="round"/>
<path d="M157 314.393L155.805 312.56C151.903 306.578 151.488 298.968 154.716 292.597L173.056 256.393M185 231.893L176.895 247.893" stroke="white" stroke-width="6" stroke-linecap="round"/>
<path d="M99 189H126.5" stroke="black" stroke-width="4" stroke-linecap="round"/>
<path d="M80.5 238.5H143.5" stroke="black" stroke-width="4" stroke-linecap="round"/>
<rect x="105" y="181" width="16" height="6" fill="#075056"/>
<path d="M89 265V246.5" stroke="white" stroke-width="4" stroke-linecap="round"/>
<path d="M90.0558 230C89.6504 225.099 91.2718 214.838 101 213" stroke="black" stroke-width="4" stroke-linecap="round"/>
<circle cx="215.5" cy="284.5" r="10.5" fill="white" stroke="black" stroke-width="4"/>
<circle cx="240.5" cy="303.5" r="4.5" stroke="black" stroke-width="4"/>
<circle cx="242.5" cy="280.5" r="5.5" stroke="black" stroke-width="4"/>
<path d="M79.9227 119.42C75.9902 114.241 77.0007 106.855 82.1796 102.923C87.3585 98.9902 94.7447 100.001 98.6772 105.18L112.077 122.827C116.01 128.006 114.999 135.392 109.82 139.325C104.642 143.257 97.2553 142.247 93.3228 137.068L79.9227 119.42Z" fill="#D3EBEC" stroke="black" stroke-width="4"/>
<path d="M106.115 114.975L87.3602 129.215L79.9227 119.42C75.9902 114.241 77.0007 106.855 82.1796 102.923C87.3585 98.9902 94.7447 100.001 98.6772 105.18L106.115 114.975Z" fill="#FEEEB5" stroke="black" stroke-width="4"/>
</svg>
