<svg width="467" height="313" viewBox="0 0 467 313" fill="none" xmlns="http://www.w3.org/2000/svg">
<path d="M124.587 204.685C125.883 205.282 126.128 206.999 124.858 207.649C123.739 208.223 122.524 208.605 121.263 208.772C119.004 209.072 116.712 208.666 114.71 207.612C112.708 206.557 111.095 204.906 110.096 202.891C109.124 200.929 108.94 199.152 109.28 197.007C109.298 196.892 109.288 196.774 109.249 196.665C109.182 196.479 109.036 196.331 108.851 196.262L95.4762 191.227C94.4929 190.773 93.7361 189.948 93.3722 188.936C93.0082 187.924 93.067 186.806 93.5355 185.829C94.0041 184.853 94.844 184.097 95.8705 183.728C96.8971 183.359 98.0262 183.407 99.0094 183.862L110.347 190.154C111.167 190.61 112.182 190.417 112.9 189.812C114.216 188.701 115.784 187.907 117.477 187.504C119.695 186.977 122.019 187.147 124.122 187.991C126.225 188.836 128.002 190.312 129.206 192.214C129.885 193.287 130.362 194.465 130.622 195.692C130.914 197.067 129.458 197.958 128.183 197.366L122.652 194.8C122.05 194.52 121.348 194.558 120.78 194.9L118.598 196.211C117.907 196.626 117.533 197.415 117.649 198.212L118 200.644C118.097 201.314 118.527 201.89 119.142 202.174L124.587 204.685Z" fill="#FDC609" stroke="black" stroke-width="4" stroke-linecap="round" stroke-linejoin="round"/>
<mask id="path-2-inside-1_191_252" fill="white">
<rect width="19.0879" height="16.8227" rx="2" transform="matrix(-0.930909 -0.36525 -0.36525 0.930909 82.1138 172.246)"/>
</mask>
<rect width="19.0879" height="16.8227" rx="2" transform="matrix(-0.930909 -0.36525 -0.36525 0.930909 82.1138 172.246)" fill="#D9D9D9" stroke="black" stroke-width="8" mask="url(#path-2-inside-1_191_252)"/>
<path d="M448.967 252.465L456.491 252.001C457.394 251.945 458.223 252.503 458.51 253.361L462.459 265.14C462.876 266.387 461.998 267.691 460.685 267.772L449.953 268.435C448.85 268.503 447.902 267.664 447.833 266.562L447.094 254.585C447.026 253.482 447.864 252.533 448.967 252.465Z" fill="#C8D9DA"/>
<rect x="364" y="226" width="70" height="69" rx="2" fill="#075056"/>
<path d="M432 242L452.696 242L465 269.921V291.5H432L432 242Z" stroke="black" stroke-width="4"/>
<mask id="path-6-inside-2_191_252" fill="white">
<rect x="364" y="226" width="70" height="69" rx="2"/>
</mask>
<rect x="364" y="226" width="70" height="69" rx="2" stroke="black" stroke-width="8" mask="url(#path-6-inside-2_191_252)"/>
<path d="M155.7 238L139.7 247H155.7V238Z" fill="#C8D9DA"/>
<path d="M207.7 212.382V293H338.7V218.849H333.061V196H319.18L290.117 215.654V196H277.104L246.739 216.262V196H232.425L207.7 212.382Z" fill="white"/>
<path d="M179 209.919V302C179 303.657 180.343 305 182 305H330C331.657 305 333 303.657 333 302V218.002C333 216.345 331.657 215.002 330 215.002H329.371C327.714 215.002 326.371 213.659 326.371 212.002V194C326.371 192.343 325.028 191 323.371 191H310.889C310.342 191 309.806 191.15 309.337 191.432L280.439 208.895C278.44 210.104 275.887 208.664 275.887 206.328V194C275.887 192.343 274.544 191 272.887 191H261.416C260.875 191 260.344 191.146 259.879 191.423L229.43 209.579C227.431 210.772 224.894 209.331 224.894 207.003V194C224.894 192.343 223.551 191 221.894 191H208.888C208.35 191 207.822 191.145 207.359 191.419L180.472 207.337C179.559 207.878 179 208.859 179 209.919Z" fill="#D3EBEC"/>
<mask id="mask0_191_252" style="mask-type:alpha" maskUnits="userSpaceOnUse" x="296" y="244" width="41" height="41">
<circle cx="316.194" cy="264.293" r="20.0045" fill="#C8D9DA"/>
</mask>
<g mask="url(#mask0_191_252)">
<path d="M336.659 278.442C336.55 278.656 336.517 278.9 336.566 279.136L337.618 284.14C337.811 285.041 337.725 285.976 337.374 286.823C337.022 287.67 336.42 288.39 335.647 288.888L332.521 290.903C331.748 291.402 330.84 291.657 329.915 291.634C328.989 291.611 328.089 291.312 327.333 290.775L323.132 287.784C322.932 287.645 322.692 287.575 322.449 287.585L315.5 287.927C315.258 287.941 315.028 288.035 314.846 288.194L311.022 291.575C310.336 292.183 309.479 292.57 308.563 292.685C307.647 292.8 306.716 292.638 305.889 292.22L302.541 290.522C301.715 290.102 301.034 289.446 300.586 288.639C300.138 287.832 299.944 286.912 300.029 285.999L300.498 280.917C300.519 280.676 300.458 280.435 300.326 280.231L296.497 274.422C296.362 274.221 296.164 274.068 295.934 273.989L291.038 272.366C290.158 272.073 289.385 271.525 288.82 270.791C288.255 270.058 287.924 269.175 287.871 268.256L287.649 264.543C287.594 263.625 287.819 262.715 288.295 261.931C288.771 261.146 289.475 260.525 290.316 260.148L294.989 258.049C295.209 257.949 295.387 257.778 295.495 257.564L298.614 251.413C298.724 251.199 298.756 250.955 298.707 250.719L297.64 245.708C297.447 244.807 297.533 243.872 297.884 243.025C298.236 242.178 298.837 241.458 299.611 240.96L302.737 238.945C303.51 238.445 304.418 238.191 305.343 238.213C306.269 238.236 307.169 238.536 307.925 239.073L312.115 242.057C312.315 242.197 312.555 242.267 312.797 242.256L319.765 241.905C320.008 241.891 320.238 241.797 320.42 241.638L324.244 238.277C324.93 237.668 325.787 237.281 326.702 237.166C327.618 237.051 328.55 237.213 329.377 237.631L332.732 239.333C333.558 239.753 334.239 240.409 334.687 241.216C335.135 242.023 335.329 242.943 335.244 243.856L334.783 248.923C334.756 249.168 334.814 249.415 334.947 249.624L338.776 255.433C338.911 255.634 339.11 255.787 339.34 255.866L344.235 257.489C345.115 257.782 345.888 258.331 346.453 259.064C347.018 259.797 347.349 260.681 347.403 261.599L347.624 265.312C347.679 266.23 347.454 267.141 346.978 267.925C346.502 268.709 345.798 269.33 344.958 269.707L340.284 271.807C340.065 271.906 339.886 272.077 339.779 272.291L336.659 278.442Z" stroke="black" stroke-width="4"/>
</g>
<path d="M336.659 278.442C336.55 278.656 336.517 278.9 336.566 279.136L337.618 284.14C337.811 285.041 337.725 285.976 337.374 286.823C337.022 287.67 336.42 288.39 335.647 288.888L332.521 290.903C331.748 291.402 330.84 291.657 329.915 291.634C328.989 291.611 328.089 291.312 327.333 290.775L323.132 287.784C322.932 287.645 322.692 287.575 322.449 287.585L315.5 287.927C315.258 287.941 315.028 288.035 314.846 288.194L311.022 291.575C310.336 292.183 309.479 292.57 308.563 292.685C307.647 292.8 306.716 292.638 305.889 292.22L302.541 290.522C301.715 290.102 301.034 289.446 300.586 288.639C300.138 287.832 299.944 286.912 300.029 285.999L300.498 280.917C300.519 280.676 300.458 280.435 300.326 280.231L296.497 274.422C296.362 274.221 296.164 274.068 295.934 273.989L291.038 272.366C290.158 272.073 289.385 271.525 288.82 270.791C288.255 270.058 287.924 269.175 287.871 268.256L287.649 264.543C287.594 263.625 287.819 262.715 288.295 261.931C288.771 261.146 289.475 260.525 290.316 260.148L294.989 258.049C295.209 257.949 295.387 257.778 295.495 257.564L298.614 251.413C298.724 251.199 298.756 250.955 298.707 250.719L297.64 245.708C297.447 244.807 297.533 243.872 297.884 243.025C298.236 242.178 298.837 241.458 299.611 240.96L302.737 238.945C303.51 238.445 304.418 238.191 305.343 238.213C306.269 238.236 307.169 238.536 307.925 239.073L312.115 242.057C312.315 242.197 312.555 242.267 312.797 242.256L319.765 241.905C320.008 241.891 320.238 241.797 320.42 241.638L324.244 238.277C324.93 237.668 325.787 237.281 326.702 237.166C327.618 237.051 328.55 237.213 329.377 237.631L332.732 239.333C333.558 239.753 334.239 240.409 334.687 241.216C335.135 242.023 335.329 242.943 335.244 243.856L334.783 248.923C334.756 249.168 334.814 249.415 334.947 249.624L338.776 255.433C338.911 255.634 339.11 255.787 339.34 255.866L344.235 257.489C345.115 257.782 345.888 258.331 346.453 259.064C347.018 259.797 347.349 260.681 347.403 261.599L347.624 265.312C347.679 266.23 347.454 267.141 346.978 267.925C346.502 268.709 345.798 269.33 344.958 269.707L340.284 271.807C340.065 271.906 339.886 272.077 339.779 272.291L336.659 278.442Z" fill="white" stroke="black" stroke-width="4"/>
<path d="M164.531 304.489L152.97 283.779L163.735 283.779L176.225 304.489L164.531 304.489Z" fill="#075056" stroke="black" stroke-width="4"/>
<path d="M126.422 304.489L114.862 283.779L125.626 283.779L138.117 304.489L126.422 304.489Z" fill="#075056" stroke="black" stroke-width="4"/>
<path d="M219.867 174.765C218.515 176.278 216.029 175.05 216.41 173.057L218.757 160.792C218.938 159.846 218.419 158.906 217.523 158.554L205.677 153.911C204.38 153.403 203.987 151.756 204.915 150.717L226.306 126.76C227.658 125.246 230.144 126.475 229.763 128.468L227.416 140.732C227.235 141.678 227.754 142.618 228.65 142.97L240.496 147.613C241.793 148.122 242.186 149.768 241.258 150.807L219.867 174.765Z" fill="#FDC609" fill-opacity="0.3"/>
<path d="M224.359 169.238C222.974 170.693 220.549 169.427 220.951 167.459L223.429 155.316C223.626 154.347 223.087 153.38 222.159 153.039L209.778 148.488C208.428 147.992 208.028 146.274 209.02 145.232L231.613 121.508C232.998 120.054 235.422 121.319 235.021 123.287L232.543 135.43C232.345 136.399 232.885 137.366 233.812 137.707L246.193 142.258C247.544 142.754 247.944 144.472 246.951 145.514L224.359 169.238Z" stroke="black" stroke-width="4" stroke-linecap="round" stroke-linejoin="round"/>
<path d="M279.297 182.065C277.902 183.501 275.497 182.224 275.905 180.264L276.862 175.667C277.065 174.692 276.519 173.715 275.582 173.378L269.279 171.107C267.912 170.615 267.51 168.874 268.523 167.832L280.562 155.441C281.957 154.005 284.363 155.282 283.955 157.242L282.997 161.839C282.794 162.814 283.34 163.791 284.278 164.128L290.58 166.399C291.948 166.891 292.35 168.632 291.337 169.674L279.297 182.065Z" fill="#FDC609" fill-opacity="0.3"/>
<path d="M283.046 179.125C281.664 180.584 279.234 179.322 279.634 177.352L280.618 172.505C280.814 171.538 280.277 170.573 279.351 170.231L272.948 167.865C271.602 167.368 271.202 165.656 272.189 164.614L284.3 151.83C285.682 150.371 288.111 151.634 287.712 153.604L286.728 158.451C286.531 159.417 287.069 160.383 287.994 160.725L294.397 163.09C295.744 163.588 296.143 165.3 295.156 166.342L283.046 179.125Z" stroke="black" stroke-width="4" stroke-linecap="round" stroke-linejoin="round"/>
<rect x="208.7" y="295" width="175" height="10" fill="white" stroke="black" stroke-width="4"/>
<mask id="mask1_191_252" style="mask-type:alpha" maskUnits="userSpaceOnUse" x="333" y="96" width="47" height="190">
<path d="M335.45 283.158L344.035 98H367.668L377.361 283.158H335.45Z" fill="white" stroke="black" stroke-width="4"/>
</mask>
<g mask="url(#mask1_191_252)">
<path d="M344.035 98L367.668 98L377.361 283.158L335.45 283.158L344.035 98Z" fill="white" stroke="black" stroke-width="4"/>
<path d="M358.821 93.1062L386.86 91.5853L393.89 283.929L362.51 285.505L358.821 93.1062Z" fill="#CDCDCD"/>
<path d="M370.446 138.876H342.043L340.707 162.416H371.782L370.446 138.876Z" fill="#FDC609" stroke="black" stroke-width="4" stroke-linecap="round"/>
<path d="M388.282 137.338L360.005 140.306L360.651 163.881L391.59 160.635L388.282 137.338Z" fill="#D8AB0F"/>
<path d="M370.446 138.876H342.043L340.707 162.416H371.782L370.446 138.876Z" stroke="black" stroke-width="4" stroke-linecap="round"/>
<path d="M344.035 98L367.668 98L377.361 283.158L335.45 283.158L344.035 98Z" stroke="black" stroke-width="4"/>
</g>
<mask id="path-27-inside-3_191_252" fill="white">
<rect x="327.7" y="282" width="58" height="14" rx="2"/>
</mask>
<rect x="327.7" y="282" width="58" height="14" rx="2" fill="#FDC609" stroke="black" stroke-width="8" mask="url(#path-27-inside-3_191_252)"/>
<path d="M334.7 217V199C334.7 197.343 333.357 196 331.7 196H321.026C320.433 196 319.854 196.175 319.361 196.504L295.7 212.281" stroke="black" stroke-width="4" stroke-linecap="round"/>
<path d="M349.7 84V79.3289C349.7 70.4923 342.536 63.3289 333.7 63.3289H183.336C174.904 63.3289 168.068 56.4929 168.068 48.0604V48.0604C168.068 39.6279 174.904 32.7919 183.336 32.7919H295.541C300.731 32.7919 304.937 28.5852 304.937 23.396V23.396C304.937 18.2067 300.731 14 295.541 14L190 14M132.879 14H144.5M156.551 14H180.224" stroke="black" stroke-width="4" stroke-linecap="round"/>
<path d="M358.7 84V75C358.7 62.2975 348.402 52 335.7 52H324.7" stroke="black" stroke-width="4" stroke-linecap="round"/>
<path d="M112 12.7415H122.351" stroke="black" stroke-width="4" stroke-linecap="round" stroke-linejoin="round"/>
<path d="M117.175 6.46997L117.175 18.1168" stroke="black" stroke-width="4" stroke-linecap="round" stroke-linejoin="round"/>
<path d="M234.7 2L296.2 1.99999C306.969 1.99999 315.7 10.7304 315.7 21.5V21.5C315.7 32.2695 306.969 41 296.2 41L279.17 41" stroke="black" stroke-width="4" stroke-linecap="round" stroke-linejoin="round"/>
<path d="M184.2 38H271.229C272.478 38 273.491 39.0127 273.491 40.2619C273.491 41.5111 272.478 42.5238 271.229 42.5238H197.972C195.348 42.5238 193.222 44.6505 193.222 47.2738C193.222 49.8972 195.348 52.0238 197.972 52.0238H301.212C302.586 52.0238 303.7 53.1378 303.7 54.5119C303.7 55.886 302.586 57 301.212 57H184.2C178.953 57 174.7 52.7467 174.7 47.5C174.7 42.2533 178.953 38 184.2 38Z" fill="#D3EBEC"/>
<path d="M87.6997 276.5C87.6997 272.358 91.0576 269 95.1997 269H207.7V284H95.1997C91.0576 284 87.6997 280.642 87.6997 276.5Z" fill="white" stroke="black" stroke-width="4"/>
<path d="M96.6997 276H177.7" stroke="black" stroke-width="4" stroke-linecap="round"/>
<path d="M247.7 219.247V198C247.7 196.895 246.804 196 245.7 196H233.716C233.325 196 232.943 196.115 232.617 196.33L209.6 211.485C209.038 211.855 208.7 212.483 208.7 213.155V293" stroke="black" stroke-width="4" stroke-linecap="round"/>
<path d="M291.7 217V199C291.7 197.343 290.357 196 288.7 196H277.633C277.052 196 276.484 196.168 275.997 196.485L251.7 212.281" stroke="black" stroke-width="4" stroke-linecap="round"/>
<path d="M22 306H438" stroke="black" stroke-width="4" stroke-linecap="round"/>
<path d="M445 306L461 306" stroke="black" stroke-width="4" stroke-linecap="round"/>
<path d="M4 306L16 306" stroke="black" stroke-width="4" stroke-linecap="round"/>
<path d="M236.7 275.657C236.7 278.921 237.209 282.063 238.151 285M239.263 263.38C243.775 253.128 253.764 246 265.362 246C268.631 246 271.773 246.566 274.7 247.609" stroke="black" stroke-width="4" stroke-linecap="round"/>
<circle cx="265.7" cy="274" r="8" fill="#C8D9DA"/>
<path d="M280.133 277.77C280.109 277.915 280.135 278.064 280.208 278.193L281.76 280.926C282.041 281.417 282.166 281.98 282.118 282.542C282.071 283.104 281.853 283.637 281.494 284.074L280.04 285.838C279.681 286.275 279.197 286.594 278.651 286.753C278.105 286.913 277.523 286.906 276.98 286.733L273.961 285.768C273.818 285.724 273.664 285.728 273.524 285.779L269.52 287.279C269.381 287.332 269.264 287.43 269.187 287.557L267.581 290.251C267.293 290.736 266.863 291.122 266.349 291.361C265.834 291.6 265.259 291.679 264.696 291.589L262.419 291.221C261.857 291.13 261.336 290.873 260.923 290.484C260.509 290.096 260.224 289.593 260.103 289.043L259.427 285.98C259.394 285.836 259.314 285.706 259.198 285.611L255.87 282.926C255.754 282.834 255.609 282.781 255.46 282.778L252.29 282.744C251.72 282.737 251.165 282.56 250.697 282.236C250.229 281.913 249.87 281.457 249.667 280.93L248.844 278.798C248.64 278.271 248.601 277.695 248.733 277.147C248.865 276.599 249.161 276.104 249.583 275.726L251.926 273.623C252.036 273.524 252.108 273.391 252.131 273.245L252.807 269.061C252.831 268.915 252.805 268.766 252.732 268.637L251.17 265.903C250.889 265.412 250.764 264.848 250.811 264.287C250.859 263.725 251.076 263.191 251.436 262.755L252.889 260.991C253.248 260.554 253.732 260.235 254.278 260.075C254.824 259.916 255.407 259.923 255.95 260.096L258.961 261.06C259.104 261.104 259.258 261.1 259.398 261.048L263.411 259.54C263.55 259.486 263.668 259.388 263.744 259.261L265.354 256.578C265.642 256.094 266.071 255.707 266.586 255.469C267.1 255.23 267.676 255.15 268.238 255.241L270.521 255.609C271.083 255.701 271.604 255.958 272.017 256.346C272.431 256.735 272.716 257.237 272.837 257.787L273.515 260.84C273.545 260.988 273.625 261.122 273.742 261.22L277.07 263.904C277.186 263.997 277.331 264.049 277.48 264.052L280.65 264.087C281.22 264.094 281.775 264.271 282.243 264.594C282.711 264.918 283.07 265.373 283.272 265.901L284.096 268.033C284.3 268.56 284.339 269.135 284.207 269.683C284.075 270.231 283.779 270.726 283.357 271.104L281.014 273.207C280.904 273.307 280.832 273.44 280.809 273.586L280.133 277.77Z" fill="white" stroke="black" stroke-width="4"/>
<circle cx="266.2" cy="273.5" r="4.5" fill="#C8D9DA"/>
<path d="M325.5 264.5C325.5 269.5 321.642 272.5 317.5 272.5C313 272.5 310 268.642 310 264.5C310 260.358 313.5 257 317.5 257C322 257 325.5 261 325.5 264.5Z" fill="#C8D9DA"/>
<path d="M109.7 260V229C109.7 225.134 112.834 222 116.7 222H183.7C184.804 222 185.7 222.895 185.7 224V260C185.7 261.105 184.804 262 183.7 262H111.7C110.595 262 109.7 261.105 109.7 260Z" stroke="black" stroke-width="4"/>
<rect x="138.7" y="235" width="18" height="13" rx="1" stroke="black" stroke-width="2"/>
<rect x="117.7" y="228" width="4" height="3" rx="1" fill="#D9D9D9" stroke="black" stroke-width="2" stroke-linejoin="round"/>
<rect x="161.7" y="228" width="5" height="5" rx="2.5" fill="#D9D9D9" stroke="black" stroke-width="2"/>
<rect x="169.7" y="228" width="6" height="5" rx="2.5" fill="#D9D9D9" stroke="black" stroke-width="2"/>
<path d="M165.7 231H169.7" stroke="black" stroke-width="2"/>
<rect x="164.7" y="240" width="10" height="7" rx="1" fill="#075056" stroke="black" stroke-width="2"/>
<rect x="121.7" y="253" width="6" height="5" rx="1" fill="#FDC609" stroke="black" stroke-width="2"/>
<rect x="121.7" y="245" width="6" height="4" rx="1" fill="#FDC609" stroke="black" stroke-width="2"/>
<rect x="136.952" y="227.502" width="1.40173" height="1.40173" rx="0.700866" fill="#D9D9D9" stroke="black" stroke-width="1.40173"/>
<rect x="143.292" y="227.301" width="2.73795" height="2.73795" rx="1.36898" fill="#D9D9D9" stroke="black"/>
<rect x="148.899" y="227.301" width="2.73795" height="2.73795" rx="1.36898" fill="#D9D9D9" stroke="black"/>
<rect x="156.576" y="227.502" width="1.40173" height="1.40173" rx="0.700866" fill="#D9D9D9" stroke="black" stroke-width="1.40173"/>
<path d="M137.653 228.67V229.838C137.653 230.741 138.385 231.474 139.288 231.474V231.474C140.191 231.474 140.924 232.206 140.924 233.109V234.744" stroke="black" stroke-width="2"/>
<path d="M157.277 228.67V229.838C157.277 230.741 156.545 231.474 155.642 231.474V231.474C154.738 231.474 154.006 232.206 154.006 233.109V234.744" stroke="black" stroke-width="2"/>
<path d="M144.661 234.744V229.605" stroke="black" stroke-width="2"/>
<path d="M150.268 234.744V229.605" stroke="black" stroke-width="2"/>
<rect x="157.978" y="255.471" width="1.40173" height="1.40173" rx="0.700866" transform="rotate(-180 157.978 255.471)" fill="#D9D9D9" stroke="black" stroke-width="1.40173"/>
<rect x="151.637" y="255.672" width="2.73795" height="2.73795" rx="1.36898" transform="rotate(-180 151.637 255.672)" fill="#D9D9D9" stroke="black"/>
<rect x="146.03" y="255.672" width="2.73795" height="2.73795" rx="1.36898" transform="rotate(-180 146.03 255.672)" fill="#D9D9D9" stroke="black"/>
<rect x="138.354" y="255.471" width="1.40173" height="1.40173" rx="0.700866" transform="rotate(-180 138.354 255.471)" fill="#D9D9D9" stroke="black" stroke-width="1.40173"/>
<path d="M157.277 254.303L157.277 253.135C157.277 252.232 156.545 251.5 155.642 251.5V251.5C154.738 251.5 154.006 250.767 154.006 249.864L154.006 248.229" stroke="black" stroke-width="2"/>
<path d="M137.653 254.303L137.653 253.135C137.653 252.232 138.385 251.5 139.288 251.5V251.5C140.191 251.5 140.924 250.767 140.924 249.864L140.924 248.229" stroke="black" stroke-width="2"/>
<path d="M150.269 248.229L150.269 253.369" stroke="black" stroke-width="2"/>
<path d="M144.662 248.229L144.662 253.369" stroke="black" stroke-width="2"/>
<path d="M128.7 247H132.658C133.763 247 134.658 246.105 134.658 245V242C134.658 240.895 135.553 240 136.658 240H139.7" stroke="black" stroke-width="2"/>
<path d="M128.7 255H131.7C132.804 255 133.7 254.105 133.7 253V247" stroke="black" stroke-width="2"/>
<path d="M175.2 231H177.7C178.804 231 179.7 231.895 179.7 233V242C179.7 243.105 178.804 244 177.7 244H174.7" stroke="black" stroke-width="2"/>
<path d="M166.7 247V249" stroke="black" stroke-width="2" stroke-linecap="round"/>
<path d="M166.7 238V240" stroke="black" stroke-width="2" stroke-linecap="round"/>
<path d="M171.7 247V249" stroke="black" stroke-width="2" stroke-linecap="round"/>
<path d="M171.7 238V240" stroke="black" stroke-width="2" stroke-linecap="round"/>
<path d="M377 89.5H394" stroke="black" stroke-width="4" stroke-linecap="round"/>
<path d="M385.5 81V98" stroke="black" stroke-width="4" stroke-linecap="round"/>
<path d="M456.5 252H443C441.895 252 441 252.895 441 254V266C441 267.105 441.895 268 443 268H462.5" stroke="black" stroke-width="4" stroke-linecap="round"/>
<path d="M447 242H455" stroke="black" stroke-width="4" stroke-linecap="round"/>
<path d="M457 283H462" stroke="black" stroke-width="4" stroke-linecap="round"/>
<path d="M414 286H430" stroke="black" stroke-width="4" stroke-linecap="round"/>
<circle cx="429.5" cy="296.5" r="9.5" fill="white" stroke="black" stroke-width="4"/>
<circle cx="429.5" cy="296.5" r="2.7381" fill="black"/>
<path d="M391 262H427" stroke="#D3EBEC" stroke-width="4" stroke-linecap="round"/>
<path d="M414 269L427 269" stroke="#D3EBEC" stroke-width="4" stroke-linecap="round"/>
<path d="M38.2372 306H93.5499C95.0864 306 96.049 304.339 95.2854 303.006L82.1137 280.006C81.7574 279.384 81.0952 279 80.3781 279H49.7465C48.9892 279 48.2969 279.428 47.958 280.105L36.4487 303.105C35.7832 304.435 36.7502 306 38.2372 306Z" fill="#EAEAEA" stroke="black" stroke-width="4" stroke-linecap="round"/>
<path d="M56 284.366C53.5 283.805 51 282.122 49.5 281L38 304H53L56 284.366Z" fill="#D8D8D8"/>
<circle cx="29" cy="242" r="3" fill="black"/>
<mask id="path-92-inside-4_191_252" fill="white">
<rect x="78.5752" y="168" width="29" height="22.6066" rx="2" transform="rotate(22.2913 78.5752 168)"/>
</mask>
<rect x="78.5752" y="168" width="29" height="22.6066" rx="2" transform="rotate(22.2913 78.5752 168)" fill="#EAEAEA" stroke="black" stroke-width="8" mask="url(#path-92-inside-4_191_252)"/>
<path d="M30.9566 223.653L70.7139 263.365C75.3459 267.992 75.8288 275.336 71.8425 280.529C66.2877 287.766 55.2094 287.207 50.4105 279.449L22.0734 233.635C21.6362 232.929 21.6818 232.025 22.1879 231.366L27.9567 223.85C28.692 222.892 30.1021 222.799 30.9566 223.653Z" fill="#EAEAEA" stroke="black" stroke-width="4" stroke-linecap="round"/>
<circle cx="60.8472" cy="273.145" r="3.58529" transform="rotate(9.44611 60.8472 273.145)" fill="black"/>
<path d="M61.6612 184.298L42.9659 233.289C40.9153 238.663 35.1764 241.661 29.5944 240.274C21.9796 238.383 18.5203 229.533 22.834 222.979L50.699 180.642C51.1655 179.933 52.0283 179.596 52.8518 179.801L60.2748 181.644C61.4398 181.934 62.0892 183.177 61.6612 184.298Z" fill="#EAEAEA" stroke="black" stroke-width="4" stroke-linecap="round"/>
<path d="M25.9998 222C23.9998 224 22.6395 226.683 22.9998 230C23.4344 234.002 25.9998 237 29.4998 238.5L53.4998 183.5L52.4998 182L25.9998 222Z" fill="#D8D8D8"/>
<path d="M61.6612 184.298L42.9659 233.289C40.9153 238.663 35.1764 241.661 29.5944 240.274C21.9796 238.383 18.5203 229.533 22.834 222.979L50.699 180.642C51.1655 179.933 52.0283 179.596 52.8518 179.801L60.2748 181.644C61.4398 181.934 62.0892 183.177 61.6612 184.298Z" stroke="black" stroke-width="4" stroke-linecap="round"/>
<circle r="11" transform="matrix(-0.970508 -0.24107 -0.24107 0.970508 56.7505 173.751)" fill="#EAEAEA" stroke="black" stroke-width="4"/>
<circle cx="32.125" cy="229.125" r="3.58529" transform="rotate(9.44611 32.125 229.125)" fill="black"/>
<circle cx="56.7527" cy="173.753" r="5" transform="rotate(9.44611 56.7527 173.753)" fill="#D8D8D8"/>
</svg>
