<svg width="414" height="353" viewBox="0 0 414 353" fill="none" xmlns="http://www.w3.org/2000/svg">
<path d="M97.4961 157.054C97.3543 157.331 97.3119 157.649 97.3759 157.955L98.7416 164.451C98.9913 165.621 98.8807 166.835 98.4242 167.935C97.9677 169.034 97.1865 169.969 96.1828 170.616L92.1234 173.231C91.1207 173.88 89.9415 174.211 88.7399 174.181C87.5384 174.152 86.3704 173.763 85.3886 173.066L79.9338 169.183C79.6743 169.002 79.3628 168.912 79.0479 168.925L70.026 169.369C69.7111 169.387 69.4122 169.509 69.1766 169.715L64.2117 174.104C63.3207 174.894 62.2083 175.396 61.0195 175.546C59.8307 175.695 58.6208 175.485 57.5477 174.942L53.2008 172.738C52.129 172.192 51.2446 171.34 50.663 170.293C50.0813 169.245 49.8295 168.051 49.9403 166.866L50.5483 160.267C50.5755 159.955 50.4972 159.642 50.3259 159.377L45.3543 151.835C45.1789 151.573 44.9216 151.376 44.6226 151.273L38.2672 149.166C37.1246 148.786 36.1209 148.073 35.3872 147.121C34.6535 146.169 34.2239 145.022 34.1546 143.83L33.867 139.009C33.7958 137.817 34.0882 136.635 34.7058 135.617C35.3234 134.599 36.2376 133.793 37.3289 133.303L43.3967 130.577C43.6815 130.448 43.9128 130.226 44.0528 129.948L48.1031 121.962C48.2448 121.685 48.2872 121.367 48.2232 121.061L46.8377 114.555C46.588 113.386 46.6986 112.171 47.1551 111.072C47.6116 109.972 48.3928 109.038 49.3965 108.391L53.4558 105.775C54.4586 105.127 55.6378 104.796 56.8394 104.825C58.0409 104.855 59.2089 105.244 60.1907 105.941L65.6306 109.816C65.8899 109.997 66.2015 110.088 66.5165 110.074L75.5633 109.618C75.8782 109.6 76.177 109.478 76.4127 109.272L81.3776 104.907C82.2685 104.118 83.3809 103.615 84.5697 103.466C85.7585 103.316 86.9684 103.526 88.0415 104.069L92.3984 106.279C93.4701 106.824 94.3546 107.676 94.9362 108.724C95.5178 109.771 95.7697 110.965 95.6589 112.151L95.0608 118.73C95.0261 119.047 95.101 119.368 95.2733 119.64L100.245 127.181C100.421 127.443 100.678 127.641 100.977 127.743L107.332 129.851C108.475 130.231 109.478 130.944 110.212 131.896C110.946 132.847 111.375 133.994 111.445 135.187L111.732 140.007C111.803 141.199 111.511 142.381 110.893 143.399C110.276 144.417 109.362 145.224 108.27 145.713L102.202 148.439C101.918 148.568 101.686 148.79 101.546 149.068L97.4961 157.054Z" fill="#EAEAEA"/>
<path d="M56.4732 234.041C56.3794 234.224 56.3514 234.435 56.3937 234.637L57.2976 238.936C57.4629 239.711 57.3897 240.514 57.0875 241.242C56.7854 241.97 56.2684 242.588 55.6041 243.016L52.9175 244.747C52.2538 245.177 51.4733 245.396 50.6781 245.376C49.8829 245.356 49.1099 245.099 48.4601 244.638L44.8499 242.068C44.6781 241.949 44.472 241.888 44.2636 241.897L38.2925 242.191C38.0841 242.203 37.8863 242.284 37.7304 242.42L34.4444 245.325C33.8547 245.848 33.1185 246.18 32.3317 246.279C31.545 246.378 30.7442 246.239 30.0339 245.88L27.157 244.421C26.4477 244.06 25.8623 243.496 25.4774 242.803C25.0924 242.109 24.9257 241.319 24.9991 240.534L25.4015 236.167C25.4195 235.961 25.3677 235.753 25.2543 235.578L21.9639 230.587C21.8478 230.413 21.6775 230.282 21.4796 230.215L17.2734 228.82C16.5172 228.568 15.8529 228.097 15.3673 227.467C14.8817 226.837 14.5974 226.077 14.5515 225.289L14.3612 222.098C14.3141 221.309 14.5076 220.527 14.9163 219.853C15.3251 219.179 15.9302 218.645 16.6524 218.321L20.6683 216.517C20.8568 216.432 21.0099 216.285 21.1025 216.101L23.7832 210.816C23.877 210.632 23.905 210.422 23.8627 210.219L22.9457 205.913C22.7804 205.139 22.8536 204.336 23.1557 203.608C23.4579 202.88 23.9749 202.262 24.6392 201.834L27.3258 200.102C27.9895 199.673 28.7699 199.454 29.5652 199.474C30.3604 199.493 31.1334 199.751 31.7832 200.212L35.3835 202.777C35.5552 202.896 35.7614 202.957 35.9699 202.948L41.9573 202.646C42.1657 202.634 42.3635 202.553 42.5195 202.417L45.8054 199.528C46.3951 199.006 47.1313 198.673 47.9181 198.574C48.7049 198.475 49.5056 198.614 50.2159 198.973L53.0994 200.436C53.8088 200.797 54.3941 201.361 54.779 202.054C55.164 202.747 55.3307 203.538 55.2573 204.322L54.8615 208.676C54.8386 208.886 54.8881 209.099 55.0021 209.278L58.2925 214.27C58.4088 214.443 58.579 214.574 58.7768 214.642L62.983 216.036C63.7392 216.288 64.4035 216.76 64.8891 217.39C65.3747 218.02 65.659 218.779 65.7049 219.568L65.8952 222.758C65.9423 223.547 65.7488 224.33 65.3401 225.004C64.9313 225.677 64.3263 226.211 63.604 226.535L59.5881 228.339C59.3996 228.425 59.2465 228.571 59.1539 228.756L56.4732 234.041Z" fill="#FEEEB5"/>
<path d="M61.5 349V249.902C61.5 249.372 61.7102 248.863 62.0846 248.488L131.455 179H273.716C274.247 179 274.756 179.211 275.131 179.587L343.915 248.488C344.29 248.863 344.5 249.372 344.5 249.902V263.407V349C344.5 350.105 343.605 351 342.5 351H201.41H63.5C62.3954 351 61.5 350.105 61.5 349Z" fill="#D3EBEC"/>
<path d="M99.4677 156.233C99.3548 156.454 99.321 156.707 99.372 156.951L100.46 162.127C100.659 163.059 100.571 164.027 100.207 164.903C99.8436 165.78 99.2211 166.524 98.4212 167.04L95.1863 169.124C94.3872 169.641 93.4475 169.905 92.49 169.881C91.5325 169.858 90.6017 169.548 89.8193 168.992L85.4723 165.898C85.2655 165.754 85.0173 165.682 84.7663 165.692L77.5767 166.046C77.3258 166.061 77.0877 166.158 76.8998 166.322L72.9433 169.82C72.2333 170.449 71.3468 170.849 70.3995 170.968C69.4521 171.088 68.488 170.92 67.6328 170.488L64.1687 168.731C63.3146 168.296 62.6098 167.617 62.1463 166.783C61.6828 165.948 61.4821 164.996 61.5704 164.051L62.0549 158.793C62.0766 158.544 62.0142 158.295 61.8777 158.084L57.9158 152.074C57.7761 151.865 57.571 151.707 57.3327 151.626L52.2681 149.946C51.3576 149.643 50.5577 149.075 49.973 148.317C49.3883 147.558 49.046 146.644 48.9907 145.694L48.7615 141.853C48.7048 140.903 48.9378 139.961 49.43 139.149C49.9222 138.338 50.6507 137.695 51.5204 137.305L56.3558 135.133C56.5828 135.03 56.7671 134.853 56.8786 134.632L60.1063 128.268C60.2193 128.047 60.2531 127.794 60.2021 127.55L59.098 122.365C58.8989 121.433 58.9871 120.465 59.3509 119.589C59.7147 118.713 60.3372 117.968 61.1371 117.453L64.372 115.368C65.1711 114.851 66.1108 114.588 67.0683 114.611C68.0258 114.635 68.9566 114.945 69.739 115.5L74.074 118.588C74.2807 118.732 74.529 118.805 74.7801 118.794L81.9894 118.431C82.2404 118.416 82.4785 118.319 82.6663 118.155L86.6229 114.677C87.3329 114.047 88.2194 113.647 89.1667 113.528C90.114 113.409 91.0782 113.576 91.9334 114.009L95.4054 115.77C96.2595 116.204 96.9643 116.883 97.4278 117.718C97.8913 118.553 98.092 119.504 98.0037 120.449L97.5271 125.692C97.4994 125.945 97.5591 126.2 97.6964 126.417L101.658 132.427C101.798 132.635 102.003 132.793 102.241 132.875L107.306 134.554C108.217 134.857 109.016 135.425 109.601 136.184C110.186 136.942 110.528 137.856 110.583 138.806L110.813 142.648C110.869 143.598 110.636 144.54 110.144 145.351C109.652 146.162 108.923 146.805 108.054 147.195L103.218 149.367C102.991 149.47 102.807 149.647 102.695 149.869L99.4677 156.233Z" fill="#EAEAEA" stroke="black" stroke-width="4"/>
<path d="M57.289 226.353C57.207 226.513 57.1826 226.697 57.2195 226.874L58.0092 230.63C58.1537 231.307 58.0897 232.009 57.8257 232.645C57.5618 233.281 57.11 233.821 56.5296 234.195L54.1823 235.708C53.6024 236.083 52.9205 236.274 52.2257 236.257C51.5309 236.24 50.8555 236.015 50.2878 235.612L47.1335 233.366C46.9834 233.262 46.8033 233.21 46.6212 233.217L41.4042 233.474C41.2221 233.484 41.0493 233.555 40.913 233.674L38.042 236.212C37.5268 236.669 36.8835 236.959 36.1961 237.046C35.5087 237.132 34.8091 237.011 34.1885 236.697L31.6749 235.422C31.0551 235.107 30.5437 234.614 30.2074 234.008C29.871 233.403 29.7254 232.712 29.7895 232.027L30.1411 228.211C30.1568 228.03 30.1115 227.849 30.0124 227.696L27.1376 223.335C27.0362 223.184 26.8874 223.069 26.7144 223.01L23.0394 221.792C22.3787 221.572 21.7983 221.159 21.374 220.609C20.9497 220.059 20.7013 219.395 20.6612 218.706L20.4949 215.918C20.4538 215.229 20.6228 214.545 20.98 213.957C21.3371 213.368 21.8658 212.902 22.4968 212.619L26.0056 211.043C26.1703 210.968 26.304 210.839 26.3849 210.679L28.7271 206.061C28.8091 205.9 28.8336 205.717 28.7966 205.54L27.9954 201.778C27.851 201.101 27.9149 200.399 28.1789 199.763C28.4429 199.127 28.8946 198.587 29.475 198.213L31.8224 196.7C32.4022 196.325 33.0841 196.134 33.7789 196.151C34.4737 196.168 35.1491 196.393 35.7169 196.796L38.8625 199.037C39.0125 199.142 39.1927 199.194 39.3748 199.186L44.6062 198.923C44.7883 198.912 44.9611 198.842 45.0974 198.722L47.9683 196.199C48.4835 195.742 49.1268 195.451 49.8142 195.365C50.5017 195.279 51.2013 195.4 51.8218 195.714L54.3412 196.992C54.961 197.307 55.4724 197.8 55.8088 198.405C56.1451 199.011 56.2907 199.702 56.2266 200.387L55.8808 204.192C55.8608 204.375 55.9041 204.561 56.0037 204.718L58.8785 209.079C58.9801 209.23 59.1289 209.344 59.3017 209.404L62.9767 210.622C63.6374 210.842 64.2178 211.254 64.6421 211.805C65.0664 212.355 65.3148 213.018 65.3549 213.708L65.5212 216.495C65.5623 217.185 65.3933 217.868 65.0361 218.457C64.679 219.046 64.1503 219.512 63.5193 219.795L60.0105 221.371C59.8458 221.446 59.7121 221.574 59.6312 221.735L57.289 226.353Z" fill="#FEEEB5" stroke="black" stroke-width="4"/>
<path d="M280.5 141V92.7321C280.5 85.5524 274.68 79.7321 267.5 79.7321H257.5C250.32 79.7321 244.5 73.9118 244.5 66.7321V9" stroke="#EAEAEA" stroke-width="17" stroke-linecap="round" stroke-linejoin="round"/>
<path d="M224.018 152.139L243.576 260.645C243.797 261.872 242.854 263 241.607 263H231C229.895 263 229 262.105 229 261V250.813C229 250.292 228.796 249.791 228.432 249.418L210.407 230.918C210.141 230.645 209.959 230.302 209.882 229.928L193.741 152.035C193.646 151.576 193.38 151.156 193.015 150.861C168.675 131.175 176.163 110.566 184.495 100.677C185.448 99.5466 187.202 99.9815 187.657 101.388L193.615 119.833C195.508 125.694 201.822 128.883 207.663 126.928C212.177 125.417 215.22 121.19 215.22 116.43V98.8422C215.22 97.0584 217.356 96.2078 218.517 97.5621C236.827 118.923 230.49 141.16 224.329 150.642C224.04 151.087 223.924 151.617 224.018 152.139Z" fill="#FEEEB5"/>
<path d="M2 351H25.5M411.5 351L371.5 351H63.5M35 351H52" stroke="black" stroke-width="4" stroke-linecap="round"/>
<path d="M273.516 221.199L253.474 219.751C252.38 219.671 251.554 218.727 251.622 217.632L252.634 201.254C252.766 199.105 255.734 198.655 256.499 200.667L257.018 202.031C257.293 202.754 257.96 203.254 258.732 203.314L277.48 204.773C278.642 204.864 279.635 203.945 279.635 202.779V195.858C279.635 194.703 280.611 193.788 281.763 193.862L333.157 197.164C333.284 197.172 333.414 197.193 333.536 197.226C355.213 202.967 357.758 221.059 356.079 231.563C355.864 232.911 354.323 233.498 353.158 232.785C325.219 215.69 309.341 226.305 304.144 234.861C303.731 235.541 302.993 235.968 302.199 235.92L277.25 234.39C276.195 234.325 275.372 233.45 275.372 232.393V223.194C275.372 222.145 274.562 221.275 273.516 221.199Z" fill="#D9D9D9"/>
<path d="M227.898 154.18L247.05 261.141C247.279 262.419 246.249 263.572 244.954 263.49L231.372 262.62C230.319 262.552 229.5 261.679 229.5 260.624V249.836C229.5 249.301 229.286 248.788 228.905 248.413L218.292 237.933C218.006 237.651 217.812 237.289 217.735 236.895L202.249 158.09C202.158 157.623 201.892 157.197 201.522 156.897C179.354 138.924 183.642 118.486 190.824 109.174C191.683 108.061 193.346 108.421 193.848 109.734L199.809 125.297C201.742 130.344 207.308 132.971 212.433 131.255C216.8 129.792 219.622 125.558 219.291 120.964L218.169 105.378C218.045 103.667 219.983 102.644 221.264 103.785C241.115 121.467 233.915 143.863 228.208 152.685C227.92 153.13 227.804 153.659 227.898 154.18Z" stroke="black" stroke-width="4" stroke-linejoin="round"/>
<path d="M237.358 192.203L253.856 193.986L250.202 227.81L233.703 226.027L237.358 192.203Z" fill="#D9D9D9" stroke="black" stroke-width="4"/>
<mask id="path-12-inside-1_191_1011" fill="white">
<rect x="125.5" y="271" width="18" height="26" rx="2"/>
</mask>
<rect x="125.5" y="271" width="18" height="26" rx="2" fill="white" stroke="black" stroke-width="8" mask="url(#path-12-inside-1_191_1011)"/>
<mask id="path-13-inside-2_191_1011" fill="white">
<rect x="125.5" y="311" width="18" height="26" rx="2"/>
</mask>
<rect x="125.5" y="311" width="18" height="26" rx="2" fill="white" stroke="black" stroke-width="8" mask="url(#path-13-inside-2_191_1011)"/>
<mask id="path-14-inside-3_191_1011" fill="white">
<rect x="163.5" y="271" width="18" height="26" rx="2"/>
</mask>
<rect x="163.5" y="271" width="18" height="26" rx="2" fill="white" stroke="black" stroke-width="8" mask="url(#path-14-inside-3_191_1011)"/>
<mask id="path-15-inside-4_191_1011" fill="white">
<rect x="163.5" y="311" width="18" height="26" rx="2"/>
</mask>
<rect x="163.5" y="311" width="18" height="26" rx="2" fill="white" stroke="black" stroke-width="8" mask="url(#path-15-inside-4_191_1011)"/>
<path d="M279 178V161C279 159.895 279.895 159 281 159H292.5C293.605 159 294.5 159.895 294.5 161V178" stroke="black" stroke-width="4" stroke-linejoin="round"/>
<path d="M288 141.5V92.75C288 85.7084 282.292 80 275.25 80V80C268.208 80 262.5 74.2916 262.5 67.25V9" stroke="black" stroke-width="4" stroke-linecap="round" stroke-linejoin="round"/>
<path d="M355.5 139.846H333.5" stroke="black" stroke-width="4" stroke-linecap="round" stroke-linejoin="round"/>
<path d="M344.5 128L344.5 150" stroke="black" stroke-width="4" stroke-linecap="round" stroke-linejoin="round"/>
<path d="M138.5 62.5386H111.5" stroke="black" stroke-width="4" stroke-linecap="round" stroke-linejoin="round"/>
<path d="M124.999 48L124.999 75" stroke="black" stroke-width="4" stroke-linecap="round" stroke-linejoin="round"/>
<circle cx="157" cy="230.5" r="11.5" fill="white" stroke="black" stroke-width="4"/>
<path d="M271.695 222.535L253.478 221.239C252.383 221.161 251.555 220.214 251.624 219.119L253.075 196L256.559 205.019C256.836 205.738 257.503 206.234 258.272 206.292L275.339 207.6C276.5 207.689 277.492 206.77 277.492 205.606V199.699C277.492 198.545 278.466 197.63 279.618 197.703L326.924 200.694C327.049 200.702 327.177 200.722 327.298 200.754C347.161 205.937 349.625 222.171 348.146 231.748C347.939 233.088 346.416 233.678 345.253 232.981C319.638 217.634 305.034 227.13 300.188 234.876C299.768 235.547 299.036 235.969 298.247 235.922L275.433 234.545C274.377 234.481 273.553 233.606 273.553 232.548V224.529C273.553 223.48 272.742 222.609 271.695 222.535Z" stroke="black" stroke-width="4" stroke-linejoin="round"/>
<path d="M191.5 131C192.397 135.923 194.817 146.785 204.5 149" stroke="#FDC609" stroke-width="4" stroke-linecap="round" stroke-linejoin="round"/>
<path d="M211 161.5L222 226.5" stroke="#FDC609" stroke-width="4" stroke-linecap="round" stroke-linejoin="round"/>
<rect x="276.507" y="235.321" width="19" height="26" transform="rotate(4.32319 276.507 235.321)" fill="#075056"/>
<path d="M276.38 234.899L274.446 261.772" stroke="black" stroke-width="4" stroke-linejoin="round"/>
<path d="M296.975 234.899L295.041 261.772" stroke="black" stroke-width="4" stroke-linejoin="round"/>
<path d="M159.455 179L90.0846 248.488C89.7102 248.863 89.5 249.372 89.5 249.902V349C89.5 350.105 90.3954 351 91.5 351H229.41M159.455 179H190M159.455 179L204.379 224L212.365 232L220.888 240.537L228.826 248.488C229.2 248.863 229.41 249.372 229.41 249.902V263.407M229.41 351H370.5C371.605 351 372.5 350.105 372.5 349V263.407M229.41 351V263.407M372.5 263.407H229.41M372.5 263.407V249.903C372.5 249.372 372.289 248.863 371.914 248.488L358 234.574M238 179H301.716C302.247 179 302.756 179.211 303.131 179.587L316.022 192.5" stroke="black" stroke-width="4" stroke-linecap="round" stroke-linejoin="round"/>
<path d="M345.5 273H302.5C301.395 273 300.5 273.895 300.5 275V342C300.5 343.105 301.395 344 302.5 344H355.5C356.605 344 357.5 343.105 357.5 342V311" stroke="black" stroke-width="4" stroke-linecap="round"/>
<path d="M357.5 304V286" stroke="black" stroke-width="4" stroke-linecap="round" stroke-linejoin="round"/>
<path d="M345.871 285.58C345.733 285.58 345.621 285.468 345.621 285.33L345.621 273.064C345.621 272.98 345.643 272.942 345.658 272.92C345.68 272.889 345.721 272.854 345.779 272.831C345.838 272.808 345.891 272.806 345.928 272.813C345.955 272.819 345.997 272.832 346.054 272.893L357.529 285.159C357.582 285.216 357.594 285.258 357.598 285.286C357.604 285.323 357.599 285.375 357.576 285.429C357.552 285.484 357.517 285.522 357.486 285.544C357.462 285.56 357.424 285.58 357.346 285.58L345.871 285.58Z" fill="white" stroke="black" stroke-width="3.5"/>
<path d="M307 302.5V282.5H324V302.5H307Z" fill="white" stroke="black" stroke-width="4" stroke-linecap="round" stroke-linejoin="round"/>
<path d="M333 292H349" stroke="black" stroke-width="4" stroke-linecap="round" stroke-linejoin="round"/>
<path d="M333.5 300H349.5" stroke="black" stroke-width="4" stroke-linecap="round" stroke-linejoin="round"/>
<path d="M307.5 311H347.5" stroke="black" stroke-width="4" stroke-linecap="round" stroke-linejoin="round"/>
<path d="M307.5 319H347.5" stroke="black" stroke-width="4" stroke-linecap="round" stroke-linejoin="round"/>
<path d="M284.02 203.273C296.177 204.235 321.789 206.372 326.98 207.227" stroke="white" stroke-width="4" stroke-linecap="round" stroke-linejoin="round"/>
</svg>
