<?xml version="1.0" encoding="utf-8"?>
<!-- Generator: Adobe Illustrator 23.0.0, SVG Export Plug-In . SVG Version: 6.00 Build 0)  -->
<svg version="1.1" id="Layer_1" xmlns="http://www.w3.org/2000/svg" xmlns:xlink="http://www.w3.org/1999/xlink" x="0px" y="0px"
	 viewBox="0 0 201.6 160" style="enable-background:new 0 0 201.6 160;" xml:space="preserve">
<style type="text/css">
	.st0{fill:#242122;stroke:#242122;stroke-width:0.1;stroke-miterlimit:10;}
	.st1{fill:none;stroke:#242021;stroke-width:0.4;stroke-miterlimit:10;}
	.st2{fill:#615F5B;}
	.st3{fill:#FFFFFF;}
</style>
<g>
	<path d="M171.6,29.2l-103.3,0c-0.4,0-0.8,0.3-0.9,0.6L29,134.4c-0.3,0.7,0.3,1.4,0.9,1.4c0.1,0,0.3,0,0.5-0.1l141.7-74.2
		c0.3-0.2,0.6-0.5,0.6-0.9l0-30.3C172.6,29.7,172.2,29.2,171.6,29.2 M171.6,30L171.6,30c0.1,0,0.3,0.1,0.3,0.3l0,30.3
		c0,0.1-0.1,0.2-0.2,0.2L30,135c0,0-0.1,0-0.1,0c-0.1,0-0.2,0-0.2-0.1c-0.1-0.1,0-0.2,0-0.2L68.1,30.2c0-0.1,0.1-0.2,0.2-0.2
		L171.6,30z"/>
	<path d="M65.5,56L29,134.3c-0.4,0.8,0.4,1.7,1.3,1.4L144.9,94c0.4-0.1,0.7-0.5,0.7-0.9V56.4c0-0.6-0.5-1-1-1H66.4
		C66,55.4,65.7,55.6,65.5,56"/>
	<path class="st3" d="M133.8,85.8l-0.6,2.2v-6.4h-1.4v10.1h1.6l1.3-4.6l0.6-2.5v7.1h1.4V81.6h-1.7L133.8,85.8z M128.3,81.5
		c-1.6,0-2.4,0.9-2.4,2.5v5.2c0,1.6,0.8,2.5,2.4,2.5c1.6,0,2.4-0.9,2.4-2.5V88h-1.5v1.4c0,0.7-0.3,1-0.8,1c-0.5,0-0.8-0.3-0.8-1V84
		c0-0.7,0.3-1,0.8-1c0.5,0,0.8,0.3,0.8,1V85h1.5v-1C130.7,82.5,129.9,81.5,128.3,81.5 M122.5,81.5c-1.6,0-2.4,0.9-2.4,2.5v5.2
		c0,1.6,0.8,2.5,2.4,2.5c1.6,0,2.4-0.9,2.4-2.5V88h-1.5v1.4c0,0.7-0.3,1-0.8,1c-0.5,0-0.8-0.3-0.8-1V84c0-0.7,0.3-1,0.8-1
		c0.5,0,0.8,0.3,0.8,1V85h1.5v-1C124.9,82.5,124.1,81.5,122.5,81.5 M111.7,85.6c0,0.7-0.3,1-0.8,1h-0.7v-3.4h0.7
		c0.5,0,0.8,0.2,0.8,1V85.6z M110.9,81.6h-2.3v10.1h1.6v-3.8h0.7c1.6,0,2.4-0.9,2.4-2.5v-1.3C113.3,82.5,112.5,81.6,110.9,81.6
		 M117.5,89.4c0,0.7-0.3,1-0.8,1c-0.5,0-0.8-0.3-0.8-1V84c0-0.7,0.3-1,0.8-1c0.5,0,0.8,0.3,0.8,1V89.4z M116.7,81.5
		c-1.6,0-2.4,0.9-2.4,2.5v5.2c0,1.6,0.9,2.5,2.4,2.5c1.6,0,2.4-0.9,2.4-2.5v-5.2C119.1,82.5,118.2,81.5,116.7,81.5 M140.1,85.8
		l-0.6,2.2v-6.4h-1.4v10.1h1.6l1.3-4.6l0.6-2.5v7.1h1.4V81.6h-1.7L140.1,85.8z M115.7,77.3c0,0.7-0.3,1-0.8,1c-0.5,0-0.8-0.3-0.8-1
		v-5.5c0-0.7,0.3-1,0.8-1c0.5,0,0.8,0.3,0.8,1V77.3z M114.9,69.4c-1.6,0-2.4,0.9-2.4,2.5v5.2c0,1.6,0.9,2.5,2.4,2.5
		c1.6,0,2.4-0.9,2.4-2.5V72C117.3,70.3,116.5,69.4,114.9,69.4 M141.6,79.6h1.6V69.5h-1.6V79.6z M100.6,79.6h1.6V71h1.8v8.7h1.6V69.5
		h-5V79.6z M108.4,71h0.7c0.5,0,0.8,0.2,0.8,1v1.5c0,0.7-0.3,1-0.8,1h-0.7V71z M111.6,73.3V72c0-1.6-0.8-2.5-2.4-2.5h-2.3v10.1h1.6
		v-3.8h0.7C110.8,75.8,111.6,75,111.6,73.3 M137.5,74.8h0.8c0.5,0,0.8,0.2,0.8,1v1.5c0,0.7-0.3,1-0.8,1h-0.8V74.8z M140.7,77.1v-1.3
		c0-1.6-0.8-2.5-2.4-2.5h-0.8v-3.8H136v10.1h2.3C139.9,79.6,140.7,78.7,140.7,77.1 M133.3,79.6V71h1.7v-1.4H130V71h1.7v8.7H133.3z
		 M127.6,79.6h1.6L127,74l2.2-4.5h-1.6l-2.1,4.4v-4.4H124v10.1h1.6v-3.1l0.5-0.9L127.6,79.6z M122.8,71v-1.4h-4.3v10.1h4.3v-1.4
		h-2.7v-3h2.2v-1.4h-2.2V71H122.8z M100.6,63.2h1.8v4.3h1.6V57.4h-1.6v4.3h-1.8v-4.3H99v10.1h1.6V63.2z M96.2,65.2
		c0,0.7-0.3,1-0.8,1c-0.5,0-0.8-0.3-0.8-1v-5.4c0-0.7,0.3-1,0.8-1c0.5,0,0.8,0.3,0.8,1V65.2z M95.4,57.3c-1.6,0-2.4,0.9-2.4,2.5v5.2
		c0,1.6,0.9,2.5,2.4,2.5c1.6,0,2.4-0.9,2.4-2.5v-5.2C97.8,58.2,97,57.3,95.4,57.3 M143.3,58.9v-1.4H139v10.1h4.3v-1.4h-2.7v-3h2.2
		v-1.4h-2.2v-2.8H143.3z M107,64.3l0.8-5.1l0.8,5.1H107z M109,67.5h1.6L109,57.4h-2.3L105,67.5h1.5l0.3-1.8h1.9L109,67.5z M85,57.4
		h-1.6v8.7h-1.8v-8.7H80v10.1h4.2v1.4h1.5v-2.8H85V57.4z M125.8,63.2h1.8v4.3h1.6V57.4h-1.6v4.3h-1.8v-4.3h-1.6v10.1h1.6V63.2z
		 M120,62.7h0.7c0.5,0,0.8,0.2,0.8,1v1.5c0,0.7-0.3,1-0.8,1H120V62.7z M123.1,65v-1.3c0-1.6-0.8-2.5-2.4-2.5H120v-3.8h-1.6v10.1h2.3
		C122.4,67.5,123.1,66.6,123.1,65 M132.1,62.7h0.7c0.5,0,0.8,0.2,0.8,1v1.5c0,0.7-0.3,1-0.8,1h-0.7V62.7z M135.2,65v-1.3
		c0-1.6-0.8-2.5-2.4-2.5h-0.7v-3.8h-1.6v10.1h2.3C134.5,67.5,135.2,66.6,135.2,65 M114,65l0.2-6.1h1.4v8.7h1.6V57.4h-4.5l-0.3,7.6
		c0,0.9-0.3,1-1,1v1.4h0.2C113.3,67.5,113.9,66.8,114,65 M88.8,61.6l-0.6,2.2v-6.4h-1.4v10.1h1.6l1.3-4.6l0.6-2.5v7.1h1.4V57.4h-1.7
		L88.8,61.6z M75.4,64.3l0.8-5.1l0.8,5.1H75.4z M75.1,57.4l-1.6,10.1h1.5l0.3-1.8h1.9l0.3,1.8H79l-1.6-10.1H75.1z M137.7,57.4h-1.6
		v10.1h1.6V57.4z M70.8,61.7H69v-4.3h-1.6v10.1H69v-4.3h1.8v4.3h1.6V57.4h-1.6V61.7z"/>
	<polygon points="98.5,35.3 100.1,39.5 101.6,35.3 102.8,35.3 102.8,40.7 101.9,40.7 101.9,38.9 102,36.6 100.4,40.7 99.7,40.7 
		98.1,36.6 98.2,38.9 98.2,40.7 97.3,40.7 97.3,35.3 	"/>
	<path d="M105.1,38.7h1.6l-0.8-2.2L105.1,38.7z M107,39.5h-2.1l-0.4,1.3h-1l2-5.4h0.8l2,5.4h-1L107,39.5z"/>
	<path d="M113.2,35.3v5.4h-0.9v-4.7h-1.7l-0.1,2.1c0,0.7-0.1,1.2-0.2,1.5c-0.1,0.4-0.3,0.6-0.5,0.8c-0.2,0.2-0.5,0.2-0.9,0.2h-0.2
		V40l0.1,0c0.2,0,0.4-0.1,0.5-0.2c0.1-0.1,0.2-0.3,0.3-0.6c0.1-0.3,0.1-0.7,0.1-1.2l0.1-2.7H113.2z"/>
	<path d="M117.7,37.9c0-0.6-0.1-1.1-0.3-1.4c-0.2-0.3-0.5-0.5-1-0.5c-0.4,0-0.7,0.2-1,0.5c-0.2,0.3-0.3,0.8-0.4,1.4v0.3
		c0,0.6,0.1,1.1,0.3,1.4c0.2,0.3,0.6,0.5,1,0.5c0.4,0,0.7-0.2,1-0.5s0.3-0.8,0.3-1.4V37.9z M118.6,38.2c0,0.5-0.1,1-0.3,1.4
		c-0.2,0.4-0.4,0.7-0.8,0.9c-0.3,0.2-0.7,0.3-1.2,0.3c-0.4,0-0.8-0.1-1.2-0.3c-0.3-0.2-0.6-0.5-0.8-0.9c-0.2-0.4-0.3-0.9-0.3-1.4
		v-0.3c0-0.5,0.1-1,0.3-1.4c0.2-0.4,0.5-0.7,0.8-0.9c0.3-0.2,0.7-0.3,1.2-0.3c0.4,0,0.8,0.1,1.2,0.3c0.3,0.2,0.6,0.5,0.8,0.9
		c0.2,0.4,0.3,0.9,0.3,1.4V38.2z"/>
	<polygon points="122.7,38.3 120.5,38.3 120.5,40 123.1,40 123.1,40.7 119.5,40.7 119.5,35.3 123.1,35.3 123.1,36.1 120.5,36.1 
		120.5,37.6 122.7,37.6 	"/>
	<polygon points="129,35.3 129.9,35.3 129.9,40.7 129,40.7 129,36.9 126.6,40.7 125.7,40.7 125.7,35.3 126.6,35.3 126.6,39.2 	"/>
	<path d="M137,39c-0.1,0.6-0.3,1-0.6,1.4c-0.4,0.3-0.9,0.5-1.5,0.5c-0.4,0-0.8-0.1-1.1-0.3c-0.3-0.2-0.6-0.5-0.8-0.9
		c-0.2-0.4-0.3-0.8-0.3-1.3v-0.5c0-0.5,0.1-1,0.3-1.3c0.2-0.4,0.4-0.7,0.8-0.9c0.3-0.2,0.7-0.3,1.2-0.3c0.6,0,1.1,0.2,1.4,0.5
		c0.4,0.3,0.6,0.8,0.6,1.4h-0.9c0-0.4-0.2-0.7-0.3-0.8c-0.2-0.2-0.4-0.3-0.8-0.3c-0.4,0-0.7,0.1-0.9,0.4c-0.2,0.3-0.3,0.7-0.3,1.3
		v0.5c0,0.6,0.1,1,0.3,1.3c0.2,0.3,0.5,0.5,0.9,0.5c0.4,0,0.6-0.1,0.8-0.2c0.2-0.2,0.3-0.4,0.4-0.8H137z"/>
	<path d="M138.8,38h1.1c0.3,0,0.6-0.1,0.8-0.2c0.2-0.2,0.3-0.4,0.3-0.7c0-0.3-0.1-0.5-0.3-0.7c-0.2-0.2-0.4-0.3-0.7-0.3h-1.2V38z
		 M138.8,38.7v2h-0.9v-5.4h2.1c0.6,0,1.1,0.2,1.4,0.5c0.4,0.3,0.5,0.7,0.5,1.2c0,0.5-0.2,0.9-0.5,1.2c-0.3,0.3-0.8,0.4-1.5,0.4
		H138.8z"/>
	<polygon points="145.8,38.3 143.6,38.3 143.6,40 146.2,40 146.2,40.7 142.7,40.7 142.7,35.3 146.2,35.3 146.2,36.1 143.6,36.1 
		143.6,37.6 145.8,37.6 	"/>
	<path d="M148,40h2.3v-3.9h-1.6l-0.1,1.5C148.6,38.6,148.4,39.4,148,40 M151.9,42.1H151v-1.3h-3.6v1.3h-0.9l0-2.1h0.4
		c0.2-0.2,0.4-0.5,0.5-0.9c0.1-0.4,0.2-0.8,0.2-1.4l0.1-2.4h3.4V40h0.7L151.9,42.1z"/>
	<polygon points="157,40.7 156,40.7 156,38.3 153.6,38.3 153.6,40.7 152.7,40.7 152.7,35.3 153.6,35.3 153.6,37.6 156,37.6 
		156,35.3 157,35.3 	"/>
	<polygon points="161.2,38.3 159,38.3 159,40 161.6,40 161.6,40.7 158,40.7 158,35.3 161.5,35.3 161.5,36.1 159,36.1 159,37.6 
		161.2,37.6 	"/>
	<polygon points="165.5,38.3 163.2,38.3 163.2,40 165.8,40 165.8,40.7 162.3,40.7 162.3,35.3 165.8,35.3 165.8,36.1 163.2,36.1 
		163.2,37.6 165.5,37.6 	"/>
	<polygon points="74.2,49.9 73.2,49.9 73.2,45.2 70.9,45.2 70.9,49.9 69.9,49.9 69.9,44.4 74.2,44.4 	"/>
	<path d="M76.2,47.1h1.1c0.3,0,0.6-0.1,0.8-0.2c0.2-0.2,0.3-0.4,0.3-0.7c0-0.3-0.1-0.5-0.3-0.7c-0.2-0.2-0.4-0.3-0.7-0.3h-1.2V47.1z
		 M76.2,47.9v2h-0.9v-5.4h2.1c0.6,0,1.1,0.2,1.4,0.5c0.4,0.3,0.5,0.7,0.5,1.3c0,0.5-0.2,0.9-0.5,1.2c-0.3,0.3-0.8,0.4-1.5,0.4H76.2z
		"/>
	<polygon points="83.3,47.4 81.1,47.4 81.1,49.1 83.7,49.1 83.7,49.9 80.1,49.9 80.1,44.4 83.6,44.4 83.6,45.2 81.1,45.2 81.1,46.7 
		83.3,46.7 	"/>
	<path d="M85.5,49.1h2.3v-3.9h-1.6l-0.1,1.5C86.1,47.8,85.8,48.5,85.5,49.1 M89.4,51.2h-0.9v-1.3h-3.6v1.3H84l0-2.1h0.4
		c0.2-0.2,0.4-0.5,0.5-0.9c0.1-0.4,0.2-0.8,0.2-1.4l0.1-2.4h3.4v4.7h0.7L89.4,51.2z"/>
	<polygon points="94.4,49.9 93.4,49.9 93.4,45.2 91.1,45.2 91.1,49.9 90.1,49.9 90.1,44.4 94.4,44.4 	"/>
	<path d="M96.4,47.1h1.1c0.3,0,0.6-0.1,0.8-0.2c0.2-0.2,0.3-0.4,0.3-0.7c0-0.3-0.1-0.5-0.3-0.7c-0.2-0.2-0.4-0.3-0.7-0.3h-1.2V47.1z
		 M96.4,47.9v2h-0.9v-5.4h2.1c0.6,0,1.1,0.2,1.4,0.5c0.4,0.3,0.5,0.7,0.5,1.3c0,0.5-0.2,0.9-0.5,1.2c-0.3,0.3-0.8,0.4-1.5,0.4H96.4z
		"/>
	<polygon points="103.6,44.4 104.6,44.4 104.6,49.9 103.6,49.9 103.6,46 101.3,49.9 100.3,49.9 100.3,44.4 101.3,44.4 101.3,48.3 	
		"/>
	<polygon points="110,49.9 109,49.9 109,47.5 106.6,47.5 106.6,49.9 105.7,49.9 105.7,44.4 106.6,44.4 106.6,46.7 109,46.7 
		109,44.4 110,44.4 	"/>
	<polygon points="114.4,44.4 115.3,44.4 115.3,49.9 114.4,49.9 114.4,46 112,49.9 111.1,49.9 111.1,44.4 112,44.4 112,48.3 	"/>
	<polygon points="117.6,44.4 119.2,48.6 120.7,44.4 122,44.4 122,49.9 121,49.9 121,48.1 121.1,45.7 119.5,49.9 118.8,49.9 
		117.2,45.7 117.3,48.1 117.3,49.9 116.4,49.9 116.4,44.4 	"/>
	<path d="M124.2,47.8h1.6l-0.8-2.2L124.2,47.8z M126.1,48.6H124l-0.4,1.3h-1l2-5.4h0.8l2,5.4h-1L126.1,48.6z"/>
	<polygon points="132,45.2 130.3,45.2 130.3,49.9 129.4,49.9 129.4,45.2 127.7,45.2 127.7,44.4 132,44.4 	"/>
	<polygon points="135.8,47.4 133.6,47.4 133.6,49.1 136.2,49.1 136.2,49.9 132.7,49.9 132.7,44.4 136.2,44.4 136.2,45.2 133.6,45.2 
		133.6,46.7 135.8,46.7 	"/>
	<path d="M141.2,44.4v5.4h-0.9v-4.7h-1.7l-0.1,2.1c0,0.7-0.1,1.2-0.2,1.5c-0.1,0.4-0.3,0.6-0.5,0.8c-0.2,0.2-0.5,0.2-0.9,0.2h-0.2
		v-0.8l0.1,0c0.2,0,0.4-0.1,0.5-0.2c0.1-0.1,0.2-0.3,0.3-0.6c0.1-0.3,0.1-0.7,0.1-1.2l0.1-2.7H141.2z"/>
	<path d="M143.2,47.3v1.8h1.1c0.3,0,0.6-0.1,0.7-0.3c0.2-0.2,0.3-0.4,0.3-0.7c0-0.3-0.1-0.5-0.3-0.6c-0.2-0.2-0.4-0.2-0.7-0.2H143.2
		z M143.2,46.5h1.1c0.4,0,0.7,0.1,1,0.2c0.3,0.1,0.5,0.3,0.7,0.6c0.2,0.3,0.2,0.5,0.2,0.9c0,0.5-0.2,0.9-0.5,1.2
		c-0.3,0.3-0.8,0.5-1.4,0.5h-2.1v-5.4h0.9V46.5z"/>
	<path d="M151.2,48.1c-0.1,0.6-0.3,1-0.6,1.4c-0.4,0.3-0.9,0.5-1.5,0.5c-0.4,0-0.8-0.1-1.1-0.3c-0.3-0.2-0.6-0.5-0.8-0.9
		c-0.2-0.4-0.3-0.8-0.3-1.3v-0.5c0-0.5,0.1-1,0.3-1.3c0.2-0.4,0.4-0.7,0.8-0.9c0.3-0.2,0.7-0.3,1.2-0.3c0.6,0,1.1,0.2,1.4,0.5
		c0.4,0.3,0.6,0.8,0.6,1.4h-0.9c0-0.4-0.2-0.7-0.3-0.8c-0.2-0.2-0.4-0.3-0.8-0.3c-0.4,0-0.7,0.1-0.9,0.4c-0.2,0.3-0.3,0.7-0.3,1.3
		v0.5c0,0.6,0.1,1,0.3,1.3c0.2,0.3,0.5,0.5,0.9,0.5c0.4,0,0.6-0.1,0.8-0.2c0.2-0.2,0.3-0.4,0.4-0.8H151.2z"/>
	<polygon points="155.9,45.2 154.2,45.2 154.2,49.9 153.3,49.9 153.3,45.2 151.6,45.2 151.6,44.4 155.9,44.4 	"/>
	<path d="M157.5,47.4v1.7h1c0.3,0,0.5-0.1,0.7-0.2c0.2-0.1,0.2-0.3,0.2-0.6c0-0.6-0.3-0.9-0.9-0.9H157.5z M157.5,46.7h0.9
		c0.3,0,0.5-0.1,0.7-0.2c0.2-0.1,0.2-0.3,0.2-0.6c0-0.3-0.1-0.5-0.2-0.6c-0.2-0.1-0.4-0.2-0.7-0.2h-0.9V46.7z M156.6,49.9v-5.4h1.9
		c0.6,0,1.1,0.1,1.4,0.4c0.3,0.2,0.5,0.6,0.5,1.1c0,0.2-0.1,0.5-0.2,0.7c-0.1,0.2-0.3,0.4-0.6,0.5c0.3,0.1,0.5,0.2,0.7,0.4
		c0.2,0.2,0.2,0.5,0.2,0.8c0,0.5-0.2,0.9-0.5,1.2c-0.3,0.3-0.8,0.4-1.4,0.4H156.6z"/>
	<path d="M164.7,47c0-0.6-0.1-1.1-0.3-1.4c-0.2-0.3-0.5-0.5-1-0.5c-0.4,0-0.7,0.2-1,0.5c-0.2,0.3-0.3,0.8-0.4,1.4v0.3
		c0,0.6,0.1,1.1,0.3,1.4c0.2,0.3,0.6,0.5,1,0.5c0.4,0,0.7-0.2,1-0.5c0.2-0.3,0.3-0.8,0.3-1.4V47z M165.7,47.3c0,0.5-0.1,1-0.3,1.4
		c-0.2,0.4-0.4,0.7-0.8,0.9c-0.3,0.2-0.7,0.3-1.2,0.3c-0.4,0-0.8-0.1-1.2-0.3c-0.3-0.2-0.6-0.5-0.8-0.9c-0.2-0.4-0.3-0.9-0.3-1.4V47
		c0-0.5,0.1-1,0.3-1.4c0.2-0.4,0.5-0.7,0.8-0.9c0.3-0.2,0.7-0.3,1.2-0.3s0.8,0.1,1.2,0.3c0.3,0.2,0.6,0.5,0.8,0.9
		c0.2,0.4,0.3,0.9,0.3,1.4V47.3z"/>
</g>
</svg>
