<?xml version="1.0" encoding="utf-8"?>
<!-- Generator: Adobe Illustrator 23.0.0, SVG Export Plug-In . SVG Version: 6.00 Build 0)  -->
<svg version="1.1" id="Layer_1" xmlns="http://www.w3.org/2000/svg" xmlns:xlink="http://www.w3.org/1999/xlink" x="0px" y="0px"
	 viewBox="0 0 340.1 160" style="enable-background:new 0 0 340.1 160;" xml:space="preserve">
<style type="text/css">
	.st0{fill:#242122;stroke:#242122;stroke-width:0.1;stroke-miterlimit:10;}
	.st1{fill:none;stroke:#242021;stroke-width:0.4;stroke-miterlimit:10;}
	.st2{fill:#615F5B;}
	.st3{fill:#FFFFFF;}
</style>
<g>
	<path d="M71.1,119.6c2.1-0.1,4.2-0.4,6.3-0.8c4.2-0.9,8.2-2.3,11.9-4.3c1.5-0.8,2.9-1.6,4.3-2.6c3.6-2.5,6.9-5.4,9.7-8.8
		c1.7-2,3.1-4.1,4.4-6.4c-3.5,4.2-8.8,6.3-14.1,7.4c-0.9,0.2-1.8,0.3-2.7,0.5c-3.1,0.4-6.3,0.6-9.4,0.6c-2.3,0-4.5-0.1-6.8-0.3
		c0,0,0,0,0,0c0,0,0,0,0,0c-2.9-0.2-5.8-0.7-8.6-1.4c-2-0.4-3.9-0.9-5.7-1.5c-4.7-1.5-8.7-3.6-12.3-6.5c-0.3-0.3-0.6-0.5-0.9-0.7
		c-0.5-0.4-1-0.9-1.5-1.3c-0.4-0.4-0.9-0.8-1.3-1.2c-1.3-1.3-2.5-2.6-3.6-4c-0.1-0.2-0.3-0.3-0.4-0.5l0,0c-2-2.3-3.6-4.9-4.9-7.6
		c-2.1-4.5-3.1-9.2-3.1-14.1c0-2.7,0.3-5.5,1-8.1c1.4-5.6,4.1-10.9,8-15.3c0.6-0.7,1.3-1.4,2-2.1c-0.5,0.4-1.1,0.8-1.6,1.2
		c-5.2,4.1-8.5,9.5-10.4,15.5C29.6,62.7,29,68.7,29,74.5c0,0.4,0,0.8,0,1.1c0,0.5,0,1,0,1.5c0,0.2,0,0.5,0,0.7c0,0.5,0,1.1,0.1,1.6
		c0.6,9.4,2.6,19.3,8,27.2c0.4,0.5,0.7,1,1.1,1.5c2.3,2.9,5.1,5.2,8.1,7.1c0.8,0.4,1.6,0.7,2.4,1.1c3.6,1.4,9.2,3.2,15.5,3.2
		C66.7,119.6,68.9,119.8,71.1,119.6"/>
	<path d="M124.9,110.4c0.1-0.4,0.3-0.9,0.5-1.3c0.1-0.3,0.3-0.7,0.5-1c0.3-0.7,0.5-1.3,0.5-1.3c1.6-4,2.3-8.8,2.3-15.2
		c0-6.2-1.7-12.6-5.1-18.9c-0.4-0.7-0.8-1.4-1.2-2c-2.8-4.6-6.5-8.5-10.9-11.7c-1.5-1.1-3-1.9-4.6-2.7c5.4,4.8,7,12.3,7,19.4
		c0,0.2,0,0.5,0,0.7c0,0.3,0,0.6,0,0.9c0,0.1,0,0.3,0,0.4c0,0.3,0,0.7,0,1c-0.1,1.8-0.3,3.7-0.6,5.5c-0.1,1.6-0.4,3.3-0.6,5
		c-0.2,1-0.3,2-0.4,2.9c0,0.2-0.1,0.4-0.1,0.6l0,0l0,0c-0.1,0.6-0.2,1.2-0.3,1.8c-0.3,2-0.6,3.8-0.5,5.7c0,4.4,1.1,9.1,2.9,13.2
		c1.1,2.4,2.4,4.6,4,6.7c0,0.1,0.1,0.1,0.1,0.2c0,0.1,0.1,0.1,0.1,0.2c1.8,2.3,3.8,4.3,6.1,6c0.3,0.2,1.1,0.8,2,1.4
		c0.3-0.9-0.7-2.2-1.2-3.4c-1.4-3.2-1.8-6.8-1.4-10.3C124.2,112.9,124.5,111.6,124.9,110.4"/>
	<path d="M69.6,104.1c-0.4-0.1-0.7-0.1-1.1-0.2c-0.7-0.1-1.5-0.2-2.2-0.4c2.8,0.7,5.6,1.2,8.6,1.4c-0.9-0.1-1.8-0.2-2.6-0.3
		C71.3,104.5,70.4,104.3,69.6,104.1"/>
	<path d="M134,67.3c-1-9.7-4.3-19-12.2-25.3c-0.1-0.1-0.2-0.2-0.3-0.3c-8.6-6.7-19.9-8.5-30.4-9.2c-0.6,0-1.1-0.1-1.7-0.1
		c-0.9-0.1-1.9-0.1-2.8-0.1c-1.1,0-2.3-0.1-3.4-0.1c-0.5,0-1,0-1.4,0h-0.1c-0.5,0-1,0-1.4,0c-1.1,0-2.3,0-3.4,0.1
		c-1.5,0.1-3,0.1-4.5,0.2c-2.9,0.2-5.9,0.5-8.9,0.9c-2.9,0.4-5.9,0.9-8.7,2c0,0,0,0,0,0c0,0,0,0,0,0c-4.3,1.8-8.3,4.7-11.7,8.5
		c-3.6,4.2-6.2,9.2-7.5,14.5c-0.6,2.5-0.9,5-0.9,7.6c0,4.6,1,9.1,2.9,13.3c1.2,2.6,2.7,5,4.6,7.2c0.2,0.2,0.3,0.4,0.5,0.6
		c1.1,1.3,2.3,2.6,3.5,3.9c0.4,0.4,0.8,0.8,1.3,1.2c0.5,0.4,0.9,0.8,1.4,1.2c0.3,0.2,0.5,0.4,0.9,0.7c2.4,1.9,5,3.5,7.9,4.7
		c-0.7-0.6-1.3-1.2-1.8-1.8c-0.2-0.2-0.4-0.4-0.5-0.6c-0.2-0.3-0.5-0.6-0.7-0.9c-3.3-4.8-4.6-10.9-4.9-16.7c0-0.3,0-0.7,0-1
		c0-0.1,0-0.3,0-0.4c0-0.2,0-0.3,0-0.5c0-0.1,0-0.3,0-0.4c0-0.2,0-0.5,0-0.7c0-7.5,1.7-15.3,7.9-20.1c5.2-4.1,12.2-5.2,18.7-5.7
		c0.9-0.1,1.8-0.1,2.8-0.1c0.7,0,1.4,0,2.1,0c0.3,0,0.6,0,0.9,0c0.3,0,0.6,0,0.9,0c0.7,0,1.4,0,2.1,0c0.9,0,1.8,0.1,2.8,0.1
		c7.1,0.5,14.3,1.6,20.7,4.8c0.8,0.4,1.6,0.8,2.4,1.3c0.7,0.4,1.4,0.9,2.1,1.4c4.6,3.3,8.4,7.5,11.4,12.3c0.4,0.7,0.8,1.4,1.2,2.1
		c3.5,6.6,5.3,13.3,5.3,19.8c0,2.7-0.1,5.1-0.4,7.4c0.6-1.4,1.1-2.9,1.5-4.4c1.4-4.9,2.1-10,2.4-15.1c0-0.5,0.1-1.1,0.1-1.6
		c0-0.2,0-0.5,0-0.7c0-0.5,0-1,0-1.5c0-0.4,0-0.7,0-1.1v-0.3C134.3,71.9,134.2,69.6,134,67.3"/>
	<path d="M116.9,121.7c0,0-0.1-0.1-0.1-0.1c-0.1-0.1-0.1-0.1-0.2-0.2c-1.7-2.2-3.1-4.6-4.2-7.1c-2-4.4-3-9.3-3.1-14
		c0-0.7,0-1.5,0.1-2.2c-1.3,2.2-2.8,4.4-4.5,6.4c-2.9,3.5-6.3,6.6-10.1,9.2c-7.9,5.3-17.1,8.1-26.6,8.1c-0.7,0-1.4,0-2-0.1
		c-0.3,0-0.6,0-0.9-0.1c0.3,0.1,0.7,0.1,1,0.1c5.1,0.7,10.3,1,15.4,1c5.1,0,10.3-0.3,15.4-1c0.4-0.1,0.8-0.1,1.1-0.2
		c4.2-0.7,6.5-0.4,7.9,0c2.5,0.7,4.7,1.8,7,3c1.8,0.9,3.6,1.9,5.6,2.7c1.4,0.6,3.9,1.6,5.8,1.6c-0.5-0.4-0.9-0.7-1.1-0.8
		C121,126.3,118.8,124.1,116.9,121.7"/>
	<path d="M151.2,52.3V35.8h1.7v14.6h6.5v5.3h-1.6v-3.4H151.2z M156.8,50.4V35.8h1.7v13.8L156.8,50.4z"/>
	<path d="M163,47.2l-0.7-1.8v3.5c0,0.5,0.1,0.9,0.4,1.2c0.3,0.3,0.7,0.5,1.3,0.5h2.9v1.8H164c-0.6,0-1-0.1-1.4-0.3
		c-0.4-0.2-0.8-0.4-1-0.7c-0.3-0.3-0.5-0.7-0.6-1.1c-0.1-0.4-0.2-0.9-0.2-1.4v-5c0-0.5,0.1-0.9,0.2-1.3c0.1-0.4,0.3-0.8,0.6-1.1
		c0.3-0.3,0.6-0.6,1-0.7c0.4-0.2,0.9-0.3,1.4-0.3c0.5,0,1,0.1,1.4,0.2c0.4,0.2,0.7,0.4,1,0.7c0.3,0.3,0.5,0.6,0.6,1
		c0.1,0.4,0.2,0.8,0.2,1.2v3.6H163z M162.3,45.4h3.3v-1.8c0-0.4-0.1-0.7-0.4-1c-0.3-0.3-0.7-0.4-1.2-0.4c-0.6,0-1,0.2-1.3,0.5
		c-0.3,0.3-0.4,0.7-0.4,1.1V45.4z"/>
	<polygon points="171,45.5 171,52.3 169.4,52.3 169.4,40.5 171,40.5 171,45.5 174.3,45.5 174.3,40.5 175.9,40.5 175.9,52.3 
		174.3,52.3 174.3,47.3 171.7,47.3 	"/>
	<path d="M177.5,40.5h6.1v1.9h-6.1V40.5z M181.3,42.5v9.9h-1.6v-9.2L181.3,42.5z"/>
	<path d="M186.7,50.5v7.7h-1.6V40.5h3.4c0.6,0,1,0.1,1.4,0.3c0.4,0.2,0.8,0.4,1,0.8c0.3,0.3,0.5,0.7,0.6,1.1
		c0.1,0.4,0.2,0.9,0.2,1.3v4.8c0,0.5-0.1,0.9-0.2,1.3c-0.1,0.4-0.3,0.8-0.6,1.1c-0.3,0.3-0.6,0.6-1,0.8c-0.4,0.2-0.9,0.3-1.4,0.3
		h-1.1L186.7,50.5z M186.7,50.5h1.8c0.6,0,1-0.2,1.3-0.5s0.4-0.7,0.4-1.2V44c0-0.5-0.1-0.8-0.4-1.2c-0.3-0.3-0.7-0.5-1.3-0.5h-1.8
		V50.5z"/>
	<path d="M199.7,50.5v7.7h-1.6V40.5h3.4c0.6,0,1,0.1,1.4,0.3c0.4,0.2,0.8,0.4,1,0.8c0.3,0.3,0.5,0.7,0.6,1.1
		c0.1,0.4,0.2,0.9,0.2,1.3v4.8c0,0.5-0.1,0.9-0.2,1.3c-0.1,0.4-0.3,0.8-0.6,1.1c-0.3,0.3-0.6,0.6-1,0.8c-0.4,0.2-0.9,0.3-1.4,0.3
		h-1.1L199.7,50.5z M199.7,50.5h1.8c0.6,0,1-0.2,1.3-0.5c0.3-0.3,0.4-0.7,0.4-1.2V44c0-0.5-0.1-0.8-0.4-1.2
		c-0.3-0.3-0.7-0.5-1.3-0.5h-1.8V50.5z"/>
	<path d="M206.6,49.1c0-0.6,0.1-1.1,0.3-1.5c0.2-0.4,0.4-0.8,0.7-1.1c0.3-0.3,0.6-0.5,1-0.7c0.4-0.2,0.8-0.3,1.2-0.4l1.2-0.2
		l0.6,1.7l-1.6,0.3c-0.5,0.1-0.9,0.3-1.2,0.6c-0.4,0.3-0.5,0.7-0.5,1.3c0,0.2,0,0.4,0.1,0.6c0,0.2,0.1,0.3,0.2,0.5
		c0.1,0.1,0.3,0.2,0.5,0.3c0.2,0.1,0.5,0.1,0.8,0.1c0.6,0,1.1-0.2,1.4-0.6c0.3-0.4,0.5-0.8,0.5-1.4V44c0-0.5-0.1-0.8-0.4-1.2
		c-0.3-0.3-0.6-0.5-1.1-0.5h-2.8v-1.8h2.8c0.5,0,0.9,0.1,1.3,0.3c0.4,0.2,0.7,0.4,1,0.8c0.3,0.3,0.5,0.7,0.6,1.1
		c0.1,0.4,0.2,0.9,0.2,1.3v8.3h-1.1l-0.2-0.8c-0.5,0.6-1.3,0.9-2.2,0.9c-0.6,0-1.1-0.1-1.5-0.2c-0.4-0.2-0.7-0.4-0.9-0.7
		c-0.2-0.3-0.4-0.7-0.5-1.1C206.7,50,206.6,49.6,206.6,49.1"/>
	<path d="M218.8,50.1c0.3-0.3,0.4-0.7,0.4-1.3c0-0.5-0.1-0.9-0.4-1.1c-0.3-0.2-0.7-0.4-1.3-0.4h-1.2l-0.7-1.8h1.9
		c0.5,0,0.9-0.1,1.2-0.4c0.3-0.3,0.5-0.7,0.5-1.2c0-0.5-0.2-0.9-0.5-1.1c-0.3-0.3-0.7-0.4-1.2-0.4h-2.7v-1.8h2.7
		c1,0,1.8,0.3,2.4,0.9c0.6,0.6,0.9,1.4,0.9,2.4c0,0.6-0.1,1.1-0.4,1.5c-0.3,0.4-0.6,0.7-1,1c0.4,0.3,0.8,0.6,1,1
		c0.3,0.4,0.4,0.9,0.4,1.5c0,0.5-0.1,1-0.2,1.4c-0.2,0.4-0.4,0.8-0.7,1.1c-0.3,0.3-0.6,0.5-1,0.7c-0.4,0.2-0.9,0.2-1.4,0.2h-2.7
		v-1.8h2.8C218.1,50.5,218.5,50.4,218.8,50.1"/>
	<path d="M222.7,52.3V40.5h3.3c1,0,1.7,0.3,2.2,0.8c0.5,0.6,0.8,1.3,0.8,2.1v0.9c0,0.4-0.1,0.8-0.3,1.1c-0.2,0.3-0.5,0.6-0.8,0.8
		c0.4,0.2,0.7,0.5,1,0.8c0.2,0.3,0.4,0.8,0.4,1.3v0.9c0,1-0.3,1.7-0.9,2.3c-0.6,0.5-1.4,0.8-2.4,0.8H222.7z M226,45.5
		c0.5,0,0.8-0.1,1.1-0.2c0.3-0.2,0.4-0.4,0.4-0.8v-0.9c0-0.4-0.1-0.6-0.3-0.9c-0.2-0.2-0.6-0.3-1.1-0.3h-1.7v3.1H226z M225,47.3
		l-0.7-1.8v5.1h1.8c0.6,0,1-0.1,1.2-0.3c0.2-0.2,0.4-0.5,0.4-0.9v-0.9c0-0.4-0.1-0.7-0.4-0.9c-0.3-0.2-0.7-0.2-1.3-0.2H225z"/>
	<path d="M236.1,45.4c0-0.3,0-0.6,0-0.9l-3.5,7.8h-1.5V40.5h1.6v6v0.9c0,0.3,0,0.6,0,0.9l3.5-7.8h1.5v11.8h-1.6v-6V45.4z"/>
	<path d="M239.3,40.5h6.1v1.9h-6.1V40.5z M243.1,42.5v9.9h-1.6v-9.2L243.1,42.5z"/>
	<path d="M251.9,45.4c0-0.3,0-0.6,0-0.9l-3.5,7.8h-1.5V40.5h1.6v6v0.9c0,0.3,0,0.6,0,0.9l3.5-7.8h1.5v11.8h-1.6v-6V45.4z"/>
	<path d="M259.9,46.6l0.7,1.8H259c-0.3,0.6-0.6,1.3-1,2c-0.3,0.7-0.7,1.3-1,1.9h-1.7l2.1-4.3c-0.5-0.3-0.9-0.6-1.2-1.1
		c-0.3-0.5-0.4-1.2-0.4-2.1V44c0-1.1,0.3-1.9,0.9-2.5c0.6-0.6,1.4-0.9,2.4-0.9h3.1v11.8h-1.6v-10h-1.6c-0.5,0-0.9,0.1-1.2,0.4
		c-0.3,0.3-0.4,0.7-0.4,1.2v0.9c0,0.6,0.2,1.1,0.5,1.3c0.3,0.3,0.7,0.4,1.2,0.4H259.9z"/>
	<path d="M156.1,68.7c0-0.3,0-0.6,0-0.9l-3.5,7.8h-1.5V63.8h1.6v6v0.9c0,0.3,0,0.6,0,0.9l3.5-7.8h1.5v11.8h-1.6v-6V68.7z"/>
	<polygon points="165.7,65.6 165.7,75.6 164.1,75.6 164.1,66.4 165.7,65.6 164.1,65.6 164.1,63.8 170.6,63.8 170.6,75.6 169,75.6 
		169,65.6 	"/>
	<path d="M176.2,73.9c0.6,0,1-0.2,1.3-0.5c0.3-0.3,0.5-0.7,0.5-1.2v-4.2l1.6-0.8v5c0,0.5-0.1,0.9-0.2,1.4c-0.1,0.4-0.4,0.8-0.6,1.1
		c-0.3,0.3-0.6,0.6-1.1,0.8c-0.4,0.2-0.9,0.3-1.4,0.3c-0.6,0-1-0.1-1.5-0.3c-0.4-0.2-0.8-0.4-1-0.8c-0.3-0.3-0.5-0.7-0.6-1.1
		c-0.1-0.4-0.2-0.9-0.2-1.4v-5c0-0.5,0.1-0.9,0.2-1.4c0.1-0.4,0.4-0.8,0.6-1.1c0.3-0.3,0.6-0.6,1-0.8c0.4-0.2,0.9-0.3,1.5-0.3
		c0.5,0,1,0.1,1.4,0.3c0.4,0.2,0.8,0.4,1.1,0.8c0.3,0.3,0.5,0.7,0.6,1.1c0.1,0.4,0.2,0.9,0.2,1.4H178c0-0.5-0.1-0.9-0.4-1.2
		c-0.3-0.3-0.7-0.5-1.3-0.5c-0.6,0-1,0.2-1.3,0.5c-0.3,0.3-0.4,0.7-0.4,1.2v5c0,0.5,0.1,0.9,0.4,1.2
		C175.2,73.7,175.6,73.9,176.2,73.9"/>
	<path d="M182.8,66.3l1.6-0.7h-1.6c0-0.3,0-0.6,0-0.9c0-0.3,0-0.6,0.1-0.9h4.8v9.3l-1.6,0.7v-8.2h-1.8c-0.1,2-0.2,3.6-0.4,5
		c-0.2,1.3-0.4,2.4-0.7,3.2h5.4V78h-1.6v-2.4h-4.8V78h-1.6l0.1-4.2c0.3,0,0.5-0.1,0.8-0.4c0.2-0.3,0.4-0.7,0.5-1.3
		c0.2-0.6,0.3-1.4,0.4-2.3C182.6,68.9,182.7,67.7,182.8,66.3"/>
	<path d="M191,66.3l1.6-0.7h-1.6c0-0.3,0-0.6,0-0.9c0-0.3,0-0.6,0.1-0.9h4.8v9.3l-1.6,0.7v-8.2h-1.8c-0.1,2-0.2,3.6-0.4,5
		c-0.2,1.3-0.4,2.4-0.7,3.2h5.4V78h-1.6v-2.4h-4.8V78H189l0.1-4.2c0.3,0,0.5-0.1,0.8-0.4c0.2-0.3,0.4-0.7,0.5-1.3
		c0.2-0.6,0.3-1.4,0.4-2.3C190.9,68.9,190.9,67.7,191,66.3"/>
	<path d="M200.4,70.4l-0.7-1.8v3.5c0,0.5,0.1,0.9,0.4,1.2c0.3,0.3,0.7,0.5,1.3,0.5h2.9v1.8h-2.9c-0.6,0-1-0.1-1.4-0.3
		c-0.4-0.2-0.8-0.4-1-0.7c-0.3-0.3-0.5-0.7-0.6-1.1c-0.1-0.4-0.2-0.9-0.2-1.4v-5c0-0.5,0.1-0.9,0.2-1.3c0.1-0.4,0.3-0.8,0.6-1.1
		c0.3-0.3,0.6-0.6,1-0.7c0.4-0.2,0.9-0.3,1.4-0.3c0.5,0,1,0.1,1.4,0.2c0.4,0.2,0.7,0.4,1,0.7c0.3,0.3,0.5,0.6,0.6,1
		c0.1,0.4,0.2,0.8,0.2,1.2v3.6H200.4z M199.7,68.6h3.3v-1.8c0-0.4-0.1-0.7-0.4-1c-0.3-0.3-0.7-0.4-1.2-0.4c-0.6,0-1,0.2-1.3,0.5
		c-0.3,0.3-0.4,0.7-0.4,1.1V68.6z"/>
	<path d="M208.4,73.8v7.7h-1.6V63.8h3.4c0.6,0,1,0.1,1.4,0.3c0.4,0.2,0.8,0.4,1,0.8c0.3,0.3,0.5,0.7,0.6,1.1
		c0.1,0.4,0.2,0.9,0.2,1.3v4.8c0,0.5-0.1,0.9-0.2,1.3c-0.1,0.4-0.3,0.8-0.6,1.1c-0.3,0.3-0.6,0.6-1,0.8c-0.4,0.2-0.9,0.3-1.4,0.3
		h-1.1L208.4,73.8z M208.4,73.8h1.8c0.6,0,1-0.2,1.3-0.5c0.3-0.3,0.4-0.7,0.4-1.2v-4.8c0-0.5-0.1-0.8-0.4-1.2
		c-0.3-0.3-0.7-0.5-1.3-0.5h-1.8V73.8z"/>
	<path d="M220,63.8h1.6v4.8h0.4c0.5-0.8,0.9-1.6,1.4-2.4c0.5-0.8,1-1.6,1.4-2.4h1.8l-3.4,5.8c0.3,0.5,0.5,0.9,0.8,1.5
		c0.3,0.5,0.6,1,0.9,1.6c0.3,0.5,0.6,1.1,0.9,1.6c0.3,0.5,0.6,1,0.8,1.4h-1.9l-3.2-5.8v5.8H220v-5.2h-0.3l-2.9,5.2H215l3.4-6
		c-0.3-0.4-0.5-0.9-0.8-1.4c-0.3-0.5-0.6-1-0.9-1.5c-0.3-0.5-0.6-1-0.9-1.5c-0.3-0.5-0.6-1-0.8-1.4h1.9l3.2,5.5V63.8z"/>
	<path d="M228.3,63.8h1.6v4.8h0.4c0.5-0.8,0.9-1.6,1.4-2.4c0.5-0.8,1-1.6,1.4-2.4h1.8l-3.4,5.8c0.3,0.5,0.5,0.9,0.8,1.5
		c0.3,0.5,0.6,1,0.9,1.6c0.3,0.5,0.6,1.1,0.9,1.6c0.3,0.5,0.6,1,0.8,1.4H233l-3.2-5.8v5.8h-1.6V63.8z"/>
	<path d="M241.6,68.7c0-0.3,0-0.6,0-0.9l-3.5,7.8h-1.5V63.8h1.6v6v0.9c0,0.3,0,0.6,0,0.9l3.5-7.8h1.5v11.8h-1.6v-6V68.7z"/>
	<polygon points="152.7,88.9 152.7,98.9 151.2,98.9 151.2,89.6 152.7,88.9 151.2,88.9 151.2,87.1 157.7,87.1 157.7,98.9 156.1,98.9 
		156.1,88.9 	"/>
	<path d="M161.7,97.1v7.7h-1.6V87.1h3.4c0.6,0,1,0.1,1.4,0.3c0.4,0.2,0.8,0.4,1,0.8c0.3,0.3,0.5,0.7,0.6,1.1
		c0.1,0.4,0.2,0.9,0.2,1.3v4.8c0,0.5-0.1,0.9-0.2,1.3c-0.1,0.4-0.3,0.8-0.6,1.1c-0.3,0.3-0.6,0.6-1,0.8c-0.4,0.2-0.9,0.3-1.4,0.3
		h-1.1L161.7,97.1z M161.7,97.1h1.8c0.6,0,1-0.2,1.3-0.5c0.3-0.3,0.4-0.7,0.4-1.2v-4.8c0-0.5-0.1-0.8-0.4-1.2
		c-0.3-0.3-0.7-0.5-1.3-0.5h-1.8V97.1z"/>
	<path d="M171.1,93.7l-0.7-1.8v3.5c0,0.5,0.1,0.9,0.4,1.2c0.3,0.3,0.7,0.5,1.3,0.5h2.9v1.8h-2.9c-0.6,0-1-0.1-1.4-0.3
		c-0.4-0.2-0.8-0.4-1-0.7c-0.3-0.3-0.5-0.7-0.6-1.1c-0.1-0.4-0.2-0.9-0.2-1.4v-5c0-0.5,0.1-0.9,0.2-1.3c0.1-0.4,0.3-0.8,0.6-1.1
		c0.3-0.3,0.6-0.6,1-0.7c0.4-0.2,0.9-0.3,1.4-0.3c0.5,0,1,0.1,1.4,0.2c0.4,0.2,0.7,0.4,1,0.7c0.3,0.3,0.5,0.6,0.6,1
		c0.1,0.4,0.2,0.8,0.2,1.2v3.6H171.1z M170.4,91.9h3.3v-1.8c0-0.4-0.1-0.7-0.4-1c-0.3-0.3-0.7-0.4-1.2-0.4c-0.6,0-1,0.2-1.3,0.5
		c-0.3,0.3-0.4,0.7-0.4,1.1V91.9z"/>
	<path d="M178.5,89.6l1.6-0.7h-1.6c0-0.3,0-0.6,0-0.9c0-0.3,0-0.6,0.1-0.9h4.8v9.3l-1.6,0.7v-8.2h-1.8c-0.1,2-0.2,3.6-0.4,5
		c-0.2,1.3-0.4,2.4-0.7,3.2h5.4v4.2h-1.6v-2.4H178v2.4h-1.6l0.1-4.2c0.3,0,0.5-0.1,0.8-0.4c0.2-0.3,0.4-0.7,0.5-1.3
		c0.2-0.6,0.3-1.4,0.4-2.3C178.3,92.1,178.4,91,178.5,89.6"/>
	<polygon points="187.3,88.9 187.3,98.9 185.8,98.9 185.8,89.6 187.3,88.9 185.8,88.9 185.8,87.1 192.3,87.1 192.3,98.9 190.7,98.9 
		190.7,88.9 	"/>
	<path d="M196.3,97.1v7.7h-1.6V87.1h3.4c0.6,0,1,0.1,1.4,0.3c0.4,0.2,0.8,0.4,1,0.8c0.3,0.3,0.5,0.7,0.6,1.1
		c0.1,0.4,0.2,0.9,0.2,1.3v4.8c0,0.5-0.1,0.9-0.2,1.3c-0.1,0.4-0.3,0.8-0.6,1.1c-0.3,0.3-0.6,0.6-1,0.8c-0.4,0.2-0.9,0.3-1.4,0.3
		H197L196.3,97.1z M196.3,97.1h1.8c0.6,0,1-0.2,1.3-0.5c0.3-0.3,0.4-0.7,0.4-1.2v-4.8c0-0.5-0.1-0.8-0.4-1.2
		c-0.3-0.3-0.7-0.5-1.3-0.5h-1.8V97.1z"/>
	<path d="M208.5,91.9c0-0.3,0-0.6,0-0.9l-3.5,7.8h-1.5V87.1h1.6v6V94c0,0.3,0,0.6,0,0.9l3.5-7.8h1.5v11.8h-1.6v-6V91.9z"/>
	<polygon points="214.1,92.1 214.1,98.9 212.5,98.9 212.5,87.1 214.1,87.1 214.1,92.1 217.5,92.1 217.5,87.1 219,87.1 219,98.9 
		217.5,98.9 217.5,93.9 214.8,93.9 	"/>
	<path d="M226.4,91.9c0-0.3,0-0.6,0-0.9l-3.5,7.8h-1.5V87.1h1.6v6V94c0,0.3,0,0.6,0,0.9l3.5-7.8h1.5v11.8h-1.6v-6V91.9z"/>
	<path d="M236.6,87.1h1.9v11.8h-1.6v-4.3v-1.6c0-0.5,0-1.1,0-1.6c-0.1,0.3-0.1,0.5-0.2,0.7c-0.1,0.2-0.2,0.5-0.3,0.7l0,0
		c-0.2,0.6-0.5,1.3-0.7,2c-0.3,0.7-0.5,1.4-0.7,2h-1.3l-1.4-4l0,0c-0.1-0.3-0.2-0.5-0.3-0.7c-0.1-0.2-0.2-0.5-0.2-0.7
		c0,0.6,0,1.1,0,1.6c0,0.5,0,1.1,0,1.6v4.3h-1.6V87.1h1.9l1.8,5.5l0.4,1.5c0.1-0.3,0.1-0.5,0.2-0.7c0.1-0.2,0.2-0.5,0.2-0.7
		L236.6,87.1z"/>
	<path d="M240.5,95.6c0-0.6,0.1-1.1,0.3-1.5c0.2-0.4,0.4-0.8,0.7-1.1c0.3-0.3,0.6-0.5,1-0.7c0.4-0.2,0.8-0.3,1.2-0.4l1.2-0.2
		l0.6,1.7l-1.6,0.3c-0.5,0.1-0.9,0.3-1.2,0.6c-0.4,0.3-0.5,0.7-0.5,1.3c0,0.2,0,0.4,0.1,0.6c0,0.2,0.1,0.3,0.2,0.5
		c0.1,0.1,0.3,0.2,0.5,0.3c0.2,0.1,0.5,0.1,0.8,0.1c0.6,0,1.1-0.2,1.4-0.6c0.3-0.4,0.5-0.8,0.5-1.4v-4.6c0-0.5-0.1-0.8-0.4-1.2
		c-0.3-0.3-0.6-0.5-1.1-0.5h-2.8v-1.8h2.8c0.5,0,0.9,0.1,1.3,0.3c0.4,0.2,0.7,0.4,1,0.8c0.3,0.3,0.5,0.7,0.6,1.1
		c0.1,0.4,0.2,0.9,0.2,1.3v8.3H246l-0.2-0.8c-0.5,0.6-1.3,0.9-2.2,0.9c-0.6,0-1.1-0.1-1.5-0.2c-0.4-0.2-0.7-0.4-0.9-0.7
		c-0.2-0.3-0.4-0.7-0.5-1.1C240.6,96.6,240.5,96.1,240.5,95.6"/>
	<path d="M248.5,87.1h6.1V89h-6.1V87.1z M252.4,89v9.9h-1.6v-9.2L252.4,89z"/>
	<path d="M258.3,93.7l-0.7-1.8v3.5c0,0.5,0.1,0.9,0.4,1.2c0.3,0.3,0.7,0.5,1.3,0.5h2.9v1.8h-2.9c-0.6,0-1-0.1-1.4-0.3
		c-0.4-0.2-0.8-0.4-1-0.7c-0.3-0.3-0.5-0.7-0.6-1.1c-0.1-0.4-0.2-0.9-0.2-1.4v-5c0-0.5,0.1-0.9,0.2-1.3c0.1-0.4,0.3-0.8,0.6-1.1
		c0.3-0.3,0.6-0.6,1-0.7c0.4-0.2,0.9-0.3,1.4-0.3c0.5,0,1,0.1,1.4,0.2c0.4,0.2,0.7,0.4,1,0.7c0.3,0.3,0.5,0.6,0.6,1
		c0.1,0.4,0.2,0.8,0.2,1.2v3.6H258.3z M257.6,91.9h3.3v-1.8c0-0.4-0.1-0.7-0.4-1c-0.3-0.3-0.7-0.4-1.2-0.4c-0.6,0-1,0.2-1.3,0.5
		c-0.3,0.3-0.4,0.7-0.4,1.1V91.9z"/>
	<path d="M267.4,88.9c-0.1,1.7-0.1,3.2-0.3,4.5c-0.1,1.3-0.3,2.3-0.5,3.1c-0.2,0.8-0.5,1.4-0.8,1.8c-0.3,0.4-0.7,0.6-1.2,0.6h-0.9
		v-1.8h0.9c0.2,0,0.3-0.1,0.5-0.4c0.1-0.3,0.2-0.7,0.3-1.3c0.1-0.6,0.2-1.4,0.2-2.3c0.1-1,0.1-2.1,0.2-3.5L267.4,88.9h-1.6l0.1-1.8
		h4.8v11.8h-1.6v-10H267.4z"/>
	<path d="M274.7,91h1.5c0.5,0,0.9,0.1,1.3,0.2c0.4,0.1,0.7,0.3,1,0.6c0.3,0.3,0.5,0.6,0.7,1.1c0.2,0.4,0.2,1,0.2,1.6v0.9
		c0,1.1-0.3,1.9-0.9,2.5c-0.6,0.6-1.4,0.9-2.3,0.9h-3.1V87.1h1.6V91z M274.7,91v6h1.6c0.5,0,0.9-0.1,1.2-0.4
		c0.3-0.3,0.4-0.7,0.4-1.2v-0.9c0-0.6-0.2-1.1-0.5-1.3c-0.3-0.3-0.7-0.4-1.2-0.4h-0.8L274.7,91z"/>
	<path d="M281.2,90.5c0-0.5,0.1-0.9,0.3-1.3c0.2-0.4,0.4-0.8,0.6-1.1c0.3-0.3,0.6-0.6,1-0.7c0.4-0.2,0.9-0.3,1.4-0.3h2.4v1.8h-2.4
		c-0.5,0-0.9,0.1-1.2,0.4c-0.3,0.3-0.5,0.7-0.5,1.1H281.2z M282.8,90.5c0,0.1,0,0.2,0,0.3v4.4c0,0.5,0.1,1,0.4,1.3
		c0.3,0.4,0.7,0.6,1.3,0.6h2.4v1.8h-2.4c-0.6,0-1-0.1-1.4-0.3c-0.4-0.2-0.8-0.5-1-0.8c-0.3-0.3-0.5-0.7-0.6-1.2
		c-0.1-0.4-0.2-0.9-0.2-1.4v-3.8L282.8,90.5z"/>
	<path d="M288.9,87.1h6.1V89h-6.1V87.1z M292.7,89v9.9h-1.6v-9.2L292.7,89z"/>
	<path d="M296.5,98.9V87.1h3.3c1,0,1.7,0.3,2.2,0.8c0.5,0.6,0.8,1.3,0.8,2.1v0.9c0,0.4-0.1,0.8-0.3,1.1c-0.2,0.3-0.5,0.6-0.8,0.8
		c0.4,0.2,0.7,0.5,1,0.8c0.2,0.3,0.4,0.8,0.4,1.3v0.9c0,1-0.3,1.7-0.9,2.3c-0.6,0.5-1.4,0.8-2.4,0.8H296.5z M299.8,92
		c0.5,0,0.8-0.1,1.1-0.2c0.3-0.2,0.4-0.4,0.4-0.8v-0.9c0-0.4-0.1-0.6-0.3-0.9c-0.2-0.2-0.6-0.3-1.1-0.3h-1.7V92H299.8z M298.8,93.8
		l-0.7-1.8v5.1h1.8c0.6,0,1-0.1,1.2-0.3c0.2-0.2,0.4-0.5,0.4-0.9V95c0-0.4-0.1-0.7-0.4-0.9c-0.3-0.2-0.7-0.2-1.3-0.2H298.8z"/>
	<path d="M304.6,95.6c0-0.6,0.1-1.1,0.3-1.5c0.2-0.4,0.4-0.8,0.7-1.1c0.3-0.3,0.6-0.5,1-0.7c0.4-0.2,0.8-0.3,1.2-0.4l1.2-0.2
		l0.6,1.7l-1.6,0.3c-0.5,0.1-0.9,0.3-1.2,0.6c-0.4,0.3-0.5,0.7-0.5,1.3c0,0.2,0,0.4,0.1,0.6c0,0.2,0.1,0.3,0.2,0.5
		c0.1,0.1,0.3,0.2,0.5,0.3c0.2,0.1,0.5,0.1,0.8,0.1c0.6,0,1.1-0.2,1.4-0.6c0.3-0.4,0.5-0.8,0.5-1.4v-4.6c0-0.5-0.1-0.8-0.4-1.2
		c-0.3-0.3-0.6-0.5-1.1-0.5h-2.8v-1.8h2.8c0.5,0,0.9,0.1,1.3,0.3c0.4,0.2,0.7,0.4,1,0.8c0.3,0.3,0.5,0.7,0.6,1.1
		c0.1,0.4,0.2,0.9,0.2,1.3v8.3H310l-0.2-0.8c-0.5,0.6-1.3,0.9-2.2,0.9c-0.6,0-1.1-0.1-1.5-0.2c-0.4-0.2-0.7-0.4-0.9-0.7
		c-0.2-0.3-0.4-0.7-0.5-1.1C304.7,96.6,304.6,96.1,304.6,95.6"/>
	<path class="st2" d="M151.3,112.7c0-1.4,0.3-2.4,0.9-3.1c0.6-0.7,1.4-1.1,2.5-1.1h3v1.1h-3c-0.8,0-1.4,0.3-1.8,0.8
		c-0.4,0.5-0.6,1.3-0.6,2.4H151.3z M151.3,113.3l1-0.5v8c0,1.1,0.2,1.9,0.6,2.4c0.4,0.5,1,0.8,1.8,0.8h3v1.1h-3
		c-1.1,0-2-0.4-2.5-1.1c-0.6-0.7-0.9-1.8-0.9-3.1V113.3z"/>
	<path class="st2" d="M160,113.2h2.6c0.5,0,0.9,0.1,1.3,0.3c0.4,0.2,0.7,0.4,0.9,0.7c0.2,0.3,0.4,0.6,0.6,1c0.1,0.4,0.2,0.8,0.2,1.3
		v8.5h-0.5l-0.4-1.4c-0.2,0.5-0.5,0.8-1,1.1c-0.4,0.3-0.9,0.4-1.6,0.4c-0.6,0-1-0.1-1.4-0.2c-0.4-0.2-0.7-0.4-0.9-0.6
		c-0.2-0.3-0.4-0.6-0.5-1c-0.1-0.4-0.1-0.8-0.1-1.3c0-0.6,0.1-1.1,0.2-1.5c0.2-0.4,0.4-0.7,0.7-1c0.3-0.3,0.6-0.5,1-0.7
		c0.4-0.2,0.8-0.3,1.2-0.4l1.9-0.4l0.4,1l-2.1,0.4c-0.3,0.1-0.6,0.1-0.9,0.3c-0.3,0.1-0.5,0.3-0.7,0.5c-0.2,0.2-0.4,0.4-0.5,0.7
		s-0.2,0.6-0.2,1c0,0.3,0,0.6,0.1,0.8c0,0.3,0.1,0.5,0.3,0.7c0.1,0.2,0.4,0.3,0.6,0.4c0.3,0.1,0.6,0.2,1.1,0.2
		c0.8,0,1.4-0.3,1.8-0.8c0.4-0.5,0.6-1.1,0.6-1.8v-5c0-0.6-0.2-1.2-0.5-1.6c-0.4-0.4-0.9-0.7-1.5-0.7H160V113.2z"/>
	<path class="st2" d="M169.2,125h-0.9v-11.8h0.9V125z M169.3,118.6h4.3v-5.4h0.9V125h-0.9v-5.4h-3.9L169.3,118.6z"/>
	<path class="st2" d="M177.3,113.2h0.9V125h-0.9V113.2z M179.9,119l3.4,6h-1l-3.1-5.6h-0.4l-0.4-1h0.9l3.1-5.2h1L179.9,119z"/>
	<path class="st2" d="M184.5,113.2h5.7v1.1h-5.7V113.2z M187.9,114.5V125H187v-10.1L187.9,114.5z"/>
	<rect x="191.3" y="118.6" class="st2" width="3.7" height="1"/>
	<path class="st2" d="M204.8,108.5V125h-1v-15.4h-5.8v-1.1H204.8z M198.9,109.7V125h-1v-14.8L198.9,109.7z"/>
	<path class="st2" d="M210.6,125c-0.5,0-1-0.1-1.4-0.3c-0.4-0.2-0.7-0.4-1-0.7c-0.3-0.3-0.5-0.6-0.6-1c-0.1-0.4-0.2-0.8-0.2-1.3
		v-5.4c0-0.4,0.1-0.9,0.2-1.2c0.1-0.4,0.3-0.7,0.6-1c0.3-0.3,0.6-0.5,1-0.7c0.4-0.2,0.9-0.2,1.4-0.2c0.5,0,0.9,0.1,1.3,0.2
		s0.7,0.4,1,0.6c0.3,0.3,0.5,0.6,0.6,0.9s0.2,0.7,0.2,1.1v3.4h-4.8l-0.4-1h4.3V116c0-0.5-0.2-1-0.6-1.4c-0.4-0.4-0.9-0.6-1.6-0.6
		c-0.8,0-1.3,0.2-1.7,0.6c-0.4,0.4-0.6,0.9-0.6,1.5v5.4c0,0.6,0.2,1.2,0.6,1.6c0.4,0.4,0.9,0.7,1.7,0.7h2.8v1H210.6z"/>
	<path class="st2" d="M215.3,113.2h5.7v1.1h-5.7V113.2z M218.6,114.5V125h-0.9v-10.1L218.6,114.5z"/>
	<path class="st2" d="M225.8,125c-0.5,0-1-0.1-1.4-0.3c-0.4-0.2-0.7-0.4-1-0.7c-0.3-0.3-0.5-0.6-0.6-1c-0.1-0.4-0.2-0.8-0.2-1.3
		v-5.4c0-0.4,0.1-0.9,0.2-1.2c0.1-0.4,0.3-0.7,0.6-1c0.3-0.3,0.6-0.5,1-0.7c0.4-0.2,0.9-0.2,1.4-0.2c0.5,0,0.9,0.1,1.3,0.2
		s0.7,0.4,1,0.6c0.3,0.3,0.5,0.6,0.6,0.9c0.1,0.4,0.2,0.7,0.2,1.1v3.4H224l-0.4-1h4.3V116c0-0.5-0.2-1-0.6-1.4
		c-0.4-0.4-0.9-0.6-1.6-0.6c-0.8,0-1.3,0.2-1.7,0.6c-0.4,0.4-0.6,0.9-0.6,1.5v5.4c0,0.6,0.2,1.2,0.6,1.6c0.4,0.4,0.9,0.7,1.7,0.7
		h2.8v1H225.8z"/>
	<path class="st2" d="M234.7,124c0.8,0,1.3-0.2,1.7-0.7c0.4-0.4,0.6-1,0.6-1.6v-5.2c0-0.6-0.2-1.2-0.6-1.6c-0.4-0.4-0.9-0.7-1.7-0.7
		h-2.4v16.7h-0.9v-17.7h3.3c0.5,0,1,0.1,1.4,0.3c0.4,0.2,0.7,0.4,1,0.7c0.3,0.3,0.5,0.6,0.6,1c0.1,0.4,0.2,0.8,0.2,1.3v5.2
		c0,0.5-0.1,0.9-0.2,1.3c-0.1,0.4-0.3,0.8-0.6,1c-0.3,0.3-0.6,0.5-1,0.7c-0.4,0.2-0.9,0.3-1.4,0.3h-1.9l-0.4-1H234.7z"/>
	<path class="st2" d="M244.9,113.5c0.4,0.2,0.7,0.4,1,0.7c0.3,0.3,0.5,0.6,0.6,1c0.1,0.4,0.2,0.8,0.2,1.2v5.4c0,0.5-0.1,0.9-0.2,1.3
		c-0.1,0.4-0.3,0.7-0.6,1c-0.3,0.3-0.6,0.5-1,0.7c-0.4,0.2-0.9,0.3-1.4,0.3c-0.5,0-1-0.1-1.4-0.3c-0.4-0.2-0.7-0.4-1-0.7
		c-0.3-0.3-0.5-0.7-0.6-1c-0.1-0.4-0.2-0.8-0.2-1.3v-9.4c0-0.8,0.1-1.4,0.3-1.9c0.2-0.5,0.5-0.9,0.8-1.2c0.3-0.3,0.7-0.5,1-0.7
		c0.3-0.1,0.6-0.3,0.9-0.3l2.8-0.8l0.2,1l-2.8,0.8c-0.2,0-0.4,0.1-0.7,0.2c-0.3,0.1-0.5,0.3-0.8,0.5c-0.2,0.2-0.5,0.6-0.6,0.9
		c-0.2,0.4-0.3,0.9-0.3,1.5v9.3c0,0.6,0.2,1.2,0.6,1.6c0.4,0.4,1,0.7,1.7,0.7c0.8,0,1.3-0.2,1.7-0.7c0.4-0.4,0.6-1,0.6-1.6v-5.4
		c0-0.6-0.2-1.1-0.6-1.6c-0.4-0.4-0.9-0.7-1.7-0.7h-1.9l-0.4-1h2.3C244.1,113.2,244.5,113.3,244.9,113.5"/>
	<path class="st2" d="M251.2,120.8c0.2,0.7,0.3,1.5,0.5,2.2c0.1,0.7,0.3,1.5,0.4,2.2h0c0.1-0.8,0.3-1.5,0.4-2.2
		c0.1-0.7,0.3-1.5,0.5-2.2l1.8-7.6h0.9l-4.1,17.7h-0.9l1-4.4l-3.3-13.3h0.9L251.2,120.8z"/>
	<path class="st2" d="M261,124c0.8,0,1.3-0.2,1.7-0.7c0.4-0.4,0.6-1,0.6-1.6v-5.2c0-0.6-0.2-1.2-0.6-1.6c-0.4-0.4-0.9-0.7-1.7-0.7
		h-2.4v16.7h-0.9v-17.7h3.3c0.5,0,1,0.1,1.4,0.3c0.4,0.2,0.7,0.4,1,0.7c0.3,0.3,0.5,0.6,0.6,1c0.1,0.4,0.2,0.8,0.2,1.3v5.2
		c0,0.5-0.1,0.9-0.2,1.3c-0.1,0.4-0.3,0.8-0.6,1c-0.3,0.3-0.6,0.5-1,0.7c-0.4,0.2-0.9,0.3-1.4,0.3h-1.9l-0.4-1H261z"/>
	<polygon class="st2" points="266.8,113.2 271.3,113.2 271.3,114.2 267.7,114.2 267.7,125 266.8,125 	"/>
</g>
</svg>
