<?xml version="1.0" encoding="utf-8"?>
<!-- Generator: Adobe Illustrator 23.0.0, SVG Export Plug-In . SVG Version: 6.00 Build 0)  -->
<svg version="1.1" id="Layer_1" xmlns="http://www.w3.org/2000/svg" xmlns:xlink="http://www.w3.org/1999/xlink" x="0px" y="0px"
	 viewBox="0 0 226.7 160" style="enable-background:new 0 0 226.7 160;" xml:space="preserve">
<style type="text/css">
	.st0{fill:#242122;stroke:#242122;stroke-width:0.1;stroke-miterlimit:10;}
	.st1{fill:none;stroke:#242021;stroke-width:0.4;stroke-miterlimit:10;}
	.st2{fill:#615F5B;}
	.st3{fill:#FFFFFF;}
</style>
<g>
	<g>
		<path d="M82.1,62.9V45.5h5.2l5.2,5.9l4.8-5.9h5.1v17.4h-5.8v-8.5l-4.2,4.8h-0.1l-4.4-4.8v8.5H82.1z"/>
		<path d="M104.9,54.2c0-2.7,0.9-4.8,2.6-6.6c1.8-1.7,4.1-2.6,7-2.6c2.9,0,5.3,0.8,7,2.6c1.8,1.7,2.7,3.9,2.7,6.6
			c0,2.7-0.9,4.8-2.7,6.6c-1.7,1.7-4.1,2.6-7,2.6c-2.9,0-5.3-0.8-7-2.6C105.8,59.1,104.9,56.9,104.9,54.2z M114.6,58
			c2,0,3.5-1.4,3.5-3.7c0-2.2-1.5-3.7-3.5-3.7c-2,0-3.5,1.5-3.5,3.7C111.1,56.4,112.5,58,114.6,58z"/>
		<path d="M132.4,62.9h-5.8V45.5h5.8v9.1l6.2-9.1h5.8v17.4h-5.8v-9.1L132.4,62.9z M134.1,37c0,1.5,0.5,2.2,1.6,2.2
			c1,0,1.5-0.7,1.5-2.2h5c0,3.8-2.3,6.6-6.5,6.6c-4.5,0-6.6-2.7-6.6-6.6H134.1z"/>
		<path d="M51.6,61.1c-0.6,0.8-1.4,1.4-2.2,1.7c-0.9,0.3-2,0.6-3.2,0.8c-1.3,0.2-2.4,0.5-3.4,1c-2.6,1.2-4.1,4-4.4,8.4h0.1
			c1.1-2.4,3.9-4.1,6.9-4.1c4.9,0,8.1,3.4,8.1,8.7c0,2.5-0.8,4.6-2.5,6.3c-1.7,1.7-3.8,2.6-6.4,2.6c-2.8,0-5.1-1-6.7-2.9
			c-1.7-1.9-2.5-4.6-2.5-7.9c0-7.5,2.2-12.2,6.5-14c1-0.5,2.2-0.8,3.4-1c2.4-0.4,3.8-0.7,4.8-2L51.6,61.1z M44.4,83.6
			c1.7,0,3.1-0.6,4.1-1.7c1.1-1.1,1.6-2.5,1.6-4.2c0-3.5-2-5.9-5.6-5.9c-1.5,0-2.9,0.4-3.9,1.3s-1.8,1.9-2,3.1
			C38.5,80.7,40.9,83.6,44.4,83.6z"/>
		<path d="M59.2,86.1h-3.1V68.7h3.1v12.9l10-12.9h3.1v17.4h-3.1V73.2L59.2,86.1z"/>
		<path d="M77.9,85.8c-1.4-0.5-2.4-1-3-1.7l1.6-2.3c1.4,1.1,3.6,1.9,5.1,1.9c2.7,0,4.6-1.2,4.6-2.9c0-1.4-1.3-2.2-3.4-2.2h-2.9v-2.5
			h2.7c1.7,0,3-1.1,3-2.5c0-1.5-1.4-2.5-3.7-2.5c-1.9,0-3.6,0.7-5.2,1.9l-1.2-2.4c1.4-1.4,4.1-2.3,6.9-2.3c4.2,0,6.5,1.8,6.5,4.7
			c0,2-1,3.4-3.1,4.1v0.1c2.3,0.3,3.6,2,3.6,4.1c0,3.2-3,5.2-7.4,5.2C80.7,86.5,79.3,86.3,77.9,85.8z"/>
		<path d="M105.2,86.1v-7.3h-9.7v7.3h-3.1V68.7h3.1v7.1h9.7v-7.1h3.1v17.4H105.2z"/>
		<path d="M127,84.2c-1.7,1.5-3.9,2.3-6.5,2.3c-2.8,0-5.1-0.8-6.8-2.5c-1.7-1.7-2.5-3.9-2.5-6.6c0-2.6,0.8-4.8,2.4-6.5
			c1.6-1.7,3.8-2.6,6.6-2.6c2.3,0,4.2,0.7,5.8,2.2c1.5,1.5,2.3,3.4,2.3,5.7c0,0.8-0.1,1.5-0.2,2.1h-13.4c0.3,3.2,2.6,5.2,6.1,5.2
			c2.3,0,4.1-0.6,5.3-1.8L127,84.2z M114.4,75.9h10.5c-0.2-2.9-2-4.6-5-4.6C116.8,71.2,114.7,73.1,114.4,75.9z"/>
		<path d="M145.3,83.6c-1.4,1.9-3.9,2.9-6.7,2.9c-2.8,0-5-0.8-6.8-2.5c-1.7-1.7-2.5-3.9-2.5-6.6c0-2.5,0.8-4.7,2.5-6.5
			c1.7-1.7,3.8-2.6,6.3-2.6c3.1,0,5.3,0.8,6.8,2.3l-1.4,2.4c-1.3-1.2-3-1.8-5-1.8c-1.6,0-3,0.6-4.2,1.8c-1.2,1.2-1.7,2.6-1.7,4.4
			c0,1.9,0.6,3.4,1.8,4.5c1.2,1.1,2.7,1.7,4.5,1.7c2,0,3.7-0.7,5-2.2L145.3,83.6z"/>
	</g>
	<g>
		<polygon points="181.4,91.6 175.6,85.8 169.8,91.6 175.6,103.7 		"/>
		<g>
			<path d="M175.5,52.5c-2.2,0-4,1.8-4,4c0,2.2,1.8,4,4,4c2.2,0,4-1.8,4-4C179.6,54.3,177.8,52.5,175.5,52.5"/>
			<path d="M175.6,34.4c-1.2,0.6-17.3,9.1-17.3,22.7c0,11.6,9.5,29.2,9.5,29.2l7.8-7.8l7.8,7.8c0,0,9.5-17.6,9.5-29.2
				C192.8,43.5,176.8,35,175.6,34.4 M180.7,73.1l-5.2-5.2l-5.2,5.2c-0.3-0.7-3.7-10.1-3.7-16.2c0-8.3,8.3-12.9,8.9-13.2
				c0.6,0.3,8.9,5,8.9,13.2C184.5,63,181,72.4,180.7,73.1"/>
			<rect x="188.7" y="30.2" transform="matrix(0.7071 -0.7071 0.7071 0.7071 32.1857 146.4285)" width="8.4" height="8.4"/>
		</g>
	</g>
	<g>
		<path d="M32.7,100h-2.6v3.4H29v-7.6h1.1V99h2.6v-3.2h1.1v7.6h-1.1V100z"/>
		<path d="M35.4,96.3c0.3-0.2,0.7-0.3,1.1-0.4c0.4-0.1,0.9-0.2,1.3-0.2c0.4,0,0.8,0.1,1,0.2c0.3,0.1,0.5,0.3,0.6,0.5
			c0.1,0.2,0.2,0.5,0.3,0.7c0,0.3,0.1,0.6,0.1,0.9c0,0.6,0,1.2,0,1.8c0,0.6,0,1.1,0,1.6c0,0.4,0,0.7,0,1.1c0,0.3,0.1,0.6,0.1,0.9
			h-0.9l-0.3-0.9h-0.1c-0.2,0.3-0.4,0.5-0.7,0.7c-0.3,0.2-0.7,0.3-1.2,0.3c-0.5,0-1-0.2-1.3-0.6c-0.3-0.4-0.5-0.9-0.5-1.6
			c0-0.4,0.1-0.8,0.2-1.1c0.1-0.3,0.4-0.5,0.6-0.7c0.3-0.2,0.6-0.3,0.9-0.4c0.4-0.1,0.8-0.1,1.2-0.1c0.1,0,0.2,0,0.3,0
			c0.1,0,0.2,0,0.3,0c0-0.3,0-0.6,0-0.8c0-0.6-0.1-1-0.3-1.2c-0.2-0.2-0.5-0.3-0.9-0.3c-0.3,0-0.6,0-0.9,0.1
			c-0.3,0.1-0.6,0.2-0.8,0.3L35.4,96.3z M38.7,99.9c-0.1,0-0.2,0-0.3,0c-0.1,0-0.2,0-0.3,0c-0.2,0-0.5,0-0.7,0.1
			c-0.2,0-0.4,0.1-0.6,0.2c-0.2,0.1-0.3,0.2-0.4,0.4c-0.1,0.2-0.2,0.4-0.2,0.7c0,0.4,0.1,0.7,0.3,0.9c0.2,0.2,0.4,0.3,0.8,0.3
			c0.4,0,0.7-0.1,1-0.3c0.2-0.2,0.4-0.4,0.5-0.7V99.9z"/>
		<path d="M47.1,105.3h-0.8l-0.2-1.9h-4.6v-7.6h1.1v6.6h2.5v-6.6h1.1v6.6h0.9V105.3z"/>
		<path d="M52,99l0.1-1.2H52l-0.5,1.3l-2.6,4.3h-0.7v-7.6h1.1v4.5l-0.1,1.1h0.1l0.5-1.2l2.6-4.4H53v7.6H52V99z"/>
		<path d="M54.4,99.6c0-1.4,0.2-2.4,0.7-3c0.5-0.6,1.1-1,2-1c0.9,0,1.6,0.3,2.1,1c0.4,0.7,0.7,1.7,0.7,3c0,1.4-0.2,2.4-0.7,3
			c-0.5,0.6-1.1,1-2,1c-0.9,0-1.6-0.3-2.1-1C54.7,101.9,54.4,100.9,54.4,99.6z M55.6,99.6c0,0.4,0,0.9,0.1,1.2
			c0.1,0.4,0.1,0.7,0.3,0.9c0.1,0.3,0.3,0.5,0.5,0.6c0.2,0.1,0.4,0.2,0.7,0.2c0.5,0,0.9-0.2,1.2-0.7c0.3-0.5,0.4-1.2,0.4-2.3
			c0-0.4,0-0.8-0.1-1.2c-0.1-0.4-0.1-0.7-0.3-1c-0.1-0.3-0.3-0.5-0.5-0.6c-0.2-0.1-0.4-0.2-0.7-0.2c-0.5,0-0.9,0.2-1.2,0.7
			C55.7,97.8,55.6,98.6,55.6,99.6z"/>
		<path d="M65,100h-2.6v3.4h-1.1v-7.6h1.1V99H65v-3.2h1.1v7.6H65V100z"/>
		<path d="M67.7,96.3c0.3-0.2,0.7-0.3,1.1-0.4c0.4-0.1,0.9-0.2,1.3-0.2c0.4,0,0.8,0.1,1,0.2c0.3,0.1,0.5,0.3,0.6,0.5
			c0.1,0.2,0.2,0.5,0.3,0.7c0,0.3,0.1,0.6,0.1,0.9c0,0.6,0,1.2,0,1.8c0,0.6,0,1.1,0,1.6c0,0.4,0,0.7,0,1.1c0,0.3,0.1,0.6,0.1,0.9
			h-0.9l-0.3-0.9H71c-0.2,0.3-0.4,0.5-0.7,0.7c-0.3,0.2-0.7,0.3-1.2,0.3c-0.5,0-1-0.2-1.3-0.6c-0.3-0.4-0.5-0.9-0.5-1.6
			c0-0.4,0.1-0.8,0.2-1.1c0.1-0.3,0.4-0.5,0.6-0.7c0.3-0.2,0.6-0.3,0.9-0.4c0.4-0.1,0.8-0.1,1.2-0.1c0.1,0,0.2,0,0.3,0
			c0.1,0,0.2,0,0.3,0c0-0.3,0-0.6,0-0.8c0-0.6-0.1-1-0.3-1.2c-0.2-0.2-0.5-0.3-0.9-0.3c-0.3,0-0.6,0-0.9,0.1
			c-0.3,0.1-0.6,0.2-0.8,0.3L67.7,96.3z M71,99.9c-0.1,0-0.2,0-0.3,0c-0.1,0-0.2,0-0.3,0c-0.2,0-0.5,0-0.7,0.1
			c-0.2,0-0.4,0.1-0.6,0.2c-0.2,0.1-0.3,0.2-0.4,0.4c-0.1,0.2-0.2,0.4-0.2,0.7c0,0.4,0.1,0.7,0.3,0.9c0.2,0.2,0.4,0.3,0.8,0.3
			c0.4,0,0.7-0.1,1-0.3c0.2-0.2,0.4-0.4,0.5-0.7V99.9z"/>
		<path d="M77.1,96.8h-1.7c0,0.9-0.1,1.7-0.1,2.5c-0.1,0.8-0.1,1.5-0.3,2.1c-0.1,0.6-0.3,1.1-0.5,1.5c-0.2,0.4-0.5,0.6-0.9,0.6
			c-0.2,0-0.3,0-0.4,0c-0.1,0-0.2-0.1-0.3-0.1l0.2-0.9c0.2,0.1,0.4,0,0.6,0c0.2-0.1,0.3-0.4,0.4-0.8c0.1-0.4,0.2-1.1,0.3-2
			c0.1-0.9,0.1-2.2,0.2-3.7h3.8v7.6h-1.1V96.8z"/>
		<path d="M81,98.7c0.2,0,0.4-0.1,0.6-0.1c0.2,0,0.4,0,0.5,0c0.4,0,0.8,0.1,1.1,0.2c0.3,0.1,0.5,0.3,0.7,0.5
			c0.2,0.2,0.3,0.4,0.4,0.7c0.1,0.3,0.1,0.6,0.1,0.9c0,0.9-0.2,1.6-0.7,2c-0.4,0.4-1.1,0.6-2.1,0.6c-0.6,0-1.2,0-1.7-0.1v-7.6H81
			V98.7z M81,102.4c0.3,0.1,0.6,0.1,0.8,0.1c1,0,1.4-0.5,1.4-1.5c0-0.5-0.1-0.8-0.3-1.1c-0.2-0.3-0.6-0.4-1.1-0.4
			c-0.1,0-0.3,0-0.4,0c-0.2,0-0.3,0-0.4,0.1V102.4z"/>
		<path d="M89.3,100h-2.6v3.4h-1.1v-7.6h1.1V99h2.6v-3.2h1.1v7.6h-1.1V100z"/>
		<path d="M93.2,98.7c0.2,0,0.4-0.1,0.6-0.1c0.2,0,0.4,0,0.5,0c0.4,0,0.8,0.1,1,0.2c0.3,0.1,0.5,0.3,0.7,0.5
			c0.2,0.2,0.3,0.4,0.4,0.7c0.1,0.3,0.1,0.6,0.1,0.9c0,0.9-0.2,1.6-0.6,2c-0.4,0.4-1.1,0.6-2,0.6c-0.6,0-1.2,0-1.7-0.1v-7.6h1.1
			V98.7z M93.2,102.4c0.3,0.1,0.6,0.1,0.8,0.1c0.5,0,0.8-0.1,1-0.4c0.2-0.3,0.3-0.6,0.3-1.1c0-0.5-0.1-0.8-0.3-1.1
			c-0.2-0.3-0.5-0.4-1-0.4c-0.1,0-0.3,0-0.4,0c-0.2,0-0.3,0-0.4,0.1V102.4z M97.4,95.8h1.1v7.6h-1.1V95.8z"/>
		<path d="M104,99l0.1-1.2H104l-0.5,1.3l-2.6,4.3h-0.7v-7.6h1.1v4.5l-0.1,1.1h0.1l0.5-1.2l2.6-4.4h0.7v7.6H104V99z M101.7,92.7
			c0.1,0.5,0.2,0.8,0.4,1c0.2,0.2,0.4,0.3,0.7,0.3c0.3,0,0.5-0.1,0.7-0.3c0.2-0.2,0.3-0.5,0.4-1l0.8,0.2c-0.1,0.6-0.3,1.1-0.7,1.4
			c-0.4,0.3-0.8,0.5-1.3,0.5c-0.2,0-0.5,0-0.7-0.1c-0.2-0.1-0.4-0.2-0.6-0.3c-0.2-0.1-0.3-0.3-0.4-0.6c-0.1-0.2-0.2-0.5-0.2-0.9
			L101.7,92.7z"/>
		<path d="M113.6,96.8H111v6.6h-1.1v-7.6h4.7v7.6h-1.1V96.8z"/>
		<path d="M116.4,95.8h0.8l0.2,0.8h0.1c0.4-0.7,1-1,1.8-1c0.8,0,1.4,0.3,1.8,0.9c0.4,0.6,0.6,1.6,0.6,2.9c0,0.6-0.1,1.2-0.2,1.7
			c-0.1,0.5-0.3,0.9-0.6,1.3c-0.2,0.4-0.5,0.6-0.9,0.8c-0.3,0.2-0.7,0.3-1.2,0.3c-0.3,0-0.5,0-0.7-0.1c-0.2,0-0.4-0.1-0.6-0.2v3.1
			h-1.1V95.8z M117.5,102.2c0.1,0.1,0.3,0.2,0.5,0.3c0.2,0.1,0.4,0.1,0.7,0.1c0.5,0,1-0.3,1.3-0.8c0.3-0.5,0.5-1.3,0.5-2.3
			c0-0.4,0-0.8-0.1-1.2c-0.1-0.3-0.1-0.6-0.3-0.9c-0.1-0.2-0.3-0.4-0.5-0.6c-0.2-0.1-0.4-0.2-0.7-0.2c-0.7,0-1.2,0.5-1.4,1.4V102.2z
			"/>
		<path d="M122.6,99.6c0-1.4,0.2-2.4,0.7-3c0.5-0.6,1.1-1,2-1c0.9,0,1.6,0.3,2.1,1c0.4,0.7,0.7,1.7,0.7,3c0,1.4-0.2,2.4-0.7,3
			c-0.5,0.6-1.1,1-2,1c-0.9,0-1.6-0.3-2.1-1C122.8,101.9,122.6,100.9,122.6,99.6z M123.7,99.6c0,0.4,0,0.9,0.1,1.2
			c0.1,0.4,0.1,0.7,0.3,0.9c0.1,0.3,0.3,0.5,0.5,0.6c0.2,0.1,0.4,0.2,0.7,0.2c0.5,0,0.9-0.2,1.2-0.7c0.3-0.5,0.4-1.2,0.4-2.3
			c0-0.4,0-0.8-0.1-1.2c-0.1-0.4-0.1-0.7-0.3-1c-0.1-0.3-0.3-0.5-0.5-0.6c-0.2-0.1-0.4-0.2-0.7-0.2c-0.5,0-0.9,0.2-1.2,0.7
			C123.8,97.8,123.7,98.6,123.7,99.6z"/>
		<path d="M133.9,102.9c-0.2,0.2-0.6,0.4-0.9,0.5c-0.4,0.1-0.8,0.2-1.2,0.2c-0.5,0-0.9-0.1-1.2-0.3c-0.3-0.2-0.6-0.5-0.9-0.8
			c-0.2-0.3-0.4-0.8-0.5-1.3c-0.1-0.5-0.2-1-0.2-1.6c0-1.3,0.2-2.3,0.7-3c0.5-0.7,1.2-1,2-1c0.3,0,0.6,0,0.8,0.1
			c0.3,0.1,0.5,0.2,0.8,0.4c0.2,0.2,0.4,0.5,0.5,0.9c0.1,0.4,0.2,0.9,0.2,1.5c0,0.2,0,0.4,0,0.6c0,0.2,0,0.4-0.1,0.6h-3.9
			c0,0.4,0,0.8,0.1,1.2c0.1,0.4,0.2,0.7,0.3,0.9c0.2,0.2,0.3,0.4,0.6,0.6c0.2,0.1,0.5,0.2,0.9,0.2c0.3,0,0.5-0.1,0.8-0.2
			c0.3-0.1,0.5-0.2,0.6-0.4L133.9,102.9z M133.1,98.8c0-0.8-0.1-1.3-0.3-1.7c-0.2-0.4-0.6-0.5-1-0.5c-0.5,0-0.8,0.2-1.1,0.5
			c-0.3,0.4-0.4,0.9-0.5,1.7H133.1z"/>
		<path d="M137.3,100h-0.6v3.4h-1.1v-7.6h1.1v3.4l0.5-0.2l1.9-3.2h1.2l-1.8,3.1l-0.5,0.5l0.7,0.6l1.9,3.4h-1.3L137.3,100z"/>
		<path d="M145.4,96.8h-1.9v6.6h-1.1v-6.6h-1.9v-1h4.8V96.8z"/>
		<path d="M34.2,110.6h-2.6v6.6h-1.1v-7.6h4.7v7.6h-1.1V110.6z"/>
		<path d="M36.7,113.4c0-1.4,0.2-2.4,0.7-3c0.5-0.6,1.1-1,2-1c0.9,0,1.6,0.3,2.1,1c0.4,0.7,0.7,1.7,0.7,3c0,1.4-0.2,2.4-0.7,3
			c-0.5,0.6-1.1,1-2,1c-0.9,0-1.6-0.3-2.1-1C36.9,115.7,36.7,114.7,36.7,113.4z M37.9,113.4c0,0.4,0,0.9,0.1,1.2
			c0.1,0.4,0.1,0.7,0.3,0.9c0.1,0.3,0.3,0.5,0.5,0.6c0.2,0.1,0.4,0.2,0.7,0.2c0.5,0,0.9-0.2,1.2-0.7c0.3-0.5,0.4-1.2,0.4-2.3
			c0-0.4,0-0.8-0.1-1.2c-0.1-0.4-0.1-0.7-0.3-1c-0.1-0.3-0.3-0.5-0.5-0.6c-0.2-0.1-0.4-0.2-0.7-0.2c-0.5,0-0.9,0.2-1.2,0.7
			C38,111.6,37.9,112.3,37.9,113.4z"/>
		<path d="M50.3,110.6h-2.6v6.6h-1.1v-7.6h4.7v7.6h-1.1V110.6z"/>
		<path d="M52.8,113.4c0-1.4,0.2-2.4,0.7-3c0.5-0.6,1.1-1,2-1c0.9,0,1.6,0.3,2.1,1c0.4,0.7,0.7,1.7,0.7,3c0,1.4-0.2,2.4-0.7,3
			c-0.5,0.6-1.1,1-2,1c-0.9,0-1.6-0.3-2.1-1C53,115.7,52.8,114.7,52.8,113.4z M54,113.4c0,0.4,0,0.9,0.1,1.2
			c0.1,0.4,0.1,0.7,0.3,0.9c0.1,0.3,0.3,0.5,0.5,0.6c0.2,0.1,0.4,0.2,0.7,0.2c0.5,0,0.9-0.2,1.2-0.7c0.3-0.5,0.4-1.2,0.4-2.3
			c0-0.4,0-0.8-0.1-1.2c-0.1-0.4-0.1-0.7-0.3-1c-0.1-0.3-0.3-0.5-0.5-0.6c-0.2-0.1-0.4-0.2-0.7-0.2c-0.5,0-0.9,0.2-1.2,0.7
			C54.1,111.6,54,112.3,54,113.4z"/>
		<path d="M65.2,119.1h-0.8l-0.2-1.9h-4.5l-0.2,1.9h-0.7v-2.9h0.7c0.1-0.1,0.1-0.3,0.3-0.6c0.1-0.3,0.2-0.7,0.3-1.2
			c0.1-0.5,0.2-1.2,0.3-2c0.1-0.8,0.1-1.7,0.1-2.8h3.8v6.6h0.9V119.1z M63.2,116.2v-5.6h-1.7c0,0.4,0,0.9-0.1,1.4
			c0,0.5-0.1,1-0.2,1.5c-0.1,0.5-0.2,1-0.3,1.5c-0.1,0.5-0.2,0.9-0.3,1.2H63.2z"/>
		<path d="M71.8,119.1H71l-0.2-1.9h-4.5l-0.2,1.9h-0.7v-2.9h0.7c0.1-0.1,0.1-0.3,0.3-0.6c0.1-0.3,0.2-0.7,0.3-1.2
			c0.1-0.5,0.2-1.2,0.3-2c0.1-0.8,0.1-1.7,0.1-2.8h3.8v6.6h0.9V119.1z M69.8,116.2v-5.6h-1.7c0,0.4,0,0.9-0.1,1.4
			c0,0.5-0.1,1-0.2,1.5c-0.1,0.5-0.2,1-0.3,1.5c-0.1,0.5-0.2,0.9-0.3,1.2H69.8z"/>
		<path d="M77.4,116.7c-0.2,0.2-0.6,0.4-0.9,0.5c-0.4,0.1-0.8,0.2-1.2,0.2c-0.5,0-0.9-0.1-1.2-0.3c-0.3-0.2-0.6-0.5-0.9-0.8
			c-0.2-0.3-0.4-0.8-0.5-1.3c-0.1-0.5-0.2-1-0.2-1.6c0-1.3,0.2-2.3,0.7-3c0.5-0.7,1.2-1,2-1c0.3,0,0.6,0,0.8,0.1
			c0.3,0.1,0.5,0.2,0.8,0.4c0.2,0.2,0.4,0.5,0.5,0.9c0.1,0.4,0.2,0.9,0.2,1.5c0,0.2,0,0.4,0,0.6c0,0.2,0,0.4-0.1,0.6h-3.9
			c0,0.4,0,0.8,0.1,1.2c0.1,0.4,0.2,0.7,0.3,0.9c0.2,0.2,0.3,0.4,0.6,0.6c0.2,0.1,0.5,0.2,0.9,0.2c0.3,0,0.5-0.1,0.8-0.2
			c0.3-0.1,0.5-0.2,0.6-0.4L77.4,116.7z M76.5,112.6c0-0.8-0.1-1.3-0.3-1.7c-0.2-0.4-0.6-0.5-1-0.5c-0.5,0-0.8,0.2-1.1,0.5
			c-0.3,0.4-0.4,0.9-0.5,1.7H76.5z"/>
		<path d="M79,109.6h0.8l0.2,0.8H80c0.4-0.7,1-1,1.8-1c0.8,0,1.4,0.3,1.8,0.9c0.4,0.6,0.6,1.6,0.6,2.9c0,0.6-0.1,1.2-0.2,1.7
			c-0.1,0.5-0.3,0.9-0.6,1.3c-0.2,0.4-0.5,0.6-0.9,0.8c-0.3,0.2-0.7,0.3-1.2,0.3c-0.3,0-0.5,0-0.7-0.1c-0.2,0-0.4-0.1-0.6-0.2v3.1
			H79V109.6z M80.1,116c0.1,0.1,0.3,0.2,0.5,0.3c0.2,0.1,0.4,0.1,0.7,0.1c0.5,0,1-0.3,1.3-0.8c0.3-0.5,0.5-1.3,0.5-2.3
			c0-0.4,0-0.8-0.1-1.2c-0.1-0.3-0.1-0.6-0.3-0.9c-0.1-0.2-0.3-0.4-0.5-0.6c-0.2-0.1-0.4-0.2-0.7-0.2c-0.7,0-1.2,0.5-1.4,1.4V116z"
			/>
		<path d="M87.5,113.8l-1.7,3.4h-1.2l1.9-3.5l0.4-0.5l-0.6-0.6l-1.5-3.1h1.2l1.6,3.3h0.6v-3.3h1.1v3.4l0.6-0.2l1.6-3.2h1.1l-1.6,3.1
			l-0.5,0.5l0.6,0.6l1.7,3.4h-1.3l-1.7-3.4h-0.6v3.4h-1.1v-3.6L87.5,113.8z"/>
		<path d="M95.2,113.8h-0.6v3.4h-1.1v-7.6h1.1v3.4l0.5-0.2l1.9-3.2h1.2l-1.8,3.1l-0.5,0.5l0.7,0.6l1.9,3.4h-1.3L95.2,113.8z"/>
		<path d="M103.8,116.7c-0.2,0.2-0.6,0.4-0.9,0.5c-0.4,0.1-0.8,0.2-1.2,0.2c-0.5,0-0.9-0.1-1.2-0.3c-0.3-0.2-0.6-0.5-0.9-0.8
			c-0.2-0.3-0.4-0.8-0.5-1.3c-0.1-0.5-0.2-1-0.2-1.6c0-1.3,0.2-2.3,0.7-3c0.5-0.7,1.2-1,2-1c0.3,0,0.6,0,0.8,0.1
			c0.3,0.1,0.5,0.2,0.8,0.4c0.2,0.2,0.4,0.5,0.5,0.9c0.1,0.4,0.2,0.9,0.2,1.5c0,0.2,0,0.4,0,0.6c0,0.2,0,0.4-0.1,0.6h-3.9
			c0,0.4,0,0.8,0.1,1.2c0.1,0.4,0.2,0.7,0.3,0.9c0.2,0.2,0.3,0.4,0.6,0.6c0.2,0.1,0.5,0.2,0.9,0.2c0.3,0,0.5-0.1,0.8-0.2
			c0.3-0.1,0.5-0.2,0.6-0.4L103.8,116.7z M103,112.6c0-0.8-0.1-1.3-0.3-1.7c-0.2-0.4-0.6-0.5-1-0.5c-0.5,0-0.8,0.2-1.1,0.5
			c-0.3,0.4-0.4,0.9-0.5,1.7H103z"/>
		<path d="M113.7,112.7l0.1-1.4h-0.1l-0.5,1.3l-1.4,2.9h-0.4l-1.5-2.9l-0.4-1.3h-0.1l0.1,1.4v4.5h-1v-7.6h1.1l1.7,3.3l0.3,1h0l0.4-1
			l1.5-3.3h1.1v7.6h-1.1V112.7z"/>
		<path d="M116.4,110c0.3-0.2,0.7-0.3,1.1-0.4c0.4-0.1,0.9-0.2,1.3-0.2c0.4,0,0.8,0.1,1,0.2c0.3,0.1,0.5,0.3,0.6,0.5
			c0.1,0.2,0.2,0.5,0.3,0.7c0,0.3,0.1,0.6,0.1,0.9c0,0.6,0,1.2,0,1.8c0,0.6,0,1.1,0,1.6c0,0.4,0,0.7,0,1.1c0,0.3,0.1,0.6,0.1,0.9
			H120l-0.3-0.9h-0.1c-0.2,0.3-0.4,0.5-0.7,0.7c-0.3,0.2-0.7,0.3-1.2,0.3c-0.5,0-1-0.2-1.3-0.6c-0.3-0.4-0.5-0.9-0.5-1.6
			c0-0.4,0.1-0.8,0.2-1.1c0.1-0.3,0.4-0.5,0.6-0.7c0.3-0.2,0.6-0.3,0.9-0.4c0.4-0.1,0.8-0.1,1.2-0.1c0.1,0,0.2,0,0.3,0
			c0.1,0,0.2,0,0.3,0c0-0.3,0-0.6,0-0.8c0-0.6-0.1-1-0.3-1.2c-0.2-0.2-0.5-0.3-0.9-0.3c-0.3,0-0.6,0-0.9,0.1
			c-0.3,0.1-0.6,0.2-0.8,0.3L116.4,110z M119.7,113.7c-0.1,0-0.2,0-0.3,0c-0.1,0-0.2,0-0.3,0c-0.2,0-0.5,0-0.7,0.1
			c-0.2,0-0.4,0.1-0.6,0.2c-0.2,0.1-0.3,0.2-0.4,0.4c-0.1,0.2-0.2,0.4-0.2,0.7c0,0.4,0.1,0.7,0.3,0.9c0.2,0.2,0.4,0.3,0.8,0.3
			c0.4,0,0.7-0.1,1-0.3c0.2-0.2,0.4-0.4,0.5-0.7V113.7z"/>
		<path d="M125.8,110.6h-1.7c0,0.9-0.1,1.7-0.1,2.5c-0.1,0.8-0.1,1.5-0.3,2.1c-0.1,0.6-0.3,1.1-0.5,1.5c-0.2,0.4-0.5,0.6-0.9,0.6
			c-0.2,0-0.3,0-0.4,0c-0.1,0-0.2-0.1-0.3-0.1l0.2-0.9c0.2,0.1,0.4,0,0.6,0c0.2-0.1,0.3-0.4,0.4-0.8c0.1-0.4,0.2-1.1,0.3-2
			c0.1-0.9,0.1-2.2,0.2-3.7h3.8v7.6h-1.1V110.6z"/>
		<path d="M128.3,113.4c0-1.4,0.2-2.4,0.7-3c0.5-0.6,1.1-1,2-1c0.9,0,1.6,0.3,2.1,1c0.4,0.7,0.7,1.7,0.7,3c0,1.4-0.2,2.4-0.7,3
			c-0.5,0.6-1.1,1-2,1c-0.9,0-1.6-0.3-2.1-1C128.5,115.7,128.3,114.7,128.3,113.4z M129.4,113.4c0,0.4,0,0.9,0.1,1.2
			c0.1,0.4,0.1,0.7,0.3,0.9c0.1,0.3,0.3,0.5,0.5,0.6c0.2,0.1,0.4,0.2,0.7,0.2c0.5,0,0.9-0.2,1.2-0.7c0.3-0.5,0.4-1.2,0.4-2.3
			c0-0.4,0-0.8-0.1-1.2c-0.1-0.4-0.1-0.7-0.3-1c-0.1-0.3-0.3-0.5-0.5-0.6c-0.2-0.1-0.4-0.2-0.7-0.2c-0.5,0-0.9,0.2-1.2,0.7
			C129.5,111.6,129.4,112.3,129.4,113.4z"/>
		<path d="M138.7,110.6h-2.5v6.6h-1.1v-7.6h3.6V110.6z"/>
		<path d="M139,113.4c0-1.4,0.2-2.4,0.7-3c0.5-0.6,1.1-1,2-1c0.9,0,1.6,0.3,2.1,1c0.4,0.7,0.7,1.7,0.7,3c0,1.4-0.2,2.4-0.7,3
			c-0.5,0.6-1.1,1-2,1c-0.9,0-1.6-0.3-2.1-1C139.2,115.7,139,114.7,139,113.4z M140.1,113.4c0,0.4,0,0.9,0.1,1.2
			c0.1,0.4,0.1,0.7,0.3,0.9c0.1,0.3,0.3,0.5,0.5,0.6c0.2,0.1,0.4,0.2,0.7,0.2c0.5,0,0.9-0.2,1.2-0.7c0.3-0.5,0.4-1.2,0.4-2.3
			c0-0.4,0-0.8-0.1-1.2c-0.1-0.4-0.1-0.7-0.3-1c-0.1-0.3-0.3-0.5-0.5-0.6c-0.2-0.1-0.4-0.2-0.7-0.2c-0.5,0-0.9,0.2-1.2,0.7
			C140.3,111.6,140.1,112.3,140.1,113.4z"/>
		<path d="M46.5,126.6l0.1-1.2h-0.1l-0.5,1.3l-2.6,4.3h-0.7v-7.6h1.1v4.5l-0.1,1.1h0.1l0.5-1.2l2.6-4.4h0.7v7.6h-1.1V126.6z"/>
		<path d="M56.7,130.6c-0.3,0.2-0.5,0.3-0.9,0.4c-0.3,0.1-0.7,0.1-1,0.1c-0.5,0-0.9-0.1-1.2-0.3c-0.3-0.2-0.6-0.5-0.8-0.8
			c-0.2-0.3-0.4-0.8-0.5-1.3c-0.1-0.5-0.1-1-0.1-1.6c0-1.3,0.2-2.3,0.7-3c0.5-0.7,1.1-1,2-1c0.4,0,0.7,0,1,0.1
			c0.3,0.1,0.5,0.2,0.7,0.3l-0.3,1c-0.4-0.2-0.8-0.3-1.3-0.3c-0.5,0-1,0.2-1.2,0.7c-0.3,0.5-0.4,1.2-0.4,2.3c0,0.4,0,0.8,0.1,1.2
			c0.1,0.4,0.2,0.7,0.3,1c0.1,0.3,0.3,0.5,0.5,0.6c0.2,0.2,0.5,0.2,0.8,0.2c0.3,0,0.5,0,0.7-0.1c0.2-0.1,0.4-0.2,0.6-0.3L56.7,130.6
			z"/>
		<path d="M57.8,123.4h0.8l0.2,0.8h0.1c0.4-0.7,1-1,1.8-1c0.8,0,1.4,0.3,1.8,0.9c0.4,0.6,0.6,1.6,0.6,2.9c0,0.6-0.1,1.2-0.2,1.7
			c-0.1,0.5-0.3,0.9-0.6,1.3c-0.2,0.4-0.5,0.6-0.9,0.8c-0.3,0.2-0.7,0.3-1.2,0.3c-0.3,0-0.5,0-0.7-0.1c-0.2,0-0.4-0.1-0.6-0.2v3.1
			h-1.1V123.4z M58.9,129.8c0.1,0.1,0.3,0.2,0.5,0.3c0.2,0.1,0.4,0.1,0.7,0.1c0.5,0,1-0.3,1.3-0.8c0.3-0.5,0.5-1.3,0.5-2.3
			c0-0.4,0-0.8-0.1-1.2c-0.1-0.3-0.1-0.6-0.3-0.9c-0.1-0.2-0.3-0.4-0.5-0.6c-0.2-0.1-0.4-0.2-0.7-0.2c-0.7,0-1.2,0.5-1.4,1.4V129.8z
			"/>
		<path d="M68.9,130.4c-0.2,0.2-0.6,0.4-0.9,0.5c-0.4,0.1-0.8,0.2-1.2,0.2c-0.5,0-0.9-0.1-1.2-0.3c-0.3-0.2-0.6-0.5-0.9-0.8
			c-0.2-0.3-0.4-0.8-0.5-1.3c-0.1-0.5-0.2-1-0.2-1.6c0-1.3,0.2-2.3,0.7-3c0.5-0.7,1.2-1,2-1c0.3,0,0.6,0,0.8,0.1
			c0.3,0.1,0.5,0.2,0.8,0.4c0.2,0.2,0.4,0.5,0.5,0.9c0.1,0.4,0.2,0.9,0.2,1.5c0,0.2,0,0.4,0,0.6c0,0.2,0,0.4-0.1,0.6h-3.9
			c0,0.4,0,0.8,0.1,1.2c0.1,0.4,0.2,0.7,0.3,0.9c0.2,0.2,0.3,0.4,0.6,0.6c0.2,0.1,0.5,0.2,0.9,0.2c0.3,0,0.5-0.1,0.8-0.2
			c0.3-0.1,0.5-0.2,0.6-0.4L68.9,130.4z M68.1,126.4c0-0.8-0.1-1.3-0.3-1.7c-0.2-0.4-0.6-0.5-1-0.5c-0.5,0-0.8,0.2-1.1,0.5
			c-0.3,0.4-0.4,0.9-0.5,1.7H68.1z"/>
		<path d="M75.9,132.9h-0.8l-0.2-1.9h-4.5l-0.2,1.9h-0.7V130h0.7c0.1-0.1,0.1-0.3,0.3-0.6c0.1-0.3,0.2-0.7,0.3-1.2
			c0.1-0.5,0.2-1.2,0.3-2c0.1-0.8,0.1-1.7,0.1-2.8H75v6.6h0.9V132.9z M73.9,130v-5.6h-1.7c0,0.4,0,0.9-0.1,1.4c0,0.5-0.1,1-0.2,1.5
			c-0.1,0.5-0.2,1-0.3,1.5c-0.1,0.5-0.2,0.9-0.3,1.2H73.9z"/>
		<path d="M80.7,127.6H78v3.4h-1.1v-7.6H78v3.2h2.6v-3.2h1.1v7.6h-1.1V127.6z"/>
		<path d="M88,130.4c-0.2,0.2-0.6,0.4-0.9,0.5c-0.4,0.1-0.8,0.2-1.2,0.2c-0.5,0-0.9-0.1-1.2-0.3c-0.3-0.2-0.6-0.5-0.9-0.8
			c-0.2-0.3-0.4-0.8-0.5-1.3c-0.1-0.5-0.2-1-0.2-1.6c0-1.3,0.2-2.3,0.7-3c0.5-0.7,1.2-1,2-1c0.3,0,0.6,0,0.8,0.1
			c0.3,0.1,0.5,0.2,0.8,0.4c0.2,0.2,0.4,0.5,0.5,0.9c0.1,0.4,0.2,0.9,0.2,1.5c0,0.2,0,0.4,0,0.6c0,0.2,0,0.4-0.1,0.6h-3.9
			c0,0.4,0,0.8,0.1,1.2c0.1,0.4,0.2,0.7,0.3,0.9c0.2,0.2,0.3,0.4,0.6,0.6c0.2,0.1,0.5,0.2,0.9,0.2c0.3,0,0.5-0.1,0.8-0.2
			c0.3-0.1,0.5-0.2,0.6-0.4L88,130.4z M87.1,126.4c0-0.8-0.1-1.3-0.3-1.7c-0.2-0.4-0.6-0.5-1-0.5c-0.5,0-0.8,0.2-1.1,0.5
			c-0.3,0.4-0.4,0.9-0.5,1.7H87.1z"/>
		<path d="M93.3,124.3h-2.5v6.6h-1.1v-7.6h3.6V124.3z"/>
		<path d="M93.6,127.2c0-1.4,0.2-2.4,0.7-3c0.5-0.6,1.1-1,2-1c0.9,0,1.6,0.3,2.1,1c0.4,0.7,0.7,1.7,0.7,3c0,1.4-0.2,2.4-0.7,3
			c-0.5,0.6-1.1,1-2,1c-0.9,0-1.6-0.3-2.1-1C93.8,129.5,93.6,128.5,93.6,127.2z M94.7,127.2c0,0.4,0,0.9,0.1,1.2
			c0.1,0.4,0.1,0.7,0.3,0.9c0.1,0.3,0.3,0.5,0.5,0.6c0.2,0.1,0.4,0.2,0.7,0.2c0.5,0,0.9-0.2,1.2-0.7c0.3-0.5,0.4-1.2,0.4-2.3
			c0-0.4,0-0.8-0.1-1.2c-0.1-0.4-0.1-0.7-0.3-1c-0.1-0.3-0.3-0.5-0.5-0.6c-0.2-0.1-0.4-0.2-0.7-0.2c-0.5,0-0.9,0.2-1.2,0.7
			C94.8,125.4,94.7,126.1,94.7,127.2z"/>
		<path d="M104.2,124.7c0.3-0.5,0.6-0.8,0.9-1c0.3-0.2,0.7-0.3,1.2-0.3c0.7,0,1.3,0.3,1.7,0.9c0.4,0.6,0.6,1.5,0.6,2.7
			c0,1.4-0.2,2.5-0.7,3.1c-0.5,0.7-1.1,1-2,1c-0.5,0-0.9-0.1-1.2-0.3c-0.3-0.2-0.6-0.5-0.9-0.8c-0.2-0.4-0.4-0.9-0.5-1.5
			c-0.1-0.6-0.2-1.3-0.2-2.2c0-0.9,0-1.6,0.1-2.2c0.1-0.6,0.2-1.1,0.3-1.6c0.1-0.4,0.3-0.8,0.5-1c0.2-0.3,0.4-0.5,0.7-0.6
			c0.2-0.1,0.5-0.3,0.8-0.3c0.3-0.1,0.6-0.1,0.9-0.2c0.4-0.1,0.8-0.1,1-0.2c0.3-0.1,0.5-0.2,0.6-0.4l0.1,1c-0.1,0.1-0.2,0.2-0.3,0.2
			c-0.1,0.1-0.2,0.1-0.4,0.2c-0.1,0-0.3,0.1-0.5,0.1c-0.2,0-0.4,0.1-0.7,0.1c-0.3,0-0.6,0.1-0.9,0.2c-0.3,0.1-0.5,0.3-0.7,0.5
			c-0.2,0.2-0.3,0.5-0.4,0.9C104.3,123.5,104.2,124,104.2,124.7L104.2,124.7z M104.3,127.2c0,0.4,0,0.8,0.1,1.2
			c0.1,0.4,0.2,0.7,0.3,0.9c0.1,0.3,0.3,0.5,0.5,0.6c0.2,0.2,0.4,0.2,0.7,0.2c0.5,0,0.9-0.2,1.2-0.7c0.3-0.5,0.4-1.3,0.4-2.3
			c0-0.8-0.1-1.5-0.3-2c-0.2-0.5-0.6-0.7-1.1-0.7c-0.6,0-1,0.2-1.3,0.7C104.5,125.6,104.3,126.3,104.3,127.2z"/>
		<path d="M113.8,126.6l0.1-1.2h-0.1l-0.5,1.3l-2.6,4.3H110v-7.6h1.1v4.5L111,129h0.1l0.5-1.2l2.6-4.4h0.7v7.6h-1.1V126.6z"/>
		<path d="M117.2,127.5v-0.9h0.8c0.1,0,0.3,0,0.4-0.1c0.1-0.1,0.3-0.2,0.4-0.3c0.1-0.1,0.2-0.2,0.3-0.4c0.1-0.1,0.1-0.3,0.1-0.5
			c0-0.4-0.1-0.7-0.3-0.9c-0.2-0.2-0.5-0.3-0.9-0.3c-0.3,0-0.6,0-0.9,0.1c-0.3,0.1-0.5,0.2-0.6,0.3l-0.3-0.9
			c0.3-0.2,0.5-0.3,0.9-0.4c0.3-0.1,0.7-0.2,1.2-0.2c0.7,0,1.2,0.2,1.5,0.5c0.4,0.3,0.5,0.8,0.5,1.4c0,0.4-0.1,0.7-0.3,1.1
			c-0.2,0.3-0.5,0.6-0.8,0.7v0.1c0.5,0.1,0.8,0.3,1,0.6c0.2,0.3,0.3,0.7,0.3,1.2c0,0.6-0.2,1.2-0.6,1.6s-1.1,0.6-2,0.6
			c-0.4,0-0.7,0-1-0.1c-0.3-0.1-0.5-0.2-0.8-0.3l0.3-0.9c0.2,0.1,0.4,0.2,0.7,0.3c0.3,0.1,0.5,0.1,0.8,0.1c0.5,0,0.9-0.1,1.1-0.4
			c0.2-0.2,0.4-0.6,0.4-1c0-0.4-0.1-0.7-0.4-0.9c-0.2-0.2-0.6-0.3-1.2-0.3H117.2z"/>
		<path d="M125.6,127.6H123v3.4h-1.1v-7.6h1.1v3.2h2.6v-3.2h1.1v7.6h-1.1V127.6z"/>
		<path d="M132.9,130.4c-0.2,0.2-0.6,0.4-0.9,0.5c-0.4,0.1-0.8,0.2-1.2,0.2c-0.5,0-0.9-0.1-1.2-0.3c-0.3-0.2-0.6-0.5-0.9-0.8
			c-0.2-0.3-0.4-0.8-0.5-1.3c-0.1-0.5-0.2-1-0.2-1.6c0-1.3,0.2-2.3,0.7-3c0.5-0.7,1.2-1,2-1c0.3,0,0.6,0,0.8,0.1
			c0.3,0.1,0.5,0.2,0.8,0.4c0.2,0.2,0.4,0.5,0.5,0.9c0.1,0.4,0.2,0.9,0.2,1.5c0,0.2,0,0.4,0,0.6c0,0.2,0,0.4-0.1,0.6h-3.9
			c0,0.4,0,0.8,0.1,1.2c0.1,0.4,0.2,0.7,0.3,0.9c0.2,0.2,0.3,0.4,0.6,0.6c0.2,0.1,0.5,0.2,0.9,0.2c0.3,0,0.5-0.1,0.8-0.2
			c0.3-0.1,0.5-0.2,0.6-0.4L132.9,130.4z M132.1,126.4c0-0.8-0.1-1.3-0.3-1.7c-0.2-0.4-0.6-0.5-1-0.5c-0.5,0-0.8,0.2-1.1,0.5
			c-0.3,0.4-0.4,0.9-0.5,1.7H132.1z"/>
		<path d="M138.7,130.6c-0.3,0.2-0.5,0.3-0.9,0.4c-0.3,0.1-0.7,0.1-1,0.1c-0.5,0-0.9-0.1-1.2-0.3c-0.3-0.2-0.6-0.5-0.8-0.8
			c-0.2-0.3-0.4-0.8-0.5-1.3c-0.1-0.5-0.1-1-0.1-1.6c0-1.3,0.2-2.3,0.7-3c0.5-0.7,1.1-1,2-1c0.4,0,0.7,0,1,0.1
			c0.3,0.1,0.5,0.2,0.7,0.3l-0.3,1c-0.4-0.2-0.8-0.3-1.3-0.3c-0.5,0-1,0.2-1.2,0.7c-0.3,0.5-0.4,1.2-0.4,2.3c0,0.4,0,0.8,0.1,1.2
			c0.1,0.4,0.2,0.7,0.3,1c0.1,0.3,0.3,0.5,0.5,0.6c0.2,0.2,0.5,0.2,0.8,0.2c0.3,0,0.5,0,0.7-0.1c0.2-0.1,0.4-0.2,0.6-0.3
			L138.7,130.6z"/>
		<path d="M139.7,123.8c0.3-0.2,0.7-0.3,1.1-0.4c0.4-0.1,0.9-0.2,1.3-0.2c0.4,0,0.8,0.1,1,0.2c0.3,0.1,0.5,0.3,0.6,0.5
			c0.1,0.2,0.2,0.5,0.3,0.7c0,0.3,0.1,0.6,0.1,0.9c0,0.6,0,1.2,0,1.8c0,0.6,0,1.1,0,1.6c0,0.4,0,0.7,0,1.1c0,0.3,0.1,0.6,0.1,0.9
			h-0.9l-0.3-0.9h-0.1c-0.2,0.3-0.4,0.5-0.7,0.7c-0.3,0.2-0.7,0.3-1.2,0.3c-0.5,0-1-0.2-1.3-0.6c-0.3-0.4-0.5-0.9-0.5-1.6
			c0-0.4,0.1-0.8,0.2-1.1c0.1-0.3,0.4-0.5,0.6-0.7c0.3-0.2,0.6-0.3,0.9-0.4c0.4-0.1,0.8-0.1,1.2-0.1c0.1,0,0.2,0,0.3,0
			c0.1,0,0.2,0,0.3,0c0-0.3,0-0.6,0-0.8c0-0.6-0.1-1-0.3-1.2c-0.2-0.2-0.5-0.3-0.9-0.3c-0.3,0-0.6,0-0.9,0.1
			c-0.3,0.1-0.6,0.2-0.8,0.3L139.7,123.8z M143,127.5c-0.1,0-0.2,0-0.3,0c-0.1,0-0.2,0-0.3,0c-0.2,0-0.5,0-0.7,0.1
			c-0.2,0-0.4,0.1-0.6,0.2c-0.2,0.1-0.3,0.2-0.4,0.4c-0.1,0.2-0.2,0.4-0.2,0.7c0,0.4,0.1,0.7,0.3,0.9c0.2,0.2,0.4,0.3,0.8,0.3
			c0.4,0,0.7-0.1,1-0.3c0.2-0.2,0.4-0.4,0.5-0.7V127.5z"/>
	</g>
</g>
</svg>
