<?xml version="1.0" encoding="utf-8"?>
<!-- Generator: Adobe Illustrator 23.0.0, SVG Export Plug-In . SVG Version: 6.00 Build 0)  -->
<svg version="1.1" id="Layer_1" xmlns="http://www.w3.org/2000/svg" xmlns:xlink="http://www.w3.org/1999/xlink" x="0px" y="0px"
	 viewBox="0 0 514.1 160" style="enable-background:new 0 0 514.1 160;" xml:space="preserve">
<style type="text/css">
	.st0{fill:#242122;stroke:#242122;stroke-width:0.1;stroke-miterlimit:10;}
	.st1{fill:none;stroke:#242021;stroke-width:0.4;stroke-miterlimit:10;}
	.st2{fill:#615F5B;}
	.st3{fill:#FFFFFF;}
</style>
<g>
	<g>
		
			<image style="overflow:visible;" width="1209" height="1159" xlink:href="5EB59709.png"  transform="matrix(8.853638e-02 0 0 8.853638e-02 28.9012 29.9688)">
		</image>
	</g>
	<g>
		<path class="st0" d="M157.5,61.7l-3.9-6.8l-2.7,3.2v3.6h-1.4V48.9h1.4v7.3l6-7.3h1.7l-4,4.9l4.6,7.8H157.5z"/>
		<path class="st0" d="M168.1,60.5c-0.9,0.9-2,1.3-3.3,1.3c-1.3,0-2.4-0.5-3.3-1.3c-1.2-1.2-1.2-2.6-1.2-5.2c0-1.8-0.1-3.8,1.2-5.2
			c0.9-0.9,2-1.3,3.3-1.3s2.4,0.5,3.3,1.3c1.3,1.3,1.2,3.4,1.2,5.2C169.3,57.9,169.3,59.3,168.1,60.5z M167.1,50.9
			c-0.6-0.6-1.4-0.9-2.2-0.9c-0.8,0-1.6,0.3-2.2,0.9c-1,1-0.9,2.4-0.9,4.4c0,1.7-0.1,3.4,0.9,4.4c0.6,0.6,1.4,0.9,2.2,0.9
			s1.6-0.3,2.2-0.9c1-1,0.9-2.7,0.9-4.4C168,53.5,168,51.9,167.1,50.9z"/>
		<path class="st0" d="M182.1,61.7V52l-3.5,7.7h-1.2l-3.6-7.7v9.7h-1.4V48.9h1.4l4.2,9.1l4.1-9.1h1.4v12.8H182.1z"/>
		<path class="st0" d="M195,61.7V51.3l-6.5,10.4h-1.3V48.9h1.4v10.4l6.5-10.4h1.3v12.8H195z"/>
		<path class="st0" d="M203.8,50.1v11.6h-1.4V50.1h-3.7v-1.2h8.8v1.2H203.8z"/>
		<path class="st0" d="M209.8,61.7V48.9h7.9v1.2h-6.6v4.5h5.6v1.2h-5.6v4.6h6.6v1.2H209.8z"/>
		<path class="st0" d="M224.4,50.1v11.6H223V50.1h-3.7v-1.2h8.8v1.2H224.4z"/>
		<path class="st0" d="M241.9,61.7V50.1h-6.1v11.6h-1.4V48.9h8.8v12.8H241.9z"/>
		<path class="st0" d="M254.2,60.5c-0.9,0.9-2,1.3-3.3,1.3s-2.4-0.5-3.3-1.3c-1.2-1.2-1.2-2.6-1.2-5.2c0-1.8-0.1-3.8,1.2-5.2
			c0.9-0.9,2-1.3,3.3-1.3s2.4,0.5,3.3,1.3c1.3,1.3,1.2,3.4,1.2,5.2C255.4,57.9,255.4,59.3,254.2,60.5z M253.2,50.9
			c-0.6-0.6-1.4-0.9-2.2-0.9c-0.8,0-1.6,0.3-2.2,0.9c-1,1-0.9,2.4-0.9,4.4c0,1.7-0.1,3.4,0.9,4.4c0.6,0.6,1.4,0.9,2.2,0.9
			s1.6-0.3,2.2-0.9c1-1,0.9-2.7,0.9-4.4C254,53.5,254.1,51.9,253.2,50.9z"/>
		<path class="st0" d="M270.5,61.7V50.1h-6.1v11.6h-1.4V48.9h8.8v12.8H270.5z"/>
		<path class="st0" d="M280.3,56.4h-3.4v5.3h-1.4V48.9h4.8c2.4,0,3.9,1.5,3.9,3.8C284.3,54.9,282.7,56.4,280.3,56.4z M280.2,50.1
			h-3.3v5.1h3.3c1.7,0,2.7-1,2.7-2.5C282.9,51.1,281.9,50.1,280.2,50.1z"/>
		<path class="st0" d="M294.1,60.5c-0.9,0.9-2,1.3-3.3,1.3c-1.3,0-2.4-0.5-3.3-1.3c-1.2-1.2-1.2-2.6-1.2-5.2c0-1.8-0.1-3.8,1.2-5.2
			c0.9-0.9,2-1.3,3.3-1.3c1.3,0,2.4,0.5,3.3,1.3c1.3,1.3,1.2,3.4,1.2,5.2C295.3,57.9,295.3,59.3,294.1,60.5z M293.1,50.9
			c-0.6-0.6-1.4-0.9-2.2-0.9c-0.8,0-1.6,0.3-2.2,0.9c-1,1-0.9,2.4-0.9,4.4c0,1.7-0.1,3.4,0.9,4.4c0.6,0.6,1.4,0.9,2.2,0.9
			c0.8,0,1.6-0.3,2.2-0.9c1-1,0.9-2.7,0.9-4.4C294,53.5,294,51.9,293.1,50.9z"/>
		<path class="st0" d="M308.1,61.7V52l-3.5,7.7h-1.2l-3.6-7.7v9.7h-1.4V48.9h1.4l4.2,9.1l4.1-9.1h1.4v12.8H308.1z"/>
		<path class="st0" d="M318,61.7h-4.8V48.9h1.4v5.3h3.4c2.4,0,3.9,1.5,3.9,3.8C321.9,60.2,320.3,61.7,318,61.7z M317.8,55.4h-3.3
			v5.1h3.3c1.7,0,2.7-0.9,2.7-2.5C320.5,56.3,319.5,55.4,317.8,55.4z M323.6,61.7V48.9h1.4v12.8H323.6z"/>
		<path class="st0" d="M328.7,61.7V48.9h1.4v11.6h5V48.9h1.4v11.6h5V48.9h1.4v12.8H328.7z"/>
		<path class="st0" d="M354,61.7V50.1h-4.2l-0.2,5.7c-0.1,4.3-1.3,5.8-3.7,5.8H345v-1.2h0.5c1.6,0,2.6-0.8,2.7-5l0.2-6.6h7v12.8H354
			z"/>
		<path class="st0" d="M359,61.7V48.9h7.9v1.2h-6.6v4.5h5.6v1.2h-5.6v4.6h6.6v1.2H359z"/>
		<path class="st0" d="M377.2,61.7v-5.8h-6.1v5.8h-1.4V48.9h1.4v5.7h6.1v-5.7h1.4v12.8H377.2z"/>
		<path class="st0" d="M389.7,61.7v-5.8h-6.1v5.8h-1.4V48.9h1.4v5.7h6.1v-5.7h1.4v12.8H389.7z"/>
		<path class="st0" d="M402,60.5c-0.9,0.9-2,1.3-3.3,1.3c-1.3,0-2.4-0.5-3.3-1.3c-1.2-1.2-1.2-2.6-1.2-5.2c0-1.8-0.1-3.8,1.2-5.2
			c0.9-0.9,2-1.3,3.3-1.3c1.3,0,2.4,0.5,3.3,1.3c1.3,1.3,1.2,3.4,1.2,5.2C403.2,57.9,403.2,59.3,402,60.5z M401,50.9
			c-0.6-0.6-1.4-0.9-2.2-0.9c-0.8,0-1.6,0.3-2.2,0.9c-1,1-0.9,2.4-0.9,4.4c0,1.7-0.1,3.4,0.9,4.4c0.6,0.6,1.4,0.9,2.2,0.9
			c0.8,0,1.6-0.3,2.2-0.9c1-1,0.9-2.7,0.9-4.4C401.9,53.5,401.9,51.9,401,50.9z"/>
		<path class="st0" d="M414.2,61.7V51.3l-6.5,10.4h-1.3V48.9h1.4v10.4l6.5-10.4h1.3v12.8H414.2z M411,48.1c-1.6,0-2.6-0.8-2.9-2.4h1
			c0.2,0.8,0.7,1.3,1.9,1.3c1.1,0,1.6-0.6,1.8-1.3h1C413.6,47.3,412.7,48.1,411,48.1z"/>
		<path class="st0" d="M156.9,86.2V74.7h-6.1v11.6h-1.4V73.4h8.8v12.8H156.9z"/>
		<path class="st0" d="M169.3,85c-0.9,0.9-2,1.3-3.3,1.3c-1.3,0-2.4-0.5-3.3-1.3c-1.2-1.2-1.2-2.6-1.2-5.2c0-1.8-0.1-3.8,1.2-5.2
			c0.9-0.9,2-1.3,3.3-1.3s2.4,0.5,3.3,1.3c1.3,1.3,1.2,3.4,1.2,5.2C170.5,82.4,170.4,83.8,169.3,85z M168.2,75.5
			c-0.6-0.6-1.4-0.9-2.2-0.9c-0.8,0-1.6,0.3-2.2,0.9c-1,1-0.9,2.4-0.9,4.4c0,1.7-0.1,3.4,0.9,4.4c0.6,0.6,1.4,0.9,2.2,0.9
			s1.6-0.3,2.2-0.9c1-1,0.9-2.7,0.9-4.4C169.1,78.1,169.2,76.4,168.2,75.5z"/>
		<path class="st0" d="M180.8,86.2V74.7h-4.2l-0.2,5.7c-0.1,4.3-1.3,5.8-3.7,5.8h-0.8V85h0.5c1.6,0,2.6-0.8,2.7-5l0.2-6.6h6.9v12.8
			H180.8z"/>
		<path class="st0" d="M193.6,86.2V75.8l-6.5,10.4h-1.3V73.4h1.4v10.4l6.5-10.4h1.3v12.8H193.6z"/>
		<path class="st0" d="M202.4,74.7v11.6h-1.4V74.7h-3.7v-1.2h8.8v1.2H202.4z"/>
		<path class="st0" d="M216.3,86.2V75.8l-6.5,10.4h-1.3V73.4h1.4v10.4l6.5-10.4h1.3v12.8H216.3z"/>
		<path class="st0" d="M229.3,86.2l-3.9-6.8l-2.7,3.2v3.6h-1.4V73.4h1.4v7.3l6-7.3h1.7l-4,4.9l4.6,7.8H229.3z"/>
		<path class="st0" d="M233,86.2V73.4h7.9v1.2h-6.6v4.5h5.6v1.2h-5.6V85h6.6v1.2H233z"/>
		<path class="st0" d="M243.5,88.3h-1.1l1.1-4h1.7L243.5,88.3z"/>
		<path class="st0" d="M260.8,86.2V75.8l-6.5,10.4H253V73.4h1.4v10.4l6.5-10.4h1.3v12.8H260.8z"/>
		<path class="st0" d="M273.3,86.2v-5.8h-6.1v5.8h-1.4V73.4h1.4v5.7h6.1v-5.7h1.4v12.8H273.3z"/>
		<path class="st0" d="M285.7,86.2v-5.8h-6.1v5.8h-1.4V73.4h1.4v5.7h6.1v-5.7h1.4v12.8H285.7z"/>
		<path class="st0" d="M298.1,85c-0.9,0.9-2,1.3-3.3,1.3c-1.3,0-2.4-0.5-3.3-1.3c-1.2-1.2-1.2-2.6-1.2-5.2c0-1.8-0.1-3.8,1.2-5.2
			c0.9-0.9,2-1.3,3.3-1.3c1.3,0,2.4,0.5,3.3,1.3c1.3,1.3,1.2,3.4,1.2,5.2C299.3,82.4,299.2,83.8,298.1,85z M297,75.5
			c-0.6-0.6-1.4-0.9-2.2-0.9c-0.8,0-1.6,0.3-2.2,0.9c-1,1-0.9,2.4-0.9,4.4c0,1.7-0.1,3.4,0.9,4.4c0.6,0.6,1.4,0.9,2.2,0.9
			c0.8,0,1.6-0.3,2.2-0.9c1-1,0.9-2.7,0.9-4.4C297.9,78.1,298,76.4,297,75.5z"/>
		<path class="st0" d="M307.4,86.2h-5V73.4h4.8c2.3,0,3.8,1.3,3.8,3.4c0,0.9-0.3,1.7-0.9,2.3c-0.3,0.3-0.5,0.4-1,0.6
			c0.6,0.3,0.8,0.4,1.1,0.7c0.6,0.6,0.9,1.4,0.9,2.4C311.2,84.9,309.8,86.2,307.4,86.2z M307.2,74.7h-3.3v4.4h3.3
			c1.6,0,2.5-0.8,2.5-2.2C309.7,75.5,308.7,74.7,307.2,74.7z M307.3,80.3h-3.5V85h3.5c1.6,0,2.6-0.9,2.6-2.4
			C309.9,81.2,308.9,80.3,307.3,80.3z"/>
		<path class="st0" d="M321.7,86.2l-1-2.9h-5.6l-1,2.9h-1.5l4.7-12.8h1.1l4.7,12.8H321.7z M317.9,75.4l-2.4,6.8h4.8L317.9,75.4z"/>
		<path class="st0" d="M334.1,89.5v-3.3h-9V73.4h1.4V85h6V73.4h1.4V85h1.5v4.5H334.1z"/>
		<path class="st0" d="M345.9,86.2V75.8l-6.5,10.4h-1.3V73.4h1.4v10.4l6.5-10.4h1.3v12.8H345.9z"/>
		<path class="st0" d="M357.6,86.2V81h-3.2l-2.8,5.3h-1.6l2.9-5.5c-1.7-0.4-2.7-1.7-2.7-3.6c0-2.2,1.6-3.8,4-3.8h4.8v12.8H357.6z
			 M357.6,74.7h-3.3c-1.7,0-2.7,0.9-2.7,2.5c0,1.6,1,2.5,2.7,2.5h3.3V74.7z"/>
		<path class="st0" d="M372.3,86.2v-9.7l-3.5,7.7h-1.2l-3.6-7.7v9.7h-1.4V73.4h1.4l4.2,9.1l4.1-9.1h1.4v12.8H372.3z"/>
		<path class="st0" d="M389.6,86.2V75.8l-6.5,10.4h-1.3V73.4h1.4v10.4l6.5-10.4h1.3v12.8H389.6z"/>
		<path class="st0" d="M402.4,74.7v11.6h-1.4V74.7h-3.7v-1.2h8.8v1.2H402.4z"/>
		<path class="st0" d="M415.4,85c-0.9,0.9-2,1.3-3.3,1.3c-1.3,0-2.4-0.5-3.3-1.3c-1.2-1.2-1.2-2.6-1.2-5.2c0-1.8-0.1-3.8,1.2-5.2
			c0.9-0.9,2-1.3,3.3-1.3c1.3,0,2.4,0.5,3.3,1.3c1.3,1.3,1.2,3.4,1.2,5.2C416.6,82.4,416.6,83.8,415.4,85z M414.4,75.5
			c-0.6-0.6-1.4-0.9-2.2-0.9c-0.8,0-1.6,0.3-2.2,0.9c-1,1-0.9,2.4-0.9,4.4c0,1.7-0.1,3.4,0.9,4.4c0.6,0.6,1.4,0.9,2.2,0.9
			c0.8,0,1.6-0.3,2.2-0.9c1-1,0.9-2.7,0.9-4.4C415.3,78.1,415.3,76.4,414.4,75.5z"/>
		<path class="st0" d="M424.6,81h-3.4v5.3h-1.4V73.4h4.8c2.4,0,4,1.5,4,3.8C428.5,79.5,427,81,424.6,81z M424.5,74.7h-3.3v5.1h3.3
			c1.7,0,2.7-1,2.7-2.5C427.2,75.6,426.2,74.7,424.5,74.7z"/>
		<path class="st0" d="M432.6,74.7v11.6h-1.4V73.4h7.7v1.2H432.6z"/>
		<path class="st0" d="M448.2,85c-0.9,0.9-2,1.3-3.3,1.3c-1.3,0-2.4-0.5-3.3-1.3c-1.2-1.2-1.2-2.6-1.2-5.2c0-1.8-0.1-3.8,1.2-5.2
			c0.9-0.9,2-1.3,3.3-1.3c1.3,0,2.4,0.5,3.3,1.3c1.3,1.3,1.2,3.4,1.2,5.2C449.4,82.4,449.3,83.8,448.2,85z M447.1,75.5
			c-0.6-0.6-1.4-0.9-2.2-0.9c-0.8,0-1.6,0.3-2.2,0.9c-1,1-0.9,2.4-0.9,4.4c0,1.7-0.1,3.4,0.9,4.4c0.6,0.6,1.4,0.9,2.2,0.9
			c0.8,0,1.6-0.3,2.2-0.9c1-1,0.9-2.7,0.9-4.4C448,78.1,448.1,76.4,447.1,75.5z"/>
		<path class="st0" d="M457.5,86.2h-5V73.4h4.8c2.3,0,3.8,1.3,3.8,3.4c0,0.9-0.3,1.7-0.9,2.3c-0.3,0.3-0.5,0.4-1,0.6
			c0.6,0.3,0.8,0.4,1.1,0.7c0.6,0.6,0.9,1.4,0.9,2.4C461.3,84.9,459.9,86.2,457.5,86.2z M457.3,74.7h-3.3v4.4h3.3
			c1.6,0,2.5-0.8,2.5-2.2C459.8,75.5,458.9,74.7,457.3,74.7z M457.4,80.3h-3.5V85h3.5c1.6,0,2.6-0.9,2.6-2.4
			C460,81.2,459,80.3,457.4,80.3z"/>
		<path class="st0" d="M471.8,86.2V74.7h-4.2l-0.2,5.7c-0.1,4.3-1.3,5.8-3.7,5.8h-0.8V85h0.5c1.6,0,2.6-0.8,2.7-5l0.2-6.6h6.9v12.8
			H471.8z"/>
		<path class="st0" d="M476.8,86.2V73.4h7.9v1.2h-6.6v4.5h5.6v1.2h-5.6V85h6.6v1.2H476.8z"/>
		<path class="st0" d="M153.6,110.8c-1.3,0-2.4-0.5-3.3-1.3c-1.3-1.3-1.2-3.1-1.2-5.2c0-2.4,0-3.9,1.2-5.2c0.9-0.9,2-1.3,3.3-1.3
			c1.6,0,2.4,0.5,3.6,1.6l-0.9,0.9c-0.8-0.8-1.5-1.3-2.6-1.3c-0.9,0-1.7,0.3-2.2,0.9c-0.9,0.9-0.9,2.3-0.9,4.4v0.5
			c0,2.4,0.2,3.2,0.9,3.9c0.6,0.6,1.3,0.9,2.2,0.9c1.1,0,1.9-0.5,2.6-1.3l0.9,0.9C156,110.3,155.1,110.8,153.6,110.8z"/>
		<path class="st0" d="M167.5,110.7l-1-2.9h-5.6l-1,2.9h-1.5l4.7-12.8h1.1l4.7,12.8H167.5z M163.7,99.9l-2.4,6.8h4.8L163.7,99.9z"/>
		<path class="st0" d="M178.5,110.7v-5.8h-6.1v5.8H171V98h1.4v5.7h6.1V98h1.4v12.8H178.5z"/>
		<path class="st0" d="M191.5,110.7l-3.9-6.8l-2.7,3.2v3.6h-1.4V98h1.4v7.3l6-7.3h1.7l-4,4.9l4.6,7.8H191.5z"/>
		<path class="st0" d="M198.9,99.2v11.6h-1.4V99.2h-3.7V98h8.8v1.2H198.9z"/>
		<path class="st0" d="M204.1,106.5v-1.2h4.9v1.2H204.1z"/>
		<path class="st0" d="M219.6,110.7V99.2h-6.1v11.6h-1.4V98h8.8v12.8H219.6z"/>
		<path class="st0" d="M224.7,110.7V98h7.9v1.2h-6.6v4.5h5.6v1.2h-5.6v4.6h6.6v1.2H224.7z"/>
		<path class="st0" d="M239.2,99.2v11.6h-1.4V99.2h-3.7V98h8.8v1.2H239.2z"/>
		<path class="st0" d="M245.3,110.7V98h7.9v1.2h-6.6v4.5h5.6v1.2h-5.6v4.6h6.6v1.2H245.3z"/>
		<path class="st0" d="M260.8,105.5h-3.4v5.3h-1.4V98h4.8c2.4,0,3.9,1.5,3.9,3.8C264.8,104,263.2,105.5,260.8,105.5z M260.7,99.2
			h-3.3v5.1h3.3c1.7,0,2.7-1,2.7-2.5C263.4,100.1,262.4,99.2,260.7,99.2z"/>
		<path class="st0" d="M272.2,110.7h-4.8V98h8v1.2h-6.6v4h3.5c2.4,0,3.9,1.5,3.9,3.8C276.1,109.2,274.6,110.7,272.2,110.7z
			 M272.1,104.4h-3.3v5.1h3.3c1.7,0,2.7-0.9,2.7-2.5C274.8,105.4,273.8,104.4,272.1,104.4z"/>
		<path class="st0" d="M282.3,108.7c-0.5,1.2-1.2,2-2.5,2h-1.1v-1.2h0.8c0.9,0,1.3-0.4,1.7-1.3l0.5-1.2l-4.2-9.1h1.5l3.4,7.6
			l3.1-7.6h1.5L282.3,108.7z"/>
		<path class="st0" d="M293.7,105.5h-3.4v5.3h-1.4V98h4.8c2.4,0,4,1.5,4,3.8C297.6,104,296,105.5,293.7,105.5z M293.5,99.2h-3.3v5.1
			h3.3c1.7,0,2.7-1,2.7-2.5C296.3,100.1,295.3,99.2,293.5,99.2z"/>
		<path class="st0" d="M301.7,99.2v11.6h-1.4V98h7.7v1.2H301.7z"/>
		<path class="st0" d="M316,110.7l-1-2.9h-5.6l-1,2.9H307l4.7-12.8h1.1l4.7,12.8H316z M312.3,99.9l-2.4,6.8h4.8L312.3,99.9z"/>
	</g>
	<path class="st1" d="M122.2,72.7c-0.4-2.5-1.1-4.9-1.9-7.2c-0.4-1-0.1-2.1,0.8-2.7c0.9-0.7,1.9-1.4,2.7-2.1
		c0.9-0.7,1.2-1.9,0.7-2.9c-0.9-1.9-2-3.7-3.1-5.4c-0.6-0.9-1.8-1.2-2.8-0.8c-0.9,0.4-2,0.8-3.1,1.3c-1,0.4-2.1,0.1-2.8-0.7
		c-1.6-1.9-3.3-3.6-5.2-5.2c-0.8-0.7-1.1-1.8-0.7-2.8c0.5-1.1,1-2.2,1.3-3.1c0.4-1,0.1-2.2-0.8-2.8c-1.7-1.2-3.6-2.2-5.4-3.1
		c-1-0.5-2.2-0.2-2.9,0.7c-0.6,0.8-1.4,1.8-2.1,2.7c-0.6,0.8-1.7,1.1-2.7,0.8c-2.3-0.8-4.7-1.5-7.2-1.9c-1-0.2-1.8-1-2-2
		c-0.1-1.1-0.3-2.4-0.4-3.4c-0.1-1.1-1.1-2-2.2-2c-1-0.1-2-0.1-3.1-0.1c-1,0-2.1,0-3.1,0.1c-1.1,0.1-2,0.9-2.2,2
		c-0.1,1-0.3,2.3-0.4,3.4c-0.1,1-0.9,1.9-2,2c-2.5,0.4-4.9,1.1-7.2,1.9c-1,0.4-2.1,0.1-2.7-0.8c-0.7-0.9-1.4-1.9-2.1-2.7
		c-0.7-0.9-1.9-1.2-2.9-0.7c-1.9,0.9-3.7,2-5.4,3.1c-0.9,0.6-1.2,1.8-0.8,2.8c0.4,0.9,0.8,2,1.3,3.1c0.4,1,0.1,2.1-0.7,2.8
		c-1.9,1.6-3.6,3.3-5.2,5.2c-0.7,0.8-1.8,1.1-2.8,0.7c-1.1-0.5-2.2-1-3.1-1.3c-1-0.4-2.2-0.1-2.8,0.8c-1.2,1.7-2.2,3.6-3.1,5.4
		c-0.5,1-0.2,2.2,0.7,2.9c0.8,0.6,1.8,1.4,2.7,2.1c0.8,0.6,1.1,1.7,0.8,2.7c-0.8,2.3-1.5,4.7-1.9,7.2c-0.2,1-1,1.8-2,2
		c-1.1,0.1-2.4,0.3-3.4,0.4c-1.1,0.1-2,1.1-2,2.2c-0.1,1-0.1,2-0.1,3.1s0,2.1,0.1,3.1c0.1,1.1,0.9,2,2,2.2c1,0.1,2.3,0.3,3.4,0.4
		c1,0.1,1.8,0.9,2,2c0.4,2.5,1.1,4.9,1.9,7.2c0.4,1,0.1,2.1-0.8,2.7c-0.9,0.7-1.9,1.4-2.7,2.1c-0.9,0.7-1.2,1.9-0.7,2.9
		c0.9,1.9,2,3.7,3.1,5.4c0.6,0.9,1.8,1.2,2.8,0.8c0.9-0.4,2-0.8,3.1-1.3c1-0.4,2.1-0.1,2.8,0.7c1.6,1.9,3.3,3.6,5.2,5.2
		c0.8,0.7,1.1,1.8,0.7,2.8c-0.5,1.1-1,2.2-1.3,3.1c-0.4,1-0.1,2.2,0.8,2.8c1.7,1.2,3.6,2.2,5.4,3.1c1,0.5,2.2,0.2,2.9-0.7
		c0.6-0.8,1.4-1.8,2.1-2.7c0.6-0.8,1.7-1.1,2.7-0.8c2.3,0.8,4.7,1.5,7.2,1.9c1,0.2,1.8,1,2,2c0.1,1.1,0.3,2.4,0.4,3.4
		c0.1,1.1,1.1,2,2.2,2c1,0.1,2,0.1,3.1,0.1c1,0,2.1,0,3.1-0.1c1.1-0.1,2-0.9,2.2-2c0.1-1,0.3-2.3,0.4-3.4c0.1-1,0.9-1.8,2-2
		c2.5-0.4,4.9-1.1,7.2-1.9c1-0.4,2.1-0.1,2.7,0.8c0.7,0.9,1.4,1.9,2.1,2.7c0.7,0.9,1.9,1.2,2.9,0.7c1.9-0.9,3.7-2,5.4-3.1
		c0.9-0.6,1.2-1.8,0.8-2.8c-0.4-0.9-0.8-2-1.3-3.1c-0.4-1-0.1-2.1,0.7-2.8c1.9-1.6,3.6-3.3,5.2-5.2c0.7-0.8,1.8-1.1,2.8-0.7
		c1.1,0.5,2.2,1,3.1,1.3c1,0.4,2.2,0.1,2.8-0.8c1.2-1.7,2.2-3.6,3.1-5.4c0.5-1,0.2-2.2-0.7-2.9c-0.8-0.6-1.8-1.4-2.7-2.1
		c-0.8-0.6-1.1-1.7-0.8-2.7c0.8-2.3,1.5-4.7,1.9-7.2c0.2-1,1-1.8,2-2c1.1-0.1,2.4-0.3,3.4-0.4c1.1-0.1,2-1.1,2-2.2
		c0.1-1,0.1-2,0.1-3.1c0-1,0-2.1-0.1-3.1c-0.1-1.1-0.9-2-2-2.2c-1-0.1-2.3-0.3-3.4-0.4C123.2,74.5,122.4,73.7,122.2,72.7z"/>
</g>
</svg>
